<svg width="40" height="40" viewBox="0 0 40 40" xmlns="http://www.w3.org/2000/svg">
    <title>
        filter-category-13
    </title>
    <path d="M38.065 21.935v-8.387a1.938 1.938 0 0 0-1.936-1.935h-1.29c-.498 0-.947.194-1.29.503a1.92 1.92 0 0 0-1.29-.503h-1.291c-.498 0-.947.194-1.29.503a1.92 1.92 0 0 0-1.29-.503h-1.291a1.938 1.938 0 0 0-1.936 1.935v8.28c-1.488-1.033-3.66-1.91-6.841-2.282l1.016-7.114a1.852 1.852 0 0 0-1.831-2.11h-5.892V4.517c0-.355.29-.645.645-.645h5.161a1.938 1.938 0 0 0 1.936-1.936A1.938 1.938 0 0 0 17.419 0h-5.806a3.875 3.875 0 0 0-3.871 3.871v6.452H1.85a1.852 1.852 0 0 0-1.831 2.111l1.555 10.883C.04 25.143 0 26.945 0 27.097c0 1.125.728 2.073 1.734 2.426a2.568 2.568 0 0 0 .27 3.217A3.873 3.873 0 0 0 0 36.129 3.875 3.875 0 0 0 3.871 40H40V23.871a1.938 1.938 0 0 0-1.935-1.936zm-3.871-8.387c0-.355.29-.645.645-.645h1.29c.356 0 .645.29.645.645v8.387h-2.58v-8.387zm-3.871 0c0-.355.29-.645.645-.645h1.29c.356 0 .645.29.645.645v8.387h-2.58v-8.387zm-3.871 0c0-.355.29-.645.645-.645h1.29c.356 0 .645.29.645.645v8.387h-2.58v-8.387zM16.129 1.29h1.29a.646.646 0 0 1 0 1.29h-1.29V1.29zm-2.58 0h1.29v1.29h-1.29V1.29zM9.031 3.871a2.583 2.583 0 0 1 2.58-2.58h.646v1.29a1.938 1.938 0 0 0-1.935 1.935v5.807h-1.29V3.87zM1.39 12.903l-.093-.65a.56.56 0 0 1 .554-.64H17.505a.56.56 0 0 1 .554.639l-.093.651h-1.837v1.29h1.652l-.368 2.581H1.942l-.368-2.58h13.265v-1.29H1.389zm15.84 5.162l-.195 1.365a31.75 31.75 0 0 0-2.195-.075h-1.29c-5.623 0-8.906 1.309-10.83 2.85l-.593-4.14H17.23zM1.29 27.097c0-.065.14-6.452 12.258-6.452h1.29c12.035 0 12.256 6.192 12.259 6.452 0 .711-.579 1.29-1.29 1.29H2.58c-.712 0-1.29-.579-1.29-1.29zm2.581 5.161c-.712 0-1.29-.579-1.29-1.29 0-.712.578-1.29 1.29-1.29h20.645c.712 0 1.29.578 1.29 1.29 0 .711-.578 1.29-1.29 1.29H3.871zm17.952 1.29l-2.647 3.089-7.06-3.089h9.707zm2.693 5.162H3.871a2.583 2.583 0 0 1-2.58-2.581 2.583 2.583 0 0 1 2.58-2.58h5.026l10.637 4.653 3.989-4.654h.993a2.583 2.583 0 0 1 2.58 2.581 2.583 2.583 0 0 1-2.58 2.58zm1.867-5.97c.44-.463.714-1.085.714-1.772 0-.473-.137-.91-.359-1.29h9.391v6.451h-7.742c0-.453-.082-.886-.226-1.29h4.097v-1.29h-4.864a3.895 3.895 0 0 0-1.01-.809zm12.327-6.934h-1.29v1.29h1.29V38.71H27.394c.334-.373.597-.81.767-1.29h9.258v-9.033h-9.39c.221-.381.358-.818.358-1.29h7.742v-1.29h-7.96a6.911 6.911 0 0 0-1.432-2.581h11.328c.355 0 .645.289.645.645v1.935zm-5.162 7.742h1.29v1.29h-1.29v-1.29zM8.388 21.935h1.29v1.29h-1.29v-1.29zm2.58 1.29h1.29v1.291h-1.29v-1.29zm2.58-1.29h1.29v1.29h-1.29v-1.29zm3.871 1.936h1.29v1.29h-1.29v-1.29zm3.226-1.936h1.29v1.29h-1.29v-1.29zM4.516 24.516h1.29v1.29h-1.29v-1.29z" fill="#000" fill-rule="nonzero"/>
</svg>
