<svg width="37" height="38" viewBox="0 0 37 38" xmlns="http://www.w3.org/2000/svg">
    <title>
        filter-category-1
    </title>
    <path d="M31.544 31.43a.669.669 0 0 0-.201.603l.71 3.99-3.752-1.901a.67.67 0 0 0-.603 0l-3.752 1.902.71-3.991a.665.665 0 0 0-.201-.602l-2.985-2.806 4.149-.581a.664.664 0 0 0 .5-.355l1.88-3.67 1.879 3.67a.665.665 0 0 0 .5.355l4.15.581-2.984 2.806zm5.092-3.474a.67.67 0 0 1-.178.687l-3.736 3.512.88 4.952a.666.666 0 0 1-.958.71l-4.642-2.352-4.643 2.352a.666.666 0 1 1-.959-.71l.88-4.952-3.735-3.512a.666.666 0 0 1 .363-1.145l5.184-.726 2.316-4.52c.227-.446.957-.446 1.185 0l2.315 4.52 5.184.726a.668.668 0 0 1 .544.458zM30 8a.666.666 0 1 1 0 1.333H18A.666.666 0 1 1 18 8h12zm0 9.333a.666.666 0 1 1 0 1.334H18a.666.666 0 1 1 0-1.334h12zM13.72 4.827c.28.24.312.66.072.939l-4.571 5.333a.664.664 0 0 1-.906.1L5.267 8.913a.665.665 0 1 1 .8-1.066l2.548 1.911 4.165-4.859c.24-.28.66-.311.94-.072zm0 9.334c.28.24.312.66.072.938l-4.571 5.334a.664.664 0 0 1-.906.1l-3.048-2.286a.665.665 0 1 1 .8-1.066l2.548 1.91 4.165-4.858c.24-.28.66-.312.94-.072zm-.94 10.072a.666.666 0 1 1 1.012.867L9.22 30.433a.664.664 0 0 1-.906.1l-3.048-2.286a.666.666 0 1 1 .8-1.066l2.548 1.91 4.165-4.858zM18 34.667A.666.666 0 1 1 18 36H8.117C3.641 36 0 32.36 0 27.883V8.117C0 3.641 3.641 0 8.117 0h19.766C32.359 0 36 3.641 36 8.117v15.937a.666.666 0 1 1-1.333 0V8.117a6.791 6.791 0 0 0-6.784-6.784H8.117a6.79 6.79 0 0 0-6.784 6.784v19.766a6.79 6.79 0 0 0 6.784 6.784H18z" fill="#000" fill-rule="evenodd"/>
</svg>
