<svg width="40" height="38" viewBox="0 0 40 38" xmlns="http://www.w3.org/2000/svg">
    <title>
        filter-category-16
    </title>
    <path d="M39.257 9.986a.665.665 0 0 0-.666.665v.22l-7.984 3.286v-1.203L39.51 9.27a.665.665 0 0 0 0-1.23L20.216.056a.666.666 0 0 0-.508 0L.41 8.04a.665.665 0 0 0 0 1.23l19.296 7.984a.659.659 0 0 0 .508 0l6.977-2.887a.664.664 0 1 0-.508-1.229l-6.723 2.781L2.405 8.655 19.961 1.39l17.556 7.265-7.64 3.161-7.316-2.732c.038-.138.062-.28.062-.43 0-1.118-1.17-1.995-2.662-1.995S17.3 7.536 17.3 8.655s1.169 1.996 2.661 1.996c.666 0 1.26-.182 1.722-.474l7.593 2.835v16.392a1.994 1.994 0 0 0-1.33 1.874c0 1.1.895 1.996 1.996 1.996 1.1 0 1.996-.896 1.996-1.996 0-.867-.559-1.598-1.331-1.874v-3.777c1.91-1.442 2.595-3.362 2.625-3.447a.673.673 0 0 0 .036-.218v-4.657a.665.665 0 1 0-1.33 0v4.534a6.806 6.806 0 0 1-1.331 2.01v-8.253l8.903-3.664a.665.665 0 0 0 .412-.616v-.665a.665.665 0 0 0-.665-.665zM19.96 9.32c-.812 0-1.33-.394-1.33-.665 0-.272.518-.665 1.33-.665s1.33.393 1.33.665c0 .271-.518.665-1.33.665zm9.98 22.623a.666.666 0 1 1 .002-1.332.666.666 0 0 1-.001 1.332zm-1.835 1.35c.357.09.574.45.485.808l-.665 2.66a.666.666 0 0 1-1.291-.322l.665-2.662a.664.664 0 0 1 .806-.484zm-8.145-13.327a.659.659 0 0 1-.254-.05L.41 11.93A.665.665 0 0 1 0 11.316v-.665a.666.666 0 0 1 1.33 0v.22l18.631 7.71 7.064-2.924a.665.665 0 1 1 .51 1.23l-7.32 3.029a.66.66 0 0 1-.254.05zm7.915 6.817a.664.664 0 0 1-.301.89c-1.484.734-4.01 1.608-7.614 1.608-10.312 0-13.144-6.783-13.26-7.071a.673.673 0 0 1-.047-.248v-4.657a.666.666 0 0 1 1.33 0v4.519c.384.833 3.05 5.838 11.312 6.101v-5.963a.666.666 0 0 1 1.33 0v5.97c2.985-.1 5.096-.826 6.36-1.451a.664.664 0 0 1 .89.302zm2.066 7.156c.367 0 .665.298.665.665V36.6a.665.665 0 1 1-1.33 0v-1.996c0-.367.297-.665.665-.665zm2.641-.162l.665 2.662a.665.665 0 0 1-1.29.323l-.666-2.661a.666.666 0 0 1 1.291-.324z" fill="#000" fill-rule="nonzero"/>
</svg>
