<svg width="38" height="37" viewBox="0 0 38 37" xmlns="http://www.w3.org/2000/svg">
    <title>
        filter-category-5
    </title>
    <path d="M13.94 22.488a5.37 5.37 0 0 1-3.503 1.3 5.393 5.393 0 0 1-5.243-4.206l1.463-.44a3.856 3.856 0 0 0 3.78 3.124 3.856 3.856 0 0 0 3.78-3.123l1.463.439a5.376 5.376 0 0 1-1.74 2.906m-.766-5.44v1.368a2.74 2.74 0 0 1-2.737 2.736 2.74 2.74 0 0 1-2.737-2.73V17.049c.832.388 1.76.607 2.737.607.978 0 1.905-.218 2.737-.607M5.065 11.17a.557.557 0 0 0-.556-.557.762.762 0 0 1-.761-.76c0-.27.143-.515.382-.654.012-.007.024-.016.035-.024a.76.76 0 0 1 .344-.083h.842c.524 0 .988-.334 1.153-.831l.384-1.15c1.308-.03 5.433-.213 7.75-1.371a.557.557 0 1 0-.498-.996c-2.485 1.243-7.604 1.258-7.655 1.258a.557.557 0 0 0-.528.381l-.509 1.526a.102.102 0 0 1-.097.07H4.51l-.102.003v-2.74A4.059 4.059 0 0 1 8.46 1.187h5.27c.698 0 1.284.504 1.394 1.197a.557.557 0 0 0 .277.398 2.078 2.078 0 0 1 1.065 1.801v4.135c0 .198.106.381.277.48.24.14.382.385.382.655 0 .419-.341.76-.76.76a.557.557 0 0 0-.557.557 5.378 5.378 0 0 1-5.372 5.371 5.378 5.378 0 0 1-5.372-5.371m13.218 8.03l-3.996-1.199v-1.618a6.483 6.483 0 0 0 2.618-4.736 1.877 1.877 0 0 0 1.334-1.794c0-.548-.246-1.067-.658-1.42v-3.85a3.189 3.189 0 0 0-1.411-2.635A2.515 2.515 0 0 0 13.73.074H8.46a5.173 5.173 0 0 0-5.167 5.168v3.191a1.874 1.874 0 0 0-.658 1.42c0 .846.563 1.562 1.335 1.794a6.482 6.482 0 0 0 2.617 4.736v1.618l-4.782 1.435A2.517 2.517 0 0 0 0 21.862v6.434c0 .307.25.557.557.557h.102v6.688a.557.557 0 1 0 1.113 0v-6.688h2.18v6.688a.557.557 0 1 0 1.113 0V25.002a.556.556 0 0 0-.058-.248l-1.318-2.635a.557.557 0 1 0-.995.498l1.258 2.517v2.605H1.113v-5.877a1.41 1.41 0 0 1 1.012-1.36l1.999-.6c.68 2.888 3.295 4.998 6.313 4.998a6.484 6.484 0 0 0 6.312-4.998l1.214.364a.558.558 0 0 0 .693-.373.557.557 0 0 0-.373-.693m-6.178-6.486a.557.557 0 0 1 .082.783c-.446.55-1.084.864-1.75.864-.666 0-1.304-.315-1.75-.864a.557.557 0 0 1 .865-.702c.237.292.551.453.885.453.334 0 .648-.16.885-.453a.557.557 0 0 1 .783-.081zM7.802 9.296c.308 0 .557.25.557.557v.658a.557.557 0 0 1-1.113 0v-.658c0-.308.249-.557.556-.557zm5.27 0c.307 0 .556.25.556.557v.658a.557.557 0 0 1-1.113 0v-.658c0-.308.25-.557.557-.557zm16.818 6.711a.557.557 0 0 1 .081.783c-.445.55-1.083.865-1.75.865-.665 0-1.303-.315-1.749-.865a.557.557 0 0 1 .865-.701c.236.292.55.453.885.453.334 0 .648-.161.885-.453a.557.557 0 0 1 .783-.082zm-4.303-3.418c.307 0 .557.25.557.557v.659a.557.557 0 0 1-1.114 0v-.659c0-.307.25-.557.557-.557zm5.27 0c.307 0 .556.25.556.557v.659a.557.557 0 0 1-1.113 0v-.659c0-.307.249-.557.556-.557zm-2.635 14.492a4.71 4.71 0 0 1-4.516-3.361l1.26-.504a1.865 1.865 0 0 0 1.178-1.74v-.872a6.49 6.49 0 0 0 2.078.344 6.49 6.49 0 0 0 2.078-.344v.872c0 .77.462 1.454 1.178 1.74l1.26.504a4.71 4.71 0 0 1-4.516 3.36m-7.3-7.061c.098-.864.315-2.896.462-5.236.117.065.24.119.37.158a6.51 6.51 0 0 0 3.276 5.167v.958c-2.142-.425-3.492-.838-4.108-1.047m7.3-.184a5.311 5.311 0 0 1-3.374-1.192 5.393 5.393 0 0 1-1.865-2.985 5.406 5.406 0 0 1-.133-1.195.557.557 0 0 0-.557-.556.762.762 0 0 1 0-1.522c1.688 0 2.913-1.528 3.466-2.383 1.298.835 2.782 1.13 4.111 1.394 2.447.486 3.723.843 3.723 3.067 0 .404-.045.805-.133 1.195a5.392 5.392 0 0 1-1.864 2.985 5.311 5.311 0 0 1-3.374 1.192m-6.69-9.324c0-3.688 3.001-6.689 6.69-6.689 3.688 0 6.689 3 6.689 6.69 0 3.82.454 8.135.61 9.507-.616.209-1.966.622-4.108 1.047v-.958a6.51 6.51 0 0 0 3.133-4.204c.106-.47.16-.955.16-1.44 0-3.243-2.348-3.71-4.62-4.16-1.452-.288-2.953-.587-4.151-1.545a.556.556 0 0 0-.846.185c-.003.006-.315.62-.842 1.218-.447.506-1.148 1.11-1.954 1.11-.274 0-.534.06-.769.166.006-.311.009-.62.009-.927M36.408 23.99l-4.517-1.807a.779.779 0 0 1-.11-.054c3.06-.616 4.493-1.195 4.556-1.221a.557.557 0 0 0 .341-.585c-.006-.052-.654-5.287-.654-9.81 0-4.303-3.5-7.803-7.802-7.803s-7.803 3.5-7.803 7.802c0 4.522-.647 9.76-.654 9.812a.557.557 0 0 0 .341.584c.064.026 1.496.605 4.556 1.22a.779.779 0 0 1-.11.055l-4.517 1.807a2.52 2.52 0 0 0-1.592 2.351v1.4h-1.521v-2.606l1.258-2.517a.557.557 0 1 0-.995-.498l-1.318 2.635a.556.556 0 0 0-.058.249v10.539a.557.557 0 1 0 1.113 0v-6.69h1.521v.762a.557.557 0 0 0 .557.556h.102v5.372a.557.557 0 1 0 1.113 0V30.17h1.522v5.372a.557.557 0 1 0 1.113 0v-7.246a.557.557 0 0 0-1.113 0v.76h-2.18V26.34c0-.584.35-1.1.892-1.318l2.22-.888c.763 2.406 3.001 4.06 5.553 4.06a5.823 5.823 0 0 0 5.552-4.06l2.22.888c.542.217.893.735.893 1.318v2.717h-2.18v-.761a.557.557 0 0 0-1.114 0v7.246a.557.557 0 1 0 1.114 0V30.17h1.521v5.372a.557.557 0 1 0 1.113 0V30.17h.102c.308 0 .557-.25.557-.557V26.34a2.52 2.52 0 0 0-1.592-2.351" fill="#000" fill-rule="evenodd"/>
</svg>
