<?xml version="1.0" encoding="UTF-8"?>
<svg width="38px" height="38px" viewBox="0 0 38 38" version="1.1" xmlns="http://www.w3.org/2000/svg" xmlns:xlink="http://www.w3.org/1999/xlink">
    <!-- Generator: Sketch 49.3 (51167) - http://www.bohemiancoding.com/sketch -->
    <title>filter-category-6</title>
    <desc>Created with Sketch.</desc>
    <g id="Symbols" stroke="none" stroke-width="1" fill="none" fill-rule="evenodd">
        <g id="Elements-/-Sort-/-Card-/-~Parts-/-Icon_06" transform="translate(-1.000000, -1.000000)">
            <mask id="mask-2" fill="white">
                <path d="M4.46545416,5.14103185 L4.46545416,3.85016136 L5.76182942,3.85016136 L5.76182942,5.14103185 L4.46545416,5.14103185 Z M7.05820469,5.14103185 L7.05820469,3.85016136 L8.35457996,3.85016136 L8.35457996,5.14103185 L7.05820469,5.14103185 Z M9.65095522,5.14103185 L9.65095522,3.85016136 L10.9473305,3.85016136 L10.9473305,5.14103185 L9.65095522,5.14103185 Z M24.1827548,37.6090064 C27.4625032,37.8839618 34.8136802,37.3966582 37.7590448,34.9788577 L38.5828913,35.9747643 C35.7307846,38.315758 29.7195736,38.9650658 25.9931429,38.9650658 C25.2464307,38.9650658 24.5924094,38.9392484 24.0731301,38.8953588 C17.3741919,38.3312484 9.72104051,35.833414 3.60020469,32.2131677 L1.31663966,30.8622718 C1.01191045,30.6821953 0.909577825,30.2904161 1.08718124,29.9844798 C1.44498081,29.3700255 1.61675053,28.6477834 1.79824307,27.8822972 C1.84418337,27.6886667 1.89028571,27.4950361 1.93954797,27.3033418 C2.064,26.8173291 2.21826866,25.9298556 2.38226013,24.9907473 C2.672,23.329397 2.97202985,21.610603 3.30333475,20.7650828 L7.18597868,10.8563609 C7.2623838,10.6601486 7.33246908,10.4490913 7.40312154,10.2341614 C7.65526652,9.46996603 7.94241365,8.60443737 8.61393603,8.01644586 C8.95293817,7.71954565 9.34703625,7.51429724 9.69381663,7.35358386 L9.93364606,7.19028875 L17.2730746,1.5672569 C18.1325714,0.908912951 19.3251557,0.919239915 20.1730661,1.59436518 L24.0252452,4.66340977 C24.5690746,5.09714225 24.8911429,5.7445138 24.9061322,6.43900212 C24.9152068,6.85337155 24.8037186,7.24902335 24.6098294,7.60272187 L25.7468316,9.30150743 C25.9283241,9.57259023 25.8784136,9.93661571 25.6288614,10.1489639 L21.091548,14.0215754 C20.974145,14.1222633 20.8238465,14.1771253 20.670145,14.1771253 C20.6435693,14.1771253 20.6163454,14.175189 20.5879062,14.1732527 L15.6188998,13.5549257 C15.543629,14.1958429 15.5074115,14.8419236 15.522968,15.4899406 C15.5411173,16.2696263 15.6273262,17.0725478 15.7108614,17.8490064 C15.8119787,18.7868238 15.9164179,19.7562675 15.909936,20.7334565 C15.9053177,21.4795796 15.8295608,22.2063397 15.6947377,22.9079278 C15.8515991,22.9066369 16.0052196,22.9124459 16.1483881,22.9253546 C17.2413134,23.0228153 18.3062857,23.3242335 19.2875608,23.8025011 C20.7091173,22.1921401 22.7974968,21.0729554 25.2210704,20.7128025 C27.0418294,20.4404289 28.8088699,20.6301868 30.3515565,21.2155966 C32.5728955,19.0895329 36.0315437,18.2698301 38.9536546,19.2831635 L38.5284435,20.5023907 C36.2111727,19.7007601 33.4932409,20.2609979 31.6154414,21.8171423 C32.5891002,22.3786709 33.4330405,23.1189851 34.0837399,24.0245308 L33.0292196,24.7758174 C31.4598763,22.5916645 28.5462729,21.5215329 25.4123667,21.9894735 C23.3193689,22.3012187 21.52,23.2506539 20.2987335,24.6125223 L19.6772026,25.5154862 C19.6622942,25.5051592 19.6454414,25.497414 19.6298849,25.487087 C19.3479232,25.9266285 19.1184648,26.3965053 18.9512324,26.892845 L17.7222687,26.4817028 C17.9141322,25.9124289 18.1720299,25.3721996 18.4884264,24.8661783 C17.7125458,24.5182887 16.8860256,24.2859321 16.0349552,24.2104161 C15.7906695,24.1897622 15.5417655,24.1852442 15.3460128,24.2504331 C14.8041279,25.9137197 13.8894542,27.3678854 12.6547377,28.4457622 L11.8004264,27.4750276 C13.5446994,25.9524459 14.5966269,23.4281486 14.614209,20.7244204 C14.6200426,19.8214565 14.5241109,18.9301104 14.4229126,17.9864841 C14.3361365,17.1835626 14.2466866,16.3535329 14.2271599,15.520276 C14.1915096,13.9680042 14.3924478,12.4260594 14.8274627,10.9357495 L16.0719829,11.2952569 C15.9773475,11.6205563 15.8963241,11.9490828 15.8255906,12.2795456 L20.4646695,12.8572102 L24.3480426,9.54225478 L23.7120896,8.5921741 L21.6451002,10.3929384 C20.7188401,11.2016688 19.309032,11.1551975 18.4371386,10.2864416 C17.9373859,9.78881104 17.6905075,9.10206794 17.7605117,8.4017707 C17.830516,7.70147346 18.2077612,7.07604671 18.7956674,6.68620382 L19.0127292,6.54162633 L19.7329467,7.6143397 L19.5151557,7.75956263 C19.2513433,7.93447558 19.0821663,8.21523992 19.0504051,8.52892144 C19.0192111,8.84324841 19.129484,9.15047558 19.3536759,9.37379618 C19.7446141,9.76170276 20.3746525,9.78429299 20.7920043,9.42091295 L23.2499318,7.28000425 C23.4853049,7.07475584 23.6155906,6.7791465 23.6091087,6.46804671 C23.6026269,6.15694692 23.4586482,5.8671465 23.2150107,5.67287049 L19.3621023,2.6038259 C18.9822644,2.2998259 18.4482388,2.29595329 18.0632154,2.5909172 L10.3801663,8.44953291 C10.3510789,8.47018684 10.3193177,8.48825902 10.2855309,8.50310403 C9.99708742,8.63541826 9.69827292,8.78515924 9.4688145,8.98653503 C9.06175267,9.34281529 8.84404264,10.0018047 8.63402985,10.6382038 C8.55495096,10.8763694 8.47773561,11.1093715 8.39290405,11.3255924 L4.51026013,21.2343142 C4.22635394,21.959138 3.91190192,23.7624841 3.65918977,25.2114862 C3.48353092,26.2177197 3.33185501,27.0877665 3.19508742,27.6215414 C3.14841791,27.8061359 3.10369296,27.9926667 3.05953518,28.1798429 C2.91118124,28.8039788 2.75877612,29.444896 2.49561194,30.0580594 L4.26330064,31.1030191 C10.2233049,34.6289512 17.6697655,37.0603864 24.1827548,37.6090064 Z M32.3375629,12.9062552 C32.1482921,12.6525992 31.9240192,12.4292786 31.6692814,12.2408115 C31.9240192,12.0523444 32.1482921,11.8290238 32.3375629,11.5753677 C32.5268337,11.8290238 32.7511066,12.0523444 33.0058443,12.2408115 C32.7511066,12.4292786 32.5268337,12.6525992 32.3375629,12.9062552 M32.9857505,9.65907049 L31.6893753,9.65907049 C31.6893753,10.7266204 30.8169147,11.5953762 29.7448124,11.5953762 L29.7448124,12.8862467 C30.8169147,12.8862467 31.6893753,13.7550025 31.6893753,14.8225524 L32.9857505,14.8225524 C32.9857505,13.7550025 33.8582921,12.8862467 34.9303134,12.8862467 L34.9303134,11.5953762 C33.8582921,11.5953762 32.9857505,10.7266204 32.9857505,9.65907049 M36.2266887,5.80646752 C36.0374179,5.55281146 35.813145,5.32949087 35.5584072,5.14102378 C35.813145,4.95255669 36.0374179,4.72923609 36.2266887,4.47558004 C36.4159595,4.72923609 36.6402324,4.95255669 36.8949701,5.14102378 C36.6402324,5.32949087 36.4159595,5.55281146 36.2266887,5.80646752 M36.8748763,2.5592828 L35.5785011,2.5592828 C35.5785011,3.6268327 34.7060405,4.49558854 33.6339382,4.49558854 L33.6339382,5.78645902 C34.7060405,5.78645902 35.5785011,6.65521486 35.5785011,7.72276476 L36.8748763,7.72276476 C36.8748763,6.65521486 37.7474179,5.78645902 38.8194392,5.78645902 L38.8194392,4.49558854 C37.7474179,4.49558854 36.8748763,3.6268327 36.8748763,2.5592828"></path>
            </mask>
            <path d="M4.46545416,5.14103185 L4.46545416,3.85016136 L5.76182942,3.85016136 L5.76182942,5.14103185 L4.46545416,5.14103185 Z M7.05820469,5.14103185 L7.05820469,3.85016136 L8.35457996,3.85016136 L8.35457996,5.14103185 L7.05820469,5.14103185 Z M9.65095522,5.14103185 L9.65095522,3.85016136 L10.9473305,3.85016136 L10.9473305,5.14103185 L9.65095522,5.14103185 Z M24.1827548,37.6090064 C27.4625032,37.8839618 34.8136802,37.3966582 37.7590448,34.9788577 L38.5828913,35.9747643 C35.7307846,38.315758 29.7195736,38.9650658 25.9931429,38.9650658 C25.2464307,38.9650658 24.5924094,38.9392484 24.0731301,38.8953588 C17.3741919,38.3312484 9.72104051,35.833414 3.60020469,32.2131677 L1.31663966,30.8622718 C1.01191045,30.6821953 0.909577825,30.2904161 1.08718124,29.9844798 C1.44498081,29.3700255 1.61675053,28.6477834 1.79824307,27.8822972 C1.84418337,27.6886667 1.89028571,27.4950361 1.93954797,27.3033418 C2.064,26.8173291 2.21826866,25.9298556 2.38226013,24.9907473 C2.672,23.329397 2.97202985,21.610603 3.30333475,20.7650828 L7.18597868,10.8563609 C7.2623838,10.6601486 7.33246908,10.4490913 7.40312154,10.2341614 C7.65526652,9.46996603 7.94241365,8.60443737 8.61393603,8.01644586 C8.95293817,7.71954565 9.34703625,7.51429724 9.69381663,7.35358386 L9.93364606,7.19028875 L17.2730746,1.5672569 C18.1325714,0.908912951 19.3251557,0.919239915 20.1730661,1.59436518 L24.0252452,4.66340977 C24.5690746,5.09714225 24.8911429,5.7445138 24.9061322,6.43900212 C24.9152068,6.85337155 24.8037186,7.24902335 24.6098294,7.60272187 L25.7468316,9.30150743 C25.9283241,9.57259023 25.8784136,9.93661571 25.6288614,10.1489639 L21.091548,14.0215754 C20.974145,14.1222633 20.8238465,14.1771253 20.670145,14.1771253 C20.6435693,14.1771253 20.6163454,14.175189 20.5879062,14.1732527 L15.6188998,13.5549257 C15.543629,14.1958429 15.5074115,14.8419236 15.522968,15.4899406 C15.5411173,16.2696263 15.6273262,17.0725478 15.7108614,17.8490064 C15.8119787,18.7868238 15.9164179,19.7562675 15.909936,20.7334565 C15.9053177,21.4795796 15.8295608,22.2063397 15.6947377,22.9079278 C15.8515991,22.9066369 16.0052196,22.9124459 16.1483881,22.9253546 C17.2413134,23.0228153 18.3062857,23.3242335 19.2875608,23.8025011 C20.7091173,22.1921401 22.7974968,21.0729554 25.2210704,20.7128025 C27.0418294,20.4404289 28.8088699,20.6301868 30.3515565,21.2155966 C32.5728955,19.0895329 36.0315437,18.2698301 38.9536546,19.2831635 L38.5284435,20.5023907 C36.2111727,19.7007601 33.4932409,20.2609979 31.6154414,21.8171423 C32.5891002,22.3786709 33.4330405,23.1189851 34.0837399,24.0245308 L33.0292196,24.7758174 C31.4598763,22.5916645 28.5462729,21.5215329 25.4123667,21.9894735 C23.3193689,22.3012187 21.52,23.2506539 20.2987335,24.6125223 L19.6772026,25.5154862 C19.6622942,25.5051592 19.6454414,25.497414 19.6298849,25.487087 C19.3479232,25.9266285 19.1184648,26.3965053 18.9512324,26.892845 L17.7222687,26.4817028 C17.9141322,25.9124289 18.1720299,25.3721996 18.4884264,24.8661783 C17.7125458,24.5182887 16.8860256,24.2859321 16.0349552,24.2104161 C15.7906695,24.1897622 15.5417655,24.1852442 15.3460128,24.2504331 C14.8041279,25.9137197 13.8894542,27.3678854 12.6547377,28.4457622 L11.8004264,27.4750276 C13.5446994,25.9524459 14.5966269,23.4281486 14.614209,20.7244204 C14.6200426,19.8214565 14.5241109,18.9301104 14.4229126,17.9864841 C14.3361365,17.1835626 14.2466866,16.3535329 14.2271599,15.520276 C14.1915096,13.9680042 14.3924478,12.4260594 14.8274627,10.9357495 L16.0719829,11.2952569 C15.9773475,11.6205563 15.8963241,11.9490828 15.8255906,12.2795456 L20.4646695,12.8572102 L24.3480426,9.54225478 L23.7120896,8.5921741 L21.6451002,10.3929384 C20.7188401,11.2016688 19.309032,11.1551975 18.4371386,10.2864416 C17.9373859,9.78881104 17.6905075,9.10206794 17.7605117,8.4017707 C17.830516,7.70147346 18.2077612,7.07604671 18.7956674,6.68620382 L19.0127292,6.54162633 L19.7329467,7.6143397 L19.5151557,7.75956263 C19.2513433,7.93447558 19.0821663,8.21523992 19.0504051,8.52892144 C19.0192111,8.84324841 19.129484,9.15047558 19.3536759,9.37379618 C19.7446141,9.76170276 20.3746525,9.78429299 20.7920043,9.42091295 L23.2499318,7.28000425 C23.4853049,7.07475584 23.6155906,6.7791465 23.6091087,6.46804671 C23.6026269,6.15694692 23.4586482,5.8671465 23.2150107,5.67287049 L19.3621023,2.6038259 C18.9822644,2.2998259 18.4482388,2.29595329 18.0632154,2.5909172 L10.3801663,8.44953291 C10.3510789,8.47018684 10.3193177,8.48825902 10.2855309,8.50310403 C9.99708742,8.63541826 9.69827292,8.78515924 9.4688145,8.98653503 C9.06175267,9.34281529 8.84404264,10.0018047 8.63402985,10.6382038 C8.55495096,10.8763694 8.47773561,11.1093715 8.39290405,11.3255924 L4.51026013,21.2343142 C4.22635394,21.959138 3.91190192,23.7624841 3.65918977,25.2114862 C3.48353092,26.2177197 3.33185501,27.0877665 3.19508742,27.6215414 C3.14841791,27.8061359 3.10369296,27.9926667 3.05953518,28.1798429 C2.91118124,28.8039788 2.75877612,29.444896 2.49561194,30.0580594 L4.26330064,31.1030191 C10.2233049,34.6289512 17.6697655,37.0603864 24.1827548,37.6090064 Z M32.3375629,12.9062552 C32.1482921,12.6525992 31.9240192,12.4292786 31.6692814,12.2408115 C31.9240192,12.0523444 32.1482921,11.8290238 32.3375629,11.5753677 C32.5268337,11.8290238 32.7511066,12.0523444 33.0058443,12.2408115 C32.7511066,12.4292786 32.5268337,12.6525992 32.3375629,12.9062552 M32.9857505,9.65907049 L31.6893753,9.65907049 C31.6893753,10.7266204 30.8169147,11.5953762 29.7448124,11.5953762 L29.7448124,12.8862467 C30.8169147,12.8862467 31.6893753,13.7550025 31.6893753,14.8225524 L32.9857505,14.8225524 C32.9857505,13.7550025 33.8582921,12.8862467 34.9303134,12.8862467 L34.9303134,11.5953762 C33.8582921,11.5953762 32.9857505,10.7266204 32.9857505,9.65907049 M36.2266887,5.80646752 C36.0374179,5.55281146 35.813145,5.32949087 35.5584072,5.14102378 C35.813145,4.95255669 36.0374179,4.72923609 36.2266887,4.47558004 C36.4159595,4.72923609 36.6402324,4.95255669 36.8949701,5.14102378 C36.6402324,5.32949087 36.4159595,5.55281146 36.2266887,5.80646752 M36.8748763,2.5592828 L35.5785011,2.5592828 C35.5785011,3.6268327 34.7060405,4.49558854 33.6339382,4.49558854 L33.6339382,5.78645902 C34.7060405,5.78645902 35.5785011,6.65521486 35.5785011,7.72276476 L36.8748763,7.72276476 C36.8748763,6.65521486 37.7474179,5.78645902 38.8194392,5.78645902 L38.8194392,4.49558854 C37.7474179,4.49558854 36.8748763,3.6268327 36.8748763,2.5592828" fill="#000000"></path>
        </g>
    </g>
</svg>
