<svg width="38" height="38" viewBox="0 0 38 38" xmlns="http://www.w3.org/2000/svg">
    <title>
        filter-category-4
    </title>
    <path d="M32.858 4.734a.563.563 0 0 1-.194.772l-8.594 5.137a.561.561 0 0 1-.772-.194.563.563 0 0 1 .194-.773l8.594-5.136a.563.563 0 0 1 .772.194zm-11.942 9.452c.23 0 .43.272.43.586 0 .315-.2.608-.43.608h-3.728c-.241 0-.597-.168-.597-.43v-1.016c0-1.675 3.372-2.565 3.372-4.042 0-.43-.283-.932-.974-.932-.513 0-.932.272-.932.922 0 .251-.262.502-.712.502-.356 0-.618-.167-.618-.733 0-1.194 1.09-1.927 2.251-1.927 1.215 0 2.346.796 2.346 2.126 0 2.262-3.32 2.995-3.32 4.085v.25h2.912zm4.35-2.093c.308.046.52.332.473.64a6.895 6.895 0 0 1-6.82 5.866 6.904 6.904 0 0 1-6.896-6.896 6.904 6.904 0 0 1 6.896-6.896c1.757 0 3.43.66 4.713 1.86a.563.563 0 1 1-.77.823 5.748 5.748 0 0 0-3.943-1.557 5.776 5.776 0 0 0-5.77 5.77 5.776 5.776 0 0 0 5.77 5.77c2.834 0 5.287-2.11 5.706-4.907a.563.563 0 0 1 .64-.473zm2.084-.953c-.015 0-.029 0-.043.002l-.043-.002a.563.563 0 0 0-.563.563c0 4.29-3.49 7.781-7.781 7.781-4.29 0-7.78-3.489-7.781-7.777v-.004-.003c.001-4.29 3.491-7.778 7.78-7.778 2.272 0 4.425.99 5.906 2.714a.563.563 0 0 0 .855-.733 8.902 8.902 0 0 0-6.154-3.086v-1.69h17.272V11.14H27.35zm9.448 11.14H19.526v-1.69c4.444-.3 8.004-3.874 8.283-8.324h8.99V22.28zm-18.399 0H1.126V12.266h8.904c.281 4.478 3.886 8.07 8.37 8.329v1.685zm19.526-10.581V.563A.563.563 0 0 0 37.362 0H5.1a.563.563 0 1 0 0 1.126h13.3v1.685c-4.484.26-8.089 3.85-8.37 8.329H1.126V.563A.563.563 0 1 0 0 .563v22.28c0 .31.252.563.563.563h36.799a.563.563 0 0 0 .563-.563V11.707v-.004-.004zm-1.631 25.174h-7.947V34.1c0-.654.532-1.186 1.186-1.186h5.575c.653 0 1.186.532 1.186 1.186v2.773zm-17.02 0V34.1c0-.654.531-1.186 1.185-1.186h5.575c.654 0 1.186.532 1.186 1.186v2.773h-7.947zm-9.074 0V34.1c0-.654.532-1.186 1.186-1.186h5.575c.654 0 1.186.532 1.186 1.186v2.773H10.2zm-9.074 0V34.1c0-.654.533-1.186 1.186-1.186h5.575c.654 0 1.186.532 1.186 1.186v2.773H1.126zm33.982-5.086h-2.225v-2.774a2.315 2.315 0 0 0-2.312-2.312h-1.22a.563.563 0 1 0 0 1.126h1.22c.654 0 1.186.532 1.186 1.186v2.774h-2.224c-.699 0-1.325.312-1.75.803a2.307 2.307 0 0 0-1.749-.803H23.81v-2.774c0-.654.532-1.186 1.186-1.186a.563.563 0 1 0 0-1.126c-.698 0-1.325.311-1.75.802a2.307 2.307 0 0 0-1.748-.802h-1.51a.563.563 0 1 0 0 1.126h1.51c.653 0 1.185.532 1.185 1.186v2.774H20.46c-.698 0-1.325.312-1.75.803a2.307 2.307 0 0 0-1.748-.803h-2.224v-2.774c0-.654.532-1.186 1.186-1.186a.563.563 0 1 0 0-1.126c-.699 0-1.325.311-1.75.802a2.307 2.307 0 0 0-1.749-.802h-1.297a.563.563 0 1 0 0 1.126h1.297c.654 0 1.186.532 1.186 1.186v2.774h-2.224c-.698 0-1.325.312-1.75.803a2.307 2.307 0 0 0-1.749-.803H5.663v-2.774c0-.654.532-1.186 1.186-1.186a.563.563 0 1 0 0-1.126 2.315 2.315 0 0 0-2.312 2.312v2.774H2.312A2.315 2.315 0 0 0 0 34.1v3.337c0 .31.252.563.563.563h36.294a.563.563 0 0 0 .563-.563V34.1a2.315 2.315 0 0 0-2.312-2.313z" fill="#000" fill-rule="evenodd"/>
</svg>
