<svg width="40" height="40" viewBox="0 0 40 40" xmlns="http://www.w3.org/2000/svg">
    <title>
        filter-category-12
    </title>
    <path d="M37.371 37.306a3.227 3.227 0 0 0 2.577-3.156c0-.825-.31-1.596-.865-2.188a2.52 2.52 0 0 0 .221-1.034 2.58 2.58 0 0 0-2.577-2.577 2.58 2.58 0 0 0-2.577 2.577c0 .36.075.71.22 1.034a3.177 3.177 0 0 0-.865 2.188 3.228 3.228 0 0 0 2.578 3.156v1.354h-6.661l-3.834-9.037a12.954 12.954 0 0 0 1.659-.953 3.218 3.218 0 0 0 3.207 3.072 3.225 3.225 0 0 0 3.221-3.221 3.219 3.219 0 0 0-3.072-3.207 12.817 12.817 0 0 0 2.03-4.9 3.2 3.2 0 0 0 2.161.849 3.225 3.225 0 0 0 3.222-3.222 3.225 3.225 0 0 0-3.222-3.222 3.2 3.2 0 0 0-2.161.85 12.815 12.815 0 0 0-2.03-4.9 3.218 3.218 0 0 0 3.072-3.207 3.225 3.225 0 0 0-3.221-3.222 3.22 3.22 0 0 0-3.207 3.072 12.817 12.817 0 0 0-4.9-2.03 3.2 3.2 0 0 0 .849-2.16A3.225 3.225 0 0 0 19.974 0a3.225 3.225 0 0 0-3.221 3.222 3.2 3.2 0 0 0 .849 2.16 12.815 12.815 0 0 0-4.9 2.03A3.218 3.218 0 0 0 9.495 4.34a3.225 3.225 0 0 0-3.222 3.222 3.219 3.219 0 0 0 3.072 3.207 12.816 12.816 0 0 0-2.03 4.9 3.2 3.2 0 0 0-2.16-.85 3.225 3.225 0 0 0-3.222 3.223 3.225 3.225 0 0 0 3.222 3.221 3.2 3.2 0 0 0 2.16-.849 12.815 12.815 0 0 0 2.03 4.9 3.218 3.218 0 0 0-3.072 3.207 3.225 3.225 0 0 0 3.222 3.222 3.22 3.22 0 0 0 3.207-3.072c.524.36 1.082.672 1.659.953l-3.834 9.036H3.866v-1.354a3.227 3.227 0 0 0 2.577-3.156c0-.825-.31-1.596-.865-2.188a2.52 2.52 0 0 0 .221-1.034 2.58 2.58 0 0 0-2.577-2.577 2.58 2.58 0 0 0-2.578 2.577c0 .36.076.71.221 1.034A3.177 3.177 0 0 0 0 34.15a3.228 3.228 0 0 0 2.577 3.156v1.354H0v1.288h39.948V38.66h-2.577v-1.354zm-2.577-17.332a1.923 1.923 0 0 1-1.43-.644h2.86a1.92 1.92 0 0 1-1.43.644zm0-3.866c1.066 0 1.933.868 1.933 1.933H32.86c0-1.065.867-1.933 1.933-1.933zm-29.64 3.866a1.923 1.923 0 0 1-1.43-.644h2.86a1.92 1.92 0 0 1-1.43.644zm-1.932-1.933c0-1.065.867-1.933 1.933-1.933 1.065 0 1.933.868 1.933 1.933H3.222zM2.577 34.15v1.814A1.93 1.93 0 0 1 1.29 34.15c0-.61.285-1.172.783-1.544l.52-.388L2.2 31.7a1.276 1.276 0 0 1-.267-.773 1.29 1.29 0 0 1 2.577 0c0 .276-.093.543-.267.773l-.391.517.52.389c.497.371.783.934.783 1.543a1.93 1.93 0 0 1-1.29 1.814V34.15H2.578zm27.877-3.866c-.57 0-1.076 0-1.43-.645h2.86c-.354.645-.861.645-1.43.645zm1.933-1.933H28.52c0-.645.867-1.934 1.933-1.934 1.065 0 1.933 1.29 1.933 1.934zM30.454 9.665c-.57 0-1.076-.644-1.43-.644h2.86c-.354 0-.861.644-1.43.644zm0-3.866c1.065 0 1.933.644 1.933 1.933H28.52c0-1.289.866-1.933 1.933-1.933zm-10.48-4.51c1.066 0 1.933.867 1.933 1.933h-3.866c0-1.066.867-1.933 1.933-1.933zm1.43 3.221a1.92 1.92 0 0 1-1.43.645 1.923 1.923 0 0 1-1.43-.645h2.86zM9.494 5.8c1.067 0 1.934.644 1.934 1.933H7.562c0-1.289.867-1.933 1.933-1.933zM8.066 9.021h2.86c-.353 0-.861.644-1.43.644-.57 0-1.076-.644-1.43-.644zm1.43 21.263c-.57 0-1.076 0-1.43-.645h2.86c-.353.645-.86.645-1.43.645zM7.562 28.35c0-.645.867-1.933 1.933-1.933s1.933 1.288 1.933 1.933H7.562zm.814-10.31c0-6.395 5.203-11.598 11.598-11.598 6.395 0 11.598 5.203 11.598 11.598 0 4.56-2.651 8.502-6.487 10.396l-3.548-8.361a2.564 2.564 0 0 0 1.015-2.035 2.58 2.58 0 0 0-2.578-2.577 2.58 2.58 0 0 0-2.577 2.577c0 .83.401 1.563 1.014 2.035l-3.547 8.36c-3.836-1.893-6.488-5.835-6.488-10.395zm9.665 14.82c0-1.066.867-1.933 1.933-1.933s1.933.867 1.933 1.933h-3.866zm3.364 1.289a1.922 1.922 0 0 1-1.43.644 1.923 1.923 0 0 1-1.431-.644h2.86zm-1.43-4.51c-1.38 0-2.697-.255-3.925-.699l3.547-8.36c.124.017.248.038.377.038.13 0 .253-.02.377-.039l3.547 8.361a11.522 11.522 0 0 1-3.924.698zm-1.29-11.599a1.29 1.29 0 0 1 2.577 0 1.29 1.29 0 0 1-1.288 1.289 1.29 1.29 0 0 1-1.288-1.289zM11.928 38.66l3.62-8.532c.662.243 1.347.439 2.055.571a3.2 3.2 0 0 0-.85 2.162 3.225 3.225 0 0 0 3.222 3.222 3.225 3.225 0 0 0 3.222-3.222 3.2 3.2 0 0 0-.85-2.161 12.786 12.786 0 0 0 2.056-.572l3.62 8.532H11.926zm24.155-4.51v1.814a1.93 1.93 0 0 1-1.288-1.814c0-.61.285-1.172.783-1.544l.52-.388-.392-.517a1.276 1.276 0 0 1-.267-.773 1.29 1.29 0 0 1 2.577 0c0 .276-.092.543-.266.773l-.392.517.52.389c.497.371.783.934.783 1.543a1.93 1.93 0 0 1-1.289 1.814V34.15h-1.289z" fill="#000" fill-rule="nonzero"/>
</svg>
