<svg width="40" height="40" viewBox="0 0 40 40" xmlns="http://www.w3.org/2000/svg">
    <title>
        filter-category-events
    </title>
    <path d="M14 13.333h1.333v1.334H14v-1.334zM14 16h1.333v1.333H14V16zm0 2.667h1.333V20H14v-1.333zm0 2.666h1.333v1.334H14v-1.334zm2.667-8H18v1.334h-1.333v-1.334zm0 2.667H18v1.333h-1.333V16zm0 2.667H18V20h-1.333v-1.333zm0 2.666H18v1.334h-1.333v-1.334zm2.666-8h1.334v1.334h-1.334v-1.334zm0 2.667h1.334v1.333h-1.334V16zm0 2.667h1.334V20h-1.334v-1.333zm0 2.666h1.334v1.334h-1.334v-1.334zm2.667-8h1.333v1.334H22v-1.334zm-5.333-2.666H18V12h-1.333v-1.333zm2.666 0h1.334V12h-1.334v-1.333zm2.667 0h1.333V12H22v-1.333zM22 16h1.333v1.333H22V16zm0 2.667h1.333V20H22v-1.333zm0 2.666h1.333v1.334H22v-1.334zm2.667-8H26v1.334h-1.333v-1.334zm0 2.667H26v1.333h-1.333V16zm0 2.667H26V20h-1.333v-1.333zm0 2.666H26v1.334h-1.333v-1.334zM39.334 10h-10V.667A.666.666 0 0 0 28.666 0H11.333a.666.666 0 0 0-.666.666V10h-10a.666.666 0 0 0-.667.666v24c0 .369.298.667.666.667H2.06A4 4 0 0 0 2 36v3.333c0 .368.298.667.666.667h34.667a.666.666 0 0 0 .667-.666V36a3.983 3.983 0 0 0-.06-.667h1.393a.666.666 0 0 0 .667-.666v-24a.666.666 0 0 0-.666-.667zM28.667 28.667a1.333 1.333 0 1 1-2.667 0 1.333 1.333 0 0 1 2.667 0zm-16-1.334a1.333 1.333 0 1 1 0 2.667 1.333 1.333 0 0 1 0-2.667zm-4 11.334H3.333V36a2.667 2.667 0 0 1 5.334 0v2.667zm-4-8a1.333 1.333 0 1 1 2.666 0 1.333 1.333 0 0 1-2.666 0zm4.1 2.452a4.019 4.019 0 0 0-.838-.621 2.667 2.667 0 1 0-3.858 0A4.026 4.026 0 0 0 2.541 34H1.333V11.333h9.334v15.588a2.63 2.63 0 0 0 .07 3.577 4.011 4.011 0 0 0-1.97 2.62zm6.566 5.548H10V34a2.667 2.667 0 0 1 5.333 0v4.667zm8 0h-6.666V34a3.333 3.333 0 0 1 6.666 0v4.667zM18 27.333a2 2 0 1 1 4 0 2 2 0 0 1-4 0zm6.06 4.375a4.696 4.696 0 0 0-1.913-1.847 3.334 3.334 0 1 0-4.294 0 4.696 4.696 0 0 0-1.913 1.847c-.35-.5-.81-.914-1.344-1.21A2.647 2.647 0 0 0 12 26.095V1.333h16v24.762a2.636 2.636 0 0 0-.667-.095 2.66 2.66 0 0 0-1.929 4.498c-.534.296-.993.71-1.344 1.21zM30 36v2.667h-5.333V34A2.667 2.667 0 0 1 30 34v2zm6.667 2.667h-5.334V36a2.667 2.667 0 0 1 5.334 0v2.667zm-4-8a1.333 1.333 0 1 1 2.666 0 1.333 1.333 0 0 1-2.666 0zm6 3.333h-1.208a4.026 4.026 0 0 0-1.53-1.502 2.667 2.667 0 1 0-3.858 0c-.305.17-.587.378-.839.62a4.011 4.011 0 0 0-1.97-2.62 2.63 2.63 0 0 0 .071-3.577V11.333h9.334V34zM3.333 15.333h1.334V26H3.333V15.333zm4 0h1.334V26H7.333V15.333zM24.001 2.667H16a.666.666 0 0 0-.667.666v5.334c0 .368.298.666.666.666H24a.666.666 0 0 0 .667-.666V3.333A.666.666 0 0 0 24 2.667zM23.333 8h-6.666V4h6.666v4z" fill="#000" fill-rule="nonzero"/>
</svg>
