<svg width="40" height="40" viewBox="0 0 40 40" xmlns="http://www.w3.org/2000/svg">
    <title>
        filter-category-8
    </title>
    <path d="M39.771 6.271c-2.495-2.495-7.094-4.375-10.275-5.227C27.02.38 24.237 0 21.858 0c-1.5 0-2.803.146-3.875.433a.781.781 0 0 0-.552.552 32.291 32.291 0 0 0-.605 2.75c-.636 3.608-.76 7.56-.32 10.95-1.97.126-4.07.47-6.002.988-3.18.853-7.78 2.733-10.275 5.228a.781.781 0 0 0-.202.754c.249.931.553 1.88.903 2.832l.002.003c1.206 3.277 2.963 6.578 4.939 9.222C8.015 36.58 11.393 40 15.3 40c.563 0 1.122-.074 1.663-.219 2.386-.639 4.26-2.631 5.42-5.761.881-2.382 1.351-5.381 1.373-8.72.311.046.626.07.941.07 3.91 0 7.286-3.42 9.431-6.288 2.551-3.413 4.736-7.92 5.844-12.056a.781.781 0 0 0-.202-.755zM16.56 38.272c-.41.11-.833.165-1.258.165-2.546 0-5.45-2.01-8.18-5.66-1.789-2.394-3.389-5.35-4.533-8.317a34.879 34.879 0 0 1 1.792-1.306.781.781 0 0 0-.874-1.295c-.541.365-1.06.745-1.472 1.056a30.59 30.59 0 0 1-.376-1.218c1.947-1.749 5.583-3.532 9.25-4.514a29.884 29.884 0 0 1 5.846-.949c.25 1.304.587 2.484 1.007 3.531l.005.015c.04.1.082.2.124.298l.007.016c.215.5.45.97.704 1.404l.01.018c0 .002.002.003.003.005l.043.075c.031.052.064.102.095.153l.062.098a10.178 10.178 0 0 0 .34.501l.06.081c.05.069.102.138.154.204l.017.022c.103.13.208.255.315.376a2.51 2.51 0 0 1-1.958.947 2.51 2.51 0 0 1-2.168-1.252.781.781 0 0 0-1.353.782 4.077 4.077 0 0 0 3.52 2.032 4.079 4.079 0 0 0 3.11-1.447c.255.189.52.356.793.504l.034.018c.072.039.145.075.218.11l.06.03c.07.033.142.065.213.095l.026.012c.026 5.844-1.432 12.284-5.636 13.41zm16.318-20.126c-2.73 3.651-5.635 5.662-8.18 5.662a4.863 4.863 0 0 1-1.482-.232l-.006-.003c-3.379-1.086-4.604-5.651-5.034-8.276l-.004-.017a23.215 23.215 0 0 1-.022-.14c-.506-3.22-.445-7.07.127-10.62a34.882 34.882 0 0 1 2.206-.235.781.781 0 1 0-.109-1.558c-.648.045-1.285.114-1.796.178.077-.36.158-.717.246-1.067.857-.183 1.875-.275 3.034-.275 2.249 0 4.885.36 7.233.99 3.667.982 7.303 2.766 9.25 4.515-1.094 3.83-3.116 7.939-5.463 11.078zm1.974-6.035a4.077 4.077 0 0 0-3.52-2.033 4.077 4.077 0 0 0-3.521 2.033.781.781 0 1 0 1.353.781 2.51 2.51 0 0 1 2.167-1.251c.892 0 1.722.48 2.168 1.251a.781.781 0 1 0 1.353-.78zm-11.6-4.327a4.076 4.076 0 0 0-4.064 0 .781.781 0 1 0 .78 1.353 2.51 2.51 0 0 1 2.504 0 2.51 2.51 0 0 1 1.251 2.168.781.781 0 0 0 1.563 0 4.077 4.077 0 0 0-2.033-3.52zm5.122 9.943a.781.781 0 0 0-1.105 0 2.51 2.51 0 0 1-2.417.648 2.51 2.51 0 0 1-1.77-1.77.781.781 0 1 0-1.51.405 4.077 4.077 0 0 0 2.876 2.874 4.078 4.078 0 0 0 3.927-1.052.781.781 0 0 0 0-1.105zm-17.953 5.809a.781.781 0 0 0-.781.781 2.51 2.51 0 0 1-1.252 2.168 2.51 2.51 0 0 1-2.503 0 .781.781 0 1 0-.78 1.353c.626.362 1.329.543 2.032.543.703 0 1.406-.181 2.033-.543a4.077 4.077 0 0 0 2.032-3.521.781.781 0 0 0-.781-.781zm8.229 8.935a4.077 4.077 0 0 0-3.927-1.052 4.077 4.077 0 0 0-2.874 2.874.781.781 0 1 0 1.509.405 2.51 2.51 0 0 1 1.77-1.77 2.51 2.51 0 0 1 2.417.648.782.782 0 0 0 1.105-1.105zm4.16-29.717a.78.78 0 1 0-.285 1.537l.039.006a.782.782 0 0 0 .247-1.543zM6.64 21.118a.781.781 0 0 0-1.065-.432.781.781 0 1 0 .58 1.451l.03-.012a.781.781 0 0 0 .456-1.007z" fill="#000" fill-rule="nonzero"/>
</svg>
