<?xml version="1.0" encoding="UTF-8"?>
<svg width="38px" height="39px" viewBox="0 0 38 39" version="1.1" xmlns="http://www.w3.org/2000/svg" xmlns:xlink="http://www.w3.org/1999/xlink">
    <!-- Generator: Sketch 49.3 (51167) - http://www.bohemiancoding.com/sketch -->
    <title>filter-category-3</title>
    <desc>Created with Sketch.</desc>
    <g id="Symbols" stroke="none" stroke-width="1" fill="none" fill-rule="evenodd">
        <g id="Elements-/-Sort-/-Card-/-~Parts-/-Icon_03" transform="translate(-1.000000, -1.000000)">
            <mask id="mask-2" fill="white">
                <path d="M26.594108,26.6150043 C27.1399397,24.8109339 27.4481041,22.7895718 27.4895992,20.685517 L32.2100767,20.685517 C32.1109495,22.8573174 31.4410787,24.8826207 30.3473331,26.6150043 L26.594108,26.6150043 Z M23.8648008,31.7000885 C24.432198,31.099153 24.9569847,30.3566286 25.4254779,29.4815131 C25.7166873,28.9374661 25.9793409,28.3550474 26.2121002,27.7408751 L29.5441276,27.7408751 C28.0866677,29.5577362 26.1212274,30.9501276 23.8648008,31.7000885 Z M20.9210278,32.2863742 C20.8108947,32.2944055 20.7006129,32.3008008 20.5898106,32.3057088 L20.5898106,27.7408008 L25.0016775,27.7408008 C24.8273683,28.1628908 24.6378888,28.5672822 24.4329417,28.9500337 C23.4482137,30.7897245 22.2238106,31.9440023 20.9210278,32.2863742 Z M20.5897362,20.6855914 L26.3635053,20.6855914 C26.3200023,22.8100963 25.9925033,24.8377793 25.4149926,26.6150787 L20.5896618,26.6150787 L20.5896618,20.6855914 L20.5897362,20.6855914 Z M19.4639397,12.6545777 L15.202065,12.6545777 C15.3762254,12.2324133 15.5657793,11.8280963 15.7708008,11.4452705 C16.8010395,9.5205816 18.0934857,8.34607671 19.4639397,8.06661683 L19.4639397,12.6545777 Z M19.4638654,19.5597205 L13.8432861,19.5597205 C13.8989104,17.4897988 14.224699,15.5157323 14.7886755,13.7803742 L19.4638654,13.7803742 L19.4638654,19.5597205 Z M19.4638654,26.6150043 L14.7887499,26.6150043 C14.211016,24.8377793 13.8837401,22.8100219 13.8400885,20.685517 L19.4638654,20.685517 L19.4638654,26.6150043 Z M19.4638654,32.3057832 C19.4193213,32.3038497 19.3748517,32.3014701 19.3305307,32.299016 C18.0097519,31.9724838 16.767427,30.8121824 15.7707264,28.950108 C15.5657793,28.5672822 15.3761511,28.1629652 15.2019906,27.7408751 L19.463791,27.7408751 L19.463791,32.3057832 L19.4638654,32.3057832 Z M10.5096227,27.7408751 L13.9917166,27.7408751 C14.2244016,28.3550474 14.4869808,28.9373918 14.7782646,29.4815131 C15.2653487,30.3912822 15.8130395,31.1578262 16.4063898,31.7708086 C14.0586442,31.0395131 12.0136344,29.6159632 10.5096227,27.7408751 Z M7.84359922,20.6855914 L12.7141432,20.6855914 C12.7554896,22.7896462 13.0638027,24.8110082 13.6096344,26.6150787 L9.70634286,26.6150787 C8.61259726,24.8826951 7.94272642,22.8573918 7.84359922,20.6855914 Z M9.61256986,13.7803742 L13.6096344,13.7803742 C13.0768164,15.5413879 12.7699162,17.509654 12.7171178,19.5597205 L7.84359922,19.5597205 C7.93990059,17.4505346 8.57422544,15.4791452 9.61256986,13.7803742 Z M16.6232352,8.40980665 C15.9461511,9.05491429 15.3240963,9.89411194 14.7781902,10.9138654 C14.4869808,11.457838 14.2244016,12.0402568 13.9916423,12.6545033 L10.3907147,12.6545033 C11.9502763,10.6468986 14.1220023,9.13783014 16.6232352,8.40980665 Z M31.0862137,12.6925033 L30.1523507,13.3211022 C31.4025581,15.1785659 32.1076031,17.3249339 32.2092587,19.5597205 L20.5898106,19.5597205 L20.5898106,13.7803742 L22.428609,13.7803742 L22.428609,12.6545033 L20.5898106,12.6545033 L20.5898106,7.93975186 C21.2711335,7.97091037 21.9484407,8.05776751 22.6101315,8.20054638 L22.8477245,7.10003366 C21.9262059,6.90096125 20.9770982,6.80012368 20.0268751,6.80012368 C12.6808282,6.80012368 6.70434286,12.7765346 6.70434286,20.1225816 C6.70434286,22.9313096 7.57864031,25.5391804 9.06859726,27.6900845 L9.06859726,27.7408751 L9.10384579,27.7408751 C11.3586364,30.9638849 15.0014309,33.1471374 19.1578575,33.4160376 C19.4680297,33.4851217 19.7831843,33.5201472 20.1018341,33.5201472 C20.44138,33.5201472 20.7766129,33.4795444 21.1061941,33.4012391 C27.9494661,32.8499789 33.3494074,27.1052861 33.3494074,20.1225816 C33.3493331,17.4613918 32.5667264,14.8919671 31.0862137,12.6925033 Z M37.8007765,21.4571624 L38.9234497,21.5423836 C38.894299,21.9265479 38.8528783,22.3143562 38.800526,22.6953229 L37.6852149,22.54191 C37.7345182,22.1834012 37.7734849,21.8184971 37.8007765,21.4571624 Z M36.9444231,25.7248153 L38.0128106,26.0799033 C37.8914485,26.4451049 37.7569241,26.8114963 37.6131041,27.1688896 L36.5685875,26.7486587 C36.7038556,26.4125335 36.8302744,26.0680795 36.9444231,25.7248153 Z M36.13129,27.7462219 L37.1481432,28.2295135 C36.9832039,28.5764959 36.8051022,28.9232552 36.6188947,29.2599753 L35.6336462,28.7151847 C35.8087734,28.3984685 35.9761667,28.0724568 36.13129,27.7462219 Z M37.5036775,23.6174215 L38.6075366,23.8388775 C38.5317597,24.2164978 38.4433409,24.5964978 38.3446599,24.9684665 L37.2564916,24.6796368 C37.3492978,24.3299029 37.4324368,23.9725096 37.5036775,23.6174215 Z M4.86119413,29.589274 C5.05416869,29.8956536 5.25919022,30.2004716 5.47083014,30.4950274 L4.55637613,31.1517358 C4.33149941,30.8387378 4.11353855,30.5146595 3.90851703,30.1890196 L4.86119413,29.589274 Z M11.093499,35.5796431 C11.407092,35.7600501 11.7303523,35.9330207 12.0541331,36.0939444 L11.5533659,37.1023202 C11.2090607,36.931283 10.8653503,36.7473065 10.5319765,36.5554474 L11.093499,35.5796431 Z M9.27412446,34.3794305 C9.56354912,34.5967965 9.8634591,34.8079902 10.1656,35.0072857 L9.5456274,35.9470978 C9.22452368,35.7352348 8.90572524,35.5108043 8.59808141,35.279681 L9.27412446,34.3794305 Z M7.6128775,32.966299 C7.87389511,33.2170544 8.14614168,33.4634223 8.42225519,33.6982638 L7.69267006,34.5556806 C7.39930411,34.3063382 7.11002818,34.0445769 6.83272485,33.7781307 L7.6128775,32.966299 Z M6.13446184,31.361881 C6.36313112,31.6424564 6.60362427,31.9200571 6.84939726,32.1866521 L6.02142857,32.9495523 C5.76033659,32.6661511 5.50467319,32.3712235 5.26172603,32.0730239 L6.13446184,31.361881 Z M13.0441409,36.5483307 C13.3769941,36.6888787 13.7186967,36.8208748 14.0595812,36.9408982 L13.6859765,38.0030391 C13.3233777,37.8754305 12.9600352,37.7349569 12.6059883,37.5853366 L13.0441409,36.5483307 Z M17.2291084,37.7365558 C17.5865761,37.7920313 17.9508853,37.8372446 18.3116994,37.8707828 L18.2072924,38.99182 C17.8237973,38.9560509 17.436584,38.9080861 17.0565096,38.8491898 L17.2291084,37.7365558 Z M15.0989519,37.2709851 C15.4471241,37.3699636 15.8030301,37.4592748 16.156854,37.5364646 L15.9164352,38.636308 C15.5402278,38.5542102 15.1617894,38.459173 14.7914568,38.3539479 L15.0989519,37.2709851 Z M20.4924086,37.9416368 L20.5235671,39.0670614 C20.3468783,39.0719695 20.1671405,39.0744235 19.9893362,39.0744235 C19.7818607,39.0744235 19.5716337,39.0710771 19.3643068,39.0643843 L19.4006708,37.9390341 C19.763344,37.9507092 20.1321151,37.9515272 20.4924086,37.9416368 Z M22.6649452,37.7494877 L22.8321155,38.8628654 C22.4521155,38.9199769 22.0646791,38.9660826 21.6807378,38.9999926 L21.5818337,37.8785092 C21.9429452,37.8467558 22.3074031,37.8034016 22.6649452,37.7494877 Z M24.7972434,37.2941495 L25.0995331,38.378674 C24.7290517,38.4820399 24.3500184,38.575218 23.9732904,38.6556798 L23.7381515,37.5545722 C24.0924215,37.478944 24.4486994,37.3913432 24.7972434,37.2941495 Z M3.0076865,25.6442791 C3.12057104,25.9892536 3.24557691,26.3348975 3.379209,26.6717663 L2.33283327,27.0871636 C2.19057495,26.7288035 2.05761213,26.3611479 1.93758865,25.9943104 L3.0076865,25.6442791 Z M1.27774207,16.8314172 L2.38717847,17.0229789 C2.32560509,17.3795542 2.27421957,17.7428967 2.23443483,18.1031159 L1.11540548,17.9795973 C1.15764423,17.5967714 1.21230176,17.2104505 1.27774207,16.8314172 Z M3.68371468,10.3470407 L4.6497773,10.9252207 C4.46401605,11.2356904 4.28539374,11.5559761 4.11889276,11.8769311 L3.11936634,11.3589115 C3.29627828,11.0175808 3.48620391,10.6771425 3.68371468,10.3470407 Z M2.6181456,12.4031977 L3.6476407,12.8590489 C3.50136673,13.1894481 3.36342153,13.528771 3.23744892,13.8678708 L2.18200078,13.4758239 C2.31585597,13.1153072 2.46265049,12.7544932 2.6181456,12.4031977 Z M1.81190607,14.5751542 L2.88944031,14.901389 C2.78458708,15.2477765 2.68910372,15.6020466 2.60574168,15.9544575 L1.51013699,15.6951503 C1.59885323,15.3203558 1.70036008,14.9435534 1.81190607,14.5751542 Z M4.99245401,8.43522427 L5.88110372,9.12643757 C5.65860665,9.41244149 5.44220744,9.708782 5.23800391,10.0072047 L4.30897456,9.37124384 C4.52611742,9.05408141 4.75612524,8.7391499 4.99245401,8.43522427 Z M2.17145597,21.3726329 C2.19718591,21.7339675 2.23436791,22.0991691 2.28196086,22.4580497 L1.16590607,22.6060341 C1.11526419,22.2246955 1.07577691,21.8365898 1.04848532,21.4525742 L2.17145597,21.3726329 Z M2.14781566,19.1906223 C2.13331468,19.4867397 2.12587828,19.7877652 2.12587828,20.0850724 C2.12587828,20.1508102 2.1262501,20.2165479 2.12691937,20.2822114 L1.0011229,20.294407 C1.00037926,20.224728 1.00000744,20.1549746 1.00000744,20.0850724 C1.00000744,19.7693229 1.00789002,19.4497065 1.02343209,19.1352211 L2.14781566,19.1906223 Z M2.45848611,23.5342677 C2.5280908,23.8899507 2.60959374,24.2479389 2.70061526,24.5978959 L1.61103405,24.8812971 C1.51421213,24.5091053 1.42750372,24.1286591 1.35358591,23.7504438 L2.45848611,23.5342677 Z M20.106281,1.09624188 C20.4912634,1.09854716 20.8811538,1.11282505 21.2653182,1.13862935 L21.1900618,2.26197182 C20.8285041,2.23772916 20.4615178,2.22426928 20.0993652,2.22211272 L20.106281,1.09624188 Z M14.391081,1.93468845 L14.7225957,3.01066106 C14.3759108,3.11744775 14.0281104,3.2365045 13.6887875,3.36441057 L13.2916094,2.31097025 C13.6524235,2.17488415 14.02231,2.04831663 14.391081,1.93468845 Z M18.9474669,1.12387554 L19.0082967,2.24818474 C18.6459209,2.26774247 18.2800501,2.29867789 17.9211695,2.34002427 L17.7921479,1.22158982 C18.1737096,1.17756634 18.5624102,1.14477182 18.9474669,1.12387554 Z M3.81334599,27.6743268 C3.96757691,28.0023464 4.13400352,28.3298454 4.3079409,28.6479002 L3.32038708,29.1883033 C3.13536947,28.8502446 2.95845753,28.501998 2.79448493,28.1531566 L3.81334599,27.6743268 Z M16.644838,1.38945166 L16.8417538,2.49792133 C16.4856247,2.56120509 16.1265209,2.63646145 15.7742587,2.72160822 L15.5096716,1.62726771 C15.8841687,1.53676673 16.2661022,1.45667671 16.644838,1.38945166 Z M38.7153644,16.91849 C38.77902,17.2978207 38.8318928,17.6845879 38.8724211,18.0679342 L37.7528712,18.1863217 C37.7147969,17.8256564 37.664973,17.4618677 37.6049613,17.1049949 L38.7153644,16.91849 Z M8.25561292,5.15383875 L8.95188297,6.03854716 C8.66714325,6.26253151 8.38567554,6.49826536 8.11499061,6.73927906 L7.36629393,5.8984454 C7.65385949,5.64241018 7.9531002,5.39187789 8.25561292,5.15383875 Z M38.1913288,14.658955 C38.3013131,15.0281722 38.4010352,15.4055695 38.4880411,15.7806614 L37.3913209,16.0350607 C37.3095205,15.6822779 37.2156732,15.3274129 37.1122329,14.9802074 L38.1913288,14.658955 Z M10.1626775,3.83297065 L10.7459886,4.79583562 C10.4362626,4.98353033 10.1280982,5.18327202 9.82989863,5.38992955 L9.18888102,4.4643953 C9.50589472,4.2448728 9.8334681,4.03241487 10.1626775,3.83297065 Z M6.52396556,6.69569432 L7.32233738,7.48945558 C7.06697143,7.74630881 6.81621605,8.01431663 6.57676399,8.28619139 L5.73176595,7.54217965 C5.9860908,7.2533499 6.25268571,6.96853581 6.52396556,6.69569432 Z M12.2176744,2.75396399 L12.6789542,3.78107945 C12.3483319,3.92950998 12.0179327,4.09028493 11.6969033,4.25879374 L11.1734552,3.26201879 C11.5147859,3.08280157 11.8660814,2.91183875 12.2176744,2.75396399 Z M32.3135245,33.0162568 L33.0904051,33.831063 C32.8119119,34.0965425 32.5215205,34.3571139 32.2271879,34.6054153 L31.5010978,33.7449495 C31.7781781,33.5112235 32.0514658,33.2661198 32.3135245,33.0162568 Z M35.0771953,29.6525949 L36.0274184,30.2565049 C35.8211327,30.5811037 35.6021307,30.9036947 35.3763616,31.2152055 L34.4647335,30.5546301 C34.6769683,30.2615616 34.8831796,29.9580822 35.0771953,29.6525949 Z M33.7981198,31.4180853 L34.6679554,32.1326489 C34.4238928,32.4298074 34.1671883,32.7236196 33.9050552,33.0057566 L33.0802841,32.23951 C33.3269495,31.9740305 33.568335,31.6976939 33.7981198,31.4180853 Z M26.8592454,36.5799205 L27.2925644,37.619083 C26.9365096,37.7675135 26.5711593,37.9067229 26.2069245,38.032993 L25.8383765,36.9690673 C26.1810458,36.8504568 26.5243843,36.7195018 26.8592454,36.5799205 Z M28.8189225,35.6174051 L29.3762063,36.5955147 C29.0413452,36.7863327 28.6962219,36.9692681 28.3502806,37.1391155 L27.853901,36.1285832 C28.1792434,35.968998 28.5039166,35.7968454 28.8189225,35.6174051 Z M30.6458524,34.4231491 L31.3181029,35.3262998 C31.0088231,35.5564564 30.6886861,35.7799945 30.36669,35.9904446 L29.7506587,35.0481041 C30.0536176,34.8500728 30.3547174,34.6398458 30.6458524,34.4231491 Z M38.9593675,19.224681 C38.9720094,19.5099413 38.9785534,19.7994403 38.9786278,20.0849237 C38.9786278,20.1848689 38.9778098,20.284591 38.9763225,20.38409 L37.8506004,20.3666145 C37.8520133,20.2729159 37.8526826,20.1790685 37.8526826,20.084998 C37.8526826,19.8160235 37.8465847,19.5434795 37.8346121,19.2748767 L38.9593675,19.224681 Z M34.6673159,11.9044384 L34.0767914,13.9348728 L33.5240438,13.5627554 L33.0735468,11.8099217 L24.756901,6.29285714 C24.5490536,6.15290411 24.4081339,5.94037182 24.3601691,5.69437573 C24.3121299,5.44845401 24.3626975,5.19851663 24.5027249,4.99066928 C24.791629,4.56158904 25.3757581,4.44751468 25.8023843,4.73463405 L34.1176172,10.3990881 L35.9106818,10.1572564 L36.4556955,10.5241683 L34.6673159,11.9044384 Z M26.1903413,15.4014795 L25.7895937,15.1316869 L27.1757386,9.24845401 L28.833535,10.3482231 L26.1903413,15.4014795 Z M34.3830223,2.36852055 L34.7837699,2.63831311 L31.1011162,6.98198826 L29.4578207,5.86251272 L34.3830223,2.36852055 Z M36.1841926,8.98431311 L34.3945487,9.22569863 L32.0366153,7.6194364 L36.4558442,2.40711546 L34.3663648,1 L28.4652102,5.18632094 L26.4337346,3.80240705 C25.4896094,3.16674364 24.2043765,3.41772211 23.5688618,4.36177299 C23.2609205,4.81911155 23.1495233,5.3689589 23.2551945,5.91003131 C23.3608658,6.45110372 23.6708892,6.9187045 24.1313511,7.22880235 L26.1754685,8.58475538 L24.5152924,15.6308924 L26.6049205,17.0377847 L29.7766935,10.9739217 L32.0907523,12.5089432 L32.5402082,14.2575382 L34.7268814,15.7299452 L35.6457229,12.5713346 L38.3787483,10.4617769 L36.1841926,8.98431311 Z"></path>
            </mask>
            <path d="M26.594108,26.6150043 C27.1399397,24.8109339 27.4481041,22.7895718 27.4895992,20.685517 L32.2100767,20.685517 C32.1109495,22.8573174 31.4410787,24.8826207 30.3473331,26.6150043 L26.594108,26.6150043 Z M23.8648008,31.7000885 C24.432198,31.099153 24.9569847,30.3566286 25.4254779,29.4815131 C25.7166873,28.9374661 25.9793409,28.3550474 26.2121002,27.7408751 L29.5441276,27.7408751 C28.0866677,29.5577362 26.1212274,30.9501276 23.8648008,31.7000885 Z M20.9210278,32.2863742 C20.8108947,32.2944055 20.7006129,32.3008008 20.5898106,32.3057088 L20.5898106,27.7408008 L25.0016775,27.7408008 C24.8273683,28.1628908 24.6378888,28.5672822 24.4329417,28.9500337 C23.4482137,30.7897245 22.2238106,31.9440023 20.9210278,32.2863742 Z M20.5897362,20.6855914 L26.3635053,20.6855914 C26.3200023,22.8100963 25.9925033,24.8377793 25.4149926,26.6150787 L20.5896618,26.6150787 L20.5896618,20.6855914 L20.5897362,20.6855914 Z M19.4639397,12.6545777 L15.202065,12.6545777 C15.3762254,12.2324133 15.5657793,11.8280963 15.7708008,11.4452705 C16.8010395,9.5205816 18.0934857,8.34607671 19.4639397,8.06661683 L19.4639397,12.6545777 Z M19.4638654,19.5597205 L13.8432861,19.5597205 C13.8989104,17.4897988 14.224699,15.5157323 14.7886755,13.7803742 L19.4638654,13.7803742 L19.4638654,19.5597205 Z M19.4638654,26.6150043 L14.7887499,26.6150043 C14.211016,24.8377793 13.8837401,22.8100219 13.8400885,20.685517 L19.4638654,20.685517 L19.4638654,26.6150043 Z M19.4638654,32.3057832 C19.4193213,32.3038497 19.3748517,32.3014701 19.3305307,32.299016 C18.0097519,31.9724838 16.767427,30.8121824 15.7707264,28.950108 C15.5657793,28.5672822 15.3761511,28.1629652 15.2019906,27.7408751 L19.463791,27.7408751 L19.463791,32.3057832 L19.4638654,32.3057832 Z M10.5096227,27.7408751 L13.9917166,27.7408751 C14.2244016,28.3550474 14.4869808,28.9373918 14.7782646,29.4815131 C15.2653487,30.3912822 15.8130395,31.1578262 16.4063898,31.7708086 C14.0586442,31.0395131 12.0136344,29.6159632 10.5096227,27.7408751 Z M7.84359922,20.6855914 L12.7141432,20.6855914 C12.7554896,22.7896462 13.0638027,24.8110082 13.6096344,26.6150787 L9.70634286,26.6150787 C8.61259726,24.8826951 7.94272642,22.8573918 7.84359922,20.6855914 Z M9.61256986,13.7803742 L13.6096344,13.7803742 C13.0768164,15.5413879 12.7699162,17.509654 12.7171178,19.5597205 L7.84359922,19.5597205 C7.93990059,17.4505346 8.57422544,15.4791452 9.61256986,13.7803742 Z M16.6232352,8.40980665 C15.9461511,9.05491429 15.3240963,9.89411194 14.7781902,10.9138654 C14.4869808,11.457838 14.2244016,12.0402568 13.9916423,12.6545033 L10.3907147,12.6545033 C11.9502763,10.6468986 14.1220023,9.13783014 16.6232352,8.40980665 Z M31.0862137,12.6925033 L30.1523507,13.3211022 C31.4025581,15.1785659 32.1076031,17.3249339 32.2092587,19.5597205 L20.5898106,19.5597205 L20.5898106,13.7803742 L22.428609,13.7803742 L22.428609,12.6545033 L20.5898106,12.6545033 L20.5898106,7.93975186 C21.2711335,7.97091037 21.9484407,8.05776751 22.6101315,8.20054638 L22.8477245,7.10003366 C21.9262059,6.90096125 20.9770982,6.80012368 20.0268751,6.80012368 C12.6808282,6.80012368 6.70434286,12.7765346 6.70434286,20.1225816 C6.70434286,22.9313096 7.57864031,25.5391804 9.06859726,27.6900845 L9.06859726,27.7408751 L9.10384579,27.7408751 C11.3586364,30.9638849 15.0014309,33.1471374 19.1578575,33.4160376 C19.4680297,33.4851217 19.7831843,33.5201472 20.1018341,33.5201472 C20.44138,33.5201472 20.7766129,33.4795444 21.1061941,33.4012391 C27.9494661,32.8499789 33.3494074,27.1052861 33.3494074,20.1225816 C33.3493331,17.4613918 32.5667264,14.8919671 31.0862137,12.6925033 Z M37.8007765,21.4571624 L38.9234497,21.5423836 C38.894299,21.9265479 38.8528783,22.3143562 38.800526,22.6953229 L37.6852149,22.54191 C37.7345182,22.1834012 37.7734849,21.8184971 37.8007765,21.4571624 Z M36.9444231,25.7248153 L38.0128106,26.0799033 C37.8914485,26.4451049 37.7569241,26.8114963 37.6131041,27.1688896 L36.5685875,26.7486587 C36.7038556,26.4125335 36.8302744,26.0680795 36.9444231,25.7248153 Z M36.13129,27.7462219 L37.1481432,28.2295135 C36.9832039,28.5764959 36.8051022,28.9232552 36.6188947,29.2599753 L35.6336462,28.7151847 C35.8087734,28.3984685 35.9761667,28.0724568 36.13129,27.7462219 Z M37.5036775,23.6174215 L38.6075366,23.8388775 C38.5317597,24.2164978 38.4433409,24.5964978 38.3446599,24.9684665 L37.2564916,24.6796368 C37.3492978,24.3299029 37.4324368,23.9725096 37.5036775,23.6174215 Z M4.86119413,29.589274 C5.05416869,29.8956536 5.25919022,30.2004716 5.47083014,30.4950274 L4.55637613,31.1517358 C4.33149941,30.8387378 4.11353855,30.5146595 3.90851703,30.1890196 L4.86119413,29.589274 Z M11.093499,35.5796431 C11.407092,35.7600501 11.7303523,35.9330207 12.0541331,36.0939444 L11.5533659,37.1023202 C11.2090607,36.931283 10.8653503,36.7473065 10.5319765,36.5554474 L11.093499,35.5796431 Z M9.27412446,34.3794305 C9.56354912,34.5967965 9.8634591,34.8079902 10.1656,35.0072857 L9.5456274,35.9470978 C9.22452368,35.7352348 8.90572524,35.5108043 8.59808141,35.279681 L9.27412446,34.3794305 Z M7.6128775,32.966299 C7.87389511,33.2170544 8.14614168,33.4634223 8.42225519,33.6982638 L7.69267006,34.5556806 C7.39930411,34.3063382 7.11002818,34.0445769 6.83272485,33.7781307 L7.6128775,32.966299 Z M6.13446184,31.361881 C6.36313112,31.6424564 6.60362427,31.9200571 6.84939726,32.1866521 L6.02142857,32.9495523 C5.76033659,32.6661511 5.50467319,32.3712235 5.26172603,32.0730239 L6.13446184,31.361881 Z M13.0441409,36.5483307 C13.3769941,36.6888787 13.7186967,36.8208748 14.0595812,36.9408982 L13.6859765,38.0030391 C13.3233777,37.8754305 12.9600352,37.7349569 12.6059883,37.5853366 L13.0441409,36.5483307 Z M17.2291084,37.7365558 C17.5865761,37.7920313 17.9508853,37.8372446 18.3116994,37.8707828 L18.2072924,38.99182 C17.8237973,38.9560509 17.436584,38.9080861 17.0565096,38.8491898 L17.2291084,37.7365558 Z M15.0989519,37.2709851 C15.4471241,37.3699636 15.8030301,37.4592748 16.156854,37.5364646 L15.9164352,38.636308 C15.5402278,38.5542102 15.1617894,38.459173 14.7914568,38.3539479 L15.0989519,37.2709851 Z M20.4924086,37.9416368 L20.5235671,39.0670614 C20.3468783,39.0719695 20.1671405,39.0744235 19.9893362,39.0744235 C19.7818607,39.0744235 19.5716337,39.0710771 19.3643068,39.0643843 L19.4006708,37.9390341 C19.763344,37.9507092 20.1321151,37.9515272 20.4924086,37.9416368 Z M22.6649452,37.7494877 L22.8321155,38.8628654 C22.4521155,38.9199769 22.0646791,38.9660826 21.6807378,38.9999926 L21.5818337,37.8785092 C21.9429452,37.8467558 22.3074031,37.8034016 22.6649452,37.7494877 Z M24.7972434,37.2941495 L25.0995331,38.378674 C24.7290517,38.4820399 24.3500184,38.575218 23.9732904,38.6556798 L23.7381515,37.5545722 C24.0924215,37.478944 24.4486994,37.3913432 24.7972434,37.2941495 Z M3.0076865,25.6442791 C3.12057104,25.9892536 3.24557691,26.3348975 3.379209,26.6717663 L2.33283327,27.0871636 C2.19057495,26.7288035 2.05761213,26.3611479 1.93758865,25.9943104 L3.0076865,25.6442791 Z M1.27774207,16.8314172 L2.38717847,17.0229789 C2.32560509,17.3795542 2.27421957,17.7428967 2.23443483,18.1031159 L1.11540548,17.9795973 C1.15764423,17.5967714 1.21230176,17.2104505 1.27774207,16.8314172 Z M3.68371468,10.3470407 L4.6497773,10.9252207 C4.46401605,11.2356904 4.28539374,11.5559761 4.11889276,11.8769311 L3.11936634,11.3589115 C3.29627828,11.0175808 3.48620391,10.6771425 3.68371468,10.3470407 Z M2.6181456,12.4031977 L3.6476407,12.8590489 C3.50136673,13.1894481 3.36342153,13.528771 3.23744892,13.8678708 L2.18200078,13.4758239 C2.31585597,13.1153072 2.46265049,12.7544932 2.6181456,12.4031977 Z M1.81190607,14.5751542 L2.88944031,14.901389 C2.78458708,15.2477765 2.68910372,15.6020466 2.60574168,15.9544575 L1.51013699,15.6951503 C1.59885323,15.3203558 1.70036008,14.9435534 1.81190607,14.5751542 Z M4.99245401,8.43522427 L5.88110372,9.12643757 C5.65860665,9.41244149 5.44220744,9.708782 5.23800391,10.0072047 L4.30897456,9.37124384 C4.52611742,9.05408141 4.75612524,8.7391499 4.99245401,8.43522427 Z M2.17145597,21.3726329 C2.19718591,21.7339675 2.23436791,22.0991691 2.28196086,22.4580497 L1.16590607,22.6060341 C1.11526419,22.2246955 1.07577691,21.8365898 1.04848532,21.4525742 L2.17145597,21.3726329 Z M2.14781566,19.1906223 C2.13331468,19.4867397 2.12587828,19.7877652 2.12587828,20.0850724 C2.12587828,20.1508102 2.1262501,20.2165479 2.12691937,20.2822114 L1.0011229,20.294407 C1.00037926,20.224728 1.00000744,20.1549746 1.00000744,20.0850724 C1.00000744,19.7693229 1.00789002,19.4497065 1.02343209,19.1352211 L2.14781566,19.1906223 Z M2.45848611,23.5342677 C2.5280908,23.8899507 2.60959374,24.2479389 2.70061526,24.5978959 L1.61103405,24.8812971 C1.51421213,24.5091053 1.42750372,24.1286591 1.35358591,23.7504438 L2.45848611,23.5342677 Z M20.106281,1.09624188 C20.4912634,1.09854716 20.8811538,1.11282505 21.2653182,1.13862935 L21.1900618,2.26197182 C20.8285041,2.23772916 20.4615178,2.22426928 20.0993652,2.22211272 L20.106281,1.09624188 Z M14.391081,1.93468845 L14.7225957,3.01066106 C14.3759108,3.11744775 14.0281104,3.2365045 13.6887875,3.36441057 L13.2916094,2.31097025 C13.6524235,2.17488415 14.02231,2.04831663 14.391081,1.93468845 Z M18.9474669,1.12387554 L19.0082967,2.24818474 C18.6459209,2.26774247 18.2800501,2.29867789 17.9211695,2.34002427 L17.7921479,1.22158982 C18.1737096,1.17756634 18.5624102,1.14477182 18.9474669,1.12387554 Z M3.81334599,27.6743268 C3.96757691,28.0023464 4.13400352,28.3298454 4.3079409,28.6479002 L3.32038708,29.1883033 C3.13536947,28.8502446 2.95845753,28.501998 2.79448493,28.1531566 L3.81334599,27.6743268 Z M16.644838,1.38945166 L16.8417538,2.49792133 C16.4856247,2.56120509 16.1265209,2.63646145 15.7742587,2.72160822 L15.5096716,1.62726771 C15.8841687,1.53676673 16.2661022,1.45667671 16.644838,1.38945166 Z M38.7153644,16.91849 C38.77902,17.2978207 38.8318928,17.6845879 38.8724211,18.0679342 L37.7528712,18.1863217 C37.7147969,17.8256564 37.664973,17.4618677 37.6049613,17.1049949 L38.7153644,16.91849 Z M8.25561292,5.15383875 L8.95188297,6.03854716 C8.66714325,6.26253151 8.38567554,6.49826536 8.11499061,6.73927906 L7.36629393,5.8984454 C7.65385949,5.64241018 7.9531002,5.39187789 8.25561292,5.15383875 Z M38.1913288,14.658955 C38.3013131,15.0281722 38.4010352,15.4055695 38.4880411,15.7806614 L37.3913209,16.0350607 C37.3095205,15.6822779 37.2156732,15.3274129 37.1122329,14.9802074 L38.1913288,14.658955 Z M10.1626775,3.83297065 L10.7459886,4.79583562 C10.4362626,4.98353033 10.1280982,5.18327202 9.82989863,5.38992955 L9.18888102,4.4643953 C9.50589472,4.2448728 9.8334681,4.03241487 10.1626775,3.83297065 Z M6.52396556,6.69569432 L7.32233738,7.48945558 C7.06697143,7.74630881 6.81621605,8.01431663 6.57676399,8.28619139 L5.73176595,7.54217965 C5.9860908,7.2533499 6.25268571,6.96853581 6.52396556,6.69569432 Z M12.2176744,2.75396399 L12.6789542,3.78107945 C12.3483319,3.92950998 12.0179327,4.09028493 11.6969033,4.25879374 L11.1734552,3.26201879 C11.5147859,3.08280157 11.8660814,2.91183875 12.2176744,2.75396399 Z M32.3135245,33.0162568 L33.0904051,33.831063 C32.8119119,34.0965425 32.5215205,34.3571139 32.2271879,34.6054153 L31.5010978,33.7449495 C31.7781781,33.5112235 32.0514658,33.2661198 32.3135245,33.0162568 Z M35.0771953,29.6525949 L36.0274184,30.2565049 C35.8211327,30.5811037 35.6021307,30.9036947 35.3763616,31.2152055 L34.4647335,30.5546301 C34.6769683,30.2615616 34.8831796,29.9580822 35.0771953,29.6525949 Z M33.7981198,31.4180853 L34.6679554,32.1326489 C34.4238928,32.4298074 34.1671883,32.7236196 33.9050552,33.0057566 L33.0802841,32.23951 C33.3269495,31.9740305 33.568335,31.6976939 33.7981198,31.4180853 Z M26.8592454,36.5799205 L27.2925644,37.619083 C26.9365096,37.7675135 26.5711593,37.9067229 26.2069245,38.032993 L25.8383765,36.9690673 C26.1810458,36.8504568 26.5243843,36.7195018 26.8592454,36.5799205 Z M28.8189225,35.6174051 L29.3762063,36.5955147 C29.0413452,36.7863327 28.6962219,36.9692681 28.3502806,37.1391155 L27.853901,36.1285832 C28.1792434,35.968998 28.5039166,35.7968454 28.8189225,35.6174051 Z M30.6458524,34.4231491 L31.3181029,35.3262998 C31.0088231,35.5564564 30.6886861,35.7799945 30.36669,35.9904446 L29.7506587,35.0481041 C30.0536176,34.8500728 30.3547174,34.6398458 30.6458524,34.4231491 Z M38.9593675,19.224681 C38.9720094,19.5099413 38.9785534,19.7994403 38.9786278,20.0849237 C38.9786278,20.1848689 38.9778098,20.284591 38.9763225,20.38409 L37.8506004,20.3666145 C37.8520133,20.2729159 37.8526826,20.1790685 37.8526826,20.084998 C37.8526826,19.8160235 37.8465847,19.5434795 37.8346121,19.2748767 L38.9593675,19.224681 Z M34.6673159,11.9044384 L34.0767914,13.9348728 L33.5240438,13.5627554 L33.0735468,11.8099217 L24.756901,6.29285714 C24.5490536,6.15290411 24.4081339,5.94037182 24.3601691,5.69437573 C24.3121299,5.44845401 24.3626975,5.19851663 24.5027249,4.99066928 C24.791629,4.56158904 25.3757581,4.44751468 25.8023843,4.73463405 L34.1176172,10.3990881 L35.9106818,10.1572564 L36.4556955,10.5241683 L34.6673159,11.9044384 Z M26.1903413,15.4014795 L25.7895937,15.1316869 L27.1757386,9.24845401 L28.833535,10.3482231 L26.1903413,15.4014795 Z M34.3830223,2.36852055 L34.7837699,2.63831311 L31.1011162,6.98198826 L29.4578207,5.86251272 L34.3830223,2.36852055 Z M36.1841926,8.98431311 L34.3945487,9.22569863 L32.0366153,7.6194364 L36.4558442,2.40711546 L34.3663648,1 L28.4652102,5.18632094 L26.4337346,3.80240705 C25.4896094,3.16674364 24.2043765,3.41772211 23.5688618,4.36177299 C23.2609205,4.81911155 23.1495233,5.3689589 23.2551945,5.91003131 C23.3608658,6.45110372 23.6708892,6.9187045 24.1313511,7.22880235 L26.1754685,8.58475538 L24.5152924,15.6308924 L26.6049205,17.0377847 L29.7766935,10.9739217 L32.0907523,12.5089432 L32.5402082,14.2575382 L34.7268814,15.7299452 L35.6457229,12.5713346 L38.3787483,10.4617769 L36.1841926,8.98431311 Z" fill="#000000"></path>
        </g>
    </g>
</svg>
