<svg width="38" height="38" viewBox="0 0 38 38" xmlns="http://www.w3.org/2000/svg">
    <title>
        filter-category-6
    </title>
    <path d="M3.465 4.141v-1.29h1.297v1.29H3.465zm2.593 0v-1.29h1.297v1.29H6.058zm2.593 0v-1.29h1.296v1.29H8.651zm14.532 32.468c3.28.275 10.63-.212 13.576-2.63l.824.996c-2.852 2.34-8.863 2.99-12.59 2.99-.747 0-1.4-.026-1.92-.07-6.699-.564-14.352-3.062-20.473-6.682l-2.283-1.35a.644.644 0 0 1-.23-.879c.358-.614.53-1.336.711-2.102.046-.193.092-.387.142-.579.124-.486.278-1.373.442-2.312.29-1.662.59-3.38.921-4.226l3.883-9.909c.076-.196.146-.407.217-.622.252-.764.54-1.63 1.21-2.218.34-.296.734-.502 1.08-.662l.24-.164 7.34-5.623a2.352 2.352 0 0 1 2.9.027l3.852 3.07c.544.433.866 1.08.881 1.775.01.414-.102.81-.296 1.164l1.137 1.699a.643.643 0 0 1-.118.847l-4.537 3.873a.648.648 0 0 1-.422.155c-.026 0-.054-.002-.082-.004l-4.97-.618c-.074.64-.11 1.287-.095 1.935.018.78.104 1.583.188 2.359.101.938.205 1.907.199 2.884-.005.747-.08 1.473-.215 2.175.157-.001.31.004.453.017a8.999 8.999 0 0 1 3.14.878c1.421-1.61 3.51-2.73 5.933-3.09 1.82-.273 3.588-.083 5.13.503 2.222-2.126 5.68-2.946 8.603-1.933l-.426 1.22c-2.317-.802-5.035-.242-6.913 1.314a7.837 7.837 0 0 1 2.469 2.208l-1.055.75c-1.57-2.183-4.483-3.253-7.617-2.786-2.093.312-3.892 1.262-5.113 2.624l-.622.902-.047-.028c-.282.44-.512.91-.679 1.406l-1.229-.411c.192-.57.45-1.11.766-1.616a7.662 7.662 0 0 0-2.453-.656c-.244-.02-.493-.025-.689.04-.542 1.664-1.457 3.118-2.691 4.196l-.855-.971c1.745-1.523 2.797-4.047 2.814-6.75.006-.904-.09-1.795-.191-2.739-.087-.802-.176-1.632-.196-2.466a15.1 15.1 0 0 1 .6-4.584l1.245.36c-.095.325-.176.653-.246.984l4.639.577 3.883-3.315-.636-.95-2.067 1.8a2.36 2.36 0 0 1-3.208-.106 2.33 2.33 0 0 1 .359-3.6l.217-.144.72 1.072-.218.146a1.047 1.047 0 0 0-.161 1.614 1.06 1.06 0 0 0 1.438.047L22.25 6.28a1.045 1.045 0 0 0-.035-1.607l-3.853-3.07a1.051 1.051 0 0 0-1.299-.012L9.38 7.45a.536.536 0 0 1-.094.053c-.289.132-.588.282-.817.484-.407.356-.625 1.015-.835 1.651-.079.238-.156.471-.241.688L3.51 20.234c-.284.725-.598 2.528-.85 3.977-.176 1.007-.328 1.877-.465 2.41-.047.185-.091.372-.135.559-.149.624-.301 1.265-.564 1.878l1.767 1.045c5.96 3.526 13.407 5.957 19.92 6.506zm8.155-24.703a3.226 3.226 0 0 0-.669-.665c.255-.189.48-.412.669-.666.189.254.413.477.668.666a3.226 3.226 0 0 0-.668.665m.648-3.247h-1.297a1.943 1.943 0 0 1-1.944 1.936v1.291c1.072 0 1.944.869 1.944 1.937h1.297c0-1.068.872-1.937 1.944-1.937v-1.29a1.943 1.943 0 0 1-1.944-1.937m3.24-3.853a3.226 3.226 0 0 0-.668-.665c.255-.188.48-.412.669-.665.189.253.413.477.668.665a3.226 3.226 0 0 0-.668.665m.648-3.247h-1.296a1.943 1.943 0 0 1-1.945 1.937v1.29c1.072 0 1.945.87 1.945 1.937h1.296c0-1.068.872-1.937 1.944-1.937v-1.29a1.943 1.943 0 0 1-1.944-1.937" fill="#000" fill-rule="evenodd"/>
</svg>
