<?xml version="1.0" encoding="UTF-8"?>
<svg width="40px" height="40px" viewBox="0 0 40 40" version="1.1" xmlns="http://www.w3.org/2000/svg" xmlns:xlink="http://www.w3.org/1999/xlink">
    <!-- Generator: Sketch 49.3 (51167) - http://www.bohemiancoding.com/sketch -->
    <title>filter-category-15</title>
    <desc>Created with Sketch.</desc>
    <g id="Symbols" stroke="none" stroke-width="1" fill="none" fill-rule="evenodd">
        <g id="Elements-/-Sort-/-Card-/-~Parts-/-Icon_14">
            <mask id="mask-2" fill="white">
                <path d="M37.4373437,13.635 L36.108125,11.8191406 L37.4373437,10.0032031 C37.6902344,9.65773438 37.714375,9.2128125 37.5003906,8.84203125 C37.2864062,8.47125 36.8889062,8.26984375 36.4632812,8.3159375 L34.2260156,8.55921875 L33.318125,6.50007813 C33.1453906,6.10828125 32.7721875,5.86492188 32.3440625,5.86492188 C31.9157812,5.86492188 31.5425781,6.10828125 31.3699219,6.5 L30.4620312,8.55914063 L28.2247656,8.31585938 C27.7985938,8.26976562 27.4017188,8.47117188 27.1875781,8.84195312 C27.0757813,9.035625 27.0296094,9.24945313 27.0464844,9.45882813 C25.1398438,8.3246875 22.9399219,7.63414063 20.5888281,7.53554688 L20.5888281,4.3428125 L27.5094531,4.3428125 C28.9305469,4.3428125 30.0867187,3.18664062 30.0867187,1.765625 L30.0867187,0.97953125 C30.0866406,0.439453125 29.6471875,0 29.1070312,0 L27.3955469,0 C27.0716406,0 26.8092187,0.2625 26.8092187,0.586328125 C26.8092187,0.91015625 27.0716406,1.17265625 27.3955469,1.17265625 L28.9138281,1.17265625 L28.9138281,1.76570312 C28.9138281,2.54023437 28.28375,3.17023437 27.5092188,3.17023437 L12.4952344,3.17023437 C11.7207031,3.17023437 11.090625,2.54015625 11.090625,1.76570312 L11.090625,1.17265625 L23.6792969,1.17265625 C24.0032031,1.17265625 24.265625,0.91015625 24.265625,0.586328125 C24.265625,0.2625 24.0032031,0 23.6792969,0 L10.8976563,0 C10.3574219,0 9.91804688,0.439453125 9.91804688,0.97953125 L9.91804688,1.76570312 C9.91804688,3.18679687 11.0742188,4.34289062 12.4953125,4.34289062 L19.4160156,4.34289062 L19.4160156,7.535625 C12.0650781,7.8440625 6.17960938,13.9196875 6.17960938,21.345 C6.17960938,23.7224219 6.79335938,26.0671875 7.95453125,28.1260156 C8.11359375,28.4080469 8.47109375,28.5077344 8.75328125,28.3486719 C9.03523438,28.1896094 9.135,27.8320312 8.9759375,27.5499219 C8.39492188,26.5196875 7.96484375,25.4107813 7.6934375,24.2615625 C8.48679688,25.1925 9.57375,26.0307031 10.9128125,26.7274219 C11.6699219,27.1213281 12.4934375,27.4607813 13.365,27.744375 C14.2775781,30.2071094 15.7071875,32.3003906 17.5044531,33.749375 C15.1008594,33.2700781 12.8875781,32.1003906 11.1070312,30.339375 C10.8769531,30.1117188 10.5057031,30.1136719 10.2778906,30.3439844 C10.0501562,30.5742188 10.0521875,30.9453906 10.2824219,31.173125 C12.8750781,33.7375 16.3076562,35.154375 19.9528125,35.1671094 C19.9566406,35.1671875 19.9604687,35.1677344 19.9642969,35.1677344 C19.9667187,35.1677344 19.9690625,35.1674219 19.9714844,35.1673438 C19.9817969,35.1673438 19.9920312,35.1677344 20.0023437,35.1677344 C27.6241406,35.1677344 33.825,28.9669531 33.825,21.3450781 C33.825,19.9415625 33.6135937,18.586875 33.2225,17.31 C33.2586719,17.2564063 33.2910937,17.1992969 33.318125,17.1380469 L34.2260156,15.0789063 L36.4632812,15.3221875 C36.8896094,15.3685938 37.2863281,15.166875 37.5003906,14.7961719 C37.714375,14.4253906 37.6903125,13.9803906 37.4373437,13.635 Z M11.4539844,25.6871875 C9.50515625,24.6732031 8.17398438,23.3584375 7.62960938,21.9314062 L12.2529688,21.9314062 C12.2999219,23.4646875 12.5271875,24.94875 12.9121875,26.3409375 C12.4026563,26.144375 11.9146094,25.9267969 11.4539844,25.6871875 Z M7.80078125,20.7586719 C8.425625,19.4839063 9.68539063,18.3159375 11.4539844,17.3957813 C11.8817188,17.1732812 12.3328906,16.9694531 12.8030469,16.7842188 C12.4833594,18.0502344 12.2939844,19.3853906 12.2523438,20.7586719 L7.80078125,20.7586719 Z M13.2178906,15.3882031 C12.4010156,15.6617187 11.6269531,15.9839844 10.9126562,16.3555469 C9.50796875,17.0863281 8.38070312,17.9729687 7.57890625,18.9589844 C8.54609375,13.913125 12.5202344,9.92320312 17.5578906,8.93289062 C15.6349219,10.4751562 14.1284375,12.7367969 13.2178906,15.3882031 Z M14.1428125,16.3245313 C15.7675,15.8405469 17.5622656,15.56 19.4159375,15.51125 L19.4159375,20.75875 L13.4259375,20.75875 C13.475625,19.2085156 13.7236719,17.7129688 14.1428125,16.3245313 Z M14.7827344,28.1439844 C16.246875,28.4982813 17.8125,28.7041406 19.4160156,28.7442969 L19.4160156,33.6457031 C17.44,32.5099219 15.8342188,30.5605469 14.7827344,28.1439844 Z M19.4160156,27.5717969 C17.6110156,27.524375 15.8611719,27.2576562 14.2703906,26.796875 C13.7753125,25.2907031 13.4820312,23.6457031 13.4266406,21.9313281 L19.4160156,21.9313281 L19.4160156,27.5717969 Z M19.4160156,14.3386719 C17.751875,14.3803906 16.1274219,14.5992188 14.6160937,14.9786719 C15.6602344,12.3921094 17.3319531,10.2892969 19.4160156,9.070625 L19.4160156,14.3386719 Z M20.5886719,9.070625 C22.6725,10.289375 24.3441406,12.3921875 25.3883594,14.9785937 C23.8770312,14.5992188 22.2527344,14.3803906 20.5886719,14.3386719 L20.5886719,9.070625 Z M20.5886719,15.51125 C22.4422656,15.5599219 24.2369531,15.8404688 25.8615625,16.3244531 C26.2808594,17.7129688 26.5289062,19.2085938 26.5785937,20.75875 L20.5886719,20.75875 L20.5886719,15.51125 Z M20.5886719,21.9313281 L26.5778125,21.9313281 C26.5214062,23.64625 26.2227344,25.2930469 25.7186719,26.8015625 C24.1321094,27.2595313 22.3878125,27.5244531 20.5886719,27.5717969 L20.5886719,21.9313281 Z M20.5886719,28.7442969 C22.1832812,28.704375 23.7403906,28.5004688 25.1975,28.1497656 C24.1461719,30.528125 22.5501562,32.4560156 20.5886719,33.6025 L20.5886719,28.7442969 Z M22.4197656,33.7623437 C24.2430469,32.3105469 25.6936719,30.214375 26.6204687,27.7508594 C27.49875,27.4663281 28.3282812,27.1246875 29.0907031,26.7280469 C30.4310156,26.0308594 31.5190625,25.1917969 32.3127344,24.2598438 C31.1757031,29.0628906 27.2928125,32.8153906 22.4197656,33.7623437 Z M28.5496094,25.6877344 C28.0859375,25.9289062 27.594375,26.1477344 27.0810938,26.3451562 C27.4725,24.9510156 27.7035938,23.4653125 27.7514063,21.9314062 L32.375,21.9314062 C31.8304688,23.3586719 30.4989063,24.6736719 28.5496094,25.6877344 Z M27.2014063,16.7842188 C27.67125,16.9694531 28.1221875,17.1729687 28.5496094,17.3953125 C30.3186719,18.3155469 31.5788281,19.48375 32.2038281,20.75875 L27.7521875,20.75875 C27.7104688,19.3853906 27.5210938,18.0501563 27.2014063,16.7842188 Z M29.090625,16.355 C28.3767188,15.9836719 27.6029688,15.6615625 26.7864844,15.3882031 C25.8760156,12.7369531 24.3696094,10.4752344 22.4467969,8.93304687 C24.7373438,9.38328125 26.8063281,10.4552344 28.4742188,11.9632031 L27.2503906,13.6349219 C26.9975781,13.9803906 26.9734375,14.4253125 27.1874219,14.7960937 C27.4014063,15.166875 27.7991406,15.3686719 28.2245313,15.3221875 L30.4617969,15.0789062 L31.3696875,17.1379687 C31.5129688,17.463125 31.7946094,17.6854687 32.1307813,17.751875 C32.248125,18.1464844 32.3469531,18.5491406 32.4254688,18.9588281 C31.6234375,17.9726562 30.4957031,17.0857813 29.090625,16.355 Z M34.2742188,13.9045313 C33.8099219,13.85375 33.3730469,14.1067188 33.1849219,14.5333594 L32.3439844,16.440625 L31.5029688,14.5332813 C31.3307813,14.1428906 30.9494531,13.898125 30.5307813,13.898125 C30.4921094,13.898125 30.4529688,13.9002344 30.41375,13.9045313 L28.3413281,14.1298437 L29.5727344,12.4478906 C29.8480469,12.0717188 29.8480469,11.5663281 29.5727344,11.1901563 L28.3414844,9.50820313 L30.41375,9.73351563 C30.8769531,9.78390625 31.3149219,9.53125 31.5030469,9.1046875 L32.3440625,7.19742188 L33.185,9.10476563 C33.373125,9.53125 33.8103125,9.78375 34.2742188,9.73351563 L36.3465625,9.50820313 L35.1152344,11.1901563 C34.8399219,11.5663281 34.8399219,12.0717188 35.1152344,12.4478906 L36.3465625,14.1298438 L34.2742188,13.9045313 Z M20.0023438,36.5240625 C20.3261719,36.5240625 20.5886719,36.7866406 20.5886719,37.1103906 L20.5886719,39.4136719 C20.5886719,39.7375 20.3261719,40 20.0023438,40 C19.6784375,40 19.4160156,39.7375 19.4160156,39.4136719 L19.4160156,37.1103906 C19.4160156,36.7865625 19.6784375,36.5240625 20.0023438,36.5240625 Z M9.26890625,9.78242188 C9.49789063,10.0114063 9.49789063,10.3826563 9.26898438,10.6115625 C9.15453125,10.7260156 9.00445313,10.7832813 8.854375,10.7832813 C8.70429688,10.7832813 8.55421875,10.7260938 8.4396875,10.6115625 L6.81101563,8.98289063 C6.58203125,8.75390625 6.58203125,8.38273438 6.81101563,8.15375 C7.04007813,7.92476563 7.41125,7.92476563 7.64023438,8.15375 L9.26890625,9.78242188 Z M33.1934375,33.706875 C33.4224219,33.9358594 33.4224219,34.3071094 33.1934375,34.5360156 C33.0789063,34.6503906 32.92875,34.7077344 32.7788281,34.7077344 C32.6288281,34.7077344 32.47875,34.6505469 32.3642188,34.5360156 L30.7355469,32.9073438 C30.5065625,32.6783594 30.5065625,32.3071875 30.7355469,32.0782031 C30.9646094,31.8492188 31.3357813,31.8492188 31.5647656,32.0782031 L33.1934375,33.706875 Z M4.23671875,20.7585156 C4.56054688,20.7585156 4.82304688,21.0210938 4.82304688,21.3448438 C4.82304688,21.6686719 4.56054688,21.9311719 4.23671875,21.9311719 L1.9334375,21.9311719 C1.60953125,21.9311719 1.34710938,21.6686719 1.34710938,21.3448438 C1.34710938,21.0210156 1.60953125,20.7585156 1.9334375,20.7585156 L4.23671875,20.7585156 Z M38.0710938,20.7585156 C38.395,20.7585156 38.6574219,21.0210938 38.6574219,21.3448438 C38.6574219,21.6686719 38.3949219,21.9311719 38.0710938,21.9311719 L35.7678125,21.9311719 C35.4439063,21.9311719 35.1814844,21.6686719 35.1814844,21.3448438 C35.1814844,21.0210156 35.4439063,20.7585156 35.7678125,20.7585156 L38.0710938,20.7585156 Z M9.26890625,32.0782031 C9.4978125,32.3071875 9.49789063,32.6784375 9.26898438,32.9073438 L7.6403125,34.5360156 C7.52585938,34.6503906 7.37570313,34.7077344 7.22570313,34.7077344 C7.07554688,34.7077344 6.92554688,34.6505469 6.81101563,34.5360156 C6.58203125,34.3070313 6.58203125,33.9357813 6.81101563,33.706875 L8.4396875,32.0782031 C8.66882813,31.8492188 9.04,31.8492188 9.26890625,32.0782031 Z M39.5160938,27.351875 L38.1567188,26.6084375 L37.4133594,25.2491406 C37.4133594,25.2490625 37.4133594,25.2490625 37.4133594,25.2490625 C37.2505469,24.9514063 36.9385938,24.7665625 36.5992969,24.7665625 C36.2600781,24.7665625 35.948125,24.9514844 35.7853125,25.2491406 L35.0419531,26.6084375 L33.6825781,27.351875 C33.3848438,27.5146094 33.1999219,27.8265625 33.1999219,28.1658594 C33.1999219,28.5051563 33.3849219,28.8170313 33.6825781,28.9798438 L35.0419531,29.7232813 L35.7853125,31.0826563 C35.948125,31.3803125 36.2600781,31.5651563 36.5992969,31.5651563 C36.9385938,31.5651563 37.2505469,31.3802344 37.4133594,31.0825781 L38.1567188,29.7232813 L39.5160938,28.9798438 C39.8138281,28.8171094 39.99875,28.5051563 39.99875,28.1658594 C39.99875,27.8265625 39.8138281,27.5146875 39.5160938,27.351875 Z M37.5310156,28.7289844 C37.3752344,28.8142969 37.2478125,28.9416406 37.1623437,29.0977344 L36.599375,30.1271875 L36.0361719,29.0974219 C35.9508594,28.9416406 35.8234375,28.8142969 35.6675,28.7289063 L34.6380469,28.1658594 L35.6674219,27.6028906 C35.8232812,27.5176563 35.9507812,27.3902344 36.0363281,27.2340625 L36.599375,26.2046094 L37.1625,27.234375 C37.2478906,27.3902344 37.3753906,27.5176563 37.5311719,27.6028125 L38.560625,28.1658594 L37.5310156,28.7289844 Z M38.9496875,2.89984375 L37.9148438,2.33382812 L37.3489063,1.29898437 C37.1989844,1.02484375 36.9117188,0.85453125 36.5992969,0.85453125 C36.286875,0.85453125 35.9996094,1.02476562 35.8496875,1.29898437 L35.28375,2.33382812 L34.24875,2.89984375 C33.9746875,3.04976562 33.804375,3.33703125 33.804375,3.64945312 C33.804375,3.96195312 33.9746094,4.24914062 34.2488281,4.3990625 L35.28375,4.96507812 L35.8496875,6 C35.9996094,6.27414062 36.286875,6.44445312 36.5992969,6.44445312 C36.9117188,6.44445312 37.1989844,6.27414062 37.3489063,5.99984375 L37.9148438,4.965 L38.9496875,4.3990625 C39.2238281,4.24914062 39.3942188,3.961875 39.3942188,3.64945312 C39.3942188,3.33703125 39.2239062,3.0496875 38.9496875,2.89984375 Z M37.2702344,3.98117187 C37.1266406,4.05984375 37.0092188,4.17726562 36.9307813,4.32070312 L36.5992969,4.92679687 L36.2675,4.32007812 C36.1889063,4.17679687 36.0716406,4.05960937 35.928125,3.98101562 L35.3219531,3.64953125 L35.9280469,3.31804687 C36.0714063,3.23960937 36.1888281,3.12234375 36.2678125,2.97835937 L36.5992969,2.37226562 L36.9307031,2.97828125 C37.0092969,3.12195312 37.1267969,3.23945312 37.2704688,3.31796875 L37.8765625,3.64953125 L37.2702344,3.98117187 Z M5.14648438,26.2335938 L4.11164063,25.6675781 L3.54578125,24.6328125 C3.39585938,24.3586719 3.10859375,24.1883594 2.79617188,24.1883594 C2.48367188,24.1883594 2.19648438,24.3586719 2.0465625,24.6328125 L1.48046875,25.6677344 L0.445546875,26.2335938 C0.171484375,26.3835156 0.001171875,26.6707813 0.001171875,26.9832031 C0.001171875,27.295625 0.17140625,27.5828906 0.445625,27.7328125 L1.48046875,28.2988281 L2.04648438,29.3336719 C2.19640625,29.6078125 2.48367188,29.778125 2.79609375,29.778125 C3.10859375,29.778125 3.39578125,29.6078906 3.54570313,29.3336719 L4.11164063,28.2988281 L5.1465625,27.7328125 C5.420625,27.5828906 5.5909375,27.295625 5.5909375,26.9832031 C5.5909375,26.6707813 5.42070313,26.3835938 5.14648438,26.2335938 Z M3.46734375,27.3147656 C3.32359375,27.3933594 3.20609375,27.5108594 3.12757813,27.6544531 L2.79609375,28.2605469 L2.46460938,27.6545313 C2.38601563,27.5108594 2.26851563,27.3933594 2.12492188,27.3148438 L1.51875,26.9832813 L2.12515625,26.6517188 C2.26867188,26.5730469 2.38609375,26.455625 2.46453125,26.3121875 L2.79609375,25.7060156 L3.1275,26.3120313 C3.20601563,26.4555469 3.3234375,26.5730469 3.46726563,26.6517969 L4.07335938,26.9832813 L3.46734375,27.3147656 Z"></path>
            </mask>
            <path d="M37.4373437,13.635 L36.108125,11.8191406 L37.4373437,10.0032031 C37.6902344,9.65773438 37.714375,9.2128125 37.5003906,8.84203125 C37.2864062,8.47125 36.8889062,8.26984375 36.4632812,8.3159375 L34.2260156,8.55921875 L33.318125,6.50007813 C33.1453906,6.10828125 32.7721875,5.86492188 32.3440625,5.86492188 C31.9157812,5.86492188 31.5425781,6.10828125 31.3699219,6.5 L30.4620312,8.55914063 L28.2247656,8.31585938 C27.7985938,8.26976562 27.4017188,8.47117188 27.1875781,8.84195312 C27.0757813,9.035625 27.0296094,9.24945313 27.0464844,9.45882813 C25.1398438,8.3246875 22.9399219,7.63414063 20.5888281,7.53554688 L20.5888281,4.3428125 L27.5094531,4.3428125 C28.9305469,4.3428125 30.0867187,3.18664062 30.0867187,1.765625 L30.0867187,0.97953125 C30.0866406,0.439453125 29.6471875,0 29.1070312,0 L27.3955469,0 C27.0716406,0 26.8092187,0.2625 26.8092187,0.586328125 C26.8092187,0.91015625 27.0716406,1.17265625 27.3955469,1.17265625 L28.9138281,1.17265625 L28.9138281,1.76570312 C28.9138281,2.54023437 28.28375,3.17023437 27.5092188,3.17023437 L12.4952344,3.17023437 C11.7207031,3.17023437 11.090625,2.54015625 11.090625,1.76570312 L11.090625,1.17265625 L23.6792969,1.17265625 C24.0032031,1.17265625 24.265625,0.91015625 24.265625,0.586328125 C24.265625,0.2625 24.0032031,0 23.6792969,0 L10.8976563,0 C10.3574219,0 9.91804688,0.439453125 9.91804688,0.97953125 L9.91804688,1.76570312 C9.91804688,3.18679687 11.0742188,4.34289062 12.4953125,4.34289062 L19.4160156,4.34289062 L19.4160156,7.535625 C12.0650781,7.8440625 6.17960938,13.9196875 6.17960938,21.345 C6.17960938,23.7224219 6.79335938,26.0671875 7.95453125,28.1260156 C8.11359375,28.4080469 8.47109375,28.5077344 8.75328125,28.3486719 C9.03523438,28.1896094 9.135,27.8320312 8.9759375,27.5499219 C8.39492188,26.5196875 7.96484375,25.4107813 7.6934375,24.2615625 C8.48679688,25.1925 9.57375,26.0307031 10.9128125,26.7274219 C11.6699219,27.1213281 12.4934375,27.4607813 13.365,27.744375 C14.2775781,30.2071094 15.7071875,32.3003906 17.5044531,33.749375 C15.1008594,33.2700781 12.8875781,32.1003906 11.1070312,30.339375 C10.8769531,30.1117188 10.5057031,30.1136719 10.2778906,30.3439844 C10.0501562,30.5742188 10.0521875,30.9453906 10.2824219,31.173125 C12.8750781,33.7375 16.3076562,35.154375 19.9528125,35.1671094 C19.9566406,35.1671875 19.9604687,35.1677344 19.9642969,35.1677344 C19.9667187,35.1677344 19.9690625,35.1674219 19.9714844,35.1673438 C19.9817969,35.1673438 19.9920312,35.1677344 20.0023437,35.1677344 C27.6241406,35.1677344 33.825,28.9669531 33.825,21.3450781 C33.825,19.9415625 33.6135937,18.586875 33.2225,17.31 C33.2586719,17.2564063 33.2910937,17.1992969 33.318125,17.1380469 L34.2260156,15.0789063 L36.4632812,15.3221875 C36.8896094,15.3685938 37.2863281,15.166875 37.5003906,14.7961719 C37.714375,14.4253906 37.6903125,13.9803906 37.4373437,13.635 Z M11.4539844,25.6871875 C9.50515625,24.6732031 8.17398438,23.3584375 7.62960938,21.9314062 L12.2529688,21.9314062 C12.2999219,23.4646875 12.5271875,24.94875 12.9121875,26.3409375 C12.4026563,26.144375 11.9146094,25.9267969 11.4539844,25.6871875 Z M7.80078125,20.7586719 C8.425625,19.4839063 9.68539063,18.3159375 11.4539844,17.3957813 C11.8817188,17.1732812 12.3328906,16.9694531 12.8030469,16.7842188 C12.4833594,18.0502344 12.2939844,19.3853906 12.2523438,20.7586719 L7.80078125,20.7586719 Z M13.2178906,15.3882031 C12.4010156,15.6617187 11.6269531,15.9839844 10.9126562,16.3555469 C9.50796875,17.0863281 8.38070312,17.9729687 7.57890625,18.9589844 C8.54609375,13.913125 12.5202344,9.92320312 17.5578906,8.93289062 C15.6349219,10.4751562 14.1284375,12.7367969 13.2178906,15.3882031 Z M14.1428125,16.3245313 C15.7675,15.8405469 17.5622656,15.56 19.4159375,15.51125 L19.4159375,20.75875 L13.4259375,20.75875 C13.475625,19.2085156 13.7236719,17.7129688 14.1428125,16.3245313 Z M14.7827344,28.1439844 C16.246875,28.4982813 17.8125,28.7041406 19.4160156,28.7442969 L19.4160156,33.6457031 C17.44,32.5099219 15.8342188,30.5605469 14.7827344,28.1439844 Z M19.4160156,27.5717969 C17.6110156,27.524375 15.8611719,27.2576562 14.2703906,26.796875 C13.7753125,25.2907031 13.4820312,23.6457031 13.4266406,21.9313281 L19.4160156,21.9313281 L19.4160156,27.5717969 Z M19.4160156,14.3386719 C17.751875,14.3803906 16.1274219,14.5992188 14.6160937,14.9786719 C15.6602344,12.3921094 17.3319531,10.2892969 19.4160156,9.070625 L19.4160156,14.3386719 Z M20.5886719,9.070625 C22.6725,10.289375 24.3441406,12.3921875 25.3883594,14.9785937 C23.8770312,14.5992188 22.2527344,14.3803906 20.5886719,14.3386719 L20.5886719,9.070625 Z M20.5886719,15.51125 C22.4422656,15.5599219 24.2369531,15.8404688 25.8615625,16.3244531 C26.2808594,17.7129688 26.5289062,19.2085938 26.5785937,20.75875 L20.5886719,20.75875 L20.5886719,15.51125 Z M20.5886719,21.9313281 L26.5778125,21.9313281 C26.5214062,23.64625 26.2227344,25.2930469 25.7186719,26.8015625 C24.1321094,27.2595313 22.3878125,27.5244531 20.5886719,27.5717969 L20.5886719,21.9313281 Z M20.5886719,28.7442969 C22.1832812,28.704375 23.7403906,28.5004688 25.1975,28.1497656 C24.1461719,30.528125 22.5501562,32.4560156 20.5886719,33.6025 L20.5886719,28.7442969 Z M22.4197656,33.7623437 C24.2430469,32.3105469 25.6936719,30.214375 26.6204687,27.7508594 C27.49875,27.4663281 28.3282812,27.1246875 29.0907031,26.7280469 C30.4310156,26.0308594 31.5190625,25.1917969 32.3127344,24.2598438 C31.1757031,29.0628906 27.2928125,32.8153906 22.4197656,33.7623437 Z M28.5496094,25.6877344 C28.0859375,25.9289062 27.594375,26.1477344 27.0810938,26.3451562 C27.4725,24.9510156 27.7035938,23.4653125 27.7514063,21.9314062 L32.375,21.9314062 C31.8304688,23.3586719 30.4989063,24.6736719 28.5496094,25.6877344 Z M27.2014063,16.7842188 C27.67125,16.9694531 28.1221875,17.1729687 28.5496094,17.3953125 C30.3186719,18.3155469 31.5788281,19.48375 32.2038281,20.75875 L27.7521875,20.75875 C27.7104688,19.3853906 27.5210938,18.0501563 27.2014063,16.7842188 Z M29.090625,16.355 C28.3767188,15.9836719 27.6029688,15.6615625 26.7864844,15.3882031 C25.8760156,12.7369531 24.3696094,10.4752344 22.4467969,8.93304687 C24.7373438,9.38328125 26.8063281,10.4552344 28.4742188,11.9632031 L27.2503906,13.6349219 C26.9975781,13.9803906 26.9734375,14.4253125 27.1874219,14.7960937 C27.4014063,15.166875 27.7991406,15.3686719 28.2245313,15.3221875 L30.4617969,15.0789062 L31.3696875,17.1379687 C31.5129688,17.463125 31.7946094,17.6854687 32.1307813,17.751875 C32.248125,18.1464844 32.3469531,18.5491406 32.4254688,18.9588281 C31.6234375,17.9726562 30.4957031,17.0857813 29.090625,16.355 Z M34.2742188,13.9045313 C33.8099219,13.85375 33.3730469,14.1067188 33.1849219,14.5333594 L32.3439844,16.440625 L31.5029688,14.5332813 C31.3307813,14.1428906 30.9494531,13.898125 30.5307813,13.898125 C30.4921094,13.898125 30.4529688,13.9002344 30.41375,13.9045313 L28.3413281,14.1298437 L29.5727344,12.4478906 C29.8480469,12.0717188 29.8480469,11.5663281 29.5727344,11.1901563 L28.3414844,9.50820313 L30.41375,9.73351563 C30.8769531,9.78390625 31.3149219,9.53125 31.5030469,9.1046875 L32.3440625,7.19742188 L33.185,9.10476563 C33.373125,9.53125 33.8103125,9.78375 34.2742188,9.73351563 L36.3465625,9.50820313 L35.1152344,11.1901563 C34.8399219,11.5663281 34.8399219,12.0717188 35.1152344,12.4478906 L36.3465625,14.1298438 L34.2742188,13.9045313 Z M20.0023438,36.5240625 C20.3261719,36.5240625 20.5886719,36.7866406 20.5886719,37.1103906 L20.5886719,39.4136719 C20.5886719,39.7375 20.3261719,40 20.0023438,40 C19.6784375,40 19.4160156,39.7375 19.4160156,39.4136719 L19.4160156,37.1103906 C19.4160156,36.7865625 19.6784375,36.5240625 20.0023438,36.5240625 Z M9.26890625,9.78242188 C9.49789063,10.0114063 9.49789063,10.3826563 9.26898438,10.6115625 C9.15453125,10.7260156 9.00445313,10.7832813 8.854375,10.7832813 C8.70429688,10.7832813 8.55421875,10.7260938 8.4396875,10.6115625 L6.81101563,8.98289063 C6.58203125,8.75390625 6.58203125,8.38273438 6.81101563,8.15375 C7.04007813,7.92476563 7.41125,7.92476563 7.64023438,8.15375 L9.26890625,9.78242188 Z M33.1934375,33.706875 C33.4224219,33.9358594 33.4224219,34.3071094 33.1934375,34.5360156 C33.0789063,34.6503906 32.92875,34.7077344 32.7788281,34.7077344 C32.6288281,34.7077344 32.47875,34.6505469 32.3642188,34.5360156 L30.7355469,32.9073438 C30.5065625,32.6783594 30.5065625,32.3071875 30.7355469,32.0782031 C30.9646094,31.8492188 31.3357813,31.8492188 31.5647656,32.0782031 L33.1934375,33.706875 Z M4.23671875,20.7585156 C4.56054688,20.7585156 4.82304688,21.0210938 4.82304688,21.3448438 C4.82304688,21.6686719 4.56054688,21.9311719 4.23671875,21.9311719 L1.9334375,21.9311719 C1.60953125,21.9311719 1.34710938,21.6686719 1.34710938,21.3448438 C1.34710938,21.0210156 1.60953125,20.7585156 1.9334375,20.7585156 L4.23671875,20.7585156 Z M38.0710938,20.7585156 C38.395,20.7585156 38.6574219,21.0210938 38.6574219,21.3448438 C38.6574219,21.6686719 38.3949219,21.9311719 38.0710938,21.9311719 L35.7678125,21.9311719 C35.4439063,21.9311719 35.1814844,21.6686719 35.1814844,21.3448438 C35.1814844,21.0210156 35.4439063,20.7585156 35.7678125,20.7585156 L38.0710938,20.7585156 Z M9.26890625,32.0782031 C9.4978125,32.3071875 9.49789063,32.6784375 9.26898438,32.9073438 L7.6403125,34.5360156 C7.52585938,34.6503906 7.37570313,34.7077344 7.22570313,34.7077344 C7.07554688,34.7077344 6.92554688,34.6505469 6.81101563,34.5360156 C6.58203125,34.3070313 6.58203125,33.9357813 6.81101563,33.706875 L8.4396875,32.0782031 C8.66882813,31.8492188 9.04,31.8492188 9.26890625,32.0782031 Z M39.5160938,27.351875 L38.1567188,26.6084375 L37.4133594,25.2491406 C37.4133594,25.2490625 37.4133594,25.2490625 37.4133594,25.2490625 C37.2505469,24.9514063 36.9385938,24.7665625 36.5992969,24.7665625 C36.2600781,24.7665625 35.948125,24.9514844 35.7853125,25.2491406 L35.0419531,26.6084375 L33.6825781,27.351875 C33.3848438,27.5146094 33.1999219,27.8265625 33.1999219,28.1658594 C33.1999219,28.5051563 33.3849219,28.8170313 33.6825781,28.9798438 L35.0419531,29.7232813 L35.7853125,31.0826563 C35.948125,31.3803125 36.2600781,31.5651563 36.5992969,31.5651563 C36.9385938,31.5651563 37.2505469,31.3802344 37.4133594,31.0825781 L38.1567188,29.7232813 L39.5160938,28.9798438 C39.8138281,28.8171094 39.99875,28.5051563 39.99875,28.1658594 C39.99875,27.8265625 39.8138281,27.5146875 39.5160938,27.351875 Z M37.5310156,28.7289844 C37.3752344,28.8142969 37.2478125,28.9416406 37.1623437,29.0977344 L36.599375,30.1271875 L36.0361719,29.0974219 C35.9508594,28.9416406 35.8234375,28.8142969 35.6675,28.7289063 L34.6380469,28.1658594 L35.6674219,27.6028906 C35.8232812,27.5176563 35.9507812,27.3902344 36.0363281,27.2340625 L36.599375,26.2046094 L37.1625,27.234375 C37.2478906,27.3902344 37.3753906,27.5176563 37.5311719,27.6028125 L38.560625,28.1658594 L37.5310156,28.7289844 Z M38.9496875,2.89984375 L37.9148438,2.33382812 L37.3489063,1.29898437 C37.1989844,1.02484375 36.9117188,0.85453125 36.5992969,0.85453125 C36.286875,0.85453125 35.9996094,1.02476562 35.8496875,1.29898437 L35.28375,2.33382812 L34.24875,2.89984375 C33.9746875,3.04976562 33.804375,3.33703125 33.804375,3.64945312 C33.804375,3.96195312 33.9746094,4.24914062 34.2488281,4.3990625 L35.28375,4.96507812 L35.8496875,6 C35.9996094,6.27414062 36.286875,6.44445312 36.5992969,6.44445312 C36.9117188,6.44445312 37.1989844,6.27414062 37.3489063,5.99984375 L37.9148438,4.965 L38.9496875,4.3990625 C39.2238281,4.24914062 39.3942188,3.961875 39.3942188,3.64945312 C39.3942188,3.33703125 39.2239062,3.0496875 38.9496875,2.89984375 Z M37.2702344,3.98117187 C37.1266406,4.05984375 37.0092188,4.17726562 36.9307813,4.32070312 L36.5992969,4.92679687 L36.2675,4.32007812 C36.1889063,4.17679687 36.0716406,4.05960937 35.928125,3.98101562 L35.3219531,3.64953125 L35.9280469,3.31804687 C36.0714063,3.23960937 36.1888281,3.12234375 36.2678125,2.97835937 L36.5992969,2.37226562 L36.9307031,2.97828125 C37.0092969,3.12195312 37.1267969,3.23945312 37.2704688,3.31796875 L37.8765625,3.64953125 L37.2702344,3.98117187 Z M5.14648438,26.2335938 L4.11164063,25.6675781 L3.54578125,24.6328125 C3.39585938,24.3586719 3.10859375,24.1883594 2.79617188,24.1883594 C2.48367188,24.1883594 2.19648438,24.3586719 2.0465625,24.6328125 L1.48046875,25.6677344 L0.445546875,26.2335938 C0.171484375,26.3835156 0.001171875,26.6707813 0.001171875,26.9832031 C0.001171875,27.295625 0.17140625,27.5828906 0.445625,27.7328125 L1.48046875,28.2988281 L2.04648438,29.3336719 C2.19640625,29.6078125 2.48367188,29.778125 2.79609375,29.778125 C3.10859375,29.778125 3.39578125,29.6078906 3.54570313,29.3336719 L4.11164063,28.2988281 L5.1465625,27.7328125 C5.420625,27.5828906 5.5909375,27.295625 5.5909375,26.9832031 C5.5909375,26.6707813 5.42070313,26.3835938 5.14648438,26.2335938 Z M3.46734375,27.3147656 C3.32359375,27.3933594 3.20609375,27.5108594 3.12757813,27.6544531 L2.79609375,28.2605469 L2.46460938,27.6545313 C2.38601563,27.5108594 2.26851563,27.3933594 2.12492188,27.3148438 L1.51875,26.9832813 L2.12515625,26.6517188 C2.26867188,26.5730469 2.38609375,26.455625 2.46453125,26.3121875 L2.79609375,25.7060156 L3.1275,26.3120313 C3.20601563,26.4555469 3.3234375,26.5730469 3.46726563,26.6517969 L4.07335938,26.9832813 L3.46734375,27.3147656 Z" fill="#000000" fill-rule="nonzero"></path>
        </g>
    </g>
</svg>
