<?xml version="1.0" encoding="UTF-8"?>
<svg width="39px" height="40px" viewBox="0 0 39 40" version="1.1" xmlns="http://www.w3.org/2000/svg" xmlns:xlink="http://www.w3.org/1999/xlink">
    <!-- Generator: Sketch 52.3 (67297) - http://www.bohemiancoding.com/sketch -->
    <title>filter-category-news</title>
    <desc>Created with Sketch.</desc>
    <g id="Symbols" stroke="none" stroke-width="1" fill="none" fill-rule="evenodd">
        <g id="Elements-/-Sort-/-Card-/-~Parts-/-Icon_News" transform="translate(-1.000000, 0.000000)">
            <mask id="mask-2" fill="white">
                <path d="M36.9837447,2.55319149 L33.5377021,2.55319149 C33.1851064,2.55319149 32.8994043,2.83897872 32.8994043,3.19148936 C32.8994043,3.544 33.1851064,3.82978723 33.5377021,3.82978723 L34.7251064,3.82978723 C34.4845106,4.22748936 34.3457872,4.69344681 34.3457872,5.19123404 L34.3457872,35.3622128 C34.3457872,35.7147234 34.6314894,36.0005106 34.9840851,36.0005106 C35.3366809,36.0005106 35.622383,35.7147234 35.622383,35.3622128 L35.622383,5.19123404 C35.622383,4.44051064 36.2331064,3.82978723 36.9837447,3.82978723 C37.7344681,3.82978723 38.3452766,4.44051064 38.3452766,5.19123404 L38.3452766,35.3622128 C38.3452766,37.2155745 36.8374468,38.7234043 34.9840851,38.7234043 C33.1307234,38.7234043 31.6228936,37.2155745 31.6228936,35.3622128 L31.6228936,0.638297872 C31.6228936,0.285787234 31.3371915,0 30.9845957,0 L1.6547234,0 C1.30212766,0 1.01642553,0.285787234 1.01642553,0.638297872 L1.01642553,35.3622128 C1.01642553,37.9194894 3.09702128,40 5.65429787,40 L34.9840851,40 C37.5413617,40 39.6218723,37.9194894 39.6218723,35.3622128 L39.6218723,5.19123404 C39.6218723,3.73659574 38.438383,2.55319149 36.9837447,2.55319149 Z M5.65429787,38.7234043 C3.80093617,38.7234043 2.29310638,37.2155745 2.29310638,35.3622128 L2.29310638,1.27659574 L30.3462979,1.27659574 L30.3462979,35.3622128 C30.3462979,36.6835745 30.9019574,37.8778723 31.7916596,38.7234043 L5.65429787,38.7234043 Z M27.5802553,3.40425532 L5.05897872,3.40425532 C4.70638298,3.40425532 4.42068085,3.69004255 4.42068085,4.04255319 L4.42068085,10.4255319 C4.42068085,10.7780426 4.70638298,11.0638298 5.05897872,11.0638298 L27.5802553,11.0638298 C27.9328511,11.0638298 28.2185532,10.7780426 28.2185532,10.4255319 L28.2185532,4.04255319 C28.2185532,3.69004255 27.9328511,3.40425532 27.5802553,3.40425532 Z M26.9419574,9.78723404 L5.6972766,9.78723404 L5.6972766,4.68085106 L26.9419574,4.68085106 L26.9419574,9.78723404 Z M27.5802553,12.3404255 L5.05897872,12.3404255 C4.70638298,12.3404255 4.42068085,12.6262128 4.42068085,12.9787234 C4.42068085,13.331234 4.70638298,13.6170213 5.05897872,13.6170213 L27.5802553,13.6170213 C27.9328511,13.6170213 28.2185532,13.331234 28.2185532,12.9787234 C28.2185532,12.6262128 27.9328511,12.3404255 27.5802553,12.3404255 Z M27.5802553,17.4468085 L17.5962553,17.4468085 C17.2436596,17.4468085 16.9579574,17.7325957 16.9579574,18.0851064 C16.9579574,18.437617 17.2436596,18.7234043 17.5962553,18.7234043 L27.5803404,18.7234043 C27.9329362,18.7234043 28.2186383,18.437617 28.2186383,18.0851064 C28.2186383,17.7325957 27.9328511,17.4468085 27.5802553,17.4468085 Z M15.0430638,17.4468085 L5.05897872,17.4468085 C4.70638298,17.4468085 4.42068085,17.7325957 4.42068085,18.0851064 C4.42068085,18.437617 4.70638298,18.7234043 5.05897872,18.7234043 L15.0430638,18.7234043 C15.3956596,18.7234043 15.6813617,18.437617 15.6813617,18.0851064 C15.6813617,17.7325957 15.3955745,17.4468085 15.0430638,17.4468085 Z M27.5802553,20 L17.5962553,20 C17.2436596,20 16.9579574,20.2857872 16.9579574,20.6382979 C16.9579574,20.9908085 17.2436596,21.2765957 17.5962553,21.2765957 L27.5803404,21.2765957 C27.9329362,21.2765957 28.2186383,20.9908085 28.2186383,20.6382979 C28.2186383,20.2857872 27.9328511,20 27.5802553,20 Z M15.0430638,20 L5.05897872,20 C4.70638298,20 4.42068085,20.2857872 4.42068085,20.6382979 C4.42068085,20.9908085 4.70638298,21.2765957 5.05897872,21.2765957 L15.0430638,21.2765957 C15.3956596,21.2765957 15.6813617,20.9908085 15.6813617,20.6382979 C15.6813617,20.2857872 15.3955745,20 15.0430638,20 Z M27.5802553,22.5531915 L17.5962553,22.5531915 C17.2436596,22.5531915 16.9579574,22.8389787 16.9579574,23.1914894 C16.9579574,23.544 17.2436596,23.8297872 17.5962553,23.8297872 L27.5803404,23.8297872 C27.9329362,23.8297872 28.2186383,23.544 28.2186383,23.1914894 C28.2186383,22.8389787 27.9328511,22.5531915 27.5802553,22.5531915 Z M27.5802553,25.106383 L17.5962553,25.106383 C17.2436596,25.106383 16.9579574,25.3921702 16.9579574,25.7446809 C16.9579574,26.0971915 17.2436596,26.3829787 17.5962553,26.3829787 L27.5803404,26.3829787 C27.9329362,26.3829787 28.2186383,26.0971915 28.2186383,25.7446809 C28.2186383,25.3921702 27.9328511,25.106383 27.5802553,25.106383 Z M17.5962553,28.9361702 L24.1760851,28.9361702 C24.5286809,28.9361702 24.814383,28.650383 24.814383,28.2978723 C24.814383,27.9453617 24.5286809,27.6595745 24.1760851,27.6595745 L17.5962553,27.6595745 C17.2436596,27.6595745 16.9579574,27.9453617 16.9579574,28.2978723 C16.9579574,28.650383 17.2436596,28.9361702 17.5962553,28.9361702 Z M24.176,35.3191489 L17.5961702,35.3191489 C17.2435745,35.3191489 16.9578723,35.6049362 16.9578723,35.9574468 C16.9578723,36.3099574 17.2435745,36.5957447 17.5961702,36.5957447 L24.176,36.5957447 C24.5285957,36.5957447 24.8142979,36.3099574 24.8142979,35.9574468 C24.8142979,35.6049362 24.5285957,35.3191489 24.176,35.3191489 Z M27.5802553,32.7659574 L17.5962553,32.7659574 C17.2436596,32.7659574 16.9579574,33.0517447 16.9579574,33.4042553 C16.9579574,33.756766 17.2436596,34.0425532 17.5962553,34.0425532 L27.5803404,34.0425532 C27.9329362,34.0425532 28.2186383,33.756766 28.2186383,33.4042553 C28.2186383,33.0517447 27.9328511,32.7659574 27.5802553,32.7659574 Z M15.0430638,22.5531915 L5.05897872,22.5531915 C4.70638298,22.5531915 4.42068085,22.8389787 4.42068085,23.1914894 L4.42068085,35.9574468 C4.42068085,36.3099574 4.70638298,36.5957447 5.05897872,36.5957447 L15.0430638,36.5957447 C15.3956596,36.5957447 15.6813617,36.3099574 15.6813617,35.9574468 L15.6813617,23.1914894 C15.6813617,22.8389787 15.3955745,22.5531915 15.0430638,22.5531915 Z M14.404766,35.3191489 L5.6972766,35.3191489 L5.6972766,23.8297872 L14.404766,23.8297872 L14.404766,35.3191489 Z"></path>
            </mask>
            <path d="M36.9837447,2.55319149 L33.5377021,2.55319149 C33.1851064,2.55319149 32.8994043,2.83897872 32.8994043,3.19148936 C32.8994043,3.544 33.1851064,3.82978723 33.5377021,3.82978723 L34.7251064,3.82978723 C34.4845106,4.22748936 34.3457872,4.69344681 34.3457872,5.19123404 L34.3457872,35.3622128 C34.3457872,35.7147234 34.6314894,36.0005106 34.9840851,36.0005106 C35.3366809,36.0005106 35.622383,35.7147234 35.622383,35.3622128 L35.622383,5.19123404 C35.622383,4.44051064 36.2331064,3.82978723 36.9837447,3.82978723 C37.7344681,3.82978723 38.3452766,4.44051064 38.3452766,5.19123404 L38.3452766,35.3622128 C38.3452766,37.2155745 36.8374468,38.7234043 34.9840851,38.7234043 C33.1307234,38.7234043 31.6228936,37.2155745 31.6228936,35.3622128 L31.6228936,0.638297872 C31.6228936,0.285787234 31.3371915,0 30.9845957,0 L1.6547234,0 C1.30212766,0 1.01642553,0.285787234 1.01642553,0.638297872 L1.01642553,35.3622128 C1.01642553,37.9194894 3.09702128,40 5.65429787,40 L34.9840851,40 C37.5413617,40 39.6218723,37.9194894 39.6218723,35.3622128 L39.6218723,5.19123404 C39.6218723,3.73659574 38.438383,2.55319149 36.9837447,2.55319149 Z M5.65429787,38.7234043 C3.80093617,38.7234043 2.29310638,37.2155745 2.29310638,35.3622128 L2.29310638,1.27659574 L30.3462979,1.27659574 L30.3462979,35.3622128 C30.3462979,36.6835745 30.9019574,37.8778723 31.7916596,38.7234043 L5.65429787,38.7234043 Z M27.5802553,3.40425532 L5.05897872,3.40425532 C4.70638298,3.40425532 4.42068085,3.69004255 4.42068085,4.04255319 L4.42068085,10.4255319 C4.42068085,10.7780426 4.70638298,11.0638298 5.05897872,11.0638298 L27.5802553,11.0638298 C27.9328511,11.0638298 28.2185532,10.7780426 28.2185532,10.4255319 L28.2185532,4.04255319 C28.2185532,3.69004255 27.9328511,3.40425532 27.5802553,3.40425532 Z M26.9419574,9.78723404 L5.6972766,9.78723404 L5.6972766,4.68085106 L26.9419574,4.68085106 L26.9419574,9.78723404 Z M27.5802553,12.3404255 L5.05897872,12.3404255 C4.70638298,12.3404255 4.42068085,12.6262128 4.42068085,12.9787234 C4.42068085,13.331234 4.70638298,13.6170213 5.05897872,13.6170213 L27.5802553,13.6170213 C27.9328511,13.6170213 28.2185532,13.331234 28.2185532,12.9787234 C28.2185532,12.6262128 27.9328511,12.3404255 27.5802553,12.3404255 Z M27.5802553,17.4468085 L17.5962553,17.4468085 C17.2436596,17.4468085 16.9579574,17.7325957 16.9579574,18.0851064 C16.9579574,18.437617 17.2436596,18.7234043 17.5962553,18.7234043 L27.5803404,18.7234043 C27.9329362,18.7234043 28.2186383,18.437617 28.2186383,18.0851064 C28.2186383,17.7325957 27.9328511,17.4468085 27.5802553,17.4468085 Z M15.0430638,17.4468085 L5.05897872,17.4468085 C4.70638298,17.4468085 4.42068085,17.7325957 4.42068085,18.0851064 C4.42068085,18.437617 4.70638298,18.7234043 5.05897872,18.7234043 L15.0430638,18.7234043 C15.3956596,18.7234043 15.6813617,18.437617 15.6813617,18.0851064 C15.6813617,17.7325957 15.3955745,17.4468085 15.0430638,17.4468085 Z M27.5802553,20 L17.5962553,20 C17.2436596,20 16.9579574,20.2857872 16.9579574,20.6382979 C16.9579574,20.9908085 17.2436596,21.2765957 17.5962553,21.2765957 L27.5803404,21.2765957 C27.9329362,21.2765957 28.2186383,20.9908085 28.2186383,20.6382979 C28.2186383,20.2857872 27.9328511,20 27.5802553,20 Z M15.0430638,20 L5.05897872,20 C4.70638298,20 4.42068085,20.2857872 4.42068085,20.6382979 C4.42068085,20.9908085 4.70638298,21.2765957 5.05897872,21.2765957 L15.0430638,21.2765957 C15.3956596,21.2765957 15.6813617,20.9908085 15.6813617,20.6382979 C15.6813617,20.2857872 15.3955745,20 15.0430638,20 Z M27.5802553,22.5531915 L17.5962553,22.5531915 C17.2436596,22.5531915 16.9579574,22.8389787 16.9579574,23.1914894 C16.9579574,23.544 17.2436596,23.8297872 17.5962553,23.8297872 L27.5803404,23.8297872 C27.9329362,23.8297872 28.2186383,23.544 28.2186383,23.1914894 C28.2186383,22.8389787 27.9328511,22.5531915 27.5802553,22.5531915 Z M27.5802553,25.106383 L17.5962553,25.106383 C17.2436596,25.106383 16.9579574,25.3921702 16.9579574,25.7446809 C16.9579574,26.0971915 17.2436596,26.3829787 17.5962553,26.3829787 L27.5803404,26.3829787 C27.9329362,26.3829787 28.2186383,26.0971915 28.2186383,25.7446809 C28.2186383,25.3921702 27.9328511,25.106383 27.5802553,25.106383 Z M17.5962553,28.9361702 L24.1760851,28.9361702 C24.5286809,28.9361702 24.814383,28.650383 24.814383,28.2978723 C24.814383,27.9453617 24.5286809,27.6595745 24.1760851,27.6595745 L17.5962553,27.6595745 C17.2436596,27.6595745 16.9579574,27.9453617 16.9579574,28.2978723 C16.9579574,28.650383 17.2436596,28.9361702 17.5962553,28.9361702 Z M24.176,35.3191489 L17.5961702,35.3191489 C17.2435745,35.3191489 16.9578723,35.6049362 16.9578723,35.9574468 C16.9578723,36.3099574 17.2435745,36.5957447 17.5961702,36.5957447 L24.176,36.5957447 C24.5285957,36.5957447 24.8142979,36.3099574 24.8142979,35.9574468 C24.8142979,35.6049362 24.5285957,35.3191489 24.176,35.3191489 Z M27.5802553,32.7659574 L17.5962553,32.7659574 C17.2436596,32.7659574 16.9579574,33.0517447 16.9579574,33.4042553 C16.9579574,33.756766 17.2436596,34.0425532 17.5962553,34.0425532 L27.5803404,34.0425532 C27.9329362,34.0425532 28.2186383,33.756766 28.2186383,33.4042553 C28.2186383,33.0517447 27.9328511,32.7659574 27.5802553,32.7659574 Z M15.0430638,22.5531915 L5.05897872,22.5531915 C4.70638298,22.5531915 4.42068085,22.8389787 4.42068085,23.1914894 L4.42068085,35.9574468 C4.42068085,36.3099574 4.70638298,36.5957447 5.05897872,36.5957447 L15.0430638,36.5957447 C15.3956596,36.5957447 15.6813617,36.3099574 15.6813617,35.9574468 L15.6813617,23.1914894 C15.6813617,22.8389787 15.3955745,22.5531915 15.0430638,22.5531915 Z M14.404766,35.3191489 L5.6972766,35.3191489 L5.6972766,23.8297872 L14.404766,23.8297872 L14.404766,35.3191489 Z" fill="#000000" fill-rule="nonzero"></path>
        </g>
    </g>
</svg>
