<svg width="40" height="34" viewBox="0 0 40 34" xmlns="http://www.w3.org/2000/svg">
    <title>
        filter-category-17
    </title>
    <path d="M38.893 15.312a8.083 8.083 0 0 0-9.807-3.626l-4.2-9.1h3.934a.994.994 0 0 1 0 1.987h-.331a.663.663 0 0 0 0 1.326h.33a2.319 2.319 0 1 0 0-4.638h-4.968a.663.663 0 0 0-.602.94l1.707 3.698H14.531l-.91-1.988h.568A1.71 1.71 0 0 0 14.377.5l-3.64-.406a1.914 1.914 0 1 0-.21 3.817h1.636L13.28 6.35l-2.54 5.366a7.946 7.946 0 1 0 5.127 8.096h1.453a2.643 2.643 0 1 0 4.247-2.686l4.341-9.164 1.974 4.278a8.083 8.083 0 1 0 11.01 3.072zM10.528 2.586a.59.59 0 1 1 .063-1.175l3.64.405a.386.386 0 0 1-.042.77h-3.661zm.839 10.898a6.625 6.625 0 0 1 3.175 5.002H8.997l2.37-5.002zM7.95 25.774a6.625 6.625 0 1 1 2.22-12.86l-2.816 5.951a.663.663 0 0 0 .596.947h6.592a6.633 6.633 0 0 1-6.592 5.962zm9.37-7.288h-1.453a7.95 7.95 0 0 0-3.93-6.205L14 7.922l4.21 9.183a2.64 2.64 0 0 0-.891 1.381zm2.556 1.988a1.325 1.325 0 1 1 0-2.65 1.325 1.325 0 0 1 0 2.65zm.498-3.924a2.622 2.622 0 0 0-.498-.051 2.69 2.69 0 0 0-.464.047l-4.273-9.322h9.653l-4.418 9.326zm11.482 9.275a6.65 6.65 0 0 1-3.415-12.374l2.759 5.977a.663.663 0 1 0 1.203-.554l-2.76-5.98a6.65 6.65 0 1 1 2.213 12.93zm-.055 1.274h7.95v1.325H0V27.1h31.801zM9.275 32.4a.663.663 0 0 1 0 1.326h-7.95a.663.663 0 0 1 0-1.325h7.95zm15.238 0a.663.663 0 0 1 0 1.326h-9.275a.663.663 0 0 1 0-1.325h9.275zm13.914 0a.663.663 0 0 1 0 1.326h-7.95a.663.663 0 0 1 0-1.325h7.95zM7.95 23.125a.663.663 0 0 1 0 1.325 5.3 5.3 0 0 1-1.513-.22c-.004 0-.007 0-.01-.002a.663.663 0 1 1 .387-1.267c.369.11.752.165 1.136.164zM5.168 21.99a.663.663 0 0 1-.927.946 5.31 5.31 0 0 1-1.372-5.3.663.663 0 0 1 1.271.378c-.11.369-.165.751-.165 1.136a3.945 3.945 0 0 0 1.193 2.84z" fill="#000" fill-rule="nonzero"/>
</svg>
