<?xml version="1.0" encoding="UTF-8"?>
<svg width="38px" height="37px" viewBox="0 0 38 37" version="1.1" xmlns="http://www.w3.org/2000/svg" xmlns:xlink="http://www.w3.org/1999/xlink">
    <!-- Generator: Sketch 49.3 (51167) - http://www.bohemiancoding.com/sketch -->
    <title>filter-category-5</title>
    <desc>Created with Sketch.</desc>
    <g id="Symbols" stroke="none" stroke-width="1" fill="none" fill-rule="evenodd">
        <g id="Elements-/-Sort-/-Card-/-~Parts-/-Icon_05" transform="translate(-1.000000, -2.000000)">
            <mask id="mask-2" fill="white">
                <path d="M14.9392461,24.4884816 C13.9663867,25.3258918 12.7225547,25.7870871 11.4370117,25.7870871 C8.91357422,25.7870871 6.73146875,24.0068762 6.19353125,21.5817043 L7.65675391,21.1427746 C7.99778906,22.919052 9.56276562,24.2656027 11.4370117,24.2656027 C13.311332,24.2656027 14.8762344,22.919052 15.2172695,21.1427004 L16.680418,21.5817043 C16.4309687,22.7062668 15.8211875,23.7294465 14.9392461,24.4884816 M14.1738281,19.0475051 L14.1738281,20.4155051 C14.1738281,21.9245949 12.9461016,23.1523215 11.4370117,23.1523215 C9.93029687,23.1523215 8.70427734,21.9285285 8.70034375,20.4227043 C8.70034375,20.4200324 8.70019531,20.4172863 8.70019531,20.4146887 L8.70019531,19.0475051 C9.53226172,19.4364855 10.4594766,19.6548371 11.4370117,19.6548371 C12.4145469,19.6548371 13.3417617,19.4365598 14.1738281,19.0475051 M6.06542969,13.1698996 C6.06542969,12.8624855 5.81620313,12.613259 5.50878906,12.613259 C5.08930469,12.613259 4.74804688,12.2720012 4.74804688,11.8525168 C4.74804688,11.582509 4.89084375,11.3381809 5.13005078,11.1989465 C5.14237109,11.1917473 5.15357813,11.1832863 5.16523047,11.1752707 C5.27114063,11.1214621 5.38862891,11.0917746 5.50878906,11.0917746 L6.35139453,11.0917746 C6.87537891,11.0917746 7.33872656,10.7577902 7.50438281,10.2607473 L7.88787109,9.11035664 C9.19649609,9.08148555 13.3206836,8.89831367 15.6380898,7.73953633 C15.9130703,7.60215742 16.0245469,7.26772773 15.8870195,6.99274727 C15.7495664,6.7177668 15.4152852,6.60636445 15.1402305,6.74381758 C12.6545703,7.98661055 7.53622266,8.00241914 7.48478906,8.00241914 C7.24521094,8.00256758 7.0325,8.15575508 6.95679688,8.38301289 L6.44825,9.90872773 C6.43429688,9.95043867 6.39548047,9.97849336 6.35139453,9.97849336 L5.50878906,9.97849336 C5.47472266,9.97849336 5.44073047,9.97997773 5.40673828,9.9818332 L5.40673828,7.24167695 C5.40673828,5.0062082 7.22546875,3.18747773 9.4609375,3.18747773 L14.7304688,3.18747773 C15.4287187,3.18747773 16.015418,3.69068086 16.1254844,4.3839582 C16.1521289,4.55169258 16.2538828,4.69812617 16.4018008,4.78154805 C17.0590078,5.15219648 17.4672109,5.84250508 17.4672109,6.58298555 L17.4672109,10.7178605 C17.4672109,10.9160246 17.5726016,11.0992707 17.7438984,11.1989465 C17.9831055,11.3381809 18.1259023,11.582509 18.1259023,11.8525168 C18.1259023,12.2720012 17.7846445,12.613259 17.3651602,12.613259 C17.0577461,12.613259 16.8085195,12.8624855 16.8085195,13.1698996 C16.8085195,16.1318215 14.3988594,18.5414816 11.4369375,18.5414816 C8.47501562,18.5414816 6.06542969,16.1317473 6.06542969,13.1698996 M19.2826016,21.1999973 L15.2871836,20.0013645 L15.2871836,18.3830246 C16.7637656,17.289634 17.76275,15.5861652 17.904582,13.6474973 C18.6758633,13.415341 19.239332,12.6985363 19.239332,11.8525168 C19.239332,11.3049309 18.9932227,10.7859191 18.5806406,10.4330832 L18.5806406,6.58298555 C18.5806406,5.52744648 18.046043,4.54011445 17.1698906,3.94844258 C16.8769492,2.84792695 15.8898398,2.07419648 14.7304688,2.07419648 L9.4609375,2.07419648 C6.61153125,2.07419648 4.29345703,4.3922707 4.29345703,7.24167695 L4.29345703,10.4330832 C3.880875,10.7859191 3.63476562,11.3048566 3.63476562,11.8525168 C3.63476562,12.6985363 4.19823438,13.415341 4.96951562,13.6474973 C5.11134766,15.5861652 6.11025781,17.289634 7.58691406,18.3830246 L7.58691406,20.0013645 L2.80492578,21.4359387 C1.72533984,21.7598293 1,22.7346926 1,23.861927 L1,30.2958762 C1,30.6033645 1.24922656,30.8525168 1.55664062,30.8525168 L1.65869141,30.8525168 L1.65869141,37.5414816 C1.65869141,37.8489699 1.90791797,38.0981223 2.21533203,38.0981223 C2.52274609,38.0981223 2.77197266,37.8489699 2.77197266,37.5414816 L2.77197266,30.8525168 L4.95214844,30.8525168 L4.95214844,37.5414816 C4.95214844,37.8489699 5.201375,38.0981223 5.50878906,38.0981223 C5.81620312,38.0981223 6.06542969,37.8489699 6.06542969,37.5414816 L6.06542969,27.0024191 C6.06542969,26.9159543 6.04531641,26.8308254 6.00664844,26.7535637 L4.68926563,24.118798 C4.5518125,23.8437434 4.21753125,23.732341 3.94247656,23.8697941 C3.66749609,24.0073215 3.55601953,24.3416027 3.69354687,24.6166574 L4.95214844,27.1339348 L4.95214844,29.7392355 L2.21533203,29.7392355 L2.11328125,29.7392355 L2.11328125,23.861927 C2.11328125,23.230177 2.51985156,22.6838527 3.12488281,22.5022395 L5.12381641,21.902552 C5.80336328,24.7900324 8.41853516,26.9002941 11.4370859,26.9002941 C12.9890742,26.9002941 14.4908164,26.3434309 15.665625,25.3322004 C16.7089922,24.4342277 17.4368555,23.2291379 17.7490195,21.9021066 L18.9626445,22.2663723 C19.0160078,22.2823293 19.0698164,22.2898996 19.1228086,22.2898996 C19.3622383,22.2898996 19.5834102,22.1341887 19.6557734,21.893052 C19.7440937,21.5986262 19.5770273,21.2883176 19.2826016,21.1999973 M13.1050855,14.7138203 C13.3438473,14.907457 13.3803629,15.257918 13.1867262,15.4967539 C12.7409684,16.0461953 12.1032809,16.3614023 11.4370191,16.3614023 C10.7707574,16.3614023 10.1330699,16.0461953 9.68746055,15.4967539 C9.49382383,15.2579922 9.53033945,14.907457 9.76910117,14.7138203 C10.0078629,14.5201836 10.3584723,14.5566992 10.5520348,14.7954609 C10.7887926,15.0874375 11.103109,15.2481953 11.4370934,15.2481953 C11.7710777,15.2481953 12.0853941,15.0874375 12.322152,14.7954609 C12.5157887,14.5566992 12.8663238,14.5201094 13.1050855,14.7138203 Z M8.80224609,11.2958836 C9.10966016,11.2958836 9.35888672,11.5451844 9.35888672,11.8525242 L9.35888672,12.5112156 C9.35888672,12.8186297 9.10966016,13.0678562 8.80224609,13.0678562 C8.49483203,13.0678562 8.24560547,12.8186297 8.24560547,12.5112156 L8.24560547,11.8525242 C8.24560547,11.5451102 8.49483203,11.2958836 8.80224609,11.2958836 Z M14.0717773,11.2958836 C14.3791914,11.2958836 14.628418,11.5451844 14.628418,11.8525242 L14.628418,12.5112156 C14.628418,12.8186297 14.3791914,13.0678562 14.0717773,13.0678562 C13.7643633,13.0678562 13.5151367,12.8186297 13.5151367,12.5112156 L13.5151367,11.8525242 C13.5151367,11.5451102 13.7643633,11.2958836 14.0717773,11.2958836 Z M30.8897164,18.0071363 C31.1285523,18.200773 31.1649937,18.5513824 30.9714312,18.7900699 C30.5256734,19.3395855 29.8880602,19.6547184 29.2217984,19.6547184 C28.5556109,19.6547184 27.917775,19.3395855 27.4720914,18.7900699 C27.2785289,18.5513082 27.3149703,18.200773 27.5538062,18.0071363 C27.792568,17.8134996 28.1431031,17.8500152 28.3367398,18.088777 C28.5734234,18.3807535 28.8877398,18.5415113 29.2217242,18.5415113 C29.5557086,18.5415113 29.8700992,18.3807535 30.1067828,18.088777 C30.3004937,17.8500152 30.6509547,17.8134254 30.8897164,18.0071363 Z M26.5869141,14.5893406 C26.8943281,14.5893406 27.1435547,14.838493 27.1435547,15.1459812 L27.1435547,15.8046727 C27.1435547,16.1120867 26.8943281,16.3613133 26.5869141,16.3613133 C26.2795,16.3613133 26.0302734,16.1120867 26.0302734,15.8046727 L26.0302734,15.1459812 C26.0302734,14.8385672 26.2795,14.5893406 26.5869141,14.5893406 Z M31.8564453,14.5893406 C32.1638594,14.5893406 32.4130859,14.8386414 32.4130859,15.1459812 L32.4130859,15.8046727 C32.4130859,16.1120867 32.1638594,16.3613133 31.8564453,16.3613133 C31.5490312,16.3613133 31.2998047,16.1120867 31.2998047,15.8046727 L31.2998047,15.1459812 C31.2998047,14.8385672 31.5490312,14.5893406 31.8564453,14.5893406 Z M29.2216797,29.0806258 C27.1301953,29.0806258 25.298625,27.7075047 24.7057656,25.7197039 L25.9654805,25.215907 C26.6810977,24.9295711 27.1435547,24.2466102 27.1435547,23.4758484 L27.1435547,22.6041492 C27.8092969,22.8293289 28.5115547,22.9483758 29.2216797,22.9483758 C29.9318047,22.9483758 30.6340625,22.8293289 31.2998047,22.6041492 L31.2998047,23.4758484 C31.2998047,24.2466102 31.7621875,24.9295711 32.4778047,25.215907 L33.7375937,25.7197781 C33.1447344,27.7073563 31.3132383,29.0806258 29.2216797,29.0806258 M21.9218203,22.0185633 C22.0203086,21.1547313 22.2371016,19.1231414 22.3840547,16.7827273 C22.5006523,16.847743 22.6241523,16.9017742 22.7542578,16.9409617 C22.7780078,17.2659656 22.8258789,17.5882977 22.8975742,17.9040984 C23.2176797,19.3147 24.0168672,20.5949734 25.1478125,21.5091258 C25.4256875,21.7337859 25.7212266,21.9332859 26.0302734,22.1077 L26.0302734,23.0660125 C23.8877266,22.6408133 22.5381328,22.2279344 21.9218203,22.0185633 M29.2216797,21.8350203 C27.9788125,21.8350203 26.8120937,21.4228836 25.8476211,20.6432898 C24.9103125,19.8856648 24.248207,18.8253758 23.9831719,17.6576922 C23.8948516,17.2684148 23.8500977,16.8665203 23.8500977,16.4633641 C23.8500977,16.15595 23.6008711,15.9067234 23.293457,15.9067234 C22.8739727,15.9067234 22.5327148,15.5654656 22.5327148,15.1459812 C22.5327148,14.7264969 22.8739727,14.3852391 23.293457,14.3852391 C24.9814141,14.3852391 26.2057266,12.8567781 26.7585078,12.0016297 C28.0567422,12.837407 29.5414883,13.1322039 30.8701523,13.3960516 C33.316625,13.8817391 34.5932617,14.2387313 34.5932617,16.4634383 C34.5932617,16.8666687 34.5484336,17.2684891 34.4601875,17.6577664 C34.1952266,18.82545 33.5330469,19.8857391 32.5957383,20.6433641 C31.6312656,21.4229578 30.4645469,21.8350203 29.2216797,21.8350203 M22.5326406,12.5112156 C22.5327148,8.82284062 25.5333789,5.82225078 29.2216797,5.82225078 C32.9099805,5.82225078 35.9106445,8.82291484 35.9106445,12.5112156 C35.9106445,16.3327391 36.3651602,20.6472977 36.5215391,22.0185633 C35.9048555,22.2280086 34.5552617,22.6408875 32.4130859,23.0660125 L32.4130859,22.1077 C32.7221328,21.9332859 33.0177461,21.7337859 33.2955469,21.5091258 C34.4265664,20.5949734 35.2256797,19.3147 35.5457852,17.9040984 C35.6524375,17.4340711 35.706543,16.9493484 35.706543,16.4634383 C35.706543,13.221118 33.3580391,12.7548758 31.0869453,12.3039969 C29.6344844,12.015657 28.1325938,11.7174461 26.9346289,10.7591336 C26.8036328,10.6542625 26.6320391,10.6144812 26.4680898,10.6503289 C26.3041406,10.6861023 26.1649063,10.7942391 26.0893516,10.9441609 C26.0862344,10.9503211 25.7743672,11.5642586 25.2468945,12.1620906 C24.8001719,12.6684109 24.098582,13.2719578 23.2933828,13.2719578 C23.0193672,13.2719578 22.759082,13.3315555 22.5242539,13.4377625 C22.5296719,13.1270086 22.5326406,12.8175164 22.5326406,12.5112156 M37.4079336,25.9887469 L32.8912773,24.1820398 C32.8529063,24.1666766 32.8163906,24.1483445 32.7818047,24.1277117 C35.8409531,23.5116219 37.2735977,22.9326414 37.3369805,22.9066648 C37.569582,22.811368 37.7094844,22.5720125 37.6783125,22.3224891 C37.6717812,22.2700906 37.0239258,17.0349969 37.0239258,12.5111414 C37.0239258,8.20897734 33.5238437,4.70889531 29.2216797,4.70889531 C24.9195156,4.70889531 21.4194336,8.20905156 21.4194336,12.5112898 C21.4194336,17.032993 20.7715781,22.2702391 20.7650469,22.3226375 C20.733875,22.5721609 20.8737031,22.8114422 21.1063789,22.9068133 C21.1697617,22.9327898 22.6024062,23.5116961 25.6615547,24.1278602 C25.6269688,24.148493 25.5904531,24.166825 25.552082,24.1821883 L21.0355,25.9888211 C20.0683555,26.3757234 19.4434336,27.2987078 19.4434336,28.340368 L19.4434336,29.7393172 L17.921875,29.7393172 L17.921875,27.1339422 L19.1804766,24.6166648 C19.3180039,24.3416844 19.2065273,24.0074031 18.9315469,23.8698758 C18.6565664,23.7323484 18.3222109,23.843825 18.1847578,24.1188055 L16.867375,26.7535711 C16.828707,26.830907 16.8085938,26.9160359 16.8085938,27.0025008 L16.8085938,37.5415633 C16.8085938,37.8490516 17.0578203,38.0982039 17.3652344,38.0982039 C17.6726484,38.0982039 17.921875,37.8490516 17.921875,37.5415633 L17.921875,30.8525984 L19.4433594,30.8525984 L19.4433594,31.6136375 C19.4433594,31.7613328 19.5020664,31.9029422 19.6064922,32.0074422 C19.7108437,32.1117195 19.8523789,32.1702781 20,32.1702781 L20.0002969,32.1702781 L20.1020508,32.1702781 L20.1020508,37.5415633 C20.1020508,37.8490516 20.3512773,38.0982039 20.6586914,38.0982039 C20.9661055,38.0982039 21.215332,37.8490516 21.215332,37.5415633 L21.215332,32.1699812 L22.7368164,32.1699812 L22.7368164,37.5415633 C22.7368164,37.8490516 22.986043,38.0982039 23.293457,38.0982039 C23.6008711,38.0982039 23.8500977,37.8490516 23.8500977,37.5415633 L23.8500977,30.2959578 C23.8500977,29.9885438 23.6008711,29.7393172 23.293457,29.7393172 C22.986043,29.7393172 22.7368164,29.9885438 22.7368164,30.2959578 L22.7368164,31.0567 L20.5566406,31.0567 L20.5566406,28.3402938 C20.5566406,27.7564891 20.9068789,27.2391844 21.4488984,27.0224656 L23.6693008,26.1342156 C24.4321953,28.5399422 26.6701875,30.1938328 29.2216797,30.1938328 C31.7731719,30.1938328 34.0111641,28.539868 34.7740586,26.1342156 L36.9944609,27.0224656 C37.5364805,27.2391844 37.8867188,27.7565633 37.8867188,28.3402938 L37.8867188,31.0567 L35.706543,31.0567 L35.706543,30.2959578 C35.706543,29.9885438 35.4573164,29.7393172 35.1499023,29.7393172 C34.8424883,29.7393172 34.5932617,29.9885438 34.5932617,30.2959578 L34.5932617,37.5415633 C34.5932617,37.8490516 34.8424883,38.0982039 35.1499023,38.0982039 C35.4573164,38.0982039 35.706543,37.8490516 35.706543,37.5415633 L35.706543,32.1699812 L37.2280273,32.1699812 L37.2280273,37.5415633 C37.2280273,37.8490516 37.4772539,38.0982039 37.784668,38.0982039 C38.092082,38.0982039 38.3413086,37.8490516 38.3413086,37.5415633 L38.3413086,32.1699812 L38.4433594,32.1699812 C38.7507734,32.1699812 39,31.9208289 39,31.6133406 L39,28.3402938 C39,27.2986336 38.3750781,26.3757234 37.4079336,25.9887469"></path>
            </mask>
            <path d="M14.9392461,24.4884816 C13.9663867,25.3258918 12.7225547,25.7870871 11.4370117,25.7870871 C8.91357422,25.7870871 6.73146875,24.0068762 6.19353125,21.5817043 L7.65675391,21.1427746 C7.99778906,22.919052 9.56276562,24.2656027 11.4370117,24.2656027 C13.311332,24.2656027 14.8762344,22.919052 15.2172695,21.1427004 L16.680418,21.5817043 C16.4309687,22.7062668 15.8211875,23.7294465 14.9392461,24.4884816 M14.1738281,19.0475051 L14.1738281,20.4155051 C14.1738281,21.9245949 12.9461016,23.1523215 11.4370117,23.1523215 C9.93029687,23.1523215 8.70427734,21.9285285 8.70034375,20.4227043 C8.70034375,20.4200324 8.70019531,20.4172863 8.70019531,20.4146887 L8.70019531,19.0475051 C9.53226172,19.4364855 10.4594766,19.6548371 11.4370117,19.6548371 C12.4145469,19.6548371 13.3417617,19.4365598 14.1738281,19.0475051 M6.06542969,13.1698996 C6.06542969,12.8624855 5.81620313,12.613259 5.50878906,12.613259 C5.08930469,12.613259 4.74804688,12.2720012 4.74804688,11.8525168 C4.74804688,11.582509 4.89084375,11.3381809 5.13005078,11.1989465 C5.14237109,11.1917473 5.15357813,11.1832863 5.16523047,11.1752707 C5.27114063,11.1214621 5.38862891,11.0917746 5.50878906,11.0917746 L6.35139453,11.0917746 C6.87537891,11.0917746 7.33872656,10.7577902 7.50438281,10.2607473 L7.88787109,9.11035664 C9.19649609,9.08148555 13.3206836,8.89831367 15.6380898,7.73953633 C15.9130703,7.60215742 16.0245469,7.26772773 15.8870195,6.99274727 C15.7495664,6.7177668 15.4152852,6.60636445 15.1402305,6.74381758 C12.6545703,7.98661055 7.53622266,8.00241914 7.48478906,8.00241914 C7.24521094,8.00256758 7.0325,8.15575508 6.95679688,8.38301289 L6.44825,9.90872773 C6.43429688,9.95043867 6.39548047,9.97849336 6.35139453,9.97849336 L5.50878906,9.97849336 C5.47472266,9.97849336 5.44073047,9.97997773 5.40673828,9.9818332 L5.40673828,7.24167695 C5.40673828,5.0062082 7.22546875,3.18747773 9.4609375,3.18747773 L14.7304688,3.18747773 C15.4287187,3.18747773 16.015418,3.69068086 16.1254844,4.3839582 C16.1521289,4.55169258 16.2538828,4.69812617 16.4018008,4.78154805 C17.0590078,5.15219648 17.4672109,5.84250508 17.4672109,6.58298555 L17.4672109,10.7178605 C17.4672109,10.9160246 17.5726016,11.0992707 17.7438984,11.1989465 C17.9831055,11.3381809 18.1259023,11.582509 18.1259023,11.8525168 C18.1259023,12.2720012 17.7846445,12.613259 17.3651602,12.613259 C17.0577461,12.613259 16.8085195,12.8624855 16.8085195,13.1698996 C16.8085195,16.1318215 14.3988594,18.5414816 11.4369375,18.5414816 C8.47501562,18.5414816 6.06542969,16.1317473 6.06542969,13.1698996 M19.2826016,21.1999973 L15.2871836,20.0013645 L15.2871836,18.3830246 C16.7637656,17.289634 17.76275,15.5861652 17.904582,13.6474973 C18.6758633,13.415341 19.239332,12.6985363 19.239332,11.8525168 C19.239332,11.3049309 18.9932227,10.7859191 18.5806406,10.4330832 L18.5806406,6.58298555 C18.5806406,5.52744648 18.046043,4.54011445 17.1698906,3.94844258 C16.8769492,2.84792695 15.8898398,2.07419648 14.7304688,2.07419648 L9.4609375,2.07419648 C6.61153125,2.07419648 4.29345703,4.3922707 4.29345703,7.24167695 L4.29345703,10.4330832 C3.880875,10.7859191 3.63476562,11.3048566 3.63476562,11.8525168 C3.63476562,12.6985363 4.19823438,13.415341 4.96951562,13.6474973 C5.11134766,15.5861652 6.11025781,17.289634 7.58691406,18.3830246 L7.58691406,20.0013645 L2.80492578,21.4359387 C1.72533984,21.7598293 1,22.7346926 1,23.861927 L1,30.2958762 C1,30.6033645 1.24922656,30.8525168 1.55664062,30.8525168 L1.65869141,30.8525168 L1.65869141,37.5414816 C1.65869141,37.8489699 1.90791797,38.0981223 2.21533203,38.0981223 C2.52274609,38.0981223 2.77197266,37.8489699 2.77197266,37.5414816 L2.77197266,30.8525168 L4.95214844,30.8525168 L4.95214844,37.5414816 C4.95214844,37.8489699 5.201375,38.0981223 5.50878906,38.0981223 C5.81620312,38.0981223 6.06542969,37.8489699 6.06542969,37.5414816 L6.06542969,27.0024191 C6.06542969,26.9159543 6.04531641,26.8308254 6.00664844,26.7535637 L4.68926563,24.118798 C4.5518125,23.8437434 4.21753125,23.732341 3.94247656,23.8697941 C3.66749609,24.0073215 3.55601953,24.3416027 3.69354687,24.6166574 L4.95214844,27.1339348 L4.95214844,29.7392355 L2.21533203,29.7392355 L2.11328125,29.7392355 L2.11328125,23.861927 C2.11328125,23.230177 2.51985156,22.6838527 3.12488281,22.5022395 L5.12381641,21.902552 C5.80336328,24.7900324 8.41853516,26.9002941 11.4370859,26.9002941 C12.9890742,26.9002941 14.4908164,26.3434309 15.665625,25.3322004 C16.7089922,24.4342277 17.4368555,23.2291379 17.7490195,21.9021066 L18.9626445,22.2663723 C19.0160078,22.2823293 19.0698164,22.2898996 19.1228086,22.2898996 C19.3622383,22.2898996 19.5834102,22.1341887 19.6557734,21.893052 C19.7440937,21.5986262 19.5770273,21.2883176 19.2826016,21.1999973 M13.1050855,14.7138203 C13.3438473,14.907457 13.3803629,15.257918 13.1867262,15.4967539 C12.7409684,16.0461953 12.1032809,16.3614023 11.4370191,16.3614023 C10.7707574,16.3614023 10.1330699,16.0461953 9.68746055,15.4967539 C9.49382383,15.2579922 9.53033945,14.907457 9.76910117,14.7138203 C10.0078629,14.5201836 10.3584723,14.5566992 10.5520348,14.7954609 C10.7887926,15.0874375 11.103109,15.2481953 11.4370934,15.2481953 C11.7710777,15.2481953 12.0853941,15.0874375 12.322152,14.7954609 C12.5157887,14.5566992 12.8663238,14.5201094 13.1050855,14.7138203 Z M8.80224609,11.2958836 C9.10966016,11.2958836 9.35888672,11.5451844 9.35888672,11.8525242 L9.35888672,12.5112156 C9.35888672,12.8186297 9.10966016,13.0678562 8.80224609,13.0678562 C8.49483203,13.0678562 8.24560547,12.8186297 8.24560547,12.5112156 L8.24560547,11.8525242 C8.24560547,11.5451102 8.49483203,11.2958836 8.80224609,11.2958836 Z M14.0717773,11.2958836 C14.3791914,11.2958836 14.628418,11.5451844 14.628418,11.8525242 L14.628418,12.5112156 C14.628418,12.8186297 14.3791914,13.0678562 14.0717773,13.0678562 C13.7643633,13.0678562 13.5151367,12.8186297 13.5151367,12.5112156 L13.5151367,11.8525242 C13.5151367,11.5451102 13.7643633,11.2958836 14.0717773,11.2958836 Z M30.8897164,18.0071363 C31.1285523,18.200773 31.1649937,18.5513824 30.9714312,18.7900699 C30.5256734,19.3395855 29.8880602,19.6547184 29.2217984,19.6547184 C28.5556109,19.6547184 27.917775,19.3395855 27.4720914,18.7900699 C27.2785289,18.5513082 27.3149703,18.200773 27.5538062,18.0071363 C27.792568,17.8134996 28.1431031,17.8500152 28.3367398,18.088777 C28.5734234,18.3807535 28.8877398,18.5415113 29.2217242,18.5415113 C29.5557086,18.5415113 29.8700992,18.3807535 30.1067828,18.088777 C30.3004937,17.8500152 30.6509547,17.8134254 30.8897164,18.0071363 Z M26.5869141,14.5893406 C26.8943281,14.5893406 27.1435547,14.838493 27.1435547,15.1459812 L27.1435547,15.8046727 C27.1435547,16.1120867 26.8943281,16.3613133 26.5869141,16.3613133 C26.2795,16.3613133 26.0302734,16.1120867 26.0302734,15.8046727 L26.0302734,15.1459812 C26.0302734,14.8385672 26.2795,14.5893406 26.5869141,14.5893406 Z M31.8564453,14.5893406 C32.1638594,14.5893406 32.4130859,14.8386414 32.4130859,15.1459812 L32.4130859,15.8046727 C32.4130859,16.1120867 32.1638594,16.3613133 31.8564453,16.3613133 C31.5490312,16.3613133 31.2998047,16.1120867 31.2998047,15.8046727 L31.2998047,15.1459812 C31.2998047,14.8385672 31.5490312,14.5893406 31.8564453,14.5893406 Z M29.2216797,29.0806258 C27.1301953,29.0806258 25.298625,27.7075047 24.7057656,25.7197039 L25.9654805,25.215907 C26.6810977,24.9295711 27.1435547,24.2466102 27.1435547,23.4758484 L27.1435547,22.6041492 C27.8092969,22.8293289 28.5115547,22.9483758 29.2216797,22.9483758 C29.9318047,22.9483758 30.6340625,22.8293289 31.2998047,22.6041492 L31.2998047,23.4758484 C31.2998047,24.2466102 31.7621875,24.9295711 32.4778047,25.215907 L33.7375937,25.7197781 C33.1447344,27.7073563 31.3132383,29.0806258 29.2216797,29.0806258 M21.9218203,22.0185633 C22.0203086,21.1547313 22.2371016,19.1231414 22.3840547,16.7827273 C22.5006523,16.847743 22.6241523,16.9017742 22.7542578,16.9409617 C22.7780078,17.2659656 22.8258789,17.5882977 22.8975742,17.9040984 C23.2176797,19.3147 24.0168672,20.5949734 25.1478125,21.5091258 C25.4256875,21.7337859 25.7212266,21.9332859 26.0302734,22.1077 L26.0302734,23.0660125 C23.8877266,22.6408133 22.5381328,22.2279344 21.9218203,22.0185633 M29.2216797,21.8350203 C27.9788125,21.8350203 26.8120937,21.4228836 25.8476211,20.6432898 C24.9103125,19.8856648 24.248207,18.8253758 23.9831719,17.6576922 C23.8948516,17.2684148 23.8500977,16.8665203 23.8500977,16.4633641 C23.8500977,16.15595 23.6008711,15.9067234 23.293457,15.9067234 C22.8739727,15.9067234 22.5327148,15.5654656 22.5327148,15.1459812 C22.5327148,14.7264969 22.8739727,14.3852391 23.293457,14.3852391 C24.9814141,14.3852391 26.2057266,12.8567781 26.7585078,12.0016297 C28.0567422,12.837407 29.5414883,13.1322039 30.8701523,13.3960516 C33.316625,13.8817391 34.5932617,14.2387313 34.5932617,16.4634383 C34.5932617,16.8666687 34.5484336,17.2684891 34.4601875,17.6577664 C34.1952266,18.82545 33.5330469,19.8857391 32.5957383,20.6433641 C31.6312656,21.4229578 30.4645469,21.8350203 29.2216797,21.8350203 M22.5326406,12.5112156 C22.5327148,8.82284062 25.5333789,5.82225078 29.2216797,5.82225078 C32.9099805,5.82225078 35.9106445,8.82291484 35.9106445,12.5112156 C35.9106445,16.3327391 36.3651602,20.6472977 36.5215391,22.0185633 C35.9048555,22.2280086 34.5552617,22.6408875 32.4130859,23.0660125 L32.4130859,22.1077 C32.7221328,21.9332859 33.0177461,21.7337859 33.2955469,21.5091258 C34.4265664,20.5949734 35.2256797,19.3147 35.5457852,17.9040984 C35.6524375,17.4340711 35.706543,16.9493484 35.706543,16.4634383 C35.706543,13.221118 33.3580391,12.7548758 31.0869453,12.3039969 C29.6344844,12.015657 28.1325938,11.7174461 26.9346289,10.7591336 C26.8036328,10.6542625 26.6320391,10.6144812 26.4680898,10.6503289 C26.3041406,10.6861023 26.1649063,10.7942391 26.0893516,10.9441609 C26.0862344,10.9503211 25.7743672,11.5642586 25.2468945,12.1620906 C24.8001719,12.6684109 24.098582,13.2719578 23.2933828,13.2719578 C23.0193672,13.2719578 22.759082,13.3315555 22.5242539,13.4377625 C22.5296719,13.1270086 22.5326406,12.8175164 22.5326406,12.5112156 M37.4079336,25.9887469 L32.8912773,24.1820398 C32.8529063,24.1666766 32.8163906,24.1483445 32.7818047,24.1277117 C35.8409531,23.5116219 37.2735977,22.9326414 37.3369805,22.9066648 C37.569582,22.811368 37.7094844,22.5720125 37.6783125,22.3224891 C37.6717812,22.2700906 37.0239258,17.0349969 37.0239258,12.5111414 C37.0239258,8.20897734 33.5238437,4.70889531 29.2216797,4.70889531 C24.9195156,4.70889531 21.4194336,8.20905156 21.4194336,12.5112898 C21.4194336,17.032993 20.7715781,22.2702391 20.7650469,22.3226375 C20.733875,22.5721609 20.8737031,22.8114422 21.1063789,22.9068133 C21.1697617,22.9327898 22.6024062,23.5116961 25.6615547,24.1278602 C25.6269688,24.148493 25.5904531,24.166825 25.552082,24.1821883 L21.0355,25.9888211 C20.0683555,26.3757234 19.4434336,27.2987078 19.4434336,28.340368 L19.4434336,29.7393172 L17.921875,29.7393172 L17.921875,27.1339422 L19.1804766,24.6166648 C19.3180039,24.3416844 19.2065273,24.0074031 18.9315469,23.8698758 C18.6565664,23.7323484 18.3222109,23.843825 18.1847578,24.1188055 L16.867375,26.7535711 C16.828707,26.830907 16.8085938,26.9160359 16.8085938,27.0025008 L16.8085938,37.5415633 C16.8085938,37.8490516 17.0578203,38.0982039 17.3652344,38.0982039 C17.6726484,38.0982039 17.921875,37.8490516 17.921875,37.5415633 L17.921875,30.8525984 L19.4433594,30.8525984 L19.4433594,31.6136375 C19.4433594,31.7613328 19.5020664,31.9029422 19.6064922,32.0074422 C19.7108437,32.1117195 19.8523789,32.1702781 20,32.1702781 L20.0002969,32.1702781 L20.1020508,32.1702781 L20.1020508,37.5415633 C20.1020508,37.8490516 20.3512773,38.0982039 20.6586914,38.0982039 C20.9661055,38.0982039 21.215332,37.8490516 21.215332,37.5415633 L21.215332,32.1699812 L22.7368164,32.1699812 L22.7368164,37.5415633 C22.7368164,37.8490516 22.986043,38.0982039 23.293457,38.0982039 C23.6008711,38.0982039 23.8500977,37.8490516 23.8500977,37.5415633 L23.8500977,30.2959578 C23.8500977,29.9885438 23.6008711,29.7393172 23.293457,29.7393172 C22.986043,29.7393172 22.7368164,29.9885438 22.7368164,30.2959578 L22.7368164,31.0567 L20.5566406,31.0567 L20.5566406,28.3402938 C20.5566406,27.7564891 20.9068789,27.2391844 21.4488984,27.0224656 L23.6693008,26.1342156 C24.4321953,28.5399422 26.6701875,30.1938328 29.2216797,30.1938328 C31.7731719,30.1938328 34.0111641,28.539868 34.7740586,26.1342156 L36.9944609,27.0224656 C37.5364805,27.2391844 37.8867188,27.7565633 37.8867188,28.3402938 L37.8867188,31.0567 L35.706543,31.0567 L35.706543,30.2959578 C35.706543,29.9885438 35.4573164,29.7393172 35.1499023,29.7393172 C34.8424883,29.7393172 34.5932617,29.9885438 34.5932617,30.2959578 L34.5932617,37.5415633 C34.5932617,37.8490516 34.8424883,38.0982039 35.1499023,38.0982039 C35.4573164,38.0982039 35.706543,37.8490516 35.706543,37.5415633 L35.706543,32.1699812 L37.2280273,32.1699812 L37.2280273,37.5415633 C37.2280273,37.8490516 37.4772539,38.0982039 37.784668,38.0982039 C38.092082,38.0982039 38.3413086,37.8490516 38.3413086,37.5415633 L38.3413086,32.1699812 L38.4433594,32.1699812 C38.7507734,32.1699812 39,31.9208289 39,31.6133406 L39,28.3402938 C39,27.2986336 38.3750781,26.3757234 37.4079336,25.9887469" fill="#000000"></path>
        </g>
    </g>
</svg>
