<svg width="40" height="33" viewBox="0 0 40 33" xmlns="http://www.w3.org/2000/svg">
    <title>
        filter-category-14
    </title>
    <path d="M35.975 1.732a.632.632 0 1 0-.694 1.057c1.719 1.129 2.828 2.742 3.22 4.64a8.972 8.972 0 0 0-.983-.649c-1.87-1.06-3.834-1.226-5.679-.48-2.59 1.048-3.87.473-4.609-.051a4.743 4.743 0 0 1-.612-.524.632.632 0 1 0-.894.894c.113.112.224.215.336.313-.665.926-2.223 1.335-3.142 1.466-.349-.684-1.021-2.271-.478-3.493 1.189-2.675 4.857-3.624 7.636-3.624 1.32 0 2.641.266 3.822.77a.632.632 0 1 0 .496-1.164c-1.337-.57-2.83-.87-4.318-.87-5.048 0-7.851 2.26-8.791 4.375-.844 1.898.261 4.152.635 4.822l-.051.53a2.301 2.301 0 0 0-2.004 2.278c0 1.016.655 1.879 1.574 2.182a6.061 6.061 0 0 0 2.465 5.42l.133.097a5.514 5.514 0 0 0-3.194 4.995v7.54c0 .349.283.632.632.632H37.76c.349 0 .632-.283.632-.632v-7.54a5.479 5.479 0 0 0-.91-3.03.632.632 0 1 0-1.054.696c.458.693.7 1.5.7 2.335v3.407h-1.891v-2.368a.632.632 0 1 0-1.264 0v5.868h-8.71v-5.868a.632.632 0 1 0-1.265 0v2.368h-1.89v-3.407c0-1.66.967-3.134 2.408-3.824.094.566.281 1.115.556 1.62a.632.632 0 1 0 1.11-.605 3.874 3.874 0 0 1-.347-.88l1 .726a4.722 4.722 0 0 0 5.565 0l1.002-.728a3.916 3.916 0 0 1-3.784 2.926 3.866 3.866 0 0 1-2.436-.852.632.632 0 1 0-.788.988 5.188 5.188 0 0 0 3.224 1.128 5.18 5.18 0 0 0 5.102-4.324c.187.09.367.193.54.31a.63.63 0 0 0 .879-.169.632.632 0 0 0-.17-.877 5.5 5.5 0 0 0-.77-.435l.133-.097a6.061 6.061 0 0 0 2.465-5.42 2.294 2.294 0 0 0 1.573-2.182 2.301 2.301 0 0 0-2.003-2.278l-.071-.733a.632.632 0 0 0-1.258.121l.497 5.148a4.793 4.793 0 0 1-1.946 4.321l-2.932 2.13a3.459 3.459 0 0 1-4.078 0l-2.932-2.13a4.793 4.793 0 0 1-1.946-4.32l.448-4.642c.968-.146 2.982-.608 3.956-1.993 1.423.723 3.135.665 5.208-.174 1.485-.6 3.015-.47 4.547.389a7.805 7.805 0 0 1 1.946 1.55.632.632 0 0 0 1.116-.406c0-3.018-1.402-5.6-3.947-7.273zM21.567 12.868a1.033 1.033 0 0 1 .173-1.788l-.173 1.788zm13.67 16.52h1.891v2.236h-1.891v-2.236zm-11.238 0v2.236h-1.892v-2.236H24zm14.106-17.366c0 .35-.172.658-.437.846l-.172-1.788c.358.163.61.523.61.942zm-18.25 1.325c0-.846-.479-1.582-1.18-1.952l.82-1.125a1.779 1.779 0 0 0 .191-1.787 1.779 1.779 0 0 0-1.452-1.059.632.632 0 0 0-.134 1.257c.276.03.393.23.43.314a.524.524 0 0 1-.056.53l-1.369 1.878a.524.524 0 0 1-.487.216.524.524 0 0 1-.431-.314l-.966-2.178a2.07 2.07 0 0 0 .51-.699l.644.069a.632.632 0 0 0 .134-1.257l-.643-.068a2.064 2.064 0 0 0-2.234-1.629l-.965-2.177a1.779 1.779 0 0 0-1.453-1.058 1.778 1.778 0 0 0-1.643.728L8.202 4.914a1.779 1.779 0 0 0-.19 1.787c.263.594.806.99 1.452 1.059l2.368.252c.034.164.087.32.158.467-1.605 1.574-4.325 3.114-8.475 2.185a6.732 6.732 0 0 1 3.797-4.181.632.632 0 1 0-.492-1.164 7.997 7.997 0 0 0-4.728 5.824A2.21 2.21 0 0 0 0 13.347c0 1.006.668 1.856 1.594 2.121a6.375 6.375 0 0 0 2.61 5.528l.5.363a5.247 5.247 0 0 0-3.105 4.783v1.37a.632.632 0 0 0 1.265 0v-1.37c0-1.54.888-2.91 2.215-3.564a4.931 4.931 0 0 0 4.85 4.07 4.918 4.918 0 0 0 4.536-3.007.632.632 0 0 0-1.164-.493 3.656 3.656 0 0 1-3.373 2.236 3.665 3.665 0 0 1-3.56-2.816l.716.52a4.831 4.831 0 0 0 5.688 0l1.128-.82a3.976 3.976 0 0 1 3.093 3.874v5.482h-1.719v-4.5a.632.632 0 0 0-1.264 0v4.5H5.846v-4.5a.632.632 0 0 0-1.264 0v4.5H2.863v-1.8a.632.632 0 0 0-1.264 0v2.432c0 .349.283.632.632.632h15.393a.632.632 0 0 0 .632-.632v-6.114a5.247 5.247 0 0 0-3.104-4.783l.5-.363a6.375 6.375 0 0 0 2.61-5.528 2.203 2.203 0 0 0 1.593-2.12zm-18.125.815a.944.944 0 0 1 .19-1.712l-.19 1.712zm12.119-7.366a.797.797 0 0 1 0 1.592.797.797 0 0 1 0-1.592zm-1.882-.04l-2.369-.253a.524.524 0 0 1-.43-.314.524.524 0 0 1 .056-.53l1.369-1.878a.524.524 0 0 1 .487-.217c.092.01.318.06.431.314l.966 2.178a2.07 2.07 0 0 0-.51.7zm2.942 13.217l-2.88 2.093a3.566 3.566 0 0 1-4.202 0l-2.88-2.093a5.108 5.108 0 0 1-2.07-4.684l.37-3.352.005-.036c.973.217 1.878.316 2.717.316 2.383 0 4.236-.778 5.627-1.764a6.787 6.787 0 0 0 1.843 1.565.634.634 0 0 0 .9-.293.634.634 0 0 0-.269-.802 5.558 5.558 0 0 1-1.489-1.264c.096-.087.188-.174.277-.261a2.048 2.048 0 0 0 1.208.243l.966 2.177a1.779 1.779 0 0 0 1.649 1.069l.033-.001.265 2.403a5.109 5.109 0 0 1-2.07 4.684zm3.217-5.812l-.189-1.711a.945.945 0 0 1 .19 1.711zm8.312-1.549c.35 0 .632.283.632.632v.857a.632.632 0 1 1-1.264 0v-.857c0-.349.283-.632.632-.632zm8.03-1.886a.632.632 0 1 1-.893.894 1.093 1.093 0 0 0-.778-.322c-.294 0-.57.114-.778.322a.632.632 0 0 1-.894-.894 2.349 2.349 0 0 1 1.672-.692c.632 0 1.225.246 1.672.692zm-6.358 0a.632.632 0 1 1-.895.894 1.093 1.093 0 0 0-.777-.322c-.294 0-.57.114-.778.322a.632.632 0 1 1-.894-.894 2.349 2.349 0 0 1 1.672-.692c.631 0 1.225.246 1.672.692zm4.687 1.886c.35 0 .632.283.632.632v.857a.632.632 0 1 1-1.264 0v-.857c0-.349.283-.632.632-.632zm-1.344 4.882a.632.632 0 0 1 0 .893c-.506.507-1.17.76-1.836.76-.664 0-1.33-.253-1.835-.76a.632.632 0 1 1 .894-.893c.519.52 1.364.52 1.883 0a.632.632 0 0 1 .894 0zm-1.3-4.81c.35 0 .632.283.632.632v2.143c0 .349-.283.632-.632.632h-1.071a.632.632 0 1 1 0-1.264h.44v-1.511c0-.35.282-.632.631-.632zM14.538 14.63a.632.632 0 1 1-.894.894.999.999 0 0 0-.711-.295.999.999 0 0 0-.71.295.632.632 0 0 1-.895-.894 2.254 2.254 0 0 1 1.605-.665c.606 0 1.176.236 1.605.665zm-6.011 0a.632.632 0 1 1-.894.894.999.999 0 0 0-.711-.295.999.999 0 0 0-.71.295.632.632 0 0 1-.894-.894 2.254 2.254 0 0 1 1.604-.665c.606 0 1.176.236 1.605.665zm3.16 4.147a.632.632 0 0 1 0 .893c-.47.47-1.094.73-1.76.73-.664 0-1.289-.26-1.759-.73a.632.632 0 1 1 .894-.893 1.226 1.226 0 0 0 1.732 0 .632.632 0 0 1 .893 0zm-1.332-2.758a.632.632 0 0 1 0 1.264H9.5a.632.632 0 0 1 0-1.264h.855z" fill="#000" fill-rule="nonzero"/>
</svg>
