<svg width="40" height="40" viewBox="0 0 40 40" xmlns="http://www.w3.org/2000/svg">
    <title>
        filter-category-11
    </title>
    <path d="M39.387 14.503a.586.586 0 0 0 .585-.586V7.662a.586.586 0 0 0-.585-.585H23.503a.586.586 0 0 0-.586.585v5.018a3.374 3.374 0 0 0-1.728-.477 3.4 3.4 0 0 0-3.397 3.397 3.4 3.4 0 0 0 3.397 3.397c.617 0 1.212-.17 1.728-.477v4.432h-5.744a.585.585 0 0 0-.338 1.065 2.23 2.23 0 0 1 .947 1.82 2.228 2.228 0 0 1-2.226 2.226 2.228 2.228 0 0 1-2.225-2.226c0-.722.354-1.403.946-1.82a.586.586 0 0 0-.337-1.065H7.618a.586.586 0 0 0-.585.586v9.25a.586.586 0 1 0 1.171 0v-8.664h4.42a3.394 3.394 0 0 0 2.932 5.11 3.394 3.394 0 0 0 2.932-5.11h4.429v5.768a.586.586 0 0 0 1.069.33 2.219 2.219 0 0 1 1.827-.971c1.226.002 2.222 1 2.222 2.225a2.228 2.228 0 0 1-2.222 2.225 2.219 2.219 0 0 1-1.827-.971.585.585 0 0 0-1.07.33v5.769H8.205V34.74a.586.586 0 1 0-1.171 0v4.674c0 .324.262.586.585.586h31.769a.586.586 0 0 0 .586-.586V15.87a.586.586 0 1 0-1.172 0v7.083h-4.42c.3-.514.465-1.104.465-1.714v-.013-.01a3.4 3.4 0 0 0-3.397-3.397 3.4 3.4 0 0 0-3.397 3.397v.023c0 .61.165 1.2.465 1.714H24.09v-5.769a.586.586 0 0 0-1.07-.33 2.218 2.218 0 0 1-4.055-1.254 2.219 2.219 0 1 1 4.056-1.254.585.585 0 0 0 1.069-.33V8.248H38.8v5.67c0 .323.262.585.586.585zm-15.299 9.62h5.744v.001h.033a.586.586 0 0 0 .33-1.07 2.226 2.226 0 0 1-.971-1.828 2.228 2.228 0 0 1 2.225-2.212c1.223 0 2.218.991 2.225 2.212a2.226 2.226 0 0 1-.972 1.829.586.586 0 0 0 .33 1.069h5.769v14.705H24.088v-4.422c.515.3 1.109.466 1.722.466h.007a3.4 3.4 0 0 0 3.396-3.397 3.4 3.4 0 0 0-3.396-3.396h-.007c-.613 0-1.206.165-1.722.466v-4.422zM14.332 6.353a2.257 2.257 0 0 0-2.255 2.254 2.257 2.257 0 0 0 2.255 2.255c.737 0 1.43-.358 1.852-.959a.586.586 0 0 1 1.065.338v6.387a.586.586 0 0 1-.586.586h-5.09c.314.524.487 1.131.487 1.76A3.43 3.43 0 0 1 8.634 22.4a3.43 3.43 0 0 1-3.426-3.426c0-.63.173-1.237.487-1.761H.613a.586.586 0 0 1-.586-.586V6.572a.586.586 0 1 1 1.172 0v9.47h5.834a.586.586 0 0 1 .33 1.069 2.256 2.256 0 0 0 1.271 4.117 2.256 2.256 0 1 0 1.27-4.117.586.586 0 0 1 .33-1.07h5.843v-4.484a3.43 3.43 0 0 1-5.172-2.95 3.43 3.43 0 0 1 5.172-2.951V1.171H1.2V4.62a.586.586 0 1 1-1.172 0V.586C.027.262.29 0 .613 0h16.05c.324 0 .586.262.586.586v6.387a.586.586 0 0 1-1.065.337 2.268 2.268 0 0 0-1.852-.958z" fill="#000" fill-rule="nonzero"/>
</svg>
