<svg width="40" height="40" viewBox="0 0 40 40" xmlns="http://www.w3.org/2000/svg">
    <title>
        couchserfing
    </title>
    <path d="M38.75 23.923a2.637 2.637 0 0 0-.947-.728c-.215-3.423-3.06-6.144-6.536-6.144h-8.813c-.952 0-1.905.203-2.777.588a6.908 6.908 0 0 0-2.778-.588H8.561c-3.42 0-6.233 2.633-6.528 5.977a2.633 2.633 0 0 0-1.485.97 2.61 2.61 0 0 0-.458 2.27l1.514 7.464.026.09a2.4 2.4 0 0 0 2.256 1.59h.052v3.935h3.096l1.312-3.935h23.316l1.312 3.935h3.096v-3.952a2.403 2.403 0 0 0 2.09-1.72l1.135-7.554a2.63 2.63 0 0 0-.544-2.198zm-7.483-5.56a5.253 5.253 0 0 1 5.206 4.598c-.085.005-.165.027-.249.038-.107.015-.214.027-.318.05-.118.027-.232.065-.346.103-.098.033-.198.062-.293.103-.114.05-.22.11-.328.17-.086.047-.173.09-.255.144-.11.073-.21.158-.31.24-.068.058-.14.109-.205.17-.105.102-.198.214-.291.327-.047.057-.1.11-.144.17a3.7 3.7 0 0 0-.266.437c-.024.045-.055.086-.078.133a3.71 3.71 0 0 0-.226.603c-.003.011-.01.022-.013.034-.06.221-.1.45-.117.687l-.178 2.484H20.332v-10.06a5.585 5.585 0 0 1 2.122-.431h8.813zm-22.706 0h8.337c.726 0 1.45.153 2.122.431v10.06H6.694l-.392-2.742a3.624 3.624 0 0 0-.147-.615c-.021-.065-.05-.126-.076-.19a3.644 3.644 0 0 0-.168-.38c-.037-.07-.08-.136-.121-.203a3.347 3.347 0 0 0-.369-.501 3.732 3.732 0 0 0-.744-.649c-.065-.043-.127-.087-.194-.127a3.548 3.548 0 0 0-.38-.184c-.058-.026-.113-.056-.173-.079a3.642 3.642 0 0 0-.583-.166 5.256 5.256 0 0 1 5.214-4.655zM3.886 34.1c-.444 0-.843-.272-1.007-.681l-1.514-7.456a1.331 1.331 0 0 1 .226-1.17c.257-.336.645-.529 1.068-.529a2.38 2.38 0 0 1 2.344 2.032l.859 7.804H3.886zm2.203 3.935H5.25v-2.623h1.713l-.874 2.623zM8.783 34.1h-1.59l-.351-3.934h25.94l-.175 3.934H8.783zm25.976 3.935h-.839l-.874-2.623h1.713v2.623zm3.245-12.142l-1.116 7.457a1.09 1.09 0 0 1-1.032.751h-1.929l.417-7.637a2.378 2.378 0 0 1 2.363-2.2c.4 0 .776.179 1.03.49.253.31.353.713.267 1.14zm-28.627.146a.654.654 0 0 0 .927 0l.604-.603c.283.14.59.218.9.218.31 0 .616-.078.9-.218l.603.603a.654.654 0 0 0 .928 0 .655.655 0 0 0 0-.927l-.604-.603a2.045 2.045 0 0 0 0-1.801l.604-.604a.655.655 0 1 0-.928-.927l-.603.603a2.045 2.045 0 0 0-1.801 0l-.603-.603a.655.655 0 1 0-.928.927l.604.604a2.045 2.045 0 0 0 0 1.8l-.604.604a.656.656 0 0 0 .001.927zm2.95-2.95a.735.735 0 1 1-1.039 1.04.735.735 0 0 1 1.04-1.04zm12.788 2.95a.654.654 0 0 0 .927 0l.603-.603c.284.14.591.218.9.218.31 0 .617-.078.9-.218l.604.603a.654.654 0 0 0 .927 0 .655.655 0 0 0 0-.927l-.603-.603a2.045 2.045 0 0 0 0-1.801l.603-.604a.655.655 0 1 0-.927-.927l-.603.603a2.045 2.045 0 0 0-1.801 0l-.604-.603a.655.655 0 1 0-.927.927l.603.604a2.045 2.045 0 0 0 0 1.8l-.603.604a.656.656 0 0 0 0 .927zm2.95-2.95a.735.735 0 1 1-1.04 1.04.735.735 0 0 1 1.04-1.04zm-13.634-9.317h3.279v-1.967H32.79v1.967h3.28v-1.967h1.966V7.871H36.07V1.313h-2.623V.002h-3.934v1.967H27.65a.85.85 0 0 0-.708.38l-3.674 5.51c-.003.003-.004.008-.006.012H12.464v3.934h1.967v1.967zm1.967-1.311h-.656v-.656h.656v.656zm18.36 0h-.655v-.656h.656v.656zm0-9.836V7.87h-1.31V2.625h1.31zm-3.934-1.312h1.312v6.558h-1.312V1.313zm-1.311 6.558H27.46l2.053-3.08v3.08zm-1.617-4.59h1.048l-3.06 4.59h-1.048l3.06-4.59zm-14.12 7.213V9.182h22.95v1.312H13.775z" fill="#000" fill-rule="nonzero"/>
</svg>
