<svg width="40" height="34" viewBox="0 0 40 34" xmlns="http://www.w3.org/2000/svg">
    <title>
        filter-category-18
    </title>
    <path d="M23.825 28.984a2.409 2.409 0 0 1 2.406 2.406 2.409 2.409 0 0 1-2.406 2.406H15.68a5.652 5.652 0 0 1-4.357-2.043l-1.947-2.34a4.096 4.096 0 0 0-3.135-1.481 1.935 1.935 0 0 1-1.792 1.21h-.81a.78.78 0 0 1 0-1.558h.81a.374.374 0 0 0 .373-.374v-6.249a.374.374 0 0 0-.373-.373H1.56v4.922a.78.78 0 1 1-1.56 0v-5.701c0-.431.35-.78.78-.78h3.67c.8 0 1.487.488 1.78 1.183h3.023a6.96 6.96 0 0 1 4.857 1.962l4.204 4.057c.902.87.944 2.329.093 3.25a2.32 2.32 0 0 1-1.71.746 2.316 2.316 0 0 1-1.57-.61l-3.3-3.024a.78.78 0 1 1 1.054-1.15l3.3 3.025a.768.768 0 0 0 1.08-.045.77.77 0 0 0-.03-1.07l-4.204-4.058a5.408 5.408 0 0 0-3.774-1.524h-2.87v4.606a5.65 5.65 0 0 1 4.192 2.038l1.948 2.34a4.097 4.097 0 0 0 3.158 1.482h8.144a.848.848 0 0 0 0-1.694H20.8a.78.78 0 1 1 0-1.56h3.025zM39.142 7.246c.43 0 .78.35.78.78v6.006c0 .43-.349.78-.78.78h-3.67c-.8 0-1.487-.49-1.78-1.184h-3.023a6.96 6.96 0 0 1-4.857-1.961l-4.204-4.058a2.339 2.339 0 0 1-.093-3.25 2.33 2.33 0 0 1 3.28-.137l3.3 3.025a.78.78 0 1 1-1.054 1.15l-3.3-3.025a.767.767 0 0 0-1.08.045.77.77 0 0 0 .03 1.07l4.204 4.058a5.408 5.408 0 0 0 3.774 1.524h2.87V7.464a5.65 5.65 0 0 1-4.192-2.039l-1.948-2.34a4.097 4.097 0 0 0-3.158-1.482h-8.144a.848.848 0 0 0 0 1.694h3.33a.78.78 0 1 1 0 1.56h-3.33a2.409 2.409 0 0 1-2.406-2.407A2.409 2.409 0 0 1 16.097.044h8.144c1.689 0 3.277.745 4.357 2.043l1.947 2.341a4.096 4.096 0 0 0 3.135 1.48 1.935 1.935 0 0 1 1.792-1.21h.753a.78.78 0 0 1 0 1.559h-.753a.374.374 0 0 0-.373.373v6.249c0 .206.168.373.373.373h2.89V8.026c0-.43.35-.78.78-.78zm-13.97 19.315a.78.78 0 0 1-.39 1.032l-.017.007a.777.777 0 0 1-1.026-.403.78.78 0 0 1 .403-1.026.779.779 0 0 1 1.03.39zm1.939-1.313a.776.776 0 0 1-.161 1.087l-.01.007a.776.776 0 0 1-1.09-.169.78.78 0 0 1 .17-1.09.783.783 0 0 1 1.09.165zm-4.118 2.188a.779.779 0 0 1-.77.943.78.78 0 0 1-.151-1.545.78.78 0 0 1 .92.602zm5.746-3.883a.78.78 0 0 0-1.117.075.78.78 0 0 0 1.175 1.024.78.78 0 0 0-.058-1.1zm-.43.671l-.092-.093.1.1-.007-.007zm2.415-4.897a.778.778 0 0 1 .52.97l-.003.011a.78.78 0 1 1-1.49-.458.782.782 0 0 1 .973-.523zm.998-4.024a.78.78 0 0 1-1.533.285.78.78 0 1 1 1.533-.285zm-.715 1.692a.78.78 0 0 1 .709.841.78.78 0 1 1-1.554-.133.78.78 0 0 1 .845-.708zm-1.047 4.55a.78.78 0 0 1 .294 1.063l-.678-.384.678.385a.773.773 0 0 1-1.055.31.783.783 0 0 1-.312-1.06l.01-.02a.78.78 0 0 1 1.063-.293zM15.82 6.699a.78.78 0 0 1-.699 1.129.78.78 0 0 1-.354-1.474l.007-.004a.78.78 0 0 1 1.046.349zm2.256-.65a.78.78 0 0 1-.574.941.779.779 0 0 1-.367-1.515.78.78 0 0 1 .94.574zm-4.317 1.774a.779.779 0 0 1-.117 1.095l-.01.008a.777.777 0 0 1-1.096-.124.78.78 0 0 1 .124-1.096l.486.61-.483-.612a.78.78 0 0 1 1.096.12zM9.602 13.37a.78.78 0 0 1 .55.948.78.78 0 0 1-.941.569.78.78 0 0 1-.566-.97.78.78 0 0 1 .957-.547zm-.497 2.291a.78.78 0 0 1 .734.814.78.78 0 1 1-1.557-.08.78.78 0 0 1 .823-.734zm1.478-4.421a.78.78 0 0 1 .332 1.045.78.78 0 0 1-1.042.35.779.779 0 0 1-.355-1.042l.012-.025a.78.78 0 0 1 1.053-.328zm1.408-1.876a.78.78 0 0 1 .106 1.092.78.78 0 0 1-1.22-.97l.016-.02a.78.78 0 0 1 1.098-.102zm-2.005 9.275a.783.783 0 0 1-.769.92.775.775 0 0 1-.764-.638l-.002-.007a.78.78 0 0 1 1.535-.275zm12.652-5.919a3.61 3.61 0 0 0-2.625 1.125 3.624 3.624 0 0 0-6.246 2.496c0 1.077.475 2.09 1.304 2.781l.015.013 4.443 3.517a.778.778 0 0 0 .97-.001l4.63-3.69a.772.772 0 0 0 .066-.057 3.596 3.596 0 0 0 1.063-2.563 3.624 3.624 0 0 0-3.62-3.62zm1.484 5.052l-4.11 3.274-3.95-3.127a2.057 2.057 0 0 1-.735-1.578c0-1.137.924-2.061 2.06-2.061.837 0 1.585.5 1.906 1.273a.78.78 0 0 0 1.44 0 2.056 2.056 0 0 1 1.905-1.273 2.064 2.064 0 0 1 1.484 3.492zM.78 29.14a.777.777 0 1 1 0-1.555.777.777 0 0 1 0 1.554zM39.142 6.253a.777.777 0 1 1 0-1.554.777.777 0 0 1 0 1.554z" fill="#000" fill-rule="nonzero"/>
</svg>
