<?xml version="1.0" encoding="UTF-8"?>
<svg width="40px" height="34px" viewBox="0 0 40 34" version="1.1" xmlns="http://www.w3.org/2000/svg" xmlns:xlink="http://www.w3.org/1999/xlink">
    <!-- Generator: Sketch 49.3 (51167) - http://www.bohemiancoding.com/sketch -->
    <title>filter-category-17</title>
    <desc>Created with Sketch.</desc>
    <g id="Symbols" stroke="none" stroke-width="1" fill="none" fill-rule="evenodd">
        <g id="Elements-/-Sort-/-Card-/-~Parts-/-Icon_16" transform="translate(0.000000, -3.000000)">
            <mask id="mask-2" fill="white">
                <path d="M38.8926708,18.3124638 C36.9509731,14.8677433 32.8019876,13.3335818 29.086294,14.6863768 L24.8858799,5.58592133 L28.8198758,5.58592133 C29.3686957,5.58592133 29.8136646,6.03089027 29.8136646,6.57971014 C29.8136646,7.12853002 29.3686957,7.57349896 28.8198758,7.57349896 L28.4886128,7.57349896 C28.1227329,7.57349896 27.826087,7.87014493 27.826087,8.23602484 C27.826087,8.60190476 28.1227329,8.89855072 28.4886128,8.89855072 L28.8198758,8.89855072 C30.1005383,8.89855072 31.1387164,7.86037267 31.1387164,6.57971014 C31.1387164,5.29904762 30.1005383,4.26086957 28.8198758,4.26086957 L23.8509317,4.26086957 C23.4850518,4.26086957 23.1884058,4.55751553 23.1884058,4.92339545 C23.1884058,5.01921325 23.2091925,5.11395445 23.2493582,5.20099379 L24.9560248,8.89855072 L14.5311801,8.89855072 L13.620207,6.91097308 L14.1893168,6.91097308 C15.1340787,6.91287785 15.9014493,6.14848861 15.903354,5.20372671 C15.9050932,4.3289441 15.2465424,3.59378882 14.3768116,3.49962733 L10.7368944,3.09416149 C9.68604555,2.97962733 8.74128364,3.73871636 8.6268323,4.78964803 C8.51229814,5.84049689 9.27138716,6.7852588 10.3223188,6.89971014 C10.3904762,6.90716356 10.4590476,6.91089027 10.527619,6.91097308 L12.1627329,6.91097308 L13.2804141,9.34973085 L10.7396273,14.7161905 C6.6310559,13.1746584 2.05068323,15.2556522 0.509151139,19.3642236 C-1.03238095,23.472795 1.04861284,28.0531677 5.15718427,29.5946998 C9.26575569,31.1362319 13.8461284,29.0552381 15.3876605,24.9466667 C15.6451346,24.2604555 15.8063768,23.5419462 15.8669151,22.8115942 L17.3198344,22.8115942 C17.677764,24.2269979 19.1153623,25.0842236 20.5306832,24.726294 C21.946087,24.3683644 22.8033126,22.9308489 22.445383,21.5154451 C22.3076605,20.9708489 22.0000828,20.4843892 21.567205,20.1263768 L25.9080745,10.9616563 L27.8824017,15.2402484 C23.9936232,17.4322981 22.6181366,22.3617391 24.8101863,26.2504348 C27.002236,30.1392133 31.931677,31.5146998 35.8203727,29.3226501 C39.7091511,27.1306832 41.0846377,22.2012422 38.8926708,18.3124638 Z M10.5275362,5.58583851 C10.2021532,5.58583851 9.93821946,5.32223602 9.9378882,4.996853 C9.93821946,4.67246377 10.2004969,4.40935818 10.5248861,4.40786749 C10.547412,4.40786749 10.5692754,4.40786749 10.5911387,4.41118012 L14.2310559,4.81598344 C14.4428986,4.84082816 14.5945342,5.03279503 14.5696066,5.24463768 C14.5469151,5.43792961 14.3839337,5.58418219 14.1893168,5.58583851 L10.5275362,5.58583851 Z M11.3669565,16.4837267 C13.1534576,17.5588406 14.3296894,19.4121739 14.5417805,21.4864596 L8.99710145,21.4864596 L11.3669565,16.4837267 Z M7.95031056,28.7742443 C4.29126294,28.7862526 1.31536232,25.8298137 1.30327122,22.1708489 C1.29126294,18.5118841 4.24770186,15.5359006 7.90666667,15.5238095 C8.67826087,15.5212422 9.44430642,15.653499 10.1704348,15.914617 L7.35403727,21.8654244 C7.19743271,22.1961077 7.33855072,22.5911387 7.66923395,22.7477433 C7.75710145,22.7893996 7.85308489,22.8110973 7.95031056,22.8115114 L14.5417805,22.8115114 C14.1980124,26.1949482 11.3511387,28.7702692 7.95031056,28.7742443 Z M17.3197516,21.4864596 L15.8668323,21.4864596 C15.6480331,18.9006211 14.1809524,16.584265 11.9367288,15.2812422 L14.0011594,10.9224845 L18.2101863,20.1050932 C17.7739959,20.4591304 17.462029,20.9430228 17.3197516,21.4864596 Z M19.8757764,23.4740373 C19.1439337,23.4740373 18.5507246,22.8808282 18.5507246,22.1489855 C18.5507246,21.4171429 19.1439337,20.8239337 19.8757764,20.8239337 C20.607619,20.8239337 21.2008282,21.4171429 21.2008282,22.1489855 C21.2008282,22.8808282 20.607619,23.4740373 19.8757764,23.4740373 Z M20.3739959,19.5498965 C20.2099379,19.5170186 20.0430642,19.4999586 19.8757764,19.498882 C19.7200828,19.501118 19.5649689,19.516853 19.4120083,19.5459213 L15.1387164,10.2235197 L24.7917184,10.2235197 L20.3739959,19.5498965 Z M31.8562319,28.8245135 C28.183354,28.8396687 25.1935404,25.8745342 25.1783851,22.2016563 C25.1686128,19.8418219 26.4101863,17.653499 28.440911,16.4513458 L31.1996687,22.4279917 C31.3462526,22.7632298 31.7368116,22.9162733 32.0721325,22.7696894 C32.4073706,22.6231056 32.5604141,22.2325466 32.4138302,21.8973085 C32.410352,21.8892754 32.4067081,21.8813251 32.4028157,21.8735404 L29.6427329,15.8935818 C30.3365631,15.6506832 31.0661698,15.5257143 31.8012422,15.5238923 C35.4741201,15.5087371 38.4639337,18.4738716 38.479089,22.1467495 C38.4943271,25.8195445 35.5291097,28.8093582 31.8562319,28.8245135 Z M31.8012422,30.0992961 L39.7515528,30.0992961 L39.7515528,31.4243478 L1.04036354e-13,31.4243478 L1.04036354e-13,30.0992961 L7.95031056,30.0992961 L31.8012422,30.0992961 Z M9.27536232,35.3995031 C9.64124224,35.3995031 9.9378882,35.6961491 9.9378882,36.062029 C9.9378882,36.4279089 9.64124224,36.7245549 9.27536232,36.7245549 L1.32505176,36.7245549 C0.959171843,36.7245549 0.66252588,36.4279089 0.66252588,36.062029 C0.66252588,35.6961491 0.959171843,35.3995031 1.32505176,35.3995031 L9.27536232,35.3995031 Z M24.5134576,35.3995031 C24.8793375,35.3995031 25.1759834,35.6961491 25.1759834,36.062029 C25.1759834,36.4279089 24.8793375,36.7245549 24.5134576,36.7245549 L15.2380952,36.7245549 C14.8722153,36.7245549 14.5755694,36.4279089 14.5755694,36.062029 C14.5755694,35.6961491 14.8722153,35.3995031 15.2380952,35.3995031 L24.5134576,35.3995031 Z M38.426501,35.3995031 C38.792381,35.3995031 39.0890269,35.6961491 39.0890269,36.062029 C39.0890269,36.4279089 38.792381,36.7245549 38.426501,36.7245549 L30.4761905,36.7245549 C30.1103106,36.7245549 29.8136646,36.4279089 29.8136646,36.062029 C29.8136646,35.6961491 30.1103106,35.3995031 30.4761905,35.3995031 L38.426501,35.3995031 Z M7.95031056,26.1241408 C8.31619048,26.1241408 8.61291925,26.4207867 8.61291925,26.7866667 C8.61291925,27.1525466 8.31627329,27.4491925 7.95039337,27.4491925 C7.43784679,27.4496894 6.92786749,27.3758178 6.43652174,27.2298965 C6.43337474,27.2289855 6.43031056,27.2280745 6.42724638,27.2271636 C6.07726708,27.1203313 5.88016563,26.7500621 5.98699793,26.4000828 C6.09383023,26.0501035 6.46409938,25.8530021 6.81407867,25.9598344 C7.18285714,26.0693168 7.56563147,26.1246377 7.95031056,26.1241408 Z M5.16770186,24.9885714 C5.2947412,25.1132091 5.36637681,25.2836439 5.36637681,25.4615321 C5.36645963,25.827412 5.06981366,26.124058 4.70393375,26.1241408 C4.53084886,26.1241408 4.36463768,26.0563147 4.24082816,25.9353209 C2.83792961,24.5585921 2.31039337,22.5195031 2.86939959,20.6351139 C2.9736646,20.2842236 3.34269151,20.0843064 3.69358178,20.1885714 C4.04447205,20.2928364 4.24438923,20.6618634 4.14012422,21.0127536 C4.03055901,21.3815321 3.97498965,21.7642236 3.97515528,22.1489855 C3.97151139,23.217971 4.40182195,24.2427329 5.16770186,24.9885714 Z"></path>
            </mask>
            <path d="M38.8926708,18.3124638 C36.9509731,14.8677433 32.8019876,13.3335818 29.086294,14.6863768 L24.8858799,5.58592133 L28.8198758,5.58592133 C29.3686957,5.58592133 29.8136646,6.03089027 29.8136646,6.57971014 C29.8136646,7.12853002 29.3686957,7.57349896 28.8198758,7.57349896 L28.4886128,7.57349896 C28.1227329,7.57349896 27.826087,7.87014493 27.826087,8.23602484 C27.826087,8.60190476 28.1227329,8.89855072 28.4886128,8.89855072 L28.8198758,8.89855072 C30.1005383,8.89855072 31.1387164,7.86037267 31.1387164,6.57971014 C31.1387164,5.29904762 30.1005383,4.26086957 28.8198758,4.26086957 L23.8509317,4.26086957 C23.4850518,4.26086957 23.1884058,4.55751553 23.1884058,4.92339545 C23.1884058,5.01921325 23.2091925,5.11395445 23.2493582,5.20099379 L24.9560248,8.89855072 L14.5311801,8.89855072 L13.620207,6.91097308 L14.1893168,6.91097308 C15.1340787,6.91287785 15.9014493,6.14848861 15.903354,5.20372671 C15.9050932,4.3289441 15.2465424,3.59378882 14.3768116,3.49962733 L10.7368944,3.09416149 C9.68604555,2.97962733 8.74128364,3.73871636 8.6268323,4.78964803 C8.51229814,5.84049689 9.27138716,6.7852588 10.3223188,6.89971014 C10.3904762,6.90716356 10.4590476,6.91089027 10.527619,6.91097308 L12.1627329,6.91097308 L13.2804141,9.34973085 L10.7396273,14.7161905 C6.6310559,13.1746584 2.05068323,15.2556522 0.509151139,19.3642236 C-1.03238095,23.472795 1.04861284,28.0531677 5.15718427,29.5946998 C9.26575569,31.1362319 13.8461284,29.0552381 15.3876605,24.9466667 C15.6451346,24.2604555 15.8063768,23.5419462 15.8669151,22.8115942 L17.3198344,22.8115942 C17.677764,24.2269979 19.1153623,25.0842236 20.5306832,24.726294 C21.946087,24.3683644 22.8033126,22.9308489 22.445383,21.5154451 C22.3076605,20.9708489 22.0000828,20.4843892 21.567205,20.1263768 L25.9080745,10.9616563 L27.8824017,15.2402484 C23.9936232,17.4322981 22.6181366,22.3617391 24.8101863,26.2504348 C27.002236,30.1392133 31.931677,31.5146998 35.8203727,29.3226501 C39.7091511,27.1306832 41.0846377,22.2012422 38.8926708,18.3124638 Z M10.5275362,5.58583851 C10.2021532,5.58583851 9.93821946,5.32223602 9.9378882,4.996853 C9.93821946,4.67246377 10.2004969,4.40935818 10.5248861,4.40786749 C10.547412,4.40786749 10.5692754,4.40786749 10.5911387,4.41118012 L14.2310559,4.81598344 C14.4428986,4.84082816 14.5945342,5.03279503 14.5696066,5.24463768 C14.5469151,5.43792961 14.3839337,5.58418219 14.1893168,5.58583851 L10.5275362,5.58583851 Z M11.3669565,16.4837267 C13.1534576,17.5588406 14.3296894,19.4121739 14.5417805,21.4864596 L8.99710145,21.4864596 L11.3669565,16.4837267 Z M7.95031056,28.7742443 C4.29126294,28.7862526 1.31536232,25.8298137 1.30327122,22.1708489 C1.29126294,18.5118841 4.24770186,15.5359006 7.90666667,15.5238095 C8.67826087,15.5212422 9.44430642,15.653499 10.1704348,15.914617 L7.35403727,21.8654244 C7.19743271,22.1961077 7.33855072,22.5911387 7.66923395,22.7477433 C7.75710145,22.7893996 7.85308489,22.8110973 7.95031056,22.8115114 L14.5417805,22.8115114 C14.1980124,26.1949482 11.3511387,28.7702692 7.95031056,28.7742443 Z M17.3197516,21.4864596 L15.8668323,21.4864596 C15.6480331,18.9006211 14.1809524,16.584265 11.9367288,15.2812422 L14.0011594,10.9224845 L18.2101863,20.1050932 C17.7739959,20.4591304 17.462029,20.9430228 17.3197516,21.4864596 Z M19.8757764,23.4740373 C19.1439337,23.4740373 18.5507246,22.8808282 18.5507246,22.1489855 C18.5507246,21.4171429 19.1439337,20.8239337 19.8757764,20.8239337 C20.607619,20.8239337 21.2008282,21.4171429 21.2008282,22.1489855 C21.2008282,22.8808282 20.607619,23.4740373 19.8757764,23.4740373 Z M20.3739959,19.5498965 C20.2099379,19.5170186 20.0430642,19.4999586 19.8757764,19.498882 C19.7200828,19.501118 19.5649689,19.516853 19.4120083,19.5459213 L15.1387164,10.2235197 L24.7917184,10.2235197 L20.3739959,19.5498965 Z M31.8562319,28.8245135 C28.183354,28.8396687 25.1935404,25.8745342 25.1783851,22.2016563 C25.1686128,19.8418219 26.4101863,17.653499 28.440911,16.4513458 L31.1996687,22.4279917 C31.3462526,22.7632298 31.7368116,22.9162733 32.0721325,22.7696894 C32.4073706,22.6231056 32.5604141,22.2325466 32.4138302,21.8973085 C32.410352,21.8892754 32.4067081,21.8813251 32.4028157,21.8735404 L29.6427329,15.8935818 C30.3365631,15.6506832 31.0661698,15.5257143 31.8012422,15.5238923 C35.4741201,15.5087371 38.4639337,18.4738716 38.479089,22.1467495 C38.4943271,25.8195445 35.5291097,28.8093582 31.8562319,28.8245135 Z M31.8012422,30.0992961 L39.7515528,30.0992961 L39.7515528,31.4243478 L1.04036354e-13,31.4243478 L1.04036354e-13,30.0992961 L7.95031056,30.0992961 L31.8012422,30.0992961 Z M9.27536232,35.3995031 C9.64124224,35.3995031 9.9378882,35.6961491 9.9378882,36.062029 C9.9378882,36.4279089 9.64124224,36.7245549 9.27536232,36.7245549 L1.32505176,36.7245549 C0.959171843,36.7245549 0.66252588,36.4279089 0.66252588,36.062029 C0.66252588,35.6961491 0.959171843,35.3995031 1.32505176,35.3995031 L9.27536232,35.3995031 Z M24.5134576,35.3995031 C24.8793375,35.3995031 25.1759834,35.6961491 25.1759834,36.062029 C25.1759834,36.4279089 24.8793375,36.7245549 24.5134576,36.7245549 L15.2380952,36.7245549 C14.8722153,36.7245549 14.5755694,36.4279089 14.5755694,36.062029 C14.5755694,35.6961491 14.8722153,35.3995031 15.2380952,35.3995031 L24.5134576,35.3995031 Z M38.426501,35.3995031 C38.792381,35.3995031 39.0890269,35.6961491 39.0890269,36.062029 C39.0890269,36.4279089 38.792381,36.7245549 38.426501,36.7245549 L30.4761905,36.7245549 C30.1103106,36.7245549 29.8136646,36.4279089 29.8136646,36.062029 C29.8136646,35.6961491 30.1103106,35.3995031 30.4761905,35.3995031 L38.426501,35.3995031 Z M7.95031056,26.1241408 C8.31619048,26.1241408 8.61291925,26.4207867 8.61291925,26.7866667 C8.61291925,27.1525466 8.31627329,27.4491925 7.95039337,27.4491925 C7.43784679,27.4496894 6.92786749,27.3758178 6.43652174,27.2298965 C6.43337474,27.2289855 6.43031056,27.2280745 6.42724638,27.2271636 C6.07726708,27.1203313 5.88016563,26.7500621 5.98699793,26.4000828 C6.09383023,26.0501035 6.46409938,25.8530021 6.81407867,25.9598344 C7.18285714,26.0693168 7.56563147,26.1246377 7.95031056,26.1241408 Z M5.16770186,24.9885714 C5.2947412,25.1132091 5.36637681,25.2836439 5.36637681,25.4615321 C5.36645963,25.827412 5.06981366,26.124058 4.70393375,26.1241408 C4.53084886,26.1241408 4.36463768,26.0563147 4.24082816,25.9353209 C2.83792961,24.5585921 2.31039337,22.5195031 2.86939959,20.6351139 C2.9736646,20.2842236 3.34269151,20.0843064 3.69358178,20.1885714 C4.04447205,20.2928364 4.24438923,20.6618634 4.14012422,21.0127536 C4.03055901,21.3815321 3.97498965,21.7642236 3.97515528,22.1489855 C3.97151139,23.217971 4.40182195,24.2427329 5.16770186,24.9885714 Z" fill="#000000" fill-rule="nonzero"></path>
        </g>
    </g>
</svg>
