<svg width="40" height="40" viewBox="0 0 40 40" xmlns="http://www.w3.org/2000/svg">
    <title>
        filter-category-15
    </title>
    <path d="M37.437 13.635l-1.329-1.816 1.33-1.816c.252-.345.276-.79.062-1.161a1.052 1.052 0 0 0-1.037-.526l-2.237.243-.908-2.059a1.051 1.051 0 0 0-.974-.635c-.428 0-.801.243-.974.635l-.908 2.06-2.237-.244a1.052 1.052 0 0 0-1.037.526 1.06 1.06 0 0 0-.142.617 13.727 13.727 0 0 0-6.457-1.923V4.343h6.92a2.58 2.58 0 0 0 2.578-2.577V.98a.98.98 0 0 0-.98-.98h-1.711a.586.586 0 1 0 0 1.173h1.518v.593c0 .774-.63 1.404-1.405 1.404H12.495c-.774 0-1.404-.63-1.404-1.404v-.593h12.588a.586.586 0 1 0 0-1.173H10.898a.98.98 0 0 0-.98.98v.786a2.58 2.58 0 0 0 2.577 2.577h6.921v3.193C12.066 7.844 6.18 13.92 6.18 21.345c0 2.377.613 4.722 1.775 6.781a.586.586 0 0 0 1.02-.576 12.582 12.582 0 0 1-1.282-3.288c.794.93 1.88 1.769 3.22 2.465.757.394 1.58.734 2.452 1.017.913 2.463 2.342 4.556 4.14 6.005a12.568 12.568 0 0 1-6.398-3.41.586.586 0 1 0-.825.834 13.737 13.737 0 0 0 9.67 3.994h.05c7.622 0 13.823-6.2 13.823-13.822 0-1.403-.211-2.758-.603-4.035.037-.054.07-.11.096-.172l.908-2.06 2.237.244a1.05 1.05 0 0 0 1.037-.526c.214-.37.19-.816-.063-1.161zM11.454 25.687c-1.949-1.014-3.28-2.329-3.824-3.756h4.623c.047 1.534.274 3.018.66 4.41-.51-.197-.998-.414-1.459-.654zM7.801 20.76c.625-1.275 1.884-2.443 3.653-3.363a14.22 14.22 0 0 1 1.349-.612 18.548 18.548 0 0 0-.55 3.975H7.8zm5.417-5.37c-.817.273-1.591.595-2.305.967-1.405.73-2.532 1.617-3.334 2.603a12.686 12.686 0 0 1 9.979-10.026c-1.923 1.542-3.43 3.804-4.34 6.455zm.925.936c1.624-.484 3.42-.765 5.273-.814v5.248h-5.99c.05-1.55.298-3.046.717-4.434zm.64 11.819c1.464.354 3.03.56 4.633.6v4.902c-1.976-1.136-3.582-3.085-4.633-5.502zm4.633-.572a20.556 20.556 0 0 1-5.146-.775 17.42 17.42 0 0 1-.843-4.866h5.989v5.64zm0-13.233a22.08 22.08 0 0 0-4.8.64c1.044-2.587 2.716-4.69 4.8-5.908v5.268zm1.173-5.268c2.084 1.218 3.755 3.321 4.8 5.908a22.084 22.084 0 0 0-4.8-.64V9.07zm0 6.44c1.853.049 3.648.33 5.273.813.419 1.389.667 2.885.717 4.435h-5.99V15.51zm0 6.42h5.989a17.185 17.185 0 0 1-.86 4.87 20.57 20.57 0 0 1-5.13.77v-5.64zm0 6.813a22.149 22.149 0 0 0 4.609-.594c-1.052 2.378-2.648 4.306-4.61 5.453v-4.859zm1.83 5.018c1.824-1.451 3.275-3.548 4.201-6.011a16.133 16.133 0 0 0 2.47-1.023c1.341-.697 2.43-1.536 3.223-2.468a12.689 12.689 0 0 1-9.893 9.502zm6.13-8.074c-.463.24-.955.46-1.468.657.392-1.394.623-2.88.67-4.414h4.624c-.545 1.428-1.876 2.743-3.825 3.757zm-1.348-8.904c.47.185.921.389 1.349.611 1.769.92 3.029 2.089 3.654 3.364h-4.452a18.552 18.552 0 0 0-.55-3.975zm1.89-.429a16.026 16.026 0 0 0-2.305-.967c-.91-2.651-2.416-4.913-4.34-6.455 2.291.45 4.36 1.522 6.028 3.03l-1.224 1.672c-.252.345-.277.79-.063 1.161.214.37.612.573 1.038.526l2.237-.243.908 2.059c.143.325.425.547.76.614.118.394.217.797.295 1.207-.802-.986-1.93-1.873-3.334-2.604zm5.183-2.45a1.06 1.06 0 0 0-1.09.628l-.84 1.908-.841-1.908a1.06 1.06 0 0 0-1.09-.628l-2.072.225 1.232-1.682a1.06 1.06 0 0 0 0-1.258L28.34 9.508l2.073.226c.463.05.9-.203 1.089-.63l.841-1.907.841 1.908a1.06 1.06 0 0 0 1.09.629l2.072-.226-1.232 1.682a1.06 1.06 0 0 0 0 1.258l1.232 1.682-2.073-.225zm-14.272 22.62c.324 0 .587.262.587.585v2.304a.586.586 0 1 1-1.173 0V37.11c0-.323.262-.586.586-.586zM9.27 9.781a.586.586 0 1 1-.83.83l-1.628-1.63a.586.586 0 1 1 .83-.828l1.628 1.628zm23.924 23.925a.586.586 0 1 1-.829.829l-1.628-1.629a.586.586 0 1 1 .829-.829l1.628 1.629zM4.237 20.759a.586.586 0 0 1 0 1.172H1.933a.586.586 0 1 1 0-1.172h2.304zm33.834 0a.586.586 0 1 1 0 1.172h-2.303a.586.586 0 1 1 0-1.172h2.303zM9.27 32.079c.229.228.229.6 0 .828L7.64 34.536a.585.585 0 0 1-.829 0 .586.586 0 0 1 0-.83l1.629-1.628c.229-.229.6-.229.829 0zm30.247-4.727l-1.36-.744-.743-1.359a.927.927 0 0 0-1.628 0l-.743 1.36-1.36.743a.927.927 0 0 0 0 1.628l1.36.743.743 1.36a.927.927 0 0 0 1.628 0l.744-1.36 1.36-.743a.927.927 0 0 0 0-1.628zm-1.985 1.377a.927.927 0 0 0-.369.369l-.563 1.03-.563-1.03a.927.927 0 0 0-.369-.37l-1.029-.562 1.03-.563a.927.927 0 0 0 .368-.369l.563-1.03.564 1.03a.926.926 0 0 0 .368.369l1.03.563-1.03.563zm1.419-25.83l-1.035-.565-.566-1.035a.854.854 0 0 0-1.5 0l-.565 1.035-1.035.566a.854.854 0 0 0 0 1.5l1.035.565L35.85 6a.854.854 0 0 0 1.499 0l.566-1.035 1.035-.566a.854.854 0 0 0 0-1.5zm-1.68 1.082a.854.854 0 0 0-.34.34l-.33.606-.333-.607a.854.854 0 0 0-.339-.339l-.606-.331.606-.332a.855.855 0 0 0 .34-.34l.331-.606.332.606a.853.853 0 0 0 .34.34l.606.332-.607.331zM5.146 26.234l-1.034-.566-.566-1.035a.854.854 0 0 0-1.5 0l-.566 1.035-1.034.566a.854.854 0 0 0 0 1.499l1.034.566.566 1.035a.854.854 0 0 0 1.5 0l.566-1.035 1.035-.566a.854.854 0 0 0 0-1.5zm-1.679 1.08a.853.853 0 0 0-.34.34l-.33.607-.332-.606a.853.853 0 0 0-.34-.34l-.606-.332.606-.331a.854.854 0 0 0 .34-.34l.331-.606.332.606a.854.854 0 0 0 .34.34l.605.331-.606.332z" fill="#000" fill-rule="nonzero"/>
</svg>
