<?xml version="1.0" encoding="UTF-8"?>
<svg width="40px" height="38px" viewBox="0 0 40 38" version="1.1" xmlns="http://www.w3.org/2000/svg" xmlns:xlink="http://www.w3.org/1999/xlink">
    <!-- Generator: Sketch 49.3 (51167) - http://www.bohemiancoding.com/sketch -->
    <title>filter-category-16</title>
    <desc>Created with Sketch.</desc>
    <g id="Symbols" stroke="none" stroke-width="1" fill="none" fill-rule="evenodd">
        <g id="Elements-/-Sort-/-Card-/-~Parts-/-Icon_15" transform="translate(0.000000, -1.000000)">
            <mask id="mask-2" fill="white">
                <path d="M39.2566862,10.985653 C38.8887329,10.985653 38.591345,11.2837427 38.591345,11.6509942 L38.591345,11.8705653 L30.6069396,15.1568031 L30.6069396,13.9544639 L39.5108772,10.2696296 C39.7596881,10.1671735 39.9221053,9.9242885 39.9221053,9.65481481 C39.9221053,9.38534113 39.7597661,9.14315789 39.5115789,9.04 L20.2152047,1.05567251 C20.0521637,0.988460039 19.8698635,0.988460039 19.7069006,1.05567251 L0.41122807,9.04007797 C0.162339181,9.14323587 0,9.3854191 0,9.65489279 C0,9.92436647 0.162339181,10.1672515 0.41122807,10.2697076 L19.7069006,18.2541131 C19.7880702,18.2880312 19.8745419,18.3047173 19.9610916,18.3047173 C20.0476413,18.3047173 20.1341131,18.2881092 20.2152827,18.2541131 L27.1923587,15.3670955 C27.5323977,15.2273684 27.6934113,14.8381287 27.5529825,14.4980897 C27.4125536,14.1587524 27.0233138,13.9983626 26.6839766,14.1380897 L19.9610136,16.9193762 L2.40530214,9.65489279 L19.9610136,2.39040936 L37.5167251,9.65489279 L29.8776608,12.8160624 L22.5606238,10.0840546 C22.5992203,9.94565302 22.6225341,9.80327485 22.6225341,9.65489279 C22.6225341,8.53575049 21.4534893,7.65879142 19.9610916,7.65879142 C18.468694,7.65879142 17.2996491,8.53575049 17.2996491,9.65489279 C17.2996491,10.7740351 18.468694,11.6509942 19.9610916,11.6509942 C20.6271345,11.6509942 21.2212865,11.4693177 21.6830409,11.1766082 L29.2761793,14.0117739 L29.2761793,16.1436257 L29.2761793,16.1443275 L29.2761793,30.4038207 C28.5037037,30.679922 27.9454191,31.4111501 27.9454191,32.2775049 C27.9454191,33.3780117 28.8410136,34.2736062 29.9415205,34.2736062 C31.0420273,34.2736062 31.9376218,33.3780117 31.9376218,32.2775049 C31.9376218,31.4112281 31.3794152,30.68 30.6068616,30.4038207 L30.6068616,26.6272125 C32.517115,25.1853411 33.2017934,23.2651072 33.2317349,23.179961 C33.2556725,23.1100975 33.2683041,23.0362573 33.2683041,22.9624172 L33.2683041,18.3048733 C33.2683041,17.9376218 32.9709162,17.6395322 32.602963,17.6395322 C32.2350097,17.6395322 31.9376218,17.9376218 31.9376218,18.3048733 L31.9376218,22.8393762 C31.8225341,23.1214815 31.4226121,23.9911111 30.6068616,24.8494347 L30.6068616,16.5960234 L39.5101754,12.9318519 C39.7596881,12.8293957 39.9220273,12.5858869 39.9220273,12.3164133 L39.9220273,11.6510721 C39.9220273,11.2837427 39.6246394,10.985653 39.2566862,10.985653 Z M19.9610136,10.3202339 C19.148616,10.3202339 18.6302534,9.92631579 18.6302534,9.65489279 C18.6302534,9.38339181 19.148538,8.98955166 19.9610136,8.98955166 C20.7734893,8.98955166 21.2917739,9.38346979 21.2917739,9.65489279 C21.2917739,9.92639376 20.7734113,10.3202339 19.9610136,10.3202339 Z M29.9415205,32.942768 C29.574269,32.942768 29.2761793,32.6440546 29.2761793,32.2774269 C29.2761793,31.9107992 29.574269,31.6120858 29.9415205,31.6120858 C30.3087719,31.6120858 30.6068616,31.9107992 30.6068616,32.2774269 C30.6068616,32.6439766 30.3087719,32.942768 29.9415205,32.942768 Z M28.1064327,34.2934113 C28.4630799,34.3826121 28.68,34.7438596 28.5908772,35.1005068 L27.9255361,37.7619493 C27.8496686,38.0640156 27.5788694,38.265653 27.2807797,38.265653 C27.2275244,38.265653 27.1729435,38.2596491 27.1190643,38.245692 C26.7624172,38.1564912 26.5448733,37.7958674 26.6346979,37.4385965 L27.300039,34.777154 C27.388538,34.4211306 27.7497856,34.202885 28.1064327,34.2934113 Z M19.9610136,20.9661598 C19.8745419,20.9661598 19.7879922,20.9494737 19.7069006,20.9155556 L0.41122807,12.9311501 C0.162339181,12.828694 0,12.585809 0,12.3163353 L0,11.6509942 C0,11.2837427 0.298167641,10.985653 0.665419103,10.985653 C1.03267057,10.985653 1.33076023,11.2837427 1.33076023,11.6509942 L1.33076023,11.8718908 L19.9610136,19.5808187 L27.0246394,16.657232 C27.3632749,16.5181287 27.7538402,16.6778168 27.894269,17.0178558 C28.0346199,17.357193 27.8736062,17.7464327 27.534269,17.8868616 L20.2152047,20.9156335 C20.1340351,20.9495517 20.0474854,20.9661598 19.9610136,20.9661598 Z M27.8762573,27.782846 C28.039922,28.1122027 27.9047953,28.5107212 27.5749708,28.6736842 C26.0912281,29.4069396 23.5654581,30.2812476 19.9611696,30.2812476 C9.64865497,30.2812476 6.81684211,23.4978558 6.70105263,23.2097466 C6.66978558,23.1306043 6.65380117,23.0467836 6.65380117,22.9622612 L6.65380117,18.3047173 C6.65380117,17.9374659 6.95189084,17.6393762 7.3191423,17.6393762 C7.68639376,17.6393762 7.98448343,17.9374659 7.98448343,18.3047173 L7.98448343,22.8238596 C8.36779727,23.6569201 11.0339181,28.6618324 19.2957505,28.9253021 L19.2957505,22.9622612 C19.2957505,22.5950097 19.5938402,22.2969201 19.9610916,22.2969201 C20.3283431,22.2969201 20.6264327,22.5950097 20.6264327,22.9622612 L20.6264327,28.931306 C23.6112281,28.8321248 25.7217934,28.105575 26.9853411,27.4807797 C27.3160234,27.3177388 27.7139181,27.4534893 27.8762573,27.782846 Z M29.9415205,34.9388694 C30.3094737,34.9388694 30.6068616,35.2369591 30.6068616,35.6042105 L30.6068616,37.6003119 C30.6068616,37.9675634 30.3094737,38.265653 29.9415205,38.265653 C29.5735673,38.265653 29.2761793,37.9675634 29.2761793,37.6003119 L29.2761793,35.6042105 C29.2761793,35.2369591 29.5735673,34.9388694 29.9415205,34.9388694 Z M32.5830019,34.777154 L33.2484211,37.4385965 C33.3376218,37.7958674 33.1207018,38.1565692 32.7640546,38.245692 C32.7100975,38.2596491 32.6555945,38.265653 32.6023392,38.265653 C32.3042495,38.265653 32.0334503,38.0640156 31.9575828,37.7619493 L31.2922417,35.1005068 C31.2030409,34.7438596 31.419961,34.3825341 31.7766082,34.2934113 C32.1318519,34.2035867 32.4938791,34.4212086 32.5830019,34.777154 Z"></path>
            </mask>
            <path d="M39.2566862,10.985653 C38.8887329,10.985653 38.591345,11.2837427 38.591345,11.6509942 L38.591345,11.8705653 L30.6069396,15.1568031 L30.6069396,13.9544639 L39.5108772,10.2696296 C39.7596881,10.1671735 39.9221053,9.9242885 39.9221053,9.65481481 C39.9221053,9.38534113 39.7597661,9.14315789 39.5115789,9.04 L20.2152047,1.05567251 C20.0521637,0.988460039 19.8698635,0.988460039 19.7069006,1.05567251 L0.41122807,9.04007797 C0.162339181,9.14323587 0,9.3854191 0,9.65489279 C0,9.92436647 0.162339181,10.1672515 0.41122807,10.2697076 L19.7069006,18.2541131 C19.7880702,18.2880312 19.8745419,18.3047173 19.9610916,18.3047173 C20.0476413,18.3047173 20.1341131,18.2881092 20.2152827,18.2541131 L27.1923587,15.3670955 C27.5323977,15.2273684 27.6934113,14.8381287 27.5529825,14.4980897 C27.4125536,14.1587524 27.0233138,13.9983626 26.6839766,14.1380897 L19.9610136,16.9193762 L2.40530214,9.65489279 L19.9610136,2.39040936 L37.5167251,9.65489279 L29.8776608,12.8160624 L22.5606238,10.0840546 C22.5992203,9.94565302 22.6225341,9.80327485 22.6225341,9.65489279 C22.6225341,8.53575049 21.4534893,7.65879142 19.9610916,7.65879142 C18.468694,7.65879142 17.2996491,8.53575049 17.2996491,9.65489279 C17.2996491,10.7740351 18.468694,11.6509942 19.9610916,11.6509942 C20.6271345,11.6509942 21.2212865,11.4693177 21.6830409,11.1766082 L29.2761793,14.0117739 L29.2761793,16.1436257 L29.2761793,16.1443275 L29.2761793,30.4038207 C28.5037037,30.679922 27.9454191,31.4111501 27.9454191,32.2775049 C27.9454191,33.3780117 28.8410136,34.2736062 29.9415205,34.2736062 C31.0420273,34.2736062 31.9376218,33.3780117 31.9376218,32.2775049 C31.9376218,31.4112281 31.3794152,30.68 30.6068616,30.4038207 L30.6068616,26.6272125 C32.517115,25.1853411 33.2017934,23.2651072 33.2317349,23.179961 C33.2556725,23.1100975 33.2683041,23.0362573 33.2683041,22.9624172 L33.2683041,18.3048733 C33.2683041,17.9376218 32.9709162,17.6395322 32.602963,17.6395322 C32.2350097,17.6395322 31.9376218,17.9376218 31.9376218,18.3048733 L31.9376218,22.8393762 C31.8225341,23.1214815 31.4226121,23.9911111 30.6068616,24.8494347 L30.6068616,16.5960234 L39.5101754,12.9318519 C39.7596881,12.8293957 39.9220273,12.5858869 39.9220273,12.3164133 L39.9220273,11.6510721 C39.9220273,11.2837427 39.6246394,10.985653 39.2566862,10.985653 Z M19.9610136,10.3202339 C19.148616,10.3202339 18.6302534,9.92631579 18.6302534,9.65489279 C18.6302534,9.38339181 19.148538,8.98955166 19.9610136,8.98955166 C20.7734893,8.98955166 21.2917739,9.38346979 21.2917739,9.65489279 C21.2917739,9.92639376 20.7734113,10.3202339 19.9610136,10.3202339 Z M29.9415205,32.942768 C29.574269,32.942768 29.2761793,32.6440546 29.2761793,32.2774269 C29.2761793,31.9107992 29.574269,31.6120858 29.9415205,31.6120858 C30.3087719,31.6120858 30.6068616,31.9107992 30.6068616,32.2774269 C30.6068616,32.6439766 30.3087719,32.942768 29.9415205,32.942768 Z M28.1064327,34.2934113 C28.4630799,34.3826121 28.68,34.7438596 28.5908772,35.1005068 L27.9255361,37.7619493 C27.8496686,38.0640156 27.5788694,38.265653 27.2807797,38.265653 C27.2275244,38.265653 27.1729435,38.2596491 27.1190643,38.245692 C26.7624172,38.1564912 26.5448733,37.7958674 26.6346979,37.4385965 L27.300039,34.777154 C27.388538,34.4211306 27.7497856,34.202885 28.1064327,34.2934113 Z M19.9610136,20.9661598 C19.8745419,20.9661598 19.7879922,20.9494737 19.7069006,20.9155556 L0.41122807,12.9311501 C0.162339181,12.828694 0,12.585809 0,12.3163353 L0,11.6509942 C0,11.2837427 0.298167641,10.985653 0.665419103,10.985653 C1.03267057,10.985653 1.33076023,11.2837427 1.33076023,11.6509942 L1.33076023,11.8718908 L19.9610136,19.5808187 L27.0246394,16.657232 C27.3632749,16.5181287 27.7538402,16.6778168 27.894269,17.0178558 C28.0346199,17.357193 27.8736062,17.7464327 27.534269,17.8868616 L20.2152047,20.9156335 C20.1340351,20.9495517 20.0474854,20.9661598 19.9610136,20.9661598 Z M27.8762573,27.782846 C28.039922,28.1122027 27.9047953,28.5107212 27.5749708,28.6736842 C26.0912281,29.4069396 23.5654581,30.2812476 19.9611696,30.2812476 C9.64865497,30.2812476 6.81684211,23.4978558 6.70105263,23.2097466 C6.66978558,23.1306043 6.65380117,23.0467836 6.65380117,22.9622612 L6.65380117,18.3047173 C6.65380117,17.9374659 6.95189084,17.6393762 7.3191423,17.6393762 C7.68639376,17.6393762 7.98448343,17.9374659 7.98448343,18.3047173 L7.98448343,22.8238596 C8.36779727,23.6569201 11.0339181,28.6618324 19.2957505,28.9253021 L19.2957505,22.9622612 C19.2957505,22.5950097 19.5938402,22.2969201 19.9610916,22.2969201 C20.3283431,22.2969201 20.6264327,22.5950097 20.6264327,22.9622612 L20.6264327,28.931306 C23.6112281,28.8321248 25.7217934,28.105575 26.9853411,27.4807797 C27.3160234,27.3177388 27.7139181,27.4534893 27.8762573,27.782846 Z M29.9415205,34.9388694 C30.3094737,34.9388694 30.6068616,35.2369591 30.6068616,35.6042105 L30.6068616,37.6003119 C30.6068616,37.9675634 30.3094737,38.265653 29.9415205,38.265653 C29.5735673,38.265653 29.2761793,37.9675634 29.2761793,37.6003119 L29.2761793,35.6042105 C29.2761793,35.2369591 29.5735673,34.9388694 29.9415205,34.9388694 Z M32.5830019,34.777154 L33.2484211,37.4385965 C33.3376218,37.7958674 33.1207018,38.1565692 32.7640546,38.245692 C32.7100975,38.2596491 32.6555945,38.265653 32.6023392,38.265653 C32.3042495,38.265653 32.0334503,38.0640156 31.9575828,37.7619493 L31.2922417,35.1005068 C31.2030409,34.7438596 31.419961,34.3825341 31.7766082,34.2934113 C32.1318519,34.2035867 32.4938791,34.4212086 32.5830019,34.777154 Z" fill="#000000" fill-rule="nonzero"></path>
        </g>
    </g>
</svg>
