<svg width="38" height="39" viewBox="0 0 38 39" xmlns="http://www.w3.org/2000/svg">
    <title>
        filter-category-3
    </title>
    <path d="M25.594 25.615c.546-1.804.854-3.825.896-5.93h4.72a12.116 12.116 0 0 1-1.863 5.93h-3.753zm-2.73 5.085c.568-.6 1.093-1.343 1.561-2.218.292-.545.554-1.127.787-1.741h3.332a12.243 12.243 0 0 1-5.68 3.96zm-2.943.586c-.11.008-.22.015-.331.02V26.74h4.412c-.175.422-.364.826-.57 1.209-.984 1.84-2.208 2.994-3.511 3.336zm-.331-11.6h5.774c-.044 2.124-.371 4.152-.949 5.93H19.59v-5.93zm-1.126-8.031h-4.262c.174-.423.364-.827.569-1.21 1.03-1.924 2.322-3.099 3.693-3.378v4.588zm0 6.905h-5.62c.055-2.07.38-4.044.945-5.78h4.675v5.78zm0 7.055h-4.675c-.578-1.777-.905-3.805-.949-5.93h5.624v5.93zm0 5.69a11.184 11.184 0 0 1-.133-.006c-1.321-.327-2.564-1.487-3.56-3.349a13.361 13.361 0 0 1-.569-1.21h4.262v4.566zM9.51 26.742h3.482c.232.614.495 1.196.786 1.74.487.91 1.035 1.677 1.628 2.29a12.237 12.237 0 0 1-5.896-4.03zm-2.666-7.055h4.87c.041 2.104.35 4.125.896 5.93H8.706a12.116 12.116 0 0 1-1.862-5.93zm1.769-6.906h3.997c-.533 1.761-.84 3.73-.893 5.78H6.844c.096-2.11.73-4.08 1.769-5.78zm7.01-5.37c-.677.645-1.299 1.484-1.845 2.504a14.807 14.807 0 0 0-.786 1.74H9.39a12.235 12.235 0 0 1 6.232-4.244zm14.463 4.283l-.934.628a12.124 12.124 0 0 1 2.057 6.239H19.59v-5.78h1.84v-1.125h-1.84V6.94c.682.03 1.36.118 2.021.26l.238-1.1c-.922-.199-1.87-.3-2.821-.3-7.346 0-13.323 5.977-13.323 13.323 0 2.808.875 5.416 2.365 7.567v.05h.035c2.255 3.224 5.897 5.407 10.054 5.676a4.333 4.333 0 0 0 1.948-.015c6.843-.551 12.243-6.296 12.243-13.278 0-2.662-.782-5.231-2.263-7.43zm6.715 8.764l1.122.085c-.029.385-.07.772-.122 1.153l-1.116-.153c.05-.359.088-.724.116-1.085zm-.857 4.268l1.069.355c-.122.365-.256.731-.4 1.089l-1.044-.42c.135-.336.261-.68.375-1.024zm-.813 2.021l1.017.484c-.165.346-.343.693-.53 1.03l-.984-.545c.175-.317.342-.643.497-.969zm1.373-4.129l1.104.222c-.076.377-.165.757-.263 1.13l-1.089-.29c.093-.35.176-.706.248-1.062zM3.86 28.59c.193.307.398.611.61.906l-.915.657a19.08 19.08 0 0 1-.647-.963l.952-.6zm6.232 5.99c.314.181.637.354.961.515l-.5 1.008a19.031 19.031 0 0 1-1.022-.547l.561-.975zm-1.819-1.2c.29.218.59.429.892.628l-.62.94a19.06 19.06 0 0 1-.948-.667l.676-.9zm-1.661-1.413c.26.251.533.497.81.732l-.73.858c-.294-.25-.583-.511-.86-.778l.78-.812zm-1.479-1.604c.23.28.47.558.715.825l-.828.763a19.167 19.167 0 0 1-.76-.877l.873-.711zm6.91 5.186c.333.14.675.273 1.016.393l-.374 1.062a18.931 18.931 0 0 1-1.08-.418l.438-1.037zm4.185 1.189c.358.055.722.1 1.083.134l-.105 1.12c-.383-.035-.77-.083-1.15-.142l.172-1.112zm-2.13-.466c.348.099.704.188 1.058.265l-.24 1.1a18.798 18.798 0 0 1-1.126-.282l.308-1.083zm5.393.67l.032 1.126a19.329 19.329 0 0 1-1.16-.003l.037-1.125c.362.012.731.013 1.091.003zm2.173-.192l.167 1.114c-.38.057-.767.103-1.151.137l-.1-1.121c.362-.032.726-.076 1.084-.13zm2.132-.455l.303 1.085c-.37.103-.75.196-1.127.277l-.235-1.101c.354-.076.71-.164 1.06-.26zm-21.79-11.65c.114.345.239.69.372 1.028l-1.046.415a18.926 18.926 0 0 1-.395-1.093l1.07-.35zm-1.73-8.813l1.11.192c-.061.357-.113.72-.153 1.08L.115 16.98c.043-.383.097-.77.163-1.149zm2.407-6.484l.966.578c-.186.31-.365.631-.531.952l-1-.518c.177-.341.367-.682.565-1.012zm-1.066 2.056l1.03.456c-.147.33-.285.67-.41 1.009l-1.056-.392c.134-.36.28-.722.436-1.073zm-.806 2.172l1.077.326c-.104.347-.2.701-.283 1.053L.51 14.695c.089-.375.19-.751.302-1.12zm3.18-6.14l.89.691c-.223.286-.44.583-.644.881l-.929-.636c.217-.317.447-.632.683-.936zm-2.82 12.938c.025.361.062.726.11 1.085l-1.116.148c-.05-.381-.09-.77-.118-1.153l1.123-.08zm-.024-2.182a18.373 18.373 0 0 0-.021 1.091L0 19.294a19.612 19.612 0 0 1 .022-1.159l1.125.056zm.31 4.343c.07.356.152.714.243 1.064l-1.09.283a18.947 18.947 0 0 1-.257-1.13l1.104-.217zM19.106.096c.385.003.775.017 1.16.043l-.076 1.123a17.977 17.977 0 0 0-1.09-.04l.006-1.126zm-5.715.839l.332 1.076c-.347.106-.695.226-1.034.353l-.397-1.053c.36-.136.73-.263 1.1-.376zm4.556-.811l.061 1.124c-.362.02-.728.05-1.087.092L16.792.222c.382-.044.77-.077 1.155-.098zM2.813 26.674c.155.328.321.656.495.974l-.988.54a19.008 19.008 0 0 1-.526-1.035l1.02-.479zM15.645.39l.197 1.109c-.356.063-.715.138-1.068.224L14.51.627c.374-.09.756-.17 1.135-.238zm22.07 15.53c.064.379.117.766.157 1.149l-1.12.118a17.85 17.85 0 0 0-.147-1.081l1.11-.187zM7.255 4.153l.697.885c-.285.224-.566.46-.837.7l-.749-.84c.288-.257.587-.507.89-.745zm29.936 9.505c.11.37.21.747.297 1.122l-1.097.254a17.764 17.764 0 0 0-.279-1.055l1.08-.321zM9.163 2.833l.583.963c-.31.188-.618.387-.916.594l-.641-.926c.317-.22.644-.432.974-.631zM5.524 5.696l.798.793a18.14 18.14 0 0 0-.745.797l-.845-.744c.254-.289.52-.573.792-.846zm5.694-3.942l.461 1.027c-.33.149-.661.31-.982.478l-.524-.997c.342-.18.693-.35 1.045-.508zm20.096 30.262l.776.815a19.19 19.19 0 0 1-.863.774l-.726-.86c.277-.234.55-.479.813-.729zm2.763-3.363l.95.604c-.206.324-.425.647-.65.958l-.912-.66c.212-.293.418-.597.612-.902zm-1.279 1.765l.87.715c-.244.297-.5.59-.763.873l-.825-.766c.247-.266.488-.542.718-.822zM25.86 35.58l.434 1.04c-.356.148-.722.287-1.086.413l-.369-1.064c.343-.119.686-.25 1.021-.39zm1.96-.963l.557.979c-.335.19-.68.373-1.026.543l-.496-1.01c.325-.16.65-.332.965-.512zm1.827-1.194l.672.903c-.31.23-.63.454-.951.664l-.616-.942c.303-.198.604-.408.895-.625zm8.313-15.198a19.637 19.637 0 0 1 .017 1.16l-1.125-.018a18.676 18.676 0 0 0-.016-1.092l1.124-.05zm-4.292-7.32l-.59 2.03-.553-.372-.45-1.753-8.317-5.517a.932.932 0 0 1-.397-.599.939.939 0 0 1 1.442-.96L33.118 9.4l1.793-.242.545.367-1.789 1.38zM25.19 14.4l-.4-.27 1.386-5.883 1.658 1.1-2.644 5.053zM33.383 1.37l.4.27-3.682 4.343-1.643-1.12 4.925-3.493zm1.801 6.615l-1.79.242-2.357-1.607 4.419-5.212L33.366 0l-5.9 4.186-2.032-1.384a2.066 2.066 0 0 0-3.179 2.108c.106.541.416 1.009.876 1.319l2.044 1.356-1.66 7.046 2.09 1.407 3.172-6.064 2.314 1.535.45 1.749 2.186 1.472.919-3.159 2.733-2.11-2.195-1.477z" fill="#000" fill-rule="evenodd"/>
</svg>
