<svg width="38" height="36" viewBox="0 0 38 36" xmlns="http://www.w3.org/2000/svg">
    <title>
        filter-category-7
    </title>
    <path d="M22.8 21.474a.632.632 0 1 1 0 1.263H6.333a.632.632 0 1 1 0-1.263H22.8zM6.333 15.158a.632.632 0 1 1 0-1.263h8.234a.632.632 0 1 1 0 1.263H6.333zM22.8 17.684a.632.632 0 1 1 0 1.263H6.333a.632.632 0 1 1 0-1.263H22.8zm13.933.09a2.488 2.488 0 0 1-2.489 2.48h-1.31a.632.632 0 0 0-.634.632v5.315l-3.167-3.474V11.324a3.755 3.755 0 0 0-3.757-3.745l-15.243.031V4.376a2.488 2.488 0 0 1 2.488-2.482l21.623.044h.001a2.488 2.488 0 0 1 2.489 2.483v13.352zm-8.866 6.903a2.488 2.488 0 0 1-2.492 2.481l-10.81.044a.634.634 0 0 0-.467.206l-5.231 5.74v-5.314a.632.632 0 0 0-.634-.632H3.756a2.488 2.488 0 0 1-2.49-2.481V11.369a2.489 2.489 0 0 1 2.49-2.483L9.5 8.874h.001l15.877-.032a2.488 2.488 0 0 1 2.489 2.482v13.353zM34.246.676L12.622.632a3.755 3.755 0 0 0-3.755 3.745v3.236l-5.111.01A3.755 3.755 0 0 0 0 11.37v13.352a3.754 3.754 0 0 0 3.756 3.745H7.6v6.316a.632.632 0 0 0 1.102.425l6.146-6.742 10.53-.043a3.754 3.754 0 0 0 3.755-3.745v-.071l3.332 3.654a.635.635 0 0 0 1.102-.425V21.52h.677A3.754 3.754 0 0 0 38 17.775V4.42A3.755 3.755 0 0 0 34.246.676z" fill="#000" fill-rule="evenodd"/>
</svg>
