<?xml version="1.0" encoding="UTF-8"?><!DOCTYPE svg PUBLIC "-//W3C//DTD SVG 1.1//EN" "http://www.w3.org/Graphics/SVG/1.1/DTD/svg11.dtd"><svg xmlns="http://www.w3.org/2000/svg" xmlns:xlink="http://www.w3.org/1999/xlink"><defs>
        <path d="M10 14.996L11 16l4.5-4.5L11 7l-1 1 3 3H3v1h10l-3 2.996zM19 3H5a2 2 0 0 0-2 2v4h1V5a1 1 0 0 1 1-1h14a1 1 0 0 1 1 1v13a1 1 0 0 1-1 1H5a1 1 0 0 1-1-1v-4H3v4a2 2 0 0 0 2 2h14a2 2 0 0 0 2-2V5a2 2 0 0 0-2-2z" id="a"/>
    
        <path d="M20.905 16.031a1.19 1.19 0 0 0-.061-.114c-.313-.548-.91-1.22-1.79-2.017l-.028-.027c-.42-.38-.672-.63-.778-.758-.194-.243-.238-.49-.132-.739.075-.189.357-.587.844-1.195.256-.323.459-.581.609-.776 1.08-1.4 1.55-2.293 1.406-2.683l-.056-.09c-.188-.151-.461-.101-.461-.108a16.559 16.559 0 0 0-.563 0h-2.816a.162.162 0 0 0-.106.007l-.037.027a.412.412 0 0 0-.103.096.622.622 0 0 0-.094.16 14.73 14.73 0 0 1-1.003 2.053c-.23.377-.443.704-.637.981a4.74 4.74 0 0 1-.487.611 3.37 3.37 0 0 1-.357.315c-.106.08-.187.113-.243.1a7.024 7.024 0 0 1-.16-.036.613.613 0 0 1-.21-.224.982.982 0 0 1-.108-.356 3.823 3.823 0 0 1-.033-.37 7.518 7.518 0 0 1 .005-.437c.006-.189.01-.317.01-.383 0-.232.004-.483.013-.753.01-.271.017-.486.024-.644.006-.158.009-.325.009-.502 0-.176-.011-.314-.033-.415a1.394 1.394 0 0 0-.098-.292.496.496 0 0 0-.192-.219 1.1 1.1 0 0 0-.314-.123c-.331-.073-.753-.113-1.265-.119-1.162-.012-1.91.061-2.24.22-.131.066-.25.158-.356.273-.113.134-.128.207-.047.219.375.055.64.186.796.392l.057.11c.043.08.087.22.13.42.045.2.073.423.085.666.031.444.031.824 0 1.14-.031.317-.06.563-.089.74a1.45 1.45 0 0 1-.239.63.16.16 0 0 1-.047.045.719.719 0 0 1-.253.046c-.087 0-.193-.043-.318-.128a2.227 2.227 0 0 1-.39-.352 4.7 4.7 0 0 1-.454-.625 10.819 10.819 0 0 1-.525-.949l-.15-.264c-.093-.17-.221-.419-.384-.744-.162-.326-.306-.64-.43-.945a.603.603 0 0 0-.226-.292l-.047-.027a.647.647 0 0 0-.15-.078 1.015 1.015 0 0 0-.215-.059L3.6 7.457c-.262 0-.44.058-.534.174l-.038.054A.289.289 0 0 0 3 7.832c0 .066.019.149.056.246.375.858.783 1.685 1.223 2.482.44.797.823 1.439 1.148 1.925.325.487.656.947.994 1.378.337.432.56.71.67.83.11.123.195.214.257.275l.235.219c.15.146.37.32.66.524.291.204.613.405.966.603.353.197.764.359 1.232.483a4.37 4.37 0 0 0 1.369.151h1.077c.219-.018.385-.085.497-.2l.037-.047a.596.596 0 0 0 .07-.168.904.904 0 0 0 .033-.251 2.93 2.93 0 0 1 .061-.707c.047-.21.1-.368.16-.475a1.168 1.168 0 0 1 .36-.401.62.62 0 0 1 .075-.032c.15-.049.327-.002.53.141s.394.32.572.53c.178.21.392.445.642.707.25.261.468.456.656.584l.187.11c.125.072.288.14.488.2.2.061.374.076.524.046l2.4-.037c.237 0 .421-.038.552-.114.132-.076.21-.16.235-.25a.689.689 0 0 0 .004-.311 1.122 1.122 0 0 0-.065-.242z" id="a"/>
    </defs><symbol id="ico-add-attachment" viewBox="0 0 14 14">
    <title>
        add-attachment
    </title>
    <path d="M8.102 8.102v4.407A1.1 1.1 0 0 1 7 13.614a1.109 1.109 0 0 1-1.102-1.105V8.102H1.49A1.1 1.1 0 0 1 .386 7c0-.609.503-1.102 1.105-1.102h4.407V1.49A1.1 1.1 0 0 1 7 .386c.609 0 1.102.503 1.102 1.105v4.407h4.407A1.1 1.1 0 0 1 13.614 7c0 .609-.503 1.102-1.105 1.102H8.102z" fill-rule="evenodd"/>
</symbol><symbol id="ico-add" viewBox="0 0 8 8">
    <title>
        add
    </title>
    <path d="M5 3h3v2H5v3H3V5H0V3h3V0h2v3z" fill-rule="evenodd"/>
</symbol><symbol id="ico-arrow-left" viewBox="0 0 8 12">
    <title>
        arrow-left
    </title>
    <path fill-rule="nonzero" d="M7.41 10.59L6 12 0 6l6-6 1.41 1.41L2.83 6z"/>
</symbol><symbol id="ico-arrow-right" viewBox="0 0 8 12">
    <title>
        arrow-right
    </title>
    <path fill-rule="nonzero" d="M0 10.59L4.58 6 0 1.41 1.41 0l6 6-6 6z"/>
</symbol><symbol id="ico-bell" viewBox="0 0 12 12">
    <title>
        bell
    </title>
    <path d="M6.282 1.157a.07.07 0 0 0 .007-.027.039.039 0 0 0-.039-.04.039.039 0 0 0-.038.04.07.07 0 0 0 .006.027l.032.078.032-.078zm-.486.75c-1.242.184-2.105 1.152-2.105 2.145 0 2.477-.672 4.096-1.86 5.237a.23.23 0 0 0 .154.062h3.257v.545c0 .557.454 1.013 1.008 1.013.555 0 1.009-.456 1.009-1.013v-.545h3.257a.23.23 0 0 0 .154-.062c-1.188-1.14-1.86-2.76-1.86-5.237 0-.993-.864-1.961-2.106-2.145L6.25 1.84l-.454.067zm4.1 2.145c0 2.338.633 3.704 1.745 4.648l.193.164v.253c0 .727-.594 1.325-1.318 1.325H8.273A2.1 2.1 0 0 1 6.25 12a2.1 2.1 0 0 1-2.022-1.558H1.985A1.327 1.327 0 0 1 .667 9.117v-.253L.859 8.7c1.113-.944 1.746-2.31 1.746-4.648 0-1.394 1.035-2.689 2.538-3.118C5.235.404 5.696 0 6.25 0c.555 0 1.016.404 1.108.934 1.503.43 2.537 1.724 2.537 3.118z" fill-rule="nonzero"/>
</symbol><symbol id="ico-black-list" viewBox="0 0 18 18">
    <title>
        black-list
    </title>
    <path d="M9 16A7 7 0 1 0 9 2a7 7 0 0 0 0 14zm0 2A9 9 0 1 1 9 0a9 9 0 0 1 0 18zm-7.071-3.343L14.657 1.929l1.414 1.414L3.343 16.071 1.93 14.657z" fill-rule="nonzero"/>
</symbol><symbol id="ico-bookmark" viewBox="0 0 14 18">
    <title>
        bookmark
    </title>
    <path d="M12 0H2C.9 0 .01.9.01 2L0 18l7-3 7 3V2c0-1.1-.9-2-2-2z" fill-rule="nonzero"/>
</symbol><symbol id="ico-camera-add" viewBox="0 0 22 20">
    <title>
        camera-add
    </title>
    <path d="M3 9v9c0 .548.452 1 1 1h16c.548 0 1-.452 1-1V7c0-.548-.452-1-1-1h-3.61l-1.83-2H9v2H6v3H3zm2-1V5h3V3h7l1.83 2H20c1.1 0 2 .9 2 2v11c0 1.1-.9 2-2 2H4c-1.1 0-2-.9-2-2V8h3zM3 3V0h1v3h3v1H4v3H3V4H0V3h3zm4 9c0 2.766 2.234 5 5 5s5-2.234 5-5-2.234-5-5-5-5 2.234-5 5zm1 0c0-2.213 1.787-4 4-4s4 1.787 4 4c0 2.212-1.787 4-4 4s-4-1.788-4-4zm1 0c0-1.66 1.34-3 3-3s3 1.34 3 3-1.34 3-3 3-3-1.34-3-3zm1 0c0 1.107.893 2 2 2s2-.893 2-2-.893-2-2-2-2 .893-2 2z" fill-rule="nonzero"/>
</symbol><symbol id="ico-camera" viewBox="0 0 18 15">
    <title>
        camera
    </title>
    <path d="M15.92 14.222H2.08A2.082 2.082 0 0 1 0 12.142V3.705c0-1.147.933-2.08 2.08-2.08h2.824l.247-.834C5.252.335 5.67 0 6.16 0h5.68c.477 0 .899.333 1.01.795l.007.029.225.801h2.838c1.147 0 2.08.933 2.08 2.08v8.436c0 1.148-.934 2.08-2.08 2.08zM2.08 2.318c-.765 0-1.387.622-1.387 1.387v8.436c0 .765.622 1.387 1.387 1.387h13.84c.764 0 1.386-.622 1.386-1.387V3.705c0-.765-.622-1.387-1.387-1.387h-3.362l-.38-1.353a.348.348 0 0 0-.337-.272H6.16a.344.344 0 0 0-.338.272L5.42 2.318h-3.34zM9 12.126a4.405 4.405 0 0 1-4.4-4.4c0-2.427 1.974-4.4 4.4-4.4s4.4 1.974 4.4 4.4-1.974 4.4-4.4 4.4zm0-8.107a3.711 3.711 0 0 0-3.707 3.707A3.71 3.71 0 0 0 9 11.432a3.71 3.71 0 0 0 3.707-3.706A3.71 3.71 0 0 0 9 4.019zm6.472-.414a.64.64 0 1 0 0 1.28.64.64 0 0 0 0-1.28z" fill-rule="nonzero"/>
</symbol><symbol id="ico-checkmark" viewBox="0 0 9 7">
    <title>
        checkmark
    </title>
    <path d="M1.154 2.497l2.119 2.147L7.846 0 9 1.174 3.273 7 0 3.67z" fill-rule="nonzero"/>
</symbol><symbol id="ico-close" viewBox="0 0 12 12">
    <title>
        close
    </title>
    <path d="M7.56 5.854L12 10.293l-1.415 1.414-4.439-4.44-4.439 4.44-1.414-1.414 4.44-4.44-4.44-4.438L1.707 0l4.44 4.439L10.584 0 12 1.416 7.56 5.854z" fill-rule="evenodd"/>
</symbol><symbol id="ico-comments" viewBox="0 0 10 8">
    <title>
        comments
    </title>
    <path d="M7.988 5.361l.045-.042c.6-.524.946-1.263.946-2.06C8.979 1.727 7.694.484 6.11.484S3.244 1.726 3.244 3.259c0 1.52 1.263 2.757 2.83 2.776l1.203.014.711-.688zM6.111 0C7.982 0 9.5 1.46 9.5 3.26c0 .96-.43 1.823-1.117 2.42L6.068 7.908V6.52c-1.851-.022-3.345-1.473-3.345-3.26C2.723 1.46 4.24 0 6.111 0zm-2.84 6.412l.434-.42c.177.144.367.273.569.384L2.586 8V6.643C1.409 6.47.5 5.483.5 4.308c0-1.197.93-2.187 2.132-2.34-.092.228-.16.466-.2.712-.722.216-1.248.864-1.248 1.628 0 .928.784 1.692 1.748 1.703l.338.005v.396z" fill-rule="nonzero"/>
</symbol><symbol id="ico-credit-card" viewBox="0 0 20 14">
    <title>
        credit-card
    </title>
    <path d="M.009 2L0 12a2 2 0 0 0 2 2.001L18 14a2 2 0 0 0 2-2V2a2 2 0 0 0-2-2L2.01.001A2 2 0 0 0 .01 2zM18 13H2a1 1 0 0 1-1-1V6h18v6a1 1 0 0 1-1 1zm1-9H1V2a1 1 0 0 1 1-1h16a1 1 0 0 1 1 1v2z" fill-rule="nonzero"/>
</symbol><symbol id="ico-crown" viewBox="0 0 20 14">
    <title>
        crown
    </title>
    <path d="M18.76 4.568c-.684 0-1.238.604-1.238 1.349 0 .132.017.26.05.38l-1.503.699-1.086-3.079-2.657 1.592-1.584-2.988c.373-.232.626-.67.626-1.172 0-.745-.555-1.349-1.24-1.349C9.444 0 8.89.604 8.89 1.349c0 .502.252.94.626 1.172L7.911 5.546 5.193 3.917 4.118 6.963l-1.69-.786c.033-.12.05-.248.05-.38 0-.745-.554-1.349-1.239-1.349C.555 4.448 0 5.052 0 5.797s.555 1.349 1.24 1.349c.206 0 .4-.055.572-.153L5.516 14h9.224l3.602-6.813c.131.05.272.079.419.079.684 0 1.239-.604 1.239-1.35 0-.744-.555-1.348-1.24-1.348zm-4.417 1.254l.6 1.698-1.243.578-.761-1.435 1.404-.841zm-8.51 0l1.465.878-.741 1.398-1.312-.61.588-1.666zm8.2 6.845H6.223L3.93 8.325l3.145 1.463 3.054-5.757 3.054 5.757 3.146-1.463-2.296 4.342z" fill-rule="nonzero"/>
</symbol><symbol id="ico-dislike" viewBox="0 0 18 16">
    <title>
        dislike
    </title>
    <path d="M0 0v9.6h2V0H0zm18 8.8V7.2c0-.208-.04-.4-.115-.584l-2.47-5.64A1.626 1.626 0 0 0 13.909 0H5.545C4.645 0 4 .72 4 1.6v8c0 .44.09.84.392 1.128L10.775 16l.868-.84c.22-.216.36-.52.36-.848l-.025-.256-.777-3.656h5.163c.9 0 1.636-.72 1.636-1.6z" fill-rule="nonzero"/>
</symbol><symbol id="ico-dollar-sign" viewBox="0 0 11 18">
    <title>
        dollar-sign
    </title>
    <path d="M5.48 7.9c-2.27-.59-3-1.2-3-2.15 0-1.09 1.01-1.85 2.7-1.85 1.78 0 2.44.85 2.5 2.1h2.21c-.07-1.72-1.12-3.3-3.21-3.81V0h-3v2.16C1.74 2.58.18 3.84.18 5.77c0 2.31 1.91 3.46 4.7 4.13 2.5.6 3 1.48 3 2.41 0 .69-.49 1.79-2.7 1.79-2.06 0-2.87-.92-2.98-2.1H0c.12 2.19 1.76 3.42 3.68 3.83V18h3v-2.15c1.95-.37 3.5-1.5 3.5-3.55 0-2.84-2.43-3.81-4.7-4.4z" fill-rule="nonzero"/>
</symbol><symbol id="ico-eye" viewBox="0 0 10 6">
    <title>
        eye
    </title>
    <path d="M5 5.5c1.404 0 2.698-.815 3.893-2.5C7.698 1.315 6.403.5 5 .5 3.596.5 2.302 1.315 1.107 3 2.302 4.685 3.597 5.5 5 5.5zM.5 3C1.833 1 3.333 0 5 0c1.667 0 3.167 1 4.5 3C8.167 5 6.667 6 5 6 3.333 6 1.833 5 .5 3zM5 4a1 1 0 1 0 0-2 1 1 0 0 0 0 2zm0 .5a1.5 1.5 0 1 1 0-3 1.5 1.5 0 0 1 0 3z" fill-rule="nonzero"/>
</symbol><symbol id="ico-facebook" viewBox="0 0 9 18">
    <title>
        facebook
    </title>
    <path d="M6 6V4.2C6 3.42 6.18 3 7.44 3H9V0H6.6c-3 0-4.2 1.98-4.2 4.2V6H0v3h2.4v9H6V9h2.64L9 6H6z" fill-rule="nonzero"/>
</symbol><symbol id="ico-filter" viewBox="0 0 18 17">
    <title>
        filter
    </title>
    <path d="M0 2h9v1H0V2zm15 0h3v1h-3V2zm-1.5 2a1.5 1.5 0 1 0 0-3 1.5 1.5 0 0 0 0 3zm0 1a2.5 2.5 0 1 1 0-5 2.5 2.5 0 0 1 0 5zM0 14h6v1H0v-1zm12 0h6v1h-6v-1zm-1.5 2a1.5 1.5 0 1 0 0-3 1.5 1.5 0 0 0 0 3zm0 1a2.5 2.5 0 1 1 0-5 2.5 2.5 0 0 1 0 5zM0 8h3v1H0V8zm8 0h10v1H8V8zm-3.5 2a1.5 1.5 0 1 0 0-3 1.5 1.5 0 0 0 0 3zm0 1a2.5 2.5 0 1 1 0-5 2.5 2.5 0 0 1 0 5z" fill-rule="nonzero"/>
</symbol><symbol id="ico-flag" viewBox="0 0 15 17">
    <path d="M9 2L8 0H0v17h1v-7h6l1 2h7V2H9zm5 9H9L8 9H1V1h6l1 2h6v8z"/>
</symbol><symbol id="ico-gear" viewBox="0 0 16 16">
    <title>
        gear
    </title>
    <path d="M13.521 3.565l-2.025.815-.452-.345a4.858 4.858 0 0 0-1.122-.65L9.39 3.17 9.31 2.6 9.083 1H6.927L6.62 3.169l-.532.217c-.385.157-.76.376-1.125.652l-.451.34-.525-.21-1.498-.603-1.08 1.87 1.742 1.36-.094.583A4.021 4.021 0 0 0 3 8c0 .212.017.429.047.622l.094.583-.465.363-1.277.997 1.08 1.87 2.025-.815.452.345c.364.277.728.488 1.122.65l.532.216.08.569.225 1.6h2.158l.307-2.169.532-.217c.385-.157.76-.376 1.125-.652l.451-.34.525.21 1.498.603 1.082-1.872-1.703-1.346.067-.556C12.985 8.425 13 8.209 13 8c0-.218-.016-.425-.047-.622l-.094-.583.465-.363 1.277-.997-1.08-1.87zm-.265-.46a.634.634 0 0 0 .01.019l-.01-.018zM.996 5.113l.017.013a.537.537 0 0 0-.017-.013zm1.748 7.782a.634.634 0 0 0-.01-.018l.01.018zM9 15.52l.006-.043A.5.5 0 0 0 9 15.52zm4.254-2.64l.01-.016a.533.533 0 0 0-.01.016zM15 10.885l-.022-.017a.517.517 0 0 0 .022.017zM13.95 8.78l1.67 1.32c.16.12.2.33.1.51l-1.6 2.77c-.1.18-.31.25-.49.18l-1.99-.8c-.41.31-.86.58-1.35.78l-.3 2.12c-.02.2-.19.34-.39.34H6.4c-.2 0-.36-.14-.4-.34l-.3-2.12c-.49-.2-.93-.46-1.35-.78l-1.99.8c-.18.06-.39 0-.49-.18l-1.6-2.77a.413.413 0 0 1 .1-.51l1.69-1.32C2.02 8.53 2 8.26 2 8s.03-.53.07-.78L.38 5.9a.388.388 0 0 1-.1-.51l1.6-2.77c.1-.18.31-.25.49-.18l1.99.8c.41-.31.86-.58 1.35-.78l.3-2.12C6.04.14 6.2 0 6.4 0h3.2c.2 0 .37.14.4.34l.3 2.12c.49.2.93.46 1.35.78l1.99-.8c.18-.06.39 0 .49.18l1.6 2.77c.09.17.05.39-.1.51l-1.69 1.32c.04.25.06.51.06.78s-.02.53-.05.78zM8 10a2 2 0 1 0 0-4 2 2 0 0 0 0 4zm0 1a3 3 0 1 1 0-6 3 3 0 0 1 0 6z" fill-rule="nonzero"/>
</symbol><symbol id="ico-gplus" viewBox="0 0 18 12">
    <title>
        gplus
    </title>
    <path d="M6.305 7.258a.394.394 0 0 1-.385-.402V5.383c0-.222.172-.402.385-.402h5.191s-.003 1.337-.007 1.377c-.168 3.156-2.673 5.662-5.74 5.662C2.56 12.02-.022 9.31 0 5.978.022 2.669 2.694-.043 5.864.02c1.486.03 2.833.65 3.838 1.643.16.16.16.427-.001.585L8.67 3.262a.375.375 0 0 1-.526.002 3.471 3.471 0 0 0-2.395-.966c-2.014 0-3.643 1.75-3.564 3.87.074 1.977 1.641 3.56 3.537 3.575 1.563.012 2.898-1.03 3.39-2.485H6.306zM16 5h1.97v2.03H16V9h-2V7.03L12 7V5l2-.02V3h2v2z" fill-rule="nonzero"/>
</symbol><symbol id="ico-instagram" viewBox="0 0 18 18">
    <title>
        instagram
    </title>
    <path d="M5 0h8a5 5 0 0 1 5 5v8a5 5 0 0 1-5 5H5a5 5 0 0 1-5-5V5a5 5 0 0 1 5-5zm.5 1.5a4 4 0 0 0-4 4v7a4 4 0 0 0 4 4h7a4 4 0 0 0 4-4v-7a4 4 0 0 0-4-4h-7zM14 5a1 1 0 1 1 0-2 1 1 0 0 1 0 2zm-5 8.5a4.5 4.5 0 1 1 0-9 4.5 4.5 0 0 1 0 9zM9 12a3 3 0 1 0 0-6 3 3 0 0 0 0 6z" fill-rule="evenodd"/>
</symbol><symbol id="ico-location" viewBox="0 0 14 20">
    <title>
        location
    </title>
    <path d="M8.842 14.35c.95-1.407 1.73-2.765 2.282-4.017C11.702 9.02 12 7.885 12 7c0-2.765-2.235-5-5-5S2 4.235 2 7c0 .885.298 2.02.876 3.333.552 1.252 1.333 2.61 2.282 4.017.588.871 1.211 1.72 1.842 2.522.63-.803 1.254-1.65 1.842-2.522zM7 0c3.87 0 7 3.13 7 7 0 5.25-7 13-7 13S0 12.25 0 7c0-3.87 3.13-7 7-7zm0 9.5a2.5 2.5 0 0 1 0-5 2.5 2.5 0 0 1 0 5z" fill-rule="nonzero"/>
</symbol><symbol id="ico-lock" viewBox="0 0 14 18">
    <title>
        lock
    </title>
    <path d="M7 13c.55 0 1-.45 1-1s-.45-1-1-1-1 .45-1 1 .45 1 1 1zm4.017-7V4c0-2.667-1.337-3.997-4.009-3.99C4.336.003 3 1.333 3 4h.993c0-1.991 1.013-2.997 3.015-2.997 2.002 0 3.015 1 3.015 2.997v2H2a2 2 0 0 0-2 2v8a2 2 0 0 0 2 2h10a2 2 0 0 0 2-2V8a2 2 0 0 0-2-2h-.983zM12 17H2.004a1 1 0 0 1-1-1V7.944a1 1 0 0 1 1-1H12a1 1 0 0 1 1 1V16a1 1 0 0 1-1 1z" fill-rule="nonzero"/>
</symbol><symbol id="ico-logout" viewBox="0 0 18 17">
    <title>
        logout
    </title>
    
    <use fill-rule="nonzero" xlink:href="#a" transform="translate(-3 -3)"/>
</symbol><symbol id="ico-menu-bookmarks" viewBox="0 0 15 16">
    <title>
        menu-bookmarks
    </title>
    <path d="M2.2 10.579l-1.2.898V.997h9v.5a.5.5 0 0 0 1 0V.5A.5.5 0 0 0 10.5 0H.5a.5.5 0 0 0-.5.5v11.975a.5.5 0 0 0 .8.399l2-1.497a.5.5 0 0 0-.6-.799zM14 14.43l-4.188-3.344a.5.5 0 0 0-.624 0L5 14.431V3.99h9v10.44zm.5-11.416h-10c-.276 0-.5.202-.5.478V15.47a.5.5 0 0 0 .812.39L9.5 12.116l4.688 3.743a.496.496 0 0 0 .528.06.5.5 0 0 0 .284-.45V3.493c0-.276-.224-.478-.5-.478z" fill-rule="evenodd"/>
</symbol><symbol id="ico-menu-events" viewBox="0 0 16 16">
    <title>
        menu-events
    </title>
    <path d="M2.5 8a.5.5 0 0 0-.5-.5H.5a.5.5 0 1 0 0 1H2a.5.5 0 0 0 .5-.5zm13-.5H14a.5.5 0 1 0 0 1h1.5a.5.5 0 1 0 0-1zm-7.5 6a.5.5 0 0 0-.5.5v1.5a.5.5 0 1 0 1 0V14a.5.5 0 0 0-.5-.5zm0-11a.5.5 0 0 0 .5-.5V.5a.5.5 0 1 0-1 0V2a.5.5 0 0 0 .5.5zm1.416 6.209L7.291 6.584l6.021-3.896-3.896 6.021zm-6.729 4.604l3.897-6.022 2.125 2.125-6.021 3.897zM15.354.646a.5.5 0 0 0-.625-.066l-8.5 5.5c-.015.01-.022.025-.036.036-.015.011-.033.017-.046.03-.014.014-.02.032-.031.047-.011.013-.027.021-.036.036l-5.5 8.5a.5.5 0 0 0 .691.691l8.5-5.5c.014-.01.023-.025.036-.036.015-.011.033-.017.046-.03.014-.014.02-.031.031-.046.011-.014.027-.022.036-.037l5.5-8.5a.5.5 0 0 0-.066-.625z" fill-rule="evenodd"/>
</symbol><symbol id="ico-menu-invite" viewBox="0 0 18 18">
    <title>
        menu-invite
    </title>
    <path d="M0 18V6l2.998-1.998L3 0h12l-.001 4L18 6v12H0zM4 1v7.589l5 4.99 5-4.99V1H4zM2.4 16.992h13.171L11.287 12.7l-2.305 2.292L6.69 12.7 2.4 16.992zM17 17V7l-5 5 5 5zM15 5.2v2.382l1.473-1.394L15 5.2zM1 17l5-5-5-5v10zM3.003 5.2l-1.473.988 1.473 1.394V5.2zM9 6.935l1.1.578-.21-1.224.889-.867-1.23-.179L9 4.13l-.55 1.113-1.229.18.89.866-.21 1.224L9 6.935zm0 1.13L6.573 9.34l.463-2.703-1.964-1.914 2.714-.395L9 1.87l1.214 2.46 2.714.394-1.964 1.914.463 2.703L9 8.065z" fill-rule="evenodd"/>
</symbol><symbol id="ico-menu-messages" viewBox="0 0 16 15">
    <title>
        menu-messages
    </title>
    <path d="M15 4.5h-1.5a.5.5 0 1 0 0 1H15v6h-2.5a.5.5 0 0 0-.5.5v1.293l-1.646-1.647c-.006-.006-.015-.008-.021-.013a.494.494 0 0 0-.334-.133H7V11a.5.5 0 1 0-1 0v.5c0 .552.448 1 1 1h2.793l2.354 2.354A.5.5 0 0 0 13 14.5v-2h2c.552 0 1-.448 1-1v-6c0-.551-.448-1-1-1zM7 5H2.5a.5.5 0 1 0 0 1H7a.5.5 0 1 0 0-1zm2.5-2h-7a.5.5 0 1 0 0 1h7a.5.5 0 1 0 0-1zM5.809 8.04a.485.485 0 0 0-.143.093c-.006.006-.014.008-.02.013L4 9.793V8.5a.5.5 0 0 0-.5-.5H1V1h10v7H6a.494.494 0 0 0-.191.04zM11 9c.552 0 1-.448 1-1V1a1 1 0 0 0-1-1H1a1 1 0 0 0-1 1v7c0 .552.449 1 1 1h2v2a.5.5 0 0 0 .854.354L6.207 9H11z" fill-rule="evenodd"/>
</symbol><symbol id="ico-menu-my-events" viewBox="0 0 16 16">
    <title>
        menu-my-events
    </title>
    <path d="M8.982 8.996H2.994V8.78l2.252-1.347c.013-.007.02-.02.03-.027.014-.01.03-.014.042-.025.014-.012.02-.03.033-.043a.494.494 0 0 0 .101-.165.49.49 0 0 0-.014-.373c-.008-.017-.009-.036-.019-.053-.008-.013-.02-.02-.03-.033-.009-.012-.012-.027-.022-.039-.41-.472-.377-1.109-.375-1.132 0-.01-.004-.02-.004-.03l.002-.01V3.572c.075-.261.532-.566.998-.567.466 0 .922.305.997.566v1.934c0 .004.003.007.003.011 0 .011-.004.02-.003.03 0 .007.042.65-.376 1.13-.005.006-.006.013-.01.018-.013.017-.03.027-.042.045-.013.024-.016.05-.025.074a.508.508 0 0 0-.025.07.508.508 0 0 0 .066.388l.03.04c.02.024.031.051.055.071.02.018.044.025.065.04.002 0 .004.002.006.004l2.253 1.354v.217zm.966-.657a.523.523 0 0 0-.168-.233c-.015-.012-.025-.028-.042-.039L7.687 6.835a2.868 2.868 0 0 0 .295-1.322l.002-.01-.001-2c0-.014-.007-.027-.009-.041-.001-.017.004-.034 0-.05-.005-.034-.02-.063-.029-.095l-.003-.01C7.72 2.5 6.783 2.005 5.99 2.005h-.003c-.793 0-1.732.497-1.954 1.302l-.003.01c-.009.032-.024.061-.03.094-.004.017.002.033 0 .05 0 .015-.008.028-.008.043v2.01c-.006.166.003.739.299 1.326L2.239 8.067c-.017.01-.027.027-.043.04a.49.49 0 0 0-.076.068.478.478 0 0 0-.052.078.522.522 0 0 0-.04.085.495.495 0 0 0-.02.101c-.003.02-.012.037-.012.057v.5a1 1 0 0 0 .998 1h5.988a1 1 0 0 0 .998-1v-.5c0-.02-.01-.038-.012-.058a.47.47 0 0 0-.02-.099zm5.907-3.276a.953.953 0 0 0-.573-.474l-1.649-.562a.499.499 0 1 0-.321.946l1.66.535-3.284 9.496-5.533-1.975a.5.5 0 1 0-.335.942l5.544 1.978a.997.997 0 0 0 1.26-.627l3.293-9.492a.971.971 0 0 0-.062-.767zM.998 11h10.004V1H.998v10zm10.978 0V1a1 1 0 0 0-.998-1H.998A1 1 0 0 0 0 1v10a1 1 0 0 0 .998 1h9.98a1 1 0 0 0 .998-1z" fill-rule="evenodd"/>
</symbol><symbol id="ico-menu-news" viewBox="0 0 16 16">
    <title>
        menu-news
    </title>
    <path d="M1 1v10.5A3.5 3.5 0 0 0 4.5 15h7a3.5 3.5 0 0 0 3.5-3.5v-10a.5.5 0 1 1 1 0v10a4.5 4.5 0 0 1-4.5 4.5h-7A4.5 4.5 0 0 1 0 11.5V.5A.5.5 0 0 1 .5 0h12a.5.5 0 0 1 .5.5v11a.5.5 0 1 1-1 0V1H1zm2 4v3h3V5H3zm0-1h3a1 1 0 0 1 1 1v3a1 1 0 0 1-1 1H3a1 1 0 0 1-1-1V5a1 1 0 0 1 1-1zm5.5 0h2a.5.5 0 1 1 0 1h-2a.5.5 0 1 1 0-1zm0 2h2a.5.5 0 1 1 0 1h-2a.5.5 0 1 1 0-1zm0 2h2a.5.5 0 1 1 0 1h-2a.5.5 0 1 1 0-1zm-6 2h8a.5.5 0 1 1 0 1h-8a.5.5 0 1 1 0-1zm2 2h6a.5.5 0 1 1 0 1h-6a.5.5 0 1 1 0-1zm-2-10h8a.5.5 0 1 1 0 1h-8a.5.5 0 0 1 0-1z" fill-rule="nonzero"/>
</symbol><symbol id="ico-menu-notifications" viewBox="0 0 14 16">
    <title>
        menu-notifications
    </title>
    <path d="M1.133 12.5L2.806 9.23c.008-.017.008-.034.014-.05.1-.092.166-.221.166-.368V5C2.986 2.794 4.771 1 6.966 1c2.195 0 3.981 1.794 3.981 4V8.81c0 .147.066.276.166.368.006.016.006.033.014.05l1.672 3.271H1.133zM6.966 15a1.498 1.498 0 0 1-1.493-1.5H8.46c0 .827-.67 1.5-1.494 1.5zm6.863-2.676l-1.817-3.552c-.018-.035-.046-.06-.07-.088V4.999C11.942 2.243 9.71 0 6.966 0 4.222 0 1.99 2.243 1.99 5v3.684c-.024.028-.051.053-.069.088L.104 12.324c-.14.275-.139.567.005.802.144.238.407.374.72.374h3.649c0 1.379 1.116 2.5 2.488 2.5a2.497 2.497 0 0 0 2.489-2.5h3.649c.314 0 .576-.136.72-.374.144-.235.145-.527.005-.802z" fill-rule="evenodd"/>
</symbol><symbol id="ico-more" viewBox="0 0 4 18">
    <title>
        more
    </title>
    <path d="M1 16a1 1 0 1 0 2 0 1 1 0 0 0-2 0zm-1 0a2 2 0 1 1 4 0 2 2 0 0 1-4 0zm1-7a1 1 0 1 0 2 0 1 1 0 0 0-2 0zM0 9a2 2 0 1 1 4 0 2 2 0 0 1-4 0zm1-7a1 1 0 1 0 2 0 1 1 0 0 0-2 0zM0 2a2 2 0 1 1 4 0 2 2 0 0 1-4 0z" fill-rule="nonzero"/>
</symbol><symbol id="ico-notification-blank" viewBox="0 0 64 80">
    <title>
        notification-blank
    </title>
    <g fill-rule="nonzero">
        <path d="M60.919 59.07a8.174 8.174 0 0 1-2.662-6.014V37.5a1.563 1.563 0 0 0-3.125 0v15.556c0 3.151 1.341 6.184 3.678 8.321a4.071 4.071 0 0 1 1.322 2.998 4.067 4.067 0 0 1-4.062 4.063H7.32a4.067 4.067 0 0 1-4.063-4.063c0-1.137.482-2.23 1.322-2.998a11.306 11.306 0 0 0 3.679-8.321V35c0-12.924 10.514-23.438 23.437-23.438 3.554 0 7.055.809 10.226 2.346A11.491 11.491 0 0 0 40.18 20c0 6.375 5.187 11.562 11.562 11.562 6.376 0 11.563-5.187 11.563-11.562 0-6.376-5.187-11.563-11.563-11.563-2.988 0-5.715 1.14-7.769 3.007a26.495 26.495 0 0 0-7.408-2.554c.576-.898.911-1.965.911-3.109A5.788 5.788 0 0 0 31.695 0a5.788 5.788 0 0 0-5.781 5.781c0 1.143.334 2.208.909 3.106C14.495 11.182 5.133 22.017 5.133 35v18.056c0 2.276-.97 4.468-2.662 6.015a7.203 7.203 0 0 0-2.339 5.304c0 3.963 3.225 7.187 7.188 7.187h14.498C22.57 76.337 26.712 80 31.695 80c4.983 0 9.125-3.663 9.877-8.438H56.07c3.963 0 7.188-3.224 7.188-7.187a7.203 7.203 0 0 0-2.34-5.304zm-9.177-47.508c4.653 0 8.438 3.786 8.438 8.438 0 4.652-3.785 8.437-8.438 8.437-4.652 0-8.437-3.785-8.437-8.437 0-4.652 3.785-8.438 8.437-8.438zM31.695 3.125a2.66 2.66 0 0 1 2.656 2.656 2.66 2.66 0 0 1-2.656 2.656 2.66 2.66 0 0 1-2.656-2.656 2.66 2.66 0 0 1 2.656-2.656zm0 73.75c-3.253 0-5.984-2.272-6.694-5.313H38.39c-.71 3.04-3.44 5.313-6.694 5.313z"/>
        <path d="M14.195 33.405c-.863 0-1.563.7-1.563 1.562V35a1.563 1.563 0 0 0 3.126 0v-.033c0-.862-.7-1.562-1.563-1.562z"/>
        <path d="M31.695 15.937a19.04 19.04 0 0 0-17.554 11.62 1.563 1.563 0 0 0 2.876 1.22 15.92 15.92 0 0 1 14.678-9.715 1.563 1.563 0 0 0 0-3.125z"/>
        <path d="M52.293 14.936a1.564 1.564 0 0 0-1.703.34l-1.797 1.796a1.563 1.563 0 0 0 1.34 2.65v2.83a1.563 1.563 0 0 0 3.124 0V16.38c0-.632-.38-1.202-.964-1.444z"/>
    </g>
</symbol><symbol id="ico-notification-disabled" viewBox="0 0 64 80">
    <title>
        notification-disabled
    </title>
    <g fill-rule="nonzero">
        <path d="M60.786 59.07a8.174 8.174 0 0 1-2.661-6.014V37.5a1.563 1.563 0 0 0-3.125 0v15.556c0 3.151 1.34 6.184 3.678 8.321A4.071 4.071 0 0 1 60 64.375a4.067 4.067 0 0 1-4.062 4.063H7.187a4.067 4.067 0 0 1-4.062-4.063c0-1.137.482-2.23 1.322-2.998a11.306 11.306 0 0 0 3.678-8.321V35c0-12.924 10.514-23.438 23.438-23.438 2.096 0 5.007.613 8.73 1.837.91.299 1.91.012 2.522-.723a1.185 1.185 0 0 0-.464-1.856c-2.501-1.018-4.474-1.661-5.918-1.93.575-.898.91-1.965.91-3.109A5.788 5.788 0 0 0 31.564 0a5.788 5.788 0 0 0-5.782 5.781c0 1.143.335 2.208.91 3.106C14.362 11.182 5 22.017 5 35v18.056c0 2.276-.97 4.468-2.662 6.015A7.203 7.203 0 0 0 0 64.375c0 3.963 3.224 7.187 7.187 7.187H21.685C22.438 76.337 26.58 80 31.563 80c4.982 0 9.124-3.663 9.877-8.438h14.498c3.963 0 7.187-3.224 7.187-7.187a7.203 7.203 0 0 0-2.339-5.304zM31.562 3.126A2.66 2.66 0 0 1 34.22 5.78a2.66 2.66 0 0 1-2.657 2.656 2.66 2.66 0 0 1-2.656-2.656 2.66 2.66 0 0 1 2.657-2.656zm0 73.75c-3.253 0-5.984-2.272-6.693-5.313h13.387c-.71 3.04-3.44 5.313-6.694 5.313z"/>
        <path d="M0 54h21.715v18H0z"/>
        <rect transform="rotate(45 33.5 39)" x="32" y="3" width="3" height="72" rx="1.5"/>
        <path d="M14.195 33.405c-.863 0-1.563.7-1.563 1.562V35a1.563 1.563 0 0 0 3.126 0v-.033c0-.862-.7-1.562-1.563-1.562z"/>
        <path d="M31.695 15.937a19.04 19.04 0 0 0-17.554 11.62 1.563 1.563 0 0 0 2.876 1.22 15.92 15.92 0 0 1 14.678-9.715 1.563 1.563 0 0 0 0-3.125z"/>
    </g>
</symbol><symbol id="ico-odnoklassniki" viewBox="0 0 12 18">
    <title>
        odnoklassniki
    </title>
    <path d="M11.096 11.635c.56-.368.899-.993.9-1.664a1.454 1.454 0 0 0-1.5-1.5 1.5 1.5 0 0 0-.907.308 6.043 6.043 0 0 1-7.234 0 1.5 1.5 0 0 0-.855-.27 1.454 1.454 0 0 0-1.5 1.5c.002.67.34 1.296.9 1.664a9.229 9.229 0 0 0 2.347 1.072l.48.135-2.46 2.414a1.582 1.582 0 0 0 0 2.249c.627.61 1.624.61 2.25 0l2.481-2.602 2.497 2.587a1.59 1.59 0 0 0 2.249-2.25l-2.497-2.39.488-.136a9.214 9.214 0 0 0 2.361-1.117zM5.998 8.996a4.498 4.498 0 1 0 0-8.996 4.498 4.498 0 0 0 0 8.996zm0-6.747a2.25 2.25 0 1 1 0 4.498 2.25 2.25 0 0 1 0-4.498z" fill-rule="nonzero"/>
</symbol><symbol id="ico-pencil" viewBox="0 0 18 18">
    <title>
        pencil
    </title>
    <path d="M1 14.667v2.336h2.336l10.06-10.06-2.336-2.336L1 14.667zm-1-.414l11.06-11.06 3.75 3.75-11.06 11.06H0v-3.75zM14.665 1.002l-1.12 1.12 2.335 2.336L17 3.338l-2.335-2.336zm3.045 3.04l-1.83 1.83-3.75-3.75 1.83-1.83a.996.996 0 0 1 1.41 0l2.34 2.34c.39.39.39 1.02 0 1.41z" fill-rule="nonzero"/>
</symbol><symbol id="ico-phone" viewBox="0 0 20 20">
    <title>
        phone
    </title>
    <path d="M11.296 16.001l2.468-2.467a.492.492 0 0 1 .498-.123c1.2.397 2.465.599 3.738.599.274 0 .5.226.5.5V18c0 .274-.226.5-.5.5C8.886 18.5 1.5 11.114 1.5 2c0-.274.226-.5.5-.5h3.5c.274 0 .5.226.5.5 0 1.28.201 2.534.597 3.734a.498.498 0 0 1-.13.502L3.998 8.704l.355.655a15.653 15.653 0 0 0 6.285 6.285l.657.357zm-.179-1.235l1.94-1.94a1.492 1.492 0 0 1 1.53-.36c1.084.357 2.242.544 3.413.544.826 0 1.5.674 1.5 1.5V18c0 .826-.674 1.5-1.5 1.5C8.334 19.5.5 11.666.5 2 .5 1.174 1.174.5 2 .5h3.5C6.326.5 7 1.174 7 2c0 1.177.185 2.325.547 3.42a1.503 1.503 0 0 1-.373 1.524l-1.94 1.94a14.653 14.653 0 0 0 5.883 5.882z" fill-rule="nonzero"/>
</symbol><symbol id="ico-plus" viewBox="0 0 14 14">
    <title>
        plus
    </title>
    <path fill-rule="nonzero" d="M14 8H8v6H6V8H0V6h6V0h2v6h6z"/>
</symbol><symbol id="ico-profile" viewBox="0 0 16 16">
    <title>
        profile
    </title>
    <path d="M8 1.9a2.1 2.1 0 1 1 0 4.2 2.1 2.1 0 0 1 0-4.2zm0 9c2.97 0 6.1 1.46 6.1 2.1v1.1H1.9V13c0-.64 3.13-2.1 6.1-2.1zM8 0C5.79 0 4 1.79 4 4s1.79 4 4 4 4-1.79 4-4-1.79-4-4-4zm0 9c-2.67 0-8 1.34-8 4v3h16v-3c0-2.66-5.33-4-8-4z" fill-rule="nonzero"/>
</symbol><symbol id="ico-refresh" viewBox="0 0 16 22">
    <title>
        refresh
    </title>
    <path d="M8 5v3l4-4-4-4v3c-4.42 0-8 3.58-8 8 0 1.57.46 3.03 1.24 4.26L2.7 13.8A5.87 5.87 0 0 1 2 11c0-3.31 2.69-6 6-6zm6.76 1.74L13.3 8.2c.44.84.7 1.79.7 2.8 0 3.31-2.69 6-6 6v-3l-4 4 4 4v-3c4.42 0 8-3.58 8-8 0-1.57-.46-3.03-1.24-4.26z" fill-rule="nonzero"/>
</symbol><symbol id="ico-remove-attachment" viewBox="0 0 10 10">
    <title>
        remove-attachment
    </title>
    <path d="M6.559 5l3.116 3.116a1.1 1.1 0 0 1 .002 1.56c-.43.431-1.135.425-1.561-.001L5 6.559 1.884 9.675a1.1 1.1 0 0 1-1.56.002 1.109 1.109 0 0 1 .001-1.561L3.441 5 .325 1.884A1.1 1.1 0 0 1 .323.324a1.109 1.109 0 0 1 1.561.001L5 3.441 8.116.325a1.1 1.1 0 0 1 1.56-.002c.431.43.425 1.135-.001 1.561L6.559 5z" fill-rule="evenodd"/>
</symbol><symbol id="ico-reply" viewBox="0 0 12 11">
    <title>
        reply
    </title>
    <path d="M7.333 7.667v2.666L12 5.667 7.333 1v2.733C4 3.733 1.667 2.667 0 .333.667 3.667 2.667 7 7.333 7.667z" fill-rule="nonzero"/>
</symbol><symbol id="ico-rss" viewBox="0 0 8 8">
    <title>
        rss
    </title>
    <path d="M1.032 5.91c.569 0 1.032.462 1.032 1.031a1.033 1.033 0 0 1-2.064 0C0 6.372.463 5.91 1.032 5.91zm-.86-2.94a4.983 4.983 0 0 1 3.367 1.465 4.982 4.982 0 0 1 1.464 3.367.164.164 0 0 1-.163.168H3.516a.163.163 0 0 1-.163-.155A3.334 3.334 0 0 0 .159 4.62a.163.163 0 0 1-.156-.163V3.133a.163.163 0 0 1 .169-.163zm5.465-.634a7.93 7.93 0 0 1 2.336 5.468.163.163 0 0 1-.163.166H6.487a.163.163 0 0 1-.164-.159C6.24 4.497 3.476 1.733.162 1.65a.163.163 0 0 1-.16-.163V.164A.163.163 0 0 1 .17 0a7.93 7.93 0 0 1 5.468 2.336z" fill-rule="nonzero"/>
</symbol><symbol id="ico-search" viewBox="0 0 18 18">
    <title>
        Mask
    </title>
    <path d="M12.5 11h-.79l-.28-.27A6.471 6.471 0 0 0 13 6.5 6.5 6.5 0 1 0 6.5 13c1.61 0 3.09-.59 4.23-1.57l.27.28v.79l5 4.99L17.49 16l-4.99-5zm-6 0C4.01 11 2 8.99 2 6.5S4.01 2 6.5 2 11 4.01 11 6.5 8.99 11 6.5 11z" fill-rule="nonzero"/>
</symbol><symbol id="ico-select-arrow" viewBox="0 0 12 8">
    <title>
        select-arrow
    </title>
    <path fill-rule="nonzero" d="M10.59.59L6 5.17 1.41.59 0 2l6 6 6-6z"/>
</symbol><symbol id="ico-sent" viewBox="0 0 18 16">
    <title>
        sent
    </title>
    <path fill-rule="nonzero" d="M0 16.008l18-8-18-8v6.223l12.857 1.777L0 9.786z"/>
</symbol><symbol id="ico-share" viewBox="0 0 18 20">
    <title>
        share
    </title>
    <path d="M15 5a2 2 0 1 0 0-4 2 2 0 0 0 0 4zm0 1a3 3 0 1 1 0-6 3 3 0 0 1 0 6zM3 12a2 2 0 1 0 0-4 2 2 0 0 0 0 4zm0 1a3 3 0 1 1 0-6 3 3 0 0 1 0 6zm12 6a2 2 0 1 0 0-4 2 2 0 0 0 0 4zm-2.808-3.059l-7.704-4.494.216-.422c.185-.359.276-.71.28-1.059a2.057 2.057 0 0 0-.254-1l-.225-.424L12.7 3.753l.505.864-7.397 4.321c.119.336.178.682.174 1.037a3.2 3.2 0 0 1-.198 1.07l6.912 4.033a3 3 0 1 1-.505.863z" fill-rule="nonzero"/>
</symbol><symbol id="ico-smile-sad" viewBox="0 0 148 148">
    <title>
        smile-sad
    </title>
    <g fill-rule="evenodd">
        <circle stroke-width="4" cx="74" cy="74" r="72"/>
        <circle stroke-width="8" cx="50" cy="58" r="4"/>
        <circle stroke-width="8" cx="98" cy="58" r="4"/>
        <path d="M98 113c0-13.255-10.745-24-24-24s-24 10.745-24 24" stroke-width="4" stroke-linecap="round"/>
    </g>
</symbol><symbol id="ico-star-fill" viewBox="0 0 20 19">
    <title>
        star-fill
    </title>
    <path fill-rule="nonzero" d="M10 15.27L16.18 19l-1.64-7.03L20 7.24l-7.19-.61L10 0 7.19 6.63 0 7.24l5.46 4.73L3.82 19z"/>
</symbol><symbol id="ico-star-stroke" viewBox="0 0 20 19">
    <title>
        star-stroke
    </title>
    <path d="M10 12.934l3.155 1.904-.837-3.59 2.79-2.416-3.669-.311L10 5.125 8.56 8.521l-3.668.311 2.79 2.417-.837 3.59L10 12.933zm0 2.336L3.82 19l1.64-7.03L0 7.24l7.19-.61L10 0l2.81 6.63 7.19.61-5.46 4.73L16.18 19 10 15.27z" fill-rule="nonzero"/>
</symbol><symbol id="ico-tombstone" viewBox="0 0 78 80">
    <title>
        tombstone
    </title>
    <g fill-rule="nonzero">
        <circle cx="45.437" cy="61.823" r="1.416"/>
        <circle cx="51.1" cy="67.487" r="1.416"/>
        <circle cx="26.559" cy="67.487" r="1.416"/>
        <path d="M47.325 35.867h-16.99a1.416 1.416 0 1 0 0 2.832h16.99a1.416 1.416 0 1 0 0-2.832z"/>
        <path d="M47.325 28.316h-16.99a1.416 1.416 0 1 0 0 2.832h16.99a1.416 1.416 0 1 0 0-2.832z"/>
        <path d="M38.83 7.551c-4.877 0-9.509 1.56-13.394 4.512a1.416 1.416 0 0 0 1.713 2.255 19.158 19.158 0 0 1 11.68-3.935c10.67 0 19.35 8.68 19.35 19.349v20.293a1.416 1.416 0 1 0 2.832 0V29.732c0-12.23-9.95-22.181-22.181-22.181z"/>
        <path d="M76.113 74.566a7.08 7.08 0 0 0-4.66 1.752 7.086 7.086 0 0 0-2.892-1.525V29.732C68.561 13.338 55.224 0 38.83 0 22.436 0 9.098 13.338 9.098 29.732v45.06a7.091 7.091 0 0 0-2.89 1.526 7.08 7.08 0 0 0-4.661-1.752 1.416 1.416 0 1 0 0 2.831c1.394 0 2.7.687 3.496 1.837a1.416 1.416 0 0 0 2.329 0 4.253 4.253 0 0 1 3.496-1.837c1.393 0 2.7.687 3.495 1.837a1.416 1.416 0 0 0 2.33 0 4.253 4.253 0 0 1 3.495-1.837c1.394 0 2.701.687 3.496 1.837a1.416 1.416 0 0 0 2.33 0 4.253 4.253 0 0 1 3.495-1.837c1.394 0 2.701.687 3.496 1.837a1.416 1.416 0 0 0 2.33 0 4.253 4.253 0 0 1 3.495-1.837c1.394 0 2.7.687 3.496 1.837a1.416 1.416 0 0 0 2.33 0 4.253 4.253 0 0 1 3.495-1.837c1.394 0 2.7.687 3.496 1.837a1.416 1.416 0 0 0 2.33 0 4.253 4.253 0 0 1 3.495-1.837c1.394 0 2.7.687 3.496 1.837a1.416 1.416 0 0 0 2.33 0 4.253 4.253 0 0 1 3.495-1.837c1.394 0 2.7.687 3.496 1.837a1.416 1.416 0 0 0 2.33 0 4.253 4.253 0 0 1 3.495-1.837 1.416 1.416 0 1 0-.001-2.831zm-10.383.081a7.086 7.086 0 0 0-3.598 1.67 7.094 7.094 0 0 0-1.121-.8V55.688a1.416 1.416 0 1 0-2.832 0v18.914a7.08 7.08 0 0 0-5.368 1.715 7.08 7.08 0 0 0-4.66-1.751 7.08 7.08 0 0 0-4.661 1.752 7.08 7.08 0 0 0-4.66-1.752 7.08 7.08 0 0 0-4.661 1.752 7.08 7.08 0 0 0-4.66-1.752 7.08 7.08 0 0 0-4.66 1.752 7.08 7.08 0 0 0-5.37-1.716v-44.87c0-4.253 1.362-8.292 3.936-11.68a1.416 1.416 0 1 0-2.255-1.714 21.97 21.97 0 0 0-4.511 13.394v45.785c-.397.23-.773.497-1.12.8a7.084 7.084 0 0 0-3.6-1.67V29.732c0-14.833 12.068-26.9 26.9-26.9 14.834 0 26.9 12.067 26.9 26.9v44.915z"/>
    </g>
</symbol><symbol id="ico-tooltip-info" viewBox="0 0 16 16">
    <title>
        tooltip-info
    </title>
    <path d="M8 .889a7.111 7.111 0 1 0 0 14.223A7.111 7.111 0 0 0 8 .889zM8 0a8 8 0 1 1-.001 16.001A8 8 0 0 1 7.999 0zm1.665 12.398l.137-.56a2.41 2.41 0 0 1-.342.115 1.625 1.625 0 0 1-.424.066c-.266 0-.453-.044-.56-.131-.109-.088-.162-.252-.162-.493 0-.096.016-.238.05-.424.033-.186.07-.353.112-.499l.513-1.815c.05-.167.085-.35.103-.549.018-.2.028-.339.028-.418 0-.382-.135-.693-.402-.932-.27-.238-.651-.359-1.146-.359-.275 0-.566.05-.874.148-.308.097-.631.215-.968.353l-.137.56a5.82 5.82 0 0 1 .359-.119c.14-.04.277-.06.41-.06.271 0 .453.044.55.136.095.091.144.254.144.485 0 .13-.015.273-.046.429-.032.154-.07.32-.116.495l-.516 1.82a5.574 5.574 0 0 0-.1.514c-.02.152-.03.301-.03.447 0 .374.138.682.414.925.276.244.664.366 1.163.366a2.6 2.6 0 0 0 .855-.128c.245-.086.573-.21.985-.372zm-.09-7.367c.238-.222.358-.491.358-.808 0-.315-.12-.585-.359-.81a1.214 1.214 0 0 0-.863-.336c-.336 0-.626.111-.867.336-.24.225-.361.495-.361.81 0 .316.121.586.36.808.242.222.532.333.868.333.336 0 .624-.11.863-.333z" fill-rule="nonzero"/>
</symbol><symbol id="ico-twitter" viewBox="0 0 18 14">
    <title>
        twitter
    </title>
    <path d="M18 1.657a7.964 7.964 0 0 1-2.126.558A3.545 3.545 0 0 0 17.497.263c-.713.407-1.5.694-2.34.855A3.777 3.777 0 0 0 12.462 0c-2.043 0-3.688 1.587-3.688 3.533 0 .28.025.55.085.806-3.068-.143-5.782-1.55-7.606-3.695A3.441 3.441 0 0 0 .748 2.43c0 1.223.658 2.307 1.64 2.935A3.77 3.77 0 0 1 .72 4.93v.039C.72 6.686 2 8.11 3.677 8.439c-.3.08-.628.117-.968.117-.236 0-.475-.013-.699-.06.479 1.399 1.835 2.427 3.449 2.46a7.628 7.628 0 0 1-4.576 1.507c-.303 0-.593-.013-.883-.048A10.728 10.728 0 0 0 5.661 14c6.79 0 10.503-5.385 10.503-10.052 0-.156-.006-.307-.014-.457A7.196 7.196 0 0 0 18 1.657" fill-rule="evenodd"/>
</symbol><symbol id="ico-up-arrow" viewBox="0 0 16 16">
    <title>
        up-arrow
    </title>
    <path fill-rule="nonzero" d="M16 8l-1.41 1.41L9 3.83V16H7V3.83L1.42 9.42 0 8l8-8z"/>
</symbol><symbol id="ico-user" viewBox="0 0 20 20">
    <title>
        user
    </title>
    <path d="M10 4c-1.108 0-2 .892-2 2s.892 2 2 2 2-.892 2-2-.892-2-2-2zm0-1c1.66 0 3 1.34 3 3s-1.34 3-3 3-3-1.34-3-3 1.34-3 3-3zm0 8.9c-2 0-4.507.977-4.936 1.85a6.197 6.197 0 0 0 9.872.001c-.43-.873-2.943-1.851-4.936-1.851zm0 5.3a7.2 7.2 0 0 1-6-3.22c.03-1.99 4-3.08 6-3.08 1.99 0 5.97 1.09 6 3.08a7.2 7.2 0 0 1-6 3.22zm0 1.8a9 9 0 1 0 0-18 9 9 0 0 0 0 18zm0 1C4.477 20 0 15.523 0 10S4.477 0 10 0s10 4.477 10 10-4.477 10-10 10z" fill-rule="nonzero"/>
</symbol><symbol id="ico-vkontakte" viewBox="0 0 18 10">
    <title>
        vkontakte
    </title>
    
    <use fill-rule="nonzero" xlink:href="#a" transform="translate(-3 -7)"/>
</symbol><symbol id="ico-filter-category-activelife" viewBox="0 0 40 34">
    <title>
        filter-category-17
    </title>
    <path d="M38.893 15.312a8.083 8.083 0 0 0-9.807-3.626l-4.2-9.1h3.934a.994.994 0 0 1 0 1.987h-.331a.663.663 0 0 0 0 1.326h.33a2.319 2.319 0 1 0 0-4.638h-4.968a.663.663 0 0 0-.602.94l1.707 3.698H14.531l-.91-1.988h.568A1.71 1.71 0 0 0 14.377.5l-3.64-.406a1.914 1.914 0 1 0-.21 3.817h1.636L13.28 6.35l-2.54 5.366a7.946 7.946 0 1 0 5.127 8.096h1.453a2.643 2.643 0 1 0 4.247-2.686l4.341-9.164 1.974 4.278a8.083 8.083 0 1 0 11.01 3.072zM10.528 2.586a.59.59 0 1 1 .063-1.175l3.64.405a.386.386 0 0 1-.042.77h-3.661zm.839 10.898a6.625 6.625 0 0 1 3.175 5.002H8.997l2.37-5.002zM7.95 25.774a6.625 6.625 0 1 1 2.22-12.86l-2.816 5.951a.663.663 0 0 0 .596.947h6.592a6.633 6.633 0 0 1-6.592 5.962zm9.37-7.288h-1.453a7.95 7.95 0 0 0-3.93-6.205L14 7.922l4.21 9.183a2.64 2.64 0 0 0-.891 1.381zm2.556 1.988a1.325 1.325 0 1 1 0-2.65 1.325 1.325 0 0 1 0 2.65zm.498-3.924a2.622 2.622 0 0 0-.498-.051 2.69 2.69 0 0 0-.464.047l-4.273-9.322h9.653l-4.418 9.326zm11.482 9.275a6.65 6.65 0 0 1-3.415-12.374l2.759 5.977a.663.663 0 1 0 1.203-.554l-2.76-5.98a6.65 6.65 0 1 1 2.213 12.93zm-.055 1.274h7.95v1.325H0V27.1h31.801zM9.275 32.4a.663.663 0 0 1 0 1.326h-7.95a.663.663 0 0 1 0-1.325h7.95zm15.238 0a.663.663 0 0 1 0 1.326h-9.275a.663.663 0 0 1 0-1.325h9.275zm13.914 0a.663.663 0 0 1 0 1.326h-7.95a.663.663 0 0 1 0-1.325h7.95zM7.95 23.125a.663.663 0 0 1 0 1.325 5.3 5.3 0 0 1-1.513-.22c-.004 0-.007 0-.01-.002a.663.663 0 1 1 .387-1.267c.369.11.752.165 1.136.164zM5.168 21.99a.663.663 0 0 1-.927.946 5.31 5.31 0 0 1-1.372-5.3.663.663 0 0 1 1.271.378c-.11.369-.165.751-.165 1.136a3.945 3.945 0 0 0 1.193 2.84z" fill-rule="nonzero"/>
</symbol><symbol id="ico-filter-category-all" viewBox="0 0 37 38">
    <title>
        filter-category-1
    </title>
    <path d="M31.544 31.43a.669.669 0 0 0-.201.603l.71 3.99-3.752-1.901a.67.67 0 0 0-.603 0l-3.752 1.902.71-3.991a.665.665 0 0 0-.201-.602l-2.985-2.806 4.149-.581a.664.664 0 0 0 .5-.355l1.88-3.67 1.879 3.67a.665.665 0 0 0 .5.355l4.15.581-2.984 2.806zm5.092-3.474a.67.67 0 0 1-.178.687l-3.736 3.512.88 4.952a.666.666 0 0 1-.958.71l-4.642-2.352-4.643 2.352a.666.666 0 1 1-.959-.71l.88-4.952-3.735-3.512a.666.666 0 0 1 .363-1.145l5.184-.726 2.316-4.52c.227-.446.957-.446 1.185 0l2.315 4.52 5.184.726a.668.668 0 0 1 .544.458zM30 8a.666.666 0 1 1 0 1.333H18A.666.666 0 1 1 18 8h12zm0 9.333a.666.666 0 1 1 0 1.334H18a.666.666 0 1 1 0-1.334h12zM13.72 4.827c.28.24.312.66.072.939l-4.571 5.333a.664.664 0 0 1-.906.1L5.267 8.913a.665.665 0 1 1 .8-1.066l2.548 1.911 4.165-4.859c.24-.28.66-.311.94-.072zm0 9.334c.28.24.312.66.072.938l-4.571 5.334a.664.664 0 0 1-.906.1l-3.048-2.286a.665.665 0 1 1 .8-1.066l2.548 1.91 4.165-4.858c.24-.28.66-.312.94-.072zm-.94 10.072a.666.666 0 1 1 1.012.867L9.22 30.433a.664.664 0 0 1-.906.1l-3.048-2.286a.666.666 0 1 1 .8-1.066l2.548 1.91 4.165-4.858zM18 34.667A.666.666 0 1 1 18 36H8.117C3.641 36 0 32.36 0 27.883V8.117C0 3.641 3.641 0 8.117 0h19.766C32.359 0 36 3.641 36 8.117v15.937a.666.666 0 1 1-1.333 0V8.117a6.791 6.791 0 0 0-6.784-6.784H8.117a6.79 6.79 0 0 0-6.784 6.784v19.766a6.79 6.79 0 0 0 6.784 6.784H18z" fill-rule="evenodd"/>
</symbol><symbol id="ico-filter-category-childs" viewBox="0 0 40 33">
    <title>
        filter-category-14
    </title>
    <path d="M35.975 1.732a.632.632 0 1 0-.694 1.057c1.719 1.129 2.828 2.742 3.22 4.64a8.972 8.972 0 0 0-.983-.649c-1.87-1.06-3.834-1.226-5.679-.48-2.59 1.048-3.87.473-4.609-.051a4.743 4.743 0 0 1-.612-.524.632.632 0 1 0-.894.894c.113.112.224.215.336.313-.665.926-2.223 1.335-3.142 1.466-.349-.684-1.021-2.271-.478-3.493 1.189-2.675 4.857-3.624 7.636-3.624 1.32 0 2.641.266 3.822.77a.632.632 0 1 0 .496-1.164c-1.337-.57-2.83-.87-4.318-.87-5.048 0-7.851 2.26-8.791 4.375-.844 1.898.261 4.152.635 4.822l-.051.53a2.301 2.301 0 0 0-2.004 2.278c0 1.016.655 1.879 1.574 2.182a6.061 6.061 0 0 0 2.465 5.42l.133.097a5.514 5.514 0 0 0-3.194 4.995v7.54c0 .349.283.632.632.632H37.76c.349 0 .632-.283.632-.632v-7.54a5.479 5.479 0 0 0-.91-3.03.632.632 0 1 0-1.054.696c.458.693.7 1.5.7 2.335v3.407h-1.891v-2.368a.632.632 0 1 0-1.264 0v5.868h-8.71v-5.868a.632.632 0 1 0-1.265 0v2.368h-1.89v-3.407c0-1.66.967-3.134 2.408-3.824.094.566.281 1.115.556 1.62a.632.632 0 1 0 1.11-.605 3.874 3.874 0 0 1-.347-.88l1 .726a4.722 4.722 0 0 0 5.565 0l1.002-.728a3.916 3.916 0 0 1-3.784 2.926 3.866 3.866 0 0 1-2.436-.852.632.632 0 1 0-.788.988 5.188 5.188 0 0 0 3.224 1.128 5.18 5.18 0 0 0 5.102-4.324c.187.09.367.193.54.31a.63.63 0 0 0 .879-.169.632.632 0 0 0-.17-.877 5.5 5.5 0 0 0-.77-.435l.133-.097a6.061 6.061 0 0 0 2.465-5.42 2.294 2.294 0 0 0 1.573-2.182 2.301 2.301 0 0 0-2.003-2.278l-.071-.733a.632.632 0 0 0-1.258.121l.497 5.148a4.793 4.793 0 0 1-1.946 4.321l-2.932 2.13a3.459 3.459 0 0 1-4.078 0l-2.932-2.13a4.793 4.793 0 0 1-1.946-4.32l.448-4.642c.968-.146 2.982-.608 3.956-1.993 1.423.723 3.135.665 5.208-.174 1.485-.6 3.015-.47 4.547.389a7.805 7.805 0 0 1 1.946 1.55.632.632 0 0 0 1.116-.406c0-3.018-1.402-5.6-3.947-7.273zM21.567 12.868a1.033 1.033 0 0 1 .173-1.788l-.173 1.788zm13.67 16.52h1.891v2.236h-1.891v-2.236zm-11.238 0v2.236h-1.892v-2.236H24zm14.106-17.366c0 .35-.172.658-.437.846l-.172-1.788c.358.163.61.523.61.942zm-18.25 1.325c0-.846-.479-1.582-1.18-1.952l.82-1.125a1.779 1.779 0 0 0 .191-1.787 1.779 1.779 0 0 0-1.452-1.059.632.632 0 0 0-.134 1.257c.276.03.393.23.43.314a.524.524 0 0 1-.056.53l-1.369 1.878a.524.524 0 0 1-.487.216.524.524 0 0 1-.431-.314l-.966-2.178a2.07 2.07 0 0 0 .51-.699l.644.069a.632.632 0 0 0 .134-1.257l-.643-.068a2.064 2.064 0 0 0-2.234-1.629l-.965-2.177a1.779 1.779 0 0 0-1.453-1.058 1.778 1.778 0 0 0-1.643.728L8.202 4.914a1.779 1.779 0 0 0-.19 1.787c.263.594.806.99 1.452 1.059l2.368.252c.034.164.087.32.158.467-1.605 1.574-4.325 3.114-8.475 2.185a6.732 6.732 0 0 1 3.797-4.181.632.632 0 1 0-.492-1.164 7.997 7.997 0 0 0-4.728 5.824A2.21 2.21 0 0 0 0 13.347c0 1.006.668 1.856 1.594 2.121a6.375 6.375 0 0 0 2.61 5.528l.5.363a5.247 5.247 0 0 0-3.105 4.783v1.37a.632.632 0 0 0 1.265 0v-1.37c0-1.54.888-2.91 2.215-3.564a4.931 4.931 0 0 0 4.85 4.07 4.918 4.918 0 0 0 4.536-3.007.632.632 0 0 0-1.164-.493 3.656 3.656 0 0 1-3.373 2.236 3.665 3.665 0 0 1-3.56-2.816l.716.52a4.831 4.831 0 0 0 5.688 0l1.128-.82a3.976 3.976 0 0 1 3.093 3.874v5.482h-1.719v-4.5a.632.632 0 0 0-1.264 0v4.5H5.846v-4.5a.632.632 0 0 0-1.264 0v4.5H2.863v-1.8a.632.632 0 0 0-1.264 0v2.432c0 .349.283.632.632.632h15.393a.632.632 0 0 0 .632-.632v-6.114a5.247 5.247 0 0 0-3.104-4.783l.5-.363a6.375 6.375 0 0 0 2.61-5.528 2.203 2.203 0 0 0 1.593-2.12zm-18.125.815a.944.944 0 0 1 .19-1.712l-.19 1.712zm12.119-7.366a.797.797 0 0 1 0 1.592.797.797 0 0 1 0-1.592zm-1.882-.04l-2.369-.253a.524.524 0 0 1-.43-.314.524.524 0 0 1 .056-.53l1.369-1.878a.524.524 0 0 1 .487-.217c.092.01.318.06.431.314l.966 2.178a2.07 2.07 0 0 0-.51.7zm2.942 13.217l-2.88 2.093a3.566 3.566 0 0 1-4.202 0l-2.88-2.093a5.108 5.108 0 0 1-2.07-4.684l.37-3.352.005-.036c.973.217 1.878.316 2.717.316 2.383 0 4.236-.778 5.627-1.764a6.787 6.787 0 0 0 1.843 1.565.634.634 0 0 0 .9-.293.634.634 0 0 0-.269-.802 5.558 5.558 0 0 1-1.489-1.264c.096-.087.188-.174.277-.261a2.048 2.048 0 0 0 1.208.243l.966 2.177a1.779 1.779 0 0 0 1.649 1.069l.033-.001.265 2.403a5.109 5.109 0 0 1-2.07 4.684zm3.217-5.812l-.189-1.711a.945.945 0 0 1 .19 1.711zm8.312-1.549c.35 0 .632.283.632.632v.857a.632.632 0 1 1-1.264 0v-.857c0-.349.283-.632.632-.632zm8.03-1.886a.632.632 0 1 1-.893.894 1.093 1.093 0 0 0-.778-.322c-.294 0-.57.114-.778.322a.632.632 0 0 1-.894-.894 2.349 2.349 0 0 1 1.672-.692c.632 0 1.225.246 1.672.692zm-6.358 0a.632.632 0 1 1-.895.894 1.093 1.093 0 0 0-.777-.322c-.294 0-.57.114-.778.322a.632.632 0 1 1-.894-.894 2.349 2.349 0 0 1 1.672-.692c.631 0 1.225.246 1.672.692zm4.687 1.886c.35 0 .632.283.632.632v.857a.632.632 0 1 1-1.264 0v-.857c0-.349.283-.632.632-.632zm-1.344 4.882a.632.632 0 0 1 0 .893c-.506.507-1.17.76-1.836.76-.664 0-1.33-.253-1.835-.76a.632.632 0 1 1 .894-.893c.519.52 1.364.52 1.883 0a.632.632 0 0 1 .894 0zm-1.3-4.81c.35 0 .632.283.632.632v2.143c0 .349-.283.632-.632.632h-1.071a.632.632 0 1 1 0-1.264h.44v-1.511c0-.35.282-.632.631-.632zM14.538 14.63a.632.632 0 1 1-.894.894.999.999 0 0 0-.711-.295.999.999 0 0 0-.71.295.632.632 0 0 1-.895-.894 2.254 2.254 0 0 1 1.605-.665c.606 0 1.176.236 1.605.665zm-6.011 0a.632.632 0 1 1-.894.894.999.999 0 0 0-.711-.295.999.999 0 0 0-.71.295.632.632 0 0 1-.894-.894 2.254 2.254 0 0 1 1.604-.665c.606 0 1.176.236 1.605.665zm3.16 4.147a.632.632 0 0 1 0 .893c-.47.47-1.094.73-1.76.73-.664 0-1.289-.26-1.759-.73a.632.632 0 1 1 .894-.893 1.226 1.226 0 0 0 1.732 0 .632.632 0 0 1 .893 0zm-1.332-2.758a.632.632 0 0 1 0 1.264H9.5a.632.632 0 0 1 0-1.264h.855z" fill-rule="nonzero"/>
</symbol><symbol id="ico-filter-category-couchserfing" viewBox="0 0 40 40">
    <title>
        couchserfing
    </title>
    <path d="M38.75 23.923a2.637 2.637 0 0 0-.947-.728c-.215-3.423-3.06-6.144-6.536-6.144h-8.813c-.952 0-1.905.203-2.777.588a6.908 6.908 0 0 0-2.778-.588H8.561c-3.42 0-6.233 2.633-6.528 5.977a2.633 2.633 0 0 0-1.485.97 2.61 2.61 0 0 0-.458 2.27l1.514 7.464.026.09a2.4 2.4 0 0 0 2.256 1.59h.052v3.935h3.096l1.312-3.935h23.316l1.312 3.935h3.096v-3.952a2.403 2.403 0 0 0 2.09-1.72l1.135-7.554a2.63 2.63 0 0 0-.544-2.198zm-7.483-5.56a5.253 5.253 0 0 1 5.206 4.598c-.085.005-.165.027-.249.038-.107.015-.214.027-.318.05-.118.027-.232.065-.346.103-.098.033-.198.062-.293.103-.114.05-.22.11-.328.17-.086.047-.173.09-.255.144-.11.073-.21.158-.31.24-.068.058-.14.109-.205.17-.105.102-.198.214-.291.327-.047.057-.1.11-.144.17a3.7 3.7 0 0 0-.266.437c-.024.045-.055.086-.078.133a3.71 3.71 0 0 0-.226.603c-.003.011-.01.022-.013.034-.06.221-.1.45-.117.687l-.178 2.484H20.332v-10.06a5.585 5.585 0 0 1 2.122-.431h8.813zm-22.706 0h8.337c.726 0 1.45.153 2.122.431v10.06H6.694l-.392-2.742a3.624 3.624 0 0 0-.147-.615c-.021-.065-.05-.126-.076-.19a3.644 3.644 0 0 0-.168-.38c-.037-.07-.08-.136-.121-.203a3.347 3.347 0 0 0-.369-.501 3.732 3.732 0 0 0-.744-.649c-.065-.043-.127-.087-.194-.127a3.548 3.548 0 0 0-.38-.184c-.058-.026-.113-.056-.173-.079a3.642 3.642 0 0 0-.583-.166 5.256 5.256 0 0 1 5.214-4.655zM3.886 34.1c-.444 0-.843-.272-1.007-.681l-1.514-7.456a1.331 1.331 0 0 1 .226-1.17c.257-.336.645-.529 1.068-.529a2.38 2.38 0 0 1 2.344 2.032l.859 7.804H3.886zm2.203 3.935H5.25v-2.623h1.713l-.874 2.623zM8.783 34.1h-1.59l-.351-3.934h25.94l-.175 3.934H8.783zm25.976 3.935h-.839l-.874-2.623h1.713v2.623zm3.245-12.142l-1.116 7.457a1.09 1.09 0 0 1-1.032.751h-1.929l.417-7.637a2.378 2.378 0 0 1 2.363-2.2c.4 0 .776.179 1.03.49.253.31.353.713.267 1.14zm-28.627.146a.654.654 0 0 0 .927 0l.604-.603c.283.14.59.218.9.218.31 0 .616-.078.9-.218l.603.603a.654.654 0 0 0 .928 0 .655.655 0 0 0 0-.927l-.604-.603a2.045 2.045 0 0 0 0-1.801l.604-.604a.655.655 0 1 0-.928-.927l-.603.603a2.045 2.045 0 0 0-1.801 0l-.603-.603a.655.655 0 1 0-.928.927l.604.604a2.045 2.045 0 0 0 0 1.8l-.604.604a.656.656 0 0 0 .001.927zm2.95-2.95a.735.735 0 1 1-1.039 1.04.735.735 0 0 1 1.04-1.04zm12.788 2.95a.654.654 0 0 0 .927 0l.603-.603c.284.14.591.218.9.218.31 0 .617-.078.9-.218l.604.603a.654.654 0 0 0 .927 0 .655.655 0 0 0 0-.927l-.603-.603a2.045 2.045 0 0 0 0-1.801l.603-.604a.655.655 0 1 0-.927-.927l-.603.603a2.045 2.045 0 0 0-1.801 0l-.604-.603a.655.655 0 1 0-.927.927l.603.604a2.045 2.045 0 0 0 0 1.8l-.603.604a.656.656 0 0 0 0 .927zm2.95-2.95a.735.735 0 1 1-1.04 1.04.735.735 0 0 1 1.04-1.04zm-13.634-9.317h3.279v-1.967H32.79v1.967h3.28v-1.967h1.966V7.871H36.07V1.313h-2.623V.002h-3.934v1.967H27.65a.85.85 0 0 0-.708.38l-3.674 5.51c-.003.003-.004.008-.006.012H12.464v3.934h1.967v1.967zm1.967-1.311h-.656v-.656h.656v.656zm18.36 0h-.655v-.656h.656v.656zm0-9.836V7.87h-1.31V2.625h1.31zm-3.934-1.312h1.312v6.558h-1.312V1.313zm-1.311 6.558H27.46l2.053-3.08v3.08zm-1.617-4.59h1.048l-3.06 4.59h-1.048l3.06-4.59zm-14.12 7.213V9.182h22.95v1.312H13.775z" fill-rule="nonzero"/>
</symbol><symbol id="ico-filter-category-culture" viewBox="0 0 40 40">
    <title>
        filter-category-8
    </title>
    <path d="M39.771 6.271c-2.495-2.495-7.094-4.375-10.275-5.227C27.02.38 24.237 0 21.858 0c-1.5 0-2.803.146-3.875.433a.781.781 0 0 0-.552.552 32.291 32.291 0 0 0-.605 2.75c-.636 3.608-.76 7.56-.32 10.95-1.97.126-4.07.47-6.002.988-3.18.853-7.78 2.733-10.275 5.228a.781.781 0 0 0-.202.754c.249.931.553 1.88.903 2.832l.002.003c1.206 3.277 2.963 6.578 4.939 9.222C8.015 36.58 11.393 40 15.3 40c.563 0 1.122-.074 1.663-.219 2.386-.639 4.26-2.631 5.42-5.761.881-2.382 1.351-5.381 1.373-8.72.311.046.626.07.941.07 3.91 0 7.286-3.42 9.431-6.288 2.551-3.413 4.736-7.92 5.844-12.056a.781.781 0 0 0-.202-.755zM16.56 38.272c-.41.11-.833.165-1.258.165-2.546 0-5.45-2.01-8.18-5.66-1.789-2.394-3.389-5.35-4.533-8.317a34.879 34.879 0 0 1 1.792-1.306.781.781 0 0 0-.874-1.295c-.541.365-1.06.745-1.472 1.056a30.59 30.59 0 0 1-.376-1.218c1.947-1.749 5.583-3.532 9.25-4.514a29.884 29.884 0 0 1 5.846-.949c.25 1.304.587 2.484 1.007 3.531l.005.015c.04.1.082.2.124.298l.007.016c.215.5.45.97.704 1.404l.01.018c0 .002.002.003.003.005l.043.075c.031.052.064.102.095.153l.062.098a10.178 10.178 0 0 0 .34.501l.06.081c.05.069.102.138.154.204l.017.022c.103.13.208.255.315.376a2.51 2.51 0 0 1-1.958.947 2.51 2.51 0 0 1-2.168-1.252.781.781 0 0 0-1.353.782 4.077 4.077 0 0 0 3.52 2.032 4.079 4.079 0 0 0 3.11-1.447c.255.189.52.356.793.504l.034.018c.072.039.145.075.218.11l.06.03c.07.033.142.065.213.095l.026.012c.026 5.844-1.432 12.284-5.636 13.41zm16.318-20.126c-2.73 3.651-5.635 5.662-8.18 5.662a4.863 4.863 0 0 1-1.482-.232l-.006-.003c-3.379-1.086-4.604-5.651-5.034-8.276l-.004-.017a23.215 23.215 0 0 1-.022-.14c-.506-3.22-.445-7.07.127-10.62a34.882 34.882 0 0 1 2.206-.235.781.781 0 1 0-.109-1.558c-.648.045-1.285.114-1.796.178.077-.36.158-.717.246-1.067.857-.183 1.875-.275 3.034-.275 2.249 0 4.885.36 7.233.99 3.667.982 7.303 2.766 9.25 4.515-1.094 3.83-3.116 7.939-5.463 11.078zm1.974-6.035a4.077 4.077 0 0 0-3.52-2.033 4.077 4.077 0 0 0-3.521 2.033.781.781 0 1 0 1.353.781 2.51 2.51 0 0 1 2.167-1.251c.892 0 1.722.48 2.168 1.251a.781.781 0 1 0 1.353-.78zm-11.6-4.327a4.076 4.076 0 0 0-4.064 0 .781.781 0 1 0 .78 1.353 2.51 2.51 0 0 1 2.504 0 2.51 2.51 0 0 1 1.251 2.168.781.781 0 0 0 1.563 0 4.077 4.077 0 0 0-2.033-3.52zm5.122 9.943a.781.781 0 0 0-1.105 0 2.51 2.51 0 0 1-2.417.648 2.51 2.51 0 0 1-1.77-1.77.781.781 0 1 0-1.51.405 4.077 4.077 0 0 0 2.876 2.874 4.078 4.078 0 0 0 3.927-1.052.781.781 0 0 0 0-1.105zm-17.953 5.809a.781.781 0 0 0-.781.781 2.51 2.51 0 0 1-1.252 2.168 2.51 2.51 0 0 1-2.503 0 .781.781 0 1 0-.78 1.353c.626.362 1.329.543 2.032.543.703 0 1.406-.181 2.033-.543a4.077 4.077 0 0 0 2.032-3.521.781.781 0 0 0-.781-.781zm8.229 8.935a4.077 4.077 0 0 0-3.927-1.052 4.077 4.077 0 0 0-2.874 2.874.781.781 0 1 0 1.509.405 2.51 2.51 0 0 1 1.77-1.77 2.51 2.51 0 0 1 2.417.648.782.782 0 0 0 1.105-1.105zm4.16-29.717a.78.78 0 1 0-.285 1.537l.039.006a.782.782 0 0 0 .247-1.543zM6.64 21.118a.781.781 0 0 0-1.065-.432.781.781 0 1 0 .58 1.451l.03-.012a.781.781 0 0 0 .456-1.007z" fill-rule="nonzero"/>
</symbol><symbol id="ico-filter-category-dating" viewBox="0 0 38 37">
    <title>
        filter-category-5
    </title>
    <path d="M13.94 22.488a5.37 5.37 0 0 1-3.503 1.3 5.393 5.393 0 0 1-5.243-4.206l1.463-.44a3.856 3.856 0 0 0 3.78 3.124 3.856 3.856 0 0 0 3.78-3.123l1.463.439a5.376 5.376 0 0 1-1.74 2.906m-.766-5.44v1.368a2.74 2.74 0 0 1-2.737 2.736 2.74 2.74 0 0 1-2.737-2.73V17.049c.832.388 1.76.607 2.737.607.978 0 1.905-.218 2.737-.607M5.065 11.17a.557.557 0 0 0-.556-.557.762.762 0 0 1-.761-.76c0-.27.143-.515.382-.654.012-.007.024-.016.035-.024a.76.76 0 0 1 .344-.083h.842c.524 0 .988-.334 1.153-.831l.384-1.15c1.308-.03 5.433-.213 7.75-1.371a.557.557 0 1 0-.498-.996c-2.485 1.243-7.604 1.258-7.655 1.258a.557.557 0 0 0-.528.381l-.509 1.526a.102.102 0 0 1-.097.07H4.51l-.102.003v-2.74A4.059 4.059 0 0 1 8.46 1.187h5.27c.698 0 1.284.504 1.394 1.197a.557.557 0 0 0 .277.398 2.078 2.078 0 0 1 1.065 1.801v4.135c0 .198.106.381.277.48.24.14.382.385.382.655 0 .419-.341.76-.76.76a.557.557 0 0 0-.557.557 5.378 5.378 0 0 1-5.372 5.371 5.378 5.378 0 0 1-5.372-5.371m13.218 8.03l-3.996-1.199v-1.618a6.483 6.483 0 0 0 2.618-4.736 1.877 1.877 0 0 0 1.334-1.794c0-.548-.246-1.067-.658-1.42v-3.85a3.189 3.189 0 0 0-1.411-2.635A2.515 2.515 0 0 0 13.73.074H8.46a5.173 5.173 0 0 0-5.167 5.168v3.191a1.874 1.874 0 0 0-.658 1.42c0 .846.563 1.562 1.335 1.794a6.482 6.482 0 0 0 2.617 4.736v1.618l-4.782 1.435A2.517 2.517 0 0 0 0 21.862v6.434c0 .307.25.557.557.557h.102v6.688a.557.557 0 1 0 1.113 0v-6.688h2.18v6.688a.557.557 0 1 0 1.113 0V25.002a.556.556 0 0 0-.058-.248l-1.318-2.635a.557.557 0 1 0-.995.498l1.258 2.517v2.605H1.113v-5.877a1.41 1.41 0 0 1 1.012-1.36l1.999-.6c.68 2.888 3.295 4.998 6.313 4.998a6.484 6.484 0 0 0 6.312-4.998l1.214.364a.558.558 0 0 0 .693-.373.557.557 0 0 0-.373-.693m-6.178-6.486a.557.557 0 0 1 .082.783c-.446.55-1.084.864-1.75.864-.666 0-1.304-.315-1.75-.864a.557.557 0 0 1 .865-.702c.237.292.551.453.885.453.334 0 .648-.16.885-.453a.557.557 0 0 1 .783-.081zM7.802 9.296c.308 0 .557.25.557.557v.658a.557.557 0 0 1-1.113 0v-.658c0-.308.249-.557.556-.557zm5.27 0c.307 0 .556.25.556.557v.658a.557.557 0 0 1-1.113 0v-.658c0-.308.25-.557.557-.557zm16.818 6.711a.557.557 0 0 1 .081.783c-.445.55-1.083.865-1.75.865-.665 0-1.303-.315-1.749-.865a.557.557 0 0 1 .865-.701c.236.292.55.453.885.453.334 0 .648-.161.885-.453a.557.557 0 0 1 .783-.082zm-4.303-3.418c.307 0 .557.25.557.557v.659a.557.557 0 0 1-1.114 0v-.659c0-.307.25-.557.557-.557zm5.27 0c.307 0 .556.25.556.557v.659a.557.557 0 0 1-1.113 0v-.659c0-.307.249-.557.556-.557zm-2.635 14.492a4.71 4.71 0 0 1-4.516-3.361l1.26-.504a1.865 1.865 0 0 0 1.178-1.74v-.872a6.49 6.49 0 0 0 2.078.344 6.49 6.49 0 0 0 2.078-.344v.872c0 .77.462 1.454 1.178 1.74l1.26.504a4.71 4.71 0 0 1-4.516 3.36m-7.3-7.061c.098-.864.315-2.896.462-5.236.117.065.24.119.37.158a6.51 6.51 0 0 0 3.276 5.167v.958c-2.142-.425-3.492-.838-4.108-1.047m7.3-.184a5.311 5.311 0 0 1-3.374-1.192 5.393 5.393 0 0 1-1.865-2.985 5.406 5.406 0 0 1-.133-1.195.557.557 0 0 0-.557-.556.762.762 0 0 1 0-1.522c1.688 0 2.913-1.528 3.466-2.383 1.298.835 2.782 1.13 4.111 1.394 2.447.486 3.723.843 3.723 3.067 0 .404-.045.805-.133 1.195a5.392 5.392 0 0 1-1.864 2.985 5.311 5.311 0 0 1-3.374 1.192m-6.69-9.324c0-3.688 3.001-6.689 6.69-6.689 3.688 0 6.689 3 6.689 6.69 0 3.82.454 8.135.61 9.507-.616.209-1.966.622-4.108 1.047v-.958a6.51 6.51 0 0 0 3.133-4.204c.106-.47.16-.955.16-1.44 0-3.243-2.348-3.71-4.62-4.16-1.452-.288-2.953-.587-4.151-1.545a.556.556 0 0 0-.846.185c-.003.006-.315.62-.842 1.218-.447.506-1.148 1.11-1.954 1.11-.274 0-.534.06-.769.166.006-.311.009-.62.009-.927M36.408 23.99l-4.517-1.807a.779.779 0 0 1-.11-.054c3.06-.616 4.493-1.195 4.556-1.221a.557.557 0 0 0 .341-.585c-.006-.052-.654-5.287-.654-9.81 0-4.303-3.5-7.803-7.802-7.803s-7.803 3.5-7.803 7.802c0 4.522-.647 9.76-.654 9.812a.557.557 0 0 0 .341.584c.064.026 1.496.605 4.556 1.22a.779.779 0 0 1-.11.055l-4.517 1.807a2.52 2.52 0 0 0-1.592 2.351v1.4h-1.521v-2.606l1.258-2.517a.557.557 0 1 0-.995-.498l-1.318 2.635a.556.556 0 0 0-.058.249v10.539a.557.557 0 1 0 1.113 0v-6.69h1.521v.762a.557.557 0 0 0 .557.556h.102v5.372a.557.557 0 1 0 1.113 0V30.17h1.522v5.372a.557.557 0 1 0 1.113 0v-7.246a.557.557 0 0 0-1.113 0v.76h-2.18V26.34c0-.584.35-1.1.892-1.318l2.22-.888c.763 2.406 3.001 4.06 5.553 4.06a5.823 5.823 0 0 0 5.552-4.06l2.22.888c.542.217.893.735.893 1.318v2.717h-2.18v-.761a.557.557 0 0 0-1.114 0v7.246a.557.557 0 1 0 1.114 0V30.17h1.521v5.372a.557.557 0 1 0 1.113 0V30.17h.102c.308 0 .557-.25.557-.557V26.34a2.52 2.52 0 0 0-1.592-2.351" fill-rule="evenodd"/>
</symbol><symbol id="ico-filter-category-education" viewBox="0 0 40 38">
    <title>
        filter-category-16
    </title>
    <path d="M39.257 9.986a.665.665 0 0 0-.666.665v.22l-7.984 3.286v-1.203L39.51 9.27a.665.665 0 0 0 0-1.23L20.216.056a.666.666 0 0 0-.508 0L.41 8.04a.665.665 0 0 0 0 1.23l19.296 7.984a.659.659 0 0 0 .508 0l6.977-2.887a.664.664 0 1 0-.508-1.229l-6.723 2.781L2.405 8.655 19.961 1.39l17.556 7.265-7.64 3.161-7.316-2.732c.038-.138.062-.28.062-.43 0-1.118-1.17-1.995-2.662-1.995S17.3 7.536 17.3 8.655s1.169 1.996 2.661 1.996c.666 0 1.26-.182 1.722-.474l7.593 2.835v16.392a1.994 1.994 0 0 0-1.33 1.874c0 1.1.895 1.996 1.996 1.996 1.1 0 1.996-.896 1.996-1.996 0-.867-.559-1.598-1.331-1.874v-3.777c1.91-1.442 2.595-3.362 2.625-3.447a.673.673 0 0 0 .036-.218v-4.657a.665.665 0 1 0-1.33 0v4.534a6.806 6.806 0 0 1-1.331 2.01v-8.253l8.903-3.664a.665.665 0 0 0 .412-.616v-.665a.665.665 0 0 0-.665-.665zM19.96 9.32c-.812 0-1.33-.394-1.33-.665 0-.272.518-.665 1.33-.665s1.33.393 1.33.665c0 .271-.518.665-1.33.665zm9.98 22.623a.666.666 0 1 1 .002-1.332.666.666 0 0 1-.001 1.332zm-1.835 1.35c.357.09.574.45.485.808l-.665 2.66a.666.666 0 0 1-1.291-.322l.665-2.662a.664.664 0 0 1 .806-.484zm-8.145-13.327a.659.659 0 0 1-.254-.05L.41 11.93A.665.665 0 0 1 0 11.316v-.665a.666.666 0 0 1 1.33 0v.22l18.631 7.71 7.064-2.924a.665.665 0 1 1 .51 1.23l-7.32 3.029a.66.66 0 0 1-.254.05zm7.915 6.817a.664.664 0 0 1-.301.89c-1.484.734-4.01 1.608-7.614 1.608-10.312 0-13.144-6.783-13.26-7.071a.673.673 0 0 1-.047-.248v-4.657a.666.666 0 0 1 1.33 0v4.519c.384.833 3.05 5.838 11.312 6.101v-5.963a.666.666 0 0 1 1.33 0v5.97c2.985-.1 5.096-.826 6.36-1.451a.664.664 0 0 1 .89.302zm2.066 7.156c.367 0 .665.298.665.665V36.6a.665.665 0 1 1-1.33 0v-1.996c0-.367.297-.665.665-.665zm2.641-.162l.665 2.662a.665.665 0 0 1-1.29.323l-.666-2.661a.666.666 0 0 1 1.291-.324z" fill-rule="nonzero"/>
</symbol><symbol id="ico-filter-category-entertainment" viewBox="0 0 40 40">
    <title>
        filter-category-12
    </title>
    <path d="M37.371 37.306a3.227 3.227 0 0 0 2.577-3.156c0-.825-.31-1.596-.865-2.188a2.52 2.52 0 0 0 .221-1.034 2.58 2.58 0 0 0-2.577-2.577 2.58 2.58 0 0 0-2.577 2.577c0 .36.075.71.22 1.034a3.177 3.177 0 0 0-.865 2.188 3.228 3.228 0 0 0 2.578 3.156v1.354h-6.661l-3.834-9.037a12.954 12.954 0 0 0 1.659-.953 3.218 3.218 0 0 0 3.207 3.072 3.225 3.225 0 0 0 3.221-3.221 3.219 3.219 0 0 0-3.072-3.207 12.817 12.817 0 0 0 2.03-4.9 3.2 3.2 0 0 0 2.161.849 3.225 3.225 0 0 0 3.222-3.222 3.225 3.225 0 0 0-3.222-3.222 3.2 3.2 0 0 0-2.161.85 12.815 12.815 0 0 0-2.03-4.9 3.218 3.218 0 0 0 3.072-3.207 3.225 3.225 0 0 0-3.221-3.222 3.22 3.22 0 0 0-3.207 3.072 12.817 12.817 0 0 0-4.9-2.03 3.2 3.2 0 0 0 .849-2.16A3.225 3.225 0 0 0 19.974 0a3.225 3.225 0 0 0-3.221 3.222 3.2 3.2 0 0 0 .849 2.16 12.815 12.815 0 0 0-4.9 2.03A3.218 3.218 0 0 0 9.495 4.34a3.225 3.225 0 0 0-3.222 3.222 3.219 3.219 0 0 0 3.072 3.207 12.816 12.816 0 0 0-2.03 4.9 3.2 3.2 0 0 0-2.16-.85 3.225 3.225 0 0 0-3.222 3.223 3.225 3.225 0 0 0 3.222 3.221 3.2 3.2 0 0 0 2.16-.849 12.815 12.815 0 0 0 2.03 4.9 3.218 3.218 0 0 0-3.072 3.207 3.225 3.225 0 0 0 3.222 3.222 3.22 3.22 0 0 0 3.207-3.072c.524.36 1.082.672 1.659.953l-3.834 9.036H3.866v-1.354a3.227 3.227 0 0 0 2.577-3.156c0-.825-.31-1.596-.865-2.188a2.52 2.52 0 0 0 .221-1.034 2.58 2.58 0 0 0-2.577-2.577 2.58 2.58 0 0 0-2.578 2.577c0 .36.076.71.221 1.034A3.177 3.177 0 0 0 0 34.15a3.228 3.228 0 0 0 2.577 3.156v1.354H0v1.288h39.948V38.66h-2.577v-1.354zm-2.577-17.332a1.923 1.923 0 0 1-1.43-.644h2.86a1.92 1.92 0 0 1-1.43.644zm0-3.866c1.066 0 1.933.868 1.933 1.933H32.86c0-1.065.867-1.933 1.933-1.933zm-29.64 3.866a1.923 1.923 0 0 1-1.43-.644h2.86a1.92 1.92 0 0 1-1.43.644zm-1.932-1.933c0-1.065.867-1.933 1.933-1.933 1.065 0 1.933.868 1.933 1.933H3.222zM2.577 34.15v1.814A1.93 1.93 0 0 1 1.29 34.15c0-.61.285-1.172.783-1.544l.52-.388L2.2 31.7a1.276 1.276 0 0 1-.267-.773 1.29 1.29 0 0 1 2.577 0c0 .276-.093.543-.267.773l-.391.517.52.389c.497.371.783.934.783 1.543a1.93 1.93 0 0 1-1.29 1.814V34.15H2.578zm27.877-3.866c-.57 0-1.076 0-1.43-.645h2.86c-.354.645-.861.645-1.43.645zm1.933-1.933H28.52c0-.645.867-1.934 1.933-1.934 1.065 0 1.933 1.29 1.933 1.934zM30.454 9.665c-.57 0-1.076-.644-1.43-.644h2.86c-.354 0-.861.644-1.43.644zm0-3.866c1.065 0 1.933.644 1.933 1.933H28.52c0-1.289.866-1.933 1.933-1.933zm-10.48-4.51c1.066 0 1.933.867 1.933 1.933h-3.866c0-1.066.867-1.933 1.933-1.933zm1.43 3.221a1.92 1.92 0 0 1-1.43.645 1.923 1.923 0 0 1-1.43-.645h2.86zM9.494 5.8c1.067 0 1.934.644 1.934 1.933H7.562c0-1.289.867-1.933 1.933-1.933zM8.066 9.021h2.86c-.353 0-.861.644-1.43.644-.57 0-1.076-.644-1.43-.644zm1.43 21.263c-.57 0-1.076 0-1.43-.645h2.86c-.353.645-.86.645-1.43.645zM7.562 28.35c0-.645.867-1.933 1.933-1.933s1.933 1.288 1.933 1.933H7.562zm.814-10.31c0-6.395 5.203-11.598 11.598-11.598 6.395 0 11.598 5.203 11.598 11.598 0 4.56-2.651 8.502-6.487 10.396l-3.548-8.361a2.564 2.564 0 0 0 1.015-2.035 2.58 2.58 0 0 0-2.578-2.577 2.58 2.58 0 0 0-2.577 2.577c0 .83.401 1.563 1.014 2.035l-3.547 8.36c-3.836-1.893-6.488-5.835-6.488-10.395zm9.665 14.82c0-1.066.867-1.933 1.933-1.933s1.933.867 1.933 1.933h-3.866zm3.364 1.289a1.922 1.922 0 0 1-1.43.644 1.923 1.923 0 0 1-1.431-.644h2.86zm-1.43-4.51c-1.38 0-2.697-.255-3.925-.699l3.547-8.36c.124.017.248.038.377.038.13 0 .253-.02.377-.039l3.547 8.361a11.522 11.522 0 0 1-3.924.698zm-1.29-11.599a1.29 1.29 0 0 1 2.577 0 1.29 1.29 0 0 1-1.288 1.289 1.29 1.29 0 0 1-1.288-1.289zM11.928 38.66l3.62-8.532c.662.243 1.347.439 2.055.571a3.2 3.2 0 0 0-.85 2.162 3.225 3.225 0 0 0 3.222 3.222 3.225 3.225 0 0 0 3.222-3.222 3.2 3.2 0 0 0-.85-2.161 12.786 12.786 0 0 0 2.056-.572l3.62 8.532H11.926zm24.155-4.51v1.814a1.93 1.93 0 0 1-1.288-1.814c0-.61.285-1.172.783-1.544l.52-.388-.392-.517a1.276 1.276 0 0 1-.267-.773 1.29 1.29 0 0 1 2.577 0c0 .276-.092.543-.266.773l-.392.517.52.389c.497.371.783.934.783 1.543a1.93 1.93 0 0 1-1.289 1.814V34.15h-1.289z" fill-rule="nonzero"/>
</symbol><symbol id="ico-filter-category-fitness" viewBox="0 0 38 38">
    <title>
        filter-category-6
    </title>
    <path d="M3.465 4.141v-1.29h1.297v1.29H3.465zm2.593 0v-1.29h1.297v1.29H6.058zm2.593 0v-1.29h1.296v1.29H8.651zm14.532 32.468c3.28.275 10.63-.212 13.576-2.63l.824.996c-2.852 2.34-8.863 2.99-12.59 2.99-.747 0-1.4-.026-1.92-.07-6.699-.564-14.352-3.062-20.473-6.682l-2.283-1.35a.644.644 0 0 1-.23-.879c.358-.614.53-1.336.711-2.102.046-.193.092-.387.142-.579.124-.486.278-1.373.442-2.312.29-1.662.59-3.38.921-4.226l3.883-9.909c.076-.196.146-.407.217-.622.252-.764.54-1.63 1.21-2.218.34-.296.734-.502 1.08-.662l.24-.164 7.34-5.623a2.352 2.352 0 0 1 2.9.027l3.852 3.07c.544.433.866 1.08.881 1.775.01.414-.102.81-.296 1.164l1.137 1.699a.643.643 0 0 1-.118.847l-4.537 3.873a.648.648 0 0 1-.422.155c-.026 0-.054-.002-.082-.004l-4.97-.618c-.074.64-.11 1.287-.095 1.935.018.78.104 1.583.188 2.359.101.938.205 1.907.199 2.884-.005.747-.08 1.473-.215 2.175.157-.001.31.004.453.017a8.999 8.999 0 0 1 3.14.878c1.421-1.61 3.51-2.73 5.933-3.09 1.82-.273 3.588-.083 5.13.503 2.222-2.126 5.68-2.946 8.603-1.933l-.426 1.22c-2.317-.802-5.035-.242-6.913 1.314a7.837 7.837 0 0 1 2.469 2.208l-1.055.75c-1.57-2.183-4.483-3.253-7.617-2.786-2.093.312-3.892 1.262-5.113 2.624l-.622.902-.047-.028c-.282.44-.512.91-.679 1.406l-1.229-.411c.192-.57.45-1.11.766-1.616a7.662 7.662 0 0 0-2.453-.656c-.244-.02-.493-.025-.689.04-.542 1.664-1.457 3.118-2.691 4.196l-.855-.971c1.745-1.523 2.797-4.047 2.814-6.75.006-.904-.09-1.795-.191-2.739-.087-.802-.176-1.632-.196-2.466a15.1 15.1 0 0 1 .6-4.584l1.245.36c-.095.325-.176.653-.246.984l4.639.577 3.883-3.315-.636-.95-2.067 1.8a2.36 2.36 0 0 1-3.208-.106 2.33 2.33 0 0 1 .359-3.6l.217-.144.72 1.072-.218.146a1.047 1.047 0 0 0-.161 1.614 1.06 1.06 0 0 0 1.438.047L22.25 6.28a1.045 1.045 0 0 0-.035-1.607l-3.853-3.07a1.051 1.051 0 0 0-1.299-.012L9.38 7.45a.536.536 0 0 1-.094.053c-.289.132-.588.282-.817.484-.407.356-.625 1.015-.835 1.651-.079.238-.156.471-.241.688L3.51 20.234c-.284.725-.598 2.528-.85 3.977-.176 1.007-.328 1.877-.465 2.41-.047.185-.091.372-.135.559-.149.624-.301 1.265-.564 1.878l1.767 1.045c5.96 3.526 13.407 5.957 19.92 6.506zm8.155-24.703a3.226 3.226 0 0 0-.669-.665c.255-.189.48-.412.669-.666.189.254.413.477.668.666a3.226 3.226 0 0 0-.668.665m.648-3.247h-1.297a1.943 1.943 0 0 1-1.944 1.936v1.291c1.072 0 1.944.869 1.944 1.937h1.297c0-1.068.872-1.937 1.944-1.937v-1.29a1.943 1.943 0 0 1-1.944-1.937m3.24-3.853a3.226 3.226 0 0 0-.668-.665c.255-.188.48-.412.669-.665.189.253.413.477.668.665a3.226 3.226 0 0 0-.668.665m.648-3.247h-1.296a1.943 1.943 0 0 1-1.945 1.937v1.29c1.072 0 1.945.87 1.945 1.937h1.296c0-1.068.872-1.937 1.944-1.937v-1.29a1.943 1.943 0 0 1-1.944-1.937" fill-rule="evenodd"/>
</symbol><symbol id="ico-filter-category-food" viewBox="0 0 40 40">
    <title>
        filter-category-13
    </title>
    <path d="M38.065 21.935v-8.387a1.938 1.938 0 0 0-1.936-1.935h-1.29c-.498 0-.947.194-1.29.503a1.92 1.92 0 0 0-1.29-.503h-1.291c-.498 0-.947.194-1.29.503a1.92 1.92 0 0 0-1.29-.503h-1.291a1.938 1.938 0 0 0-1.936 1.935v8.28c-1.488-1.033-3.66-1.91-6.841-2.282l1.016-7.114a1.852 1.852 0 0 0-1.831-2.11h-5.892V4.517c0-.355.29-.645.645-.645h5.161a1.938 1.938 0 0 0 1.936-1.936A1.938 1.938 0 0 0 17.419 0h-5.806a3.875 3.875 0 0 0-3.871 3.871v6.452H1.85a1.852 1.852 0 0 0-1.831 2.111l1.555 10.883C.04 25.143 0 26.945 0 27.097c0 1.125.728 2.073 1.734 2.426a2.568 2.568 0 0 0 .27 3.217A3.873 3.873 0 0 0 0 36.129 3.875 3.875 0 0 0 3.871 40H40V23.871a1.938 1.938 0 0 0-1.935-1.936zm-3.871-8.387c0-.355.29-.645.645-.645h1.29c.356 0 .645.29.645.645v8.387h-2.58v-8.387zm-3.871 0c0-.355.29-.645.645-.645h1.29c.356 0 .645.29.645.645v8.387h-2.58v-8.387zm-3.871 0c0-.355.29-.645.645-.645h1.29c.356 0 .645.29.645.645v8.387h-2.58v-8.387zM16.129 1.29h1.29a.646.646 0 0 1 0 1.29h-1.29V1.29zm-2.58 0h1.29v1.29h-1.29V1.29zM9.031 3.871a2.583 2.583 0 0 1 2.58-2.58h.646v1.29a1.938 1.938 0 0 0-1.935 1.935v5.807h-1.29V3.87zM1.39 12.903l-.093-.65a.56.56 0 0 1 .554-.64H17.505a.56.56 0 0 1 .554.639l-.093.651h-1.837v1.29h1.652l-.368 2.581H1.942l-.368-2.58h13.265v-1.29H1.389zm15.84 5.162l-.195 1.365a31.75 31.75 0 0 0-2.195-.075h-1.29c-5.623 0-8.906 1.309-10.83 2.85l-.593-4.14H17.23zM1.29 27.097c0-.065.14-6.452 12.258-6.452h1.29c12.035 0 12.256 6.192 12.259 6.452 0 .711-.579 1.29-1.29 1.29H2.58c-.712 0-1.29-.579-1.29-1.29zm2.581 5.161c-.712 0-1.29-.579-1.29-1.29 0-.712.578-1.29 1.29-1.29h20.645c.712 0 1.29.578 1.29 1.29 0 .711-.578 1.29-1.29 1.29H3.871zm17.952 1.29l-2.647 3.089-7.06-3.089h9.707zm2.693 5.162H3.871a2.583 2.583 0 0 1-2.58-2.581 2.583 2.583 0 0 1 2.58-2.58h5.026l10.637 4.653 3.989-4.654h.993a2.583 2.583 0 0 1 2.58 2.581 2.583 2.583 0 0 1-2.58 2.58zm1.867-5.97c.44-.463.714-1.085.714-1.772 0-.473-.137-.91-.359-1.29h9.391v6.451h-7.742c0-.453-.082-.886-.226-1.29h4.097v-1.29h-4.864a3.895 3.895 0 0 0-1.01-.809zm12.327-6.934h-1.29v1.29h1.29V38.71H27.394c.334-.373.597-.81.767-1.29h9.258v-9.033h-9.39c.221-.381.358-.818.358-1.29h7.742v-1.29h-7.96a6.911 6.911 0 0 0-1.432-2.581h11.328c.355 0 .645.289.645.645v1.935zm-5.162 7.742h1.29v1.29h-1.29v-1.29zM8.388 21.935h1.29v1.29h-1.29v-1.29zm2.58 1.29h1.29v1.291h-1.29v-1.29zm2.58-1.29h1.29v1.29h-1.29v-1.29zm3.871 1.936h1.29v1.29h-1.29v-1.29zm3.226-1.936h1.29v1.29h-1.29v-1.29zM4.516 24.516h1.29v1.29h-1.29v-1.29z" fill-rule="nonzero"/>
</symbol><symbol id="ico-filter-category-hobby" viewBox="0 0 40 40">
    <title>
        filter-category-11
    </title>
    <path d="M39.387 14.503a.586.586 0 0 0 .585-.586V7.662a.586.586 0 0 0-.585-.585H23.503a.586.586 0 0 0-.586.585v5.018a3.374 3.374 0 0 0-1.728-.477 3.4 3.4 0 0 0-3.397 3.397 3.4 3.4 0 0 0 3.397 3.397c.617 0 1.212-.17 1.728-.477v4.432h-5.744a.585.585 0 0 0-.338 1.065 2.23 2.23 0 0 1 .947 1.82 2.228 2.228 0 0 1-2.226 2.226 2.228 2.228 0 0 1-2.225-2.226c0-.722.354-1.403.946-1.82a.586.586 0 0 0-.337-1.065H7.618a.586.586 0 0 0-.585.586v9.25a.586.586 0 1 0 1.171 0v-8.664h4.42a3.394 3.394 0 0 0 2.932 5.11 3.394 3.394 0 0 0 2.932-5.11h4.429v5.768a.586.586 0 0 0 1.069.33 2.219 2.219 0 0 1 1.827-.971c1.226.002 2.222 1 2.222 2.225a2.228 2.228 0 0 1-2.222 2.225 2.219 2.219 0 0 1-1.827-.971.585.585 0 0 0-1.07.33v5.769H8.205V34.74a.586.586 0 1 0-1.171 0v4.674c0 .324.262.586.585.586h31.769a.586.586 0 0 0 .586-.586V15.87a.586.586 0 1 0-1.172 0v7.083h-4.42c.3-.514.465-1.104.465-1.714v-.013-.01a3.4 3.4 0 0 0-3.397-3.397 3.4 3.4 0 0 0-3.397 3.397v.023c0 .61.165 1.2.465 1.714H24.09v-5.769a.586.586 0 0 0-1.07-.33 2.218 2.218 0 0 1-4.055-1.254 2.219 2.219 0 1 1 4.056-1.254.585.585 0 0 0 1.069-.33V8.248H38.8v5.67c0 .323.262.585.586.585zm-15.299 9.62h5.744v.001h.033a.586.586 0 0 0 .33-1.07 2.226 2.226 0 0 1-.971-1.828 2.228 2.228 0 0 1 2.225-2.212c1.223 0 2.218.991 2.225 2.212a2.226 2.226 0 0 1-.972 1.829.586.586 0 0 0 .33 1.069h5.769v14.705H24.088v-4.422c.515.3 1.109.466 1.722.466h.007a3.4 3.4 0 0 0 3.396-3.397 3.4 3.4 0 0 0-3.396-3.396h-.007c-.613 0-1.206.165-1.722.466v-4.422zM14.332 6.353a2.257 2.257 0 0 0-2.255 2.254 2.257 2.257 0 0 0 2.255 2.255c.737 0 1.43-.358 1.852-.959a.586.586 0 0 1 1.065.338v6.387a.586.586 0 0 1-.586.586h-5.09c.314.524.487 1.131.487 1.76A3.43 3.43 0 0 1 8.634 22.4a3.43 3.43 0 0 1-3.426-3.426c0-.63.173-1.237.487-1.761H.613a.586.586 0 0 1-.586-.586V6.572a.586.586 0 1 1 1.172 0v9.47h5.834a.586.586 0 0 1 .33 1.069 2.256 2.256 0 0 0 1.271 4.117 2.256 2.256 0 1 0 1.27-4.117.586.586 0 0 1 .33-1.07h5.843v-4.484a3.43 3.43 0 0 1-5.172-2.95 3.43 3.43 0 0 1 5.172-2.951V1.171H1.2V4.62a.586.586 0 1 1-1.172 0V.586C.027.262.29 0 .613 0h16.05c.324 0 .586.262.586.586v6.387a.586.586 0 0 1-1.065.337 2.268 2.268 0 0 0-1.852-.958z" fill-rule="nonzero"/>
</symbol><symbol id="ico-filter-category-lang" viewBox="0 0 38 36">
    <title>
        filter-category-7
    </title>
    <path d="M22.8 21.474a.632.632 0 1 1 0 1.263H6.333a.632.632 0 1 1 0-1.263H22.8zM6.333 15.158a.632.632 0 1 1 0-1.263h8.234a.632.632 0 1 1 0 1.263H6.333zM22.8 17.684a.632.632 0 1 1 0 1.263H6.333a.632.632 0 1 1 0-1.263H22.8zm13.933.09a2.488 2.488 0 0 1-2.489 2.48h-1.31a.632.632 0 0 0-.634.632v5.315l-3.167-3.474V11.324a3.755 3.755 0 0 0-3.757-3.745l-15.243.031V4.376a2.488 2.488 0 0 1 2.488-2.482l21.623.044h.001a2.488 2.488 0 0 1 2.489 2.483v13.352zm-8.866 6.903a2.488 2.488 0 0 1-2.492 2.481l-10.81.044a.634.634 0 0 0-.467.206l-5.231 5.74v-5.314a.632.632 0 0 0-.634-.632H3.756a2.488 2.488 0 0 1-2.49-2.481V11.369a2.489 2.489 0 0 1 2.49-2.483L9.5 8.874h.001l15.877-.032a2.488 2.488 0 0 1 2.489 2.482v13.353zM34.246.676L12.622.632a3.755 3.755 0 0 0-3.755 3.745v3.236l-5.111.01A3.755 3.755 0 0 0 0 11.37v13.352a3.754 3.754 0 0 0 3.756 3.745H7.6v6.316a.632.632 0 0 0 1.102.425l6.146-6.742 10.53-.043a3.754 3.754 0 0 0 3.755-3.745v-.071l3.332 3.654a.635.635 0 0 0 1.102-.425V21.52h.677A3.754 3.754 0 0 0 38 17.775V4.42A3.755 3.755 0 0 0 34.246.676z" fill-rule="evenodd"/>
</symbol><symbol id="ico-filter-category-movie" viewBox="0 0 38 38">
    <title>
        filter-category-4
    </title>
    <path d="M32.858 4.734a.563.563 0 0 1-.194.772l-8.594 5.137a.561.561 0 0 1-.772-.194.563.563 0 0 1 .194-.773l8.594-5.136a.563.563 0 0 1 .772.194zm-11.942 9.452c.23 0 .43.272.43.586 0 .315-.2.608-.43.608h-3.728c-.241 0-.597-.168-.597-.43v-1.016c0-1.675 3.372-2.565 3.372-4.042 0-.43-.283-.932-.974-.932-.513 0-.932.272-.932.922 0 .251-.262.502-.712.502-.356 0-.618-.167-.618-.733 0-1.194 1.09-1.927 2.251-1.927 1.215 0 2.346.796 2.346 2.126 0 2.262-3.32 2.995-3.32 4.085v.25h2.912zm4.35-2.093c.308.046.52.332.473.64a6.895 6.895 0 0 1-6.82 5.866 6.904 6.904 0 0 1-6.896-6.896 6.904 6.904 0 0 1 6.896-6.896c1.757 0 3.43.66 4.713 1.86a.563.563 0 1 1-.77.823 5.748 5.748 0 0 0-3.943-1.557 5.776 5.776 0 0 0-5.77 5.77 5.776 5.776 0 0 0 5.77 5.77c2.834 0 5.287-2.11 5.706-4.907a.563.563 0 0 1 .64-.473zm2.084-.953c-.015 0-.029 0-.043.002l-.043-.002a.563.563 0 0 0-.563.563c0 4.29-3.49 7.781-7.781 7.781-4.29 0-7.78-3.489-7.781-7.777v-.004-.003c.001-4.29 3.491-7.778 7.78-7.778 2.272 0 4.425.99 5.906 2.714a.563.563 0 0 0 .855-.733 8.902 8.902 0 0 0-6.154-3.086v-1.69h17.272V11.14H27.35zm9.448 11.14H19.526v-1.69c4.444-.3 8.004-3.874 8.283-8.324h8.99V22.28zm-18.399 0H1.126V12.266h8.904c.281 4.478 3.886 8.07 8.37 8.329v1.685zm19.526-10.581V.563A.563.563 0 0 0 37.362 0H5.1a.563.563 0 1 0 0 1.126h13.3v1.685c-4.484.26-8.089 3.85-8.37 8.329H1.126V.563A.563.563 0 1 0 0 .563v22.28c0 .31.252.563.563.563h36.799a.563.563 0 0 0 .563-.563V11.707v-.004-.004zm-1.631 25.174h-7.947V34.1c0-.654.532-1.186 1.186-1.186h5.575c.653 0 1.186.532 1.186 1.186v2.773zm-17.02 0V34.1c0-.654.531-1.186 1.185-1.186h5.575c.654 0 1.186.532 1.186 1.186v2.773h-7.947zm-9.074 0V34.1c0-.654.532-1.186 1.186-1.186h5.575c.654 0 1.186.532 1.186 1.186v2.773H10.2zm-9.074 0V34.1c0-.654.533-1.186 1.186-1.186h5.575c.654 0 1.186.532 1.186 1.186v2.773H1.126zm33.982-5.086h-2.225v-2.774a2.315 2.315 0 0 0-2.312-2.312h-1.22a.563.563 0 1 0 0 1.126h1.22c.654 0 1.186.532 1.186 1.186v2.774h-2.224c-.699 0-1.325.312-1.75.803a2.307 2.307 0 0 0-1.749-.803H23.81v-2.774c0-.654.532-1.186 1.186-1.186a.563.563 0 1 0 0-1.126c-.698 0-1.325.311-1.75.802a2.307 2.307 0 0 0-1.748-.802h-1.51a.563.563 0 1 0 0 1.126h1.51c.653 0 1.185.532 1.185 1.186v2.774H20.46c-.698 0-1.325.312-1.75.803a2.307 2.307 0 0 0-1.748-.803h-2.224v-2.774c0-.654.532-1.186 1.186-1.186a.563.563 0 1 0 0-1.126c-.699 0-1.325.311-1.75.802a2.307 2.307 0 0 0-1.749-.802h-1.297a.563.563 0 1 0 0 1.126h1.297c.654 0 1.186.532 1.186 1.186v2.774h-2.224c-.698 0-1.325.312-1.75.803a2.307 2.307 0 0 0-1.749-.803H5.663v-2.774c0-.654.532-1.186 1.186-1.186a.563.563 0 1 0 0-1.126 2.315 2.315 0 0 0-2.312 2.312v2.774H2.312A2.315 2.315 0 0 0 0 34.1v3.337c0 .31.252.563.563.563h36.294a.563.563 0 0 0 .563-.563V34.1a2.315 2.315 0 0 0-2.312-2.313z" fill-rule="evenodd"/>
</symbol><symbol id="ico-filter-category-nightlife" viewBox="0 0 40 40">
    <title>
        filter-category-15
    </title>
    <path d="M37.437 13.635l-1.329-1.816 1.33-1.816c.252-.345.276-.79.062-1.161a1.052 1.052 0 0 0-1.037-.526l-2.237.243-.908-2.059a1.051 1.051 0 0 0-.974-.635c-.428 0-.801.243-.974.635l-.908 2.06-2.237-.244a1.052 1.052 0 0 0-1.037.526 1.06 1.06 0 0 0-.142.617 13.727 13.727 0 0 0-6.457-1.923V4.343h6.92a2.58 2.58 0 0 0 2.578-2.577V.98a.98.98 0 0 0-.98-.98h-1.711a.586.586 0 1 0 0 1.173h1.518v.593c0 .774-.63 1.404-1.405 1.404H12.495c-.774 0-1.404-.63-1.404-1.404v-.593h12.588a.586.586 0 1 0 0-1.173H10.898a.98.98 0 0 0-.98.98v.786a2.58 2.58 0 0 0 2.577 2.577h6.921v3.193C12.066 7.844 6.18 13.92 6.18 21.345c0 2.377.613 4.722 1.775 6.781a.586.586 0 0 0 1.02-.576 12.582 12.582 0 0 1-1.282-3.288c.794.93 1.88 1.769 3.22 2.465.757.394 1.58.734 2.452 1.017.913 2.463 2.342 4.556 4.14 6.005a12.568 12.568 0 0 1-6.398-3.41.586.586 0 1 0-.825.834 13.737 13.737 0 0 0 9.67 3.994h.05c7.622 0 13.823-6.2 13.823-13.822 0-1.403-.211-2.758-.603-4.035.037-.054.07-.11.096-.172l.908-2.06 2.237.244a1.05 1.05 0 0 0 1.037-.526c.214-.37.19-.816-.063-1.161zM11.454 25.687c-1.949-1.014-3.28-2.329-3.824-3.756h4.623c.047 1.534.274 3.018.66 4.41-.51-.197-.998-.414-1.459-.654zM7.801 20.76c.625-1.275 1.884-2.443 3.653-3.363a14.22 14.22 0 0 1 1.349-.612 18.548 18.548 0 0 0-.55 3.975H7.8zm5.417-5.37c-.817.273-1.591.595-2.305.967-1.405.73-2.532 1.617-3.334 2.603a12.686 12.686 0 0 1 9.979-10.026c-1.923 1.542-3.43 3.804-4.34 6.455zm.925.936c1.624-.484 3.42-.765 5.273-.814v5.248h-5.99c.05-1.55.298-3.046.717-4.434zm.64 11.819c1.464.354 3.03.56 4.633.6v4.902c-1.976-1.136-3.582-3.085-4.633-5.502zm4.633-.572a20.556 20.556 0 0 1-5.146-.775 17.42 17.42 0 0 1-.843-4.866h5.989v5.64zm0-13.233a22.08 22.08 0 0 0-4.8.64c1.044-2.587 2.716-4.69 4.8-5.908v5.268zm1.173-5.268c2.084 1.218 3.755 3.321 4.8 5.908a22.084 22.084 0 0 0-4.8-.64V9.07zm0 6.44c1.853.049 3.648.33 5.273.813.419 1.389.667 2.885.717 4.435h-5.99V15.51zm0 6.42h5.989a17.185 17.185 0 0 1-.86 4.87 20.57 20.57 0 0 1-5.13.77v-5.64zm0 6.813a22.149 22.149 0 0 0 4.609-.594c-1.052 2.378-2.648 4.306-4.61 5.453v-4.859zm1.83 5.018c1.824-1.451 3.275-3.548 4.201-6.011a16.133 16.133 0 0 0 2.47-1.023c1.341-.697 2.43-1.536 3.223-2.468a12.689 12.689 0 0 1-9.893 9.502zm6.13-8.074c-.463.24-.955.46-1.468.657.392-1.394.623-2.88.67-4.414h4.624c-.545 1.428-1.876 2.743-3.825 3.757zm-1.348-8.904c.47.185.921.389 1.349.611 1.769.92 3.029 2.089 3.654 3.364h-4.452a18.552 18.552 0 0 0-.55-3.975zm1.89-.429a16.026 16.026 0 0 0-2.305-.967c-.91-2.651-2.416-4.913-4.34-6.455 2.291.45 4.36 1.522 6.028 3.03l-1.224 1.672c-.252.345-.277.79-.063 1.161.214.37.612.573 1.038.526l2.237-.243.908 2.059c.143.325.425.547.76.614.118.394.217.797.295 1.207-.802-.986-1.93-1.873-3.334-2.604zm5.183-2.45a1.06 1.06 0 0 0-1.09.628l-.84 1.908-.841-1.908a1.06 1.06 0 0 0-1.09-.628l-2.072.225 1.232-1.682a1.06 1.06 0 0 0 0-1.258L28.34 9.508l2.073.226c.463.05.9-.203 1.089-.63l.841-1.907.841 1.908a1.06 1.06 0 0 0 1.09.629l2.072-.226-1.232 1.682a1.06 1.06 0 0 0 0 1.258l1.232 1.682-2.073-.225zm-14.272 22.62c.324 0 .587.262.587.585v2.304a.586.586 0 1 1-1.173 0V37.11c0-.323.262-.586.586-.586zM9.27 9.781a.586.586 0 1 1-.83.83l-1.628-1.63a.586.586 0 1 1 .83-.828l1.628 1.628zm23.924 23.925a.586.586 0 1 1-.829.829l-1.628-1.629a.586.586 0 1 1 .829-.829l1.628 1.629zM4.237 20.759a.586.586 0 0 1 0 1.172H1.933a.586.586 0 1 1 0-1.172h2.304zm33.834 0a.586.586 0 1 1 0 1.172h-2.303a.586.586 0 1 1 0-1.172h2.303zM9.27 32.079c.229.228.229.6 0 .828L7.64 34.536a.585.585 0 0 1-.829 0 .586.586 0 0 1 0-.83l1.629-1.628c.229-.229.6-.229.829 0zm30.247-4.727l-1.36-.744-.743-1.359a.927.927 0 0 0-1.628 0l-.743 1.36-1.36.743a.927.927 0 0 0 0 1.628l1.36.743.743 1.36a.927.927 0 0 0 1.628 0l.744-1.36 1.36-.743a.927.927 0 0 0 0-1.628zm-1.985 1.377a.927.927 0 0 0-.369.369l-.563 1.03-.563-1.03a.927.927 0 0 0-.369-.37l-1.029-.562 1.03-.563a.927.927 0 0 0 .368-.369l.563-1.03.564 1.03a.926.926 0 0 0 .368.369l1.03.563-1.03.563zm1.419-25.83l-1.035-.565-.566-1.035a.854.854 0 0 0-1.5 0l-.565 1.035-1.035.566a.854.854 0 0 0 0 1.5l1.035.565L35.85 6a.854.854 0 0 0 1.499 0l.566-1.035 1.035-.566a.854.854 0 0 0 0-1.5zm-1.68 1.082a.854.854 0 0 0-.34.34l-.33.606-.333-.607a.854.854 0 0 0-.339-.339l-.606-.331.606-.332a.855.855 0 0 0 .34-.34l.331-.606.332.606a.853.853 0 0 0 .34.34l.606.332-.607.331zM5.146 26.234l-1.034-.566-.566-1.035a.854.854 0 0 0-1.5 0l-.566 1.035-1.034.566a.854.854 0 0 0 0 1.499l1.034.566.566 1.035a.854.854 0 0 0 1.5 0l.566-1.035 1.035-.566a.854.854 0 0 0 0-1.5zm-1.679 1.08a.853.853 0 0 0-.34.34l-.33.607-.332-.606a.853.853 0 0 0-.34-.34l-.606-.332.606-.331a.854.854 0 0 0 .34-.34l.331-.606.332.606a.854.854 0 0 0 .34.34l.605.331-.606.332z" fill-rule="nonzero"/>
</symbol><symbol id="ico-filter-category-travel" viewBox="0 0 38 39">
    <title>
        filter-category-3
    </title>
    <path d="M25.594 25.615c.546-1.804.854-3.825.896-5.93h4.72a12.116 12.116 0 0 1-1.863 5.93h-3.753zm-2.73 5.085c.568-.6 1.093-1.343 1.561-2.218.292-.545.554-1.127.787-1.741h3.332a12.243 12.243 0 0 1-5.68 3.96zm-2.943.586c-.11.008-.22.015-.331.02V26.74h4.412c-.175.422-.364.826-.57 1.209-.984 1.84-2.208 2.994-3.511 3.336zm-.331-11.6h5.774c-.044 2.124-.371 4.152-.949 5.93H19.59v-5.93zm-1.126-8.031h-4.262c.174-.423.364-.827.569-1.21 1.03-1.924 2.322-3.099 3.693-3.378v4.588zm0 6.905h-5.62c.055-2.07.38-4.044.945-5.78h4.675v5.78zm0 7.055h-4.675c-.578-1.777-.905-3.805-.949-5.93h5.624v5.93zm0 5.69a11.184 11.184 0 0 1-.133-.006c-1.321-.327-2.564-1.487-3.56-3.349a13.361 13.361 0 0 1-.569-1.21h4.262v4.566zM9.51 26.742h3.482c.232.614.495 1.196.786 1.74.487.91 1.035 1.677 1.628 2.29a12.237 12.237 0 0 1-5.896-4.03zm-2.666-7.055h4.87c.041 2.104.35 4.125.896 5.93H8.706a12.116 12.116 0 0 1-1.862-5.93zm1.769-6.906h3.997c-.533 1.761-.84 3.73-.893 5.78H6.844c.096-2.11.73-4.08 1.769-5.78zm7.01-5.37c-.677.645-1.299 1.484-1.845 2.504a14.807 14.807 0 0 0-.786 1.74H9.39a12.235 12.235 0 0 1 6.232-4.244zm14.463 4.283l-.934.628a12.124 12.124 0 0 1 2.057 6.239H19.59v-5.78h1.84v-1.125h-1.84V6.94c.682.03 1.36.118 2.021.26l.238-1.1c-.922-.199-1.87-.3-2.821-.3-7.346 0-13.323 5.977-13.323 13.323 0 2.808.875 5.416 2.365 7.567v.05h.035c2.255 3.224 5.897 5.407 10.054 5.676a4.333 4.333 0 0 0 1.948-.015c6.843-.551 12.243-6.296 12.243-13.278 0-2.662-.782-5.231-2.263-7.43zm6.715 8.764l1.122.085c-.029.385-.07.772-.122 1.153l-1.116-.153c.05-.359.088-.724.116-1.085zm-.857 4.268l1.069.355c-.122.365-.256.731-.4 1.089l-1.044-.42c.135-.336.261-.68.375-1.024zm-.813 2.021l1.017.484c-.165.346-.343.693-.53 1.03l-.984-.545c.175-.317.342-.643.497-.969zm1.373-4.129l1.104.222c-.076.377-.165.757-.263 1.13l-1.089-.29c.093-.35.176-.706.248-1.062zM3.86 28.59c.193.307.398.611.61.906l-.915.657a19.08 19.08 0 0 1-.647-.963l.952-.6zm6.232 5.99c.314.181.637.354.961.515l-.5 1.008a19.031 19.031 0 0 1-1.022-.547l.561-.975zm-1.819-1.2c.29.218.59.429.892.628l-.62.94a19.06 19.06 0 0 1-.948-.667l.676-.9zm-1.661-1.413c.26.251.533.497.81.732l-.73.858c-.294-.25-.583-.511-.86-.778l.78-.812zm-1.479-1.604c.23.28.47.558.715.825l-.828.763a19.167 19.167 0 0 1-.76-.877l.873-.711zm6.91 5.186c.333.14.675.273 1.016.393l-.374 1.062a18.931 18.931 0 0 1-1.08-.418l.438-1.037zm4.185 1.189c.358.055.722.1 1.083.134l-.105 1.12c-.383-.035-.77-.083-1.15-.142l.172-1.112zm-2.13-.466c.348.099.704.188 1.058.265l-.24 1.1a18.798 18.798 0 0 1-1.126-.282l.308-1.083zm5.393.67l.032 1.126a19.329 19.329 0 0 1-1.16-.003l.037-1.125c.362.012.731.013 1.091.003zm2.173-.192l.167 1.114c-.38.057-.767.103-1.151.137l-.1-1.121c.362-.032.726-.076 1.084-.13zm2.132-.455l.303 1.085c-.37.103-.75.196-1.127.277l-.235-1.101c.354-.076.71-.164 1.06-.26zm-21.79-11.65c.114.345.239.69.372 1.028l-1.046.415a18.926 18.926 0 0 1-.395-1.093l1.07-.35zm-1.73-8.813l1.11.192c-.061.357-.113.72-.153 1.08L.115 16.98c.043-.383.097-.77.163-1.149zm2.407-6.484l.966.578c-.186.31-.365.631-.531.952l-1-.518c.177-.341.367-.682.565-1.012zm-1.066 2.056l1.03.456c-.147.33-.285.67-.41 1.009l-1.056-.392c.134-.36.28-.722.436-1.073zm-.806 2.172l1.077.326c-.104.347-.2.701-.283 1.053L.51 14.695c.089-.375.19-.751.302-1.12zm3.18-6.14l.89.691c-.223.286-.44.583-.644.881l-.929-.636c.217-.317.447-.632.683-.936zm-2.82 12.938c.025.361.062.726.11 1.085l-1.116.148c-.05-.381-.09-.77-.118-1.153l1.123-.08zm-.024-2.182a18.373 18.373 0 0 0-.021 1.091L0 19.294a19.612 19.612 0 0 1 .022-1.159l1.125.056zm.31 4.343c.07.356.152.714.243 1.064l-1.09.283a18.947 18.947 0 0 1-.257-1.13l1.104-.217zM19.106.096c.385.003.775.017 1.16.043l-.076 1.123a17.977 17.977 0 0 0-1.09-.04l.006-1.126zm-5.715.839l.332 1.076c-.347.106-.695.226-1.034.353l-.397-1.053c.36-.136.73-.263 1.1-.376zm4.556-.811l.061 1.124c-.362.02-.728.05-1.087.092L16.792.222c.382-.044.77-.077 1.155-.098zM2.813 26.674c.155.328.321.656.495.974l-.988.54a19.008 19.008 0 0 1-.526-1.035l1.02-.479zM15.645.39l.197 1.109c-.356.063-.715.138-1.068.224L14.51.627c.374-.09.756-.17 1.135-.238zm22.07 15.53c.064.379.117.766.157 1.149l-1.12.118a17.85 17.85 0 0 0-.147-1.081l1.11-.187zM7.255 4.153l.697.885c-.285.224-.566.46-.837.7l-.749-.84c.288-.257.587-.507.89-.745zm29.936 9.505c.11.37.21.747.297 1.122l-1.097.254a17.764 17.764 0 0 0-.279-1.055l1.08-.321zM9.163 2.833l.583.963c-.31.188-.618.387-.916.594l-.641-.926c.317-.22.644-.432.974-.631zM5.524 5.696l.798.793a18.14 18.14 0 0 0-.745.797l-.845-.744c.254-.289.52-.573.792-.846zm5.694-3.942l.461 1.027c-.33.149-.661.31-.982.478l-.524-.997c.342-.18.693-.35 1.045-.508zm20.096 30.262l.776.815a19.19 19.19 0 0 1-.863.774l-.726-.86c.277-.234.55-.479.813-.729zm2.763-3.363l.95.604c-.206.324-.425.647-.65.958l-.912-.66c.212-.293.418-.597.612-.902zm-1.279 1.765l.87.715c-.244.297-.5.59-.763.873l-.825-.766c.247-.266.488-.542.718-.822zM25.86 35.58l.434 1.04c-.356.148-.722.287-1.086.413l-.369-1.064c.343-.119.686-.25 1.021-.39zm1.96-.963l.557.979c-.335.19-.68.373-1.026.543l-.496-1.01c.325-.16.65-.332.965-.512zm1.827-1.194l.672.903c-.31.23-.63.454-.951.664l-.616-.942c.303-.198.604-.408.895-.625zm8.313-15.198a19.637 19.637 0 0 1 .017 1.16l-1.125-.018a18.676 18.676 0 0 0-.016-1.092l1.124-.05zm-4.292-7.32l-.59 2.03-.553-.372-.45-1.753-8.317-5.517a.932.932 0 0 1-.397-.599.939.939 0 0 1 1.442-.96L33.118 9.4l1.793-.242.545.367-1.789 1.38zM25.19 14.4l-.4-.27 1.386-5.883 1.658 1.1-2.644 5.053zM33.383 1.37l.4.27-3.682 4.343-1.643-1.12 4.925-3.493zm1.801 6.615l-1.79.242-2.357-1.607 4.419-5.212L33.366 0l-5.9 4.186-2.032-1.384a2.066 2.066 0 0 0-3.179 2.108c.106.541.416 1.009.876 1.319l2.044 1.356-1.66 7.046 2.09 1.407 3.172-6.064 2.314 1.535.45 1.749 2.186 1.472.919-3.159 2.733-2.11-2.195-1.477z" fill-rule="evenodd"/>
</symbol><symbol id="ico-filter-category-volonter" viewBox="0 0 40 34">
    <title>
        filter-category-18
    </title>
    <path d="M23.825 28.984a2.409 2.409 0 0 1 2.406 2.406 2.409 2.409 0 0 1-2.406 2.406H15.68a5.652 5.652 0 0 1-4.357-2.043l-1.947-2.34a4.096 4.096 0 0 0-3.135-1.481 1.935 1.935 0 0 1-1.792 1.21h-.81a.78.78 0 0 1 0-1.558h.81a.374.374 0 0 0 .373-.374v-6.249a.374.374 0 0 0-.373-.373H1.56v4.922a.78.78 0 1 1-1.56 0v-5.701c0-.431.35-.78.78-.78h3.67c.8 0 1.487.488 1.78 1.183h3.023a6.96 6.96 0 0 1 4.857 1.962l4.204 4.057c.902.87.944 2.329.093 3.25a2.32 2.32 0 0 1-1.71.746 2.316 2.316 0 0 1-1.57-.61l-3.3-3.024a.78.78 0 1 1 1.054-1.15l3.3 3.025a.768.768 0 0 0 1.08-.045.77.77 0 0 0-.03-1.07l-4.204-4.058a5.408 5.408 0 0 0-3.774-1.524h-2.87v4.606a5.65 5.65 0 0 1 4.192 2.038l1.948 2.34a4.097 4.097 0 0 0 3.158 1.482h8.144a.848.848 0 0 0 0-1.694H20.8a.78.78 0 1 1 0-1.56h3.025zM39.142 7.246c.43 0 .78.35.78.78v6.006c0 .43-.349.78-.78.78h-3.67c-.8 0-1.487-.49-1.78-1.184h-3.023a6.96 6.96 0 0 1-4.857-1.961l-4.204-4.058a2.339 2.339 0 0 1-.093-3.25 2.33 2.33 0 0 1 3.28-.137l3.3 3.025a.78.78 0 1 1-1.054 1.15l-3.3-3.025a.767.767 0 0 0-1.08.045.77.77 0 0 0 .03 1.07l4.204 4.058a5.408 5.408 0 0 0 3.774 1.524h2.87V7.464a5.65 5.65 0 0 1-4.192-2.039l-1.948-2.34a4.097 4.097 0 0 0-3.158-1.482h-8.144a.848.848 0 0 0 0 1.694h3.33a.78.78 0 1 1 0 1.56h-3.33a2.409 2.409 0 0 1-2.406-2.407A2.409 2.409 0 0 1 16.097.044h8.144c1.689 0 3.277.745 4.357 2.043l1.947 2.341a4.096 4.096 0 0 0 3.135 1.48 1.935 1.935 0 0 1 1.792-1.21h.753a.78.78 0 0 1 0 1.559h-.753a.374.374 0 0 0-.373.373v6.249c0 .206.168.373.373.373h2.89V8.026c0-.43.35-.78.78-.78zm-13.97 19.315a.78.78 0 0 1-.39 1.032l-.017.007a.777.777 0 0 1-1.026-.403.78.78 0 0 1 .403-1.026.779.779 0 0 1 1.03.39zm1.939-1.313a.776.776 0 0 1-.161 1.087l-.01.007a.776.776 0 0 1-1.09-.169.78.78 0 0 1 .17-1.09.783.783 0 0 1 1.09.165zm-4.118 2.188a.779.779 0 0 1-.77.943.78.78 0 0 1-.151-1.545.78.78 0 0 1 .92.602zm5.746-3.883a.78.78 0 0 0-1.117.075.78.78 0 0 0 1.175 1.024.78.78 0 0 0-.058-1.1zm-.43.671l-.092-.093.1.1-.007-.007zm2.415-4.897a.778.778 0 0 1 .52.97l-.003.011a.78.78 0 1 1-1.49-.458.782.782 0 0 1 .973-.523zm.998-4.024a.78.78 0 0 1-1.533.285.78.78 0 1 1 1.533-.285zm-.715 1.692a.78.78 0 0 1 .709.841.78.78 0 1 1-1.554-.133.78.78 0 0 1 .845-.708zm-1.047 4.55a.78.78 0 0 1 .294 1.063l-.678-.384.678.385a.773.773 0 0 1-1.055.31.783.783 0 0 1-.312-1.06l.01-.02a.78.78 0 0 1 1.063-.293zM15.82 6.699a.78.78 0 0 1-.699 1.129.78.78 0 0 1-.354-1.474l.007-.004a.78.78 0 0 1 1.046.349zm2.256-.65a.78.78 0 0 1-.574.941.779.779 0 0 1-.367-1.515.78.78 0 0 1 .94.574zm-4.317 1.774a.779.779 0 0 1-.117 1.095l-.01.008a.777.777 0 0 1-1.096-.124.78.78 0 0 1 .124-1.096l.486.61-.483-.612a.78.78 0 0 1 1.096.12zM9.602 13.37a.78.78 0 0 1 .55.948.78.78 0 0 1-.941.569.78.78 0 0 1-.566-.97.78.78 0 0 1 .957-.547zm-.497 2.291a.78.78 0 0 1 .734.814.78.78 0 1 1-1.557-.08.78.78 0 0 1 .823-.734zm1.478-4.421a.78.78 0 0 1 .332 1.045.78.78 0 0 1-1.042.35.779.779 0 0 1-.355-1.042l.012-.025a.78.78 0 0 1 1.053-.328zm1.408-1.876a.78.78 0 0 1 .106 1.092.78.78 0 0 1-1.22-.97l.016-.02a.78.78 0 0 1 1.098-.102zm-2.005 9.275a.783.783 0 0 1-.769.92.775.775 0 0 1-.764-.638l-.002-.007a.78.78 0 0 1 1.535-.275zm12.652-5.919a3.61 3.61 0 0 0-2.625 1.125 3.624 3.624 0 0 0-6.246 2.496c0 1.077.475 2.09 1.304 2.781l.015.013 4.443 3.517a.778.778 0 0 0 .97-.001l4.63-3.69a.772.772 0 0 0 .066-.057 3.596 3.596 0 0 0 1.063-2.563 3.624 3.624 0 0 0-3.62-3.62zm1.484 5.052l-4.11 3.274-3.95-3.127a2.057 2.057 0 0 1-.735-1.578c0-1.137.924-2.061 2.06-2.061.837 0 1.585.5 1.906 1.273a.78.78 0 0 0 1.44 0 2.056 2.056 0 0 1 1.905-1.273 2.064 2.064 0 0 1 1.484 3.492zM.78 29.14a.777.777 0 1 1 0-1.555.777.777 0 0 1 0 1.554zM39.142 6.253a.777.777 0 1 1 0-1.554.777.777 0 0 1 0 1.554z" fill-rule="nonzero"/>
</symbol></svg>