<?xml version="1.0" encoding="UTF-8"?><!DOCTYPE svg PUBLIC "-//W3C//DTD SVG 1.1//EN" "http://www.w3.org/Graphics/SVG/1.1/DTD/svg11.dtd"><svg xmlns="http://www.w3.org/2000/svg" xmlns:xlink="http://www.w3.org/1999/xlink"><defs>
        <path d="M20.905 16.031a1.19 1.19 0 0 0-.061-.114c-.313-.548-.91-1.22-1.79-2.017l-.028-.027c-.42-.38-.672-.63-.778-.758-.194-.243-.238-.49-.132-.739.075-.189.357-.587.844-1.195.256-.323.459-.581.609-.776 1.08-1.4 1.55-2.293 1.406-2.683l-.056-.09c-.188-.151-.461-.101-.461-.108a16.559 16.559 0 0 0-.563 0h-2.816a.162.162 0 0 0-.106.007l-.037.027a.412.412 0 0 0-.103.096.622.622 0 0 0-.094.16 14.73 14.73 0 0 1-1.003 2.053c-.23.377-.443.704-.637.981a4.74 4.74 0 0 1-.487.611 3.37 3.37 0 0 1-.357.315c-.106.08-.187.113-.243.1a7.024 7.024 0 0 1-.16-.036.613.613 0 0 1-.21-.224.982.982 0 0 1-.108-.356 3.823 3.823 0 0 1-.033-.37 7.518 7.518 0 0 1 .005-.437c.006-.189.01-.317.01-.383 0-.232.004-.483.013-.753.01-.271.017-.486.024-.644.006-.158.009-.325.009-.502 0-.176-.011-.314-.033-.415a1.394 1.394 0 0 0-.098-.292.496.496 0 0 0-.192-.219 1.1 1.1 0 0 0-.314-.123c-.331-.073-.753-.113-1.265-.119-1.162-.012-1.91.061-2.24.22-.131.066-.25.158-.356.273-.113.134-.128.207-.047.219.375.055.64.186.796.392l.057.11c.043.08.087.22.13.42.045.2.073.423.085.666.031.444.031.824 0 1.14-.031.317-.06.563-.089.74a1.45 1.45 0 0 1-.239.63.16.16 0 0 1-.047.045.719.719 0 0 1-.253.046c-.087 0-.193-.043-.318-.128a2.227 2.227 0 0 1-.39-.352 4.7 4.7 0 0 1-.454-.625 10.819 10.819 0 0 1-.525-.949l-.15-.264c-.093-.17-.221-.419-.384-.744-.162-.326-.306-.64-.43-.945a.603.603 0 0 0-.226-.292l-.047-.027a.647.647 0 0 0-.15-.078 1.015 1.015 0 0 0-.215-.059L3.6 7.457c-.262 0-.44.058-.534.174l-.038.054A.289.289 0 0 0 3 7.832c0 .066.019.149.056.246.375.858.783 1.685 1.223 2.482.44.797.823 1.439 1.148 1.925.325.487.656.947.994 1.378.337.432.56.71.67.83.11.123.195.214.257.275l.235.219c.15.146.37.32.66.524.291.204.613.405.966.603.353.197.764.359 1.232.483a4.37 4.37 0 0 0 1.369.151h1.077c.219-.018.385-.085.497-.2l.037-.047a.596.596 0 0 0 .07-.168.904.904 0 0 0 .033-.251 2.93 2.93 0 0 1 .061-.707c.047-.21.1-.368.16-.475a1.168 1.168 0 0 1 .36-.401.62.62 0 0 1 .075-.032c.15-.049.327-.002.53.141s.394.32.572.53c.178.21.392.445.642.707.25.261.468.456.656.584l.187.11c.125.072.288.14.488.2.2.061.374.076.524.046l2.4-.037c.237 0 .421-.038.552-.114.132-.076.21-.16.235-.25a.689.689 0 0 0 .004-.311 1.122 1.122 0 0 0-.065-.242z" id="a"/>
    </defs><symbol id="ico-checkmark" viewBox="0 0 9 7">
    <title>
        checkmark
    </title>
    <path d="M1.154 2.497l2.119 2.147L7.846 0 9 1.174 3.273 7 0 3.67z" fill-rule="nonzero"/>
</symbol><symbol id="ico-close" viewBox="0 0 12 12">
    <title>
        close
    </title>
    <path d="M7.56 5.854L12 10.293l-1.415 1.414-4.439-4.44-4.439 4.44-1.414-1.414 4.44-4.44-4.44-4.438L1.707 0l4.44 4.439L10.584 0 12 1.416 7.56 5.854z" fill-rule="evenodd"/>
</symbol><symbol id="ico-facebook" viewBox="0 0 9 18">
    <title>
        facebook
    </title>
    <path d="M6 6V4.2C6 3.42 6.18 3 7.44 3H9V0H6.6c-3 0-4.2 1.98-4.2 4.2V6H0v3h2.4v9H6V9h2.64L9 6H6z" fill-rule="nonzero"/>
</symbol><symbol id="ico-instagram" viewBox="0 0 18 18">
    <title>
        instagram
    </title>
    <path d="M5 0h8a5 5 0 0 1 5 5v8a5 5 0 0 1-5 5H5a5 5 0 0 1-5-5V5a5 5 0 0 1 5-5zm.5 1.5a4 4 0 0 0-4 4v7a4 4 0 0 0 4 4h7a4 4 0 0 0 4-4v-7a4 4 0 0 0-4-4h-7zM14 5a1 1 0 1 1 0-2 1 1 0 0 1 0 2zm-5 8.5a4.5 4.5 0 1 1 0-9 4.5 4.5 0 0 1 0 9zM9 12a3 3 0 1 0 0-6 3 3 0 0 0 0 6z" fill-rule="evenodd"/>
</symbol><symbol id="ico-plus" viewBox="0 0 14 14">
    <title>
        plus
    </title>
    <path fill-rule="nonzero" d="M14 8H8v6H6V8H0V6h6V0h2v6h6z"/>
</symbol><symbol id="ico-search" viewBox="0 0 18 18">
    <title>
        Mask
    </title>
    <path d="M12.5 11h-.79l-.28-.27A6.471 6.471 0 0 0 13 6.5 6.5 6.5 0 1 0 6.5 13c1.61 0 3.09-.59 4.23-1.57l.27.28v.79l5 4.99L17.49 16l-4.99-5zm-6 0C4.01 11 2 8.99 2 6.5S4.01 2 6.5 2 11 4.01 11 6.5 8.99 11 6.5 11z" fill-rule="nonzero"/>
</symbol><symbol id="ico-twitter" viewBox="0 0 18 14">
    <title>
        twitter
    </title>
    <path d="M18 1.657a7.964 7.964 0 0 1-2.126.558A3.545 3.545 0 0 0 17.497.263c-.713.407-1.5.694-2.34.855A3.777 3.777 0 0 0 12.462 0c-2.043 0-3.688 1.587-3.688 3.533 0 .28.025.55.085.806-3.068-.143-5.782-1.55-7.606-3.695A3.441 3.441 0 0 0 .748 2.43c0 1.223.658 2.307 1.64 2.935A3.77 3.77 0 0 1 .72 4.93v.039C.72 6.686 2 8.11 3.677 8.439c-.3.08-.628.117-.968.117-.236 0-.475-.013-.699-.06.479 1.399 1.835 2.427 3.449 2.46a7.628 7.628 0 0 1-4.576 1.507c-.303 0-.593-.013-.883-.048A10.728 10.728 0 0 0 5.661 14c6.79 0 10.503-5.385 10.503-10.052 0-.156-.006-.307-.014-.457A7.196 7.196 0 0 0 18 1.657" fill-rule="evenodd"/>
</symbol><symbol id="ico-vkontakte" viewBox="0 0 18 10">
    <title>
        vkontakte
    </title>
    
    <use fill-rule="nonzero" xlink:href="#a" transform="translate(-3 -7)"/>
</symbol></svg>