<svg width="16" height="18" viewBox="0 0 16 18" xmlns="http://www.w3.org/2000/svg">
    <title>
        attachment
    </title>
    <path d="M4.116 18a3.993 3.993 0 0 1-2.913-1.26A4.392 4.392 0 0 1 0 13.684c0-1.157.427-2.24 1.203-3.053l8.521-8.933c1.218-1.277 3.113-1.22 4.406.136 1.292 1.355 1.349 3.34.13 4.618l-8.006 8.393a1.87 1.87 0 0 1-2.728 0 2.096 2.096 0 0 1 0-2.86L8.948 6.3a.454.454 0 0 1 .663 0 .506.506 0 0 1 0 .694L4.19 12.68a1.076 1.076 0 0 0 0 1.47.96.96 0 0 0 1.402 0l8.007-8.39c.841-.883.784-2.271-.13-3.232-.916-.959-2.24-1.016-3.082-.134l-8.522 8.933a3.398 3.398 0 0 0-.928 2.358c0 .895.33 1.733.928 2.36a3.087 3.087 0 0 0 4.503 0l8.522-8.932a.452.452 0 0 1 .661 0 .507.507 0 0 1 0 .693L7.03 16.74A3.994 3.994 0 0 1 4.115 18z" fill="#000" fill-rule="evenodd"/>
</svg>
