<?xml version="1.0" encoding="UTF-8"?>
<svg width="16px" height="18px" viewBox="0 0 16 18" version="1.1" xmlns="http://www.w3.org/2000/svg" xmlns:xlink="http://www.w3.org/1999/xlink">
    <!-- Generator: Sketch 49.2 (51160) - http://www.bohemiancoding.com/sketch -->
    <title>attachment</title>
    <desc>Created with Sketch.</desc>
    <g id="Symbols" stroke="none" stroke-width="1" fill="none" fill-rule="evenodd">
        <g id="Elements-/-Cards-/-Comment-/-Standard" transform="translate(-407.000000, -15.000000)">
            <g id="Comment">
                <g id="Прикрепить" transform="translate(403.000000, 12.000000)">
                    <mask id="mask-2" fill="white">
                        <path d="M8.11590244,21 C7.01229268,21 5.97697561,20.5524545 5.20273171,19.7391818 C4.42692683,18.9275455 4,17.8422273 4,16.6853182 C4,15.5284091 4.42692683,14.4451364 5.20273171,13.6318636 L13.7240976,4.69895455 C14.9420488,3.42177273 16.8370732,3.47945455 18.129561,4.83477273 C19.422439,6.18968182 19.4786341,8.17459091 18.259122,9.453 L10.254439,17.8455 C9.50321951,18.6334091 8.27902439,18.6334091 7.52585366,17.8455 C6.7742439,17.0563636 6.7742439,15.7730455 7.52585366,14.9851364 L12.9482927,9.30122727 C13.1309268,9.10936364 13.4282927,9.10936364 13.6113171,9.30122727 C13.7943415,9.49268182 13.7943415,9.80277273 13.6113171,9.99463636 L8.18887805,15.6801818 C7.8017561,16.0847727 7.8017561,16.7446364 8.18887805,17.1504545 C8.57639024,17.5562727 9.20585366,17.5562727 9.59141463,17.1504545 L17.5976585,8.75918182 C18.4390244,7.87718182 18.382439,6.48872727 17.4680976,5.52818182 C16.5518049,4.56927273 15.2273171,4.512 14.385561,5.394 L5.86419512,14.3269091 C5.26673171,14.9532273 4.93580488,15.7922727 4.93580488,16.6853182 C4.93580488,17.5804091 5.26673171,18.4178182 5.86419512,19.0457727 C6.46321951,19.6737273 7.26204878,20.019 8.11590244,20.019 C8.96936585,20.019 9.76819512,19.6737273 10.3672195,19.0457727 L18.8885854,10.1128636 C19.0716098,9.921 19.3674146,9.921 19.550439,10.1128636 C19.7330732,10.3047273 19.7330732,10.6148182 19.550439,10.8062727 L11.0290732,19.7391818 C10.254439,20.5524545 9.2195122,21 8.11590244,21 Z"></path>
                    </mask>
                    <path d="M8.11590244,21 C7.01229268,21 5.97697561,20.5524545 5.20273171,19.7391818 C4.42692683,18.9275455 4,17.8422273 4,16.6853182 C4,15.5284091 4.42692683,14.4451364 5.20273171,13.6318636 L13.7240976,4.69895455 C14.9420488,3.42177273 16.8370732,3.47945455 18.129561,4.83477273 C19.422439,6.18968182 19.4786341,8.17459091 18.259122,9.453 L10.254439,17.8455 C9.50321951,18.6334091 8.27902439,18.6334091 7.52585366,17.8455 C6.7742439,17.0563636 6.7742439,15.7730455 7.52585366,14.9851364 L12.9482927,9.30122727 C13.1309268,9.10936364 13.4282927,9.10936364 13.6113171,9.30122727 C13.7943415,9.49268182 13.7943415,9.80277273 13.6113171,9.99463636 L8.18887805,15.6801818 C7.8017561,16.0847727 7.8017561,16.7446364 8.18887805,17.1504545 C8.57639024,17.5562727 9.20585366,17.5562727 9.59141463,17.1504545 L17.5976585,8.75918182 C18.4390244,7.87718182 18.382439,6.48872727 17.4680976,5.52818182 C16.5518049,4.56927273 15.2273171,4.512 14.385561,5.394 L5.86419512,14.3269091 C5.26673171,14.9532273 4.93580488,15.7922727 4.93580488,16.6853182 C4.93580488,17.5804091 5.26673171,18.4178182 5.86419512,19.0457727 C6.46321951,19.6737273 7.26204878,20.019 8.11590244,20.019 C8.96936585,20.019 9.76819512,19.6737273 10.3672195,19.0457727 L18.8885854,10.1128636 C19.0716098,9.921 19.3674146,9.921 19.550439,10.1128636 C19.7330732,10.3047273 19.7330732,10.6148182 19.550439,10.8062727 L11.0290732,19.7391818 C10.254439,20.5524545 9.2195122,21 8.11590244,21 Z" fill="#000000"></path>
                </g>
            </g>
        </g>
    </g>
</svg>
