<?xml version="1.0" encoding="UTF-8"?>
<svg width="12px" height="12px" viewBox="0 0 12 12" version="1.1" xmlns="http://www.w3.org/2000/svg" xmlns:xlink="http://www.w3.org/1999/xlink">
    <!-- Generator: Sketch 49.3 (51167) - http://www.bohemiancoding.com/sketch -->
    <title>bell</title>
    <desc>Created with Sketch.</desc>
    <g id="GUI" stroke="none" stroke-width="1" fill="none" fill-rule="evenodd">
        <g id="GUI_Cards" transform="translate(-976.000000, -3323.000000)">
            <g id="01-copy-10" transform="translate(130.000000, 2961.000000)">
                <g id="Content">
                    <g id="Elements-/-Cards-/-Right-/-My-/-01_3-Comment" transform="translate(462.000000, 161.000000)">
                        <g id="Title" transform="translate(8.000000, 0.000000)">
                            <g id="Component-/-Icons-/-S-/-Close-Copy-2" transform="translate(374.000000, 199.000000)">
                                <mask id="mask-2" fill="white">
                                    <path d="M8.28240506,3.15749848 C8.28741043,3.1454281 8.28911626,3.13732563 8.28911626,3.1298696 C8.28911626,3.10846936 8.27163843,3.09090791 8.25034009,3.09090791 C8.22904176,3.09090791 8.21156393,3.10846936 8.21156393,3.1298696 C8.21156393,3.13732563 8.21326975,3.1454281 8.21827513,3.15749848 L8.25034009,3.2348226 L8.28240506,3.15749848 Z M7.79621748,3.90692969 C6.55446998,4.09055182 5.6911555,5.05917414 5.6911555,6.05194784 C5.6911555,8.5287197 5.01899209,10.1483503 3.83088364,11.289009 C3.87254639,11.3269618 3.92705613,11.3506504 3.98503351,11.3506504 L7.24217607,11.3506504 L7.24217607,11.8961043 C7.24217607,12.4532189 7.69587844,12.9090921 8.25034009,12.9090921 C8.80480175,12.9090921 9.25850412,12.4532189 9.25850412,11.8961043 L9.25850412,11.3506504 L12.5156467,11.3506504 C12.5736241,11.3506504 12.6281338,11.3269618 12.6697965,11.289009 C11.4816881,10.1483503 10.8095247,8.5287197 10.8095247,6.05194784 C10.8095247,5.05917414 9.9462102,4.09055182 8.7044627,3.90692969 L8.25034009,3.83977677 L7.79621748,3.90692969 Z M11.8952378,6.05194784 C11.8952378,8.38953861 12.5288492,9.75599204 13.641434,10.7001712 L13.8340135,10.8636011 L13.8340135,11.1168835 C13.8340135,11.8442658 13.2395653,12.4415583 12.5156467,12.4415583 L10.2727926,12.4415583 C10.032925,13.3378326 9.21676685,14 8.25034009,14 C7.28391334,14 6.46775517,13.3378326 6.22788759,12.4415583 L3.98503351,12.4415583 C3.26111492,12.4415583 2.66666667,11.8442658 2.66666667,11.1168835 L2.66666667,10.8636011 L2.85924624,10.7001712 C3.97183094,9.75599204 4.60544239,8.38953861 4.60544239,6.05194784 C4.60544239,4.65795168 5.63959817,3.36347371 7.14263037,2.93437528 C7.23481345,2.40361785 7.69577059,2 8.25034009,2 C8.8049096,2 9.26586674,2.40361785 9.35804982,2.93437528 C10.861082,3.36347371 11.8952378,4.65795168 11.8952378,6.05194784 Z"></path>
                                </mask>
                                <path d="M8.28240506,3.15749848 C8.28741043,3.1454281 8.28911626,3.13732563 8.28911626,3.1298696 C8.28911626,3.10846936 8.27163843,3.09090791 8.25034009,3.09090791 C8.22904176,3.09090791 8.21156393,3.10846936 8.21156393,3.1298696 C8.21156393,3.13732563 8.21326975,3.1454281 8.21827513,3.15749848 L8.25034009,3.2348226 L8.28240506,3.15749848 Z M7.79621748,3.90692969 C6.55446998,4.09055182 5.6911555,5.05917414 5.6911555,6.05194784 C5.6911555,8.5287197 5.01899209,10.1483503 3.83088364,11.289009 C3.87254639,11.3269618 3.92705613,11.3506504 3.98503351,11.3506504 L7.24217607,11.3506504 L7.24217607,11.8961043 C7.24217607,12.4532189 7.69587844,12.9090921 8.25034009,12.9090921 C8.80480175,12.9090921 9.25850412,12.4532189 9.25850412,11.8961043 L9.25850412,11.3506504 L12.5156467,11.3506504 C12.5736241,11.3506504 12.6281338,11.3269618 12.6697965,11.289009 C11.4816881,10.1483503 10.8095247,8.5287197 10.8095247,6.05194784 C10.8095247,5.05917414 9.9462102,4.09055182 8.7044627,3.90692969 L8.25034009,3.83977677 L7.79621748,3.90692969 Z M11.8952378,6.05194784 C11.8952378,8.38953861 12.5288492,9.75599204 13.641434,10.7001712 L13.8340135,10.8636011 L13.8340135,11.1168835 C13.8340135,11.8442658 13.2395653,12.4415583 12.5156467,12.4415583 L10.2727926,12.4415583 C10.032925,13.3378326 9.21676685,14 8.25034009,14 C7.28391334,14 6.46775517,13.3378326 6.22788759,12.4415583 L3.98503351,12.4415583 C3.26111492,12.4415583 2.66666667,11.8442658 2.66666667,11.1168835 L2.66666667,10.8636011 L2.85924624,10.7001712 C3.97183094,9.75599204 4.60544239,8.38953861 4.60544239,6.05194784 C4.60544239,4.65795168 5.63959817,3.36347371 7.14263037,2.93437528 C7.23481345,2.40361785 7.69577059,2 8.25034009,2 C8.8049096,2 9.26586674,2.40361785 9.35804982,2.93437528 C10.861082,3.36347371 11.8952378,4.65795168 11.8952378,6.05194784 Z" fill="#000000" fill-rule="nonzero"></path>
                            </g>
                        </g>
                    </g>
                </g>
            </g>
        </g>
    </g>
</svg>
