<svg width="12" height="12" viewBox="0 0 12 12" xmlns="http://www.w3.org/2000/svg">
    <title>
        bell
    </title>
    <path d="M6.282 1.157a.07.07 0 0 0 .007-.027.039.039 0 0 0-.039-.04.039.039 0 0 0-.038.04.07.07 0 0 0 .006.027l.032.078.032-.078zm-.486.75c-1.242.184-2.105 1.152-2.105 2.145 0 2.477-.672 4.096-1.86 5.237a.23.23 0 0 0 .154.062h3.257v.545c0 .557.454 1.013 1.008 1.013.555 0 1.009-.456 1.009-1.013v-.545h3.257a.23.23 0 0 0 .154-.062c-1.188-1.14-1.86-2.76-1.86-5.237 0-.993-.864-1.961-2.106-2.145L6.25 1.84l-.454.067zm4.1 2.145c0 2.338.633 3.704 1.745 4.648l.193.164v.253c0 .727-.594 1.325-1.318 1.325H8.273A2.1 2.1 0 0 1 6.25 12a2.1 2.1 0 0 1-2.022-1.558H1.985A1.327 1.327 0 0 1 .667 9.117v-.253L.859 8.7c1.113-.944 1.746-2.31 1.746-4.648 0-1.394 1.035-2.689 2.538-3.118C5.235.404 5.696 0 6.25 0c.555 0 1.016.404 1.108.934 1.503.43 2.537 1.724 2.537 3.118z" fill="#000" fill-rule="nonzero"/>
</svg>
