<?xml version="1.0" encoding="UTF-8"?>
<svg width="18px" height="18px" viewBox="0 0 18 18" version="1.1" xmlns="http://www.w3.org/2000/svg" xmlns:xlink="http://www.w3.org/1999/xlink">
    <!-- Generator: Sketch 49.3 (51167) - http://www.bohemiancoding.com/sketch -->
    <title>black-list</title>
    <desc>Created with Sketch.</desc>
    <g id="Marvel" stroke="none" stroke-width="1" fill="none" fill-rule="evenodd">
        <g id="Marvel_Profile_Edit_Parts_01" transform="translate(-899.000000, -118.000000)" fill="#00A9FF" fill-rule="nonzero">
            <g id="Group-6-Copy-4" transform="translate(874.000000, 106.000000)">
                <path d="M34,28 C37.8659932,28 41,24.8659932 41,21 C41,17.1340068 37.8659932,14 34,14 C30.1340068,14 27,17.1340068 27,21 C27,24.8659932 30.1340068,28 34,28 Z M34,30 C29.0294373,30 25,25.9705627 25,21 C25,16.0294373 29.0294373,12 34,12 C38.9705627,12 43,16.0294373 43,21 C43,25.9705627 38.9705627,30 34,30 Z M26.9289322,26.6568542 L39.6568542,13.9289322 L41.0710678,15.3431458 L28.3431458,28.0710678 L26.9289322,26.6568542 Z" id="black-list"></path>
            </g>
        </g>
    </g>
</svg>
