<?xml version="1.0" encoding="UTF-8"?>
<svg width="22px" height="20px" viewBox="0 0 22 20" version="1.1" xmlns="http://www.w3.org/2000/svg" xmlns:xlink="http://www.w3.org/1999/xlink">
    <!-- Generator: Sketch 49.3 (51167) - http://www.bohemiancoding.com/sketch -->
    <title>camera-add</title>
    <desc>Created with Sketch.</desc>
    <g id="Marvel" stroke="none" stroke-width="1" fill="none" fill-rule="evenodd">
        <g id="Marvel_My_Profile_Woman_Edit_02" transform="translate(-474.000000, -152.000000)">
            <g id="02-copy-3" transform="translate(369.000000, 0.000000)">
                <g id="01-copy-5" transform="translate(96.000000, 142.000000)">
                    <g id="Component-/-Btn-/-Circle-/-Shadow">
                        <g id="Component-/-Icons-/-S-/-Bell" transform="translate(8.000000, 8.000000)">
                            <mask id="mask-2" fill="white">
                                <path d="M4,11 L4,20 C4,20.5477153 4.45228475,21 5,21 L21,21 C21.5477153,21 22,20.5477153 22,20 L22,9 C22,8.45228475 21.5477153,8 21,8 L17.3895573,8 L15.5595573,6 L10,6 L10,8 L7,8 L7,11 L4,11 Z M6,10 L6,7 L9,7 L9,5 L16,5 L17.83,7 L21,7 C22.1,7 23,7.9 23,9 L23,20 C23,21.1 22.1,22 21,22 L5,22 C3.9,22 3,21.1 3,20 L3,10 L6,10 Z M4,5 L4,2 L5,2 L5,5 L8,5 L8,6 L5,6 L5,9 L4,9 L4,6 L1,6 L1,5 L4,5 Z M8,14 C8,16.765625 10.234375,19 13,19 C15.765625,19 18,16.765625 18,14 C18,11.234375 15.765625,9 13,9 C10.234375,9 8,11.234375 8,14 Z M9,14 C9,11.7875 10.7875,10 13,10 C15.2125,10 17,11.7875 17,14 C17,16.2125 15.2125,18 13,18 C10.7875,18 9,16.2125 9,14 Z M10,14 C10,12.340625 11.340625,11 13,11 C14.659375,11 16,12.340625 16,14 C16,15.659375 14.659375,17 13,17 C11.340625,17 10,15.659375 10,14 Z M11,14 C11,15.1070903 11.8929097,16 13,16 C14.1070903,16 15,15.1070903 15,14 C15,12.8929097 14.1070903,12 13,12 C11.8929097,12 11,12.8929097 11,14 Z"></path>
                            </mask>
                            <path d="M4,11 L4,20 C4,20.5477153 4.45228475,21 5,21 L21,21 C21.5477153,21 22,20.5477153 22,20 L22,9 C22,8.45228475 21.5477153,8 21,8 L17.3895573,8 L15.5595573,6 L10,6 L10,8 L7,8 L7,11 L4,11 Z M6,10 L6,7 L9,7 L9,5 L16,5 L17.83,7 L21,7 C22.1,7 23,7.9 23,9 L23,20 C23,21.1 22.1,22 21,22 L5,22 C3.9,22 3,21.1 3,20 L3,10 L6,10 Z M4,5 L4,2 L5,2 L5,5 L8,5 L8,6 L5,6 L5,9 L4,9 L4,6 L1,6 L1,5 L4,5 Z M8,14 C8,16.765625 10.234375,19 13,19 C15.765625,19 18,16.765625 18,14 C18,11.234375 15.765625,9 13,9 C10.234375,9 8,11.234375 8,14 Z M9,14 C9,11.7875 10.7875,10 13,10 C15.2125,10 17,11.7875 17,14 C17,16.2125 15.2125,18 13,18 C10.7875,18 9,16.2125 9,14 Z M10,14 C10,12.340625 11.340625,11 13,11 C14.659375,11 16,12.340625 16,14 C16,15.659375 14.659375,17 13,17 C11.340625,17 10,15.659375 10,14 Z M11,14 C11,15.1070903 11.8929097,16 13,16 C14.1070903,16 15,15.1070903 15,14 C15,12.8929097 14.1070903,12 13,12 C11.8929097,12 11,12.8929097 11,14 Z" fill="#979797" fill-rule="nonzero"></path>
                        </g>
                    </g>
                </g>
            </g>
        </g>
    </g>
</svg>
