<?xml version="1.0" encoding="UTF-8"?>
<svg width="18px" height="15px" viewBox="0 0 18 15" version="1.1" xmlns="http://www.w3.org/2000/svg" xmlns:xlink="http://www.w3.org/1999/xlink">
    <!-- Generator: Sketch 49.3 (51167) - http://www.bohemiancoding.com/sketch -->
    <title>camera</title>
    <desc>Created with Sketch.</desc>
    <defs></defs>
    <g id="Marvel" stroke="none" stroke-width="1" fill="none" fill-rule="evenodd">
        <g id="Marvel_My_Profile_Man" transform="translate(-433.000000, -939.000000)" fill="#FFFFFF" fill-rule="nonzero">
            <g id="02-copy-3" transform="translate(369.000000, 0.000000)">
                <g id="Group-10" transform="translate(24.000000, 494.000000)">
                    <g id="Group-4-Copy-3">
                        <g id="Кол-во" transform="translate(24.000000, 432.000000)">
                            <path d="M31.9194709,27.2217414 L18.0802055,27.2217414 C16.9329933,27.2217414 16,26.2887481 16,25.1415359 L16,16.705216 C16,15.5580038 16.9329933,14.6250105 18.0802055,14.6250105 L20.9041083,14.6250105 L21.1512881,13.7911697 C21.2521668,13.3348958 21.669276,13 22.1598595,13 L27.8401944,13 C28.3169138,13 28.7388242,13.3331695 28.8504921,13.7953235 L28.8570735,13.823753 L29.0824053,14.6249565 L31.9197945,14.6249565 C33.0670067,14.6249565 34,15.5579498 34,16.705162 L34,25.141428 C33.9996763,26.2887481 33.0663594,27.2217414 31.9194709,27.2217414 Z M18.0802055,15.3184303 C17.3153614,15.3184303 16.6934198,15.9404258 16.6934198,16.705216 L16.6934198,25.141482 C16.6934198,25.906326 17.3154153,26.5282676 18.0802055,26.5282676 L31.9194709,26.5282676 C32.6843149,26.5282676 33.3062565,25.9062721 33.3062565,25.141482 L33.3062565,16.705216 C33.3062565,15.9403719 32.684261,15.3184303 31.9194709,15.3184303 L28.5571886,15.3184303 L28.1775717,13.9645516 C28.1425609,13.8071376 28.0007373,13.6930961 27.8398708,13.6930961 L22.1594819,13.6930961 C21.9961878,13.6930961 21.8574931,13.8047101 21.8217809,13.9649292 L21.4210173,15.3184303 L18.0802055,15.3184303 Z M25.0003776,25.1258916 C22.5738399,25.1258916 20.5996919,23.1521213 20.5996919,20.7259072 C20.5996919,18.2993694 22.5737859,16.3255991 25.0003776,16.3255991 C27.426268,16.3255991 29.4000384,18.2996931 29.4000384,20.7259072 C29.3999844,23.1517976 27.4262141,25.1258916 25.0003776,25.1258916 Z M25.0003776,17.0186413 C22.956208,17.0186413 21.2931117,18.6814139 21.2931117,20.7255835 C21.2931117,22.7697532 22.9562619,24.4321481 25.0003776,24.4321481 C27.0441697,24.4321481 28.7066186,22.7693755 28.7066186,20.7255835 C28.7065646,18.6814139 27.043792,17.0186413 25.0003776,17.0186413 Z M31.4718822,16.6053622 C31.1182673,16.6053622 30.8321925,16.8920843 30.8321925,17.245052 C30.8321925,17.5983433 31.1182133,17.8846878 31.4718822,17.8846878 C31.8251735,17.8846878 32.1111944,17.5982893 32.1111944,17.245052 C32.1108707,16.8920843 31.8247959,16.6053622 31.4718822,16.6053622 Z" id="camera"></path>
                        </g>
                    </g>
                </g>
            </g>
        </g>
    </g>
</svg>
