<svg width="22" height="20" viewBox="0 0 22 20" xmlns="http://www.w3.org/2000/svg">
    <title>
        camera-add
    </title>
    <path d="M3 9v9c0 .548.452 1 1 1h16c.548 0 1-.452 1-1V7c0-.548-.452-1-1-1h-3.61l-1.83-2H9v2H6v3H3zm2-1V5h3V3h7l1.83 2H20c1.1 0 2 .9 2 2v11c0 1.1-.9 2-2 2H4c-1.1 0-2-.9-2-2V8h3zM3 3V0h1v3h3v1H4v3H3V4H0V3h3zm4 9c0 2.766 2.234 5 5 5s5-2.234 5-5-2.234-5-5-5-5 2.234-5 5zm1 0c0-2.213 1.787-4 4-4s4 1.787 4 4c0 2.212-1.787 4-4 4s-4-1.788-4-4zm1 0c0-1.66 1.34-3 3-3s3 1.34 3 3-1.34 3-3 3-3-1.34-3-3zm1 0c0 1.107.893 2 2 2s2-.893 2-2-.893-2-2-2-2 .893-2 2z" fill="#979797" fill-rule="nonzero"/>
</svg>
