<svg width="18" height="15" viewBox="0 0 18 15" xmlns="http://www.w3.org/2000/svg">
    <title>
        camera
    </title>
    <path d="M15.92 14.222H2.08A2.082 2.082 0 0 1 0 12.142V3.705c0-1.147.933-2.08 2.08-2.08h2.824l.247-.834C5.252.335 5.67 0 6.16 0h5.68c.477 0 .899.333 1.01.795l.007.029.225.801h2.838c1.147 0 2.08.933 2.08 2.08v8.436c0 1.148-.934 2.08-2.08 2.08zM2.08 2.318c-.765 0-1.387.622-1.387 1.387v8.436c0 .765.622 1.387 1.387 1.387h13.84c.764 0 1.386-.622 1.386-1.387V3.705c0-.765-.622-1.387-1.387-1.387h-3.362l-.38-1.353a.348.348 0 0 0-.337-.272H6.16a.344.344 0 0 0-.338.272L5.42 2.318h-3.34zM9 12.126a4.405 4.405 0 0 1-4.4-4.4c0-2.427 1.974-4.4 4.4-4.4s4.4 1.974 4.4 4.4-1.974 4.4-4.4 4.4zm0-8.107a3.711 3.711 0 0 0-3.707 3.707A3.71 3.71 0 0 0 9 11.432a3.71 3.71 0 0 0 3.707-3.706A3.71 3.71 0 0 0 9 4.019zm6.472-.414a.64.64 0 1 0 0 1.28.64.64 0 0 0 0-1.28z" fill="#FFF" fill-rule="nonzero"/>
</svg>
