<svg width="90" height="80" viewBox="0 0 90 80" xmlns="http://www.w3.org/2000/svg">
    <title>
        chat-empty
    </title>
    <g fill="#DDE1E6" fill-rule="nonzero">
        <path d="M75.813 68.022c0-.7.054-1.4.16-2.095l.136-.888.753-.488C83.889 59.99 88 53.24 88 46.012c0-4.816-1.82-9.426-5.144-13.33-.322 4.561-1.587 8.98-3.768 13.155-2.397 4.584-5.79 8.67-10.078 12.14-6.575 5.32-14.759 8.785-23.6 10.081 3.762 1.284 7.858 1.967 12.09 1.967 1.62 0 3.228-.101 4.819-.3l.961-.12.69.68c4.739 4.667 9.58 6.752 16.507 7.45-2.933-2.537-4.665-5.973-4.665-9.713zM83 79.93c.273.014.547.025.821.035-.28-.141-.553-.29-.821-.444v.41zm-5.188-11.908c0 4.371 2.837 8.195 7.188 10.295V80c-8.057-.181-15.452-1.414-22.433-8.29a40.76 40.76 0 0 1-5.067.315c-7.458 0-14.329-2.013-19.814-5.394 11.303-.04 21.974-3.66 30.066-10.209 4.078-3.3 7.296-7.174 9.563-11.512 2.404-4.598 3.623-9.498 3.623-14.562 0-.817-.036-1.628-.099-2.435C86.51 32.595 90 38.977 90 46.013c0 8.162-4.7 15.446-12.05 20.215-.09.586-.138 1.184-.138 1.794z"/>
        <path d="M30.242 58.91l.693-.69.97.123c1.844.234 3.712.352 5.595.352 19.688 0 35.5-12.796 35.5-28.348C73 14.796 57.188 2 37.5 2 17.812 2 2 14.796 2 30.348c0 8.559 4.806 16.536 13.001 21.913l.747.49.134.884c.12.794.18 1.592.18 2.391 0 4.513-2.634 8.736-6.77 11.758 8.955-.725 15.246-3.193 20.95-8.874zM7 69.248v-1.212H5l.877 1.798c.382-.187.757-.382 1.123-.586zM37.5 0C58.21 0 75 13.587 75 30.348c0 16.76-16.79 30.347-37.5 30.347-1.989 0-3.941-.127-5.846-.368C23.598 68.35 14.296 69.789 5 70v-1.964c5.02-2.45 9.063-6.91 9.063-12.01 0-.711-.056-1.41-.16-2.093C5.424 48.369 0 39.871 0 30.348 0 13.587 16.79 0 37.5 0z"/>
    </g>
</svg>
