<?xml version="1.0" encoding="UTF-8"?>
<svg width="14px" height="14px" viewBox="0 0 14 14" version="1.1" xmlns="http://www.w3.org/2000/svg" xmlns:xlink="http://www.w3.org/1999/xlink">
    <!-- Generator: Sketch 49.3 (51167) - http://www.bohemiancoding.com/sketch -->
    <title>checkmark-circle</title>
    <desc>Created with Sketch.</desc>
    <g id="Marvel" stroke="none" stroke-width="1" fill="none" fill-rule="evenodd">
        <g id="Marvel_My_Events" transform="translate(-1065.000000, -680.000000)">
            <g id="Group-16" transform="translate(369.000000, 31.000000)">
                <g id="Elements-/-Btn-/-Medium-/-Icon-Copy-2" transform="translate(656.000000, 636.000000)">
                    <g id="Component-/-Icons-/-S-/-Arrows-/-Ok" transform="translate(35.000000, 8.000000)">
                        <mask id="mask-2" fill="white">
                            <path d="M8.45289322,10.6035534 L11.75,13.8906602 L18.0471068,7.60355339 L18.75,8.30644661 L11.75,15.3064466 L7.75,11.3064466 L8.45289322,10.6035534 Z M18.8922764,10.7733152 C19.1374139,12.1437704 18.9772373,13.6006773 18.3441545,14.9583278 C16.7103152,18.4621076 12.545452,19.9779939 9.04167217,18.3441545 C5.53789238,16.7103152 4.02200614,12.545452 5.65584549,9.04167217 C7.28968484,5.53789238 11.454548,4.02200614 14.9583278,5.65584549 L14.5357096,6.56215328 C11.5324698,5.16171955 7.962587,6.46105061 6.56215328,9.46429043 C5.16171955,12.4675302 6.46105061,16.037413 9.46429043,17.4378467 C12.4675302,18.8382804 16.037413,17.5389494 17.4378467,14.5357096 C17.9675787,13.3996956 18.123721,12.1559517 17.9079002,10.9493936 L18.8922764,10.7733152 Z"></path>
                        </mask>
                        <path d="M8.45289322,10.6035534 L11.75,13.8906602 L18.0471068,7.60355339 L18.75,8.30644661 L11.75,15.3064466 L7.75,11.3064466 L8.45289322,10.6035534 Z M18.8922764,10.7733152 C19.1374139,12.1437704 18.9772373,13.6006773 18.3441545,14.9583278 C16.7103152,18.4621076 12.545452,19.9779939 9.04167217,18.3441545 C5.53789238,16.7103152 4.02200614,12.545452 5.65584549,9.04167217 C7.28968484,5.53789238 11.454548,4.02200614 14.9583278,5.65584549 L14.5357096,6.56215328 C11.5324698,5.16171955 7.962587,6.46105061 6.56215328,9.46429043 C5.16171955,12.4675302 6.46105061,16.037413 9.46429043,17.4378467 C12.4675302,18.8382804 16.037413,17.5389494 17.4378467,14.5357096 C17.9675787,13.3996956 18.123721,12.1559517 17.9079002,10.9493936 L18.8922764,10.7733152 Z" fill="#000000" fill-rule="nonzero"></path>
                    </g>
                </g>
            </g>
        </g>
    </g>
</svg>
