<svg width="10" height="8" viewBox="0 0 10 8" xmlns="http://www.w3.org/2000/svg">
    <title>
        comments
    </title>
    <path d="M7.988 5.361l.045-.042c.6-.524.946-1.263.946-2.06C8.979 1.727 7.694.484 6.11.484S3.244 1.726 3.244 3.259c0 1.52 1.263 2.757 2.83 2.776l1.203.014.711-.688zM6.111 0C7.982 0 9.5 1.46 9.5 3.26c0 .96-.43 1.823-1.117 2.42L6.068 7.908V6.52c-1.851-.022-3.345-1.473-3.345-3.26C2.723 1.46 4.24 0 6.111 0zm-2.84 6.412l.434-.42c.177.144.367.273.569.384L2.586 8V6.643C1.409 6.47.5 5.483.5 4.308c0-1.197.93-2.187 2.132-2.34-.092.228-.16.466-.2.712-.722.216-1.248.864-1.248 1.628 0 .928.784 1.692 1.748 1.703l.338.005v.396z" fill="#979797" fill-rule="nonzero"/>
</svg>
