<?xml version="1.0" encoding="UTF-8"?>
<svg width="10px" height="8px" viewBox="0 0 10 8" version="1.1" xmlns="http://www.w3.org/2000/svg" xmlns:xlink="http://www.w3.org/1999/xlink">
    <!-- Generator: Sketch 49.3 (51167) - http://www.bohemiancoding.com/sketch -->
    <title>comments</title>
    <desc>Created with Sketch.</desc>
    <g id="Marvel" stroke="none" stroke-width="1" fill="none" fill-rule="evenodd">
        <g id="Marvel_Modal_Notifications" transform="translate(-428.000000, -287.000000)">
            <g id="Chat" transform="translate(369.000000, 7.000000)">
                <g id="Чат" transform="translate(0.000000, 17.000000)">
                    <g id="01-copy-2" transform="translate(24.000000, 216.000000)">
                        <g id="Component-/-Icons-/-S-/-Chat" transform="translate(34.000000, 45.000000)">
                            <mask id="mask-2" fill="white">
                                <path d="M8.98822473,7.36109018 L9.03349195,7.31940778 C9.63258919,6.79500289 9.97884061,6.0561212 9.97884073,5.25963757 C9.97811715,3.72591693 8.69430784,2.48272798 7.11122677,2.48272798 C5.52805452,2.48272798 4.24438956,3.72588546 4.24438956,5.2590902 C4.24438956,6.77906941 5.50663563,8.01568524 7.07424165,8.03479511 L8.27748346,8.04946321 L8.98822473,7.36109018 Z M7.1112945,2 C8.98229595,2 10.4991451,3.45976243 10.5,5.26034864 C10.5,6.22049673 10.069332,7.0827377 9.38304163,7.6796421 L7.0679071,9.90764642 L7.0679071,8.52008022 C5.21699637,8.49766031 3.72323019,7.04735949 3.72323019,5.26034864 C3.72323019,3.45976243 5.24029305,2 7.1112945,2 Z M4.2701679,8.41168304 L4.70511055,7.99228673 C4.88207984,8.13606212 5.07165927,8.26461665 5.27363509,8.37630483 L3.5855874,10 L3.5855874,8.6430812 C2.40921181,8.4703039 1.5,7.48362215 1.5,6.3081195 C1.5,5.11101969 2.43079864,4.12104695 3.6323945,3.96842701 C3.54049016,4.19591711 3.47273742,4.43369157 3.43105987,4.68031059 C2.70971764,4.89566514 2.18372557,5.54399136 2.18372557,6.3081195 C2.18372557,7.23618039 2.96769099,8.00030853 3.93204541,8.01141564 L4.2701679,8.01552939 L4.2701679,8.41168304 Z"></path>
                            </mask>
                            <path d="M8.98822473,7.36109018 L9.03349195,7.31940778 C9.63258919,6.79500289 9.97884061,6.0561212 9.97884073,5.25963757 C9.97811715,3.72591693 8.69430784,2.48272798 7.11122677,2.48272798 C5.52805452,2.48272798 4.24438956,3.72588546 4.24438956,5.2590902 C4.24438956,6.77906941 5.50663563,8.01568524 7.07424165,8.03479511 L8.27748346,8.04946321 L8.98822473,7.36109018 Z M7.1112945,2 C8.98229595,2 10.4991451,3.45976243 10.5,5.26034864 C10.5,6.22049673 10.069332,7.0827377 9.38304163,7.6796421 L7.0679071,9.90764642 L7.0679071,8.52008022 C5.21699637,8.49766031 3.72323019,7.04735949 3.72323019,5.26034864 C3.72323019,3.45976243 5.24029305,2 7.1112945,2 Z M4.2701679,8.41168304 L4.70511055,7.99228673 C4.88207984,8.13606212 5.07165927,8.26461665 5.27363509,8.37630483 L3.5855874,10 L3.5855874,8.6430812 C2.40921181,8.4703039 1.5,7.48362215 1.5,6.3081195 C1.5,5.11101969 2.43079864,4.12104695 3.6323945,3.96842701 C3.54049016,4.19591711 3.47273742,4.43369157 3.43105987,4.68031059 C2.70971764,4.89566514 2.18372557,5.54399136 2.18372557,6.3081195 C2.18372557,7.23618039 2.96769099,8.00030853 3.93204541,8.01141564 L4.2701679,8.01552939 L4.2701679,8.41168304 Z" fill="#979797" fill-rule="nonzero"></path>
                        </g>
                    </g>
                </g>
            </g>
        </g>
    </g>
</svg>
