<svg width="80" height="80" viewBox="0 0 80 80" xmlns="http://www.w3.org/2000/svg">
    <title>
        confetti
    </title>
    <g fill="#00A9FF" fill-rule="nonzero">
        <path d="M54.456 50.085a1.33 1.33 0 1 0-2.484.953c1.214 3.166 1.301 5.588.24 6.652-1.288 1.286-4.496.884-8.584-1.072A56.913 56.913 0 0 1 28.9 45.628C18.478 35.204 14.177 24.976 16.837 22.316a3.635 3.635 0 0 1 3.01-.702 1.33 1.33 0 0 0 .258-2.648 6.127 6.127 0 0 0-5.15 1.463c-4.874 4.874 2.578 17.588 12.064 27.075a59.507 59.507 0 0 0 15.46 11.508c1.041.498 2.113.927 3.21 1.284l-9.453 3.584a37.661 37.661 0 0 1-23.818-29.33 1.33 1.33 0 0 0-2.629.412 40.13 40.13 0 0 0 .83 3.962A40.39 40.39 0 0 0 32.64 65.24l-15.56 5.888a1.307 1.307 0 0 0-.265-.317 18.539 18.539 0 0 1-6.866-12.884l-.617-7.476a1.315 1.315 0 0 0-1.4-1.224l-.041.004a1.33 1.33 0 0 0-1.22 1.44l.627 7.475a21.195 21.195 0 0 0 7.04 14.017l-11.1 4.202 1.997-8.191a1.331 1.331 0 1 0-2.587-.63L.052 78.187a1.33 1.33 0 0 0 1.765 1.56l49.23-18.627a1.24 1.24 0 0 0 .221-.139 5.169 5.169 0 0 0 2.825-1.409c1.318-1.318 2.453-4.037.363-9.488z"/>
        <path d="M67.013 46.653a43.816 43.816 0 0 0-22.544-2.188l-4.754.798a1.33 1.33 0 0 0 .439 2.624l4.753-.792a41.124 41.124 0 0 1 21.172 2.057c.15.053.308.08.467.079a1.33 1.33 0 0 0 .467-2.578z"/>
        <path d="M71.743 26.04a1.33 1.33 0 0 0-1.774-.63L42.027 38.715a1.33 1.33 0 0 0 1.144 2.404l27.942-13.306a1.33 1.33 0 0 0 .63-1.774z"/>
        <path d="M32.329 9.03a1.33 1.33 0 1 0-2.597.578 37.22 37.22 0 0 1-1.987 22.498L25.81 36.75a1.33 1.33 0 0 0 1.226 1.837 1.33 1.33 0 0 0 1.228-.818l1.936-4.637a39.864 39.864 0 0 0 2.129-24.1z"/>
        <path d="M73.198 47.9a3.992 3.992 0 1 0 0 7.984 3.992 3.992 0 0 0 0-7.984zm0 5.322a1.33 1.33 0 1 1 0-2.66 1.33 1.33 0 0 1 0 2.66z"/>
        <path d="M41.265 10.644a3.992 3.992 0 1 0 0 7.984 3.992 3.992 0 0 0 0-7.984zm0 5.323a1.33 1.33 0 1 1 0-2.662 1.33 1.33 0 0 1 0 2.662z"/>
        <circle cx="29.29" cy="2.661" r="2.661"/>
        <path d="M66.546 6.653a1.33 1.33 0 0 0-1.331 1.33v1.33a1.33 1.33 0 0 0 2.661 0v-1.33a1.33 1.33 0 0 0-1.33-1.33z"/>
        <path d="M66.546 0a1.33 1.33 0 0 0-1.331 1.33v1.331a1.33 1.33 0 0 0 2.661 0v-1.33A1.33 1.33 0 0 0 66.546 0z"/>
        <path d="M70.537 3.992h-1.33a1.33 1.33 0 0 0 0 2.66h1.33a1.33 1.33 0 0 0 0-2.66z"/>
        <path d="M63.884 3.992h-1.33a1.33 1.33 0 0 0 0 2.66h1.33a1.33 1.33 0 0 0 0-2.66z"/>
        <path d="M57.232 14.608H50.55a1.33 1.33 0 0 0-1.33 1.33v6.682c0 .734.595 1.33 1.33 1.33h6.68a1.33 1.33 0 0 0 1.331-1.33v-6.681a1.33 1.33 0 0 0-1.33-1.33zM55.9 21.29h-4.02v-4.02h4.02v4.02z"/>
        <path d="M47.539 25.72a1.33 1.33 0 0 0-1.842-.097L32.391 37.598a1.33 1.33 0 0 0 1.78 1.977L47.478 27.6a1.33 1.33 0 0 0 .062-1.88z"/>
        <path d="M71.868 30.603a1.33 1.33 0 0 0-1.33 1.33v1.331a1.33 1.33 0 0 0 2.66 0v-1.33a1.33 1.33 0 0 0-1.33-1.331z"/>
        <path d="M77.513 30.374l-.94-.94a1.33 1.33 0 0 0-1.882 1.88l.94.941a1.33 1.33 0 0 0 1.882-1.88z"/>
        <path d="M78.52 25.28h-1.33a1.33 1.33 0 0 0 0 2.662h1.33a1.33 1.33 0 0 0 0-2.661z"/>
        <path d="M77.48 20.967a1.33 1.33 0 0 0-1.848 0l-.94.94a1.33 1.33 0 0 0 1.88 1.882l.941-.94a1.33 1.33 0 0 0-.032-1.882z"/>
        <path d="M71.868 18.628a1.33 1.33 0 0 0-1.33 1.33v1.331a1.33 1.33 0 0 0 2.66 0v-1.33a1.33 1.33 0 0 0-1.33-1.331z"/>
        <path d="M69.044 21.908l-.94-.941a1.33 1.33 0 0 0-1.882 1.881l.94.941a1.33 1.33 0 0 0 1.882-1.881z"/>
        <path d="M15.919 5.753a1.33 1.33 0 0 0-1.074-.904L10.94 4.28 9.198.742a1.385 1.385 0 0 0-2.387 0L5.061 4.28l-3.905.569a1.33 1.33 0 0 0-.74 2.268l2.825 2.754-.665 3.89a1.33 1.33 0 0 0 1.932 1.407l3.493-1.841 3.493 1.836a1.33 1.33 0 0 0 1.93-1.402l-.665-3.89 2.826-2.754a1.33 1.33 0 0 0 .334-1.364zm-5.523 2.701a1.33 1.33 0 0 0-.383 1.177l.33 1.922-1.723-.909a1.33 1.33 0 0 0-1.238 0l-1.73.908.33-1.923a1.33 1.33 0 0 0-.376-1.175l-1.399-1.36 1.931-.282a1.33 1.33 0 0 0 1.002-.727L8 4.338l.863 1.747a1.33 1.33 0 0 0 1 .727l1.93.281-1.397 1.361z"/>
        <path d="M75.357 66.694h-.006l-.548-.822a20.079 20.079 0 0 0-13.36-8.64 1.33 1.33 0 0 0-.44 2.625 17.408 17.408 0 0 1 10.154 5.66 7.85 7.85 0 0 0-5.322 3.655 5.322 5.322 0 1 0 9.294 5.19 7.717 7.717 0 0 0 .864-3.416 6.501 6.501 0 0 1 .29 6.91 1.33 1.33 0 1 0 2.324 1.295 9.289 9.289 0 0 0-3.25-12.457zm-2.549 6.368a2.661 2.661 0 1 1-4.66-2.571l.013-.022a4.986 4.986 0 0 1 3.603-2.344c.231-.007.46.047.665.154 1.123.627 1.183 3.344.38 4.783z"/>
    </g>
</svg>
