<?xml version="1.0" encoding="UTF-8"?>
<svg width="20px" height="14px" viewBox="0 0 20 14" version="1.1" xmlns="http://www.w3.org/2000/svg" xmlns:xlink="http://www.w3.org/1999/xlink">
    <!-- Generator: Sketch 49.3 (51167) - http://www.bohemiancoding.com/sketch -->
    <title>credit-card</title>
    <desc>Created with Sketch.</desc>
    <g id="Marvel" stroke="none" stroke-width="1" fill="none" fill-rule="evenodd">
        <g id="Marvel_My_Profile_Woman_Edit_Verify" transform="translate(-1006.000000, -45.000000)">
            <g id="Group-15" transform="translate(996.000000, 32.000000)">
                <g id="Component-/-Icons-/-S-/-Social-/-Facebook" transform="translate(8.000000, 8.000000)">
                    <mask id="mask-2" fill="white">
                        <path d="M2.00857144,6.99999949 L2.00000052,16.9999995 C1.99921154,18.1045687 2.89400222,19.0006386 3.99857144,19.0014276 C3.99904763,19.0014279 3.99952382,19.0014281 4.00000001,19.0014281 L20,19 C21.1045695,19 22,18.1045695 22,17 L22,7 C22,5.8954305 21.1045695,5 20,5 L4.01000001,5.00142908 C2.90598836,5.00142908 2.0107891,5.89598914 2.01000052,7.00000051 Z M20,18 L4.00000001,18 C3.44771526,18 3.00000001,17.5522847 3.00000001,17 L3.00000001,11 L21,11 L21,17 C21,17.5522847 20.5522848,18 20,18 Z M21,9 L3.00000001,9 L3.00000001,7 C3.00000001,6.44771525 3.44771526,6 4.00000001,6 L20,6 C20.5522848,6 21,6.44771525 21,7 L21,9 Z"></path>
                    </mask>
                    <path d="M2.00857144,6.99999949 L2.00000052,16.9999995 C1.99921154,18.1045687 2.89400222,19.0006386 3.99857144,19.0014276 C3.99904763,19.0014279 3.99952382,19.0014281 4.00000001,19.0014281 L20,19 C21.1045695,19 22,18.1045695 22,17 L22,7 C22,5.8954305 21.1045695,5 20,5 L4.01000001,5.00142908 C2.90598836,5.00142908 2.0107891,5.89598914 2.01000052,7.00000051 Z M20,18 L4.00000001,18 C3.44771526,18 3.00000001,17.5522847 3.00000001,17 L3.00000001,11 L21,11 L21,17 C21,17.5522847 20.5522848,18 20,18 Z M21,9 L3.00000001,9 L3.00000001,7 C3.00000001,6.44771525 3.44771526,6 4.00000001,6 L20,6 C20.5522848,6 21,6.44771525 21,7 L21,9 Z" fill="#000000" fill-rule="nonzero"></path>
                </g>
            </g>
        </g>
    </g>
</svg>
