<svg width="20" height="14" viewBox="0 0 20 14" xmlns="http://www.w3.org/2000/svg">
    <title>
        crown
    </title>
    <path d="M18.76 4.568c-.684 0-1.238.604-1.238 1.349 0 .132.017.26.05.38l-1.503.699-1.086-3.079-2.657 1.592-1.584-2.988c.373-.232.626-.67.626-1.172 0-.745-.555-1.349-1.24-1.349C9.444 0 8.89.604 8.89 1.349c0 .502.252.94.626 1.172L7.911 5.546 5.193 3.917 4.118 6.963l-1.69-.786c.033-.12.05-.248.05-.38 0-.745-.554-1.349-1.239-1.349C.555 4.448 0 5.052 0 5.797s.555 1.349 1.24 1.349c.206 0 .4-.055.572-.153L5.516 14h9.224l3.602-6.813c.131.05.272.079.419.079.684 0 1.239-.604 1.239-1.35 0-.744-.555-1.348-1.24-1.348zm-4.417 1.254l.6 1.698-1.243.578-.761-1.435 1.404-.841zm-8.51 0l1.465.878-.741 1.398-1.312-.61.588-1.666zm8.2 6.845H6.223L3.93 8.325l3.145 1.463 3.054-5.757 3.054 5.757 3.146-1.463-2.296 4.342z" fill="#000" fill-rule="nonzero"/>
</svg>
