<?xml version="1.0" encoding="UTF-8"?>
<svg width="20px" height="14px" viewBox="0 0 20 14" version="1.1" xmlns="http://www.w3.org/2000/svg" xmlns:xlink="http://www.w3.org/1999/xlink">
    <!-- Generator: Sketch 49.3 (51167) - http://www.bohemiancoding.com/sketch -->
    <title>crown</title>
    <desc>Created with Sketch.</desc>
    <g id="Symbols" stroke="none" stroke-width="1" fill="none" fill-rule="evenodd">
        <g id="Component-/-Icons-/-S-/-Menu-/-Crown_02" transform="translate(-2.000000, -5.000000)">
            <mask id="mask-2" fill="white">
                <path d="M20.7607788,9.56779715 C20.0763244,9.56779715 19.5215186,10.1717289 19.5215186,10.9166943 C19.5215186,11.0486715 19.5392139,11.1761417 19.571714,11.296724 L18.0693283,11.9956844 L16.9825683,8.91718018 L14.3263913,10.5088575 L12.7415444,7.52096007 C13.1154123,7.2886819 13.3676785,6.85099721 13.3676785,6.3488971 C13.3676785,5.60388922 12.8128336,5 12.1284182,5 C11.4440028,5 10.889158,5.60393174 10.889158,6.3488971 C10.889158,6.85099721 11.141385,7.28872442 11.515292,7.52100258 L9.91095295,10.5456785 L7.19340858,8.91726521 L6.11805492,11.9634554 L4.42836412,11.1773747 C4.46090324,11.0567074 4.47863765,10.9291522 4.47863765,10.7970474 C4.47863765,10.0520395 3.92379282,9.4481503 3.23937742,9.4481503 C2.55492296,9.44810778 2,10.0519545 2,10.7969624 C2,11.5419702 2.55484483,12.1458595 3.23926023,12.1458595 C3.44590126,12.1458595 3.64055008,12.0905005 3.81187854,11.9931758 L7.51637796,19 L16.7403804,19 L20.3424968,12.1867197 C20.4732001,12.2377418 20.6139426,12.2656764 20.7607398,12.2656764 C21.4451942,12.2656764 22,11.6617447 22,10.9167793 C22.0000391,10.1717289 21.4451942,9.56779715 20.7607788,9.56779715 Z M16.343114,10.8217506 L16.9425682,12.5198941 L15.6997533,13.0981022 L14.9386971,11.6633178 L16.343114,10.8217506 Z M7.83274577,10.8217506 L9.29849082,11.7000963 L8.55692687,13.0981022 L7.24465868,12.4875801 L7.83274577,10.8217506 Z M16.032254,17.6671323 L8.22442622,17.6671323 L5.92864049,13.3248104 L9.07434975,14.7882522 L12.128301,9.03061934 L15.1822914,14.7882522 L18.3279616,13.3248104 L16.032254,17.6671323 Z"></path>
            </mask>
            <path d="M20.7607788,9.56779715 C20.0763244,9.56779715 19.5215186,10.1717289 19.5215186,10.9166943 C19.5215186,11.0486715 19.5392139,11.1761417 19.571714,11.296724 L18.0693283,11.9956844 L16.9825683,8.91718018 L14.3263913,10.5088575 L12.7415444,7.52096007 C13.1154123,7.2886819 13.3676785,6.85099721 13.3676785,6.3488971 C13.3676785,5.60388922 12.8128336,5 12.1284182,5 C11.4440028,5 10.889158,5.60393174 10.889158,6.3488971 C10.889158,6.85099721 11.141385,7.28872442 11.515292,7.52100258 L9.91095295,10.5456785 L7.19340858,8.91726521 L6.11805492,11.9634554 L4.42836412,11.1773747 C4.46090324,11.0567074 4.47863765,10.9291522 4.47863765,10.7970474 C4.47863765,10.0520395 3.92379282,9.4481503 3.23937742,9.4481503 C2.55492296,9.44810778 2,10.0519545 2,10.7969624 C2,11.5419702 2.55484483,12.1458595 3.23926023,12.1458595 C3.44590126,12.1458595 3.64055008,12.0905005 3.81187854,11.9931758 L7.51637796,19 L16.7403804,19 L20.3424968,12.1867197 C20.4732001,12.2377418 20.6139426,12.2656764 20.7607398,12.2656764 C21.4451942,12.2656764 22,11.6617447 22,10.9167793 C22.0000391,10.1717289 21.4451942,9.56779715 20.7607788,9.56779715 Z M16.343114,10.8217506 L16.9425682,12.5198941 L15.6997533,13.0981022 L14.9386971,11.6633178 L16.343114,10.8217506 Z M7.83274577,10.8217506 L9.29849082,11.7000963 L8.55692687,13.0981022 L7.24465868,12.4875801 L7.83274577,10.8217506 Z M16.032254,17.6671323 L8.22442622,17.6671323 L5.92864049,13.3248104 L9.07434975,14.7882522 L12.128301,9.03061934 L15.1822914,14.7882522 L18.3279616,13.3248104 L16.032254,17.6671323 Z" fill="#000000" fill-rule="nonzero"></path>
        </g>
    </g>
</svg>
