<?xml version="1.0" encoding="UTF-8"?>
<svg width="18px" height="16px" viewBox="0 0 18 16" version="1.1" xmlns="http://www.w3.org/2000/svg" xmlns:xlink="http://www.w3.org/1999/xlink">
    <!-- Generator: Sketch 49.3 (51167) - http://www.bohemiancoding.com/sketch -->
    <title>dislike</title>
    <desc>Created with Sketch.</desc>
    <g id="Marvel" stroke="none" stroke-width="1" fill="none" fill-rule="evenodd">
        <g id="Profile_page_Man" transform="translate(-1130.000000, -108.000000)">
            <g id="Group-2" transform="translate(1111.000000, 81.000000)">
                <g id="Group-3" transform="translate(16.000000, 23.000000)">
                    <g id="Component-/-Icons-/-S-/-Blind">
                        <mask id="mask-2" fill="white">
                            <path d="M3,20 L3,10.4 L5,10.4 L5,20 L3,20 Z M21,11.2 L21,11.272 L21,12.8 C21,13.008 20.9590909,13.2 20.8854545,13.384 L18.4145455,19.024 C18.1690909,19.6 17.5881818,20 16.9090909,20 L8.54545455,20 C7.64545455,20 7,19.28 7,18.4 L7,10.4 C7,9.96 7.08909091,9.56 7.39181818,9.272 L13.7754545,4 L14.6427273,4.84 C14.8636364,5.056 15.0027273,5.36 15.0027273,5.688 L14.9781818,5.944 L14.2009091,9.6 L19.3636364,9.6 C20.2636364,9.6 21,10.32 21,11.2 Z"></path>
                        </mask>
                        <path d="M3,20 L3,10.4 L5,10.4 L5,20 L3,20 Z M21,11.2 L21,11.272 L21,12.8 C21,13.008 20.9590909,13.2 20.8854545,13.384 L18.4145455,19.024 C18.1690909,19.6 17.5881818,20 16.9090909,20 L8.54545455,20 C7.64545455,20 7,19.28 7,18.4 L7,10.4 C7,9.96 7.08909091,9.56 7.39181818,9.272 L13.7754545,4 L14.6427273,4.84 C14.8636364,5.056 15.0027273,5.36 15.0027273,5.688 L14.9781818,5.944 L14.2009091,9.6 L19.3636364,9.6 C20.2636364,9.6 21,10.32 21,11.2 Z" fill="#000000" fill-rule="nonzero" transform="translate(12.000000, 12.000000) scale(1, -1) translate(-12.000000, -12.000000) "></path>
                    </g>
                </g>
            </g>
        </g>
    </g>
</svg>
