<svg width="18" height="15" viewBox="0 0 18 15" xmlns="http://www.w3.org/2000/svg">
    <title>
        email-with-pen
    </title>
    <path d="M16.973 1.774L9.735 9.012a1 1 0 0 1-1.414 0L1.038 1.729A1 1 0 0 0 1 2.003v10.01a1 1 0 0 0 1 1h6.505a.495.495 0 0 1 0 .99H2a2 2 0 0 1-2-2V2a2 2 0 0 1 2-2h14a2 2 0 0 1 2 2v4.501a.5.5 0 1 1-1.001 0V2.003c0-.079-.01-.155-.026-.229zm-.686-.729A1 1 0 0 0 16 1.003H2c-.084 0-.165.01-.243.03L8.32 7.597a1 1 0 0 0 1.414 0l6.552-6.552zm-3.655 12.958l3.95-3.95-.609-.607L12 13.419v.584h.632zm-.632 1l-1-1h1v1zm-1 0v-1.584a1 1 0 0 1 .293-.707l3.973-3.973a1 1 0 0 1 1.415 0l.608.608a1 1 0 0 1 0 1.414l-3.95 3.95a1 1 0 0 1-.707.292H11z" fill="#848E99" fill-rule="nonzero"/>
</svg>
