<svg width="18" height="18" viewBox="0 0 18 18" xmlns="http://www.w3.org/2000/svg">
    <title>
        email-event
    </title>
    <path d="M15.772 4.445V0H2.228v4.445L0 6.182V18h18V6.182l-2.228-1.737zm0 1.338l.866.675-.866.77V5.783zM3.282 1.055h11.435v7.11L9 13.241 3.283 8.164v-7.11zM2.229 5.783v1.445l-.866-.77.866-.675zM1.055 7.596l5.166 4.588-5.166 4.197V7.596zm.978 9.35l4.987-4.052L9 14.652l1.98-1.758 4.987 4.051H2.033zm14.912-.565l-5.166-4.197 5.166-4.588v8.785zM12.7 5.18l-2.557-.372L9 2.493 7.857 4.809 5.3 5.181l1.85 1.803-.437 2.546L9 8.328l2.287 1.202-.437-2.546L12.7 5.18zM9.886 7.6L9 7.137l-.886.466.17-.986-.717-.699.99-.144L9 4.876l.443.897.99.144-.716.699.169.986z" fill="#000" fill-rule="nonzero"/>
</svg>
