<svg width="70" height="64" viewBox="0 0 70 64" xmlns="http://www.w3.org/2000/svg">
    <title>
        invisible-symbol
    </title>
    <g fill="#C7CCD1" fill-rule="nonzero">
        <path d="M69.452 28.977a40.395 40.395 0 0 0-11.507-12.621 2.342 2.342 0 0 0-2.71 3.819 35.72 35.72 0 0 1 9.453 9.975c-6.435 10.18-17.73 16.449-29.805 16.449a2.342 2.342 0 0 0 0 4.683c14.198 0 27.444-7.648 34.569-19.96.42-.725.42-1.62 0-2.345z"/>
        <path d="M34.883 44.049c7.664 0 13.9-6.236 13.9-13.9 0-1.014-.11-2.026-.328-3.01a2.34 2.34 0 1 0-4.573 1.01c.144.652.217 1.325.217 2 0 5.082-4.134 9.217-9.216 9.217-1.693 0-3.28-.461-4.644-1.261L64.116 4.228A2.341 2.341 0 1 0 60.805.917L26.928 34.794a9.157 9.157 0 0 1-1.26-4.644c0-5.082 4.134-9.217 9.215-9.217.728 0 1.452.085 2.15.252a2.341 2.341 0 1 0 1.088-4.555 13.96 13.96 0 0 0-3.238-.38c-7.664 0-13.899 6.236-13.899 13.9 0 2.988.951 5.756 2.562 8.026l-4.609 4.609A35.238 35.238 0 0 1 5.077 30.15C11.514 19.97 22.809 13.7 34.884 13.7c2.502 0 5 .264 7.423.783a2.34 2.34 0 1 0 .982-4.578 40.14 40.14 0 0 0-8.405-.888c-14.197 0-27.443 7.648-34.568 19.96-.42.726-.42 1.62 0 2.346a39.922 39.922 0 0 0 15.162 14.922L1.802 59.92a2.341 2.341 0 1 0 3.311 3.311l21.744-21.743a13.82 13.82 0 0 0 8.026 2.562z"/>
    </g>
</svg>
