<?xml version="1.0" encoding="UTF-8"?>
<svg width="10px" height="6px" viewBox="0 0 10 6" version="1.1" xmlns="http://www.w3.org/2000/svg" xmlns:xlink="http://www.w3.org/1999/xlink">
    <!-- Generator: Sketch 49.3 (51167) - http://www.bohemiancoding.com/sketch -->
    <title>eye</title>
    <desc>Created with Sketch.</desc>
    <g id="Marvel" stroke="none" stroke-width="1" fill="none" fill-rule="evenodd">
        <g id="Marvel_Modal_Notifications" transform="translate(-424.000000, -760.000000)">
            <g id="Chat" transform="translate(369.000000, 7.000000)">
                <g id="Чат" transform="translate(0.000000, 17.000000)">
                    <g id="01-copy-7" transform="translate(24.000000, 688.000000)">
                        <g id="Component-/-Icons-/-S-/-Eye" transform="translate(30.000000, 45.000000)">
                            <mask id="mask-2" fill="white">
                                <path d="M6,8.5 C7.40353841,8.5 8.69763675,7.68470318 9.89326583,6 C8.69763675,4.31529682 7.40353841,3.5 6,3.5 C4.59646159,3.5 3.30236325,4.31529682 2.10673417,6 C3.30236325,7.68470318 4.59646159,8.5 6,8.5 Z M1.5,6 C2.83333333,4 4.33333333,3 6,3 C7.66666667,3 9.16666667,4 10.5,6 C9.16666667,8 7.66666667,9 6,9 C4.33333333,9 2.83333333,8 1.5,6 Z M6,7 C6.55228475,7 7,6.55228475 7,6 C7,5.44771525 6.55228475,5 6,5 C5.44771525,5 5,5.44771525 5,6 C5,6.55228475 5.44771525,7 6,7 Z M6,7.5 C5.17157288,7.5 4.5,6.82842712 4.5,6 C4.5,5.17157288 5.17157288,4.5 6,4.5 C6.82842712,4.5 7.5,5.17157288 7.5,6 C7.5,6.82842712 6.82842712,7.5 6,7.5 Z"></path>
                            </mask>
                            <path d="M6,8.5 C7.40353841,8.5 8.69763675,7.68470318 9.89326583,6 C8.69763675,4.31529682 7.40353841,3.5 6,3.5 C4.59646159,3.5 3.30236325,4.31529682 2.10673417,6 C3.30236325,7.68470318 4.59646159,8.5 6,8.5 Z M1.5,6 C2.83333333,4 4.33333333,3 6,3 C7.66666667,3 9.16666667,4 10.5,6 C9.16666667,8 7.66666667,9 6,9 C4.33333333,9 2.83333333,8 1.5,6 Z M6,7 C6.55228475,7 7,6.55228475 7,6 C7,5.44771525 6.55228475,5 6,5 C5.44771525,5 5,5.44771525 5,6 C5,6.55228475 5.44771525,7 6,7 Z M6,7.5 C5.17157288,7.5 4.5,6.82842712 4.5,6 C4.5,5.17157288 5.17157288,4.5 6,4.5 C6.82842712,4.5 7.5,5.17157288 7.5,6 C7.5,6.82842712 6.82842712,7.5 6,7.5 Z" fill="#848E99" fill-rule="nonzero"></path>
                        </g>
                    </g>
                </g>
            </g>
        </g>
    </g>
</svg>
