<?xml version="1.0" encoding="UTF-8"?>
<svg width="40px" height="39px" viewBox="0 0 40 39" version="1.1" xmlns="http://www.w3.org/2000/svg" xmlns:xlink="http://www.w3.org/1999/xlink">
    <!-- Generator: Sketch 49.3 (51167) - http://www.bohemiancoding.com/sketch -->
    <title>filter-category-10</title>
    <desc>Created with Sketch.</desc>
    <g id="Symbols" stroke="none" stroke-width="1" fill="none" fill-rule="evenodd">
        <g id="Elements-/-Sort-/-Card-/-~Parts-/-Icon_10" transform="translate(0.000000, -1.000000)">
            <mask id="mask-2" fill="white">
                <path d="M39.1585156,1.83540448 C38.1278125,0.807982608 36.5346875,0.718216983 35.5751563,1.62173261 L35.1728906,1.88509198 L34.5144531,1.22852948 C34.2852344,1.00001386 33.9142188,1.00048261 33.6858594,1.22985761 C33.4573438,1.45907636 33.4579688,1.83017011 33.6871875,2.05868573 L34.1710938,2.54118573 L33.3316406,3.09087323 L32.6489063,2.41009198 C32.4196875,2.18157636 32.0486719,2.18204511 31.8203125,2.41142011 C31.5917969,2.64063886 31.5924219,3.01165448 31.8216406,3.24024823 L32.3297656,3.74688886 L31.4902344,4.29665448 L30.7864063,3.59477948 C30.5571875,3.36634198 30.1863281,3.36673261 29.9578125,3.59610761 C29.729375,3.82524823 29.7299219,4.19634198 29.9591406,4.42493573 L30.4883594,4.95274823 L29.1690625,5.81634198 C28.9311719,5.96774823 28.7769531,6.21727948 28.7461719,6.50102948 C28.7128906,6.80618573 28.8228906,7.10985761 29.0478906,7.33407636 C29.04625,7.33571698 29.0620313,7.34181073 29.0603906,7.34345136 C29.0588281,7.34501386 29.0603906,7.34345136 29.0588281,7.34501386 L19.1876563,17.184467 C18.9160938,15.7268889 19.2150781,14.0703264 19.464375,12.6917326 C19.7352344,11.1943107 19.9141406,10.205092 19.3592188,9.65946698 C19.1775781,9.48079511 18.8442969,9.29087323 18.2889063,9.40118573 C14.8597656,10.0820451 13.1692188,13.3749357 11.9349219,15.7793889 C11.4691406,16.6866545 11.066875,17.4702482 10.7103906,17.8254045 C9.42914063,19.1028264 8.31195313,19.4718107 7.2775,19.7402482 C6.96429688,19.8214982 6.77625,20.1414201 6.8575,20.4547795 C6.92601563,20.7187639 7.16375,20.8937639 7.42429688,20.8937639 C7.47296875,20.8937639 7.5225,20.8876701 7.571875,20.8748576 C8.70976563,20.5795451 10.0485938,20.140092 11.5375781,18.6557951 C12.0248438,18.1702482 12.4452344,17.3514982 12.9774219,16.3148576 C14.1025781,14.123217 15.6435156,11.1215764 18.5171094,10.5509514 C18.5251563,10.5493107 18.5326563,10.5479826 18.5396875,10.5468107 C18.6010938,10.8802482 18.4352344,11.7972795 18.31125,12.4831389 C18.0190625,14.0983732 17.6257031,16.273217 18.2223438,18.1467326 L16.7561719,19.6081389 L15.5973438,18.4530607 C15.36875,18.2251701 14.99875,18.2251701 14.7701563,18.4530607 L12.7196875,20.4968889 C12.609375,20.6068889 12.5473438,20.7561857 12.5473438,20.9120451 C12.5473438,21.0678264 12.609375,21.2172014 12.7196875,21.3272014 L18.1877344,26.7776701 C18.3021094,26.8915764 18.4516406,26.9486076 18.6013281,26.9486076 C18.7509375,26.9486076 18.900625,26.8915764 19.0149219,26.7776701 L21.0654688,24.7337639 C21.1757813,24.6237639 21.2378125,24.4743889 21.2378125,24.3186076 C21.2378125,24.1627482 21.1757813,24.0134514 21.0654688,23.9034514 L19.9097656,22.7514982 L21.2064844,21.4589982 C22.6564063,22.2179826 24.1327344,22.3723576 25.2359375,22.4874357 C25.8836719,22.5549357 26.6896875,22.6389982 26.8285156,22.8474357 C26.8511719,22.8815764 26.9146875,23.0279826 26.7784375,23.481967 C26.6811719,23.806342 26.3579688,24.1548576 25.7614844,24.5787639 C25.4976563,24.7662639 25.4357813,25.1322014 25.623125,25.3959514 C25.7374219,25.5568107 25.9179688,25.6426701 26.1013281,25.6426701 C26.2186719,25.6426701 26.3372656,25.6075139 26.4401563,25.5343107 C27,25.1364201 27.6719531,24.581967 27.9007813,23.818842 C28.1061719,23.1343107 28.074375,22.6039982 27.8036719,22.1975139 C27.3592969,21.5303264 26.4758594,21.438217 25.3573438,21.3215764 C24.3920313,21.2207951 23.229375,21.0980607 22.0857031,20.5826701 L32.4524219,10.2498576 C32.5978125,10.2822795 32.7460156,10.2995451 32.8945313,10.2995451 C32.906875,10.2995451 32.9192188,10.2993889 32.9316406,10.2991545 C33.4367969,10.2897014 33.8975781,10.0893889 34.2301563,9.73493573 L34.6111719,9.34415448 C34.8371875,9.11243573 34.8325,8.74134198 34.6007813,8.51540448 C34.3690625,8.28923261 33.998125,8.29399823 33.7722656,8.52579511 L33.3867969,8.92110761 C33.3835938,8.92438886 33.3804688,8.92767011 33.3773438,8.93102948 C33.230625,9.08876386 33.0419531,9.12477948 32.9096094,9.12727948 C32.6580469,9.13079511 32.4032031,9.02259198 32.2070313,8.82696698 L30.0272656,6.65540448 L36.2635156,2.57204511 C36.2969531,2.55017011 36.3279688,2.52493573 36.35625,2.49681073 C36.8542188,2.00040448 37.7402344,2.07626386 38.3314844,2.66571698 C38.6471875,2.98040448 38.8282031,3.39493573 38.8282031,3.80306073 C38.8282031,4.12610761 38.7121875,4.41962323 38.5015625,4.62962323 C38.2627344,4.86767011 37.9257813,4.98110761 37.5550781,4.95126386 C37.381875,4.93727948 37.2096875,5.00102948 37.0876563,5.12610761 L35.5325781,6.72071698 C35.3066406,6.95243573 35.31125,7.32352948 35.5428906,7.54954511 C35.7746094,7.77548261 36.145625,7.77079511 36.3714844,7.53923261 L37.7489063,6.12681073 C38.3514844,6.10743573 38.9154688,5.87196698 39.3288281,5.45993573 C39.7615625,5.02829511 40,4.43985761 40,3.80298261 C40,3.08556073 39.6932813,2.36837323 39.1585156,1.83540448 Z M18.6014844,25.535092 L13.9635156,20.911967 L15.1839063,19.6954826 L19.8219531,24.3185295 L18.6014844,25.535092 Z M19.0797656,21.9239201 L17.5863281,20.4354045 L20.4646094,17.566342 L21.9555469,19.057592 L19.0797656,21.9239201 Z M22.785625,18.2301701 L21.2946875,16.7389201 L22.7882813,15.250092 L24.2792188,16.7414201 L22.785625,18.2301701 Z M25.1094531,15.9139982 L23.6184375,14.4226701 L25.1121094,12.933842 L26.603125,14.4251701 L25.1094531,15.9139982 Z M27.4332813,13.5978264 L25.9421875,12.1064201 L27.4357813,10.617592 L28.926875,12.1089982 L27.4332813,13.5978264 Z M31.3797656,9.65727948 C31.3809375,9.65845136 31.3821875,9.65946698 31.3833594,9.66063886 L29.7571094,11.2815764 L28.2659375,9.79009198 L29.8890625,8.17212323 L31.3797656,9.65727948 Z M24.4850781,26.0809514 C24.6586719,26.3541545 24.5779687,26.716342 24.3049219,26.8899357 C23.56625,27.3595451 22.61,28.0068889 21.7640625,28.851967 C20.3124219,30.3014201 20.0064844,31.541967 19.6825781,32.8554826 C19.3488281,34.2087639 19.0038281,35.608217 17.4541406,37.1528264 C15.8624219,38.7392326 13.7230469,39.5155607 11.4729687,39.5155607 C8.70320312,39.5155607 5.76515625,38.340092 3.46984375,36.0525139 C1.26476562,33.8546232 0,30.9373576 0,28.048842 C0,25.738842 0.84109375,23.6282951 2.36820313,22.1059514 C3.1234375,21.3531389 3.89554687,20.8287639 4.79796875,20.4556389 C5.09703125,20.3321232 5.4396875,20.4743107 5.56328125,20.7733732 C5.686875,21.0725139 5.54460937,21.4153264 5.24554687,21.5389201 C4.48976562,21.851342 3.8384375,22.2953264 3.19546875,22.9361857 C1.87164062,24.2558732 1.171875,26.0237639 1.171875,28.048842 C1.171875,30.6280607 2.3109375,33.2426701 4.29703125,35.2222795 C8.0009375,38.9136076 13.5321094,39.4072014 16.6269531,36.3225139 C17.9444531,35.0092326 18.2360937,33.8267326 18.5447656,32.5747795 C18.8767187,31.2287639 19.2528906,29.7030607 20.9360156,28.0225139 C21.8625,27.096967 22.8870312,26.4023576 23.6761719,25.900717 C23.9492969,25.7270451 24.3114844,25.8078264 24.4850781,26.0809514 Z M16.2676562,28.685717 L10.7995312,23.2353264 C10.5709375,23.0074357 10.2009375,23.0074357 9.97234375,23.2353264 L7.92179687,25.2792326 C7.81148437,25.3892326 7.74945312,25.5386076 7.74945312,25.6943889 C7.74945312,25.8502482 7.81148437,25.9995451 7.92179687,26.1095451 L13.3899219,31.5599357 C13.5042187,31.673842 13.6539062,31.7308732 13.8035156,31.7308732 C13.953125,31.7308732 14.1028125,31.673842 14.2171094,31.5599357 L16.2676562,29.5160295 C16.3779687,29.4060295 16.44,29.2566545 16.44,29.1008732 C16.44,28.945092 16.3779687,28.795717 16.2676562,28.685717 Z M13.8035156,30.3174357 L9.16546875,25.6943889 L10.3859375,24.4778264 L15.0239844,29.1008732 L13.8035156,30.3174357 Z M12.4121094,34.8314982 C12.3346094,34.283842 12.0485938,33.7991545 11.6067188,33.4666545 C11.1648438,33.1341545 10.6200781,32.993842 10.0723438,33.0711857 C9.52484375,33.1486076 9.04023438,33.4346232 8.7078125,33.8766545 C8.37539063,34.3186857 8.23492188,34.8636857 8.31226563,35.411342 C8.3896875,35.9589982 8.67570313,36.4437639 9.11765625,36.7761857 C9.48015625,37.0489982 9.91203125,37.1925139 10.3578125,37.1925139 C10.4553906,37.1925139 10.5536719,37.1856389 10.6520313,37.1717326 C11.1995313,37.0943107 11.6841406,36.8082951 12.0166406,36.3662639 C12.3490625,35.9241545 12.4894531,35.3791545 12.4121094,34.8314982 Z M11.0801563,35.6616545 C10.9358594,35.8534514 10.725625,35.977592 10.4879688,36.0111857 C10.2504688,36.0449357 10.0140625,35.983842 9.8221875,35.839467 C9.63039063,35.6952482 9.50625,35.4849357 9.47265625,35.2472014 C9.4390625,35.0095451 9.50007813,34.7730607 9.64421875,34.581342 C9.78851563,34.3895451 9.99875,34.2654045 10.2364063,34.2317326 C10.2790625,34.225717 10.3217188,34.2227482 10.3640625,34.2227482 C10.5575,34.2227482 10.7448438,34.2850139 10.9021875,34.4033732 C10.9021875,34.4033732 10.9021875,34.4033732 10.9021875,34.4034514 C11.0939844,34.5476701 11.218125,34.7579826 11.2517188,34.995717 C11.2853125,35.2333732 11.2242969,35.4699357 11.0801563,35.6616545 Z M16.0311719,33.3646232 C15.3425781,32.8467326 14.36125,32.9854826 13.8432031,33.6740764 C13.3253906,34.3627482 13.4641406,35.344467 14.1525781,35.8625139 C14.42625,36.0682951 14.7521875,36.1766545 15.0885938,36.1766545 C15.1621875,36.1766545 15.2364063,36.1714982 15.3105469,36.1609514 C15.7238281,36.1025139 16.0896094,35.8865764 16.3405469,35.5530607 C16.8584375,34.8643889 16.7196875,33.882592 16.0311719,33.3646232 Z M15.4039844,34.8484514 C15.2746875,35.0206389 15.0292188,35.0553264 14.8571094,34.9257951 C14.685,34.7962639 14.6503906,34.5508732 14.7797656,34.3786857 C14.8564063,34.2767326 14.9736719,34.2229826 15.0924219,34.2229826 C15.1741406,34.2229826 15.2565625,34.2485295 15.3267188,34.301342 C15.4988281,34.4308732 15.5335156,34.6762639 15.4039844,34.8484514 Z"></path>
            </mask>
            <path d="M39.1585156,1.83540448 C38.1278125,0.807982608 36.5346875,0.718216983 35.5751563,1.62173261 L35.1728906,1.88509198 L34.5144531,1.22852948 C34.2852344,1.00001386 33.9142188,1.00048261 33.6858594,1.22985761 C33.4573438,1.45907636 33.4579688,1.83017011 33.6871875,2.05868573 L34.1710938,2.54118573 L33.3316406,3.09087323 L32.6489063,2.41009198 C32.4196875,2.18157636 32.0486719,2.18204511 31.8203125,2.41142011 C31.5917969,2.64063886 31.5924219,3.01165448 31.8216406,3.24024823 L32.3297656,3.74688886 L31.4902344,4.29665448 L30.7864063,3.59477948 C30.5571875,3.36634198 30.1863281,3.36673261 29.9578125,3.59610761 C29.729375,3.82524823 29.7299219,4.19634198 29.9591406,4.42493573 L30.4883594,4.95274823 L29.1690625,5.81634198 C28.9311719,5.96774823 28.7769531,6.21727948 28.7461719,6.50102948 C28.7128906,6.80618573 28.8228906,7.10985761 29.0478906,7.33407636 C29.04625,7.33571698 29.0620313,7.34181073 29.0603906,7.34345136 C29.0588281,7.34501386 29.0603906,7.34345136 29.0588281,7.34501386 L19.1876563,17.184467 C18.9160938,15.7268889 19.2150781,14.0703264 19.464375,12.6917326 C19.7352344,11.1943107 19.9141406,10.205092 19.3592188,9.65946698 C19.1775781,9.48079511 18.8442969,9.29087323 18.2889063,9.40118573 C14.8597656,10.0820451 13.1692188,13.3749357 11.9349219,15.7793889 C11.4691406,16.6866545 11.066875,17.4702482 10.7103906,17.8254045 C9.42914063,19.1028264 8.31195313,19.4718107 7.2775,19.7402482 C6.96429688,19.8214982 6.77625,20.1414201 6.8575,20.4547795 C6.92601563,20.7187639 7.16375,20.8937639 7.42429688,20.8937639 C7.47296875,20.8937639 7.5225,20.8876701 7.571875,20.8748576 C8.70976563,20.5795451 10.0485938,20.140092 11.5375781,18.6557951 C12.0248438,18.1702482 12.4452344,17.3514982 12.9774219,16.3148576 C14.1025781,14.123217 15.6435156,11.1215764 18.5171094,10.5509514 C18.5251563,10.5493107 18.5326563,10.5479826 18.5396875,10.5468107 C18.6010938,10.8802482 18.4352344,11.7972795 18.31125,12.4831389 C18.0190625,14.0983732 17.6257031,16.273217 18.2223438,18.1467326 L16.7561719,19.6081389 L15.5973438,18.4530607 C15.36875,18.2251701 14.99875,18.2251701 14.7701563,18.4530607 L12.7196875,20.4968889 C12.609375,20.6068889 12.5473438,20.7561857 12.5473438,20.9120451 C12.5473438,21.0678264 12.609375,21.2172014 12.7196875,21.3272014 L18.1877344,26.7776701 C18.3021094,26.8915764 18.4516406,26.9486076 18.6013281,26.9486076 C18.7509375,26.9486076 18.900625,26.8915764 19.0149219,26.7776701 L21.0654688,24.7337639 C21.1757813,24.6237639 21.2378125,24.4743889 21.2378125,24.3186076 C21.2378125,24.1627482 21.1757813,24.0134514 21.0654688,23.9034514 L19.9097656,22.7514982 L21.2064844,21.4589982 C22.6564063,22.2179826 24.1327344,22.3723576 25.2359375,22.4874357 C25.8836719,22.5549357 26.6896875,22.6389982 26.8285156,22.8474357 C26.8511719,22.8815764 26.9146875,23.0279826 26.7784375,23.481967 C26.6811719,23.806342 26.3579688,24.1548576 25.7614844,24.5787639 C25.4976563,24.7662639 25.4357813,25.1322014 25.623125,25.3959514 C25.7374219,25.5568107 25.9179688,25.6426701 26.1013281,25.6426701 C26.2186719,25.6426701 26.3372656,25.6075139 26.4401563,25.5343107 C27,25.1364201 27.6719531,24.581967 27.9007813,23.818842 C28.1061719,23.1343107 28.074375,22.6039982 27.8036719,22.1975139 C27.3592969,21.5303264 26.4758594,21.438217 25.3573438,21.3215764 C24.3920313,21.2207951 23.229375,21.0980607 22.0857031,20.5826701 L32.4524219,10.2498576 C32.5978125,10.2822795 32.7460156,10.2995451 32.8945313,10.2995451 C32.906875,10.2995451 32.9192188,10.2993889 32.9316406,10.2991545 C33.4367969,10.2897014 33.8975781,10.0893889 34.2301563,9.73493573 L34.6111719,9.34415448 C34.8371875,9.11243573 34.8325,8.74134198 34.6007813,8.51540448 C34.3690625,8.28923261 33.998125,8.29399823 33.7722656,8.52579511 L33.3867969,8.92110761 C33.3835938,8.92438886 33.3804688,8.92767011 33.3773438,8.93102948 C33.230625,9.08876386 33.0419531,9.12477948 32.9096094,9.12727948 C32.6580469,9.13079511 32.4032031,9.02259198 32.2070313,8.82696698 L30.0272656,6.65540448 L36.2635156,2.57204511 C36.2969531,2.55017011 36.3279688,2.52493573 36.35625,2.49681073 C36.8542188,2.00040448 37.7402344,2.07626386 38.3314844,2.66571698 C38.6471875,2.98040448 38.8282031,3.39493573 38.8282031,3.80306073 C38.8282031,4.12610761 38.7121875,4.41962323 38.5015625,4.62962323 C38.2627344,4.86767011 37.9257813,4.98110761 37.5550781,4.95126386 C37.381875,4.93727948 37.2096875,5.00102948 37.0876563,5.12610761 L35.5325781,6.72071698 C35.3066406,6.95243573 35.31125,7.32352948 35.5428906,7.54954511 C35.7746094,7.77548261 36.145625,7.77079511 36.3714844,7.53923261 L37.7489063,6.12681073 C38.3514844,6.10743573 38.9154688,5.87196698 39.3288281,5.45993573 C39.7615625,5.02829511 40,4.43985761 40,3.80298261 C40,3.08556073 39.6932813,2.36837323 39.1585156,1.83540448 Z M18.6014844,25.535092 L13.9635156,20.911967 L15.1839063,19.6954826 L19.8219531,24.3185295 L18.6014844,25.535092 Z M19.0797656,21.9239201 L17.5863281,20.4354045 L20.4646094,17.566342 L21.9555469,19.057592 L19.0797656,21.9239201 Z M22.785625,18.2301701 L21.2946875,16.7389201 L22.7882813,15.250092 L24.2792188,16.7414201 L22.785625,18.2301701 Z M25.1094531,15.9139982 L23.6184375,14.4226701 L25.1121094,12.933842 L26.603125,14.4251701 L25.1094531,15.9139982 Z M27.4332813,13.5978264 L25.9421875,12.1064201 L27.4357813,10.617592 L28.926875,12.1089982 L27.4332813,13.5978264 Z M31.3797656,9.65727948 C31.3809375,9.65845136 31.3821875,9.65946698 31.3833594,9.66063886 L29.7571094,11.2815764 L28.2659375,9.79009198 L29.8890625,8.17212323 L31.3797656,9.65727948 Z M24.4850781,26.0809514 C24.6586719,26.3541545 24.5779687,26.716342 24.3049219,26.8899357 C23.56625,27.3595451 22.61,28.0068889 21.7640625,28.851967 C20.3124219,30.3014201 20.0064844,31.541967 19.6825781,32.8554826 C19.3488281,34.2087639 19.0038281,35.608217 17.4541406,37.1528264 C15.8624219,38.7392326 13.7230469,39.5155607 11.4729687,39.5155607 C8.70320312,39.5155607 5.76515625,38.340092 3.46984375,36.0525139 C1.26476562,33.8546232 0,30.9373576 0,28.048842 C0,25.738842 0.84109375,23.6282951 2.36820313,22.1059514 C3.1234375,21.3531389 3.89554687,20.8287639 4.79796875,20.4556389 C5.09703125,20.3321232 5.4396875,20.4743107 5.56328125,20.7733732 C5.686875,21.0725139 5.54460937,21.4153264 5.24554687,21.5389201 C4.48976562,21.851342 3.8384375,22.2953264 3.19546875,22.9361857 C1.87164062,24.2558732 1.171875,26.0237639 1.171875,28.048842 C1.171875,30.6280607 2.3109375,33.2426701 4.29703125,35.2222795 C8.0009375,38.9136076 13.5321094,39.4072014 16.6269531,36.3225139 C17.9444531,35.0092326 18.2360937,33.8267326 18.5447656,32.5747795 C18.8767187,31.2287639 19.2528906,29.7030607 20.9360156,28.0225139 C21.8625,27.096967 22.8870312,26.4023576 23.6761719,25.900717 C23.9492969,25.7270451 24.3114844,25.8078264 24.4850781,26.0809514 Z M16.2676562,28.685717 L10.7995312,23.2353264 C10.5709375,23.0074357 10.2009375,23.0074357 9.97234375,23.2353264 L7.92179687,25.2792326 C7.81148437,25.3892326 7.74945312,25.5386076 7.74945312,25.6943889 C7.74945312,25.8502482 7.81148437,25.9995451 7.92179687,26.1095451 L13.3899219,31.5599357 C13.5042187,31.673842 13.6539062,31.7308732 13.8035156,31.7308732 C13.953125,31.7308732 14.1028125,31.673842 14.2171094,31.5599357 L16.2676562,29.5160295 C16.3779687,29.4060295 16.44,29.2566545 16.44,29.1008732 C16.44,28.945092 16.3779687,28.795717 16.2676562,28.685717 Z M13.8035156,30.3174357 L9.16546875,25.6943889 L10.3859375,24.4778264 L15.0239844,29.1008732 L13.8035156,30.3174357 Z M12.4121094,34.8314982 C12.3346094,34.283842 12.0485938,33.7991545 11.6067188,33.4666545 C11.1648438,33.1341545 10.6200781,32.993842 10.0723438,33.0711857 C9.52484375,33.1486076 9.04023438,33.4346232 8.7078125,33.8766545 C8.37539063,34.3186857 8.23492188,34.8636857 8.31226563,35.411342 C8.3896875,35.9589982 8.67570313,36.4437639 9.11765625,36.7761857 C9.48015625,37.0489982 9.91203125,37.1925139 10.3578125,37.1925139 C10.4553906,37.1925139 10.5536719,37.1856389 10.6520313,37.1717326 C11.1995313,37.0943107 11.6841406,36.8082951 12.0166406,36.3662639 C12.3490625,35.9241545 12.4894531,35.3791545 12.4121094,34.8314982 Z M11.0801563,35.6616545 C10.9358594,35.8534514 10.725625,35.977592 10.4879688,36.0111857 C10.2504688,36.0449357 10.0140625,35.983842 9.8221875,35.839467 C9.63039063,35.6952482 9.50625,35.4849357 9.47265625,35.2472014 C9.4390625,35.0095451 9.50007813,34.7730607 9.64421875,34.581342 C9.78851563,34.3895451 9.99875,34.2654045 10.2364063,34.2317326 C10.2790625,34.225717 10.3217188,34.2227482 10.3640625,34.2227482 C10.5575,34.2227482 10.7448438,34.2850139 10.9021875,34.4033732 C10.9021875,34.4033732 10.9021875,34.4033732 10.9021875,34.4034514 C11.0939844,34.5476701 11.218125,34.7579826 11.2517188,34.995717 C11.2853125,35.2333732 11.2242969,35.4699357 11.0801563,35.6616545 Z M16.0311719,33.3646232 C15.3425781,32.8467326 14.36125,32.9854826 13.8432031,33.6740764 C13.3253906,34.3627482 13.4641406,35.344467 14.1525781,35.8625139 C14.42625,36.0682951 14.7521875,36.1766545 15.0885938,36.1766545 C15.1621875,36.1766545 15.2364063,36.1714982 15.3105469,36.1609514 C15.7238281,36.1025139 16.0896094,35.8865764 16.3405469,35.5530607 C16.8584375,34.8643889 16.7196875,33.882592 16.0311719,33.3646232 Z M15.4039844,34.8484514 C15.2746875,35.0206389 15.0292188,35.0553264 14.8571094,34.9257951 C14.685,34.7962639 14.6503906,34.5508732 14.7797656,34.3786857 C14.8564063,34.2767326 14.9736719,34.2229826 15.0924219,34.2229826 C15.1741406,34.2229826 15.2565625,34.2485295 15.3267188,34.301342 C15.4988281,34.4308732 15.5335156,34.6762639 15.4039844,34.8484514 Z" fill="#000000" fill-rule="nonzero"></path>
        </g>
    </g>
</svg>
