<?xml version="1.0" encoding="UTF-8"?>
<svg width="36px" height="38px" viewBox="0 0 36 38" version="1.1" xmlns="http://www.w3.org/2000/svg" xmlns:xlink="http://www.w3.org/1999/xlink">
    <!-- Generator: Sketch 49.3 (51167) - http://www.bohemiancoding.com/sketch -->
    <title>filter-category-2</title>
    <desc>Created with Sketch.</desc>
    <g id="Symbols" stroke="none" stroke-width="1" fill="none" fill-rule="evenodd">
        <g id="Elements-/-Sort-/-Card-/-~Parts-/-Icon_02" transform="translate(-2.000000, -1.000000)">
            <mask id="mask-2" fill="white">
                <path d="M33.6551724,10.310469 L27.4482759,10.310469 L27.4482759,11.5518483 L33.6551724,11.5518483 C35.3931034,11.5518483 36.7586207,12.9173655 36.7586207,14.6552966 L36.7586207,23.3449517 L38,23.3449517 L38,14.6552966 C38,12.2346069 36.0758621,10.310469 33.6551724,10.310469 M21.862069,24.586331 L20.6206897,24.586331 L20.6206897,35.7587448 L19.3793103,35.7587448 L19.3793103,24.586331 L18.137931,24.586331 L18.137931,23.3449517 L21.862069,23.3449517 L21.862069,24.586331 Z M15.6551724,23.3449517 L15.6551724,15.2759862 L15.6551724,14.6552966 C15.6551724,12.9173655 14.2896552,11.5518483 12.5517241,11.5518483 L6.34482759,11.5518483 C4.60689655,11.5518483 3.24137931,12.9173655 3.24137931,14.6552966 L3.24137931,23.3449517 L2,23.3449517 L2,14.6552966 C2,12.2346069 3.92413793,10.310469 6.34482759,10.310469 L12.5517241,10.310469 C14.9724138,10.310469 16.8965517,12.2346069 16.8965517,14.6552966 L16.8965517,15.2759862 L16.8965517,23.3449517 L16.8965517,35.7587448 L15.6551724,35.7587448 L15.6551724,23.3449517 Z M26.2068966,23.3449517 L26.2068966,15.2759862 L26.2068966,14.6552966 C26.2068966,12.9173655 24.8413793,11.5518483 23.1034483,11.5518483 L16.8965517,11.5518483 L16.8965517,10.310469 L23.1034483,10.310469 C25.5241379,10.310469 27.4482759,12.2346069 27.4482759,14.6552966 L27.4482759,15.2759862 L27.4482759,23.3449517 L27.4482759,35.7587448 L26.2068966,35.7587448 L26.2068966,23.3449517 Z M33.6551724,35.7586207 L33.6551724,15.2758621 L34.8965517,15.2758621 L34.8965517,35.7586207 L33.6551724,35.7586207 Z M32.4137931,24.586331 L31.1724138,24.586331 L31.1724138,35.7587448 L29.9310345,35.7587448 L29.9310345,24.586331 L28.6896552,24.586331 L28.6896552,23.3449517 L32.4137931,23.3449517 L32.4137931,24.586331 Z M31.7931034,38.2413793 L33.0344828,38.2413793 L33.0344828,37 L31.7931034,37 L31.7931034,38.2413793 Z M34.2758621,38.2413793 L34.2758621,37 L35.5172414,37 L35.5172414,38.2413793 L34.2758621,38.2413793 Z M36.7586207,38.2413793 L36.7586207,37 L38,37 L38,38.2413793 L36.7586207,38.2413793 Z M29.3103448,38.2413793 L29.3103448,37 L30.5517241,37 L30.5517241,38.2413793 L29.3103448,38.2413793 Z M26.8275862,38.2413793 L26.8275862,37 L28.0689655,37 L28.0689655,38.2413793 L26.8275862,38.2413793 Z M24.3448276,38.2413793 L24.3448276,37 L25.5862069,37 L25.5862069,38.2413793 L24.3448276,38.2413793 Z M2,38.2413793 L2,37 L3.24137931,37 L3.24137931,38.2413793 L2,38.2413793 Z M4.48275862,38.2413793 L4.48275862,37 L5.72413793,37 L5.72413793,38.2413793 L4.48275862,38.2413793 Z M6.96551724,38.2413793 L6.96551724,37 L8.20689655,37 L8.20689655,38.2413793 L6.96551724,38.2413793 Z M9.44827586,38.2413793 L9.44827586,37 L10.6896552,37 L10.6896552,38.2413793 L9.44827586,38.2413793 Z M11.9310345,38.2413793 L11.9310345,37 L13.1724138,37 L13.1724138,38.2413793 L11.9310345,38.2413793 Z M14.4137931,38.2413793 L14.4137931,37 L15.6551724,37 L15.6551724,38.2413793 L14.4137931,38.2413793 Z M16.8965517,38.2413793 L16.8965517,37 L18.137931,37 L18.137931,38.2413793 L16.8965517,38.2413793 Z M19.3793103,38.2413793 L19.3793103,37 L20.6206897,37 L20.6206897,38.2413793 L19.3793103,38.2413793 Z M21.862069,38.2413793 L21.862069,37 L23.1034483,37 L23.1034483,38.2413793 L21.862069,38.2413793 Z M7.5862069,24.586331 L7.5862069,23.3449517 L11.3103448,23.3449517 L11.3103448,24.586331 L10.0689655,24.586331 L10.0689655,35.7587448 L8.82758621,35.7587448 L8.82758621,24.586331 L7.5862069,24.586331 Z M17.5172414,4.10357241 C17.5172414,3.0484 18.3241379,2.24150345 19.3793103,2.24150345 L20.6206897,2.24150345 C21.6758621,2.24150345 22.4827586,3.0484 22.4827586,4.10357241 L22.4827586,5.96564138 C22.4827586,7.02081379 21.6758621,7.82771034 20.6206897,7.82771034 L19.3793103,7.82771034 C18.3241379,7.82771034 17.5172414,7.02081379 17.5172414,5.96564138 L17.5172414,4.10357241 Z M19.3793103,9.06908966 L20.6206897,9.06908966 C22.3586207,9.06908966 23.7241379,7.70357241 23.7241379,5.96564138 L23.7241379,4.10357241 C23.7241379,2.36564138 22.3586207,1.00012414 20.6206897,1.00012414 L19.3793103,1.00012414 C17.6413793,1.00012414 16.2758621,2.36564138 16.2758621,4.10357241 L16.2758621,5.96564138 C16.2758621,7.70357241 17.6413793,9.06908966 19.3793103,9.06908966 Z M6.96551724,4.10357241 C6.96551724,3.0484 7.77241379,2.24150345 8.82758621,2.24150345 L10.0689655,2.24150345 C11.1241379,2.24150345 11.9310345,3.0484 11.9310345,4.10357241 L11.9310345,5.96564138 C11.9310345,7.02081379 11.1241379,7.82771034 10.0689655,7.82771034 L8.82758621,7.82771034 C7.77241379,7.82771034 6.96551724,7.02081379 6.96551724,5.96564138 L6.96551724,4.10357241 Z M8.82758621,9.06908966 L10.0689655,9.06908966 C11.8068966,9.06908966 13.1724138,7.70357241 13.1724138,5.96564138 L13.1724138,4.10357241 C13.1724138,2.36564138 11.8068966,1.00012414 10.0689655,1.00012414 L8.82758621,1.00012414 C7.08965517,1.00012414 5.72413793,2.36564138 5.72413793,4.10357241 L5.72413793,5.96564138 C5.72413793,7.70357241 7.08965517,9.06908966 8.82758621,9.06908966 Z M28.0689655,4.10357241 C28.0689655,3.0484 28.8758621,2.24150345 29.9310345,2.24150345 L31.1724138,2.24150345 C32.2275862,2.24150345 33.0344828,3.0484 33.0344828,4.10357241 L33.0344828,5.96564138 C33.0344828,7.02081379 32.2275862,7.82771034 31.1724138,7.82771034 L29.9310345,7.82771034 C28.8758621,7.82771034 28.0689655,7.02081379 28.0689655,5.96564138 L28.0689655,4.10357241 Z M29.9310345,9.06908966 C28.1931034,9.06908966 26.8275862,7.70357241 26.8275862,5.96564138 L26.8275862,4.10357241 C26.8275862,2.36564138 28.1931034,1.00012414 29.9310345,1.00012414 L31.1724138,1.00012414 C32.9103448,1.00012414 34.2758621,2.36564138 34.2758621,4.10357241 L34.2758621,5.96564138 C34.2758621,7.70357241 32.9103448,9.06908966 31.1724138,9.06908966 L29.9310345,9.06908966 Z M23.1034483,35.7586207 L23.1034483,15.2758621 L24.3448276,15.2758621 L24.3448276,35.7586207 L23.1034483,35.7586207 Z M5.10344828,35.7586207 L5.10344828,15.2758621 L6.34482759,15.2758621 L6.34482759,35.7586207 L5.10344828,35.7586207 Z M12.5517241,35.7586207 L12.5517241,15.2758621 L13.7931034,15.2758621 L13.7931034,35.7586207 L12.5517241,35.7586207 Z"></path>
            </mask>
            <path d="M33.6551724,10.310469 L27.4482759,10.310469 L27.4482759,11.5518483 L33.6551724,11.5518483 C35.3931034,11.5518483 36.7586207,12.9173655 36.7586207,14.6552966 L36.7586207,23.3449517 L38,23.3449517 L38,14.6552966 C38,12.2346069 36.0758621,10.310469 33.6551724,10.310469 M21.862069,24.586331 L20.6206897,24.586331 L20.6206897,35.7587448 L19.3793103,35.7587448 L19.3793103,24.586331 L18.137931,24.586331 L18.137931,23.3449517 L21.862069,23.3449517 L21.862069,24.586331 Z M15.6551724,23.3449517 L15.6551724,15.2759862 L15.6551724,14.6552966 C15.6551724,12.9173655 14.2896552,11.5518483 12.5517241,11.5518483 L6.34482759,11.5518483 C4.60689655,11.5518483 3.24137931,12.9173655 3.24137931,14.6552966 L3.24137931,23.3449517 L2,23.3449517 L2,14.6552966 C2,12.2346069 3.92413793,10.310469 6.34482759,10.310469 L12.5517241,10.310469 C14.9724138,10.310469 16.8965517,12.2346069 16.8965517,14.6552966 L16.8965517,15.2759862 L16.8965517,23.3449517 L16.8965517,35.7587448 L15.6551724,35.7587448 L15.6551724,23.3449517 Z M26.2068966,23.3449517 L26.2068966,15.2759862 L26.2068966,14.6552966 C26.2068966,12.9173655 24.8413793,11.5518483 23.1034483,11.5518483 L16.8965517,11.5518483 L16.8965517,10.310469 L23.1034483,10.310469 C25.5241379,10.310469 27.4482759,12.2346069 27.4482759,14.6552966 L27.4482759,15.2759862 L27.4482759,23.3449517 L27.4482759,35.7587448 L26.2068966,35.7587448 L26.2068966,23.3449517 Z M33.6551724,35.7586207 L33.6551724,15.2758621 L34.8965517,15.2758621 L34.8965517,35.7586207 L33.6551724,35.7586207 Z M32.4137931,24.586331 L31.1724138,24.586331 L31.1724138,35.7587448 L29.9310345,35.7587448 L29.9310345,24.586331 L28.6896552,24.586331 L28.6896552,23.3449517 L32.4137931,23.3449517 L32.4137931,24.586331 Z M31.7931034,38.2413793 L33.0344828,38.2413793 L33.0344828,37 L31.7931034,37 L31.7931034,38.2413793 Z M34.2758621,38.2413793 L34.2758621,37 L35.5172414,37 L35.5172414,38.2413793 L34.2758621,38.2413793 Z M36.7586207,38.2413793 L36.7586207,37 L38,37 L38,38.2413793 L36.7586207,38.2413793 Z M29.3103448,38.2413793 L29.3103448,37 L30.5517241,37 L30.5517241,38.2413793 L29.3103448,38.2413793 Z M26.8275862,38.2413793 L26.8275862,37 L28.0689655,37 L28.0689655,38.2413793 L26.8275862,38.2413793 Z M24.3448276,38.2413793 L24.3448276,37 L25.5862069,37 L25.5862069,38.2413793 L24.3448276,38.2413793 Z M2,38.2413793 L2,37 L3.24137931,37 L3.24137931,38.2413793 L2,38.2413793 Z M4.48275862,38.2413793 L4.48275862,37 L5.72413793,37 L5.72413793,38.2413793 L4.48275862,38.2413793 Z M6.96551724,38.2413793 L6.96551724,37 L8.20689655,37 L8.20689655,38.2413793 L6.96551724,38.2413793 Z M9.44827586,38.2413793 L9.44827586,37 L10.6896552,37 L10.6896552,38.2413793 L9.44827586,38.2413793 Z M11.9310345,38.2413793 L11.9310345,37 L13.1724138,37 L13.1724138,38.2413793 L11.9310345,38.2413793 Z M14.4137931,38.2413793 L14.4137931,37 L15.6551724,37 L15.6551724,38.2413793 L14.4137931,38.2413793 Z M16.8965517,38.2413793 L16.8965517,37 L18.137931,37 L18.137931,38.2413793 L16.8965517,38.2413793 Z M19.3793103,38.2413793 L19.3793103,37 L20.6206897,37 L20.6206897,38.2413793 L19.3793103,38.2413793 Z M21.862069,38.2413793 L21.862069,37 L23.1034483,37 L23.1034483,38.2413793 L21.862069,38.2413793 Z M7.5862069,24.586331 L7.5862069,23.3449517 L11.3103448,23.3449517 L11.3103448,24.586331 L10.0689655,24.586331 L10.0689655,35.7587448 L8.82758621,35.7587448 L8.82758621,24.586331 L7.5862069,24.586331 Z M17.5172414,4.10357241 C17.5172414,3.0484 18.3241379,2.24150345 19.3793103,2.24150345 L20.6206897,2.24150345 C21.6758621,2.24150345 22.4827586,3.0484 22.4827586,4.10357241 L22.4827586,5.96564138 C22.4827586,7.02081379 21.6758621,7.82771034 20.6206897,7.82771034 L19.3793103,7.82771034 C18.3241379,7.82771034 17.5172414,7.02081379 17.5172414,5.96564138 L17.5172414,4.10357241 Z M19.3793103,9.06908966 L20.6206897,9.06908966 C22.3586207,9.06908966 23.7241379,7.70357241 23.7241379,5.96564138 L23.7241379,4.10357241 C23.7241379,2.36564138 22.3586207,1.00012414 20.6206897,1.00012414 L19.3793103,1.00012414 C17.6413793,1.00012414 16.2758621,2.36564138 16.2758621,4.10357241 L16.2758621,5.96564138 C16.2758621,7.70357241 17.6413793,9.06908966 19.3793103,9.06908966 Z M6.96551724,4.10357241 C6.96551724,3.0484 7.77241379,2.24150345 8.82758621,2.24150345 L10.0689655,2.24150345 C11.1241379,2.24150345 11.9310345,3.0484 11.9310345,4.10357241 L11.9310345,5.96564138 C11.9310345,7.02081379 11.1241379,7.82771034 10.0689655,7.82771034 L8.82758621,7.82771034 C7.77241379,7.82771034 6.96551724,7.02081379 6.96551724,5.96564138 L6.96551724,4.10357241 Z M8.82758621,9.06908966 L10.0689655,9.06908966 C11.8068966,9.06908966 13.1724138,7.70357241 13.1724138,5.96564138 L13.1724138,4.10357241 C13.1724138,2.36564138 11.8068966,1.00012414 10.0689655,1.00012414 L8.82758621,1.00012414 C7.08965517,1.00012414 5.72413793,2.36564138 5.72413793,4.10357241 L5.72413793,5.96564138 C5.72413793,7.70357241 7.08965517,9.06908966 8.82758621,9.06908966 Z M28.0689655,4.10357241 C28.0689655,3.0484 28.8758621,2.24150345 29.9310345,2.24150345 L31.1724138,2.24150345 C32.2275862,2.24150345 33.0344828,3.0484 33.0344828,4.10357241 L33.0344828,5.96564138 C33.0344828,7.02081379 32.2275862,7.82771034 31.1724138,7.82771034 L29.9310345,7.82771034 C28.8758621,7.82771034 28.0689655,7.02081379 28.0689655,5.96564138 L28.0689655,4.10357241 Z M29.9310345,9.06908966 C28.1931034,9.06908966 26.8275862,7.70357241 26.8275862,5.96564138 L26.8275862,4.10357241 C26.8275862,2.36564138 28.1931034,1.00012414 29.9310345,1.00012414 L31.1724138,1.00012414 C32.9103448,1.00012414 34.2758621,2.36564138 34.2758621,4.10357241 L34.2758621,5.96564138 C34.2758621,7.70357241 32.9103448,9.06908966 31.1724138,9.06908966 L29.9310345,9.06908966 Z M23.1034483,35.7586207 L23.1034483,15.2758621 L24.3448276,15.2758621 L24.3448276,35.7586207 L23.1034483,35.7586207 Z M5.10344828,35.7586207 L5.10344828,15.2758621 L6.34482759,15.2758621 L6.34482759,35.7586207 L5.10344828,35.7586207 Z M12.5517241,35.7586207 L12.5517241,15.2758621 L13.7931034,15.2758621 L13.7931034,35.7586207 L12.5517241,35.7586207 Z" fill="#000000"></path>
        </g>
    </g>
</svg>
