<?xml version="1.0" encoding="UTF-8"?>
<svg width="40px" height="23px" viewBox="0 0 40 23" version="1.1" xmlns="http://www.w3.org/2000/svg" xmlns:xlink="http://www.w3.org/1999/xlink">
    <!-- Generator: Sketch 49.3 (51167) - http://www.bohemiancoding.com/sketch -->
    <title>filter-category-19</title>
    <desc>Created with Sketch.</desc>
    <g id="Symbols" stroke="none" stroke-width="1" fill="none" fill-rule="evenodd">
        <g id="Elements-/-Sort-/-Card-/-~Parts-/-Icon_18" transform="translate(0.000000, -11.000000)">
            <mask id="mask-2" fill="white">
                <path d="M38.0175781,17.1898437 L37.2228906,17.1898437 L37.2228906,14.2363281 C37.2228906,12.4903125 35.8024219,11.0698437 34.0564062,11.0698437 L22.5805469,11.0698437 C21.5167187,11.0698437 20.5744531,11.5977344 20,12.4046875 C19.4255469,11.5976562 18.4832813,11.0698437 17.4194531,11.0698437 L10.2099219,11.0698437 C9.88632813,11.0698437 9.62398438,11.3321875 9.62398438,11.6557812 C9.62398438,11.979375 9.88632813,12.2417187 10.2099219,12.2417187 L17.4194531,12.2417187 C18.5192969,12.2417187 19.4140625,13.1364844 19.4140625,14.2363281 L19.4140625,20.0964844 C19.4017969,20.0846875 19.3888281,20.0736719 19.3764062,20.0620312 C18.681875,19.4144531 17.7405469,19.0411719 16.7903906,19.0411719 L7.03039063,19.0411719 C6.97875,18.2544531 6.44242187,17.5625 5.70234375,17.3001562 C5.49382813,17.22625 5.27335938,17.1898437 5.0521875,17.1898437 L3.94898437,17.1898437 L3.94898437,14.2363281 C3.94898437,13.1364844 4.84375,12.2417187 5.94359375,12.2417187 L7.86617188,12.2417187 C8.18976562,12.2417187 8.45210938,11.979375 8.45210938,11.6557812 C8.45210938,11.3321875 8.18976562,11.0698437 7.86617188,11.0698437 L5.94359375,11.0698437 C4.19757812,11.0698437 2.77710938,12.4903125 2.77710938,14.2363281 L2.77710938,17.1898437 L1.98242188,17.1898437 C0.889296875,17.1898437 0,18.0792969 0,19.1722656 L0,25.2903125 C0,27.5667187 1.85203125,29.41875 4.1284375,29.41875 L4.42289062,29.41875 C4.42289062,29.41875 3.78132812,31.144375 3.78085937,31.1457031 C3.37609375,32.2342969 4.20921875,33.4301562 5.36875,33.4301562 L6.31140625,33.4301562 C6.8390625,33.4301562 7.34414062,33.1789062 7.6625,32.7580469 L10.1883594,29.41875 L29.8117969,29.41875 L32.3376563,32.758125 C32.6560156,33.1789062 33.1610938,33.4301562 33.6886719,33.4301562 C33.6886719,33.4301562 34.6307031,33.4301562 34.63125,33.4301562 C35.7921875,33.4301562 36.6238281,32.2340625 36.2191406,31.1457031 L35.5770313,29.41875 L35.8715625,29.41875 C38.1479687,29.41875 40,27.5667187 40,25.2903125 L40,19.1722656 C40,18.0792969 39.1107031,17.1898437 38.0175781,17.1898437 Z M20.5859375,14.2364844 C20.5859375,13.1365625 21.4807031,12.2417969 22.5805469,12.2417969 L34.0564063,12.2417969 C35.15625,12.2417969 36.0510156,13.1365625 36.0510156,14.2364062 L36.0510156,17.1899219 C36.0510156,17.1899219 34.948125,17.1899219 34.9477344,17.1899219 C34.1686719,17.1899219 33.4213281,17.6899219 33.1191406,18.4072656 C33.0345313,18.608125 32.9838281,18.8239062 32.9696094,19.0413281 C32.9696094,19.0413281 23.2099219,19.0413281 23.2096094,19.0413281 C22.2447656,19.0413281 21.283125,19.4295312 20.5859375,20.0966406 L20.5859375,14.2364844 Z M7.0346875,20.213125 L16.7903906,20.213125 C18.2371094,20.2132031 19.4140625,21.3901562 19.4140625,22.836875 L19.4140625,23.6700781 L7.0346875,23.6700781 L7.0346875,20.213125 Z M6.72789063,32.0510937 C6.62976563,32.1808594 6.47398438,32.2582812 6.31132813,32.2582812 C6.31132813,32.2582812 5.37195313,32.2582812 5.36867188,32.2582812 C5.00992188,32.2582812 4.75421875,31.8902344 4.87921875,31.5541406 L5.673125,29.41875 L8.71890625,29.41875 L6.72789063,32.0510937 Z M34.63125,32.2582031 L33.6886719,32.2582031 C33.5260156,32.2582031 33.3703125,32.1807812 33.2721875,32.0510937 L31.2810938,29.41875 L34.326875,29.41875 C34.326875,29.41875 35.1180469,31.5466406 35.1207813,31.5540625 C35.2460156,31.8909375 34.9885156,32.2582031 34.63125,32.2582031 Z M35.8715625,28.246875 L4.1284375,28.246875 C2.49820312,28.2469531 1.171875,26.9205469 1.171875,25.2903125 L1.171875,19.1722656 C1.171875,18.7253125 1.53546875,18.3617187 1.98242188,18.3617187 L5.0521875,18.3617187 C5.49914063,18.3617187 5.86273438,18.7253125 5.86273438,19.1722656 L5.86273438,24.2559375 C5.86273438,24.5795312 6.12507813,24.841875 6.44867188,24.841875 L27.9703125,24.841875 C28.2939062,24.841875 28.55625,24.5795312 28.55625,24.2559375 C28.55625,23.9323437 28.2939062,23.67 27.9703125,23.67 L20.5859375,23.67 L20.5859375,22.8367969 C20.5859375,21.3900781 21.7628906,20.213125 23.2096094,20.213125 L32.9653125,20.213125 L32.9653125,23.6700781 L30.3140625,23.6700781 C29.9904687,23.6700781 29.728125,23.9324219 29.728125,24.2560156 C29.728125,24.5796094 29.9904687,24.8419531 30.3140625,24.8419531 L33.55125,24.8419531 C33.8748437,24.8419531 34.1371875,24.5796094 34.1371875,24.2560156 L34.1371875,19.1723437 C34.1371875,18.7253906 34.5007812,18.3617969 34.9477344,18.3617969 L38.0175,18.3617969 C38.4644531,18.3617969 38.8280469,18.7253906 38.8280469,19.1723437 L38.8280469,25.2903125 L38.828125,25.2903125 C38.828125,26.9205469 37.5017969,28.246875 35.8715625,28.246875 Z"></path>
            </mask>
            <path d="M38.0175781,17.1898437 L37.2228906,17.1898437 L37.2228906,14.2363281 C37.2228906,12.4903125 35.8024219,11.0698437 34.0564062,11.0698437 L22.5805469,11.0698437 C21.5167187,11.0698437 20.5744531,11.5977344 20,12.4046875 C19.4255469,11.5976562 18.4832813,11.0698437 17.4194531,11.0698437 L10.2099219,11.0698437 C9.88632813,11.0698437 9.62398438,11.3321875 9.62398438,11.6557812 C9.62398438,11.979375 9.88632813,12.2417187 10.2099219,12.2417187 L17.4194531,12.2417187 C18.5192969,12.2417187 19.4140625,13.1364844 19.4140625,14.2363281 L19.4140625,20.0964844 C19.4017969,20.0846875 19.3888281,20.0736719 19.3764062,20.0620312 C18.681875,19.4144531 17.7405469,19.0411719 16.7903906,19.0411719 L7.03039063,19.0411719 C6.97875,18.2544531 6.44242187,17.5625 5.70234375,17.3001562 C5.49382813,17.22625 5.27335938,17.1898437 5.0521875,17.1898437 L3.94898437,17.1898437 L3.94898437,14.2363281 C3.94898437,13.1364844 4.84375,12.2417187 5.94359375,12.2417187 L7.86617188,12.2417187 C8.18976562,12.2417187 8.45210938,11.979375 8.45210938,11.6557812 C8.45210938,11.3321875 8.18976562,11.0698437 7.86617188,11.0698437 L5.94359375,11.0698437 C4.19757812,11.0698437 2.77710938,12.4903125 2.77710938,14.2363281 L2.77710938,17.1898437 L1.98242188,17.1898437 C0.889296875,17.1898437 0,18.0792969 0,19.1722656 L0,25.2903125 C0,27.5667187 1.85203125,29.41875 4.1284375,29.41875 L4.42289062,29.41875 C4.42289062,29.41875 3.78132812,31.144375 3.78085937,31.1457031 C3.37609375,32.2342969 4.20921875,33.4301562 5.36875,33.4301562 L6.31140625,33.4301562 C6.8390625,33.4301562 7.34414062,33.1789062 7.6625,32.7580469 L10.1883594,29.41875 L29.8117969,29.41875 L32.3376563,32.758125 C32.6560156,33.1789062 33.1610938,33.4301562 33.6886719,33.4301562 C33.6886719,33.4301562 34.6307031,33.4301562 34.63125,33.4301562 C35.7921875,33.4301562 36.6238281,32.2340625 36.2191406,31.1457031 L35.5770313,29.41875 L35.8715625,29.41875 C38.1479687,29.41875 40,27.5667187 40,25.2903125 L40,19.1722656 C40,18.0792969 39.1107031,17.1898437 38.0175781,17.1898437 Z M20.5859375,14.2364844 C20.5859375,13.1365625 21.4807031,12.2417969 22.5805469,12.2417969 L34.0564063,12.2417969 C35.15625,12.2417969 36.0510156,13.1365625 36.0510156,14.2364062 L36.0510156,17.1899219 C36.0510156,17.1899219 34.948125,17.1899219 34.9477344,17.1899219 C34.1686719,17.1899219 33.4213281,17.6899219 33.1191406,18.4072656 C33.0345313,18.608125 32.9838281,18.8239062 32.9696094,19.0413281 C32.9696094,19.0413281 23.2099219,19.0413281 23.2096094,19.0413281 C22.2447656,19.0413281 21.283125,19.4295312 20.5859375,20.0966406 L20.5859375,14.2364844 Z M7.0346875,20.213125 L16.7903906,20.213125 C18.2371094,20.2132031 19.4140625,21.3901562 19.4140625,22.836875 L19.4140625,23.6700781 L7.0346875,23.6700781 L7.0346875,20.213125 Z M6.72789063,32.0510937 C6.62976563,32.1808594 6.47398438,32.2582812 6.31132813,32.2582812 C6.31132813,32.2582812 5.37195313,32.2582812 5.36867188,32.2582812 C5.00992188,32.2582812 4.75421875,31.8902344 4.87921875,31.5541406 L5.673125,29.41875 L8.71890625,29.41875 L6.72789063,32.0510937 Z M34.63125,32.2582031 L33.6886719,32.2582031 C33.5260156,32.2582031 33.3703125,32.1807812 33.2721875,32.0510937 L31.2810938,29.41875 L34.326875,29.41875 C34.326875,29.41875 35.1180469,31.5466406 35.1207813,31.5540625 C35.2460156,31.8909375 34.9885156,32.2582031 34.63125,32.2582031 Z M35.8715625,28.246875 L4.1284375,28.246875 C2.49820312,28.2469531 1.171875,26.9205469 1.171875,25.2903125 L1.171875,19.1722656 C1.171875,18.7253125 1.53546875,18.3617187 1.98242188,18.3617187 L5.0521875,18.3617187 C5.49914063,18.3617187 5.86273438,18.7253125 5.86273438,19.1722656 L5.86273438,24.2559375 C5.86273438,24.5795312 6.12507813,24.841875 6.44867188,24.841875 L27.9703125,24.841875 C28.2939062,24.841875 28.55625,24.5795312 28.55625,24.2559375 C28.55625,23.9323437 28.2939062,23.67 27.9703125,23.67 L20.5859375,23.67 L20.5859375,22.8367969 C20.5859375,21.3900781 21.7628906,20.213125 23.2096094,20.213125 L32.9653125,20.213125 L32.9653125,23.6700781 L30.3140625,23.6700781 C29.9904687,23.6700781 29.728125,23.9324219 29.728125,24.2560156 C29.728125,24.5796094 29.9904687,24.8419531 30.3140625,24.8419531 L33.55125,24.8419531 C33.8748437,24.8419531 34.1371875,24.5796094 34.1371875,24.2560156 L34.1371875,19.1723437 C34.1371875,18.7253906 34.5007812,18.3617969 34.9477344,18.3617969 L38.0175,18.3617969 C38.4644531,18.3617969 38.8280469,18.7253906 38.8280469,19.1723437 L38.8280469,25.2903125 L38.828125,25.2903125 C38.828125,26.9205469 37.5017969,28.246875 35.8715625,28.246875 Z" fill="#000000" fill-rule="nonzero"></path>
        </g>
    </g>
</svg>
