<?xml version="1.0" encoding="UTF-8"?>
<svg width="38px" height="36px" viewBox="0 0 38 36" version="1.1" xmlns="http://www.w3.org/2000/svg" xmlns:xlink="http://www.w3.org/1999/xlink">
    <!-- Generator: Sketch 49.3 (51167) - http://www.bohemiancoding.com/sketch -->
    <title>filter-category-7</title>
    <desc>Created with Sketch.</desc>
    <g id="Symbols" stroke="none" stroke-width="1" fill="none" fill-rule="evenodd">
        <g id="Elements-/-Sort-/-Card-/-~Parts-/-Icon_07" transform="translate(-1.000000, -2.000000)">
            <mask id="mask-2" fill="white">
                <path d="M23.8,23.4737474 C24.1502333,23.4737474 24.4333333,23.7566947 24.4333333,24.1053263 C24.4333333,24.4539579 24.1502333,24.7369053 23.8,24.7369053 L7.33333333,24.7369053 C6.9831,24.7369053 6.7,24.4539579 6.7,24.1053263 C6.7,23.7566947 6.9831,23.4737474 7.33333333,23.4737474 L23.8,23.4737474 Z M7.33333333,17.1579579 C6.9831,17.1579579 6.7,16.8750105 6.7,16.5263789 C6.7,16.1777474 6.9831,15.8948 7.33333333,15.8948 L15.5666667,15.8948 C15.9169,15.8948 16.2,16.1777474 16.2,16.5263789 C16.2,16.8750105 15.9169,17.1579579 15.5666667,17.1579579 L7.33333333,17.1579579 Z M23.8,19.6842737 C24.1502333,19.6842737 24.4333333,19.9672211 24.4333333,20.3158526 C24.4333333,20.6644842 24.1502333,20.9474316 23.8,20.9474316 L7.33333333,20.9474316 C6.9831,20.9474316 6.7,20.6644842 6.7,20.3158526 C6.7,19.9672211 6.9831,19.6842737 7.33333333,19.6842737 L23.8,19.6842737 Z M37.7333333,19.7733895 C37.7333333,21.1420211 36.6167667,22.2548632 35.2443333,22.2548632 L33.9333333,22.2548632 C33.5831,22.2548632 33.3,22.5371789 33.3,22.8864421 L33.3,28.2005474 L30.1333333,24.7268632 L30.1333333,13.3243368 C30.1333333,11.2590737 28.4486667,9.57907368 26.3764,9.57907368 L11.1333333,9.61002105 L11.1333333,6.37633684 C11.1333333,5.00770526 12.2499,3.89423158 13.6210667,3.89423158 L35.2437,3.93844211 L35.2449667,3.93844211 C36.6174,3.93844211 37.7339667,5.05191579 37.7339667,6.42054737 L37.7339667,19.7733895 L37.7333333,19.7733895 Z M28.8666667,26.6765474 C28.8666667,28.0451789 27.7501,29.1580211 26.3751333,29.1580211 L15.5641333,29.2022316 C15.3868,29.2028632 15.2170667,29.2773895 15.098,29.4081263 L9.86666667,35.1479158 L9.86666667,29.8338105 C9.86666667,29.4845474 9.58356667,29.2022316 9.23333333,29.2022316 L4.75566667,29.2022316 C3.38323333,29.2022316 2.26666667,28.0887579 2.26666667,26.7207579 L2.26666667,13.3685474 C2.26666667,11.9999158 3.38323333,10.8864421 4.75693333,10.8864421 L10.5,10.8744421 L10.5012667,10.8744421 L26.3776667,10.8416 C27.7501,10.8416 28.8666667,11.9550737 28.8666667,13.3237053 L28.8666667,24.9706526 L28.8666667,26.6765474 Z M35.2456,2.67591579 L13.6223333,2.63170526 C11.5513333,2.63170526 9.86666667,4.31170526 9.86666667,6.37696842 L9.86666667,9.61317895 L4.75566667,9.62391579 C2.68466667,9.62391579 1,11.3039158 1,13.3691789 L1,26.7207579 C1,28.7866526 2.68466667,30.4660211 4.75566667,30.4660211 L8.6,30.4660211 L8.6,36.7818105 C8.6,37.0426526 8.76086667,37.2763368 9.00533333,37.3710737 C9.07943333,37.3994947 9.1567,37.4133895 9.23333333,37.4133895 C9.40813333,37.4133895 9.57976667,37.3407579 9.702,37.2068632 L15.8478667,30.4647579 L26.3776667,30.4218105 C28.4486667,30.4218105 30.1333333,28.7418105 30.1333333,26.6771789 L30.1333333,26.6058105 L33.4646667,30.2601263 C33.5869,30.3940211 33.7585333,30.4666526 33.9333333,30.4666526 C34.0099667,30.4666526 34.0872333,30.4527579 34.1613333,30.4243368 C34.4058,30.3296 34.5666667,30.0959158 34.5666667,29.8350737 L34.5666667,23.5192842 L35.2443333,23.5192842 C37.3153333,23.5192842 39,21.8392842 39,19.7746526 L39,6.42117895 C39,4.35654737 37.3159667,2.67654737 35.2456,2.67591579 Z"></path>
            </mask>
            <path d="M23.8,23.4737474 C24.1502333,23.4737474 24.4333333,23.7566947 24.4333333,24.1053263 C24.4333333,24.4539579 24.1502333,24.7369053 23.8,24.7369053 L7.33333333,24.7369053 C6.9831,24.7369053 6.7,24.4539579 6.7,24.1053263 C6.7,23.7566947 6.9831,23.4737474 7.33333333,23.4737474 L23.8,23.4737474 Z M7.33333333,17.1579579 C6.9831,17.1579579 6.7,16.8750105 6.7,16.5263789 C6.7,16.1777474 6.9831,15.8948 7.33333333,15.8948 L15.5666667,15.8948 C15.9169,15.8948 16.2,16.1777474 16.2,16.5263789 C16.2,16.8750105 15.9169,17.1579579 15.5666667,17.1579579 L7.33333333,17.1579579 Z M23.8,19.6842737 C24.1502333,19.6842737 24.4333333,19.9672211 24.4333333,20.3158526 C24.4333333,20.6644842 24.1502333,20.9474316 23.8,20.9474316 L7.33333333,20.9474316 C6.9831,20.9474316 6.7,20.6644842 6.7,20.3158526 C6.7,19.9672211 6.9831,19.6842737 7.33333333,19.6842737 L23.8,19.6842737 Z M37.7333333,19.7733895 C37.7333333,21.1420211 36.6167667,22.2548632 35.2443333,22.2548632 L33.9333333,22.2548632 C33.5831,22.2548632 33.3,22.5371789 33.3,22.8864421 L33.3,28.2005474 L30.1333333,24.7268632 L30.1333333,13.3243368 C30.1333333,11.2590737 28.4486667,9.57907368 26.3764,9.57907368 L11.1333333,9.61002105 L11.1333333,6.37633684 C11.1333333,5.00770526 12.2499,3.89423158 13.6210667,3.89423158 L35.2437,3.93844211 L35.2449667,3.93844211 C36.6174,3.93844211 37.7339667,5.05191579 37.7339667,6.42054737 L37.7339667,19.7733895 L37.7333333,19.7733895 Z M28.8666667,26.6765474 C28.8666667,28.0451789 27.7501,29.1580211 26.3751333,29.1580211 L15.5641333,29.2022316 C15.3868,29.2028632 15.2170667,29.2773895 15.098,29.4081263 L9.86666667,35.1479158 L9.86666667,29.8338105 C9.86666667,29.4845474 9.58356667,29.2022316 9.23333333,29.2022316 L4.75566667,29.2022316 C3.38323333,29.2022316 2.26666667,28.0887579 2.26666667,26.7207579 L2.26666667,13.3685474 C2.26666667,11.9999158 3.38323333,10.8864421 4.75693333,10.8864421 L10.5,10.8744421 L10.5012667,10.8744421 L26.3776667,10.8416 C27.7501,10.8416 28.8666667,11.9550737 28.8666667,13.3237053 L28.8666667,24.9706526 L28.8666667,26.6765474 Z M35.2456,2.67591579 L13.6223333,2.63170526 C11.5513333,2.63170526 9.86666667,4.31170526 9.86666667,6.37696842 L9.86666667,9.61317895 L4.75566667,9.62391579 C2.68466667,9.62391579 1,11.3039158 1,13.3691789 L1,26.7207579 C1,28.7866526 2.68466667,30.4660211 4.75566667,30.4660211 L8.6,30.4660211 L8.6,36.7818105 C8.6,37.0426526 8.76086667,37.2763368 9.00533333,37.3710737 C9.07943333,37.3994947 9.1567,37.4133895 9.23333333,37.4133895 C9.40813333,37.4133895 9.57976667,37.3407579 9.702,37.2068632 L15.8478667,30.4647579 L26.3776667,30.4218105 C28.4486667,30.4218105 30.1333333,28.7418105 30.1333333,26.6771789 L30.1333333,26.6058105 L33.4646667,30.2601263 C33.5869,30.3940211 33.7585333,30.4666526 33.9333333,30.4666526 C34.0099667,30.4666526 34.0872333,30.4527579 34.1613333,30.4243368 C34.4058,30.3296 34.5666667,30.0959158 34.5666667,29.8350737 L34.5666667,23.5192842 L35.2443333,23.5192842 C37.3153333,23.5192842 39,21.8392842 39,19.7746526 L39,6.42117895 C39,4.35654737 37.3159667,2.67654737 35.2456,2.67591579 Z" fill="#000000"></path>
        </g>
    </g>
</svg>
