<?xml version="1.0" encoding="UTF-8"?>
<svg width="40px" height="33px" viewBox="0 0 40 33" version="1.1" xmlns="http://www.w3.org/2000/svg" xmlns:xlink="http://www.w3.org/1999/xlink">
    <!-- Generator: Sketch 49.3 (51167) - http://www.bohemiancoding.com/sketch -->
    <title>filter-category-14</title>
    <desc>Created with Sketch.</desc>
    <g id="Symbols" stroke="none" stroke-width="1" fill="none" fill-rule="evenodd">
        <g id="Elements-/-Sort-/-Card-/-~Parts-/-Icon_13" transform="translate(0.000000, -4.000000)">
            <mask id="mask-2" fill="white">
                <path d="M35.9751267,5.73247563 C35.6835088,5.54081871 35.29154,5.6219883 35.099883,5.91376218 C34.9082261,6.20553606 34.9893957,6.59734893 35.2811696,6.78900585 C36.9998441,7.91789474 38.1090838,9.53107212 38.5001949,11.428538 C38.2140351,11.2120858 37.8848343,10.988538 37.5175049,10.7801949 C35.6479532,9.71976608 33.6844444,9.5539961 31.8389864,10.3004288 C29.2489669,11.3482261 27.968499,10.7728655 27.2304873,10.248655 C27.0249513,10.102924 26.8247173,9.93169591 26.6183236,9.72522417 C26.37154,9.4782846 25.971384,9.47820663 25.7245224,9.72506823 C25.4776608,9.97177388 25.4775828,10.3720078 25.7243665,10.6187914 C25.8367251,10.7311501 25.9483821,10.834386 26.0604288,10.9320078 C25.3946979,11.8584016 23.837115,12.2670565 22.9184405,12.3981287 C22.5689669,11.7138402 21.8968421,10.1269396 22.4397661,8.90518519 C23.628694,6.23001949 27.2965302,5.28077973 30.0760234,5.28077973 C31.3952437,5.28077973 32.7169591,5.54682261 33.8980117,6.05013645 C34.2194932,6.18697856 34.5904094,6.03750487 34.7272515,5.71641326 C34.8640936,5.39524366 34.7147758,5.02409357 34.3936062,4.88717349 C33.057076,4.31766082 31.5641326,4.01668616 30.0760234,4.01668616 C25.0278363,4.01668616 22.2247173,6.27664717 21.2846784,8.39173489 C20.4409357,10.2901365 21.5461988,12.5437037 21.919922,13.2138791 L21.8687719,13.7432359 C20.7403509,13.888499 19.8653411,14.8546589 19.8653411,16.0220663 C19.8653411,17.0379727 20.52,17.9009747 21.4388304,18.2042105 C21.2517739,20.3079142 22.1930604,22.3810526 23.9035478,23.6239376 L24.0373489,23.7211696 C22.1294347,24.6038986 20.8430409,26.5369981 20.8430409,28.7164912 L20.8430409,36.2558285 C20.8430409,36.6049123 21.1259259,36.8878752 21.4750877,36.8878752 L37.7598441,36.8878752 C38.1090058,36.8878752 38.3918908,36.6049123 38.3918908,36.2558285 L38.3918908,28.7165692 C38.3918908,27.6335283 38.0774269,26.5853411 37.4821832,25.6852242 C37.2897466,25.3940741 36.8976218,25.3140741 36.6063938,25.5065887 C36.3152437,25.6991033 36.2352437,26.0912281 36.4278363,26.3823782 C36.885848,27.0750877 37.1278752,27.8821832 37.1278752,28.7166472 L37.1278752,32.1242105 L35.2368811,32.1242105 L35.2368811,29.7564133 C35.2368811,29.4073294 34.9539961,29.1243665 34.6048343,29.1243665 C34.2556725,29.1243665 33.9727875,29.4073294 33.9727875,29.7564133 L33.9727875,35.6239376 L25.2625341,35.6239376 L25.2625341,29.7564133 C25.2625341,29.4073294 24.9796491,29.1243665 24.6304873,29.1243665 C24.2813255,29.1243665 23.9984405,29.4073294 23.9984405,29.7564133 L23.9984405,32.1242105 L22.1073684,32.1242105 L22.1073684,28.7166472 C22.1073684,27.057154 23.0748538,25.5830019 24.5157115,24.8925536 C24.6099805,25.4591813 24.797271,26.0084211 25.0716569,26.5125146 C25.1863548,26.7231969 25.4033528,26.8424951 25.6274464,26.8424951 C25.7295127,26.8424951 25.8330604,26.8176998 25.9290448,26.7654581 C26.2356335,26.5985965 26.3487719,26.2147368 26.1819883,25.9082261 C26.0307212,25.6303314 25.9147758,25.3339571 25.8353216,25.0270565 L26.8355556,25.7536842 C27.6675244,26.3586745 28.6423392,26.6610526 29.6176218,26.6610526 C30.5925146,26.6610526 31.5677973,26.3585965 32.399922,25.7538402 L33.4017934,25.0261209 C32.9645224,26.7070565 31.4340741,27.9516569 29.6182456,27.9516569 C28.722807,27.9516569 27.8805458,27.657232 27.1824561,27.1001949 C26.9096296,26.8824951 26.5118129,26.9272515 26.294269,27.200078 C26.0764912,27.4729825 26.1212476,27.8706433 26.394152,28.0883431 C27.3053411,28.8153606 28.4503704,29.2156725 29.6183236,29.2156725 C32.1812865,29.2156725 34.3136842,27.3417544 34.7204678,24.8924756 C34.9069006,24.9819883 35.0872515,25.0853021 35.2608967,25.2026511 C35.3694347,25.2760234 35.4925536,25.3112671 35.614425,25.3112671 C35.817154,25.3112671 36.0163743,25.2138791 36.1385575,25.0332943 C36.3340351,24.7441715 36.2582456,24.3511891 35.9691228,24.1557115 C35.7224951,23.9889279 35.4648733,23.8446004 35.1983626,23.7211696 L35.3320078,23.6240936 C37.0426511,22.3811306 37.9838596,20.3078363 37.7966472,18.2041326 C38.7151657,17.9005848 39.3695127,17.0378168 39.3695127,16.0223002 C39.3695127,14.8553606 38.4948928,13.8894347 37.3667057,13.7437037 L37.2959064,13.0106043 C37.2624561,12.6630799 36.9535283,12.4090448 36.6060819,12.4421832 C36.2586355,12.4757115 36.0041326,12.7845614 36.0377388,13.1320078 L36.5348148,18.2803119 C36.6967641,19.9559454 35.9511111,21.6116959 34.5890058,22.6014035 L31.6569201,24.7312281 C30.4368811,25.6178558 28.7982066,25.6178558 27.5787914,24.7311501 L24.6468616,22.6013255 C23.2846784,21.61154 22.5389474,19.9557895 22.7008967,18.280078 L23.1490058,13.6394542 C24.1169591,13.4933333 26.1307602,13.0306433 27.1051072,11.6463158 C28.5282651,12.3694347 30.2402339,12.3105653 32.3131384,11.4719688 C33.7978168,10.8712671 35.3278752,11.0019493 36.8604288,11.8605068 C38.0519298,12.5277973 38.7990643,13.4034308 38.805614,13.4112281 C38.9280312,13.5573489 39.1067446,13.6373489 39.2901365,13.6373489 C39.3623392,13.6373489 39.4353996,13.6249513 39.5060429,13.5992982 C39.7557895,13.50846 39.9221053,13.2710331 39.9221053,13.0053801 C39.9220273,9.98705653 38.5203119,7.40405458 35.9751267,5.73247563 Z M21.5673294,16.8683041 C21.3018324,16.6808577 21.1297466,16.3716959 21.1297466,16.0221442 C21.1297466,15.602963 21.3808187,15.2421053 21.740117,15.0797661 L21.5673294,16.8683041 Z M35.237037,33.3881481 L37.1280312,33.3881481 L37.1280312,35.6238596 L35.237037,35.6238596 L35.237037,33.3881481 Z M23.9985185,33.3881481 L23.9985185,35.6238596 L22.1074464,35.6238596 L22.1074464,33.3881481 L23.9985185,33.3881481 Z M38.1051852,16.0221442 C38.1051852,16.371384 37.9332554,16.6803119 37.6680702,16.8676803 L37.4955166,15.0801559 C37.854425,15.242729 38.1051852,15.6033528 38.1051852,16.0221442 Z M19.8551267,17.3470565 C19.8551267,16.5010526 19.3762183,15.7650682 18.6753996,15.3946979 L19.4954386,14.2697856 C19.8782066,13.7447953 19.9494737,13.0767251 19.6861598,12.482729 C19.422846,11.8887329 18.8798441,11.4930214 18.2337622,11.4241715 C17.8873294,11.3872904 17.5753606,11.6384405 17.5384016,11.985653 C17.5014425,12.3327875 17.7526706,12.6440546 18.099883,12.6810136 C18.3761404,12.7104873 18.4931774,12.9104873 18.5306823,12.9950877 C18.5681871,13.0796881 18.6378168,13.3007407 18.474152,13.5252242 L17.1051072,15.4031969 C16.9414425,15.6276023 16.7098635,15.6289279 16.6177778,15.6192593 C16.52577,15.6095127 16.2995712,15.5591423 16.1869786,15.3052632 L15.2212086,13.1270955 C15.437037,12.9339571 15.6116959,12.6961404 15.7312281,12.4283041 L16.3754386,12.4969981 C16.3982846,12.4994152 16.4208967,12.5006628 16.4432749,12.5006628 C16.7622612,12.5006628 17.0363353,12.259883 17.0708772,11.9356725 C17.1078363,11.588538 16.8566082,11.277193 16.5094737,11.2402339 L15.8661209,11.1716179 C15.671423,10.2364133 14.8410916,9.53153996 13.8489669,9.53153996 C13.7757505,9.53153996 13.7035478,9.53551657 13.6322027,9.54300195 L12.6665107,7.36584795 C12.4031189,6.7720078 11.860117,6.3762963 11.2141131,6.30752437 C10.5678752,6.23844055 9.9539961,6.51103314 9.57130604,7.03610136 L8.20241715,8.91438596 C7.8197271,9.43945419 7.74853801,10.1075244 8.0120078,10.7014425 C8.27532164,11.2953606 8.81840156,11.6910721 9.46448343,11.759922 L11.8317349,12.0121637 C11.865809,12.1758285 11.9192982,12.3324756 11.9897076,12.4794542 C10.3852632,14.0525536 7.66518519,15.5932164 3.51547758,14.6639376 C4.10019493,12.8024172 5.47680312,11.2591813 7.31220273,10.482963 C7.63368421,10.3470565 7.78409357,9.97614035 7.64810916,9.65465887 C7.51212476,9.33317739 7.14128655,9.18269006 6.81980507,9.31875244 C4.36335283,10.3575828 2.59898635,12.5532164 2.09208577,15.1430019 C0.92834308,15.202963 -1.77635684e-14,16.1687329 -1.77635684e-14,17.3471345 C-1.77635684e-14,18.3531384 0.668304094,19.2032749 1.5939961,19.46846 C1.46526316,21.6240156 2.44615984,23.7189864 4.20405458,24.9960234 L4.70346979,25.3588304 C2.85231969,26.1846394 1.59945419,28.0436647 1.59945419,30.1420663 L1.59945419,31.5125926 C1.59945419,31.8615984 1.88241715,32.1446394 2.23150097,32.1446394 C2.5805848,32.1446394 2.86354776,31.8616764 2.86354776,31.5125926 L2.86354776,30.1420663 C2.86354776,28.6026511 3.75173489,27.2329045 5.07945419,26.5778558 C5.4851462,28.8874074 7.50424951,30.6483431 9.92826511,30.6483431 C11.9115789,30.6483431 13.6925536,29.4678363 14.4654971,27.6407797 C14.6014815,27.3193762 14.4511501,26.948538 14.1296686,26.8124756 C13.8083431,26.6764912 13.4373489,26.8267446 13.3013645,27.1483041 C12.7267057,28.5066667 11.402729,29.3842495 9.92826511,29.3842495 C8.20124756,29.3842495 6.75079922,28.1818324 6.3677193,26.5677193 L7.08382066,27.0880312 C7.93442495,27.7060429 8.93122807,28.0150487 9.92803119,28.0150487 C10.9248343,28.0150487 11.9216374,27.7060429 12.7722417,27.0880312 L13.900117,26.268616 C15.6987135,26.674308 16.9925146,28.2842105 16.9925146,30.1419103 L16.9925146,35.6237817 L15.27423,35.6237817 L15.27423,31.1247563 C15.27423,30.7757505 14.9912671,30.4927096 14.6421832,30.4927096 C14.2930994,30.4927096 14.0101365,30.7756725 14.0101365,31.1247563 L14.0101365,35.6237817 L5.84569201,35.6237817 L5.84569201,31.1247563 C5.84569201,30.7757505 5.56272904,30.4927096 5.21364522,30.4927096 C4.8645614,30.4927096 4.58159844,30.7756725 4.58159844,31.1247563 L4.58159844,35.6237817 L2.86339181,35.6237817 L2.86339181,33.8241715 C2.86339181,33.4751657 2.58042885,33.1921248 2.23134503,33.1921248 C1.88226121,33.1921248 1.59929825,33.4750877 1.59929825,33.8241715 L1.59929825,36.2558285 C1.59929825,36.6048343 1.88226121,36.8878752 2.23134503,36.8878752 L17.6243275,36.8878752 C17.9733333,36.8878752 18.2563743,36.6049123 18.2563743,36.2558285 L18.2563743,30.1419883 C18.2563743,28.0435088 17.0034308,26.1845614 15.1523587,25.3587524 L15.6516179,24.9959454 C17.4096686,23.7186745 18.3905653,21.6237037 18.2616764,19.4679922 C19.1871345,19.2023392 19.8551267,18.3525926 19.8551267,17.3470565 Z M1.72951267,18.1616374 C1.44998051,17.9978168 1.26401559,17.694191 1.26401559,17.3471345 C1.26401559,16.9276413 1.5394152,16.5716959 1.91875244,16.4495127 L1.72951267,18.1616374 Z M13.8488109,10.7956335 C14.2878752,10.7956335 14.6451462,11.1528265 14.6451462,11.5919688 C14.6451462,12.0311111 14.2879532,12.3883041 13.8488109,12.3883041 C13.4096686,12.3883041 13.0524756,12.0311111 13.0524756,11.5919688 C13.0524756,11.1528265 13.4096686,10.7956335 13.8488109,10.7956335 Z M11.9666277,10.7553216 L9.5982846,10.5030019 C9.32202729,10.4736062 9.20499025,10.2736062 9.16740741,10.1890058 C9.12982456,10.1044055 9.0602729,9.8834308 9.22385965,9.6588694 L10.5927485,7.78050682 C10.7564133,7.55602339 10.9881481,7.55461988 11.080078,7.56444444 C11.1720858,7.57419103 11.3982846,7.62440546 11.5109552,7.87844055 L12.477037,10.0564522 C12.2610526,10.2495127 12.0862378,10.4874074 11.9666277,10.7553216 Z M14.908616,23.9734113 L12.0291618,26.065575 C10.7722417,26.9787914 9.08335283,26.9787135 7.82658869,26.065575 L4.94705653,23.9734113 C3.46923977,22.8997271 2.67594542,21.1047953 2.87664717,19.2892788 L3.24717349,15.937232 C3.24849903,15.9249123 3.25044834,15.9128265 3.25192982,15.9005848 C4.22495127,16.1184405 5.13044834,16.2169981 5.9694347,16.2169981 C8.35173489,16.2169981 10.2045224,15.4385965 11.5961014,14.4529435 C11.9607797,14.8975439 12.5695906,15.5184405 13.4392203,16.0184795 C13.7678752,16.2074854 14.1876803,16.0723587 14.3387914,15.7246004 C14.4677583,15.4279922 14.3502534,15.0841326 14.0700975,14.922729 C13.3667057,14.5175828 12.871345,14.0105263 12.5812086,13.6591813 C12.6765692,13.5723197 12.7688889,13.4850682 12.8582456,13.3976608 C13.1524366,13.5596881 13.4900585,13.6522417 13.8490448,13.6522417 C13.9223392,13.6522417 13.9948538,13.6481871 14.0661988,13.6407018 L15.031501,15.8176218 C15.2948148,16.411462 15.8378168,16.8071735 16.4838207,16.8761014 C16.5499415,16.8831189 16.6155945,16.8866277 16.6809357,16.8866277 C16.6919298,16.8866277 16.702768,16.885848 16.7136842,16.885692 L16.9794152,19.2891228 C17.179883,21.1047953 16.3865107,22.8996491 14.908616,23.9734113 Z M18.1261598,18.1610916 L17.9369981,16.4499025 C18.3160234,16.5723977 18.5911111,16.9281092 18.5911111,17.3471345 C18.5911111,17.6938012 18.4053801,17.997193 18.1261598,18.1610916 Z M26.4379727,16.6123977 C26.7870565,16.6123977 27.0699415,16.8953606 27.0700195,17.2444444 L27.0700195,18.1012086 C27.0700195,18.4502924 26.7871345,18.7332554 26.4379727,18.7332554 C26.0888109,18.7332554 25.8059259,18.4502924 25.8059259,18.1012086 L25.8059259,17.2444444 C25.8059259,16.8953606 26.0888109,16.6123977 26.4379727,16.6123977 Z M34.4687719,14.7262378 C34.7155556,14.9730994 34.7155556,15.3732554 34.468538,15.620039 C34.3451852,15.7433918 34.1833918,15.8050682 34.0216764,15.8050682 C33.859883,15.8050682 33.6981676,15.7433918 33.5746589,15.620039 C33.3670175,15.4123197 33.0906823,15.2978558 32.7969591,15.2978558 C32.5032359,15.2978558 32.2269786,15.4123197 32.0192593,15.620039 C31.7724756,15.8667446 31.3722417,15.8669006 31.1255361,15.620039 C30.8786745,15.3732554 30.8786745,14.9730214 31.1254581,14.7262378 C31.5720078,14.2797661 32.165692,14.0338402 32.797115,14.0338402 C33.428538,14.0338402 34.0222222,14.2796881 34.4687719,14.7262378 Z M28.1095517,14.7262378 C28.3564133,14.9730994 28.3564133,15.3732554 28.1093177,15.620039 C27.9859649,15.7433918 27.8241715,15.8050682 27.6624561,15.8050682 C27.5006628,15.8050682 27.3389474,15.7433918 27.2154386,15.619883 C27.0077973,15.4121637 26.73154,15.2976998 26.4377388,15.2976998 C26.1439376,15.2976998 25.8676803,15.4121637 25.659883,15.619961 C25.4131774,15.8667446 25.0130214,15.8667446 24.7661598,15.619961 C24.5192982,15.3731774 24.5192982,14.9730214 24.7662378,14.7262378 C25.2127875,14.2797661 25.8064717,14.0338402 26.4378947,14.0338402 C27.0693177,14.0338402 27.6630019,14.2796881 28.1095517,14.7262378 Z M32.797115,16.6123977 C33.1461988,16.6123977 33.4291618,16.8953606 33.4291618,17.2444444 L33.4291618,18.1012086 C33.4291618,18.4502924 33.1462768,18.7332554 32.797115,18.7332554 C32.4479532,18.7332554 32.1650682,18.4502924 32.1650682,18.1012086 L32.1650682,17.2444444 C32.1650682,16.8953606 32.4479532,16.6123977 32.797115,16.6123977 Z M31.4532554,21.4937232 C31.700117,21.7404288 31.700117,22.1406628 31.4531774,22.3874464 C30.9469786,22.8935673 30.2822612,23.1465887 29.6173879,23.1465887 C28.9525926,23.1465887 28.2877973,22.8935673 27.7816764,22.3874464 C27.5348928,22.1407407 27.5348928,21.7405848 27.7816764,21.4937232 C28.028538,21.2469396 28.428616,21.2469396 28.6755556,21.4937232 C29.1948538,22.0130994 30.040078,22.0130994 30.5593762,21.4937232 C30.8062378,21.2469396 31.2063158,21.2469396 31.4532554,21.4937232 Z M30.1532164,16.6838207 C30.5023002,16.6838207 30.7851852,16.9667836 30.7852632,17.3159454 L30.7852632,19.4586355 C30.7852632,19.8077193 30.5023782,20.0906823 30.1532164,20.0906823 L29.0818713,20.0906823 C28.7327096,20.0906823 28.4498246,19.8077193 28.4498246,19.4586355 C28.4498246,19.1095517 28.7327875,18.8265887 29.0818713,18.8265887 L29.5211696,18.8265887 L29.5211696,17.3158674 C29.5211696,16.9667836 29.8040546,16.6838207 30.1532164,16.6838207 Z M14.5376218,18.6310331 C14.7844055,18.8777388 14.7844055,19.2779727 14.5375439,19.5247563 C14.414191,19.6481871 14.2523977,19.7098635 14.0906823,19.7098635 C13.9289669,19.7098635 13.7671735,19.6481092 13.6438207,19.5247563 C13.4539571,19.3348928 13.2014815,19.2303314 12.9330214,19.2303314 C12.6645614,19.2303314 12.4120858,19.3348928 12.2222222,19.5247563 C11.9755166,19.77154 11.5752827,19.77154 11.328499,19.5247563 C11.0816374,19.2780507 11.0816374,18.8778168 11.328499,18.6310331 C11.757115,18.2024172 12.3270175,17.9663938 12.9331774,17.9663938 C13.5391813,17.9663938 14.1090838,18.2024172 14.5376218,18.6310331 Z M8.52670565,18.6310331 C8.77356725,18.8777388 8.77356725,19.2779727 8.52662768,19.5247563 C8.40327485,19.6481871 8.24140351,19.7098635 8.07968811,19.7098635 C7.91797271,19.7098635 7.75617934,19.6481092 7.63282651,19.5247563 C7.44296296,19.3348928 7.19048733,19.2303314 6.92202729,19.2303314 C6.65356725,19.2303314 6.40109162,19.3348928 6.21122807,19.5247563 C5.96452242,19.77154 5.56436647,19.77154 5.31750487,19.5247563 C5.07064327,19.2780507 5.07064327,18.8778168 5.31750487,18.6310331 C5.74612086,18.2024172 6.31602339,17.9663938 6.92218324,17.9663938 C7.52818713,17.9663938 8.09808967,18.2024172 8.52670565,18.6310331 Z M11.6874074,22.7775439 C11.934191,23.0243275 11.934191,23.4244834 11.6874854,23.6712671 C11.2174659,24.1412865 10.5925146,24.4001559 9.92779727,24.4001559 C9.26307992,24.4001559 8.63812865,24.1412865 8.16810916,23.6712671 C7.92124756,23.4245614 7.92124756,23.0244055 8.16810916,22.7775439 C8.41481481,22.5307602 8.81497076,22.5307602 9.06183236,22.7775439 C9.53925926,23.2550487 10.3161014,23.2551267 10.7936062,22.7775439 C11.0403899,22.5307602 11.4406238,22.5307602 11.6874074,22.7775439 Z M10.3554776,20.0203509 C10.7044834,20.0203509 10.9874464,20.3033138 10.9875244,20.6523977 C10.9875244,21.0014815 10.7044834,21.2844444 10.3554776,21.2844444 L9.50035088,21.2844444 C9.15126706,21.2844444 8.86830409,21.0014035 8.86830409,20.6523977 C8.86830409,20.3033138 9.15134503,20.0203509 9.50035088,20.0203509 L10.3554776,20.0203509 Z"></path>
            </mask>
            <path d="M35.9751267,5.73247563 C35.6835088,5.54081871 35.29154,5.6219883 35.099883,5.91376218 C34.9082261,6.20553606 34.9893957,6.59734893 35.2811696,6.78900585 C36.9998441,7.91789474 38.1090838,9.53107212 38.5001949,11.428538 C38.2140351,11.2120858 37.8848343,10.988538 37.5175049,10.7801949 C35.6479532,9.71976608 33.6844444,9.5539961 31.8389864,10.3004288 C29.2489669,11.3482261 27.968499,10.7728655 27.2304873,10.248655 C27.0249513,10.102924 26.8247173,9.93169591 26.6183236,9.72522417 C26.37154,9.4782846 25.971384,9.47820663 25.7245224,9.72506823 C25.4776608,9.97177388 25.4775828,10.3720078 25.7243665,10.6187914 C25.8367251,10.7311501 25.9483821,10.834386 26.0604288,10.9320078 C25.3946979,11.8584016 23.837115,12.2670565 22.9184405,12.3981287 C22.5689669,11.7138402 21.8968421,10.1269396 22.4397661,8.90518519 C23.628694,6.23001949 27.2965302,5.28077973 30.0760234,5.28077973 C31.3952437,5.28077973 32.7169591,5.54682261 33.8980117,6.05013645 C34.2194932,6.18697856 34.5904094,6.03750487 34.7272515,5.71641326 C34.8640936,5.39524366 34.7147758,5.02409357 34.3936062,4.88717349 C33.057076,4.31766082 31.5641326,4.01668616 30.0760234,4.01668616 C25.0278363,4.01668616 22.2247173,6.27664717 21.2846784,8.39173489 C20.4409357,10.2901365 21.5461988,12.5437037 21.919922,13.2138791 L21.8687719,13.7432359 C20.7403509,13.888499 19.8653411,14.8546589 19.8653411,16.0220663 C19.8653411,17.0379727 20.52,17.9009747 21.4388304,18.2042105 C21.2517739,20.3079142 22.1930604,22.3810526 23.9035478,23.6239376 L24.0373489,23.7211696 C22.1294347,24.6038986 20.8430409,26.5369981 20.8430409,28.7164912 L20.8430409,36.2558285 C20.8430409,36.6049123 21.1259259,36.8878752 21.4750877,36.8878752 L37.7598441,36.8878752 C38.1090058,36.8878752 38.3918908,36.6049123 38.3918908,36.2558285 L38.3918908,28.7165692 C38.3918908,27.6335283 38.0774269,26.5853411 37.4821832,25.6852242 C37.2897466,25.3940741 36.8976218,25.3140741 36.6063938,25.5065887 C36.3152437,25.6991033 36.2352437,26.0912281 36.4278363,26.3823782 C36.885848,27.0750877 37.1278752,27.8821832 37.1278752,28.7166472 L37.1278752,32.1242105 L35.2368811,32.1242105 L35.2368811,29.7564133 C35.2368811,29.4073294 34.9539961,29.1243665 34.6048343,29.1243665 C34.2556725,29.1243665 33.9727875,29.4073294 33.9727875,29.7564133 L33.9727875,35.6239376 L25.2625341,35.6239376 L25.2625341,29.7564133 C25.2625341,29.4073294 24.9796491,29.1243665 24.6304873,29.1243665 C24.2813255,29.1243665 23.9984405,29.4073294 23.9984405,29.7564133 L23.9984405,32.1242105 L22.1073684,32.1242105 L22.1073684,28.7166472 C22.1073684,27.057154 23.0748538,25.5830019 24.5157115,24.8925536 C24.6099805,25.4591813 24.797271,26.0084211 25.0716569,26.5125146 C25.1863548,26.7231969 25.4033528,26.8424951 25.6274464,26.8424951 C25.7295127,26.8424951 25.8330604,26.8176998 25.9290448,26.7654581 C26.2356335,26.5985965 26.3487719,26.2147368 26.1819883,25.9082261 C26.0307212,25.6303314 25.9147758,25.3339571 25.8353216,25.0270565 L26.8355556,25.7536842 C27.6675244,26.3586745 28.6423392,26.6610526 29.6176218,26.6610526 C30.5925146,26.6610526 31.5677973,26.3585965 32.399922,25.7538402 L33.4017934,25.0261209 C32.9645224,26.7070565 31.4340741,27.9516569 29.6182456,27.9516569 C28.722807,27.9516569 27.8805458,27.657232 27.1824561,27.1001949 C26.9096296,26.8824951 26.5118129,26.9272515 26.294269,27.200078 C26.0764912,27.4729825 26.1212476,27.8706433 26.394152,28.0883431 C27.3053411,28.8153606 28.4503704,29.2156725 29.6183236,29.2156725 C32.1812865,29.2156725 34.3136842,27.3417544 34.7204678,24.8924756 C34.9069006,24.9819883 35.0872515,25.0853021 35.2608967,25.2026511 C35.3694347,25.2760234 35.4925536,25.3112671 35.614425,25.3112671 C35.817154,25.3112671 36.0163743,25.2138791 36.1385575,25.0332943 C36.3340351,24.7441715 36.2582456,24.3511891 35.9691228,24.1557115 C35.7224951,23.9889279 35.4648733,23.8446004 35.1983626,23.7211696 L35.3320078,23.6240936 C37.0426511,22.3811306 37.9838596,20.3078363 37.7966472,18.2041326 C38.7151657,17.9005848 39.3695127,17.0378168 39.3695127,16.0223002 C39.3695127,14.8553606 38.4948928,13.8894347 37.3667057,13.7437037 L37.2959064,13.0106043 C37.2624561,12.6630799 36.9535283,12.4090448 36.6060819,12.4421832 C36.2586355,12.4757115 36.0041326,12.7845614 36.0377388,13.1320078 L36.5348148,18.2803119 C36.6967641,19.9559454 35.9511111,21.6116959 34.5890058,22.6014035 L31.6569201,24.7312281 C30.4368811,25.6178558 28.7982066,25.6178558 27.5787914,24.7311501 L24.6468616,22.6013255 C23.2846784,21.61154 22.5389474,19.9557895 22.7008967,18.280078 L23.1490058,13.6394542 C24.1169591,13.4933333 26.1307602,13.0306433 27.1051072,11.6463158 C28.5282651,12.3694347 30.2402339,12.3105653 32.3131384,11.4719688 C33.7978168,10.8712671 35.3278752,11.0019493 36.8604288,11.8605068 C38.0519298,12.5277973 38.7990643,13.4034308 38.805614,13.4112281 C38.9280312,13.5573489 39.1067446,13.6373489 39.2901365,13.6373489 C39.3623392,13.6373489 39.4353996,13.6249513 39.5060429,13.5992982 C39.7557895,13.50846 39.9221053,13.2710331 39.9221053,13.0053801 C39.9220273,9.98705653 38.5203119,7.40405458 35.9751267,5.73247563 Z M21.5673294,16.8683041 C21.3018324,16.6808577 21.1297466,16.3716959 21.1297466,16.0221442 C21.1297466,15.602963 21.3808187,15.2421053 21.740117,15.0797661 L21.5673294,16.8683041 Z M35.237037,33.3881481 L37.1280312,33.3881481 L37.1280312,35.6238596 L35.237037,35.6238596 L35.237037,33.3881481 Z M23.9985185,33.3881481 L23.9985185,35.6238596 L22.1074464,35.6238596 L22.1074464,33.3881481 L23.9985185,33.3881481 Z M38.1051852,16.0221442 C38.1051852,16.371384 37.9332554,16.6803119 37.6680702,16.8676803 L37.4955166,15.0801559 C37.854425,15.242729 38.1051852,15.6033528 38.1051852,16.0221442 Z M19.8551267,17.3470565 C19.8551267,16.5010526 19.3762183,15.7650682 18.6753996,15.3946979 L19.4954386,14.2697856 C19.8782066,13.7447953 19.9494737,13.0767251 19.6861598,12.482729 C19.422846,11.8887329 18.8798441,11.4930214 18.2337622,11.4241715 C17.8873294,11.3872904 17.5753606,11.6384405 17.5384016,11.985653 C17.5014425,12.3327875 17.7526706,12.6440546 18.099883,12.6810136 C18.3761404,12.7104873 18.4931774,12.9104873 18.5306823,12.9950877 C18.5681871,13.0796881 18.6378168,13.3007407 18.474152,13.5252242 L17.1051072,15.4031969 C16.9414425,15.6276023 16.7098635,15.6289279 16.6177778,15.6192593 C16.52577,15.6095127 16.2995712,15.5591423 16.1869786,15.3052632 L15.2212086,13.1270955 C15.437037,12.9339571 15.6116959,12.6961404 15.7312281,12.4283041 L16.3754386,12.4969981 C16.3982846,12.4994152 16.4208967,12.5006628 16.4432749,12.5006628 C16.7622612,12.5006628 17.0363353,12.259883 17.0708772,11.9356725 C17.1078363,11.588538 16.8566082,11.277193 16.5094737,11.2402339 L15.8661209,11.1716179 C15.671423,10.2364133 14.8410916,9.53153996 13.8489669,9.53153996 C13.7757505,9.53153996 13.7035478,9.53551657 13.6322027,9.54300195 L12.6665107,7.36584795 C12.4031189,6.7720078 11.860117,6.3762963 11.2141131,6.30752437 C10.5678752,6.23844055 9.9539961,6.51103314 9.57130604,7.03610136 L8.20241715,8.91438596 C7.8197271,9.43945419 7.74853801,10.1075244 8.0120078,10.7014425 C8.27532164,11.2953606 8.81840156,11.6910721 9.46448343,11.759922 L11.8317349,12.0121637 C11.865809,12.1758285 11.9192982,12.3324756 11.9897076,12.4794542 C10.3852632,14.0525536 7.66518519,15.5932164 3.51547758,14.6639376 C4.10019493,12.8024172 5.47680312,11.2591813 7.31220273,10.482963 C7.63368421,10.3470565 7.78409357,9.97614035 7.64810916,9.65465887 C7.51212476,9.33317739 7.14128655,9.18269006 6.81980507,9.31875244 C4.36335283,10.3575828 2.59898635,12.5532164 2.09208577,15.1430019 C0.92834308,15.202963 -1.77635684e-14,16.1687329 -1.77635684e-14,17.3471345 C-1.77635684e-14,18.3531384 0.668304094,19.2032749 1.5939961,19.46846 C1.46526316,21.6240156 2.44615984,23.7189864 4.20405458,24.9960234 L4.70346979,25.3588304 C2.85231969,26.1846394 1.59945419,28.0436647 1.59945419,30.1420663 L1.59945419,31.5125926 C1.59945419,31.8615984 1.88241715,32.1446394 2.23150097,32.1446394 C2.5805848,32.1446394 2.86354776,31.8616764 2.86354776,31.5125926 L2.86354776,30.1420663 C2.86354776,28.6026511 3.75173489,27.2329045 5.07945419,26.5778558 C5.4851462,28.8874074 7.50424951,30.6483431 9.92826511,30.6483431 C11.9115789,30.6483431 13.6925536,29.4678363 14.4654971,27.6407797 C14.6014815,27.3193762 14.4511501,26.948538 14.1296686,26.8124756 C13.8083431,26.6764912 13.4373489,26.8267446 13.3013645,27.1483041 C12.7267057,28.5066667 11.402729,29.3842495 9.92826511,29.3842495 C8.20124756,29.3842495 6.75079922,28.1818324 6.3677193,26.5677193 L7.08382066,27.0880312 C7.93442495,27.7060429 8.93122807,28.0150487 9.92803119,28.0150487 C10.9248343,28.0150487 11.9216374,27.7060429 12.7722417,27.0880312 L13.900117,26.268616 C15.6987135,26.674308 16.9925146,28.2842105 16.9925146,30.1419103 L16.9925146,35.6237817 L15.27423,35.6237817 L15.27423,31.1247563 C15.27423,30.7757505 14.9912671,30.4927096 14.6421832,30.4927096 C14.2930994,30.4927096 14.0101365,30.7756725 14.0101365,31.1247563 L14.0101365,35.6237817 L5.84569201,35.6237817 L5.84569201,31.1247563 C5.84569201,30.7757505 5.56272904,30.4927096 5.21364522,30.4927096 C4.8645614,30.4927096 4.58159844,30.7756725 4.58159844,31.1247563 L4.58159844,35.6237817 L2.86339181,35.6237817 L2.86339181,33.8241715 C2.86339181,33.4751657 2.58042885,33.1921248 2.23134503,33.1921248 C1.88226121,33.1921248 1.59929825,33.4750877 1.59929825,33.8241715 L1.59929825,36.2558285 C1.59929825,36.6048343 1.88226121,36.8878752 2.23134503,36.8878752 L17.6243275,36.8878752 C17.9733333,36.8878752 18.2563743,36.6049123 18.2563743,36.2558285 L18.2563743,30.1419883 C18.2563743,28.0435088 17.0034308,26.1845614 15.1523587,25.3587524 L15.6516179,24.9959454 C17.4096686,23.7186745 18.3905653,21.6237037 18.2616764,19.4679922 C19.1871345,19.2023392 19.8551267,18.3525926 19.8551267,17.3470565 Z M1.72951267,18.1616374 C1.44998051,17.9978168 1.26401559,17.694191 1.26401559,17.3471345 C1.26401559,16.9276413 1.5394152,16.5716959 1.91875244,16.4495127 L1.72951267,18.1616374 Z M13.8488109,10.7956335 C14.2878752,10.7956335 14.6451462,11.1528265 14.6451462,11.5919688 C14.6451462,12.0311111 14.2879532,12.3883041 13.8488109,12.3883041 C13.4096686,12.3883041 13.0524756,12.0311111 13.0524756,11.5919688 C13.0524756,11.1528265 13.4096686,10.7956335 13.8488109,10.7956335 Z M11.9666277,10.7553216 L9.5982846,10.5030019 C9.32202729,10.4736062 9.20499025,10.2736062 9.16740741,10.1890058 C9.12982456,10.1044055 9.0602729,9.8834308 9.22385965,9.6588694 L10.5927485,7.78050682 C10.7564133,7.55602339 10.9881481,7.55461988 11.080078,7.56444444 C11.1720858,7.57419103 11.3982846,7.62440546 11.5109552,7.87844055 L12.477037,10.0564522 C12.2610526,10.2495127 12.0862378,10.4874074 11.9666277,10.7553216 Z M14.908616,23.9734113 L12.0291618,26.065575 C10.7722417,26.9787914 9.08335283,26.9787135 7.82658869,26.065575 L4.94705653,23.9734113 C3.46923977,22.8997271 2.67594542,21.1047953 2.87664717,19.2892788 L3.24717349,15.937232 C3.24849903,15.9249123 3.25044834,15.9128265 3.25192982,15.9005848 C4.22495127,16.1184405 5.13044834,16.2169981 5.9694347,16.2169981 C8.35173489,16.2169981 10.2045224,15.4385965 11.5961014,14.4529435 C11.9607797,14.8975439 12.5695906,15.5184405 13.4392203,16.0184795 C13.7678752,16.2074854 14.1876803,16.0723587 14.3387914,15.7246004 C14.4677583,15.4279922 14.3502534,15.0841326 14.0700975,14.922729 C13.3667057,14.5175828 12.871345,14.0105263 12.5812086,13.6591813 C12.6765692,13.5723197 12.7688889,13.4850682 12.8582456,13.3976608 C13.1524366,13.5596881 13.4900585,13.6522417 13.8490448,13.6522417 C13.9223392,13.6522417 13.9948538,13.6481871 14.0661988,13.6407018 L15.031501,15.8176218 C15.2948148,16.411462 15.8378168,16.8071735 16.4838207,16.8761014 C16.5499415,16.8831189 16.6155945,16.8866277 16.6809357,16.8866277 C16.6919298,16.8866277 16.702768,16.885848 16.7136842,16.885692 L16.9794152,19.2891228 C17.179883,21.1047953 16.3865107,22.8996491 14.908616,23.9734113 Z M18.1261598,18.1610916 L17.9369981,16.4499025 C18.3160234,16.5723977 18.5911111,16.9281092 18.5911111,17.3471345 C18.5911111,17.6938012 18.4053801,17.997193 18.1261598,18.1610916 Z M26.4379727,16.6123977 C26.7870565,16.6123977 27.0699415,16.8953606 27.0700195,17.2444444 L27.0700195,18.1012086 C27.0700195,18.4502924 26.7871345,18.7332554 26.4379727,18.7332554 C26.0888109,18.7332554 25.8059259,18.4502924 25.8059259,18.1012086 L25.8059259,17.2444444 C25.8059259,16.8953606 26.0888109,16.6123977 26.4379727,16.6123977 Z M34.4687719,14.7262378 C34.7155556,14.9730994 34.7155556,15.3732554 34.468538,15.620039 C34.3451852,15.7433918 34.1833918,15.8050682 34.0216764,15.8050682 C33.859883,15.8050682 33.6981676,15.7433918 33.5746589,15.620039 C33.3670175,15.4123197 33.0906823,15.2978558 32.7969591,15.2978558 C32.5032359,15.2978558 32.2269786,15.4123197 32.0192593,15.620039 C31.7724756,15.8667446 31.3722417,15.8669006 31.1255361,15.620039 C30.8786745,15.3732554 30.8786745,14.9730214 31.1254581,14.7262378 C31.5720078,14.2797661 32.165692,14.0338402 32.797115,14.0338402 C33.428538,14.0338402 34.0222222,14.2796881 34.4687719,14.7262378 Z M28.1095517,14.7262378 C28.3564133,14.9730994 28.3564133,15.3732554 28.1093177,15.620039 C27.9859649,15.7433918 27.8241715,15.8050682 27.6624561,15.8050682 C27.5006628,15.8050682 27.3389474,15.7433918 27.2154386,15.619883 C27.0077973,15.4121637 26.73154,15.2976998 26.4377388,15.2976998 C26.1439376,15.2976998 25.8676803,15.4121637 25.659883,15.619961 C25.4131774,15.8667446 25.0130214,15.8667446 24.7661598,15.619961 C24.5192982,15.3731774 24.5192982,14.9730214 24.7662378,14.7262378 C25.2127875,14.2797661 25.8064717,14.0338402 26.4378947,14.0338402 C27.0693177,14.0338402 27.6630019,14.2796881 28.1095517,14.7262378 Z M32.797115,16.6123977 C33.1461988,16.6123977 33.4291618,16.8953606 33.4291618,17.2444444 L33.4291618,18.1012086 C33.4291618,18.4502924 33.1462768,18.7332554 32.797115,18.7332554 C32.4479532,18.7332554 32.1650682,18.4502924 32.1650682,18.1012086 L32.1650682,17.2444444 C32.1650682,16.8953606 32.4479532,16.6123977 32.797115,16.6123977 Z M31.4532554,21.4937232 C31.700117,21.7404288 31.700117,22.1406628 31.4531774,22.3874464 C30.9469786,22.8935673 30.2822612,23.1465887 29.6173879,23.1465887 C28.9525926,23.1465887 28.2877973,22.8935673 27.7816764,22.3874464 C27.5348928,22.1407407 27.5348928,21.7405848 27.7816764,21.4937232 C28.028538,21.2469396 28.428616,21.2469396 28.6755556,21.4937232 C29.1948538,22.0130994 30.040078,22.0130994 30.5593762,21.4937232 C30.8062378,21.2469396 31.2063158,21.2469396 31.4532554,21.4937232 Z M30.1532164,16.6838207 C30.5023002,16.6838207 30.7851852,16.9667836 30.7852632,17.3159454 L30.7852632,19.4586355 C30.7852632,19.8077193 30.5023782,20.0906823 30.1532164,20.0906823 L29.0818713,20.0906823 C28.7327096,20.0906823 28.4498246,19.8077193 28.4498246,19.4586355 C28.4498246,19.1095517 28.7327875,18.8265887 29.0818713,18.8265887 L29.5211696,18.8265887 L29.5211696,17.3158674 C29.5211696,16.9667836 29.8040546,16.6838207 30.1532164,16.6838207 Z M14.5376218,18.6310331 C14.7844055,18.8777388 14.7844055,19.2779727 14.5375439,19.5247563 C14.414191,19.6481871 14.2523977,19.7098635 14.0906823,19.7098635 C13.9289669,19.7098635 13.7671735,19.6481092 13.6438207,19.5247563 C13.4539571,19.3348928 13.2014815,19.2303314 12.9330214,19.2303314 C12.6645614,19.2303314 12.4120858,19.3348928 12.2222222,19.5247563 C11.9755166,19.77154 11.5752827,19.77154 11.328499,19.5247563 C11.0816374,19.2780507 11.0816374,18.8778168 11.328499,18.6310331 C11.757115,18.2024172 12.3270175,17.9663938 12.9331774,17.9663938 C13.5391813,17.9663938 14.1090838,18.2024172 14.5376218,18.6310331 Z M8.52670565,18.6310331 C8.77356725,18.8777388 8.77356725,19.2779727 8.52662768,19.5247563 C8.40327485,19.6481871 8.24140351,19.7098635 8.07968811,19.7098635 C7.91797271,19.7098635 7.75617934,19.6481092 7.63282651,19.5247563 C7.44296296,19.3348928 7.19048733,19.2303314 6.92202729,19.2303314 C6.65356725,19.2303314 6.40109162,19.3348928 6.21122807,19.5247563 C5.96452242,19.77154 5.56436647,19.77154 5.31750487,19.5247563 C5.07064327,19.2780507 5.07064327,18.8778168 5.31750487,18.6310331 C5.74612086,18.2024172 6.31602339,17.9663938 6.92218324,17.9663938 C7.52818713,17.9663938 8.09808967,18.2024172 8.52670565,18.6310331 Z M11.6874074,22.7775439 C11.934191,23.0243275 11.934191,23.4244834 11.6874854,23.6712671 C11.2174659,24.1412865 10.5925146,24.4001559 9.92779727,24.4001559 C9.26307992,24.4001559 8.63812865,24.1412865 8.16810916,23.6712671 C7.92124756,23.4245614 7.92124756,23.0244055 8.16810916,22.7775439 C8.41481481,22.5307602 8.81497076,22.5307602 9.06183236,22.7775439 C9.53925926,23.2550487 10.3161014,23.2551267 10.7936062,22.7775439 C11.0403899,22.5307602 11.4406238,22.5307602 11.6874074,22.7775439 Z M10.3554776,20.0203509 C10.7044834,20.0203509 10.9874464,20.3033138 10.9875244,20.6523977 C10.9875244,21.0014815 10.7044834,21.2844444 10.3554776,21.2844444 L9.50035088,21.2844444 C9.15126706,21.2844444 8.86830409,21.0014035 8.86830409,20.6523977 C8.86830409,20.3033138 9.15134503,20.0203509 9.50035088,20.0203509 L10.3554776,20.0203509 Z" fill="#000000" fill-rule="nonzero"></path>
        </g>
    </g>
</svg>
