<?xml version="1.0" encoding="UTF-8"?>
<svg width="40px" height="34px" viewBox="0 0 40 34" version="1.1" xmlns="http://www.w3.org/2000/svg" xmlns:xlink="http://www.w3.org/1999/xlink">
    <!-- Generator: Sketch 49.3 (51167) - http://www.bohemiancoding.com/sketch -->
    <title>filter-category-18</title>
    <desc>Created with Sketch.</desc>
    <g id="Symbols" stroke="none" stroke-width="1" fill="none" fill-rule="evenodd">
        <g id="Elements-/-Sort-/-Card-/-~Parts-/-Icon_17" transform="translate(0.000000, -3.000000)">
            <mask id="mask-2" fill="white">
                <path d="M23.8247953,31.9839376 C25.151423,31.9839376 26.2307992,33.0632359 26.2307992,34.3899415 C26.2307992,35.7166472 25.151423,36.7959454 23.8247953,36.7959454 L15.6810136,36.7959454 C13.9922027,36.7959454 12.4042105,36.051384 11.3241326,34.7530604 L9.37660819,32.4121637 C8.59875244,31.477115 7.45730994,30.9388694 6.24187135,30.9319298 C5.95532164,31.6410916 5.26019493,32.142924 4.44959064,32.142924 L3.63992203,32.142924 C3.20935673,32.142924 2.8602729,31.7938402 2.8602729,31.3632749 C2.8602729,30.9326316 3.20935673,30.5836257 3.63992203,30.5836257 L4.44966862,30.5836257 C4.65551657,30.5836257 4.82292398,30.4161404 4.82292398,30.2103704 L4.82292398,23.9614035 C4.82292398,23.7556335 4.65551657,23.5881481 4.44966862,23.5881481 L1.55929825,23.5881481 L1.55929825,28.5097076 C1.55929825,28.9403509 1.21021442,29.2893567 0.779649123,29.2893567 C0.349083821,29.2893567 0,28.9402729 0,28.5097076 L0,22.808577 C0,22.3779337 0.349083821,22.0289279 0.779649123,22.0289279 L4.44959064,22.0289279 C5.2494347,22.0289279 5.93738791,22.5174269 6.23072125,23.2116959 L9.25278752,23.2116959 C11.0745419,23.2116959 12.7996101,23.90846 14.1102534,25.1736452 L18.3136062,29.2309552 C19.2156725,30.1017544 19.2576998,31.5596881 18.4073294,32.4809357 C17.9501754,32.9761404 17.3247563,33.2272904 16.6975439,33.2272904 C16.1357505,33.2272904 15.5725536,33.025809 15.1274854,32.6178558 L11.8274464,29.5928265 C11.5100195,29.3019103 11.488577,28.8087329 11.7795712,28.491306 C12.0704873,28.1738791 12.5637427,28.1525146 12.8810136,28.4434308 L16.1810526,31.46846 C16.491306,31.7528265 16.9759844,31.7326316 17.2615205,31.4233918 C17.5416764,31.119922 17.5277973,30.6396101 17.2306433,30.3527485 L13.0272904,26.2954386 C12.0088889,25.3123587 10.66846,24.7709162 9.25278752,24.7709162 L6.38214425,24.7709162 L6.38214425,29.3765302 C8.0094347,29.4230799 9.5302924,30.1587524 10.5752827,31.4148928 L12.522807,33.7557895 C13.305653,34.6969201 14.4568421,35.2366472 15.6810136,35.2366472 L23.8247953,35.2366472 C24.2917739,35.2366472 24.6715789,34.8568421 24.6715789,34.3899415 C24.6715789,33.9230409 24.2916959,33.5432359 23.8247953,33.5432359 L20.7995322,33.5432359 C20.3689669,33.5432359 20.019883,33.19423 20.019883,32.7635867 C20.019883,32.3329435 20.3689669,31.9839376 20.7995322,31.9839376 L23.8247953,31.9839376 Z M39.1423782,10.2463158 C39.5729435,10.2463158 39.9220273,10.5953216 39.9221053,11.025809 L39.9221053,17.0315789 C39.9221053,17.4622222 39.5730214,17.8112281 39.1424561,17.8112281 L35.4724366,17.8112281 C34.6725926,17.8112281 33.9846394,17.322729 33.691306,16.62846 L30.6692398,16.62846 C28.8474854,16.62846 27.1224172,15.9316959 25.8117739,14.6665107 L21.6084211,10.6092008 C20.7063548,9.73847953 20.6643275,8.28054581 21.5146979,7.35922027 C22.3814425,6.42042885 23.8526316,6.35890838 24.7945419,7.22230019 L28.0946589,10.2472515 C28.4120858,10.5381676 28.4335283,11.031345 28.1426121,11.3487719 C27.85154,11.6661988 27.3585185,11.6875634 27.0410916,11.3966472 L23.7409747,8.37161793 C23.4307212,8.08725146 22.9460429,8.10736842 22.6605068,8.41668616 C22.3803509,8.72023392 22.39423,9.20046784 22.691384,9.48732943 L26.8947368,13.5446394 C27.9131384,14.5277193 29.2535673,15.0691618 30.6692398,15.0691618 L33.539883,15.0691618 L33.539883,10.4635478 C31.9125926,10.4169201 30.3916569,9.68124756 29.3467446,8.42510721 L27.3992203,6.0842885 C26.6163743,5.14315789 25.4651852,4.6034308 24.2409357,4.6034308 L16.097232,4.6034308 C15.6302534,4.6034308 15.2504483,4.98331384 15.2504483,5.45013645 C15.2504483,5.91703704 15.6303314,6.29684211 16.097232,6.29684211 L19.4272904,6.29684211 C19.8578558,6.29684211 20.2069396,6.64584795 20.2069396,7.07649123 C20.2069396,7.5071345 19.8578558,7.85614035 19.4272904,7.85614035 L16.097232,7.85614035 C14.7706043,7.85614035 13.6912281,6.77684211 13.6912281,5.45021442 C13.6912281,4.12358674 14.7706043,3.0442885 16.097232,3.0442885 L24.2408577,3.0442885 C25.9297466,3.0442885 27.5178168,3.78892788 28.5978168,5.08725146 L30.5453411,7.42807018 C31.3231969,8.36311891 32.4646394,8.90136452 33.680078,8.90830409 C33.9666277,8.1991423 34.6617544,7.69730994 35.4723587,7.69730994 L36.2248733,7.69730994 C36.6554386,7.69730994 37.0045224,8.04639376 37.0045224,8.47695906 C37.0045224,8.90760234 36.6554386,9.25660819 36.2248733,9.25660819 L35.4723587,9.25660819 C35.2665107,9.25660819 35.0991033,9.42409357 35.0991033,9.62986355 L35.0991033,15.8788304 C35.0991033,16.0846004 35.2665107,16.2520858 35.4723587,16.2520858 L38.362729,16.2520858 L38.362729,11.0259649 C38.362729,10.5953216 38.7118129,10.2463158 39.1423782,10.2463158 Z M25.1725536,29.5608577 C25.3497856,29.9532943 25.1741131,30.4155945 24.7816764,30.5928265 C24.7784795,30.59423 24.7681871,30.5988304 24.7649123,30.6002339 C24.6635478,30.6443665 24.5579727,30.6652632 24.4540351,30.6652632 C24.1532164,30.6652632 23.8665887,30.4901365 23.7388694,30.1967251 C23.5669396,29.8020273 23.7475244,29.3426121 24.1423782,29.1706823 C24.534425,28.9934503 24.9952437,29.168499 25.1725536,29.5608577 Z M27.1105653,28.2482651 C27.3653801,28.594308 27.2953606,29.0789864 26.9500195,29.3347368 C26.9488499,29.3355945 26.9415205,29.3410526 26.9402729,29.3419103 C26.8014815,29.4435088 26.6401559,29.4924756 26.4803119,29.4924756 C26.2401559,29.4924756 26.0034308,29.3819103 25.8506823,29.1733333 C25.5963353,28.8259649 25.6718129,28.3380897 26.0191813,28.0837427 C26.36577,27.8300195 26.8556725,27.9020663 27.1105653,28.2482651 Z M22.9929045,30.4361014 C23.0820273,30.857232 22.8139571,31.2706433 22.3929045,31.359922 C22.3877583,31.3610136 22.3749708,31.3635867 22.3699025,31.3646004 C22.3205458,31.3740351 22.2711891,31.3786355 22.2226901,31.3786355 C21.8559844,31.3786355 21.5292008,31.1187524 21.4577778,30.7452632 C21.3773099,30.3242105 21.6517739,29.9175828 22.0715789,29.83423 C22.4918519,29.7473684 22.9040936,30.0162183 22.9929045,30.4361014 Z M28.7392593,26.5525146 C28.4195712,26.2641715 27.9267057,26.2895127 27.6382066,26.6092788 C27.634386,26.6135673 27.6254191,26.6237037 27.6216764,26.6279922 C27.3403509,26.9539961 27.3766862,27.4463158 27.7026901,27.7275634 C27.8499805,27.8546589 28.0311891,27.9168811 28.21154,27.9168811 C28.4280702,27.9168811 28.6433528,27.8272125 28.797271,27.6522417 C29.0843665,27.3324756 29.0585575,26.8404678 28.7392593,26.5525146 Z M28.3095128,27.2240955 L28.217154,27.131462 L28.317154,27.231462 L28.3095128,27.2240955 Z M30.7236647,22.3273294 C31.1356725,22.4522417 31.3692008,22.8853021 31.2442885,23.2973879 L31.2410136,23.3080702 C31.1379337,23.6432749 30.8293957,23.8586355 30.4961404,23.8586355 C30.4201949,23.8586355 30.3430019,23.8474854 30.2666667,23.8239376 C29.8551267,23.6973099 29.6241715,23.2610526 29.7507992,22.8495127 C29.8757895,22.4374269 30.3116569,22.2023392 30.7236647,22.3273294 Z M31.7222612,18.3034698 C31.7981287,18.7273294 31.5161014,19.1324756 31.0922417,19.2083431 C31.045848,19.2166862 30.9995322,19.2206628 30.9539181,19.2206628 C30.5868226,19.2206628 30.2608187,18.9603119 30.1893177,18.5883041 C30.1047953,18.168655 30.3746589,17.7582066 30.794386,17.6707212 C31.2155945,17.582846 31.628538,17.8523977 31.7165692,18.2737622 C31.7186745,18.2836647 31.7205458,18.2935673 31.7222612,18.3034698 Z M31.0072515,19.9950877 C31.4349318,20.0328265 31.751345,20.4091228 31.7157895,20.8364133 C31.6859259,21.2452242 31.3447953,21.5591423 30.9388694,21.5591423 C30.9234308,21.5591423 30.9079922,21.5586745 30.8923977,21.5577388 C30.4625341,21.5324756 30.1346589,21.1635088 30.159922,20.7336452 C30.1603899,20.7260819 30.1614815,20.7107212 30.1621832,20.7031579 C30.2,20.274308 30.5797271,19.9573489 31.0072515,19.9950877 Z M29.9604678,24.545809 C30.3351267,24.7581287 30.4666667,25.2338402 30.254347,25.608499 L29.5760624,25.2240936 L30.2538012,25.6094347 C30.1130604,25.8689279 29.8472515,26.0148928 29.5720858,26.0148928 C29.445848,26.0148928 29.3177388,25.9842495 29.1986745,25.9196881 C28.8202729,25.714386 28.6817154,25.2377388 28.8870175,24.8592593 L28.8978558,24.8397661 C29.1100975,24.4651072 29.5861988,24.3336452 29.9604678,24.545809 Z M15.8202729,9.69785575 C16.0127875,10.0830409 15.8567641,10.551345 15.4715789,10.7438596 C15.3592203,10.8 15.2394542,10.8266667 15.1214035,10.8266667 C14.8349318,10.8266667 14.5585965,10.6696296 14.4222222,10.3968031 C14.2296296,10.0116959 14.3822222,9.54518519 14.7674074,9.35259259 L14.774347,9.34916179 C15.1592203,9.15649123 15.6277583,9.31267057 15.8202729,9.69785575 Z M18.0757895,9.04779727 C18.177232,9.4662768 17.9202339,9.8877193 17.5018324,9.98916179 C17.4366472,10.0059259 17.371306,10.0139571 17.3070565,10.0139571 C16.9601559,10.0139571 16.6446004,9.78011696 16.5539181,9.42830409 C16.4465497,9.01138402 16.6991033,8.58588694 17.1161014,8.47844055 C17.1196881,8.47750487 17.1307602,8.47469786 17.134347,8.47384016 C17.5534503,8.37231969 17.974347,8.62947368 18.0757895,9.04779727 Z M13.7587524,10.8221442 C14.0283821,11.157193 13.9766082,11.6466277 13.6421053,11.9168031 L13.6318129,11.9250682 C13.4882651,12.0392982 13.3168031,12.0948148 13.1466667,12.0948148 C12.9173489,12.0948148 12.6902144,11.994152 12.5361404,11.8007797 C12.2679922,11.4639376 12.3235867,10.9734893 12.6604288,10.7052632 L13.1461209,11.3151657 L12.662768,10.7034698 C12.9982066,10.4344639 13.4891228,10.4870955 13.7587524,10.8221442 Z M9.60179337,16.3692788 C10.0140351,16.4817154 10.2583236,16.9045614 10.151423,17.3168811 C10.062846,17.6706433 9.74502924,17.9079922 9.39524366,17.9079922 C9.33442495,17.9079922 9.27267057,17.9008187 9.21091618,17.885848 C8.79267057,17.7842495 8.53567251,17.3635867 8.63703704,16.9452632 C8.63883041,16.9380897 8.6425731,16.9233528 8.64452242,16.9162573 C8.75781676,16.5008187 9.18635478,16.2560624 9.60179337,16.3692788 Z M9.10510721,18.660039 C9.53169591,18.6848343 9.85824561,19.0481092 9.83875244,19.4737622 C9.82331384,19.8935673 9.47797271,20.2251852 9.06003899,20.2251852 C9.05216374,20.2251852 9.04436647,20.2250292 9.03641326,20.2247953 C8.60615984,20.2119298 8.26768031,19.8534893 8.28031189,19.4233138 C8.28062378,19.4133333 8.28101365,19.4033528 8.28163743,19.3932943 C8.30658869,18.9635088 8.67415205,18.6361014 9.10510721,18.660039 Z M10.5830019,14.2386745 C10.9617934,14.4374269 11.1093177,14.9037037 10.9151657,15.2836647 C10.7785575,15.5565692 10.502924,15.7150097 10.2166082,15.7150097 C10.1009747,15.7150097 9.98378168,15.6892788 9.87321637,15.6347758 C9.48709552,15.4446004 9.3277193,14.9781676 9.51773879,14.5919688 L9.53044834,14.5668616 C9.73044834,14.185575 10.2016374,14.0385965 10.5830019,14.2386745 Z M11.9910331,12.362885 C12.3205458,12.6364912 12.3673294,13.1242885 12.097232,13.4554386 C11.9432359,13.6474074 11.7164912,13.7475244 11.4877973,13.7475244 C11.3181287,13.7475244 11.1473684,13.6924756 11.0042105,13.5788694 C10.6669786,13.311423 10.6098246,12.8219103 10.877115,12.4845224 C10.8808577,12.479922 10.8894347,12.4693177 10.8931774,12.4647173 C11.1681871,12.1334893 11.6597271,12.0878752 11.9910331,12.362885 Z M9.98619883,21.6376608 C10.0621442,22.0615205 9.78074074,22.4704873 9.35688109,22.5463548 C9.30994152,22.5547758 9.26323587,22.5588304 9.217154,22.5588304 C8.84748538,22.5588304 8.52023392,22.297076 8.45270955,21.9202339 L8.45130604,21.9125926 C8.3754386,21.4887329 8.65746589,21.0836647 9.08132554,21.0077193 C9.50495127,20.9317739 9.91033138,21.2138012 9.98619883,21.6376608 Z M22.6379727,15.7192982 C21.6231579,15.7192982 20.682885,16.1377778 20.0128655,16.8439766 C19.342768,16.1377778 18.4025731,15.7192982 17.3877583,15.7192982 C15.391423,15.7192982 13.7673294,17.3433918 13.7673294,19.3397271 C13.7673294,20.4169201 14.2424172,21.4307212 15.0706433,22.1212476 C15.0756335,22.1254581 15.0807797,22.1295906 15.0859259,22.1337232 L19.5288889,25.6512281 C19.6706433,25.7635088 19.8417154,25.8195712 20.0127875,25.8195712 C20.1846394,25.8195712 20.3564912,25.762963 20.4985575,25.6497466 L25.1297466,21.9608577 C25.1524366,21.942846 25.1740351,21.9235088 25.1945419,21.9030799 C25.8806238,21.2188694 26.2584016,20.308538 26.2584016,19.3397271 C26.2584016,17.3433918 24.634308,15.7192982 22.6379727,15.7192982 Z M24.1216374,20.7706043 L20.011462,24.0445224 L16.0621442,20.9178947 C15.5946199,20.5246004 15.3266277,19.9500195 15.3266277,19.339883 C15.3265497,18.2032749 16.2512281,17.2785965 17.3877583,17.2785965 C18.2244834,17.2785965 18.9721637,17.7783236 19.2926316,18.5516569 C19.4134113,18.842885 19.6976218,19.0328265 20.0128655,19.0328265 C20.3281092,19.0328265 20.6123197,18.842963 20.7330994,18.5516569 C21.0535673,17.7783236 21.8012476,17.2785965 22.6379727,17.2785965 C23.7745029,17.2785965 24.6991813,18.2032749 24.6991813,19.3398051 C24.6991813,19.8779727 24.494347,20.3844834 24.1216374,20.7706043 Z M0.779649123,32.1402729 C0.350568012,32.1402729 0.00272904483,31.7924339 0.00272904483,31.3633528 C0.00272904483,30.9342717 0.350568012,30.5864327 0.779649123,30.5864327 C1.20873023,30.5864327 1.5565692,30.9342717 1.5565692,31.3633528 C1.5565692,31.7924339 1.20873023,32.1402729 0.779649123,32.1402729 Z M39.1423002,9.2537232 C38.7132191,9.2537232 38.3653801,8.90588423 38.3653801,8.47680312 C38.3653801,8.04772201 38.7132191,7.69988304 39.1423002,7.69988304 C39.5713813,7.69988304 39.9192203,8.04772201 39.9192203,8.47680312 C39.9192203,8.90588423 39.5713813,9.2537232 39.1423002,9.2537232 Z"></path>
            </mask>
            <path d="M23.8247953,31.9839376 C25.151423,31.9839376 26.2307992,33.0632359 26.2307992,34.3899415 C26.2307992,35.7166472 25.151423,36.7959454 23.8247953,36.7959454 L15.6810136,36.7959454 C13.9922027,36.7959454 12.4042105,36.051384 11.3241326,34.7530604 L9.37660819,32.4121637 C8.59875244,31.477115 7.45730994,30.9388694 6.24187135,30.9319298 C5.95532164,31.6410916 5.26019493,32.142924 4.44959064,32.142924 L3.63992203,32.142924 C3.20935673,32.142924 2.8602729,31.7938402 2.8602729,31.3632749 C2.8602729,30.9326316 3.20935673,30.5836257 3.63992203,30.5836257 L4.44966862,30.5836257 C4.65551657,30.5836257 4.82292398,30.4161404 4.82292398,30.2103704 L4.82292398,23.9614035 C4.82292398,23.7556335 4.65551657,23.5881481 4.44966862,23.5881481 L1.55929825,23.5881481 L1.55929825,28.5097076 C1.55929825,28.9403509 1.21021442,29.2893567 0.779649123,29.2893567 C0.349083821,29.2893567 0,28.9402729 0,28.5097076 L0,22.808577 C0,22.3779337 0.349083821,22.0289279 0.779649123,22.0289279 L4.44959064,22.0289279 C5.2494347,22.0289279 5.93738791,22.5174269 6.23072125,23.2116959 L9.25278752,23.2116959 C11.0745419,23.2116959 12.7996101,23.90846 14.1102534,25.1736452 L18.3136062,29.2309552 C19.2156725,30.1017544 19.2576998,31.5596881 18.4073294,32.4809357 C17.9501754,32.9761404 17.3247563,33.2272904 16.6975439,33.2272904 C16.1357505,33.2272904 15.5725536,33.025809 15.1274854,32.6178558 L11.8274464,29.5928265 C11.5100195,29.3019103 11.488577,28.8087329 11.7795712,28.491306 C12.0704873,28.1738791 12.5637427,28.1525146 12.8810136,28.4434308 L16.1810526,31.46846 C16.491306,31.7528265 16.9759844,31.7326316 17.2615205,31.4233918 C17.5416764,31.119922 17.5277973,30.6396101 17.2306433,30.3527485 L13.0272904,26.2954386 C12.0088889,25.3123587 10.66846,24.7709162 9.25278752,24.7709162 L6.38214425,24.7709162 L6.38214425,29.3765302 C8.0094347,29.4230799 9.5302924,30.1587524 10.5752827,31.4148928 L12.522807,33.7557895 C13.305653,34.6969201 14.4568421,35.2366472 15.6810136,35.2366472 L23.8247953,35.2366472 C24.2917739,35.2366472 24.6715789,34.8568421 24.6715789,34.3899415 C24.6715789,33.9230409 24.2916959,33.5432359 23.8247953,33.5432359 L20.7995322,33.5432359 C20.3689669,33.5432359 20.019883,33.19423 20.019883,32.7635867 C20.019883,32.3329435 20.3689669,31.9839376 20.7995322,31.9839376 L23.8247953,31.9839376 Z M39.1423782,10.2463158 C39.5729435,10.2463158 39.9220273,10.5953216 39.9221053,11.025809 L39.9221053,17.0315789 C39.9221053,17.4622222 39.5730214,17.8112281 39.1424561,17.8112281 L35.4724366,17.8112281 C34.6725926,17.8112281 33.9846394,17.322729 33.691306,16.62846 L30.6692398,16.62846 C28.8474854,16.62846 27.1224172,15.9316959 25.8117739,14.6665107 L21.6084211,10.6092008 C20.7063548,9.73847953 20.6643275,8.28054581 21.5146979,7.35922027 C22.3814425,6.42042885 23.8526316,6.35890838 24.7945419,7.22230019 L28.0946589,10.2472515 C28.4120858,10.5381676 28.4335283,11.031345 28.1426121,11.3487719 C27.85154,11.6661988 27.3585185,11.6875634 27.0410916,11.3966472 L23.7409747,8.37161793 C23.4307212,8.08725146 22.9460429,8.10736842 22.6605068,8.41668616 C22.3803509,8.72023392 22.39423,9.20046784 22.691384,9.48732943 L26.8947368,13.5446394 C27.9131384,14.5277193 29.2535673,15.0691618 30.6692398,15.0691618 L33.539883,15.0691618 L33.539883,10.4635478 C31.9125926,10.4169201 30.3916569,9.68124756 29.3467446,8.42510721 L27.3992203,6.0842885 C26.6163743,5.14315789 25.4651852,4.6034308 24.2409357,4.6034308 L16.097232,4.6034308 C15.6302534,4.6034308 15.2504483,4.98331384 15.2504483,5.45013645 C15.2504483,5.91703704 15.6303314,6.29684211 16.097232,6.29684211 L19.4272904,6.29684211 C19.8578558,6.29684211 20.2069396,6.64584795 20.2069396,7.07649123 C20.2069396,7.5071345 19.8578558,7.85614035 19.4272904,7.85614035 L16.097232,7.85614035 C14.7706043,7.85614035 13.6912281,6.77684211 13.6912281,5.45021442 C13.6912281,4.12358674 14.7706043,3.0442885 16.097232,3.0442885 L24.2408577,3.0442885 C25.9297466,3.0442885 27.5178168,3.78892788 28.5978168,5.08725146 L30.5453411,7.42807018 C31.3231969,8.36311891 32.4646394,8.90136452 33.680078,8.90830409 C33.9666277,8.1991423 34.6617544,7.69730994 35.4723587,7.69730994 L36.2248733,7.69730994 C36.6554386,7.69730994 37.0045224,8.04639376 37.0045224,8.47695906 C37.0045224,8.90760234 36.6554386,9.25660819 36.2248733,9.25660819 L35.4723587,9.25660819 C35.2665107,9.25660819 35.0991033,9.42409357 35.0991033,9.62986355 L35.0991033,15.8788304 C35.0991033,16.0846004 35.2665107,16.2520858 35.4723587,16.2520858 L38.362729,16.2520858 L38.362729,11.0259649 C38.362729,10.5953216 38.7118129,10.2463158 39.1423782,10.2463158 Z M25.1725536,29.5608577 C25.3497856,29.9532943 25.1741131,30.4155945 24.7816764,30.5928265 C24.7784795,30.59423 24.7681871,30.5988304 24.7649123,30.6002339 C24.6635478,30.6443665 24.5579727,30.6652632 24.4540351,30.6652632 C24.1532164,30.6652632 23.8665887,30.4901365 23.7388694,30.1967251 C23.5669396,29.8020273 23.7475244,29.3426121 24.1423782,29.1706823 C24.534425,28.9934503 24.9952437,29.168499 25.1725536,29.5608577 Z M27.1105653,28.2482651 C27.3653801,28.594308 27.2953606,29.0789864 26.9500195,29.3347368 C26.9488499,29.3355945 26.9415205,29.3410526 26.9402729,29.3419103 C26.8014815,29.4435088 26.6401559,29.4924756 26.4803119,29.4924756 C26.2401559,29.4924756 26.0034308,29.3819103 25.8506823,29.1733333 C25.5963353,28.8259649 25.6718129,28.3380897 26.0191813,28.0837427 C26.36577,27.8300195 26.8556725,27.9020663 27.1105653,28.2482651 Z M22.9929045,30.4361014 C23.0820273,30.857232 22.8139571,31.2706433 22.3929045,31.359922 C22.3877583,31.3610136 22.3749708,31.3635867 22.3699025,31.3646004 C22.3205458,31.3740351 22.2711891,31.3786355 22.2226901,31.3786355 C21.8559844,31.3786355 21.5292008,31.1187524 21.4577778,30.7452632 C21.3773099,30.3242105 21.6517739,29.9175828 22.0715789,29.83423 C22.4918519,29.7473684 22.9040936,30.0162183 22.9929045,30.4361014 Z M28.7392593,26.5525146 C28.4195712,26.2641715 27.9267057,26.2895127 27.6382066,26.6092788 C27.634386,26.6135673 27.6254191,26.6237037 27.6216764,26.6279922 C27.3403509,26.9539961 27.3766862,27.4463158 27.7026901,27.7275634 C27.8499805,27.8546589 28.0311891,27.9168811 28.21154,27.9168811 C28.4280702,27.9168811 28.6433528,27.8272125 28.797271,27.6522417 C29.0843665,27.3324756 29.0585575,26.8404678 28.7392593,26.5525146 Z M28.3095128,27.2240955 L28.217154,27.131462 L28.317154,27.231462 L28.3095128,27.2240955 Z M30.7236647,22.3273294 C31.1356725,22.4522417 31.3692008,22.8853021 31.2442885,23.2973879 L31.2410136,23.3080702 C31.1379337,23.6432749 30.8293957,23.8586355 30.4961404,23.8586355 C30.4201949,23.8586355 30.3430019,23.8474854 30.2666667,23.8239376 C29.8551267,23.6973099 29.6241715,23.2610526 29.7507992,22.8495127 C29.8757895,22.4374269 30.3116569,22.2023392 30.7236647,22.3273294 Z M31.7222612,18.3034698 C31.7981287,18.7273294 31.5161014,19.1324756 31.0922417,19.2083431 C31.045848,19.2166862 30.9995322,19.2206628 30.9539181,19.2206628 C30.5868226,19.2206628 30.2608187,18.9603119 30.1893177,18.5883041 C30.1047953,18.168655 30.3746589,17.7582066 30.794386,17.6707212 C31.2155945,17.582846 31.628538,17.8523977 31.7165692,18.2737622 C31.7186745,18.2836647 31.7205458,18.2935673 31.7222612,18.3034698 Z M31.0072515,19.9950877 C31.4349318,20.0328265 31.751345,20.4091228 31.7157895,20.8364133 C31.6859259,21.2452242 31.3447953,21.5591423 30.9388694,21.5591423 C30.9234308,21.5591423 30.9079922,21.5586745 30.8923977,21.5577388 C30.4625341,21.5324756 30.1346589,21.1635088 30.159922,20.7336452 C30.1603899,20.7260819 30.1614815,20.7107212 30.1621832,20.7031579 C30.2,20.274308 30.5797271,19.9573489 31.0072515,19.9950877 Z M29.9604678,24.545809 C30.3351267,24.7581287 30.4666667,25.2338402 30.254347,25.608499 L29.5760624,25.2240936 L30.2538012,25.6094347 C30.1130604,25.8689279 29.8472515,26.0148928 29.5720858,26.0148928 C29.445848,26.0148928 29.3177388,25.9842495 29.1986745,25.9196881 C28.8202729,25.714386 28.6817154,25.2377388 28.8870175,24.8592593 L28.8978558,24.8397661 C29.1100975,24.4651072 29.5861988,24.3336452 29.9604678,24.545809 Z M15.8202729,9.69785575 C16.0127875,10.0830409 15.8567641,10.551345 15.4715789,10.7438596 C15.3592203,10.8 15.2394542,10.8266667 15.1214035,10.8266667 C14.8349318,10.8266667 14.5585965,10.6696296 14.4222222,10.3968031 C14.2296296,10.0116959 14.3822222,9.54518519 14.7674074,9.35259259 L14.774347,9.34916179 C15.1592203,9.15649123 15.6277583,9.31267057 15.8202729,9.69785575 Z M18.0757895,9.04779727 C18.177232,9.4662768 17.9202339,9.8877193 17.5018324,9.98916179 C17.4366472,10.0059259 17.371306,10.0139571 17.3070565,10.0139571 C16.9601559,10.0139571 16.6446004,9.78011696 16.5539181,9.42830409 C16.4465497,9.01138402 16.6991033,8.58588694 17.1161014,8.47844055 C17.1196881,8.47750487 17.1307602,8.47469786 17.134347,8.47384016 C17.5534503,8.37231969 17.974347,8.62947368 18.0757895,9.04779727 Z M13.7587524,10.8221442 C14.0283821,11.157193 13.9766082,11.6466277 13.6421053,11.9168031 L13.6318129,11.9250682 C13.4882651,12.0392982 13.3168031,12.0948148 13.1466667,12.0948148 C12.9173489,12.0948148 12.6902144,11.994152 12.5361404,11.8007797 C12.2679922,11.4639376 12.3235867,10.9734893 12.6604288,10.7052632 L13.1461209,11.3151657 L12.662768,10.7034698 C12.9982066,10.4344639 13.4891228,10.4870955 13.7587524,10.8221442 Z M9.60179337,16.3692788 C10.0140351,16.4817154 10.2583236,16.9045614 10.151423,17.3168811 C10.062846,17.6706433 9.74502924,17.9079922 9.39524366,17.9079922 C9.33442495,17.9079922 9.27267057,17.9008187 9.21091618,17.885848 C8.79267057,17.7842495 8.53567251,17.3635867 8.63703704,16.9452632 C8.63883041,16.9380897 8.6425731,16.9233528 8.64452242,16.9162573 C8.75781676,16.5008187 9.18635478,16.2560624 9.60179337,16.3692788 Z M9.10510721,18.660039 C9.53169591,18.6848343 9.85824561,19.0481092 9.83875244,19.4737622 C9.82331384,19.8935673 9.47797271,20.2251852 9.06003899,20.2251852 C9.05216374,20.2251852 9.04436647,20.2250292 9.03641326,20.2247953 C8.60615984,20.2119298 8.26768031,19.8534893 8.28031189,19.4233138 C8.28062378,19.4133333 8.28101365,19.4033528 8.28163743,19.3932943 C8.30658869,18.9635088 8.67415205,18.6361014 9.10510721,18.660039 Z M10.5830019,14.2386745 C10.9617934,14.4374269 11.1093177,14.9037037 10.9151657,15.2836647 C10.7785575,15.5565692 10.502924,15.7150097 10.2166082,15.7150097 C10.1009747,15.7150097 9.98378168,15.6892788 9.87321637,15.6347758 C9.48709552,15.4446004 9.3277193,14.9781676 9.51773879,14.5919688 L9.53044834,14.5668616 C9.73044834,14.185575 10.2016374,14.0385965 10.5830019,14.2386745 Z M11.9910331,12.362885 C12.3205458,12.6364912 12.3673294,13.1242885 12.097232,13.4554386 C11.9432359,13.6474074 11.7164912,13.7475244 11.4877973,13.7475244 C11.3181287,13.7475244 11.1473684,13.6924756 11.0042105,13.5788694 C10.6669786,13.311423 10.6098246,12.8219103 10.877115,12.4845224 C10.8808577,12.479922 10.8894347,12.4693177 10.8931774,12.4647173 C11.1681871,12.1334893 11.6597271,12.0878752 11.9910331,12.362885 Z M9.98619883,21.6376608 C10.0621442,22.0615205 9.78074074,22.4704873 9.35688109,22.5463548 C9.30994152,22.5547758 9.26323587,22.5588304 9.217154,22.5588304 C8.84748538,22.5588304 8.52023392,22.297076 8.45270955,21.9202339 L8.45130604,21.9125926 C8.3754386,21.4887329 8.65746589,21.0836647 9.08132554,21.0077193 C9.50495127,20.9317739 9.91033138,21.2138012 9.98619883,21.6376608 Z M22.6379727,15.7192982 C21.6231579,15.7192982 20.682885,16.1377778 20.0128655,16.8439766 C19.342768,16.1377778 18.4025731,15.7192982 17.3877583,15.7192982 C15.391423,15.7192982 13.7673294,17.3433918 13.7673294,19.3397271 C13.7673294,20.4169201 14.2424172,21.4307212 15.0706433,22.1212476 C15.0756335,22.1254581 15.0807797,22.1295906 15.0859259,22.1337232 L19.5288889,25.6512281 C19.6706433,25.7635088 19.8417154,25.8195712 20.0127875,25.8195712 C20.1846394,25.8195712 20.3564912,25.762963 20.4985575,25.6497466 L25.1297466,21.9608577 C25.1524366,21.942846 25.1740351,21.9235088 25.1945419,21.9030799 C25.8806238,21.2188694 26.2584016,20.308538 26.2584016,19.3397271 C26.2584016,17.3433918 24.634308,15.7192982 22.6379727,15.7192982 Z M24.1216374,20.7706043 L20.011462,24.0445224 L16.0621442,20.9178947 C15.5946199,20.5246004 15.3266277,19.9500195 15.3266277,19.339883 C15.3265497,18.2032749 16.2512281,17.2785965 17.3877583,17.2785965 C18.2244834,17.2785965 18.9721637,17.7783236 19.2926316,18.5516569 C19.4134113,18.842885 19.6976218,19.0328265 20.0128655,19.0328265 C20.3281092,19.0328265 20.6123197,18.842963 20.7330994,18.5516569 C21.0535673,17.7783236 21.8012476,17.2785965 22.6379727,17.2785965 C23.7745029,17.2785965 24.6991813,18.2032749 24.6991813,19.3398051 C24.6991813,19.8779727 24.494347,20.3844834 24.1216374,20.7706043 Z M0.779649123,32.1402729 C0.350568012,32.1402729 0.00272904483,31.7924339 0.00272904483,31.3633528 C0.00272904483,30.9342717 0.350568012,30.5864327 0.779649123,30.5864327 C1.20873023,30.5864327 1.5565692,30.9342717 1.5565692,31.3633528 C1.5565692,31.7924339 1.20873023,32.1402729 0.779649123,32.1402729 Z M39.1423002,9.2537232 C38.7132191,9.2537232 38.3653801,8.90588423 38.3653801,8.47680312 C38.3653801,8.04772201 38.7132191,7.69988304 39.1423002,7.69988304 C39.5713813,7.69988304 39.9192203,8.04772201 39.9192203,8.47680312 C39.9192203,8.90588423 39.5713813,9.2537232 39.1423002,9.2537232 Z" fill="#000000" fill-rule="nonzero"></path>
        </g>
    </g>
</svg>
