<?xml version="1.0" encoding="UTF-8"?>
<svg width="18px" height="17px" viewBox="0 0 18 17" version="1.1" xmlns="http://www.w3.org/2000/svg" xmlns:xlink="http://www.w3.org/1999/xlink">
    <!-- Generator: Sketch 49.3 (51167) - http://www.bohemiancoding.com/sketch -->
    <title>filter</title>
    <desc>Created with Sketch.</desc>
    <g id="Marvel" stroke="none" stroke-width="1" fill="none" fill-rule="evenodd">
        <g id="Facebid_Filters_Group_00" transform="translate(-1258.000000, -36.000000)">
            <g id="Group-3-Copy" transform="translate(370.000000, 0.000000)">
                <g id="top" transform="translate(7.000000, 25.000000)">
                    <g id="Group-Copy" transform="translate(870.000000, 0.000000)">
                        <g id="Component-/-Icons-/-S-/-Arrows-/-Right" transform="translate(8.000000, 8.000000)">
                            <mask id="mask-2" fill="white">
                                <path d="M3,5 L12,5 L12,6 L3,6 L3,5 Z M18,5 L21,5 L21,6 L18,6 L18,5 Z M16.5,7 C17.3284271,7 18,6.32842712 18,5.5 C18,4.67157288 17.3284271,4 16.5,4 C15.6715729,4 15,4.67157288 15,5.5 C15,6.32842712 15.6715729,7 16.5,7 Z M16.5,8 C15.1192881,8 14,6.88071187 14,5.5 C14,4.11928813 15.1192881,3 16.5,3 C17.8807119,3 19,4.11928813 19,5.5 C19,6.88071187 17.8807119,8 16.5,8 Z M3,17 L9,17 L9,18 L3,18 L3,17 Z M15,17 L21,17 L21,18 L15,18 L15,17 Z M13.5,19 C14.3284271,19 15,18.3284271 15,17.5 C15,16.6715729 14.3284271,16 13.5,16 C12.6715729,16 12,16.6715729 12,17.5 C12,18.3284271 12.6715729,19 13.5,19 Z M13.5,20 C12.1192881,20 11,18.8807119 11,17.5 C11,16.1192881 12.1192881,15 13.5,15 C14.8807119,15 16,16.1192881 16,17.5 C16,18.8807119 14.8807119,20 13.5,20 Z M3,11 L6,11 L6,12 L3,12 L3,11 Z M11,11 L21,11 L21,12 L11,12 L11,11 Z M7.5,13 C8.32842712,13 9,12.3284271 9,11.5 C9,10.6715729 8.32842712,10 7.5,10 C6.67157288,10 6,10.6715729 6,11.5 C6,12.3284271 6.67157288,13 7.5,13 Z M7.5,14 C6.11928813,14 5,12.8807119 5,11.5 C5,10.1192881 6.11928813,9 7.5,9 C8.88071187,9 10,10.1192881 10,11.5 C10,12.8807119 8.88071187,14 7.5,14 Z"></path>
                            </mask>
                            <path d="M3,5 L12,5 L12,6 L3,6 L3,5 Z M18,5 L21,5 L21,6 L18,6 L18,5 Z M16.5,7 C17.3284271,7 18,6.32842712 18,5.5 C18,4.67157288 17.3284271,4 16.5,4 C15.6715729,4 15,4.67157288 15,5.5 C15,6.32842712 15.6715729,7 16.5,7 Z M16.5,8 C15.1192881,8 14,6.88071187 14,5.5 C14,4.11928813 15.1192881,3 16.5,3 C17.8807119,3 19,4.11928813 19,5.5 C19,6.88071187 17.8807119,8 16.5,8 Z M3,17 L9,17 L9,18 L3,18 L3,17 Z M15,17 L21,17 L21,18 L15,18 L15,17 Z M13.5,19 C14.3284271,19 15,18.3284271 15,17.5 C15,16.6715729 14.3284271,16 13.5,16 C12.6715729,16 12,16.6715729 12,17.5 C12,18.3284271 12.6715729,19 13.5,19 Z M13.5,20 C12.1192881,20 11,18.8807119 11,17.5 C11,16.1192881 12.1192881,15 13.5,15 C14.8807119,15 16,16.1192881 16,17.5 C16,18.8807119 14.8807119,20 13.5,20 Z M3,11 L6,11 L6,12 L3,12 L3,11 Z M11,11 L21,11 L21,12 L11,12 L11,11 Z M7.5,13 C8.32842712,13 9,12.3284271 9,11.5 C9,10.6715729 8.32842712,10 7.5,10 C6.67157288,10 6,10.6715729 6,11.5 C6,12.3284271 6.67157288,13 7.5,13 Z M7.5,14 C6.11928813,14 5,12.8807119 5,11.5 C5,10.1192881 6.11928813,9 7.5,9 C8.88071187,9 10,10.1192881 10,11.5 C10,12.8807119 8.88071187,14 7.5,14 Z" fill="#D8D8D8" fill-rule="nonzero"></path>
                        </g>
                    </g>
                </g>
            </g>
        </g>
    </g>
</svg>
