<?xml version="1.0" encoding="UTF-8"?>
<svg width="37px" height="38px" viewBox="0 0 37 38" version="1.1" xmlns="http://www.w3.org/2000/svg" xmlns:xlink="http://www.w3.org/1999/xlink">
    <!-- Generator: Sketch 49.3 (51167) - http://www.bohemiancoding.com/sketch -->
    <title>filter-category-1</title>
    <desc>Created with Sketch.</desc>
    <g id="Symbols" stroke="none" stroke-width="1" fill="none" fill-rule="evenodd">
        <g id="Elements-/-Sort-/-Card-/-~Parts-/-Icon_01" transform="translate(-2.000000, -1.000000)">
            <mask id="mask-2" fill="white">
                <path d="M33.5436,32.4305333 C33.3796,32.5845333 33.3042667,32.8112 33.3429333,33.0325333 L34.0529333,37.0238667 L30.3009333,35.1218667 C30.2049333,35.0738667 30.1029333,35.0505333 29.9996,35.0505333 C29.8956,35.0505333 29.7929333,35.0738667 29.6976,35.1218667 L25.9462667,37.0238667 L26.6556,33.0325333 C26.6956,32.8112 26.6189333,32.5845333 26.4549333,32.4305333 L23.4696,29.6252 L27.6189333,29.0438667 C27.8342667,29.0138667 28.0216,28.8812 28.1196,28.6885333 L29.9989333,25.0185333 L31.8776,28.6885333 C31.9756,28.8812 32.1636,29.0138667 32.3782667,29.0438667 L36.5282667,29.6252 L33.5436,32.4305333 Z M38.6356,28.9558667 C38.7129333,29.2005333 38.6429333,29.4678667 38.4576,29.6432 L34.7216,33.1552 L35.6022667,38.1065333 C35.6456,38.3558667 35.5462667,38.6078667 35.3429333,38.7578667 C35.2256,38.8452 35.0856,38.8892 34.9456,38.8892 C34.8422667,38.8892 34.7396,38.8658667 34.6436,38.8172 L30.0016,36.4652 L25.3589333,38.8172 C25.1336,38.9325333 24.8629333,38.9092 24.6596,38.7578667 C24.4562667,38.6078667 24.3569333,38.3552 24.4002667,38.1065333 L25.2809333,33.1552 L21.5449333,29.6432 C21.3576,29.4685333 21.2876,29.2012 21.3649333,28.9558667 C21.4429333,28.7105333 21.6542667,28.5332 21.9082667,28.4978667 L27.0922667,27.7718667 L29.4076,23.2512 C29.6349333,22.8058667 30.3649333,22.8058667 30.5929333,23.2512 L32.9082667,27.7718667 L38.0922667,28.4978667 C38.3456,28.5332 38.5576,28.7112 38.6356,28.9558667 Z M32,9.00013333 C32.3686667,9.00013333 32.6666667,9.29813333 32.6666667,9.6668 C32.6666667,10.0354667 32.3686667,10.3334667 32,10.3334667 L20,10.3334667 C19.6313333,10.3334667 19.3333333,10.0354667 19.3333333,9.6668 C19.3333333,9.29813333 19.6313333,9.00013333 20,9.00013333 L32,9.00013333 Z M32,18.3334667 C32.3686667,18.3334667 32.6666667,18.6314667 32.6666667,19.0001333 C32.6666667,19.3688 32.3686667,19.6668 32,19.6668 L20,19.6668 C19.6313333,19.6668 19.3333333,19.3688 19.3333333,19.0001333 C19.3333333,18.6314667 19.6313333,18.3334667 20,18.3334667 L32,18.3334667 Z M15.7194,5.82733333 C15.9994,6.06733333 16.0320667,6.48733333 15.7920667,6.766 L11.2207333,12.0993333 C11.0894,12.2533333 10.9027333,12.3326667 10.7140667,12.3326667 C10.5747333,12.3326667 10.4340667,12.2893333 10.3147333,12.1993333 L7.2674,9.91333333 C6.97273333,9.69266667 6.91273333,9.27466667 7.13406667,8.98066667 C7.35473333,8.68533333 7.77273333,8.62733333 8.06673333,8.84733333 L10.6147333,10.758 L14.7800667,5.89933333 C15.0194,5.61933333 15.4407333,5.588 15.7194,5.82733333 Z M15.7194,15.1606667 C15.9994,15.4006667 16.0320667,15.8206667 15.7920667,16.0993333 L11.2207333,21.4326667 C11.0894,21.5866667 10.9027333,21.666 10.7140667,21.666 C10.5747333,21.666 10.4340667,21.6226667 10.3147333,21.5326667 L7.2674,19.2466667 C6.97273333,19.026 6.91273333,18.608 7.13406667,18.314 C7.35473333,18.0186667 7.77273333,17.9606667 8.06673333,18.1806667 L10.6147333,20.0913333 L14.7800667,15.2326667 C15.0194,14.9526667 15.4407333,14.9213333 15.7194,15.1606667 Z M14.7799333,25.2332667 C15.0192667,24.9532667 15.4406,24.9212667 15.7199333,25.1612667 C15.9999333,25.3999333 16.0319333,25.8206 15.7919333,26.0999333 L11.2206,31.4326 C11.0892667,31.5866 10.9026,31.6659333 10.7139333,31.6659333 C10.5746,31.6659333 10.4339333,31.6226 10.3146,31.5326 L7.26726667,29.2472667 C6.9726,29.0259333 6.9126,28.6079333 7.13393333,28.3139333 C7.3546,28.0186 7.7726,27.9599333 8.0666,28.1806 L10.6146,30.0912667 L14.7799333,25.2332667 Z M20,35.6668 C20.3686667,35.6668 20.6666667,35.9641333 20.6666667,36.3334667 C20.6666667,36.7021333 20.3686667,37.0001333 20,37.0001333 L10.1173333,37.0001333 C5.64133333,37.0001333 2,33.3588 2,28.8828 L2,9.11746667 C2,4.64146667 5.64133333,1.00013333 10.1173333,1.00013333 L29.8826667,1.00013333 C34.3586667,1.00013333 38,4.64146667 38,9.11746667 L38,25.0541333 C38,25.4228 37.702,25.7208 37.3333333,25.7208 C36.9646667,25.7208 36.6666667,25.4228 36.6666667,25.0541333 L36.6666667,9.11746667 C36.6666667,5.37613333 33.6233333,2.33346667 29.8826667,2.33346667 L10.1173333,2.33346667 C6.376,2.33346667 3.33333333,5.37613333 3.33333333,9.11746667 L3.33333333,28.8828 C3.33333333,32.6241333 6.376,35.6668 10.1173333,35.6668 L20,35.6668 Z"></path>
            </mask>
            <path d="M33.5436,32.4305333 C33.3796,32.5845333 33.3042667,32.8112 33.3429333,33.0325333 L34.0529333,37.0238667 L30.3009333,35.1218667 C30.2049333,35.0738667 30.1029333,35.0505333 29.9996,35.0505333 C29.8956,35.0505333 29.7929333,35.0738667 29.6976,35.1218667 L25.9462667,37.0238667 L26.6556,33.0325333 C26.6956,32.8112 26.6189333,32.5845333 26.4549333,32.4305333 L23.4696,29.6252 L27.6189333,29.0438667 C27.8342667,29.0138667 28.0216,28.8812 28.1196,28.6885333 L29.9989333,25.0185333 L31.8776,28.6885333 C31.9756,28.8812 32.1636,29.0138667 32.3782667,29.0438667 L36.5282667,29.6252 L33.5436,32.4305333 Z M38.6356,28.9558667 C38.7129333,29.2005333 38.6429333,29.4678667 38.4576,29.6432 L34.7216,33.1552 L35.6022667,38.1065333 C35.6456,38.3558667 35.5462667,38.6078667 35.3429333,38.7578667 C35.2256,38.8452 35.0856,38.8892 34.9456,38.8892 C34.8422667,38.8892 34.7396,38.8658667 34.6436,38.8172 L30.0016,36.4652 L25.3589333,38.8172 C25.1336,38.9325333 24.8629333,38.9092 24.6596,38.7578667 C24.4562667,38.6078667 24.3569333,38.3552 24.4002667,38.1065333 L25.2809333,33.1552 L21.5449333,29.6432 C21.3576,29.4685333 21.2876,29.2012 21.3649333,28.9558667 C21.4429333,28.7105333 21.6542667,28.5332 21.9082667,28.4978667 L27.0922667,27.7718667 L29.4076,23.2512 C29.6349333,22.8058667 30.3649333,22.8058667 30.5929333,23.2512 L32.9082667,27.7718667 L38.0922667,28.4978667 C38.3456,28.5332 38.5576,28.7112 38.6356,28.9558667 Z M32,9.00013333 C32.3686667,9.00013333 32.6666667,9.29813333 32.6666667,9.6668 C32.6666667,10.0354667 32.3686667,10.3334667 32,10.3334667 L20,10.3334667 C19.6313333,10.3334667 19.3333333,10.0354667 19.3333333,9.6668 C19.3333333,9.29813333 19.6313333,9.00013333 20,9.00013333 L32,9.00013333 Z M32,18.3334667 C32.3686667,18.3334667 32.6666667,18.6314667 32.6666667,19.0001333 C32.6666667,19.3688 32.3686667,19.6668 32,19.6668 L20,19.6668 C19.6313333,19.6668 19.3333333,19.3688 19.3333333,19.0001333 C19.3333333,18.6314667 19.6313333,18.3334667 20,18.3334667 L32,18.3334667 Z M15.7194,5.82733333 C15.9994,6.06733333 16.0320667,6.48733333 15.7920667,6.766 L11.2207333,12.0993333 C11.0894,12.2533333 10.9027333,12.3326667 10.7140667,12.3326667 C10.5747333,12.3326667 10.4340667,12.2893333 10.3147333,12.1993333 L7.2674,9.91333333 C6.97273333,9.69266667 6.91273333,9.27466667 7.13406667,8.98066667 C7.35473333,8.68533333 7.77273333,8.62733333 8.06673333,8.84733333 L10.6147333,10.758 L14.7800667,5.89933333 C15.0194,5.61933333 15.4407333,5.588 15.7194,5.82733333 Z M15.7194,15.1606667 C15.9994,15.4006667 16.0320667,15.8206667 15.7920667,16.0993333 L11.2207333,21.4326667 C11.0894,21.5866667 10.9027333,21.666 10.7140667,21.666 C10.5747333,21.666 10.4340667,21.6226667 10.3147333,21.5326667 L7.2674,19.2466667 C6.97273333,19.026 6.91273333,18.608 7.13406667,18.314 C7.35473333,18.0186667 7.77273333,17.9606667 8.06673333,18.1806667 L10.6147333,20.0913333 L14.7800667,15.2326667 C15.0194,14.9526667 15.4407333,14.9213333 15.7194,15.1606667 Z M14.7799333,25.2332667 C15.0192667,24.9532667 15.4406,24.9212667 15.7199333,25.1612667 C15.9999333,25.3999333 16.0319333,25.8206 15.7919333,26.0999333 L11.2206,31.4326 C11.0892667,31.5866 10.9026,31.6659333 10.7139333,31.6659333 C10.5746,31.6659333 10.4339333,31.6226 10.3146,31.5326 L7.26726667,29.2472667 C6.9726,29.0259333 6.9126,28.6079333 7.13393333,28.3139333 C7.3546,28.0186 7.7726,27.9599333 8.0666,28.1806 L10.6146,30.0912667 L14.7799333,25.2332667 Z M20,35.6668 C20.3686667,35.6668 20.6666667,35.9641333 20.6666667,36.3334667 C20.6666667,36.7021333 20.3686667,37.0001333 20,37.0001333 L10.1173333,37.0001333 C5.64133333,37.0001333 2,33.3588 2,28.8828 L2,9.11746667 C2,4.64146667 5.64133333,1.00013333 10.1173333,1.00013333 L29.8826667,1.00013333 C34.3586667,1.00013333 38,4.64146667 38,9.11746667 L38,25.0541333 C38,25.4228 37.702,25.7208 37.3333333,25.7208 C36.9646667,25.7208 36.6666667,25.4228 36.6666667,25.0541333 L36.6666667,9.11746667 C36.6666667,5.37613333 33.6233333,2.33346667 29.8826667,2.33346667 L10.1173333,2.33346667 C6.376,2.33346667 3.33333333,5.37613333 3.33333333,9.11746667 L3.33333333,28.8828 C3.33333333,32.6241333 6.376,35.6668 10.1173333,35.6668 L20,35.6668 Z" fill="#000000"></path>
        </g>
    </g>
</svg>
