<?xml version="1.0" encoding="UTF-8"?>
<svg width="40px" height="40px" viewBox="0 0 40 40" version="1.1" xmlns="http://www.w3.org/2000/svg" xmlns:xlink="http://www.w3.org/1999/xlink">
    <!-- Generator: Sketch 49.3 (51167) - http://www.bohemiancoding.com/sketch -->
    <title>filter-category-9</title>
    <desc>Created with Sketch.</desc>
    <g id="Symbols" stroke="none" stroke-width="1" fill="none" fill-rule="evenodd">
        <g id="Elements-/-Sort-/-Card-/-~Parts-/-Icon_09">
            <mask id="mask-2" fill="white">
                <path d="M39.3086667,29.4126667 C39.2313333,29.168 39.0193333,28.99 38.766,28.954 L33.5813333,28.228 L31.2666667,23.708 C31.0386667,23.2626667 30.308,23.2626667 30.0806667,23.708 L27.766,28.228 L22.5813333,28.954 C22.3273333,28.99 22.116,29.1673333 22.0386667,29.4126667 C21.9613333,29.658 22.0306667,29.9246667 22.218,30.1 L25.9546667,33.6113333 L25.074,38.5626667 C25.03,38.8113333 25.13,39.064 25.3326667,39.2146667 C25.536,39.366 25.8066667,39.3893333 26.032,39.274 L30.6746667,36.922 L35.3173333,39.274 C35.4126667,39.3226667 35.516,39.346 35.6186667,39.346 C35.7593333,39.346 35.8993333,39.302 36.0166667,39.2146667 C36.2193333,39.064 36.3193333,38.812 36.2753333,38.5626667 L35.3946667,33.6113333 L39.1313333,30.1 C39.316,29.9246667 39.386,29.6573333 39.3086667,29.4126667 Z M34.2166667,32.8866667 C34.0526667,33.0406667 33.9773333,33.2673333 34.0166667,33.4886667 L34.726,37.48 L30.974,35.5786667 C30.8786667,35.5306667 30.776,35.5066667 30.6726667,35.5066667 C30.5693333,35.5066667 30.466,35.5306667 30.3713333,35.5786667 L26.6193333,37.48 L27.3286667,33.4886667 C27.3686667,33.2673333 27.2926667,33.0406667 27.1286667,32.8866667 L24.1426667,30.082 L28.2926667,29.5006667 C28.5073333,29.4706667 28.6946667,29.338 28.7933333,29.1446667 L30.672,25.4753333 L32.5506667,29.1446667 C32.6493333,29.338 32.8366667,29.4706667 33.0513333,29.5006667 L37.2013333,30.082 L34.2166667,32.8866667 Z M24.0066667,21.3333333 L30.0066667,21.3333333 L30.0066667,14 L24.0066667,14 L22.6733333,14 L18.0066667,14 L16.6733333,14 L12.0066667,14 L10.6733333,14 L4.67333333,14 L4.67333333,20 L4.67333333,21.3333333 L4.67333333,26 L4.67333333,27.3333333 L4.67333333,33.3333333 L10.6733333,33.3333333 L12.0066667,33.3333333 L18.0066667,33.3333333 L18.0066667,27.3333333 L24.0066667,27.3333333 L24.0066667,21.3333333 Z M24.0066667,15.3333333 L28.6733333,15.3333333 L28.6733333,20 L24.0066667,20 L24.0066667,15.3333333 Z M18.0066667,15.3333333 L22.6733333,15.3333333 L22.6733333,20 L18.0066667,20 L18.0066667,15.3333333 Z M12.0066667,15.3333333 L16.6733333,15.3333333 L16.6733333,20 L12.0066667,20 L12.0066667,15.3333333 Z M16.6733333,26 L12.0066667,26 L12.0066667,21.3333333 L16.6733333,21.3333333 L16.6733333,26 Z M6.00666667,15.3333333 L10.6733333,15.3333333 L10.6733333,20 L6.00666667,20 L6.00666667,15.3333333 Z M6.00666667,21.3333333 L10.6733333,21.3333333 L10.6733333,26 L6.00666667,26 L6.00666667,21.3333333 Z M10.6733333,32 L6.00666667,32 L6.00666667,27.3333333 L10.6733333,27.3333333 L10.6733333,32 Z M16.6733333,32 L12.0066667,32 L12.0066667,27.3333333 L16.6733333,27.3333333 L16.6733333,32 Z M22.6733333,26 L18.0066667,26 L18.0066667,21.3333333 L22.6733333,21.3333333 L22.6733333,26 Z M17.34,36.6666667 L1.34,36.6666667 L1.34,10.6666667 L33.34,10.6666667 L33.34,22 C33.34,22.3686667 33.638,22.6666667 34.0066667,22.6666667 C34.3753333,22.6666667 34.6733333,22.3686667 34.6733333,22 L34.6733333,10 L34.6733333,3.33333333 C34.6733333,2.96466667 34.3753333,2.66666667 34.0066667,2.66666667 L30.6733333,2.66666667 L30.6733333,0.666666667 C30.6733333,0.298 30.3753333,0 30.0066667,0 L25.34,0 C24.9713333,0 24.6733333,0.298 24.6733333,0.666666667 L24.6733333,2.66666667 L10.0066667,2.66666667 L10.0066667,0.666666667 C10.0066667,0.298 9.70866667,0 9.34,0 L4.67333333,0 C4.30466667,0 4.00666667,0.298 4.00666667,0.666666667 L4.00666667,2.66666667 L0.673333333,2.66666667 C0.304666667,2.66666667 0.00666666667,2.96466667 0.00666666667,3.33333333 L0.00666666667,10 L0.00666666667,37.3333333 C0.00666666667,37.702 0.304666667,38 0.673333333,38 L17.34,38 C17.7086667,38 18.0066667,37.702 18.0066667,37.3333333 C18.0066667,36.9646667 17.708,36.6666667 17.34,36.6666667 Z M26.0066667,1.33333333 L29.34,1.33333333 L29.34,3.33333333 L29.34,5.33333333 L26.0066667,5.33333333 L26.0066667,3.33333333 L26.0066667,1.33333333 Z M5.34,1.33333333 L8.67333333,1.33333333 L8.67333333,3.33333333 L8.67333333,5.33333333 L5.34,5.33333333 L5.34,3.33333333 L5.34,1.33333333 Z M1.34,4 L4.00666667,4 L4.00666667,6 C4.00666667,6.36866667 4.30466667,6.66666667 4.67333333,6.66666667 L9.34,6.66666667 C9.70866667,6.66666667 10.0066667,6.36866667 10.0066667,6 L10.0066667,4 L24.6733333,4 L24.6733333,6 C24.6733333,6.36866667 24.9713333,6.66666667 25.34,6.66666667 L30.0066667,6.66666667 C30.3753333,6.66666667 30.6733333,6.36866667 30.6733333,6 L30.6733333,4 L33.34,4 L33.34,9.33333333 L1.34,9.33333333 L1.34,4 Z"></path>
            </mask>
            <path d="M39.3086667,29.4126667 C39.2313333,29.168 39.0193333,28.99 38.766,28.954 L33.5813333,28.228 L31.2666667,23.708 C31.0386667,23.2626667 30.308,23.2626667 30.0806667,23.708 L27.766,28.228 L22.5813333,28.954 C22.3273333,28.99 22.116,29.1673333 22.0386667,29.4126667 C21.9613333,29.658 22.0306667,29.9246667 22.218,30.1 L25.9546667,33.6113333 L25.074,38.5626667 C25.03,38.8113333 25.13,39.064 25.3326667,39.2146667 C25.536,39.366 25.8066667,39.3893333 26.032,39.274 L30.6746667,36.922 L35.3173333,39.274 C35.4126667,39.3226667 35.516,39.346 35.6186667,39.346 C35.7593333,39.346 35.8993333,39.302 36.0166667,39.2146667 C36.2193333,39.064 36.3193333,38.812 36.2753333,38.5626667 L35.3946667,33.6113333 L39.1313333,30.1 C39.316,29.9246667 39.386,29.6573333 39.3086667,29.4126667 Z M34.2166667,32.8866667 C34.0526667,33.0406667 33.9773333,33.2673333 34.0166667,33.4886667 L34.726,37.48 L30.974,35.5786667 C30.8786667,35.5306667 30.776,35.5066667 30.6726667,35.5066667 C30.5693333,35.5066667 30.466,35.5306667 30.3713333,35.5786667 L26.6193333,37.48 L27.3286667,33.4886667 C27.3686667,33.2673333 27.2926667,33.0406667 27.1286667,32.8866667 L24.1426667,30.082 L28.2926667,29.5006667 C28.5073333,29.4706667 28.6946667,29.338 28.7933333,29.1446667 L30.672,25.4753333 L32.5506667,29.1446667 C32.6493333,29.338 32.8366667,29.4706667 33.0513333,29.5006667 L37.2013333,30.082 L34.2166667,32.8866667 Z M24.0066667,21.3333333 L30.0066667,21.3333333 L30.0066667,14 L24.0066667,14 L22.6733333,14 L18.0066667,14 L16.6733333,14 L12.0066667,14 L10.6733333,14 L4.67333333,14 L4.67333333,20 L4.67333333,21.3333333 L4.67333333,26 L4.67333333,27.3333333 L4.67333333,33.3333333 L10.6733333,33.3333333 L12.0066667,33.3333333 L18.0066667,33.3333333 L18.0066667,27.3333333 L24.0066667,27.3333333 L24.0066667,21.3333333 Z M24.0066667,15.3333333 L28.6733333,15.3333333 L28.6733333,20 L24.0066667,20 L24.0066667,15.3333333 Z M18.0066667,15.3333333 L22.6733333,15.3333333 L22.6733333,20 L18.0066667,20 L18.0066667,15.3333333 Z M12.0066667,15.3333333 L16.6733333,15.3333333 L16.6733333,20 L12.0066667,20 L12.0066667,15.3333333 Z M16.6733333,26 L12.0066667,26 L12.0066667,21.3333333 L16.6733333,21.3333333 L16.6733333,26 Z M6.00666667,15.3333333 L10.6733333,15.3333333 L10.6733333,20 L6.00666667,20 L6.00666667,15.3333333 Z M6.00666667,21.3333333 L10.6733333,21.3333333 L10.6733333,26 L6.00666667,26 L6.00666667,21.3333333 Z M10.6733333,32 L6.00666667,32 L6.00666667,27.3333333 L10.6733333,27.3333333 L10.6733333,32 Z M16.6733333,32 L12.0066667,32 L12.0066667,27.3333333 L16.6733333,27.3333333 L16.6733333,32 Z M22.6733333,26 L18.0066667,26 L18.0066667,21.3333333 L22.6733333,21.3333333 L22.6733333,26 Z M17.34,36.6666667 L1.34,36.6666667 L1.34,10.6666667 L33.34,10.6666667 L33.34,22 C33.34,22.3686667 33.638,22.6666667 34.0066667,22.6666667 C34.3753333,22.6666667 34.6733333,22.3686667 34.6733333,22 L34.6733333,10 L34.6733333,3.33333333 C34.6733333,2.96466667 34.3753333,2.66666667 34.0066667,2.66666667 L30.6733333,2.66666667 L30.6733333,0.666666667 C30.6733333,0.298 30.3753333,0 30.0066667,0 L25.34,0 C24.9713333,0 24.6733333,0.298 24.6733333,0.666666667 L24.6733333,2.66666667 L10.0066667,2.66666667 L10.0066667,0.666666667 C10.0066667,0.298 9.70866667,0 9.34,0 L4.67333333,0 C4.30466667,0 4.00666667,0.298 4.00666667,0.666666667 L4.00666667,2.66666667 L0.673333333,2.66666667 C0.304666667,2.66666667 0.00666666667,2.96466667 0.00666666667,3.33333333 L0.00666666667,10 L0.00666666667,37.3333333 C0.00666666667,37.702 0.304666667,38 0.673333333,38 L17.34,38 C17.7086667,38 18.0066667,37.702 18.0066667,37.3333333 C18.0066667,36.9646667 17.708,36.6666667 17.34,36.6666667 Z M26.0066667,1.33333333 L29.34,1.33333333 L29.34,3.33333333 L29.34,5.33333333 L26.0066667,5.33333333 L26.0066667,3.33333333 L26.0066667,1.33333333 Z M5.34,1.33333333 L8.67333333,1.33333333 L8.67333333,3.33333333 L8.67333333,5.33333333 L5.34,5.33333333 L5.34,3.33333333 L5.34,1.33333333 Z M1.34,4 L4.00666667,4 L4.00666667,6 C4.00666667,6.36866667 4.30466667,6.66666667 4.67333333,6.66666667 L9.34,6.66666667 C9.70866667,6.66666667 10.0066667,6.36866667 10.0066667,6 L10.0066667,4 L24.6733333,4 L24.6733333,6 C24.6733333,6.36866667 24.9713333,6.66666667 25.34,6.66666667 L30.0066667,6.66666667 C30.3753333,6.66666667 30.6733333,6.36866667 30.6733333,6 L30.6733333,4 L33.34,4 L33.34,9.33333333 L1.34,9.33333333 L1.34,4 Z" fill="#000000" fill-rule="nonzero"></path>
        </g>
    </g>
</svg>
