<svg width="18" height="17" viewBox="0 0 18 17" xmlns="http://www.w3.org/2000/svg">
    <title>
        filter
    </title>
    <path d="M0 2h9v1H0V2zm15 0h3v1h-3V2zm-1.5 2a1.5 1.5 0 1 0 0-3 1.5 1.5 0 0 0 0 3zm0 1a2.5 2.5 0 1 1 0-5 2.5 2.5 0 0 1 0 5zM0 14h6v1H0v-1zm12 0h6v1h-6v-1zm-1.5 2a1.5 1.5 0 1 0 0-3 1.5 1.5 0 0 0 0 3zm0 1a2.5 2.5 0 1 1 0-5 2.5 2.5 0 0 1 0 5zM0 8h3v1H0V8zm8 0h10v1H8V8zm-3.5 2a1.5 1.5 0 1 0 0-3 1.5 1.5 0 0 0 0 3zm0 1a2.5 2.5 0 1 1 0-5 2.5 2.5 0 0 1 0 5z" fill="#D8D8D8" fill-rule="nonzero"/>
</svg>
