<?xml version="1.0" encoding="UTF-8"?>
<svg width="38px" height="38px" viewBox="0 0 38 38" version="1.1" xmlns="http://www.w3.org/2000/svg" xmlns:xlink="http://www.w3.org/1999/xlink">
    <!-- Generator: Sketch 49.3 (51167) - http://www.bohemiancoding.com/sketch -->
    <title>filter-category-4</title>
    <desc>Created with Sketch.</desc>
    <g id="Symbols" stroke="none" stroke-width="1" fill="none" fill-rule="evenodd">
        <g id="Elements-/-Sort-/-Card-/-~Parts-/-Icon_04" transform="translate(-1.000000, -1.000000)">
            <mask id="mask-2" fill="white">
                <path d="M33.8582437,5.73403555 C34.0178141,6.00107461 33.9309039,6.34685977 33.6637164,6.50635586 L25.0699273,11.6433324 C24.9793062,11.6974379 24.8797789,11.7231918 24.7813648,11.7231918 C24.5898062,11.7231918 24.4029977,11.6254457 24.2975328,11.4488793 C24.1378883,11.1819145 24.2249469,10.8360551 24.4920602,10.6764848 L33.0859234,5.5395082 C33.3527398,5.38001211 33.6988219,5.46692227 33.8582437,5.73403555 Z M21.9159793,15.1859492 C22.1463543,15.1859492 22.3453348,15.4582578 22.345409,15.7723516 C22.345409,16.0865937 22.1463543,16.3797578 21.9160535,16.3797578 L18.1877488,16.3797578 C17.9468348,16.3797578 17.5908816,16.2121719 17.5908816,15.9503281 L17.5908816,14.9344961 C17.5908816,13.2589336 20.9628621,12.3687539 20.9628621,10.8920977 C20.9628621,10.4627422 20.6801629,9.96013281 19.9889637,9.96013281 C19.4758152,9.96013281 19.0569246,10.2324414 19.0569246,10.881707 C19.0569246,11.1330117 18.7951551,11.3843164 18.3448699,11.3843164 C17.9887684,11.3843164 17.7269246,11.2167305 17.7269246,10.6511836 C17.7269988,9.457375 18.816159,8.72424219 19.9784988,8.72424219 C21.1933113,8.72424219 22.3243309,9.52023828 22.3243309,10.8502383 C22.3243309,13.1122773 19.004452,13.8454102 19.004452,14.9345703 L19.004452,15.1859492 L21.9159793,15.1859492 Z M26.2658215,13.092602 C26.5735324,13.138766 26.7855012,13.425473 26.7394113,13.7330355 C26.4970871,15.3500395 25.6804582,16.8338207 24.439966,17.9113285 C23.1868566,18.9999691 21.5813566,19.599434 19.9195246,19.599434 C16.1167785,19.599434 13.0231184,16.5056254 13.0231184,12.7029535 C13.0231184,8.90020742 16.1167785,5.80654727 19.9194504,5.80654727 C21.6762082,5.80654727 23.349841,6.46746523 24.6315988,7.6675082 C24.8587082,7.8800707 24.8704348,8.23654336 24.657798,8.46365273 C24.445384,8.69076211 24.0888371,8.70248867 23.8616535,8.48985195 C22.7894152,7.48596914 21.3892785,6.93311367 19.9194504,6.93311367 C16.7379895,6.93311367 14.1496105,9.52149258 14.1496105,12.7030277 C14.1496105,15.8845629 16.7379895,18.4729418 19.9194504,18.4729418 C22.753048,18.4729418 25.2061262,16.3634965 25.6253879,13.5661918 C25.6714777,13.2584809 25.9581105,13.0467348 26.2658215,13.092602 Z M28.3496762,12.1397891 C28.3352035,12.1397891 28.3210277,12.1409023 28.3067777,12.1419414 C28.292602,12.1409023 28.2784262,12.1397891 28.2638793,12.1397891 C27.9527543,12.1397891 27.7006332,12.3919102 27.7006332,12.7030352 C27.7006332,16.9934727 24.2101996,20.4840547 19.9195395,20.4840547 C15.6302895,20.4840547 12.1405238,16.9954023 12.1385199,12.7065234 C12.1385199,12.7053359 12.1386684,12.7042227 12.1386684,12.7030352 C12.1386684,12.7018477 12.1385199,12.7007344 12.1385199,12.6995469 C12.1403754,8.41059375 15.630141,4.92194141 19.9194652,4.92194141 C22.1911527,4.92194141 24.3437934,5.91135156 25.825348,7.63649219 C26.0280395,7.87235938 26.3836957,7.89959766 26.6195629,7.69683203 C26.8555043,7.49421484 26.8825941,7.13855859 26.6799027,6.90261719 C25.116559,5.08225391 22.9000902,3.97832422 20.5258324,3.81697266 L20.5258324,2.12649219 L37.798391,2.12649219 L37.798391,12.1397891 L28.3496762,12.1397891 Z M37.798391,23.2795039 L20.5258324,23.2795039 L20.5258324,21.5894687 C24.9696801,21.2892539 28.5297309,17.7156953 28.8088676,13.2662813 L37.798391,13.2662813 L37.798391,23.2795039 Z M19.3994145,23.2795039 L2.12648477,23.2795039 L2.12648477,13.2662813 L11.030434,13.2662813 C11.3112777,17.7444922 14.9155629,21.335418 19.3994145,21.5949609 L19.3994145,23.2795039 Z M38.924809,12.6986562 L38.924809,1.56324609 C38.924809,1.25212109 38.6726879,1 38.3615629,1 L6.09985977,1 C5.78873477,1 5.53661367,1.25212109 5.53661367,1.56324609 C5.53661367,1.87437109 5.78873477,2.12649219 6.09985977,2.12649219 L19.3994145,2.12649219 L19.3994145,3.81103516 C14.9155629,4.07057812 11.3112777,7.66157812 11.030434,12.1397891 L2.12648477,12.1397891 L2.12648477,1.56324609 C2.12648477,1.25212109 1.87436367,1 1.56323867,1 C1.25211367,1 0.999992578,1.25212109 0.999992578,1.56324609 L0.999992578,23.84275 C0.999992578,24.153875 1.25211367,24.4059961 1.56323867,24.4059961 L38.3616371,24.4059961 C38.6727621,24.4059961 38.9248832,24.153875 38.9248832,23.84275 L38.9248832,12.7074141 C38.9248832,12.7060039 38.9250316,12.7045195 38.9250316,12.7030352 C38.9250316,12.7015508 38.924809,12.7000664 38.924809,12.6986562 Z M37.2935402,37.8734707 L29.3467902,37.8734707 L29.3467902,35.0995449 C29.3467902,34.4455293 29.8788645,33.9135293 30.5327316,33.9135293 L36.1075988,33.9135293 C36.761466,33.9135293 37.2935402,34.4455293 37.2935402,35.0995449 L37.2935402,37.8734707 Z M20.273177,37.8734707 L20.273177,35.0995449 C20.273177,34.4455293 20.8053254,33.9135293 21.4591926,33.9135293 L27.034134,33.9135293 C27.6880012,33.9135293 28.2200754,34.4455293 28.2200754,35.0995449 L28.2200754,37.8734707 L20.273177,37.8734707 Z M11.1997863,37.8734707 L11.1997863,35.0995449 C11.1997863,34.4455293 11.7318605,33.9135293 12.385802,33.9135293 L17.9605949,33.9135293 C18.6145363,33.9135293 19.1466105,34.4455293 19.1466105,35.0995449 L19.1466105,37.8734707 L11.1997863,37.8734707 Z M2.12646992,37.8734707 L2.12646992,35.0995449 C2.12646992,34.4455293 2.65854414,33.9135293 3.31248555,33.9135293 L8.88727852,33.9135293 C9.54121992,33.9135293 10.0732941,34.4455293 10.0732941,35.0995449 L10.0732941,37.8734707 L2.12646992,37.8734707 Z M36.1075988,32.7871113 L33.8834113,32.7871113 L33.8834113,30.0131855 C33.8834113,28.7380332 32.8459816,27.7006777 31.5709035,27.7006777 L30.3512668,27.7006777 C30.040216,27.7006777 29.7880207,27.9527246 29.7880207,28.2638496 C29.7880207,28.5750488 30.040216,28.8270957 30.3512668,28.8270957 L31.5709035,28.8270957 C32.2247707,28.8270957 32.7568449,29.3591699 32.7568449,30.0131855 L32.7568449,32.7871113 L30.5326574,32.7871113 C29.8343332,32.7871113 29.2078527,33.0986074 28.7833957,33.5896387 C28.3590129,33.0986074 27.7325324,32.7871113 27.0342082,32.7871113 L24.8100207,32.7871113 L24.8100207,30.0131855 C24.8100207,29.3591699 25.3420949,28.8270957 25.9959621,28.8270957 C26.3071613,28.8270957 26.5592082,28.5750488 26.5592082,28.2638496 C26.5592082,27.9527246 26.3071613,27.7006777 25.9959621,27.7006777 C25.2976379,27.7006777 24.6711574,28.012248 24.2467004,28.5032051 C23.8223176,28.012248 23.1958371,27.7006777 22.4975129,27.7006777 L20.9889426,27.7006777 C20.6778176,27.7006777 20.4257707,27.9527246 20.4257707,28.2638496 C20.4257707,28.5750488 20.6778176,28.8270957 20.9889426,28.8270957 L22.4974387,28.8270957 C23.1513059,28.8270957 23.6833801,29.3591699 23.6833801,30.0131855 L23.6833801,32.7871113 L21.4591926,32.7871113 C20.7608684,32.7871113 20.1343879,33.0986074 19.7099309,33.5896387 C19.285548,33.0986074 18.6589934,32.7871113 17.9606691,32.7871113 L15.7365559,32.7871113 L15.7365559,30.0131855 C15.7365559,29.3591699 16.2686301,28.8270957 16.9225715,28.8270957 C17.2336965,28.8270957 17.4858176,28.5750488 17.4858176,28.2638496 C17.4858176,27.9527246 17.2336965,27.7006777 16.9225715,27.7006777 C16.2242473,27.7006777 15.5976926,28.012248 15.1733098,28.5032051 C14.748927,28.012248 14.1223723,27.7006777 13.424048,27.7006777 L12.127298,27.7006777 C11.8162473,27.7006777 11.564052,27.9527246 11.564052,28.2638496 C11.564052,28.5750488 11.8162473,28.8270957 12.127298,28.8270957 L13.424048,28.8270957 C14.0779895,28.8270957 14.6100637,29.3591699 14.6100637,30.0131855 L14.6100637,32.7871113 L12.3858762,32.7871113 C11.687552,32.7871113 11.0609973,33.0986074 10.6366145,33.5896387 C10.2122316,33.0986074 9.58567695,32.7871113 8.88735273,32.7871113 L6.66309102,32.7871113 L6.66309102,30.0131855 C6.66309102,29.3591699 7.19516523,28.8270957 7.84918086,28.8270957 C8.16030586,28.8270957 8.41242695,28.5750488 8.41242695,28.2638496 C8.41242695,27.9527246 8.16030586,27.7006777 7.84918086,27.7006777 C6.57410273,27.7006777 5.53659883,28.737959 5.53659883,30.0131855 L5.53659883,32.7871113 L3.31248555,32.7871113 C2.03740742,32.7871113 0.999977734,33.8244668 0.999977734,35.0996191 L0.999977734,38.436791 C0.999977734,38.7478418 1.25209883,39.0000371 1.56329805,39.0000371 L10.6366145,39.0000371 L19.7100051,39.0000371 L28.7833957,39.0000371 L37.8567863,39.0000371 C38.1679113,39.0000371 38.4201066,38.7478418 38.4201066,38.436791 L38.4201066,35.0996191 C38.4201066,33.8244668 37.382677,32.7871113 36.1075988,32.7871113 Z"></path>
            </mask>
            <path d="M33.8582437,5.73403555 C34.0178141,6.00107461 33.9309039,6.34685977 33.6637164,6.50635586 L25.0699273,11.6433324 C24.9793062,11.6974379 24.8797789,11.7231918 24.7813648,11.7231918 C24.5898062,11.7231918 24.4029977,11.6254457 24.2975328,11.4488793 C24.1378883,11.1819145 24.2249469,10.8360551 24.4920602,10.6764848 L33.0859234,5.5395082 C33.3527398,5.38001211 33.6988219,5.46692227 33.8582437,5.73403555 Z M21.9159793,15.1859492 C22.1463543,15.1859492 22.3453348,15.4582578 22.345409,15.7723516 C22.345409,16.0865937 22.1463543,16.3797578 21.9160535,16.3797578 L18.1877488,16.3797578 C17.9468348,16.3797578 17.5908816,16.2121719 17.5908816,15.9503281 L17.5908816,14.9344961 C17.5908816,13.2589336 20.9628621,12.3687539 20.9628621,10.8920977 C20.9628621,10.4627422 20.6801629,9.96013281 19.9889637,9.96013281 C19.4758152,9.96013281 19.0569246,10.2324414 19.0569246,10.881707 C19.0569246,11.1330117 18.7951551,11.3843164 18.3448699,11.3843164 C17.9887684,11.3843164 17.7269246,11.2167305 17.7269246,10.6511836 C17.7269988,9.457375 18.816159,8.72424219 19.9784988,8.72424219 C21.1933113,8.72424219 22.3243309,9.52023828 22.3243309,10.8502383 C22.3243309,13.1122773 19.004452,13.8454102 19.004452,14.9345703 L19.004452,15.1859492 L21.9159793,15.1859492 Z M26.2658215,13.092602 C26.5735324,13.138766 26.7855012,13.425473 26.7394113,13.7330355 C26.4970871,15.3500395 25.6804582,16.8338207 24.439966,17.9113285 C23.1868566,18.9999691 21.5813566,19.599434 19.9195246,19.599434 C16.1167785,19.599434 13.0231184,16.5056254 13.0231184,12.7029535 C13.0231184,8.90020742 16.1167785,5.80654727 19.9194504,5.80654727 C21.6762082,5.80654727 23.349841,6.46746523 24.6315988,7.6675082 C24.8587082,7.8800707 24.8704348,8.23654336 24.657798,8.46365273 C24.445384,8.69076211 24.0888371,8.70248867 23.8616535,8.48985195 C22.7894152,7.48596914 21.3892785,6.93311367 19.9194504,6.93311367 C16.7379895,6.93311367 14.1496105,9.52149258 14.1496105,12.7030277 C14.1496105,15.8845629 16.7379895,18.4729418 19.9194504,18.4729418 C22.753048,18.4729418 25.2061262,16.3634965 25.6253879,13.5661918 C25.6714777,13.2584809 25.9581105,13.0467348 26.2658215,13.092602 Z M28.3496762,12.1397891 C28.3352035,12.1397891 28.3210277,12.1409023 28.3067777,12.1419414 C28.292602,12.1409023 28.2784262,12.1397891 28.2638793,12.1397891 C27.9527543,12.1397891 27.7006332,12.3919102 27.7006332,12.7030352 C27.7006332,16.9934727 24.2101996,20.4840547 19.9195395,20.4840547 C15.6302895,20.4840547 12.1405238,16.9954023 12.1385199,12.7065234 C12.1385199,12.7053359 12.1386684,12.7042227 12.1386684,12.7030352 C12.1386684,12.7018477 12.1385199,12.7007344 12.1385199,12.6995469 C12.1403754,8.41059375 15.630141,4.92194141 19.9194652,4.92194141 C22.1911527,4.92194141 24.3437934,5.91135156 25.825348,7.63649219 C26.0280395,7.87235938 26.3836957,7.89959766 26.6195629,7.69683203 C26.8555043,7.49421484 26.8825941,7.13855859 26.6799027,6.90261719 C25.116559,5.08225391 22.9000902,3.97832422 20.5258324,3.81697266 L20.5258324,2.12649219 L37.798391,2.12649219 L37.798391,12.1397891 L28.3496762,12.1397891 Z M37.798391,23.2795039 L20.5258324,23.2795039 L20.5258324,21.5894687 C24.9696801,21.2892539 28.5297309,17.7156953 28.8088676,13.2662813 L37.798391,13.2662813 L37.798391,23.2795039 Z M19.3994145,23.2795039 L2.12648477,23.2795039 L2.12648477,13.2662813 L11.030434,13.2662813 C11.3112777,17.7444922 14.9155629,21.335418 19.3994145,21.5949609 L19.3994145,23.2795039 Z M38.924809,12.6986562 L38.924809,1.56324609 C38.924809,1.25212109 38.6726879,1 38.3615629,1 L6.09985977,1 C5.78873477,1 5.53661367,1.25212109 5.53661367,1.56324609 C5.53661367,1.87437109 5.78873477,2.12649219 6.09985977,2.12649219 L19.3994145,2.12649219 L19.3994145,3.81103516 C14.9155629,4.07057812 11.3112777,7.66157812 11.030434,12.1397891 L2.12648477,12.1397891 L2.12648477,1.56324609 C2.12648477,1.25212109 1.87436367,1 1.56323867,1 C1.25211367,1 0.999992578,1.25212109 0.999992578,1.56324609 L0.999992578,23.84275 C0.999992578,24.153875 1.25211367,24.4059961 1.56323867,24.4059961 L38.3616371,24.4059961 C38.6727621,24.4059961 38.9248832,24.153875 38.9248832,23.84275 L38.9248832,12.7074141 C38.9248832,12.7060039 38.9250316,12.7045195 38.9250316,12.7030352 C38.9250316,12.7015508 38.924809,12.7000664 38.924809,12.6986562 Z M37.2935402,37.8734707 L29.3467902,37.8734707 L29.3467902,35.0995449 C29.3467902,34.4455293 29.8788645,33.9135293 30.5327316,33.9135293 L36.1075988,33.9135293 C36.761466,33.9135293 37.2935402,34.4455293 37.2935402,35.0995449 L37.2935402,37.8734707 Z M20.273177,37.8734707 L20.273177,35.0995449 C20.273177,34.4455293 20.8053254,33.9135293 21.4591926,33.9135293 L27.034134,33.9135293 C27.6880012,33.9135293 28.2200754,34.4455293 28.2200754,35.0995449 L28.2200754,37.8734707 L20.273177,37.8734707 Z M11.1997863,37.8734707 L11.1997863,35.0995449 C11.1997863,34.4455293 11.7318605,33.9135293 12.385802,33.9135293 L17.9605949,33.9135293 C18.6145363,33.9135293 19.1466105,34.4455293 19.1466105,35.0995449 L19.1466105,37.8734707 L11.1997863,37.8734707 Z M2.12646992,37.8734707 L2.12646992,35.0995449 C2.12646992,34.4455293 2.65854414,33.9135293 3.31248555,33.9135293 L8.88727852,33.9135293 C9.54121992,33.9135293 10.0732941,34.4455293 10.0732941,35.0995449 L10.0732941,37.8734707 L2.12646992,37.8734707 Z M36.1075988,32.7871113 L33.8834113,32.7871113 L33.8834113,30.0131855 C33.8834113,28.7380332 32.8459816,27.7006777 31.5709035,27.7006777 L30.3512668,27.7006777 C30.040216,27.7006777 29.7880207,27.9527246 29.7880207,28.2638496 C29.7880207,28.5750488 30.040216,28.8270957 30.3512668,28.8270957 L31.5709035,28.8270957 C32.2247707,28.8270957 32.7568449,29.3591699 32.7568449,30.0131855 L32.7568449,32.7871113 L30.5326574,32.7871113 C29.8343332,32.7871113 29.2078527,33.0986074 28.7833957,33.5896387 C28.3590129,33.0986074 27.7325324,32.7871113 27.0342082,32.7871113 L24.8100207,32.7871113 L24.8100207,30.0131855 C24.8100207,29.3591699 25.3420949,28.8270957 25.9959621,28.8270957 C26.3071613,28.8270957 26.5592082,28.5750488 26.5592082,28.2638496 C26.5592082,27.9527246 26.3071613,27.7006777 25.9959621,27.7006777 C25.2976379,27.7006777 24.6711574,28.012248 24.2467004,28.5032051 C23.8223176,28.012248 23.1958371,27.7006777 22.4975129,27.7006777 L20.9889426,27.7006777 C20.6778176,27.7006777 20.4257707,27.9527246 20.4257707,28.2638496 C20.4257707,28.5750488 20.6778176,28.8270957 20.9889426,28.8270957 L22.4974387,28.8270957 C23.1513059,28.8270957 23.6833801,29.3591699 23.6833801,30.0131855 L23.6833801,32.7871113 L21.4591926,32.7871113 C20.7608684,32.7871113 20.1343879,33.0986074 19.7099309,33.5896387 C19.285548,33.0986074 18.6589934,32.7871113 17.9606691,32.7871113 L15.7365559,32.7871113 L15.7365559,30.0131855 C15.7365559,29.3591699 16.2686301,28.8270957 16.9225715,28.8270957 C17.2336965,28.8270957 17.4858176,28.5750488 17.4858176,28.2638496 C17.4858176,27.9527246 17.2336965,27.7006777 16.9225715,27.7006777 C16.2242473,27.7006777 15.5976926,28.012248 15.1733098,28.5032051 C14.748927,28.012248 14.1223723,27.7006777 13.424048,27.7006777 L12.127298,27.7006777 C11.8162473,27.7006777 11.564052,27.9527246 11.564052,28.2638496 C11.564052,28.5750488 11.8162473,28.8270957 12.127298,28.8270957 L13.424048,28.8270957 C14.0779895,28.8270957 14.6100637,29.3591699 14.6100637,30.0131855 L14.6100637,32.7871113 L12.3858762,32.7871113 C11.687552,32.7871113 11.0609973,33.0986074 10.6366145,33.5896387 C10.2122316,33.0986074 9.58567695,32.7871113 8.88735273,32.7871113 L6.66309102,32.7871113 L6.66309102,30.0131855 C6.66309102,29.3591699 7.19516523,28.8270957 7.84918086,28.8270957 C8.16030586,28.8270957 8.41242695,28.5750488 8.41242695,28.2638496 C8.41242695,27.9527246 8.16030586,27.7006777 7.84918086,27.7006777 C6.57410273,27.7006777 5.53659883,28.737959 5.53659883,30.0131855 L5.53659883,32.7871113 L3.31248555,32.7871113 C2.03740742,32.7871113 0.999977734,33.8244668 0.999977734,35.0996191 L0.999977734,38.436791 C0.999977734,38.7478418 1.25209883,39.0000371 1.56329805,39.0000371 L10.6366145,39.0000371 L19.7100051,39.0000371 L28.7833957,39.0000371 L37.8567863,39.0000371 C38.1679113,39.0000371 38.4201066,38.7478418 38.4201066,38.436791 L38.4201066,35.0996191 C38.4201066,33.8244668 37.382677,32.7871113 36.1075988,32.7871113 Z" fill="#000000"></path>
        </g>
    </g>
</svg>
