<?xml version="1.0" encoding="UTF-8"?>
<svg width="16px" height="16px" viewBox="0 0 16 16" version="1.1" xmlns="http://www.w3.org/2000/svg" xmlns:xlink="http://www.w3.org/1999/xlink">
    <!-- Generator: Sketch 49.3 (51167) - http://www.bohemiancoding.com/sketch -->
    <title>gear</title>
    <desc>Created with Sketch.</desc>
    <g id="Marvel" stroke="none" stroke-width="1" fill="none" fill-rule="evenodd">
        <g id="Marvel_My_Profile_Woman" transform="translate(-1258.000000, -44.000000)">
            <g id="02-copy-3" transform="translate(369.000000, 0.000000)">
                <g id="Elements-/-Btn-/-Circle-/-Stroke" transform="translate(877.000000, 32.000000)">
                    <g id="Component-/-Icons-/-S-/-Bell" transform="translate(8.000000, 8.000000)">
                        <mask id="mask-2" fill="white">
                            <path d="M17.5214115,7.56545487 L15.4958669,8.37974416 L15.0439568,8.03543172 C14.6801172,7.75822058 14.3157423,7.54651673 13.922103,7.38584764 L13.3903392,7.1688012 L13.3098646,6.60011351 L13.0834598,5 L10.9265666,5 L10.6196608,7.1688012 L10.087897,7.38584764 C9.70316986,7.54287913 9.32821634,7.76160202 8.96310827,8.03765933 L8.51187443,8.37883614 L7.98700213,8.1678322 L6.48870114,7.56544763 L5.40886369,9.43472706 L7.15068647,10.795204 L7.05744063,11.3779905 C7.01988269,11.6127276 7,11.8214959 7,12 C7,12.211888 7.01652619,12.4287942 7.04744063,12.6220095 L7.14068647,13.204796 L6.67555354,13.5680951 L5.39891272,14.5651692 L6.47858853,16.4345451 L8.50413314,15.6202558 L8.95604322,15.9645683 C9.31988283,16.2417794 9.68425773,16.4534833 10.077897,16.6141524 L10.6096608,16.8311988 L10.6901354,17.3998865 L10.915303,19 L13.0734334,19 L13.3803392,16.8311988 L13.912103,16.6141524 C14.2968301,16.4571209 14.6717837,16.238398 15.0368917,15.9623407 L15.4881256,15.6211639 L16.0129979,15.8321678 L17.5112989,16.4345524 L18.5926611,14.5626334 L16.8903723,13.2171117 L16.9571232,12.6608548 C16.9854807,12.4245419 17,12.2088267 17,12 C17,11.7820866 16.9840604,11.5748721 16.9525594,11.3779905 L16.8593135,10.795204 L17.3244465,10.4319049 L18.6010873,9.43483078 L17.5214115,7.56545487 Z M17.2558427,7.10564293 C17.2592901,7.11184817 17.2628232,7.11796465 17.2664403,7.12399174 L17.2558427,7.10564293 Z M4.99555354,9.11190493 L5.01268129,9.12528281 C5.00707678,9.1207199 5.00136732,9.11625923 4.99555354,9.11190493 Z M6.74415728,16.8943571 C6.74070992,16.8881518 6.73717677,16.8820354 6.73355972,16.8760082 L6.74415728,16.8943571 Z M12.9998646,19.5198865 L13.0059768,19.4766931 C13.0033226,19.490943 13.0012756,19.5053481 12.9998646,19.5198865 Z M17.2540747,16.8798266 L17.2632566,16.863932 C17.2601109,16.8691672 17.2570496,16.8744657 17.2540747,16.8798266 Z M18.9998989,14.8845219 L18.9784445,14.8675639 C18.9854277,14.8733898 18.9925796,14.8790454 18.9998989,14.8845219 Z M17.95,12.78 L19.62,14.1 C19.78,14.22 19.82,14.43 19.72,14.61 L18.12,17.38 C18.02,17.56 17.81,17.63 17.63,17.56 L15.64,16.76 C15.23,17.07 14.78,17.34 14.29,17.54 L13.99,19.66 C13.97,19.86 13.8,20 13.6,20 L10.4,20 C10.2,20 10.04,19.86 10,19.66 L9.7,17.54 C9.21,17.34 8.77,17.08 8.35,16.76 L6.36,17.56 C6.18,17.62 5.97,17.56 5.87,17.38 L4.27,14.61 C4.18,14.44 4.22,14.22 4.37,14.1 L6.06,12.78 C6.02,12.53 6,12.26 6,12 C6,11.74 6.03,11.47 6.07,11.22 L4.38,9.9 C4.22,9.78 4.18,9.57 4.28,9.39 L5.88,6.62 C5.98,6.44 6.19,6.37 6.37,6.44 L8.36,7.24 C8.77,6.93 9.22,6.66 9.71,6.46 L10.01,4.34 C10.04,4.14 10.2,4 10.4,4 L13.6,4 C13.8,4 13.97,4.14 14,4.34 L14.3,6.46 C14.79,6.66 15.23,6.92 15.65,7.24 L17.64,6.44 C17.82,6.38 18.03,6.44 18.13,6.62 L19.73,9.39 C19.82,9.56 19.78,9.78 19.63,9.9 L17.94,11.22 C17.98,11.47 18,11.73 18,12 C18,12.27 17.98,12.53 17.95,12.78 Z M12,14 C13.1045695,14 14,13.1045695 14,12 C14,10.8954305 13.1045695,10 12,10 C10.8954305,10 10,10.8954305 10,12 C10,13.1045695 10.8954305,14 12,14 Z M12,15 C10.3431458,15 9,13.6568542 9,12 C9,10.3431458 10.3431458,9 12,9 C13.6568542,9 15,10.3431458 15,12 C15,13.6568542 13.6568542,15 12,15 Z"></path>
                        </mask>
                        <path d="M17.5214115,7.56545487 L15.4958669,8.37974416 L15.0439568,8.03543172 C14.6801172,7.75822058 14.3157423,7.54651673 13.922103,7.38584764 L13.3903392,7.1688012 L13.3098646,6.60011351 L13.0834598,5 L10.9265666,5 L10.6196608,7.1688012 L10.087897,7.38584764 C9.70316986,7.54287913 9.32821634,7.76160202 8.96310827,8.03765933 L8.51187443,8.37883614 L7.98700213,8.1678322 L6.48870114,7.56544763 L5.40886369,9.43472706 L7.15068647,10.795204 L7.05744063,11.3779905 C7.01988269,11.6127276 7,11.8214959 7,12 C7,12.211888 7.01652619,12.4287942 7.04744063,12.6220095 L7.14068647,13.204796 L6.67555354,13.5680951 L5.39891272,14.5651692 L6.47858853,16.4345451 L8.50413314,15.6202558 L8.95604322,15.9645683 C9.31988283,16.2417794 9.68425773,16.4534833 10.077897,16.6141524 L10.6096608,16.8311988 L10.6901354,17.3998865 L10.915303,19 L13.0734334,19 L13.3803392,16.8311988 L13.912103,16.6141524 C14.2968301,16.4571209 14.6717837,16.238398 15.0368917,15.9623407 L15.4881256,15.6211639 L16.0129979,15.8321678 L17.5112989,16.4345524 L18.5926611,14.5626334 L16.8903723,13.2171117 L16.9571232,12.6608548 C16.9854807,12.4245419 17,12.2088267 17,12 C17,11.7820866 16.9840604,11.5748721 16.9525594,11.3779905 L16.8593135,10.795204 L17.3244465,10.4319049 L18.6010873,9.43483078 L17.5214115,7.56545487 Z M17.2558427,7.10564293 C17.2592901,7.11184817 17.2628232,7.11796465 17.2664403,7.12399174 L17.2558427,7.10564293 Z M4.99555354,9.11190493 L5.01268129,9.12528281 C5.00707678,9.1207199 5.00136732,9.11625923 4.99555354,9.11190493 Z M6.74415728,16.8943571 C6.74070992,16.8881518 6.73717677,16.8820354 6.73355972,16.8760082 L6.74415728,16.8943571 Z M12.9998646,19.5198865 L13.0059768,19.4766931 C13.0033226,19.490943 13.0012756,19.5053481 12.9998646,19.5198865 Z M17.2540747,16.8798266 L17.2632566,16.863932 C17.2601109,16.8691672 17.2570496,16.8744657 17.2540747,16.8798266 Z M18.9998989,14.8845219 L18.9784445,14.8675639 C18.9854277,14.8733898 18.9925796,14.8790454 18.9998989,14.8845219 Z M17.95,12.78 L19.62,14.1 C19.78,14.22 19.82,14.43 19.72,14.61 L18.12,17.38 C18.02,17.56 17.81,17.63 17.63,17.56 L15.64,16.76 C15.23,17.07 14.78,17.34 14.29,17.54 L13.99,19.66 C13.97,19.86 13.8,20 13.6,20 L10.4,20 C10.2,20 10.04,19.86 10,19.66 L9.7,17.54 C9.21,17.34 8.77,17.08 8.35,16.76 L6.36,17.56 C6.18,17.62 5.97,17.56 5.87,17.38 L4.27,14.61 C4.18,14.44 4.22,14.22 4.37,14.1 L6.06,12.78 C6.02,12.53 6,12.26 6,12 C6,11.74 6.03,11.47 6.07,11.22 L4.38,9.9 C4.22,9.78 4.18,9.57 4.28,9.39 L5.88,6.62 C5.98,6.44 6.19,6.37 6.37,6.44 L8.36,7.24 C8.77,6.93 9.22,6.66 9.71,6.46 L10.01,4.34 C10.04,4.14 10.2,4 10.4,4 L13.6,4 C13.8,4 13.97,4.14 14,4.34 L14.3,6.46 C14.79,6.66 15.23,6.92 15.65,7.24 L17.64,6.44 C17.82,6.38 18.03,6.44 18.13,6.62 L19.73,9.39 C19.82,9.56 19.78,9.78 19.63,9.9 L17.94,11.22 C17.98,11.47 18,11.73 18,12 C18,12.27 17.98,12.53 17.95,12.78 Z M12,14 C13.1045695,14 14,13.1045695 14,12 C14,10.8954305 13.1045695,10 12,10 C10.8954305,10 10,10.8954305 10,12 C10,13.1045695 10.8954305,14 12,14 Z M12,15 C10.3431458,15 9,13.6568542 9,12 C9,10.3431458 10.3431458,9 12,9 C13.6568542,9 15,10.3431458 15,12 C15,13.6568542 13.6568542,15 12,15 Z" fill="#979797" fill-rule="nonzero"></path>
                    </g>
                </g>
            </g>
        </g>
    </g>
</svg>
