<svg width="16" height="16" viewBox="0 0 16 16" xmlns="http://www.w3.org/2000/svg">
    <title>
        gear
    </title>
    <path d="M13.521 3.565l-2.025.815-.452-.345a4.858 4.858 0 0 0-1.122-.65L9.39 3.17 9.31 2.6 9.083 1H6.927L6.62 3.169l-.532.217c-.385.157-.76.376-1.125.652l-.451.34-.525-.21-1.498-.603-1.08 1.87 1.742 1.36-.094.583A4.021 4.021 0 0 0 3 8c0 .212.017.429.047.622l.094.583-.465.363-1.277.997 1.08 1.87 2.025-.815.452.345c.364.277.728.488 1.122.65l.532.216.08.569.225 1.6h2.158l.307-2.169.532-.217c.385-.157.76-.376 1.125-.652l.451-.34.525.21 1.498.603 1.082-1.872-1.703-1.346.067-.556C12.985 8.425 13 8.209 13 8c0-.218-.016-.425-.047-.622l-.094-.583.465-.363 1.277-.997-1.08-1.87zm-.265-.46a.634.634 0 0 0 .01.019l-.01-.018zM.996 5.113l.017.013a.537.537 0 0 0-.017-.013zm1.748 7.782a.634.634 0 0 0-.01-.018l.01.018zM9 15.52l.006-.043A.5.5 0 0 0 9 15.52zm4.254-2.64l.01-.016a.533.533 0 0 0-.01.016zM15 10.885l-.022-.017a.517.517 0 0 0 .022.017zM13.95 8.78l1.67 1.32c.16.12.2.33.1.51l-1.6 2.77c-.1.18-.31.25-.49.18l-1.99-.8c-.41.31-.86.58-1.35.78l-.3 2.12c-.02.2-.19.34-.39.34H6.4c-.2 0-.36-.14-.4-.34l-.3-2.12c-.49-.2-.93-.46-1.35-.78l-1.99.8c-.18.06-.39 0-.49-.18l-1.6-2.77a.413.413 0 0 1 .1-.51l1.69-1.32C2.02 8.53 2 8.26 2 8s.03-.53.07-.78L.38 5.9a.388.388 0 0 1-.1-.51l1.6-2.77c.1-.18.31-.25.49-.18l1.99.8c.41-.31.86-.58 1.35-.78l.3-2.12C6.04.14 6.2 0 6.4 0h3.2c.2 0 .37.14.4.34l.3 2.12c.49.2.93.46 1.35.78l1.99-.8c.18-.06.39 0 .49.18l1.6 2.77c.09.17.05.39-.1.51l-1.69 1.32c.04.25.06.51.06.78s-.02.53-.05.78zM8 10a2 2 0 1 0 0-4 2 2 0 0 0 0 4zm0 1a3 3 0 1 1 0-6 3 3 0 0 1 0 6z" fill="#979797" fill-rule="nonzero"/>
</svg>
