<?xml version="1.0" encoding="UTF-8"?>
<svg width="18px" height="12px" viewBox="0 0 18 12" version="1.1" xmlns="http://www.w3.org/2000/svg" xmlns:xlink="http://www.w3.org/1999/xlink">
    <!-- Generator: Sketch 49.3 (51167) - http://www.bohemiancoding.com/sketch -->
    <title>gplus</title>
    <desc>Created with Sketch.</desc>
    <g id="Marvel" stroke="none" stroke-width="1" fill="none" fill-rule="evenodd">
        <g id="Marvel_Modal_Share" transform="translate(-1090.000000, -705.000000)">
            <g id="Chat" transform="translate(529.000000, 390.000000)">
                <g id="Чат" transform="translate(0.000000, 16.000000)">
                    <g id="Group-14-Copy-5" transform="translate(542.000000, 277.000000)">
                        <g id="Component-/-Icons-/-S-/-Social-/-Facebook" transform="translate(16.000000, 16.000000)">
                            <mask id="mask-2" fill="white">
                                <path d="M9.30498039,13.2581862 C9.09223529,13.2581862 8.91972549,13.0781909 8.91972549,12.856123 L8.91972549,11.3828052 C8.91972549,11.1607373 9.09219608,10.9807419 9.30498039,10.9807419 L14.4961961,10.9807419 C14.4961961,10.9807419 14.4932549,12.3182652 14.4887843,12.3578413 C14.3209804,15.5144715 11.8158039,18.0203682 8.74917647,18.0203682 C5.56035294,18.0203682 2.97788235,15.3109433 3.00015686,11.9775919 C3.02223529,8.66908298 5.69396078,5.95691599 8.86360784,6.02149822 C10.3496863,6.05178393 11.6972941,6.67088109 12.7018824,7.66412953 C12.8626667,7.82308857 12.8620784,8.09062596 12.7008235,8.24905295 L11.6696078,9.26194617 C11.5220392,9.4069083 11.2936471,9.40600791 11.1436078,9.26386972 C10.5101569,8.66392622 9.66992157,8.29779657 8.74917647,8.29779657 C6.73545098,8.29779657 5.10607843,10.0483923 5.18498039,12.1679417 C5.25858824,14.145271 6.82635294,15.7282313 8.72239216,15.7428421 C10.2850196,15.7548745 11.6197647,14.7123095 12.1125882,13.2581862 L9.30498039,13.2581862 Z M19,11 L20.9704314,11 L20.9704314,13.0307979 L19,13.0307979 L19,15 L17,15 L17,13.0307979 L15,13 L15,11 L17,10.9807419 L17,9 L19,9 L19,11 Z"></path>
                            </mask>
                            <path d="M9.30498039,13.2581862 C9.09223529,13.2581862 8.91972549,13.0781909 8.91972549,12.856123 L8.91972549,11.3828052 C8.91972549,11.1607373 9.09219608,10.9807419 9.30498039,10.9807419 L14.4961961,10.9807419 C14.4961961,10.9807419 14.4932549,12.3182652 14.4887843,12.3578413 C14.3209804,15.5144715 11.8158039,18.0203682 8.74917647,18.0203682 C5.56035294,18.0203682 2.97788235,15.3109433 3.00015686,11.9775919 C3.02223529,8.66908298 5.69396078,5.95691599 8.86360784,6.02149822 C10.3496863,6.05178393 11.6972941,6.67088109 12.7018824,7.66412953 C12.8626667,7.82308857 12.8620784,8.09062596 12.7008235,8.24905295 L11.6696078,9.26194617 C11.5220392,9.4069083 11.2936471,9.40600791 11.1436078,9.26386972 C10.5101569,8.66392622 9.66992157,8.29779657 8.74917647,8.29779657 C6.73545098,8.29779657 5.10607843,10.0483923 5.18498039,12.1679417 C5.25858824,14.145271 6.82635294,15.7282313 8.72239216,15.7428421 C10.2850196,15.7548745 11.6197647,14.7123095 12.1125882,13.2581862 L9.30498039,13.2581862 Z M19,11 L20.9704314,11 L20.9704314,13.0307979 L19,13.0307979 L19,15 L17,15 L17,13.0307979 L15,13 L15,11 L17,10.9807419 L17,9 L19,9 L19,11 Z" fill="#000000" fill-rule="nonzero"></path>
                        </g>
                    </g>
                </g>
            </g>
        </g>
    </g>
</svg>
