<svg width="18" height="12" viewBox="0 0 18 12" xmlns="http://www.w3.org/2000/svg">
    <title>
        gplus
    </title>
    <path d="M6.305 7.258a.394.394 0 0 1-.385-.402V5.383c0-.222.172-.402.385-.402h5.191s-.003 1.337-.007 1.377c-.168 3.156-2.673 5.662-5.74 5.662C2.56 12.02-.022 9.31 0 5.978.022 2.669 2.694-.043 5.864.02c1.486.03 2.833.65 3.838 1.643.16.16.16.427-.001.585L8.67 3.262a.375.375 0 0 1-.526.002 3.471 3.471 0 0 0-2.395-.966c-2.014 0-3.643 1.75-3.564 3.87.074 1.977 1.641 3.56 3.537 3.575 1.563.012 2.898-1.03 3.39-2.485H6.306zM16 5h1.97v2.03H16V9h-2V7.03L12 7V5l2-.02V3h2v2z" fill="#000" fill-rule="nonzero"/>
</svg>
