<?xml version="1.0" encoding="UTF-8"?>
<svg width="14px" height="20px" viewBox="0 0 14 20" version="1.1" xmlns="http://www.w3.org/2000/svg" xmlns:xlink="http://www.w3.org/1999/xlink">
    <!-- Generator: Sketch 49.3 (51167) - http://www.bohemiancoding.com/sketch -->
    <title>location</title>
    <desc>Created with Sketch.</desc>
    <g id="Symbols" stroke="none" stroke-width="1" fill="none" fill-rule="evenodd">
        <g id="Component-/-Icons-/-S-/-Point-Border" transform="translate(-5.000000, -2.000000)">
            <mask id="mask-2" fill="white">
                <path d="M13.8420711,16.3501474 C14.7914919,14.9429702 15.5718773,13.5848345 16.1236483,12.3325114 C16.7015927,11.0207841 17,9.88470482 17,9 C17,6.2345695 14.7654305,4 12,4 C9.2345695,4 7,6.2345695 7,9 C7,9.88470482 7.29840732,11.0207841 7.87635168,12.3325114 C8.42812267,13.5848345 9.20850814,14.9429702 10.1579289,16.3501474 C10.7456302,17.2212047 11.3693697,18.0693076 12,18.8717813 C12.6306303,18.0693076 13.2543698,17.2212047 13.8420711,16.3501474 Z M12,2 C15.87,2 19,5.13 19,9 C19,14.25 12,22 12,22 C12,22 5,14.25 5,9 C5,5.13 8.13,2 12,2 Z M12,11.5 C10.62,11.5 9.5,10.38 9.5,9 C9.5,7.62 10.62,6.5 12,6.5 C13.38,6.5 14.5,7.62 14.5,9 C14.5,10.38 13.38,11.5 12,11.5 Z"></path>
            </mask>
            <path d="M13.8420711,16.3501474 C14.7914919,14.9429702 15.5718773,13.5848345 16.1236483,12.3325114 C16.7015927,11.0207841 17,9.88470482 17,9 C17,6.2345695 14.7654305,4 12,4 C9.2345695,4 7,6.2345695 7,9 C7,9.88470482 7.29840732,11.0207841 7.87635168,12.3325114 C8.42812267,13.5848345 9.20850814,14.9429702 10.1579289,16.3501474 C10.7456302,17.2212047 11.3693697,18.0693076 12,18.8717813 C12.6306303,18.0693076 13.2543698,17.2212047 13.8420711,16.3501474 Z M12,2 C15.87,2 19,5.13 19,9 C19,14.25 12,22 12,22 C12,22 5,14.25 5,9 C5,5.13 8.13,2 12,2 Z M12,11.5 C10.62,11.5 9.5,10.38 9.5,9 C9.5,7.62 10.62,6.5 12,6.5 C13.38,6.5 14.5,7.62 14.5,9 C14.5,10.38 13.38,11.5 12,11.5 Z" fill="#979797" fill-rule="nonzero"></path>
        </g>
    </g>
</svg>
