<?xml version="1.0" encoding="UTF-8"?>
<svg width="14px" height="18px" viewBox="0 0 14 18" version="1.1" xmlns="http://www.w3.org/2000/svg" xmlns:xlink="http://www.w3.org/1999/xlink">
    <!-- Generator: Sketch 49.3 (51167) - http://www.bohemiancoding.com/sketch -->
    <title>lock</title>
    <desc>Created with Sketch.</desc>
    <g id="Marvel" stroke="none" stroke-width="1" fill="none" fill-rule="evenodd">
        <g id="Profile_page_Man" transform="translate(-1132.000000, -148.000000)">
            <g id="Group-2" transform="translate(1111.000000, 81.000000)">
                <g id="Group-3-Copy" transform="translate(16.000000, 64.000000)">
                    <g id="Component-/-Icons-/-S-/-Blind">
                        <mask id="mask-2" fill="white">
                            <path d="M12,16 C12.55,16 13,15.55 13,15 C13,14.45 12.55,14 12,14 C11.45,14 11,14.45 11,15 C11,15.55 11.45,16 12,16 Z M16.0166243,9 L16.0166243,7 C16.0166243,4.33333333 14.6804144,3.00333333 12.0079948,3.01 C9.33599825,3.00333333 8,4.33333333 8,7 L8.99335304,7 C8.99335304,5.0089091 10.0061976,4.0030654 12.0079948,4.0030654 C14.009792,4.0030654 15.0226365,5.00215009 15.0226365,7 L15.0226365,9 L7,9 C5.8954305,9 5,9.8954305 5,11 L5,19 C5,20.1045695 5.8954305,21 7,21 L17,21 C18.1045695,21 19,20.1045695 19,19 L19,11 C19,9.8954305 18.1045695,9 17,9 L16.0166243,9 Z M17,20 L7.00356149,20 C6.45127674,20 6.00356149,19.5522847 6.00356149,19 L6.00356149,10.9439459 C6.00356149,10.3916611 6.45127674,9.94394589 7.00356149,9.94394589 L17,9.94394589 C17.5522847,9.94394589 18,10.3916611 18,10.9439459 L18,19 C18,19.5522847 17.5522847,20 17,20 Z"></path>
                        </mask>
                        <path d="M12,16 C12.55,16 13,15.55 13,15 C13,14.45 12.55,14 12,14 C11.45,14 11,14.45 11,15 C11,15.55 11.45,16 12,16 Z M16.0166243,9 L16.0166243,7 C16.0166243,4.33333333 14.6804144,3.00333333 12.0079948,3.01 C9.33599825,3.00333333 8,4.33333333 8,7 L8.99335304,7 C8.99335304,5.0089091 10.0061976,4.0030654 12.0079948,4.0030654 C14.009792,4.0030654 15.0226365,5.00215009 15.0226365,7 L15.0226365,9 L7,9 C5.8954305,9 5,9.8954305 5,11 L5,19 C5,20.1045695 5.8954305,21 7,21 L17,21 C18.1045695,21 19,20.1045695 19,19 L19,11 C19,9.8954305 18.1045695,9 17,9 L16.0166243,9 Z M17,20 L7.00356149,20 C6.45127674,20 6.00356149,19.5522847 6.00356149,19 L6.00356149,10.9439459 C6.00356149,10.3916611 6.45127674,9.94394589 7.00356149,9.94394589 L17,9.94394589 C17.5522847,9.94394589 18,10.3916611 18,10.9439459 L18,19 C18,19.5522847 17.5522847,20 17,20 Z" fill="#000000" fill-rule="nonzero"></path>
                    </g>
                </g>
            </g>
        </g>
    </g>
</svg>
