<svg width="14" height="18" viewBox="0 0 14 18" xmlns="http://www.w3.org/2000/svg">
    <title>
        lock
    </title>
    <path d="M7 13c.55 0 1-.45 1-1s-.45-1-1-1-1 .45-1 1 .45 1 1 1zm4.017-7V4c0-2.667-1.337-3.997-4.009-3.99C4.336.003 3 1.333 3 4h.993c0-1.991 1.013-2.997 3.015-2.997 2.002 0 3.015 1 3.015 2.997v2H2a2 2 0 0 0-2 2v8a2 2 0 0 0 2 2h10a2 2 0 0 0 2-2V8a2 2 0 0 0-2-2h-.983zM12 17H2.004a1 1 0 0 1-1-1V7.944a1 1 0 0 1 1-1H12a1 1 0 0 1 1 1V16a1 1 0 0 1-1 1z" fill="#000" fill-rule="nonzero"/>
</svg>
