<?xml version="1.0" encoding="UTF-8"?>
<svg width="18px" height="17px" viewBox="0 0 18 17" version="1.1" xmlns="http://www.w3.org/2000/svg" xmlns:xlink="http://www.w3.org/1999/xlink">
    <!-- Generator: Sketch 49.3 (51167) - http://www.bohemiancoding.com/sketch -->
    <title>logout</title>
    <desc>Created with Sketch.</desc>
    <g id="Marvel" stroke="none" stroke-width="1" fill="none" fill-rule="evenodd">
        <g id="Marvel_Profile_Edit_Parts_01" transform="translate(-624.000000, -931.000000)">
            <g id="Group-2-Copy-2" transform="translate(393.000000, 920.000000)">
                <g id="Elements-/-Btn-/-Medium-/-Stroke-+-Icon-Copy-2" transform="translate(216.000000, 0.000000)">
                    <g id="Component-/-Icons-/-S-/-Arrows-/-Ok" transform="translate(12.000000, 8.000000)">
                        <mask id="mask-2" fill="white">
                            <path d="M10,14.9964644 L11,16 L15.5,11.5 L11,7 L10,8 L13,11 L3,11 L3,12 L13,12 L10,14.9964644 Z M19,3 L5,3 C3.8954305,3 3,3.8954305 3,5 L3,9 L4,9 L4,5 C4,4.44771525 4.44771525,4 5,4 L19,4 C19.5522847,4 20,4.44771525 20,5 L20,18 C20,18.5522847 19.5522847,19 19,19 L5,19 C4.44771525,19 4,18.5522847 4,18 L4,14 L3,14 L3,18 C3,19.1045695 3.8954305,20 5,20 L19,20 C20.1045695,20 21,19.1045695 21,18 L21,5 C21,3.8954305 20.1045695,3 19,3 Z"></path>
                        </mask>
                        <path d="M10,14.9964644 L11,16 L15.5,11.5 L11,7 L10,8 L13,11 L3,11 L3,12 L13,12 L10,14.9964644 Z M19,3 L5,3 C3.8954305,3 3,3.8954305 3,5 L3,9 L4,9 L4,5 C4,4.44771525 4.44771525,4 5,4 L19,4 C19.5522847,4 20,4.44771525 20,5 L20,18 C20,18.5522847 19.5522847,19 19,19 L5,19 C4.44771525,19 4,18.5522847 4,18 L4,14 L3,14 L3,18 C3,19.1045695 3.8954305,20 5,20 L19,20 C20.1045695,20 21,19.1045695 21,18 L21,5 C21,3.8954305 20.1045695,3 19,3 Z" fill="#000000" fill-rule="nonzero"></path>
                    </g>
                </g>
            </g>
        </g>
    </g>
</svg>
