<?xml version="1.0" encoding="UTF-8"?>
<svg width="16px" height="16px" viewBox="0 0 16 16" version="1.1" xmlns="http://www.w3.org/2000/svg" xmlns:xlink="http://www.w3.org/1999/xlink">
    <!-- Generator: Sketch 49.3 (51167) - http://www.bohemiancoding.com/sketch -->
    <title>menu-my-events</title>
    <desc>Created with Sketch.</desc>
    <g id="Symbols" stroke="none" stroke-width="1" fill="none" fill-rule="evenodd">
        <g id="Elements-/-Profile-/-Card-/-05" transform="translate(-4.000000, -335.000000)">
            <g id="Group-5" transform="translate(0.000000, 32.000000)">
                <g id="Group-3" transform="translate(0.000000, 291.000000)">
                    <g id="Иконка-слева" transform="translate(0.000000, 8.000000)">
                        <mask id="mask-2" fill="white">
                            <path d="M12.98165,12.99645 L6.99365,12.99645 L6.99365,12.77995 L9.24615,11.43345 C9.25865,11.42595 9.26515,11.41395 9.27615,11.40595 C9.28965,11.39645 9.30515,11.39245 9.31765,11.38145 C9.33215,11.36895 9.33865,11.35145 9.35115,11.33795 C9.37465,11.31245 9.39515,11.28695 9.41265,11.25795 C9.42915,11.23045 9.44115,11.20345 9.45215,11.17345 C9.46315,11.14295 9.47165,11.11345 9.47665,11.08145 C9.48165,11.04995 9.48265,11.01945 9.48165,10.98745 C9.48115,10.95545 9.47765,10.92545 9.47065,10.89395 C9.46315,10.86145 9.45115,10.83095 9.43765,10.79995 C9.42965,10.78295 9.42915,10.76445 9.41915,10.74745 C9.41065,10.73445 9.39815,10.72645 9.38865,10.71445 C9.38015,10.70245 9.37715,10.68745 9.36715,10.67545 C8.95665,10.20345 8.99015,9.56595 8.99165,9.54295 C8.99215,9.53295 8.98765,9.52395 8.98765,9.51395 C8.98815,9.51045 8.99015,9.50745 8.99015,9.50395 L8.99065,7.57095 C9.06515,7.30995 9.52165,7.00495 9.98765,7.00395 C10.45415,7.00395 10.90965,7.30895 10.98465,7.57045 L10.98565,9.50395 C10.98565,9.50795 10.98815,9.51145 10.98815,9.51545 C10.98815,9.52595 10.98365,9.53545 10.98465,9.54595 C10.98515,9.55245 11.02665,10.19495 10.60865,10.67545 C10.60415,10.68095 10.60315,10.68795 10.59865,10.69345 C10.58565,10.70995 10.56815,10.72045 10.55715,10.73845 C10.54365,10.76195 10.54115,10.78745 10.53165,10.81195 C10.52165,10.83545 10.51315,10.85745 10.50665,10.88195 C10.49865,10.91645 10.49515,10.94945 10.49415,10.98395 C10.49265,11.01795 10.49415,11.04995 10.49965,11.08345 C10.50365,11.10795 10.51065,11.13045 10.51815,11.15395 C10.53165,11.19495 10.54865,11.23295 10.57265,11.27045 C10.58215,11.28445 10.59265,11.29695 10.60315,11.31045 C10.62215,11.33395 10.63415,11.36095 10.65815,11.38145 C10.67765,11.39895 10.70165,11.40645 10.72315,11.42045 C10.72515,11.42145 10.72665,11.42345 10.72865,11.42495 L12.98165,12.77895 L12.98165,12.99645 Z M13.94815,12.33945 C13.93765,12.30845 13.92365,12.28095 13.90815,12.25295 C13.89265,12.22545 13.87665,12.20045 13.85615,12.17595 C13.83315,12.14945 13.80765,12.12795 13.78015,12.10645 C13.76465,12.09445 13.75465,12.07795 13.73765,12.06745 L11.68665,10.83495 C11.97965,10.24945 11.98865,9.67945 11.98165,9.51345 C11.98165,9.50995 11.98365,9.50695 11.98365,9.50395 L11.98265,7.50395 C11.98265,7.48895 11.97565,7.47645 11.97415,7.46195 C11.97265,7.44495 11.97815,7.42845 11.97465,7.41145 C11.96865,7.37845 11.95365,7.34895 11.94515,7.31695 C11.94365,7.31345 11.94315,7.30995 11.94165,7.30695 C11.71965,6.50095 10.78315,6.00495 9.99065,6.00495 L9.98765,6.00495 C9.19465,6.00495 8.25615,6.50195 8.03365,7.30695 C8.03265,7.30995 8.03215,7.31345 8.03065,7.31695 C8.02215,7.34895 8.00665,7.37795 8.00065,7.41095 C7.99715,7.42845 8.00265,7.44445 8.00115,7.46195 C8.00015,7.47645 7.99265,7.48895 7.99265,7.50395 L7.99215,9.50395 C7.99215,9.50695 7.99365,9.50995 7.99365,9.51345 C7.98715,9.67995 7.99565,10.25295 8.29165,10.83995 L6.23915,12.06695 C6.22165,12.07745 6.21165,12.09395 6.19565,12.10645 C6.16865,12.12745 6.14265,12.14845 6.12015,12.17495 C6.09915,12.19995 6.08315,12.22545 6.06765,12.25345 C6.05215,12.28095 6.03815,12.30795 6.02765,12.33795 C6.01665,12.37145 6.01165,12.40395 6.00765,12.43895 C6.00515,12.45845 5.99615,12.47595 5.99615,12.49645 L5.99615,12.99645 C5.99615,13.54745 6.44365,13.99645 6.99365,13.99645 L12.98165,13.99645 C13.53215,13.99645 13.97965,13.54745 13.97965,12.99645 L13.97965,12.49645 C13.97965,12.47545 13.97065,12.45795 13.96815,12.43845 C13.96415,12.40395 13.95915,12.37195 13.94815,12.33945 Z M19.85465,9.06345 C19.72915,8.82645 19.51665,8.65495 19.28215,8.58895 L17.63315,8.02695 C17.37165,7.93845 17.08915,8.07745 17.00015,8.33895 C16.91115,8.60045 17.05065,8.88445 17.31165,8.97345 L18.97165,9.50845 L15.68815,19.00395 L10.15515,17.02895 C9.89515,16.93545 9.60965,17.07195 9.51765,17.33245 C9.42515,17.59245 9.56065,17.87845 9.82065,17.97095 L15.36365,19.94945 C15.46765,19.98395 15.57365,19.99995 15.67715,19.99995 C16.09565,19.99995 16.48615,19.73545 16.62315,19.32195 L19.91665,9.83045 C20.00215,9.57345 19.98015,9.30045 19.85465,9.06345 Z M4.99815,14.99995 L15.00215,14.99995 L15.00215,4.99995 L4.99815,4.99995 L4.99815,14.99995 Z M15.97565,14.99995 L15.97565,4.99995 C15.97565,4.44845 15.52815,3.99995 14.97765,3.99995 L4.99815,3.99995 C4.44765,3.99995 4.00015,4.44845 4.00015,4.99995 L4.00015,14.99995 C4.00015,15.55195 4.44765,15.99995 4.99815,15.99995 L14.97765,15.99995 C15.52815,15.99995 15.97565,15.55195 15.97565,14.99995 Z"></path>
                        </mask>
                        <path d="M12.98165,12.99645 L6.99365,12.99645 L6.99365,12.77995 L9.24615,11.43345 C9.25865,11.42595 9.26515,11.41395 9.27615,11.40595 C9.28965,11.39645 9.30515,11.39245 9.31765,11.38145 C9.33215,11.36895 9.33865,11.35145 9.35115,11.33795 C9.37465,11.31245 9.39515,11.28695 9.41265,11.25795 C9.42915,11.23045 9.44115,11.20345 9.45215,11.17345 C9.46315,11.14295 9.47165,11.11345 9.47665,11.08145 C9.48165,11.04995 9.48265,11.01945 9.48165,10.98745 C9.48115,10.95545 9.47765,10.92545 9.47065,10.89395 C9.46315,10.86145 9.45115,10.83095 9.43765,10.79995 C9.42965,10.78295 9.42915,10.76445 9.41915,10.74745 C9.41065,10.73445 9.39815,10.72645 9.38865,10.71445 C9.38015,10.70245 9.37715,10.68745 9.36715,10.67545 C8.95665,10.20345 8.99015,9.56595 8.99165,9.54295 C8.99215,9.53295 8.98765,9.52395 8.98765,9.51395 C8.98815,9.51045 8.99015,9.50745 8.99015,9.50395 L8.99065,7.57095 C9.06515,7.30995 9.52165,7.00495 9.98765,7.00395 C10.45415,7.00395 10.90965,7.30895 10.98465,7.57045 L10.98565,9.50395 C10.98565,9.50795 10.98815,9.51145 10.98815,9.51545 C10.98815,9.52595 10.98365,9.53545 10.98465,9.54595 C10.98515,9.55245 11.02665,10.19495 10.60865,10.67545 C10.60415,10.68095 10.60315,10.68795 10.59865,10.69345 C10.58565,10.70995 10.56815,10.72045 10.55715,10.73845 C10.54365,10.76195 10.54115,10.78745 10.53165,10.81195 C10.52165,10.83545 10.51315,10.85745 10.50665,10.88195 C10.49865,10.91645 10.49515,10.94945 10.49415,10.98395 C10.49265,11.01795 10.49415,11.04995 10.49965,11.08345 C10.50365,11.10795 10.51065,11.13045 10.51815,11.15395 C10.53165,11.19495 10.54865,11.23295 10.57265,11.27045 C10.58215,11.28445 10.59265,11.29695 10.60315,11.31045 C10.62215,11.33395 10.63415,11.36095 10.65815,11.38145 C10.67765,11.39895 10.70165,11.40645 10.72315,11.42045 C10.72515,11.42145 10.72665,11.42345 10.72865,11.42495 L12.98165,12.77895 L12.98165,12.99645 Z M13.94815,12.33945 C13.93765,12.30845 13.92365,12.28095 13.90815,12.25295 C13.89265,12.22545 13.87665,12.20045 13.85615,12.17595 C13.83315,12.14945 13.80765,12.12795 13.78015,12.10645 C13.76465,12.09445 13.75465,12.07795 13.73765,12.06745 L11.68665,10.83495 C11.97965,10.24945 11.98865,9.67945 11.98165,9.51345 C11.98165,9.50995 11.98365,9.50695 11.98365,9.50395 L11.98265,7.50395 C11.98265,7.48895 11.97565,7.47645 11.97415,7.46195 C11.97265,7.44495 11.97815,7.42845 11.97465,7.41145 C11.96865,7.37845 11.95365,7.34895 11.94515,7.31695 C11.94365,7.31345 11.94315,7.30995 11.94165,7.30695 C11.71965,6.50095 10.78315,6.00495 9.99065,6.00495 L9.98765,6.00495 C9.19465,6.00495 8.25615,6.50195 8.03365,7.30695 C8.03265,7.30995 8.03215,7.31345 8.03065,7.31695 C8.02215,7.34895 8.00665,7.37795 8.00065,7.41095 C7.99715,7.42845 8.00265,7.44445 8.00115,7.46195 C8.00015,7.47645 7.99265,7.48895 7.99265,7.50395 L7.99215,9.50395 C7.99215,9.50695 7.99365,9.50995 7.99365,9.51345 C7.98715,9.67995 7.99565,10.25295 8.29165,10.83995 L6.23915,12.06695 C6.22165,12.07745 6.21165,12.09395 6.19565,12.10645 C6.16865,12.12745 6.14265,12.14845 6.12015,12.17495 C6.09915,12.19995 6.08315,12.22545 6.06765,12.25345 C6.05215,12.28095 6.03815,12.30795 6.02765,12.33795 C6.01665,12.37145 6.01165,12.40395 6.00765,12.43895 C6.00515,12.45845 5.99615,12.47595 5.99615,12.49645 L5.99615,12.99645 C5.99615,13.54745 6.44365,13.99645 6.99365,13.99645 L12.98165,13.99645 C13.53215,13.99645 13.97965,13.54745 13.97965,12.99645 L13.97965,12.49645 C13.97965,12.47545 13.97065,12.45795 13.96815,12.43845 C13.96415,12.40395 13.95915,12.37195 13.94815,12.33945 Z M19.85465,9.06345 C19.72915,8.82645 19.51665,8.65495 19.28215,8.58895 L17.63315,8.02695 C17.37165,7.93845 17.08915,8.07745 17.00015,8.33895 C16.91115,8.60045 17.05065,8.88445 17.31165,8.97345 L18.97165,9.50845 L15.68815,19.00395 L10.15515,17.02895 C9.89515,16.93545 9.60965,17.07195 9.51765,17.33245 C9.42515,17.59245 9.56065,17.87845 9.82065,17.97095 L15.36365,19.94945 C15.46765,19.98395 15.57365,19.99995 15.67715,19.99995 C16.09565,19.99995 16.48615,19.73545 16.62315,19.32195 L19.91665,9.83045 C20.00215,9.57345 19.98015,9.30045 19.85465,9.06345 Z M4.99815,14.99995 L15.00215,14.99995 L15.00215,4.99995 L4.99815,4.99995 L4.99815,14.99995 Z M15.97565,14.99995 L15.97565,4.99995 C15.97565,4.44845 15.52815,3.99995 14.97765,3.99995 L4.99815,3.99995 C4.44765,3.99995 4.00015,4.44845 4.00015,4.99995 L4.00015,14.99995 C4.00015,15.55195 4.44765,15.99995 4.99815,15.99995 L14.97765,15.99995 C15.52815,15.99995 15.97565,15.55195 15.97565,14.99995 Z" fill="#241F20"></path>
                    </g>
                </g>
            </g>
        </g>
    </g>
</svg>
