<svg width="16" height="16" viewBox="0 0 16 16" xmlns="http://www.w3.org/2000/svg">
    <title>
        menu-events
    </title>
    <path d="M2.5 8a.5.5 0 0 0-.5-.5H.5a.5.5 0 1 0 0 1H2a.5.5 0 0 0 .5-.5zm13-.5H14a.5.5 0 1 0 0 1h1.5a.5.5 0 1 0 0-1zm-7.5 6a.5.5 0 0 0-.5.5v1.5a.5.5 0 1 0 1 0V14a.5.5 0 0 0-.5-.5zm0-11a.5.5 0 0 0 .5-.5V.5a.5.5 0 1 0-1 0V2a.5.5 0 0 0 .5.5zm1.416 6.209L7.291 6.584l6.021-3.896-3.896 6.021zm-6.729 4.604l3.897-6.022 2.125 2.125-6.021 3.897zM15.354.646a.5.5 0 0 0-.625-.066l-8.5 5.5c-.015.01-.022.025-.036.036-.015.011-.033.017-.046.03-.014.014-.02.032-.031.047-.011.013-.027.021-.036.036l-5.5 8.5a.5.5 0 0 0 .691.691l8.5-5.5c.014-.01.023-.025.036-.036.015-.011.033-.017.046-.03.014-.014.02-.031.031-.046.011-.014.027-.022.036-.037l5.5-8.5a.5.5 0 0 0-.066-.625z" fill="#241F20" fill-rule="evenodd"/>
</svg>
