<?xml version="1.0" encoding="UTF-8"?>
<svg width="16px" height="15px" viewBox="0 0 16 15" version="1.1" xmlns="http://www.w3.org/2000/svg" xmlns:xlink="http://www.w3.org/1999/xlink">
    <!-- Generator: Sketch 49.3 (51167) - http://www.bohemiancoding.com/sketch -->
    <title>menu-messages</title>
    <desc>Created with Sketch.</desc>
    <g id="Symbols" stroke="none" stroke-width="1" fill="none" fill-rule="evenodd">
        <g id="Elements-/-Profile-/-Card-/-05" transform="translate(-4.000000, -376.000000)">
            <g id="Group-5" transform="translate(0.000000, 32.000000)">
                <g id="Group-3" transform="translate(0.000000, 331.000000)">
                    <g id="Иконка-слева" transform="translate(0.000000, 8.000000)">
                        <mask id="mask-2" fill="white">
                            <path d="M19,9.5004 L17.5,9.5004 C17.2235,9.5004 17,9.7244 17,10.0004 C17,10.2764 17.2235,10.5004 17.5,10.5004 L19,10.5004 L19,16.5004 L16.5,16.5004 C16.2235,16.5004 16,16.7244 16,17.0004 L16,18.2934 L14.3535,16.6464 C14.3475,16.6404 14.339,16.6384 14.333,16.6329 C14.291,16.5949 14.2445,16.5614 14.1915,16.5394 C14.13,16.5134 14.0645,16.5004 13.999,16.5004 L11,16.5004 L11,16.0004 C11,15.7244 10.7765,15.5004 10.5,15.5004 C10.2235,15.5004 10,15.7244 10,16.0004 L10,16.5004 C10,17.0519 10.4485,17.5004 11,17.5004 L13.7925,17.5004 L16.1465,19.8539 C16.242,19.9494 16.37,20.0004 16.5,20.0004 C16.5645,20.0004 16.6295,19.9884 16.6915,19.9624 C16.8785,19.8849 17,19.7029 17,19.5004 L17,17.5004 L19,17.5004 C19.5515,17.5004 20,17.0519 20,16.5004 L20,10.5004 C20,9.9489 19.5515,9.5004 19,9.5004 Z M11,10.0004 L6.5,10.0004 C6.2235,10.0004 6,10.2244 6,10.5004 C6,10.7764 6.2235,11.0004 6.5,11.0004 L11,11.0004 C11.2765,11.0004 11.5,10.7764 11.5,10.5004 C11.5,10.2244 11.2765,10.0004 11,10.0004 Z M13.5,8.0004 L6.5,8.0004 C6.2235,8.0004 6,8.2239 6,8.5004 C6,8.7764 6.2235,9.0004 6.5,9.0004 L13.5,9.0004 C13.7765,9.0004 14,8.7764 14,8.5004 C14,8.2239 13.7765,8.0004 13.5,8.0004 Z M9.8085,13.0394 C9.755,13.0614 9.7085,13.0949 9.6665,13.1334 C9.66,13.1389 9.6525,13.1409 9.6465,13.1464 L8,14.7934 L8,13.5004 C8,13.2244 7.7765,13.0004 7.5,13.0004 L5,13.0004 L5,6.0004 L15,6.0004 L15,13.0004 L10.0005,13.0004 C9.9355,13.0004 9.87,13.0134 9.8085,13.0394 Z M15,14.0004 C15.5515,14.0004 16,13.5519 16,13.0004 L16,6.0004 C16,5.4484 15.5515,5.0004 15,5.0004 L5,5.0004 C4.4485,5.0004 4,5.4484 4,6.0004 L4,13.0004 C4,13.5519 4.4485,14.0004 5,14.0004 L7,14.0004 L7,16.0004 C7,16.2024 7.1215,16.3854 7.3085,16.4624 C7.3705,16.4879 7.4355,16.5004 7.5,16.5004 C7.63,16.5004 7.758,16.4494 7.8535,16.3539 L10.207,14.0004 L15,14.0004 Z"></path>
                        </mask>
                        <path d="M19,9.5004 L17.5,9.5004 C17.2235,9.5004 17,9.7244 17,10.0004 C17,10.2764 17.2235,10.5004 17.5,10.5004 L19,10.5004 L19,16.5004 L16.5,16.5004 C16.2235,16.5004 16,16.7244 16,17.0004 L16,18.2934 L14.3535,16.6464 C14.3475,16.6404 14.339,16.6384 14.333,16.6329 C14.291,16.5949 14.2445,16.5614 14.1915,16.5394 C14.13,16.5134 14.0645,16.5004 13.999,16.5004 L11,16.5004 L11,16.0004 C11,15.7244 10.7765,15.5004 10.5,15.5004 C10.2235,15.5004 10,15.7244 10,16.0004 L10,16.5004 C10,17.0519 10.4485,17.5004 11,17.5004 L13.7925,17.5004 L16.1465,19.8539 C16.242,19.9494 16.37,20.0004 16.5,20.0004 C16.5645,20.0004 16.6295,19.9884 16.6915,19.9624 C16.8785,19.8849 17,19.7029 17,19.5004 L17,17.5004 L19,17.5004 C19.5515,17.5004 20,17.0519 20,16.5004 L20,10.5004 C20,9.9489 19.5515,9.5004 19,9.5004 Z M11,10.0004 L6.5,10.0004 C6.2235,10.0004 6,10.2244 6,10.5004 C6,10.7764 6.2235,11.0004 6.5,11.0004 L11,11.0004 C11.2765,11.0004 11.5,10.7764 11.5,10.5004 C11.5,10.2244 11.2765,10.0004 11,10.0004 Z M13.5,8.0004 L6.5,8.0004 C6.2235,8.0004 6,8.2239 6,8.5004 C6,8.7764 6.2235,9.0004 6.5,9.0004 L13.5,9.0004 C13.7765,9.0004 14,8.7764 14,8.5004 C14,8.2239 13.7765,8.0004 13.5,8.0004 Z M9.8085,13.0394 C9.755,13.0614 9.7085,13.0949 9.6665,13.1334 C9.66,13.1389 9.6525,13.1409 9.6465,13.1464 L8,14.7934 L8,13.5004 C8,13.2244 7.7765,13.0004 7.5,13.0004 L5,13.0004 L5,6.0004 L15,6.0004 L15,13.0004 L10.0005,13.0004 C9.9355,13.0004 9.87,13.0134 9.8085,13.0394 Z M15,14.0004 C15.5515,14.0004 16,13.5519 16,13.0004 L16,6.0004 C16,5.4484 15.5515,5.0004 15,5.0004 L5,5.0004 C4.4485,5.0004 4,5.4484 4,6.0004 L4,13.0004 C4,13.5519 4.4485,14.0004 5,14.0004 L7,14.0004 L7,16.0004 C7,16.2024 7.1215,16.3854 7.3085,16.4624 C7.3705,16.4879 7.4355,16.5004 7.5,16.5004 C7.63,16.5004 7.758,16.4494 7.8535,16.3539 L10.207,14.0004 L15,14.0004 Z" fill="#241F20"></path>
                    </g>
                </g>
            </g>
        </g>
    </g>
</svg>
