<?xml version="1.0" encoding="UTF-8"?>
<svg width="16px" height="16px" viewBox="0 0 16 16" version="1.1" xmlns="http://www.w3.org/2000/svg" xmlns:xlink="http://www.w3.org/1999/xlink">
    <!-- Generator: Sketch 49.3 (51167) - http://www.bohemiancoding.com/sketch -->
    <title>menu-events</title>
    <desc>Created with Sketch.</desc>
    <g id="Symbols" stroke="none" stroke-width="1" fill="none" fill-rule="evenodd">
        <g id="Elements-/-Profile-/-Card-/-05" transform="translate(-4.000000, -255.000000)">
            <g id="Group-5" transform="translate(0.000000, 32.000000)">
                <g id="Group-3" transform="translate(0.000000, 211.000000)">
                    <g id="Иконка-слева" transform="translate(0.000000, 8.000000)">
                        <mask id="mask-2" fill="white">
                            <path d="M6.5,12 C6.5,11.724 6.2765,11.5 6,11.5 L4.5,11.5 C4.2235,11.5 4,11.724 4,12 C4,12.276 4.2235,12.5 4.5,12.5 L6,12.5 C6.2765,12.5 6.5,12.276 6.5,12 Z M19.5,11.5 L18,11.5 C17.7235,11.5 17.5,11.724 17.5,12 C17.5,12.276 17.7235,12.5 18,12.5 L19.5,12.5 C19.7765,12.5 20,12.276 20,12 C20,11.724 19.7765,11.5 19.5,11.5 Z M12,17.5 C11.7235,17.5 11.5,17.7235 11.5,18 L11.5,19.5 C11.5,19.776 11.7235,20 12,20 C12.2765,20 12.5,19.776 12.5,19.5 L12.5,18 C12.5,17.7235 12.2765,17.5 12,17.5 Z M12,6.5 C12.2765,6.5 12.5,6.276 12.5,6 L12.5,4.5 C12.5,4.224 12.2765,4 12,4 C11.7235,4 11.5,4.224 11.5,4.5 L11.5,6 C11.5,6.276 11.7235,6.5 12,6.5 Z M13.416,12.709 L11.291,10.5835 L17.3125,6.6875 L13.416,12.709 Z M6.6875,17.313 L10.584,11.291 L12.709,13.416 L6.6875,17.313 Z M19.3535,4.6465 C19.1865,4.4795 18.926,4.452 18.7285,4.58 L10.2285,10.08 C10.2145,10.0895 10.2065,10.105 10.193,10.1155 C10.178,10.1275 10.16,10.133 10.1465,10.1465 C10.133,10.16 10.1275,10.1775 10.116,10.1925 C10.105,10.206 10.0895,10.214 10.08,10.2285 L4.58,18.7285 C4.452,18.9265 4.4795,19.187 4.6465,19.3535 C4.743,19.45 4.871,19.5 5,19.5 C5.0935,19.5 5.1885,19.4735 5.2715,19.42 L13.7715,13.92 C13.7855,13.9105 13.794,13.895 13.807,13.8845 C13.822,13.8725 13.84,13.867 13.8535,13.8535 C13.867,13.84 13.8725,13.8225 13.884,13.8075 C13.895,13.7945 13.9105,13.786 13.92,13.7715 L19.42,5.2715 C19.548,5.0735 19.5205,4.8135 19.3535,4.6465 Z"></path>
                        </mask>
                        <path d="M6.5,12 C6.5,11.724 6.2765,11.5 6,11.5 L4.5,11.5 C4.2235,11.5 4,11.724 4,12 C4,12.276 4.2235,12.5 4.5,12.5 L6,12.5 C6.2765,12.5 6.5,12.276 6.5,12 Z M19.5,11.5 L18,11.5 C17.7235,11.5 17.5,11.724 17.5,12 C17.5,12.276 17.7235,12.5 18,12.5 L19.5,12.5 C19.7765,12.5 20,12.276 20,12 C20,11.724 19.7765,11.5 19.5,11.5 Z M12,17.5 C11.7235,17.5 11.5,17.7235 11.5,18 L11.5,19.5 C11.5,19.776 11.7235,20 12,20 C12.2765,20 12.5,19.776 12.5,19.5 L12.5,18 C12.5,17.7235 12.2765,17.5 12,17.5 Z M12,6.5 C12.2765,6.5 12.5,6.276 12.5,6 L12.5,4.5 C12.5,4.224 12.2765,4 12,4 C11.7235,4 11.5,4.224 11.5,4.5 L11.5,6 C11.5,6.276 11.7235,6.5 12,6.5 Z M13.416,12.709 L11.291,10.5835 L17.3125,6.6875 L13.416,12.709 Z M6.6875,17.313 L10.584,11.291 L12.709,13.416 L6.6875,17.313 Z M19.3535,4.6465 C19.1865,4.4795 18.926,4.452 18.7285,4.58 L10.2285,10.08 C10.2145,10.0895 10.2065,10.105 10.193,10.1155 C10.178,10.1275 10.16,10.133 10.1465,10.1465 C10.133,10.16 10.1275,10.1775 10.116,10.1925 C10.105,10.206 10.0895,10.214 10.08,10.2285 L4.58,18.7285 C4.452,18.9265 4.4795,19.187 4.6465,19.3535 C4.743,19.45 4.871,19.5 5,19.5 C5.0935,19.5 5.1885,19.4735 5.2715,19.42 L13.7715,13.92 C13.7855,13.9105 13.794,13.895 13.807,13.8845 C13.822,13.8725 13.84,13.867 13.8535,13.8535 C13.867,13.84 13.8725,13.8225 13.884,13.8075 C13.895,13.7945 13.9105,13.786 13.92,13.7715 L19.42,5.2715 C19.548,5.0735 19.5205,4.8135 19.3535,4.6465 Z" fill="#241F20"></path>
                    </g>
                </g>
            </g>
        </g>
    </g>
</svg>
