<svg width="14" height="16" viewBox="0 0 14 16" xmlns="http://www.w3.org/2000/svg">
    <title>
        menu-notifications
    </title>
    <path d="M1.133 12.5L2.806 9.23c.008-.017.008-.034.014-.05.1-.092.166-.221.166-.368V5C2.986 2.794 4.771 1 6.966 1c2.195 0 3.981 1.794 3.981 4V8.81c0 .147.066.276.166.368.006.016.006.033.014.05l1.672 3.271H1.133zM6.966 15a1.498 1.498 0 0 1-1.493-1.5H8.46c0 .827-.67 1.5-1.494 1.5zm6.863-2.676l-1.817-3.552c-.018-.035-.046-.06-.07-.088V4.999C11.942 2.243 9.71 0 6.966 0 4.222 0 1.99 2.243 1.99 5v3.684c-.024.028-.051.053-.069.088L.104 12.324c-.14.275-.139.567.005.802.144.238.407.374.72.374h3.649c0 1.379 1.116 2.5 2.488 2.5a2.497 2.497 0 0 0 2.489-2.5h3.649c.314 0 .576-.136.72-.374.144-.235.145-.527.005-.802z" fill="#241F20" fill-rule="evenodd"/>
</svg>
