<?xml version="1.0" encoding="UTF-8"?>
<svg width="15px" height="16px" viewBox="0 0 15 16" version="1.1" xmlns="http://www.w3.org/2000/svg" xmlns:xlink="http://www.w3.org/1999/xlink">
    <!-- Generator: Sketch 49.3 (51167) - http://www.bohemiancoding.com/sketch -->
    <title>menu-bookmarks</title>
    <desc>Created with Sketch.</desc>
    <g id="Symbols" stroke="none" stroke-width="1" fill="none" fill-rule="evenodd">
        <g id="Elements-/-Profile-/-Card-/-05" transform="translate(-5.000000, -495.000000)">
            <g id="Group-5" transform="translate(0.000000, 32.000000)">
                <g id="Group-3" transform="translate(0.000000, 451.000000)">
                    <g id="Component-/-Icons-/-S-/-Attach" transform="translate(0.000000, 8.000000)">
                        <mask id="mask-2" fill="white">
                            <path d="M7.19995,14.57865 L5.99995,15.47715 L5.99995,4.99765 L14.99995,4.99765 L14.99995,5.49715 C14.99995,5.77315 15.22395,5.99615 15.49995,5.99615 C15.77595,5.99615 15.99995,5.77315 15.99995,5.49715 L15.99995,4.49915 C15.99995,4.22365 15.77595,4.00015 15.49995,4.00015 L5.49995,4.00015 C5.22395,4.00015 4.99995,4.22365 4.99995,4.49915 L4.99995,16.47465 C4.99995,16.66365 5.10695,16.83665 5.27645,16.92165 C5.34695,16.95615 5.42395,16.97415 5.49995,16.97415 C5.60595,16.97415 5.71145,16.94065 5.79995,16.87365 L7.79995,15.37715 C8.02095,15.21215 8.06545,14.89865 7.89995,14.67915 C7.73445,14.45815 7.42145,14.41365 7.19995,14.57865 Z M18.99995,18.43065 L14.81245,15.08715 C14.72095,15.01415 14.61045,14.97815 14.49995,14.97815 C14.38945,14.97815 14.27895,15.01415 14.18795,15.08715 L9.99995,18.43065 L9.99995,7.99165 L18.99995,7.99165 L18.99995,18.43065 Z M19.49995,7.01515 L9.49995,7.01515 C9.22395,7.01515 8.99995,7.21715 8.99995,7.49315 L8.99995,19.46865 C8.99995,19.66115 9.10995,19.83565 9.28345,19.91915 C9.45595,20.00215 9.66195,19.97865 9.81245,19.85865 L14.49995,16.11565 L19.18795,19.85865 C19.27795,19.93115 19.38845,19.96765 19.49995,19.96765 C19.57395,19.96765 19.64795,19.95165 19.71645,19.91915 C19.88995,19.83565 19.99995,19.66115 19.99995,19.46865 L19.99995,7.49315 C19.99995,7.21715 19.77595,7.01515 19.49995,7.01515 Z"></path>
                        </mask>
                        <path d="M7.19995,14.57865 L5.99995,15.47715 L5.99995,4.99765 L14.99995,4.99765 L14.99995,5.49715 C14.99995,5.77315 15.22395,5.99615 15.49995,5.99615 C15.77595,5.99615 15.99995,5.77315 15.99995,5.49715 L15.99995,4.49915 C15.99995,4.22365 15.77595,4.00015 15.49995,4.00015 L5.49995,4.00015 C5.22395,4.00015 4.99995,4.22365 4.99995,4.49915 L4.99995,16.47465 C4.99995,16.66365 5.10695,16.83665 5.27645,16.92165 C5.34695,16.95615 5.42395,16.97415 5.49995,16.97415 C5.60595,16.97415 5.71145,16.94065 5.79995,16.87365 L7.79995,15.37715 C8.02095,15.21215 8.06545,14.89865 7.89995,14.67915 C7.73445,14.45815 7.42145,14.41365 7.19995,14.57865 Z M18.99995,18.43065 L14.81245,15.08715 C14.72095,15.01415 14.61045,14.97815 14.49995,14.97815 C14.38945,14.97815 14.27895,15.01415 14.18795,15.08715 L9.99995,18.43065 L9.99995,7.99165 L18.99995,7.99165 L18.99995,18.43065 Z M19.49995,7.01515 L9.49995,7.01515 C9.22395,7.01515 8.99995,7.21715 8.99995,7.49315 L8.99995,19.46865 C8.99995,19.66115 9.10995,19.83565 9.28345,19.91915 C9.45595,20.00215 9.66195,19.97865 9.81245,19.85865 L14.49995,16.11565 L19.18795,19.85865 C19.27795,19.93115 19.38845,19.96765 19.49995,19.96765 C19.57395,19.96765 19.64795,19.95165 19.71645,19.91915 C19.88995,19.83565 19.99995,19.66115 19.99995,19.46865 L19.99995,7.49315 C19.99995,7.21715 19.77595,7.01515 19.49995,7.01515 Z" fill="#241F20"></path>
                    </g>
                </g>
            </g>
        </g>
    </g>
</svg>
