<svg width="16" height="16" viewBox="0 0 16 16" xmlns="http://www.w3.org/2000/svg">
    <title>
        menu-my-events
    </title>
    <path d="M8.982 8.996H2.994V8.78l2.252-1.347c.013-.007.02-.02.03-.027.014-.01.03-.014.042-.025.014-.012.02-.03.033-.043a.494.494 0 0 0 .101-.165.49.49 0 0 0-.014-.373c-.008-.017-.009-.036-.019-.053-.008-.013-.02-.02-.03-.033-.009-.012-.012-.027-.022-.039-.41-.472-.377-1.109-.375-1.132 0-.01-.004-.02-.004-.03l.002-.01V3.572c.075-.261.532-.566.998-.567.466 0 .922.305.997.566v1.934c0 .004.003.007.003.011 0 .011-.004.02-.003.03 0 .007.042.65-.376 1.13-.005.006-.006.013-.01.018-.013.017-.03.027-.042.045-.013.024-.016.05-.025.074a.508.508 0 0 0-.025.07.508.508 0 0 0 .066.388l.03.04c.02.024.031.051.055.071.02.018.044.025.065.04.002 0 .004.002.006.004l2.253 1.354v.217zm.966-.657a.523.523 0 0 0-.168-.233c-.015-.012-.025-.028-.042-.039L7.687 6.835a2.868 2.868 0 0 0 .295-1.322l.002-.01-.001-2c0-.014-.007-.027-.009-.041-.001-.017.004-.034 0-.05-.005-.034-.02-.063-.029-.095l-.003-.01C7.72 2.5 6.783 2.005 5.99 2.005h-.003c-.793 0-1.732.497-1.954 1.302l-.003.01c-.009.032-.024.061-.03.094-.004.017.002.033 0 .05 0 .015-.008.028-.008.043v2.01c-.006.166.003.739.299 1.326L2.239 8.067c-.017.01-.027.027-.043.04a.49.49 0 0 0-.076.068.478.478 0 0 0-.052.078.522.522 0 0 0-.04.085.495.495 0 0 0-.02.101c-.003.02-.012.037-.012.057v.5a1 1 0 0 0 .998 1h5.988a1 1 0 0 0 .998-1v-.5c0-.02-.01-.038-.012-.058a.47.47 0 0 0-.02-.099zm5.907-3.276a.953.953 0 0 0-.573-.474l-1.649-.562a.499.499 0 1 0-.321.946l1.66.535-3.284 9.496-5.533-1.975a.5.5 0 1 0-.335.942l5.544 1.978a.997.997 0 0 0 1.26-.627l3.293-9.492a.971.971 0 0 0-.062-.767zM.998 11h10.004V1H.998v10zm10.978 0V1a1 1 0 0 0-.998-1H.998A1 1 0 0 0 0 1v10a1 1 0 0 0 .998 1h9.98a1 1 0 0 0 .998-1z" fill="#241F20" fill-rule="evenodd"/>
</svg>
