<?xml version="1.0" encoding="UTF-8"?>
<svg width="14px" height="16px" viewBox="0 0 14 16" version="1.1" xmlns="http://www.w3.org/2000/svg" xmlns:xlink="http://www.w3.org/1999/xlink">
    <!-- Generator: Sketch 49.3 (51167) - http://www.bohemiancoding.com/sketch -->
    <title>menu-notifications</title>
    <desc>Created with Sketch.</desc>
    <g id="Symbols" stroke="none" stroke-width="1" fill="none" fill-rule="evenodd">
        <g id="Elements-/-Profile-/-Card-/-05" transform="translate(-5.000000, -415.000000)">
            <g id="Group-5" transform="translate(0.000000, 32.000000)">
                <g id="Group-3" transform="translate(0.000000, 371.000000)">
                    <g id="Иконка-слева" transform="translate(0.000000, 8.000000)">
                        <mask id="mask-2" fill="white">
                            <path d="M6.133,16.50005 L7.806,13.22855 C7.814,13.21205 7.8135,13.19505 7.82,13.17855 C7.9205,13.08705 7.986,12.95805 7.986,12.81105 L7.986,8.99905 C7.986,6.79405 9.7715,5.00005 11.966,5.00005 C14.161,5.00005 15.947,6.79405 15.947,8.99905 L15.947,12.81105 C15.947,12.95805 16.0125,13.08705 16.1125,13.17855 C16.119,13.19505 16.1185,13.21205 16.1265,13.22855 L17.7995,16.50005 L6.133,16.50005 Z M11.966,19.00005 C11.143,19.00005 10.4735,18.32705 10.4735,17.50005 L13.4595,17.50005 C13.4595,18.32705 12.7895,19.00005 11.966,19.00005 Z M18.829,16.32405 L17.012,12.77155 C16.9945,12.73705 16.9665,12.71205 16.942,12.68355 L16.942,8.99905 C16.942,6.24255 14.71,4.00005 11.966,4.00005 C9.2225,4.00005 6.9905,6.24255 6.9905,8.99905 L6.9905,12.68355 C6.9665,12.71205 6.9385,12.73705 6.921,12.77155 L5.104,16.32405 C4.964,16.59855 4.9655,16.89055 5.1085,17.12605 C5.253,17.36355 5.5155,17.50005 5.8295,17.50005 L9.478,17.50005 C9.478,18.87855 10.594,20.00005 11.966,20.00005 C13.3385,20.00005 14.455,18.87855 14.455,17.50005 L18.1035,17.50005 C18.4175,17.50005 18.68,17.36355 18.8245,17.12605 C18.9675,16.89055 18.969,16.59855 18.829,16.32405 Z"></path>
                        </mask>
                        <path d="M6.133,16.50005 L7.806,13.22855 C7.814,13.21205 7.8135,13.19505 7.82,13.17855 C7.9205,13.08705 7.986,12.95805 7.986,12.81105 L7.986,8.99905 C7.986,6.79405 9.7715,5.00005 11.966,5.00005 C14.161,5.00005 15.947,6.79405 15.947,8.99905 L15.947,12.81105 C15.947,12.95805 16.0125,13.08705 16.1125,13.17855 C16.119,13.19505 16.1185,13.21205 16.1265,13.22855 L17.7995,16.50005 L6.133,16.50005 Z M11.966,19.00005 C11.143,19.00005 10.4735,18.32705 10.4735,17.50005 L13.4595,17.50005 C13.4595,18.32705 12.7895,19.00005 11.966,19.00005 Z M18.829,16.32405 L17.012,12.77155 C16.9945,12.73705 16.9665,12.71205 16.942,12.68355 L16.942,8.99905 C16.942,6.24255 14.71,4.00005 11.966,4.00005 C9.2225,4.00005 6.9905,6.24255 6.9905,8.99905 L6.9905,12.68355 C6.9665,12.71205 6.9385,12.73705 6.921,12.77155 L5.104,16.32405 C4.964,16.59855 4.9655,16.89055 5.1085,17.12605 C5.253,17.36355 5.5155,17.50005 5.8295,17.50005 L9.478,17.50005 C9.478,18.87855 10.594,20.00005 11.966,20.00005 C13.3385,20.00005 14.455,18.87855 14.455,17.50005 L18.1035,17.50005 C18.4175,17.50005 18.68,17.36355 18.8245,17.12605 C18.9675,16.89055 18.969,16.59855 18.829,16.32405 Z" fill="#241F20"></path>
                    </g>
                </g>
            </g>
        </g>
    </g>
</svg>
