<svg width="15" height="16" viewBox="0 0 15 16" xmlns="http://www.w3.org/2000/svg">
    <title>
        menu-bookmarks
    </title>
    <path d="M2.2 10.579l-1.2.898V.997h9v.5a.5.5 0 0 0 1 0V.5A.5.5 0 0 0 10.5 0H.5a.5.5 0 0 0-.5.5v11.975a.5.5 0 0 0 .8.399l2-1.497a.5.5 0 0 0-.6-.799zM14 14.43l-4.188-3.344a.5.5 0 0 0-.624 0L5 14.431V3.99h9v10.44zm.5-11.416h-10c-.276 0-.5.202-.5.478V15.47a.5.5 0 0 0 .812.39L9.5 12.116l4.688 3.743a.496.496 0 0 0 .528.06.5.5 0 0 0 .284-.45V3.493c0-.276-.224-.478-.5-.478z" fill="#241F20" fill-rule="evenodd"/>
</svg>
