<?xml version="1.0" encoding="UTF-8"?>
<svg width="16px" height="16px" viewBox="0 0 16 16" version="1.1" xmlns="http://www.w3.org/2000/svg" xmlns:xlink="http://www.w3.org/1999/xlink">
    <!-- Generator: Sketch 49.3 (51167) - http://www.bohemiancoding.com/sketch -->
    <title>menu-news</title>
    <desc>Created with Sketch.</desc>
    <g id="Symbols" stroke="none" stroke-width="1" fill="none" fill-rule="evenodd">
        <g id="Elements-/-Profile-/-Card-/-05" transform="translate(-4.000000, -455.000000)">
            <g id="Group-5" transform="translate(0.000000, 32.000000)">
                <g id="Group-3" transform="translate(0.000000, 411.000000)">
                    <g id="Component-/-Icons-/-S-/-Attach" transform="translate(0.000000, 8.000000)">
                        <mask id="mask-2" fill="white">
                            <path d="M5,5 L5,15.5 C5,17.4329966 6.56700338,19 8.5,19 L15.5,19 C17.4329966,19 19,17.4329966 19,15.5 L19,5.5 C19,5.22385763 19.2238576,5 19.5,5 C19.7761424,5 20,5.22385763 20,5.5 L20,15.5 C20,17.9852814 17.9852814,20 15.5,20 L8.5,20 C6.01471863,20 4,17.9852814 4,15.5 L4,4.5 C4,4.22385763 4.22385763,4 4.5,4 L16.5,4 C16.7761424,4 17,4.22385763 17,4.5 L17,15.5 C17,15.7761424 16.7761424,16 16.5,16 C16.2238576,16 16,15.7761424 16,15.5 L16,5 L5,5 Z M7,9 L7,12 L10,12 L10,9 L7,9 Z M7,8 L10,8 C10.5522847,8 11,8.44771525 11,9 L11,12 C11,12.5522847 10.5522847,13 10,13 L7,13 C6.44771525,13 6,12.5522847 6,12 L6,9 C6,8.44771525 6.44771525,8 7,8 Z M12.5,8 L14.5,8 C14.7761424,8 15,8.22385763 15,8.5 C15,8.77614237 14.7761424,9 14.5,9 L12.5,9 C12.2238576,9 12,8.77614237 12,8.5 C12,8.22385763 12.2238576,8 12.5,8 Z M12.5,10 L14.5,10 C14.7761424,10 15,10.2238576 15,10.5 C15,10.7761424 14.7761424,11 14.5,11 L12.5,11 C12.2238576,11 12,10.7761424 12,10.5 C12,10.2238576 12.2238576,10 12.5,10 Z M12.5,12 L14.5,12 C14.7761424,12 15,12.2238576 15,12.5 C15,12.7761424 14.7761424,13 14.5,13 L12.5,13 C12.2238576,13 12,12.7761424 12,12.5 C12,12.2238576 12.2238576,12 12.5,12 Z M6.5,14 L14.5,14 C14.7761424,14 15,14.2238576 15,14.5 C15,14.7761424 14.7761424,15 14.5,15 L6.5,15 C6.22385763,15 6,14.7761424 6,14.5 C6,14.2238576 6.22385763,14 6.5,14 Z M8.5,16 L14.5,16 C14.7761424,16 15,16.2238576 15,16.5 C15,16.7761424 14.7761424,17 14.5,17 L8.5,17 C8.22385763,17 8,16.7761424 8,16.5 C8,16.2238576 8.22385763,16 8.5,16 Z M6.5,6 L14.5,6 C14.7761424,6 15,6.22385763 15,6.5 C15,6.77614237 14.7761424,7 14.5,7 L6.5,7 C6.22385763,7 6,6.77614237 6,6.5 C6,6.22385763 6.22385763,6 6.5,6 Z"></path>
                        </mask>
                        <path d="M5,5 L5,15.5 C5,17.4329966 6.56700338,19 8.5,19 L15.5,19 C17.4329966,19 19,17.4329966 19,15.5 L19,5.5 C19,5.22385763 19.2238576,5 19.5,5 C19.7761424,5 20,5.22385763 20,5.5 L20,15.5 C20,17.9852814 17.9852814,20 15.5,20 L8.5,20 C6.01471863,20 4,17.9852814 4,15.5 L4,4.5 C4,4.22385763 4.22385763,4 4.5,4 L16.5,4 C16.7761424,4 17,4.22385763 17,4.5 L17,15.5 C17,15.7761424 16.7761424,16 16.5,16 C16.2238576,16 16,15.7761424 16,15.5 L16,5 L5,5 Z M7,9 L7,12 L10,12 L10,9 L7,9 Z M7,8 L10,8 C10.5522847,8 11,8.44771525 11,9 L11,12 C11,12.5522847 10.5522847,13 10,13 L7,13 C6.44771525,13 6,12.5522847 6,12 L6,9 C6,8.44771525 6.44771525,8 7,8 Z M12.5,8 L14.5,8 C14.7761424,8 15,8.22385763 15,8.5 C15,8.77614237 14.7761424,9 14.5,9 L12.5,9 C12.2238576,9 12,8.77614237 12,8.5 C12,8.22385763 12.2238576,8 12.5,8 Z M12.5,10 L14.5,10 C14.7761424,10 15,10.2238576 15,10.5 C15,10.7761424 14.7761424,11 14.5,11 L12.5,11 C12.2238576,11 12,10.7761424 12,10.5 C12,10.2238576 12.2238576,10 12.5,10 Z M12.5,12 L14.5,12 C14.7761424,12 15,12.2238576 15,12.5 C15,12.7761424 14.7761424,13 14.5,13 L12.5,13 C12.2238576,13 12,12.7761424 12,12.5 C12,12.2238576 12.2238576,12 12.5,12 Z M6.5,14 L14.5,14 C14.7761424,14 15,14.2238576 15,14.5 C15,14.7761424 14.7761424,15 14.5,15 L6.5,15 C6.22385763,15 6,14.7761424 6,14.5 C6,14.2238576 6.22385763,14 6.5,14 Z M8.5,16 L14.5,16 C14.7761424,16 15,16.2238576 15,16.5 C15,16.7761424 14.7761424,17 14.5,17 L8.5,17 C8.22385763,17 8,16.7761424 8,16.5 C8,16.2238576 8.22385763,16 8.5,16 Z M6.5,6 L14.5,6 C14.7761424,6 15,6.22385763 15,6.5 C15,6.77614237 14.7761424,7 14.5,7 L6.5,7 C6.22385763,7 6,6.77614237 6,6.5 C6,6.22385763 6.22385763,6 6.5,6 Z" fill="#000000" fill-rule="nonzero"></path>
                    </g>
                </g>
            </g>
        </g>
    </g>
</svg>
