<svg width="16" height="15" viewBox="0 0 16 15" xmlns="http://www.w3.org/2000/svg">
    <title>
        menu-messages
    </title>
    <path d="M15 4.5h-1.5a.5.5 0 1 0 0 1H15v6h-2.5a.5.5 0 0 0-.5.5v1.293l-1.646-1.647c-.006-.006-.015-.008-.021-.013a.494.494 0 0 0-.334-.133H7V11a.5.5 0 1 0-1 0v.5c0 .552.448 1 1 1h2.793l2.354 2.354A.5.5 0 0 0 13 14.5v-2h2c.552 0 1-.448 1-1v-6c0-.551-.448-1-1-1zM7 5H2.5a.5.5 0 1 0 0 1H7a.5.5 0 1 0 0-1zm2.5-2h-7a.5.5 0 1 0 0 1h7a.5.5 0 1 0 0-1zM5.809 8.04a.485.485 0 0 0-.143.093c-.006.006-.014.008-.02.013L4 9.793V8.5a.5.5 0 0 0-.5-.5H1V1h10v7H6a.494.494 0 0 0-.191.04zM11 9c.552 0 1-.448 1-1V1a1 1 0 0 0-1-1H1a1 1 0 0 0-1 1v7c0 .552.449 1 1 1h2v2a.5.5 0 0 0 .854.354L6.207 9H11z" fill="#241F20" fill-rule="evenodd"/>
</svg>
