<svg width="16" height="16" viewBox="0 0 16 16" xmlns="http://www.w3.org/2000/svg">
    <title>
        menu-news
    </title>
    <path d="M1 1v10.5A3.5 3.5 0 0 0 4.5 15h7a3.5 3.5 0 0 0 3.5-3.5v-10a.5.5 0 1 1 1 0v10a4.5 4.5 0 0 1-4.5 4.5h-7A4.5 4.5 0 0 1 0 11.5V.5A.5.5 0 0 1 .5 0h12a.5.5 0 0 1 .5.5v11a.5.5 0 1 1-1 0V1H1zm2 4v3h3V5H3zm0-1h3a1 1 0 0 1 1 1v3a1 1 0 0 1-1 1H3a1 1 0 0 1-1-1V5a1 1 0 0 1 1-1zm5.5 0h2a.5.5 0 1 1 0 1h-2a.5.5 0 1 1 0-1zm0 2h2a.5.5 0 1 1 0 1h-2a.5.5 0 1 1 0-1zm0 2h2a.5.5 0 1 1 0 1h-2a.5.5 0 1 1 0-1zm-6 2h8a.5.5 0 1 1 0 1h-8a.5.5 0 1 1 0-1zm2 2h6a.5.5 0 1 1 0 1h-6a.5.5 0 1 1 0-1zm-2-10h8a.5.5 0 1 1 0 1h-8a.5.5 0 0 1 0-1z" fill="#000" fill-rule="nonzero"/>
</svg>
