<?xml version="1.0" encoding="UTF-8"?>
<svg width="18px" height="18px" viewBox="0 0 18 18" version="1.1" xmlns="http://www.w3.org/2000/svg" xmlns:xlink="http://www.w3.org/1999/xlink">
    <!-- Generator: Sketch 49.3 (51167) - http://www.bohemiancoding.com/sketch -->
    <title>menu-invite</title>
    <desc>Created with Sketch.</desc>
    <g id="Symbols" stroke="none" stroke-width="1" fill="none" fill-rule="evenodd">
        <g id="Elements-/-Profile-/-Card-/-05" transform="translate(-3.000000, -294.000000)">
            <g id="Group-5" transform="translate(0.000000, 32.000000)">
                <g id="Group-3" transform="translate(0.000000, 251.000000)">
                    <g id="Component-/-Icons-/-S-/-Attach" transform="translate(0.000000, 8.000000)">
                        <mask id="mask-2" fill="white">
                            <path d="M3,21 L3,9 L5.99758442,7.00161039 L6,3 L12,3 L18,3 L17.9990422,6.99936148 L21,9 L21,21 L3,21 Z M7,4 L7,11.5889893 L12,16.5799255 L17,11.5889893 L17,4 L7,4 Z M5.4000001,19.9917326 L18.5711274,19.9917326 L14.2871003,15.6999998 L11.9815736,17.9917326 L9.68964243,15.6999998 L5.4000001,19.9917326 Z M20,20 L20,10 L15,15 L20,20 Z M18,8.19999981 L18,10.5818016 L19.4726562,9.18811716 L18,8.19999981 Z M4,20 L9,15 L4,10 L4,20 Z M6.00265646,8.19999981 L4.53000021,9.18811716 L6.00265646,10.5818016 L6.00265646,8.19999981 Z M12,9.93511213 L13.0992902,10.5130432 L12.8893445,9.28896554 L13.778689,8.42206892 L12.5496451,8.24347839 L12,7.12977573 L11.4503549,8.24347839 L10.221311,8.42206892 L11.1106555,9.28896554 L10.9007098,10.5130432 L12,9.93511213 Z M12,11.0648879 L9.57257873,12.3410587 L10.0361749,9.63808544 L8.07234988,7.72382912 L10.7862894,7.32947063 L12,4.87022427 L13.2137106,7.32947063 L15.9276501,7.72382912 L13.9638251,9.63808544 L14.4274213,12.3410587 L12,11.0648879 Z"></path>
                        </mask>
                        <path d="M3,21 L3,9 L5.99758442,7.00161039 L6,3 L12,3 L18,3 L17.9990422,6.99936148 L21,9 L21,21 L3,21 Z M7,4 L7,11.5889893 L12,16.5799255 L17,11.5889893 L17,4 L7,4 Z M5.4000001,19.9917326 L18.5711274,19.9917326 L14.2871003,15.6999998 L11.9815736,17.9917326 L9.68964243,15.6999998 L5.4000001,19.9917326 Z M20,20 L20,10 L15,15 L20,20 Z M18,8.19999981 L18,10.5818016 L19.4726562,9.18811716 L18,8.19999981 Z M4,20 L9,15 L4,10 L4,20 Z M6.00265646,8.19999981 L4.53000021,9.18811716 L6.00265646,10.5818016 L6.00265646,8.19999981 Z M12,9.93511213 L13.0992902,10.5130432 L12.8893445,9.28896554 L13.778689,8.42206892 L12.5496451,8.24347839 L12,7.12977573 L11.4503549,8.24347839 L10.221311,8.42206892 L11.1106555,9.28896554 L10.9007098,10.5130432 L12,9.93511213 Z M12,11.0648879 L9.57257873,12.3410587 L10.0361749,9.63808544 L8.07234988,7.72382912 L10.7862894,7.32947063 L12,4.87022427 L13.2137106,7.32947063 L15.9276501,7.72382912 L13.9638251,9.63808544 L14.4274213,12.3410587 L12,11.0648879 Z" fill="#000000"></path>
                    </g>
                </g>
            </g>
        </g>
    </g>
</svg>
