<svg width="18" height="18" viewBox="0 0 18 18" xmlns="http://www.w3.org/2000/svg">
    <title>
        menu-invite
    </title>
    <path d="M0 18V6l2.998-1.998L3 0h12l-.001 4L18 6v12H0zM4 1v7.589l5 4.99 5-4.99V1H4zM2.4 16.992h13.171L11.287 12.7l-2.305 2.292L6.69 12.7 2.4 16.992zM17 17V7l-5 5 5 5zM15 5.2v2.382l1.473-1.394L15 5.2zM1 17l5-5-5-5v10zM3.003 5.2l-1.473.988 1.473 1.394V5.2zM9 6.935l1.1.578-.21-1.224.889-.867-1.23-.179L9 4.13l-.55 1.113-1.229.18.89.866-.21 1.224L9 6.935zm0 1.13L6.573 9.34l.463-2.703-1.964-1.914 2.714-.395L9 1.87l1.214 2.46 2.714.394-1.964 1.914.463 2.703L9 8.065z" fill="#000" fill-rule="evenodd"/>
</svg>
