<?xml version="1.0" encoding="UTF-8"?>
<svg width="4px" height="18px" viewBox="0 0 4 18" version="1.1" xmlns="http://www.w3.org/2000/svg" xmlns:xlink="http://www.w3.org/1999/xlink">
    <!-- Generator: Sketch 49.3 (51167) - http://www.bohemiancoding.com/sketch -->
    <title>more</title>
    <desc>Created with Sketch.</desc>
    <g id="Marvel" stroke="none" stroke-width="1" fill="none" fill-rule="evenodd">
        <g id="Profile_page_Woman" transform="translate(-1272.000000, -1118.000000)">
            <g id="01-copy-2" transform="translate(369.000000, 1091.000000)">
                <g id="Elements-/-Card-/-Header-/-1" transform="translate(486.000000, 16.000000)">
                    <g id="Другое" transform="translate(419.000000, 20.000000) rotate(90.000000) translate(-419.000000, -20.000000) translate(410.000000, 18.000000)">
                        <mask id="mask-2" fill="white">
                            <path d="M16,3 C16.5522847,3 17,2.55228475 17,2 C17,1.44771525 16.5522847,1 16,1 C15.4477153,1 15,1.44771525 15,2 C15,2.55228475 15.4477153,3 16,3 Z M16,4 C14.8954305,4 14,3.1045695 14,2 C14,0.8954305 14.8954305,0 16,0 C17.1045695,0 18,0.8954305 18,2 C18,3.1045695 17.1045695,4 16,4 Z M9,3 C9.55228475,3 10,2.55228475 10,2 C10,1.44771525 9.55228475,1 9,1 C8.44771525,1 8,1.44771525 8,2 C8,2.55228475 8.44771525,3 9,3 Z M9,4 C7.8954305,4 7,3.1045695 7,2 C7,0.8954305 7.8954305,0 9,0 C10.1045695,0 11,0.8954305 11,2 C11,3.1045695 10.1045695,4 9,4 Z M2,3 C2.55228475,3 3,2.55228475 3,2 C3,1.44771525 2.55228475,1 2,1 C1.44771525,1 1,1.44771525 1,2 C1,2.55228475 1.44771525,3 2,3 Z M2,4 C0.8954305,4 0,3.1045695 0,2 C0,0.8954305 0.8954305,0 2,0 C3.1045695,0 4,0.8954305 4,2 C4,3.1045695 3.1045695,4 2,4 Z"></path>
                        </mask>
                        <path d="M16,3 C16.5522847,3 17,2.55228475 17,2 C17,1.44771525 16.5522847,1 16,1 C15.4477153,1 15,1.44771525 15,2 C15,2.55228475 15.4477153,3 16,3 Z M16,4 C14.8954305,4 14,3.1045695 14,2 C14,0.8954305 14.8954305,0 16,0 C17.1045695,0 18,0.8954305 18,2 C18,3.1045695 17.1045695,4 16,4 Z M9,3 C9.55228475,3 10,2.55228475 10,2 C10,1.44771525 9.55228475,1 9,1 C8.44771525,1 8,1.44771525 8,2 C8,2.55228475 8.44771525,3 9,3 Z M9,4 C7.8954305,4 7,3.1045695 7,2 C7,0.8954305 7.8954305,0 9,0 C10.1045695,0 11,0.8954305 11,2 C11,3.1045695 10.1045695,4 9,4 Z M2,3 C2.55228475,3 3,2.55228475 3,2 C3,1.44771525 2.55228475,1 2,1 C1.44771525,1 1,1.44771525 1,2 C1,2.55228475 1.44771525,3 2,3 Z M2,4 C0.8954305,4 0,3.1045695 0,2 C0,0.8954305 0.8954305,0 2,0 C3.1045695,0 4,0.8954305 4,2 C4,3.1045695 3.1045695,4 2,4 Z" fill="#000000" fill-rule="nonzero"></path>
                    </g>
                </g>
            </g>
        </g>
    </g>
</svg>
