<svg width="64" height="80" viewBox="0 0 64 80" xmlns="http://www.w3.org/2000/svg">
    <title>
        notification-disabled
    </title>
    <g fill-rule="nonzero" fill="none">
        <path d="M60.786 59.07a8.174 8.174 0 0 1-2.661-6.014V37.5a1.563 1.563 0 0 0-3.125 0v15.556c0 3.151 1.34 6.184 3.678 8.321A4.071 4.071 0 0 1 60 64.375a4.067 4.067 0 0 1-4.062 4.063H7.187a4.067 4.067 0 0 1-4.062-4.063c0-1.137.482-2.23 1.322-2.998a11.306 11.306 0 0 0 3.678-8.321V35c0-12.924 10.514-23.438 23.438-23.438 2.096 0 5.007.613 8.73 1.837.91.299 1.91.012 2.522-.723a1.185 1.185 0 0 0-.464-1.856c-2.501-1.018-4.474-1.661-5.918-1.93.575-.898.91-1.965.91-3.109A5.788 5.788 0 0 0 31.564 0a5.788 5.788 0 0 0-5.782 5.781c0 1.143.335 2.208.91 3.106C14.362 11.182 5 22.017 5 35v18.056c0 2.276-.97 4.468-2.662 6.015A7.203 7.203 0 0 0 0 64.375c0 3.963 3.224 7.187 7.187 7.187H21.685C22.438 76.337 26.58 80 31.563 80c4.982 0 9.124-3.663 9.877-8.438h14.498c3.963 0 7.187-3.224 7.187-7.187a7.203 7.203 0 0 0-2.339-5.304zM31.562 3.126A2.66 2.66 0 0 1 34.22 5.78a2.66 2.66 0 0 1-2.657 2.656 2.66 2.66 0 0 1-2.656-2.656 2.66 2.66 0 0 1 2.657-2.656zm0 73.75c-3.253 0-5.984-2.272-6.693-5.313h13.387c-.71 3.04-3.44 5.313-6.694 5.313z" fill="#C7CCD1"/>
        <path fill="#FFF" d="M0 54h21.715v18H0z"/>
        <rect fill="#C7CCD1" transform="rotate(45 33.5 39)" x="32" y="3" width="3" height="72" rx="1.5"/>
        <path d="M14.195 33.405c-.863 0-1.563.7-1.563 1.562V35a1.563 1.563 0 0 0 3.126 0v-.033c0-.862-.7-1.562-1.563-1.562z" fill="#C7CCD1"/>
        <path d="M31.695 15.937a19.04 19.04 0 0 0-17.554 11.62 1.563 1.563 0 0 0 2.876 1.22 15.92 15.92 0 0 1 14.678-9.715 1.563 1.563 0 0 0 0-3.125z" fill="#C7CCD1"/>
    </g>
</svg>
