<svg width="64" height="80" viewBox="0 0 64 80" xmlns="http://www.w3.org/2000/svg">
    <title>
        notification-blank
    </title>
    <g fill="#C7CCD1" fill-rule="nonzero">
        <path d="M60.919 59.07a8.174 8.174 0 0 1-2.662-6.014V37.5a1.563 1.563 0 0 0-3.125 0v15.556c0 3.151 1.341 6.184 3.678 8.321a4.071 4.071 0 0 1 1.322 2.998 4.067 4.067 0 0 1-4.062 4.063H7.32a4.067 4.067 0 0 1-4.063-4.063c0-1.137.482-2.23 1.322-2.998a11.306 11.306 0 0 0 3.679-8.321V35c0-12.924 10.514-23.438 23.437-23.438 3.554 0 7.055.809 10.226 2.346A11.491 11.491 0 0 0 40.18 20c0 6.375 5.187 11.562 11.562 11.562 6.376 0 11.563-5.187 11.563-11.562 0-6.376-5.187-11.563-11.563-11.563-2.988 0-5.715 1.14-7.769 3.007a26.495 26.495 0 0 0-7.408-2.554c.576-.898.911-1.965.911-3.109A5.788 5.788 0 0 0 31.695 0a5.788 5.788 0 0 0-5.781 5.781c0 1.143.334 2.208.909 3.106C14.495 11.182 5.133 22.017 5.133 35v18.056c0 2.276-.97 4.468-2.662 6.015a7.203 7.203 0 0 0-2.339 5.304c0 3.963 3.225 7.187 7.188 7.187h14.498C22.57 76.337 26.712 80 31.695 80c4.983 0 9.125-3.663 9.877-8.438H56.07c3.963 0 7.188-3.224 7.188-7.187a7.203 7.203 0 0 0-2.34-5.304zm-9.177-47.508c4.653 0 8.438 3.786 8.438 8.438 0 4.652-3.785 8.437-8.438 8.437-4.652 0-8.437-3.785-8.437-8.437 0-4.652 3.785-8.438 8.437-8.438zM31.695 3.125a2.66 2.66 0 0 1 2.656 2.656 2.66 2.66 0 0 1-2.656 2.656 2.66 2.66 0 0 1-2.656-2.656 2.66 2.66 0 0 1 2.656-2.656zm0 73.75c-3.253 0-5.984-2.272-6.694-5.313H38.39c-.71 3.04-3.44 5.313-6.694 5.313z"/>
        <path d="M14.195 33.405c-.863 0-1.563.7-1.563 1.562V35a1.563 1.563 0 0 0 3.126 0v-.033c0-.862-.7-1.562-1.563-1.562z"/>
        <path d="M31.695 15.937a19.04 19.04 0 0 0-17.554 11.62 1.563 1.563 0 0 0 2.876 1.22 15.92 15.92 0 0 1 14.678-9.715 1.563 1.563 0 0 0 0-3.125z"/>
        <path d="M52.293 14.936a1.564 1.564 0 0 0-1.703.34l-1.797 1.796a1.563 1.563 0 0 0 1.34 2.65v2.83a1.563 1.563 0 0 0 3.124 0V16.38c0-.632-.38-1.202-.964-1.444z"/>
    </g>
</svg>
