<svg width="12" height="18" viewBox="0 0 12 18" xmlns="http://www.w3.org/2000/svg">
    <title>
        odnoklassniki
    </title>
    <path d="M11.096 11.635c.56-.368.899-.993.9-1.664a1.454 1.454 0 0 0-1.5-1.5 1.5 1.5 0 0 0-.907.308 6.043 6.043 0 0 1-7.234 0 1.5 1.5 0 0 0-.855-.27 1.454 1.454 0 0 0-1.5 1.5c.002.67.34 1.296.9 1.664a9.229 9.229 0 0 0 2.347 1.072l.48.135-2.46 2.414a1.582 1.582 0 0 0 0 2.249c.627.61 1.624.61 2.25 0l2.481-2.602 2.497 2.587a1.59 1.59 0 0 0 2.249-2.25l-2.497-2.39.488-.136a9.214 9.214 0 0 0 2.361-1.117zM5.998 8.996a4.498 4.498 0 1 0 0-8.996 4.498 4.498 0 0 0 0 8.996zm0-6.747a2.25 2.25 0 1 1 0 4.498 2.25 2.25 0 0 1 0-4.498z" fill="#000" fill-rule="nonzero"/>
</svg>
