<svg width="80" height="80" viewBox="0 0 80 80" xmlns="http://www.w3.org/2000/svg">
    <title>
        paper-plane
    </title>
    <path d="M79.212.205a1.562 1.562 0 0 0-1.57.013L49.01 17.149a1.562 1.562 0 1 0 1.59 2.69L71.143 7.691 32.877 47.396l-19.033-5.823 24.838-14.687a1.563 1.563 0 0 0-1.59-2.69L9.205 40.686a1.563 1.563 0 0 0 .338 2.84l22.73 6.953L42.3 68.731a.37.37 0 0 0 .032.05 1.557 1.557 0 0 0 2.43.315l11.53-11.269 21.688 6.636a1.565 1.565 0 0 0 1.387-.238c.398-.295.633-.76.633-1.256V1.562c0-.56-.3-1.079-.788-1.357zM42.385 51.442c-.18.262-.278.572-.278.89v9.558L35.26 49.427l30.3-31.44-23.175 33.455zm2.847 12.825v-9.823l7.655 2.342-7.655 7.481zm31.643-3.41l-30.703-9.393L76.875 7.14v53.716zm-51.184-6.548c.61.61.61 1.6 0 2.21L11.105 71.105a1.559 1.559 0 0 1-2.21 0c-.61-.61-.61-1.6 0-2.21L23.481 54.31c.61-.61 1.6-.61 2.21 0zm-19.43 19.43c.61.61.61 1.6 0 2.21l-3.594 3.593A1.558 1.558 0 0 1 1.563 80a1.563 1.563 0 0 1-1.105-2.667l3.593-3.594c.61-.61 1.6-.61 2.21 0zM22.29 77.24c.29.29.458.692.458 1.104 0 .411-.167.814-.458 1.105-.29.29-.694.458-1.105.458-.41 0-.814-.167-1.104-.458a1.574 1.574 0 0 1-.458-1.105c0-.412.167-.814.458-1.104.29-.291.692-.458 1.104-.458.411 0 .814.167 1.105.458zm11.625-11.626c.61.61.61 1.6 0 2.21l-7.726 7.725a1.558 1.558 0 0 1-1.105.458 1.563 1.563 0 0 1-1.105-2.667l7.727-7.726c.61-.61 1.6-.61 2.21 0zm26.665-.593c.61.61.61 1.6 0 2.21l-7.747 7.746a1.558 1.558 0 0 1-1.105.458 1.563 1.563 0 0 1-1.105-2.667l7.747-7.747c.61-.61 1.6-.61 2.21 0zM44.297 21.298c.29.291.458.694.458 1.107a1.568 1.568 0 0 1-1.563 1.56c-.41 0-.814-.165-1.105-.457a1.57 1.57 0 0 1-.457-1.103c0-.413.167-.816.457-1.107.291-.29.694-.457 1.105-.457.411 0 .814.167 1.105.457z" fill="#C7CCD1" fill-rule="nonzero"/>
</svg>
