<svg width="15" height="18" viewBox="0 0 15 18" xmlns="http://www.w3.org/2000/svg">
    <title>
        paypal
    </title>
    <path d="M12.38 4.067zm.494.2c.03.014.06.03.09.046-.015.1-.033.203-.054.31-.695 3.57-3.076 4.806-6.116 4.806H5.246a.752.752 0 0 0-.743.636l.025-.162-.818 5.189H.453a.453.453 0 0 1-.447-.524L2.203.638A.754.754 0 0 1 2.95 0h5.276c1.817 0 3.238.384 4.025 1.28.713.814.922 1.712.715 3.033a3.408 3.408 0 0 0-.091-.047zm.61.733c.295.156.547.348.751.58.673.766.804 1.856.55 3.162-.608 3.125-2.69 4.205-5.35 4.205h-.412a.66.66 0 0 0-.652.558l-.033.18-.517 3.28-.027.14a.66.66 0 0 1-.653.557H4.396a.396.396 0 0 1-.391-.458l.224-1.425.793-5.026a.752.752 0 0 1 .743-.637h1.548c3.04 0 5.42-1.234 6.117-4.807.02-.105.038-.208.054-.309z" fill="#828E9A" fill-rule="nonzero"/>
</svg>
