<?xml version="1.0" encoding="UTF-8"?>
<svg width="18px" height="18px" viewBox="0 0 18 18" version="1.1" xmlns="http://www.w3.org/2000/svg" xmlns:xlink="http://www.w3.org/1999/xlink">
    <!-- Generator: Sketch 49.3 (51167) - http://www.bohemiancoding.com/sketch -->
    <title>pencil</title>
    <desc>Created with Sketch.</desc>
    <g id="Marvel" stroke="none" stroke-width="1" fill="none" fill-rule="evenodd">
        <g id="Marvel_My_Profile_Woman" transform="translate(-1072.000000, -249.000000)">
            <g id="02-copy-3" transform="translate(369.000000, 0.000000)">
                <g id="Group" transform="translate(688.000000, 238.000000)">
                    <g id="Component-/-Icons-/-S-/-Arrows-/-Ok" transform="translate(12.000000, 8.000000)">
                        <mask id="mask-2" fill="white">
                            <path d="M4,17.6667136 L4,20.0025 L6.33578644,20.0025 L16.3957864,9.9425 L14.06,7.60671356 L4,17.6667136 Z M3,17.2525 L14.06,6.1925 L17.81,9.9425 L6.75,21.0025 L3,21.0025 L3,17.2525 Z M17.665,4.00171356 L16.5442136,5.1225 L18.88,7.45828644 L20.0007864,6.3375 L17.665,4.00171356 Z M20.71,7.0425 L18.88,8.8725 L15.13,5.1225 L16.96,3.2925 C17.35,2.9025 17.98,2.9025 18.37,3.2925 L20.71,5.6325 C21.1,6.0225 21.1,6.6525 20.71,7.0425 Z"></path>
                        </mask>
                        <path d="M4,17.6667136 L4,20.0025 L6.33578644,20.0025 L16.3957864,9.9425 L14.06,7.60671356 L4,17.6667136 Z M3,17.2525 L14.06,6.1925 L17.81,9.9425 L6.75,21.0025 L3,21.0025 L3,17.2525 Z M17.665,4.00171356 L16.5442136,5.1225 L18.88,7.45828644 L20.0007864,6.3375 L17.665,4.00171356 Z M20.71,7.0425 L18.88,8.8725 L15.13,5.1225 L16.96,3.2925 C17.35,2.9025 17.98,2.9025 18.37,3.2925 L20.71,5.6325 C21.1,6.0225 21.1,6.6525 20.71,7.0425 Z" fill="#000000" fill-rule="nonzero"></path>
                    </g>
                </g>
            </g>
        </g>
    </g>
</svg>
