<?xml version="1.0" encoding="UTF-8"?>
<svg width="20px" height="20px" viewBox="0 0 20 20" version="1.1" xmlns="http://www.w3.org/2000/svg" xmlns:xlink="http://www.w3.org/1999/xlink">
    <!-- Generator: Sketch 49.3 (51167) - http://www.bohemiancoding.com/sketch -->
    <title>phone</title>
    <desc>Created with Sketch.</desc>
    <g id="Symbols" stroke="none" stroke-width="1" fill="none" fill-rule="evenodd">
        <g id="Component-/-Icons-/-S-/-Phone" transform="translate(-2.000000, -2.000000)">
            <mask id="mask-2" fill="white">
                <path d="M13.2959308,18.001176 L15.7635534,15.5335534 C15.8963752,15.4007316 16.0955488,15.3539252 16.2624639,15.4111638 C17.462852,15.8077876 18.726821,16.01 20,16.01 C20.2738576,16.01 20.5,16.2361424 20.5,16.51 L20.5,20 C20.5,20.2738576 20.2738576,20.5 20,20.5 C10.8861424,20.5 3.5,13.1138576 3.5,4 C3.5,3.72614237 3.72614237,3.5 4,3.5 L7.5,3.5 C7.77385763,3.5 8,3.72614237 8,4 C8,5.27953131 8.20103601,6.53357088 8.59745476,7.73372632 C8.65144045,7.9058502 8.60493872,8.0979545 8.46644661,8.23644661 L5.99936693,10.7035263 L6.35413481,11.359276 C7.78611287,14.0061311 9.97693898,16.1959512 12.639446,17.644109 L13.2959308,18.001176 Z M13.1172505,16.7656428 L15.0564466,14.8264466 C15.459417,14.4234762 16.05884,14.2841737 16.5868416,14.4652362 C17.6712856,14.82349 18.8291011,15.01 20,15.01 C20.8261424,15.01 21.5,15.6838576 21.5,16.51 L21.5,20 C21.5,20.8261424 20.8261424,21.5 20,21.5 C10.3338576,21.5 2.5,13.6661424 2.5,4 C2.5,3.17385763 3.17385763,2.5 4,2.5 L7.5,2.5 C8.32614237,2.5 9,3.17385763 9,4 C9,5.17714176 9.18530393,6.32506352 9.54699686,7.4200867 C9.71548376,7.95618139 9.57937659,8.53773019 9.17355339,8.94355339 L7.23366813,10.8834387 C8.57408652,13.3610557 10.6258444,15.4105481 13.1172505,16.7656428 Z"></path>
            </mask>
            <path d="M13.2959308,18.001176 L15.7635534,15.5335534 C15.8963752,15.4007316 16.0955488,15.3539252 16.2624639,15.4111638 C17.462852,15.8077876 18.726821,16.01 20,16.01 C20.2738576,16.01 20.5,16.2361424 20.5,16.51 L20.5,20 C20.5,20.2738576 20.2738576,20.5 20,20.5 C10.8861424,20.5 3.5,13.1138576 3.5,4 C3.5,3.72614237 3.72614237,3.5 4,3.5 L7.5,3.5 C7.77385763,3.5 8,3.72614237 8,4 C8,5.27953131 8.20103601,6.53357088 8.59745476,7.73372632 C8.65144045,7.9058502 8.60493872,8.0979545 8.46644661,8.23644661 L5.99936693,10.7035263 L6.35413481,11.359276 C7.78611287,14.0061311 9.97693898,16.1959512 12.639446,17.644109 L13.2959308,18.001176 Z M13.1172505,16.7656428 L15.0564466,14.8264466 C15.459417,14.4234762 16.05884,14.2841737 16.5868416,14.4652362 C17.6712856,14.82349 18.8291011,15.01 20,15.01 C20.8261424,15.01 21.5,15.6838576 21.5,16.51 L21.5,20 C21.5,20.8261424 20.8261424,21.5 20,21.5 C10.3338576,21.5 2.5,13.6661424 2.5,4 C2.5,3.17385763 3.17385763,2.5 4,2.5 L7.5,2.5 C8.32614237,2.5 9,3.17385763 9,4 C9,5.17714176 9.18530393,6.32506352 9.54699686,7.4200867 C9.71548376,7.95618139 9.57937659,8.53773019 9.17355339,8.94355339 L7.23366813,10.8834387 C8.57408652,13.3610557 10.6258444,15.4105481 13.1172505,16.7656428 Z" fill="#000000" fill-rule="nonzero"></path>
        </g>
    </g>
</svg>
