<svg width="20" height="20" viewBox="0 0 20 20" xmlns="http://www.w3.org/2000/svg">
    <title>
        phone
    </title>
    <path d="M11.296 16.001l2.468-2.467a.492.492 0 0 1 .498-.123c1.2.397 2.465.599 3.738.599.274 0 .5.226.5.5V18c0 .274-.226.5-.5.5C8.886 18.5 1.5 11.114 1.5 2c0-.274.226-.5.5-.5h3.5c.274 0 .5.226.5.5 0 1.28.201 2.534.597 3.734a.498.498 0 0 1-.13.502L3.998 8.704l.355.655a15.653 15.653 0 0 0 6.285 6.285l.657.357zm-.179-1.235l1.94-1.94a1.492 1.492 0 0 1 1.53-.36c1.084.357 2.242.544 3.413.544.826 0 1.5.674 1.5 1.5V18c0 .826-.674 1.5-1.5 1.5C8.334 19.5.5 11.666.5 2 .5 1.174 1.174.5 2 .5h3.5C6.326.5 7 1.174 7 2c0 1.177.185 2.325.547 3.42a1.503 1.503 0 0 1-.373 1.524l-1.94 1.94a14.653 14.653 0 0 0 5.883 5.882z" fill="#000" fill-rule="nonzero"/>
</svg>
