<?xml version="1.0" encoding="UTF-8"?>
<svg width="16px" height="16px" viewBox="0 0 16 16" version="1.1" xmlns="http://www.w3.org/2000/svg" xmlns:xlink="http://www.w3.org/1999/xlink">
    <!-- Generator: Sketch 49.3 (51167) - http://www.bohemiancoding.com/sketch -->
    <title>profile</title>
    <desc>Created with Sketch.</desc>
    <g id="Marvel" stroke="none" stroke-width="1" fill="none" fill-rule="evenodd">
        <g id="Marvel_Profile_Edit_Parts_01" transform="translate(-393.000000, -118.000000)" fill="#00A9FF" fill-rule="nonzero">
            <g id="Group-6" transform="translate(393.000000, 114.000000)">
                <path d="M8,5.9 C9.16,5.9 10.1,6.84 10.1,8 C10.1,9.16 9.16,10.1 8,10.1 C6.84,10.1 5.9,9.16 5.9,8 C5.9,6.84 6.84,5.9 8,5.9 Z M8,14.9 C10.97,14.9 14.1,16.36 14.1,17 L14.1,18.1 L1.9,18.1 L1.9,17 C1.9,16.36 5.03,14.9 8,14.9 Z M8,4 C5.79,4 4,5.79 4,8 C4,10.21 5.79,12 8,12 C10.21,12 12,10.21 12,8 C12,5.79 10.21,4 8,4 Z M8,13 C5.33,13 0,14.34 0,17 L0,20 L16,20 L16,17 C16,14.34 10.67,13 8,13 Z" id="profile"></path>
            </g>
        </g>
    </g>
</svg>
