<svg width="48" height="48" viewBox="0 0 48 48" xmlns="http://www.w3.org/2000/svg">
    <title>
        removed
    </title>
    <g fill="#FFF" fill-rule="nonzero">
        <path d="M24 44c11.046 0 20-8.954 20-20S35.046 4 24 4 4 12.954 4 24s8.954 20 20 20zm0 4C10.745 48 0 37.255 0 24S10.745 0 24 0s24 10.745 24 24-10.745 24-24 24z"/>
        <path d="M25.354 24.646L8.737 41.263h2.828l-2.828-2.828v2.828l16.617-16.617zm0 0L41.97 8.03h-2.829l2.829 2.829V8.029L25.354 24.646zm15.202-18.03l2.829 2.828L10.15 42.678l-2.829-2.829L40.556 6.615z"/>
    </g>
</svg>
