<?xml version="1.0" encoding="UTF-8"?>
<svg width="48px" height="48px" viewBox="0 0 48 48" version="1.1" xmlns="http://www.w3.org/2000/svg" xmlns:xlink="http://www.w3.org/1999/xlink">
    <!-- Generator: Sketch 49.3 (51167) - http://www.bohemiancoding.com/sketch -->
    <title>removed</title>
    <desc>Created with Sketch.</desc>
    <defs></defs>
    <g id="Marvel" stroke="none" stroke-width="1" fill="none" fill-rule="evenodd">
        <g id="Marvel_Zakladky_01" transform="translate(-806.000000, -748.000000)" fill="#FFFFFF" fill-rule="nonzero">
            <g id="Group-3" transform="translate(730.000000, 748.000000)">
                <g id="Group-4">
                    <g id="removed" transform="translate(76.000000, 0.000000)">
                        <path d="M24,44 C35.045695,44 44,35.045695 44,24 C44,12.954305 35.045695,4 24,4 C12.954305,4 4,12.954305 4,24 C4,35.045695 12.954305,44 24,44 Z M24,48 C10.745166,48 0,37.254834 0,24 C0,10.745166 10.745166,0 24,0 C37.254834,0 48,10.745166 48,24 C48,37.254834 37.254834,48 24,48 Z" id="Oval-2"></path>
                        <path d="M25.3535534,24.6464466 L25.3535534,48.1464466 L27.3535534,46.1464466 L23.3535534,46.1464466 L25.3535534,48.1464466 L25.3535534,24.6464466 Z M25.3535534,24.6464466 L25.3535534,1.14644661 L23.3535534,3.14644661 L27.3535534,3.14644661 L25.3535534,1.14644661 L25.3535534,24.6464466 Z M23.3535534,1.14644661 L27.3535534,1.14644661 L27.3535534,48.1464466 L23.3535534,48.1464466 L23.3535534,1.14644661 Z" id="Rectangle-2" transform="translate(25.353553, 24.646447) rotate(45.000000) translate(-25.353553, -24.646447) "></path>
                    </g>
                </g>
            </g>
        </g>
    </g>
</svg>