<?xml version="1.0" encoding="UTF-8"?>
<svg width="12px" height="11px" viewBox="0 0 12 11" version="1.1" xmlns="http://www.w3.org/2000/svg" xmlns:xlink="http://www.w3.org/1999/xlink">
    <!-- Generator: Sketch 49.3 (51167) - http://www.bohemiancoding.com/sketch -->
    <title>reply</title>
    <desc>Created with Sketch.</desc>
    <g id="GUI" stroke="none" stroke-width="1" fill="none" fill-rule="evenodd">
        <g id="GUI_Cards" transform="translate(-1000.000000, -3324.000000)">
            <g id="01-copy-10" transform="translate(130.000000, 2961.000000)">
                <g id="Content">
                    <g id="Elements-/-Cards-/-Right-/-My-/-01_3-Comment" transform="translate(462.000000, 161.000000)">
                        <g id="Title" transform="translate(8.000000, 0.000000)">
                            <g id="Component-/-Icons-/-S-/-Close-Copy" transform="translate(398.000000, 199.000000)">
                                <mask id="mask-2" fill="white">
                                    <path d="M6.66666667,6 L6.66666667,3.33333333 L2,8 L6.66666667,12.6666667 L6.66666667,9.93333333 C10,9.93333333 12.3333333,11 14,13.3333333 C13.3333333,10 11.3333333,6.66666667 6.66666667,6 Z"></path>
                                </mask>
                                <path d="M6.66666667,6 L6.66666667,3.33333333 L2,8 L6.66666667,12.6666667 L6.66666667,9.93333333 C10,9.93333333 12.3333333,11 14,13.3333333 C13.3333333,10 11.3333333,6.66666667 6.66666667,6 Z" fill="#000000" fill-rule="nonzero" transform="translate(8.000000, 8.333333) rotate(180.000000) translate(-8.000000, -8.333333) "></path>
                            </g>
                        </g>
                    </g>
                </g>
            </g>
        </g>
    </g>
</svg>
