<?xml version="1.0" encoding="UTF-8"?>
<svg width="20px" height="20px" viewBox="0 0 20 20" version="1.1" xmlns="http://www.w3.org/2000/svg" xmlns:xlink="http://www.w3.org/1999/xlink">
    <!-- Generator: Sketch 49.3 (51167) - http://www.bohemiancoding.com/sketch -->
    <title>rocket</title>
    <desc>Created with Sketch.</desc>
    <g id="Marvel" stroke="none" stroke-width="1" fill="none" fill-rule="evenodd">
        <g id="Marvel_My_Events" transform="translate(-1104.000000, -1792.000000)">
            <g id="01-copy-7" transform="translate(369.000000, 1766.000000)">
                <g id="Content">
                    <g id="Group" transform="translate(721.000000, 16.000000)">
                        <g id="Component-/-Icons-/-S-/-Arrows-/-Ok" transform="translate(12.000000, 8.000000)">
                            <mask id="mask-2" fill="white">
                                <path d="M7.53883133,10.5268825 L8.25425364,10.7176618 L7.81,11.31 C7.54945177,11.6573976 7.31551154,12.0595301 7.14691572,12.4698089 L11.5435534,16.8664466 C11.7321464,16.770625 11.933089,16.6726655 12.1640406,16.545642 C12.3441888,16.4465605 12.4906671,16.3605045 12.8227521,16.1612535 L13.3920521,15.8196735 L13.5631175,16.4611687 C13.8341282,17.477459 13.8725112,18.5138913 13.6892646,19.4972901 C15.3597058,18.3874543 16.1897353,16.3124225 15.8263794,14.0596162 L15.7864905,13.8123047 L15.9606989,13.6322893 C18.6813633,10.8209361 20.4000207,7.06911098 20.4986881,3.50149499 C16.8960326,3.6043284 13.1529531,5.34415365 10.3735534,8.12355339 L10.1870683,8.31003845 L9.92785573,8.26143609 C7.65607985,7.83547812 5.60269266,8.67612053 4.49207412,10.4027263 C5.47863407,10.217215 6.5188764,10.2548945 7.53883133,10.5268825 Z M3.71948954,11.6566728 L2.67599085,12.0580185 L3.07250124,11.0126729 C4.11597954,8.26168463 6.82896314,6.7765866 9.85128109,7.23435048 C12.802289,4.37010008 16.7286256,2.58873677 20.55,2.5 C21.0961424,2.5 21.5,2.90385763 21.4998648,3.46162476 C21.4119056,7.24387138 19.6521853,11.1715448 16.8496183,14.1492496 C17.2342632,17.1542378 15.7737539,19.9047162 13.0773271,20.9274988 L12.0319815,21.3240092 L12.4333272,20.2805105 C12.7812467,19.3759199 12.8868318,18.3756518 12.7338054,17.3731133 C12.7049415,17.3892815 12.6759397,17.4053688 12.6459594,17.421858 C12.381911,17.5670845 12.1457107,17.6822322 11.9536068,17.7572136 C11.5693289,17.9493525 11.1612339,17.8983407 10.8364466,17.5735534 L6.33644661,13.0735534 C6.0667945,12.8039013 6.0667945,12.398377 6.22576165,12.0843047 C6.32307014,11.8410335 6.44624968,11.5922911 6.58666676,11.350194 C5.59761175,11.2060355 4.61198289,11.3134061 3.71948954,11.6566728 Z M15,10 C15.5522847,10 16,9.55228475 16,9 C16,8.44771525 15.5522847,8 15,8 C14.4477153,8 14,8.44771525 14,9 C14,9.55228475 14.4477153,10 15,10 Z M15,11 C13.8954305,11 13,10.1045695 13,9 C13,7.8954305 13.8954305,7 15,7 C16.1045695,7 17,7.8954305 17,9 C17,10.1045695 16.1045695,11 15,11 Z M6.56066017,14.4393398 C6.75592232,14.634602 6.75592232,14.9511845 6.56066017,15.1464466 L5.14644661,16.5606602 C4.95118446,16.7559223 4.63460197,16.7559223 4.43933983,16.5606602 C4.24407768,16.365398 4.24407768,16.0488155 4.43933983,15.8535534 L5.85355339,14.4393398 C6.04881554,14.2440777 6.36539803,14.2440777 6.56066017,14.4393398 Z M7.56066017,15.4393398 C7.75592232,15.634602 7.75592232,15.9511845 7.56066017,16.1464466 L4.73223305,18.9748737 C4.5369709,19.1701359 4.22038841,19.1701359 4.02512627,18.9748737 C3.82986412,18.7796116 3.82986412,18.4630291 4.02512627,18.267767 L6.85355339,15.4393398 C7.04881554,15.2440777 7.36539803,15.2440777 7.56066017,15.4393398 Z M8.56066017,16.4393398 C8.75592232,16.634602 8.75592232,16.9511845 8.56066017,17.1464466 L5.73223305,19.9748737 C5.5369709,20.1701359 5.22038841,20.1701359 5.02512627,19.9748737 C4.82986412,19.7796116 4.82986412,19.4630291 5.02512627,19.267767 L7.85355339,16.4393398 C8.04881554,16.2440777 8.36539803,16.2440777 8.56066017,16.4393398 Z M9.56066017,17.4393398 C9.75592232,17.634602 9.75592232,17.9511845 9.56066017,18.1464466 L8.14644661,19.5606602 C7.95118446,19.7559223 7.63460197,19.7559223 7.43933983,19.5606602 C7.24407768,19.365398 7.24407768,19.0488155 7.43933983,18.8535534 L8.85355339,17.4393398 C9.04881554,17.2440777 9.36539803,17.2440777 9.56066017,17.4393398 Z"></path>
                            </mask>
                            <path d="M7.53883133,10.5268825 L8.25425364,10.7176618 L7.81,11.31 C7.54945177,11.6573976 7.31551154,12.0595301 7.14691572,12.4698089 L11.5435534,16.8664466 C11.7321464,16.770625 11.933089,16.6726655 12.1640406,16.545642 C12.3441888,16.4465605 12.4906671,16.3605045 12.8227521,16.1612535 L13.3920521,15.8196735 L13.5631175,16.4611687 C13.8341282,17.477459 13.8725112,18.5138913 13.6892646,19.4972901 C15.3597058,18.3874543 16.1897353,16.3124225 15.8263794,14.0596162 L15.7864905,13.8123047 L15.9606989,13.6322893 C18.6813633,10.8209361 20.4000207,7.06911098 20.4986881,3.50149499 C16.8960326,3.6043284 13.1529531,5.34415365 10.3735534,8.12355339 L10.1870683,8.31003845 L9.92785573,8.26143609 C7.65607985,7.83547812 5.60269266,8.67612053 4.49207412,10.4027263 C5.47863407,10.217215 6.5188764,10.2548945 7.53883133,10.5268825 Z M3.71948954,11.6566728 L2.67599085,12.0580185 L3.07250124,11.0126729 C4.11597954,8.26168463 6.82896314,6.7765866 9.85128109,7.23435048 C12.802289,4.37010008 16.7286256,2.58873677 20.55,2.5 C21.0961424,2.5 21.5,2.90385763 21.4998648,3.46162476 C21.4119056,7.24387138 19.6521853,11.1715448 16.8496183,14.1492496 C17.2342632,17.1542378 15.7737539,19.9047162 13.0773271,20.9274988 L12.0319815,21.3240092 L12.4333272,20.2805105 C12.7812467,19.3759199 12.8868318,18.3756518 12.7338054,17.3731133 C12.7049415,17.3892815 12.6759397,17.4053688 12.6459594,17.421858 C12.381911,17.5670845 12.1457107,17.6822322 11.9536068,17.7572136 C11.5693289,17.9493525 11.1612339,17.8983407 10.8364466,17.5735534 L6.33644661,13.0735534 C6.0667945,12.8039013 6.0667945,12.398377 6.22576165,12.0843047 C6.32307014,11.8410335 6.44624968,11.5922911 6.58666676,11.350194 C5.59761175,11.2060355 4.61198289,11.3134061 3.71948954,11.6566728 Z M15,10 C15.5522847,10 16,9.55228475 16,9 C16,8.44771525 15.5522847,8 15,8 C14.4477153,8 14,8.44771525 14,9 C14,9.55228475 14.4477153,10 15,10 Z M15,11 C13.8954305,11 13,10.1045695 13,9 C13,7.8954305 13.8954305,7 15,7 C16.1045695,7 17,7.8954305 17,9 C17,10.1045695 16.1045695,11 15,11 Z M6.56066017,14.4393398 C6.75592232,14.634602 6.75592232,14.9511845 6.56066017,15.1464466 L5.14644661,16.5606602 C4.95118446,16.7559223 4.63460197,16.7559223 4.43933983,16.5606602 C4.24407768,16.365398 4.24407768,16.0488155 4.43933983,15.8535534 L5.85355339,14.4393398 C6.04881554,14.2440777 6.36539803,14.2440777 6.56066017,14.4393398 Z M7.56066017,15.4393398 C7.75592232,15.634602 7.75592232,15.9511845 7.56066017,16.1464466 L4.73223305,18.9748737 C4.5369709,19.1701359 4.22038841,19.1701359 4.02512627,18.9748737 C3.82986412,18.7796116 3.82986412,18.4630291 4.02512627,18.267767 L6.85355339,15.4393398 C7.04881554,15.2440777 7.36539803,15.2440777 7.56066017,15.4393398 Z M8.56066017,16.4393398 C8.75592232,16.634602 8.75592232,16.9511845 8.56066017,17.1464466 L5.73223305,19.9748737 C5.5369709,20.1701359 5.22038841,20.1701359 5.02512627,19.9748737 C4.82986412,19.7796116 4.82986412,19.4630291 5.02512627,19.267767 L7.85355339,16.4393398 C8.04881554,16.2440777 8.36539803,16.2440777 8.56066017,16.4393398 Z M9.56066017,17.4393398 C9.75592232,17.634602 9.75592232,17.9511845 9.56066017,18.1464466 L8.14644661,19.5606602 C7.95118446,19.7559223 7.63460197,19.7559223 7.43933983,19.5606602 C7.24407768,19.365398 7.24407768,19.0488155 7.43933983,18.8535534 L8.85355339,17.4393398 C9.04881554,17.2440777 9.36539803,17.2440777 9.56066017,17.4393398 Z" fill="#848E99" fill-rule="nonzero"></path>
                        </g>
                    </g>
                </g>
            </g>
        </g>
    </g>
</svg>
