<svg width="20" height="20" viewBox="0 0 20 20" xmlns="http://www.w3.org/2000/svg">
    <title>
        rocket
    </title>
    <path d="M5.539 8.527l.715.19-.444.593c-.26.347-.494.75-.663 1.16l4.397 4.396c.188-.095.39-.193.62-.32.18-.1.327-.185.659-.385l.57-.341.17.641a6.886 6.886 0 0 1 .126 3.036c1.67-1.11 2.5-3.185 2.137-5.437l-.04-.248.175-.18c2.72-2.811 4.439-6.563 4.538-10.13-3.603.102-7.346 1.842-10.125 4.622l-.187.186-.26-.049c-2.27-.426-4.324.415-5.435 2.142a6.885 6.885 0 0 1 3.047.124zm-3.82 1.13l-1.043.401.397-1.045C2.116 6.262 4.829 4.777 7.85 5.234 10.802 2.37 14.73.59 18.55.5c.546 0 .95.404.95.962-.088 3.782-1.848 7.71-4.65 10.687.384 3.005-1.076 5.756-3.773 6.778l-1.045.397.401-1.043a5.696 5.696 0 0 0 .3-2.908 6.145 6.145 0 0 1-.78.384c-.384.192-.792.141-1.117-.183l-4.5-4.5c-.27-.27-.27-.676-.11-.99.097-.243.22-.492.36-.734a5.692 5.692 0 0 0-2.867.307zM13 8a1 1 0 1 0 0-2 1 1 0 0 0 0 2zm0 1a2 2 0 1 1 0-4 2 2 0 0 1 0 4zm-8.44 3.44a.5.5 0 0 1 0 .706l-1.414 1.415a.5.5 0 0 1-.707-.707l1.415-1.415a.5.5 0 0 1 .707 0zm1 1a.5.5 0 0 1 0 .706l-2.828 2.829a.5.5 0 1 1-.707-.707l2.829-2.829a.5.5 0 0 1 .707 0zm1 1a.5.5 0 0 1 0 .706l-2.828 2.829a.5.5 0 1 1-.707-.707l2.829-2.829a.5.5 0 0 1 .707 0zm1 1a.5.5 0 0 1 0 .706l-1.414 1.415a.5.5 0 0 1-.707-.707l1.415-1.415a.5.5 0 0 1 .707 0z" fill="#848E99" fill-rule="nonzero"/>
</svg>
