<?xml version="1.0" encoding="UTF-8"?>
<svg width="8px" height="8px" viewBox="0 0 8 8" version="1.1" xmlns="http://www.w3.org/2000/svg" xmlns:xlink="http://www.w3.org/1999/xlink">
    <!-- Generator: Sketch 49.3 (51167) - http://www.bohemiancoding.com/sketch -->
    <title>rss</title>
    <desc>Created with Sketch.</desc>
    <g id="Marvel" stroke="none" stroke-width="1" fill="none" fill-rule="evenodd">
        <g id="Marvel_Modal_Notifications" transform="translate(-425.000000, -427.000000)" fill="#FFFFFF" fill-rule="nonzero">
            <g id="Chat" transform="translate(369.000000, 7.000000)">
                <g id="Чат" transform="translate(0.000000, 17.000000)">
                    <g id="01-copy-4" transform="translate(24.000000, 356.000000)">
                        <path d="M33.0317551,52.9093061 C33.6005714,52.9093061 34.0635102,53.3721633 34.0635102,53.9410612 C34.0635102,54.5099592 33.6006531,54.9727347 33.0317551,54.9727347 C32.4628571,54.9727347 32,54.5099592 32,53.9410612 C32,53.3721633 32.4628571,52.9093061 33.0317551,52.9093061 Z M32.1715918,49.9701224 C33.440898,50.0124082 34.6367347,50.5324082 35.5389388,51.4345306 C36.4409796,52.3366531 36.9610612,53.5324898 37.0032653,54.8017143 C37.0045714,54.8458776 36.9880816,54.8889796 36.9573878,54.9206531 C36.9266939,54.9523265 36.8842449,54.9702857 36.84,54.9702857 L35.5160816,54.9702857 C35.4288163,54.9702857 35.3569796,54.9016327 35.3529796,54.8145306 C35.273551,53.0729796 33.9003265,51.6997551 32.1587755,51.6203265 C32.0715918,51.6162449 32.0029388,51.5444082 32.0029388,51.4572245 L32.0029388,50.1333878 C32.0029388,50.0891429 32.0208163,50.0467755 32.0526531,50.016 C32.0845714,49.9851429 32.127102,49.9690612 32.1715918,49.9701224 Z M37.6369796,49.3363265 C39.1005714,50.7998367 39.9302857,52.741551 39.972898,54.8035102 C39.9738776,54.8474286 39.9569796,54.8897959 39.9263673,54.9211429 C39.8955918,54.9525714 39.8534694,54.9702041 39.8096327,54.9702041 L38.4865306,54.9702041 C38.3979592,54.9702041 38.3253878,54.8996735 38.3233469,54.811102 C38.2402449,51.4970612 35.4764082,48.7331429 32.1620408,48.6498776 C32.0734694,48.6475918 32.0028571,48.5751837 32.0028571,48.4866122 L32.0028571,47.1635102 C32.0028571,47.1196735 32.0205714,47.0777143 32.0519184,47.0469388 C32.083102,47.0161633 32.1253878,46.9982041 32.1694694,47.0003265 C34.2313469,47.0427755 36.1729796,47.8724898 37.6369796,49.3363265 Z" id="rss"></path>
                    </g>
                </g>
            </g>
        </g>
    </g>
</svg>
