<svg width="8" height="8" viewBox="0 0 8 8" xmlns="http://www.w3.org/2000/svg">
    <title>
        rss
    </title>
    <path d="M1.032 5.91c.569 0 1.032.462 1.032 1.031a1.033 1.033 0 0 1-2.064 0C0 6.372.463 5.91 1.032 5.91zm-.86-2.94a4.983 4.983 0 0 1 3.367 1.465 4.982 4.982 0 0 1 1.464 3.367.164.164 0 0 1-.163.168H3.516a.163.163 0 0 1-.163-.155A3.334 3.334 0 0 0 .159 4.62a.163.163 0 0 1-.156-.163V3.133a.163.163 0 0 1 .169-.163zm5.465-.634a7.93 7.93 0 0 1 2.336 5.468.163.163 0 0 1-.163.166H6.487a.163.163 0 0 1-.164-.159C6.24 4.497 3.476 1.733.162 1.65a.163.163 0 0 1-.16-.163V.164A.163.163 0 0 1 .17 0a7.93 7.93 0 0 1 5.468 2.336z" fill="#FFF" fill-rule="nonzero"/>
</svg>
