<svg width="18" height="20" viewBox="0 0 18 20" xmlns="http://www.w3.org/2000/svg">
    <title>
        share
    </title>
    <path d="M15 5a2 2 0 1 0 0-4 2 2 0 0 0 0 4zm0 1a3 3 0 1 1 0-6 3 3 0 0 1 0 6zM3 12a2 2 0 1 0 0-4 2 2 0 0 0 0 4zm0 1a3 3 0 1 1 0-6 3 3 0 0 1 0 6zm12 6a2 2 0 1 0 0-4 2 2 0 0 0 0 4zm-2.808-3.059l-7.704-4.494.216-.422c.185-.359.276-.71.28-1.059a2.057 2.057 0 0 0-.254-1l-.225-.424L12.7 3.753l.505.864-7.397 4.321c.119.336.178.682.174 1.037a3.2 3.2 0 0 1-.198 1.07l6.912 4.033a3 3 0 1 1-.505.863z" fill="#848E99" fill-rule="nonzero"/>
</svg>
