<?xml version="1.0" encoding="UTF-8"?>
<svg width="18px" height="20px" viewBox="0 0 18 20" version="1.1" xmlns="http://www.w3.org/2000/svg" xmlns:xlink="http://www.w3.org/1999/xlink">
    <!-- Generator: Sketch 49.3 (51167) - http://www.bohemiancoding.com/sketch -->
    <title>share</title>
    <desc>Created with Sketch.</desc>
    <g id="Marvel" stroke="none" stroke-width="1" fill="none" fill-rule="evenodd">
        <g id="Marvel_Modal_Share" transform="translate(-568.000000, -879.000000)">
            <g id="Chat" transform="translate(529.000000, 390.000000)">
                <g id="Чат" transform="translate(0.000000, 16.000000)">
                    <g id="Group" transform="translate(24.000000, 463.000000)">
                        <g id="Component-/-Icons-/-S-/-Arrows-/-Ok" transform="translate(12.000000, 8.000000)">
                            <mask id="mask-2" fill="white">
                                <path d="M18,7 C19.1045695,7 20,6.1045695 20,5 C20,3.8954305 19.1045695,3 18,3 C16.8954305,3 16,3.8954305 16,5 C16,6.1045695 16.8954305,7 18,7 Z M18,8 C16.3431458,8 15,6.65685425 15,5 C15,3.34314575 16.3431458,2 18,2 C19.6568542,2 21,3.34314575 21,5 C21,6.65685425 19.6568542,8 18,8 Z M6,14 C7.1045695,14 8,13.1045695 8,12 C8,10.8954305 7.1045695,10 6,10 C4.8954305,10 4,10.8954305 4,12 C4,13.1045695 4.8954305,14 6,14 Z M6,15 C4.34314575,15 3,13.6568542 3,12 C3,10.3431458 4.34314575,9 6,9 C7.65685425,9 9,10.3431458 9,12 C9,13.6568542 7.65685425,15 6,15 Z M18,21 C19.1045695,21 20,20.1045695 20,19 C20,17.8954305 19.1045695,17 18,17 C16.8954305,17 16,17.8954305 16,19 C16,20.1045695 16.8954305,21 18,21 Z M15.1922605,17.9410038 L7.48799567,13.4468493 L7.70436695,13.0253496 C7.88878792,12.6660904 7.98037487,12.3146445 7.98350508,11.9663796 C7.98659737,11.6223338 7.90335184,11.2911815 7.73040103,10.9659761 L7.50482217,10.5418123 L15.7012653,5.75344893 L16.2056947,6.6169019 L8.80871473,10.9382188 C8.92803358,11.2738913 8.98665537,11.6203744 8.98346469,11.9753672 C8.98022983,12.3352749 8.91360756,12.6926379 8.78514669,13.0458171 L15.6967786,17.0776024 C16.2470895,16.4189859 17.074615,16 18,16 C19.6568542,16 21,17.3431458 21,19 C21,20.6568542 19.6568542,22 18,22 C16.3431458,22 15,20.6568542 15,19 C15,18.6272116 15.0679954,18.2703043 15.1922605,17.9410038 Z"></path>
                            </mask>
                            <path d="M18,7 C19.1045695,7 20,6.1045695 20,5 C20,3.8954305 19.1045695,3 18,3 C16.8954305,3 16,3.8954305 16,5 C16,6.1045695 16.8954305,7 18,7 Z M18,8 C16.3431458,8 15,6.65685425 15,5 C15,3.34314575 16.3431458,2 18,2 C19.6568542,2 21,3.34314575 21,5 C21,6.65685425 19.6568542,8 18,8 Z M6,14 C7.1045695,14 8,13.1045695 8,12 C8,10.8954305 7.1045695,10 6,10 C4.8954305,10 4,10.8954305 4,12 C4,13.1045695 4.8954305,14 6,14 Z M6,15 C4.34314575,15 3,13.6568542 3,12 C3,10.3431458 4.34314575,9 6,9 C7.65685425,9 9,10.3431458 9,12 C9,13.6568542 7.65685425,15 6,15 Z M18,21 C19.1045695,21 20,20.1045695 20,19 C20,17.8954305 19.1045695,17 18,17 C16.8954305,17 16,17.8954305 16,19 C16,20.1045695 16.8954305,21 18,21 Z M15.1922605,17.9410038 L7.48799567,13.4468493 L7.70436695,13.0253496 C7.88878792,12.6660904 7.98037487,12.3146445 7.98350508,11.9663796 C7.98659737,11.6223338 7.90335184,11.2911815 7.73040103,10.9659761 L7.50482217,10.5418123 L15.7012653,5.75344893 L16.2056947,6.6169019 L8.80871473,10.9382188 C8.92803358,11.2738913 8.98665537,11.6203744 8.98346469,11.9753672 C8.98022983,12.3352749 8.91360756,12.6926379 8.78514669,13.0458171 L15.6967786,17.0776024 C16.2470895,16.4189859 17.074615,16 18,16 C19.6568542,16 21,17.3431458 21,19 C21,20.6568542 19.6568542,22 18,22 C16.3431458,22 15,20.6568542 15,19 C15,18.6272116 15.0679954,18.2703043 15.1922605,17.9410038 Z" fill="#848E99" fill-rule="nonzero"></path>
                        </g>
                    </g>
                </g>
            </g>
        </g>
    </g>
</svg>
