<?xml version="1.0" encoding="UTF-8"?>
<svg width="18px" height="18px" viewBox="0 0 18 18" version="1.1" xmlns="http://www.w3.org/2000/svg" xmlns:xlink="http://www.w3.org/1999/xlink">
    <!-- Generator: Sketch 49.2 (51160) - http://www.bohemiancoding.com/sketch -->
    <title>smile-happy</title>
    <desc>Created with Sketch.</desc>
    <g id="Symbols" stroke="none" stroke-width="1" fill="none" fill-rule="evenodd">
        <g id="Elements-/-Cards-/-Comment-/-Standard" transform="translate(-374.000000, -15.000000)">
            <g id="Comment">
                <g id="Прикрепить-Copy" transform="translate(371.000000, 12.000000)">
                    <mask id="mask-2" fill="white">
                        <path d="M11.991,3 C7.023,3 3,7.032 3,12 C3,16.968 7.023,21 11.991,21 C16.968,21 21,16.968 21,12 C21,7.032 16.968,3 11.991,3 Z M12,20 C7.58,20 4,16.42 4,12 C4,7.58 7.58,4 12,4 C16.42,4 20,7.58 20,12 C20,16.42 16.42,20 12,20 Z M15,12 C15.5533333,12 16,11.5533333 16,11 C16,10.4466667 15.5533333,10 15,10 C14.4466667,10 14,10.4466667 14,11 C14,11.5533333 14.4466667,12 15,12 Z M9,12 C9.55333333,12 10,11.5533333 10,11 C10,10.4466667 9.55333333,10 9,10 C8.44666667,10 8,10.4466667 8,11 C8,11.5533333 8.44666667,12 9,12 Z M12.099,17.15 C14.196,17.15 15.978,15.836 16.698,14 C15.5862092,15.389317 14.0532092,16.0839755 12.099,16.0839755 C10.1447908,16.0839755 8.61179085,15.389317 7.5,14 C8.22,15.836 10.002,17.15 12.099,17.15 Z"></path>
                    </mask>
                    <path d="M11.991,3 C7.023,3 3,7.032 3,12 C3,16.968 7.023,21 11.991,21 C16.968,21 21,16.968 21,12 C21,7.032 16.968,3 11.991,3 Z M12,20 C7.58,20 4,16.42 4,12 C4,7.58 7.58,4 12,4 C16.42,4 20,7.58 20,12 C20,16.42 16.42,20 12,20 Z M15,12 C15.5533333,12 16,11.5533333 16,11 C16,10.4466667 15.5533333,10 15,10 C14.4466667,10 14,10.4466667 14,11 C14,11.5533333 14.4466667,12 15,12 Z M9,12 C9.55333333,12 10,11.5533333 10,11 C10,10.4466667 9.55333333,10 9,10 C8.44666667,10 8,10.4466667 8,11 C8,11.5533333 8.44666667,12 9,12 Z M12.099,17.15 C14.196,17.15 15.978,15.836 16.698,14 C15.5862092,15.389317 14.0532092,16.0839755 12.099,16.0839755 C10.1447908,16.0839755 8.61179085,15.389317 7.5,14 C8.22,15.836 10.002,17.15 12.099,17.15 Z" fill="#000000" fill-rule="nonzero"></path>
                </g>
            </g>
        </g>
    </g>
</svg>
