<svg width="148" height="148" viewBox="0 0 148 148" xmlns="http://www.w3.org/2000/svg">
    <title>
        smile-sad
    </title>
    <g fill="#C7CCD1" fill-rule="nonzero">
        <path d="M74 144c38.66 0 70-31.34 70-70S112.66 4 74 4 4 35.34 4 74s31.34 70 70 70zm0 4c-40.87 0-74-33.13-74-74S33.13 0 74 0s74 33.13 74 74-33.13 74-74 74z"/>
        <path d="M50 66a8 8 0 1 1 0-16 8 8 0 0 1 0 16z"/>
        <path d="M98 66a8 8 0 1 1 0-16 8 8 0 0 1 0 16z"/>
        <path d="M100 113a2 2 0 0 1-4 0c0-12.15-9.85-22-22-22s-22 9.85-22 22a2 2 0 0 1-4 0c0-14.36 11.64-26 26-26s26 11.64 26 26z"/>
    </g>
</svg>
