<svg width="18" height="18" viewBox="0 0 18 18" xmlns="http://www.w3.org/2000/svg">
    <title>
        smile-happy
    </title>
    <path d="M8.991 0C4.023 0 0 4.032 0 9s4.023 9 8.991 9C13.968 18 18 13.968 18 9s-4.032-9-9.009-9zM9 17c-4.42 0-8-3.58-8-8s3.58-8 8-8 8 3.58 8 8-3.58 8-8 8zm3-8c.553 0 1-.447 1-1 0-.553-.447-1-1-1-.553 0-1 .447-1 1 0 .553.447 1 1 1zM6 9c.553 0 1-.447 1-1 0-.553-.447-1-1-1-.553 0-1 .447-1 1 0 .553.447 1 1 1zm3.099 5.15c2.097 0 3.879-1.314 4.599-3.15-1.112 1.39-2.645 2.084-4.599 2.084-1.954 0-3.487-.695-4.599-2.084.72 1.836 2.502 3.15 4.599 3.15z" fill="#000" fill-rule="nonzero"/>
</svg>
