<svg width="17" height="17" viewBox="0 0 17 17" xmlns="http://www.w3.org/2000/svg">
    <title>
        time
    </title>
    <path d="M3.395 2.93a7.556 7.556 0 1 0 6.05-1.927v2.775H8.5V0h.944v.052A8.501 8.501 0 0 1 8.5 17 8.5 8.5 0 0 1 2.953 2.06l.454-.454 6.01 6.01-.668.668L3.395 2.93zM8.5 14a.5.5 0 1 0 0-1 .5.5 0 0 0 0 1zm0 1a1.5 1.5 0 1 1 0-3 1.5 1.5 0 0 1 0 3zm-5-6a.5.5 0 1 0 0-1 .5.5 0 0 0 0 1zm0 1a1.5 1.5 0 1 1 0-3 1.5 1.5 0 0 1 0 3zm10-1a.5.5 0 1 0 0-1 .5.5 0 0 0 0 1zm0 1a1.5 1.5 0 1 1 0-3 1.5 1.5 0 0 1 0 3z" fill="#979797" fill-rule="nonzero"/>
</svg>
