<?xml version="1.0" encoding="UTF-8"?>
<svg width="17px" height="17px" viewBox="0 0 17 17" version="1.1" xmlns="http://www.w3.org/2000/svg" xmlns:xlink="http://www.w3.org/1999/xlink">
    <!-- Generator: Sketch 49.3 (51167) - http://www.bohemiancoding.com/sketch -->
    <title>time</title>
    <desc>Created with Sketch.</desc>
    <g id="Marvel" stroke="none" stroke-width="1" fill="none" fill-rule="evenodd">
        <g id="Marvel_My_Events" transform="translate(-405.000000, -121.000000)">
            <g id="Group-16" transform="translate(369.000000, 31.000000)">
                <g id="01-copy-2" transform="translate(0.000000, 62.000000)">
                    <g id="Content">
                        <g id="Group-3" transform="translate(24.000000, 16.000000)">
                            <g id="Component-/-Icons-/-S-/-Travel" transform="translate(8.000000, 8.000000)">
                                <mask id="mask-2" fill="white">
                                    <path d="M7.39515624,6.92964598 C5.84742736,8.34794124 4.94444444,10.349296 4.94444444,12.5 C4.94444444,16.6728181 8.32718189,20.0555556 12.5,20.0555556 C16.6728181,20.0555556 20.0555556,16.6728181 20.0555556,12.5 C20.0555556,8.64702777 17.1715165,5.46765896 13.4444444,5.00289966 L13.4444444,7.77777778 L12.5,7.77777778 L12.5,4 L13.4444444,4 L13.4444444,4.05187718 C17.6943977,4.52168567 21,8.12481044 21,12.5 C21,17.1944204 17.1944204,21 12.5,21 C7.80557963,21 4,17.1944204 4,12.5 C4,9.92526359 5.14478099,7.6179051 6.95311602,6.0591515 L7.40671196,5.60555556 L13.4171196,11.6159632 L12.7492965,12.2837863 L7.39515624,6.92964598 Z M12.5,18 C12.7761424,18 13,17.7761424 13,17.5 C13,17.2238576 12.7761424,17 12.5,17 C12.2238576,17 12,17.2238576 12,17.5 C12,17.7761424 12.2238576,18 12.5,18 Z M12.5,19 C11.6715729,19 11,18.3284271 11,17.5 C11,16.6715729 11.6715729,16 12.5,16 C13.3284271,16 14,16.6715729 14,17.5 C14,18.3284271 13.3284271,19 12.5,19 Z M7.5,13 C7.77614237,13 8,12.7761424 8,12.5 C8,12.2238576 7.77614237,12 7.5,12 C7.22385763,12 7,12.2238576 7,12.5 C7,12.7761424 7.22385763,13 7.5,13 Z M7.5,14 C6.67157288,14 6,13.3284271 6,12.5 C6,11.6715729 6.67157288,11 7.5,11 C8.32842712,11 9,11.6715729 9,12.5 C9,13.3284271 8.32842712,14 7.5,14 Z M17.5,13 C17.7761424,13 18,12.7761424 18,12.5 C18,12.2238576 17.7761424,12 17.5,12 C17.2238576,12 17,12.2238576 17,12.5 C17,12.7761424 17.2238576,13 17.5,13 Z M17.5,14 C16.6715729,14 16,13.3284271 16,12.5 C16,11.6715729 16.6715729,11 17.5,11 C18.3284271,11 19,11.6715729 19,12.5 C19,13.3284271 18.3284271,14 17.5,14 Z"></path>
                                </mask>
                                <path d="M7.39515624,6.92964598 C5.84742736,8.34794124 4.94444444,10.349296 4.94444444,12.5 C4.94444444,16.6728181 8.32718189,20.0555556 12.5,20.0555556 C16.6728181,20.0555556 20.0555556,16.6728181 20.0555556,12.5 C20.0555556,8.64702777 17.1715165,5.46765896 13.4444444,5.00289966 L13.4444444,7.77777778 L12.5,7.77777778 L12.5,4 L13.4444444,4 L13.4444444,4.05187718 C17.6943977,4.52168567 21,8.12481044 21,12.5 C21,17.1944204 17.1944204,21 12.5,21 C7.80557963,21 4,17.1944204 4,12.5 C4,9.92526359 5.14478099,7.6179051 6.95311602,6.0591515 L7.40671196,5.60555556 L13.4171196,11.6159632 L12.7492965,12.2837863 L7.39515624,6.92964598 Z M12.5,18 C12.7761424,18 13,17.7761424 13,17.5 C13,17.2238576 12.7761424,17 12.5,17 C12.2238576,17 12,17.2238576 12,17.5 C12,17.7761424 12.2238576,18 12.5,18 Z M12.5,19 C11.6715729,19 11,18.3284271 11,17.5 C11,16.6715729 11.6715729,16 12.5,16 C13.3284271,16 14,16.6715729 14,17.5 C14,18.3284271 13.3284271,19 12.5,19 Z M7.5,13 C7.77614237,13 8,12.7761424 8,12.5 C8,12.2238576 7.77614237,12 7.5,12 C7.22385763,12 7,12.2238576 7,12.5 C7,12.7761424 7.22385763,13 7.5,13 Z M7.5,14 C6.67157288,14 6,13.3284271 6,12.5 C6,11.6715729 6.67157288,11 7.5,11 C8.32842712,11 9,11.6715729 9,12.5 C9,13.3284271 8.32842712,14 7.5,14 Z M17.5,13 C17.7761424,13 18,12.7761424 18,12.5 C18,12.2238576 17.7761424,12 17.5,12 C17.2238576,12 17,12.2238576 17,12.5 C17,12.7761424 17.2238576,13 17.5,13 Z M17.5,14 C16.6715729,14 16,13.3284271 16,12.5 C16,11.6715729 16.6715729,11 17.5,11 C18.3284271,11 19,11.6715729 19,12.5 C19,13.3284271 18.3284271,14 17.5,14 Z" fill="#979797" fill-rule="nonzero"></path>
                            </g>
                        </g>
                    </g>
                </g>
            </g>
        </g>
    </g>
</svg>
