<svg width="18" height="15" viewBox="0 0 18 15" xmlns="http://www.w3.org/2000/svg">
    <title>
        to-top
    </title>
    <path d="M5.265 6.869H3.474v4.905H1.782V6.869H0V5.564h5.265v1.305zm3.258-1.431c2.052 0 2.79.702 2.79 3.231s-.738 3.231-2.79 3.231-2.781-.702-2.781-3.231.729-3.231 2.781-3.231zm0 1.296c-.792 0-1.008.405-1.008 1.935s.216 1.935 1.008 1.935 1.008-.405 1.008-1.935-.216-1.935-1.008-1.935zm3.681 5.04v-6.21c.792-.081 1.323-.09 2.502-.09 1.863 0 2.439.45 2.439 2.079 0 1.62-.576 2.07-2.205 2.07-.351 0-.711-.027-1.044-.063v2.214h-1.692zm1.692-3.384V6.707h.774c.612 0 .783.171.783.846 0 .666-.171.837-.783.837h-.774zM6.5 13.438h4a.5.5 0 0 1 0 1h-4a.5.5 0 1 1 0-1zm3.198-11L8.5 1 7.302 2.438h2.396zM6.232 2.16l1.5-1.8a1 1 0 0 1 1.536 0l1.5 1.8A1 1 0 0 1 11 2.8v.138a.5.5 0 0 1-.5.5h-4a.5.5 0 0 1-.5-.5V2.8a1 1 0 0 1 .232-.64z" fill="#000" fill-rule="evenodd"/>
</svg>
