<svg width="78" height="80" viewBox="0 0 78 80" xmlns="http://www.w3.org/2000/svg">
    <title>
        tombstone
    </title>
    <g fill="#848E99" fill-rule="nonzero">
        <circle cx="45.437" cy="61.823" r="1.416"/>
        <circle cx="51.1" cy="67.487" r="1.416"/>
        <circle cx="26.559" cy="67.487" r="1.416"/>
        <path d="M47.325 35.867h-16.99a1.416 1.416 0 1 0 0 2.832h16.99a1.416 1.416 0 1 0 0-2.832z"/>
        <path d="M47.325 28.316h-16.99a1.416 1.416 0 1 0 0 2.832h16.99a1.416 1.416 0 1 0 0-2.832z"/>
        <path d="M38.83 7.551c-4.877 0-9.509 1.56-13.394 4.512a1.416 1.416 0 0 0 1.713 2.255 19.158 19.158 0 0 1 11.68-3.935c10.67 0 19.35 8.68 19.35 19.349v20.293a1.416 1.416 0 1 0 2.832 0V29.732c0-12.23-9.95-22.181-22.181-22.181z"/>
        <path d="M76.113 74.566a7.08 7.08 0 0 0-4.66 1.752 7.086 7.086 0 0 0-2.892-1.525V29.732C68.561 13.338 55.224 0 38.83 0 22.436 0 9.098 13.338 9.098 29.732v45.06a7.091 7.091 0 0 0-2.89 1.526 7.08 7.08 0 0 0-4.661-1.752 1.416 1.416 0 1 0 0 2.831c1.394 0 2.7.687 3.496 1.837a1.416 1.416 0 0 0 2.329 0 4.253 4.253 0 0 1 3.496-1.837c1.393 0 2.7.687 3.495 1.837a1.416 1.416 0 0 0 2.33 0 4.253 4.253 0 0 1 3.495-1.837c1.394 0 2.701.687 3.496 1.837a1.416 1.416 0 0 0 2.33 0 4.253 4.253 0 0 1 3.495-1.837c1.394 0 2.701.687 3.496 1.837a1.416 1.416 0 0 0 2.33 0 4.253 4.253 0 0 1 3.495-1.837c1.394 0 2.7.687 3.496 1.837a1.416 1.416 0 0 0 2.33 0 4.253 4.253 0 0 1 3.495-1.837c1.394 0 2.7.687 3.496 1.837a1.416 1.416 0 0 0 2.33 0 4.253 4.253 0 0 1 3.495-1.837c1.394 0 2.7.687 3.496 1.837a1.416 1.416 0 0 0 2.33 0 4.253 4.253 0 0 1 3.495-1.837c1.394 0 2.7.687 3.496 1.837a1.416 1.416 0 0 0 2.33 0 4.253 4.253 0 0 1 3.495-1.837 1.416 1.416 0 1 0-.001-2.831zm-10.383.081a7.086 7.086 0 0 0-3.598 1.67 7.094 7.094 0 0 0-1.121-.8V55.688a1.416 1.416 0 1 0-2.832 0v18.914a7.08 7.08 0 0 0-5.368 1.715 7.08 7.08 0 0 0-4.66-1.751 7.08 7.08 0 0 0-4.661 1.752 7.08 7.08 0 0 0-4.66-1.752 7.08 7.08 0 0 0-4.661 1.752 7.08 7.08 0 0 0-4.66-1.752 7.08 7.08 0 0 0-4.66 1.752 7.08 7.08 0 0 0-5.37-1.716v-44.87c0-4.253 1.362-8.292 3.936-11.68a1.416 1.416 0 1 0-2.255-1.714 21.97 21.97 0 0 0-4.511 13.394v45.785c-.397.23-.773.497-1.12.8a7.084 7.084 0 0 0-3.6-1.67V29.732c0-14.833 12.068-26.9 26.9-26.9 14.834 0 26.9 12.067 26.9 26.9v44.915z"/>
    </g>
</svg>
