<?xml version="1.0" encoding="UTF-8"?>
<svg width="18px" height="14px" viewBox="0 0 18 14" version="1.1" xmlns="http://www.w3.org/2000/svg" xmlns:xlink="http://www.w3.org/1999/xlink">
    <!-- Generator: Sketch 49.3 (51167) - http://www.bohemiancoding.com/sketch -->
    <title>twitter</title>
    <desc>Created with Sketch.</desc>
    <g id="Symbols" stroke="none" stroke-width="1" fill="none" fill-rule="evenodd">
        <g id="Component-/-Icons-/-S-/-Social-/-Twitter" transform="translate(-3.000000, -5.000000)">
            <mask id="mask-2" fill="white">
                <path d="M21,6.65738462 C20.330625,6.93846154 19.617375,7.12476923 18.87375,7.21523077 C19.63875,6.778 20.222625,6.09092308 20.497125,5.26276923 C19.783875,5.66984615 18.996375,5.95738462 18.157125,6.11784615 C17.479875,5.42753846 16.514625,5 15.461625,5 C13.418625,5 11.773875,6.58738462 11.773875,8.53338462 C11.773875,8.81338462 11.798625,9.08261538 11.859375,9.33892308 C8.7915,9.19569231 6.076875,7.78815385 4.25325,5.644 C3.934875,6.17276923 3.748125,6.778 3.748125,7.42953846 C3.748125,8.65292308 4.40625,9.73738462 5.38725,10.3652308 C4.794375,10.3544615 4.21275,10.1896923 3.72,9.93015385 C3.72,9.94092308 3.72,9.95492308 3.72,9.96892308 C3.72,11.6855385 4.999125,13.1113846 6.6765,13.4398462 C6.376125,13.5184615 6.04875,13.5561538 5.709,13.5561538 C5.47275,13.5561538 5.23425,13.5432308 5.010375,13.4958462 C5.4885,14.8947692 6.84525,15.9232308 8.4585,15.9566154 C7.203,16.8967692 5.608875,17.4632308 3.883125,17.4632308 C3.5805,17.4632308 3.29025,17.4503077 3,17.4147692 C4.634625,18.4238462 6.571875,19 8.661,19 C15.4515,19 19.164,13.6153846 19.164,8.948 C19.164,8.79184615 19.158375,8.64107692 19.1505,8.49138462 C19.882875,7.99384615 20.49825,7.37246154 21,6.65738462"></path>
            </mask>
            <path d="M21,6.65738462 C20.330625,6.93846154 19.617375,7.12476923 18.87375,7.21523077 C19.63875,6.778 20.222625,6.09092308 20.497125,5.26276923 C19.783875,5.66984615 18.996375,5.95738462 18.157125,6.11784615 C17.479875,5.42753846 16.514625,5 15.461625,5 C13.418625,5 11.773875,6.58738462 11.773875,8.53338462 C11.773875,8.81338462 11.798625,9.08261538 11.859375,9.33892308 C8.7915,9.19569231 6.076875,7.78815385 4.25325,5.644 C3.934875,6.17276923 3.748125,6.778 3.748125,7.42953846 C3.748125,8.65292308 4.40625,9.73738462 5.38725,10.3652308 C4.794375,10.3544615 4.21275,10.1896923 3.72,9.93015385 C3.72,9.94092308 3.72,9.95492308 3.72,9.96892308 C3.72,11.6855385 4.999125,13.1113846 6.6765,13.4398462 C6.376125,13.5184615 6.04875,13.5561538 5.709,13.5561538 C5.47275,13.5561538 5.23425,13.5432308 5.010375,13.4958462 C5.4885,14.8947692 6.84525,15.9232308 8.4585,15.9566154 C7.203,16.8967692 5.608875,17.4632308 3.883125,17.4632308 C3.5805,17.4632308 3.29025,17.4503077 3,17.4147692 C4.634625,18.4238462 6.571875,19 8.661,19 C15.4515,19 19.164,13.6153846 19.164,8.948 C19.164,8.79184615 19.158375,8.64107692 19.1505,8.49138462 C19.882875,7.99384615 20.49825,7.37246154 21,6.65738462" fill="#000000"></path>
        </g>
    </g>
</svg>
