<?xml version="1.0" encoding="UTF-8"?>
<svg width="20px" height="20px" viewBox="0 0 20 20" version="1.1" xmlns="http://www.w3.org/2000/svg" xmlns:xlink="http://www.w3.org/1999/xlink">
    <!-- Generator: Sketch 49.3 (51167) - http://www.bohemiancoding.com/sketch -->
    <title>user</title>
    <desc>Created with Sketch.</desc>
    <g id="Marvel" stroke="none" stroke-width="1" fill="none" fill-rule="evenodd">
        <g id="Marvel_My_Profile_Woman_Edit_02" transform="translate(-730.000000, -45.000000)">
            <g id="02-copy-3" transform="translate(369.000000, 0.000000)">
                <g id="Group" transform="translate(347.000000, 35.000000)">
                    <g id="Component-/-Icons-/-S-/-Arrows-/-Ok" transform="translate(12.000000, 8.000000)">
                        <mask id="mask-2" fill="white">
                            <path d="M12,6 C10.8922847,6 10,6.89228475 10,8 C10,9.10771525 10.8922847,10 12,10 C13.1077153,10 14,9.10771525 14,8 C14,6.89228475 13.1077153,6 12,6 Z M12,5 C13.66,5 15,6.34 15,8 C15,9.66 13.66,11 12,11 C10.34,11 9,9.66 9,8 C9,6.34 10.34,5 12,5 Z M12,13.9 C10.0005683,13.9 7.49274962,14.8766479 7.06366178,15.7507306 C8.22461812,17.2763524 10.0365467,18.2 12,18.2 C13.9633539,18.2 15.7751984,17.2764459 16.9361619,15.7509624 C16.5060588,14.8778532 13.9934599,13.9 12,13.9 Z M12,19.2 C9.5,19.2 7.29,17.92 6,15.98 C6.03,13.99 10,12.9 12,12.9 C13.99,12.9 17.97,13.99 18,15.98 C16.71,17.92 14.5,19.2 12,19.2 Z M12,21 C16.9705627,21 21,16.9705627 21,12 C21,7.02943725 16.9705627,3 12,3 C7.02943725,3 3,7.02943725 3,12 C3,16.9705627 7.02943725,21 12,21 Z M12,22 C6.4771525,22 2,17.5228475 2,12 C2,6.4771525 6.4771525,2 12,2 C17.5228475,2 22,6.4771525 22,12 C22,17.5228475 17.5228475,22 12,22 Z"></path>
                        </mask>
                        <path d="M12,6 C10.8922847,6 10,6.89228475 10,8 C10,9.10771525 10.8922847,10 12,10 C13.1077153,10 14,9.10771525 14,8 C14,6.89228475 13.1077153,6 12,6 Z M12,5 C13.66,5 15,6.34 15,8 C15,9.66 13.66,11 12,11 C10.34,11 9,9.66 9,8 C9,6.34 10.34,5 12,5 Z M12,13.9 C10.0005683,13.9 7.49274962,14.8766479 7.06366178,15.7507306 C8.22461812,17.2763524 10.0365467,18.2 12,18.2 C13.9633539,18.2 15.7751984,17.2764459 16.9361619,15.7509624 C16.5060588,14.8778532 13.9934599,13.9 12,13.9 Z M12,19.2 C9.5,19.2 7.29,17.92 6,15.98 C6.03,13.99 10,12.9 12,12.9 C13.99,12.9 17.97,13.99 18,15.98 C16.71,17.92 14.5,19.2 12,19.2 Z M12,21 C16.9705627,21 21,16.9705627 21,12 C21,7.02943725 16.9705627,3 12,3 C7.02943725,3 3,7.02943725 3,12 C3,16.9705627 7.02943725,21 12,21 Z M12,22 C6.4771525,22 2,17.5228475 2,12 C2,6.4771525 6.4771525,2 12,2 C17.5228475,2 22,6.4771525 22,12 C22,17.5228475 17.5228475,22 12,22 Z" fill="#979797" fill-rule="nonzero"></path>
                    </g>
                </g>
            </g>
        </g>
    </g>
</svg>
