<svg width="67" height="80" viewBox="0 0 67 80" xmlns="http://www.w3.org/2000/svg">
    <title>
        vip-sidebar
    </title>
    <g fill="none" fill-rule="evenodd">
        <path d="M49.339 70.724c.26-.502.398-1.059.403-1.625 0-2.003-1.61-3.627-3.594-3.627h-1.249l-4.63-19.547c1.97-.11 3.48-1.81 3.372-3.8a3.598 3.598 0 0 0-2.748-3.312l4.026-5.547c.032-.049.058-.1.081-.153v-.07c.045-.104.072-.214.08-.326v-7.701c0-.561-.45-1.016-1.006-1.016h-3.836c-.556 0-1.006.455-1.006 1.016v2.032h-2.658v-2.032c0-.561-.45-1.016-1.007-1.016h-4.58c-.556 0-1.007.455-1.007 1.016v2.032h-2.638v-2.032c0-.561-.45-1.016-1.006-1.016H22.47c-.556 0-1.007.455-1.007 1.016v7.64c.003.118.027.235.07.345v.072c.023.053.05.104.081.152l4.027 5.547c-1.921.457-3.112 2.4-2.659 4.338a3.583 3.583 0 0 0 3.283 2.774l-4.63 19.567h-1.209c-1.985 0-3.594 1.624-3.594 3.627.003.555.134 1.1.383 1.595h-.202c-1.112 0-2.013.91-2.013 2.032v5.263C15 79.09 15.901 80 17.013 80h31.974C50.099 80 51 79.09 51 77.968v-5.232a2.027 2.027 0 0 0-1.661-2.012zM23.477 26.022h1.852v2.032c0 .56.45 1.016 1.007 1.016h4.65c.557 0 1.007-.455 1.007-1.016v-2.032h2.547v2.032c0 .56.451 1.016 1.007 1.016h4.661c.556 0 1.007-.455 1.007-1.016v-2.032h1.852v5.608h-19.59v-5.608zm1.006 7.64h17.638l-3.634 5.009h-10.4l-3.604-5.01zm.464 8.666v-.02l.06-.01c0-.881.707-1.596 1.58-1.596h13.46c.873 0 1.581.714 1.582 1.594 0 .881-.707 1.596-1.58 1.597H26.557a1.587 1.587 0 0 1-1.61-1.565zm3.422 3.597h9.836l4.62 19.547H23.698l4.671-19.547zm-8.195 21.579c.084-.007.168-.007.252 0h25.722c.87-.07 1.632.584 1.701 1.462a1.59 1.59 0 0 1-1.701 1.718H20.426a1.585 1.585 0 0 1-1.701-1.463 1.59 1.59 0 0 1 1.45-1.717zm28.823 10.495H17.003v-5.273h31.994v5.273z" fill="#EFA747" fill-rule="nonzero"/>
        <path stroke="#EFA747" stroke-width="2" d="M7.95 26.698l1.258-3.599 3.677-1.004-3.033-2.308.181-3.808-3.132 2.172-3.566-1.35 1.098 3.651-2.385 2.974 3.81.084 2.092 3.188z" fill="#F4F7FB"/>
        <path stroke="#EFA747" stroke-width="2" d="M58.95 26.698l1.258-3.599 3.677-1.004-3.033-2.308.181-3.808-3.132 2.172-3.566-1.35 1.098 3.651-2.385 2.974 3.81.084 2.092 3.188z" fill="#F4F7FB"/>
        <path stroke="#EFA747" stroke-width="2" d="M36.374 12.644l-.644-3.757 2.73-2.66-3.773-.55L33 2.26l-1.687 3.418-3.772.548 2.73 2.66-.645 3.758L33 10.87l3.374 1.774z" fill="#F4F7FB"/>
    </g>
</svg>
