<?xml version="1.0" encoding="UTF-8"?>
<svg width="80px" height="80px" viewBox="0 0 80 80" version="1.1" xmlns="http://www.w3.org/2000/svg" xmlns:xlink="http://www.w3.org/1999/xlink">
    <!-- Generator: Sketch 49.2 (51160) - http://www.bohemiancoding.com/sketch -->
    <title>confetti</title>
    <desc>Created with Sketch.</desc>
    <defs></defs>
    <g id="Marvel" stroke="none" stroke-width="1" fill="none" fill-rule="evenodd">
        <g id="Marvel_Create_Modal_03" transform="translate(-808.000000, -314.000000)" fill="#00A9FF" fill-rule="nonzero">
            <g id="Chat" transform="translate(369.000000, 8.000000)">
                <g id="Чат" transform="translate(0.000000, 17.000000)">
                    <g id="Group" transform="translate(247.000000, 289.000000)">
                        <g id="confetti" transform="translate(192.000000, 0.000000)">
                            <path d="M54.4560499,50.0849896 C54.2069023,49.3935967 53.4444906,49.0351767 52.753264,49.2843243 C52.0618711,49.5334719 51.7034511,50.2958836 51.9525988,50.9871102 C51.9587526,51.0040748 51.9652391,51.0208732 51.9720582,51.0376715 C53.1855301,54.2044075 53.2733472,56.6260291 52.2115593,57.6904782 C50.9235759,58.9758004 47.7155925,58.5739709 43.6281081,56.6180457 C38.155842,53.776632 33.1817048,50.0646985 28.9001247,45.6276091 C18.4778378,35.2039917 14.1774636,24.9759667 16.8372557,22.3161746 C17.6859875,21.6459044 18.7891892,21.3884407 19.8469854,21.6136383 C20.5797921,21.667526 21.2176299,21.1170062 21.2715177,20.3841996 C21.3235759,19.675842 20.8101455,19.0514761 20.1051143,18.9658212 C18.2551351,18.6385031 16.3570894,19.1778794 14.955842,20.4294387 C10.0806653,25.3032848 17.5331393,38.0167983 27.018711,47.5037006 C31.5128482,52.1543451 36.7349688,56.0414137 42.4798337,59.0117256 C43.5201663,59.5098545 44.5922661,59.9387942 45.6891476,60.2957173 L36.2355094,63.8802495 C23.6118087,59.0809148 14.5242412,47.8895634 12.4184615,34.5493555 C12.3045322,33.823368 11.6236175,33.3270686 10.8976299,33.4409979 C10.1716424,33.5549272 9.67534304,34.235842 9.78927235,34.9618295 C9.99817048,36.2923909 10.2775884,37.6229522 10.6195426,38.9242412 C13.6834927,50.5332225 21.7535135,60.1772973 32.6403326,65.2400832 L17.0807484,71.127817 C17.0093971,71.0087318 16.9195842,70.9019543 16.8146362,70.8111435 C12.8602079,67.6362578 10.3790437,62.9801247 9.94893971,57.9273181 L9.33155925,50.450894 C9.28299376,49.7265696 8.65629938,49.178711 7.93180873,49.2272765 C7.91800416,49.2282744 7.90419958,49.2292723 7.89056133,49.2307692 C7.15808732,49.2889813 6.61139293,49.9301455 6.66960499,50.6626195 C6.66977131,50.6656133 6.67010395,50.6687734 6.67043659,50.6717672 L7.29846154,58.1455301 C7.76615385,63.5464449 10.2855717,68.5626611 14.3384615,72.1629938 L3.23891892,76.3649064 L5.23476091,68.1739709 C5.40889813,67.4596258 4.97114345,66.7394595 4.25679834,66.5653222 C3.54245322,66.391185 2.8222869,66.8289397 2.64814969,67.5432848 L0.0522245322,78.1877755 C-0.122744283,78.9014553 0.314012474,79.6219543 1.02785863,79.7967568 C1.28964657,79.8609563 1.5645738,79.8439917 1.81654886,79.7485239 L51.0473181,61.1206653 C51.1256549,61.0824116 51.1996674,61.0360083 51.2681913,60.9822869 C52.3336383,60.8186279 53.3214137,60.3259875 54.092973,59.5732225 C55.4113929,58.2546362 56.5463617,55.5362994 54.4560499,50.0849896 Z" id="Shape"></path>
                            <path d="M67.0125572,46.6534719 C59.8197089,43.9607484 52.0454054,43.2058212 44.4688565,44.4646985 L39.7147609,45.2630353 C38.9930977,45.4017464 38.5205821,46.0991268 38.6592931,46.82079 C38.7933472,47.5180042 39.4511435,47.9871933 40.1538462,47.8869023 L44.9066112,47.0952183 C52.0221206,45.912183 59.3237422,46.6217048 66.0785031,49.1522661 C66.2283576,49.2053222 66.3865281,49.2319335 66.5455301,49.2307692 C67.2803326,49.2319335 67.8770894,48.6373389 67.8782536,47.9023701 C67.8792516,47.3460291 67.5339709,46.8479002 67.0125572,46.6534719 Z" id="Shape"></path>
                            <path d="M71.7427027,26.0390852 C71.4266944,25.3754678 70.6326819,25.0937214 69.9690644,25.4097297 L42.0272765,38.715343 C41.3638254,39.031185 41.0819127,39.8250312 41.3977547,40.4886486 C41.3977547,40.488815 41.397921,40.4889813 41.397921,40.4889813 C41.713763,41.1524324 42.5076091,41.4343451 43.1712266,41.1185031 C43.1713929,41.1185031 43.1713929,41.1183368 43.1715593,41.1183368 L71.1133472,27.8127235 C71.7769647,27.4967152 72.058711,26.7027027 71.7427027,26.0390852 Z" id="Shape"></path>
                            <path d="M32.328815,9.03051975 C32.1824532,8.31035343 31.4800832,7.84515593 30.7599168,7.99151767 C30.0397505,8.13787942 29.574553,8.84024948 29.7209148,9.5604158 C29.7240748,9.57638254 29.7277339,9.59218295 29.7315593,9.60798337 C31.4157173,17.1321414 30.7216632,24.993763 27.7450312,32.1064449 L25.810395,36.7487734 C25.5308108,37.4251975 25.8499792,38.2004158 26.5249064,38.4838254 C26.6865696,38.5518503 26.8603742,38.5866112 27.035842,38.5862786 C27.5728898,38.5862786 28.0572141,38.2636175 28.2639501,37.7679834 L30.1999168,33.1309771 C33.389106,25.5120166 34.1330561,17.0905613 32.328815,9.03051975 Z" id="Shape"></path>
                            <path d="M73.1983368,47.9002079 C70.993763,47.9002079 69.2066528,49.6873181 69.2066528,51.8918919 C69.2066528,54.0964657 70.993763,55.8835759 73.1983368,55.8835759 C75.4029106,55.8835759 77.1900208,54.0964657 77.1900208,51.8918919 C77.1900208,49.6873181 75.4029106,47.9002079 73.1983368,47.9002079 Z M73.1983368,53.2224532 C72.4635343,53.2224532 71.8677755,52.6266944 71.8677755,51.8918919 C71.8677755,51.1570894 72.4635343,50.5613306 73.1983368,50.5613306 C73.9331393,50.5613306 74.5288981,51.1570894 74.5288981,51.8918919 C74.5288981,52.6266944 73.9331393,53.2224532 73.1983368,53.2224532 Z" id="Shape"></path>
                            <path d="M41.2648649,10.6444906 C39.0602911,10.6444906 37.2731809,12.4316008 37.2731809,14.6361746 C37.2731809,16.8407484 39.0602911,18.6278586 41.2648649,18.6278586 C43.4694387,18.6278586 45.2565489,16.8407484 45.2565489,14.6361746 C45.2565489,12.4316008 43.4694387,10.6444906 41.2648649,10.6444906 Z M41.2648649,15.966736 C40.5300624,15.966736 39.9343035,15.3709771 39.9343035,14.6361746 C39.9343035,13.9013721 40.5300624,13.3056133 41.2648649,13.3056133 C41.9996674,13.3056133 42.5954262,13.9013721 42.5954262,14.6361746 C42.5954262,15.3709771 41.9996674,15.966736 41.2648649,15.966736 Z" id="Shape"></path>
                            <circle id="Oval" cx="29.2898129" cy="2.66112266" r="2.66112266"></circle>
                            <path d="M66.5455301,6.65280665 C65.8107277,6.65280665 65.2149688,7.24856549 65.2149688,7.98336798 L65.2149688,9.31392931 C65.2149688,10.0487318 65.8107277,10.6444906 66.5455301,10.6444906 C67.2803326,10.6444906 67.8760915,10.0487318 67.8760915,9.31392931 L67.8760915,7.98336798 C67.8760915,7.24856549 67.2803326,6.65280665 66.5455301,6.65280665 Z" id="Shape"></path>
                            <path d="M66.5455301,0 C65.8107277,0 65.2149688,0.595758836 65.2149688,1.33056133 L65.2149688,2.66112266 C65.2149688,3.39592516 65.8107277,3.99168399 66.5455301,3.99168399 C67.2803326,3.99168399 67.8760915,3.39592516 67.8760915,2.66112266 L67.8760915,1.33056133 C67.8760915,0.595758836 67.2803326,0 66.5455301,0 Z" id="Shape"></path>
                            <path d="M70.5372141,3.99168399 L69.2066528,3.99168399 C68.4718503,3.99168399 67.8760915,4.58744283 67.8760915,5.32224532 C67.8760915,6.05704782 68.4718503,6.65280665 69.2066528,6.65280665 L70.5372141,6.65280665 C71.2720166,6.65280665 71.8677755,6.05704782 71.8677755,5.32224532 C71.8677755,4.58744283 71.2720166,3.99168399 70.5372141,3.99168399 Z" id="Shape"></path>
                            <path d="M63.8844075,3.99168399 L62.5538462,3.99168399 C61.8190437,3.99168399 61.2232848,4.58744283 61.2232848,5.32224532 C61.2232848,6.05704782 61.8190437,6.65280665 62.5538462,6.65280665 L63.8844075,6.65280665 C64.61921,6.65280665 65.2149688,6.05704782 65.2149688,5.32224532 C65.2149688,4.58744283 64.61921,3.99168399 63.8844075,3.99168399 Z" id="Shape"></path>
                            <path d="M57.2316008,14.6082328 L50.5508524,14.6082328 C49.8160499,14.6082328 49.2202911,15.2039917 49.2202911,15.9387942 L49.2202911,22.6195426 C49.2202911,23.3543451 49.8160499,23.950104 50.5508524,23.950104 L57.2316008,23.950104 C57.9664033,23.950104 58.5621622,23.3543451 58.5621622,22.6195426 L58.5621622,15.9387942 C58.5621622,15.2039917 57.9664033,14.6082328 57.2316008,14.6082328 Z M55.9010395,21.2889813 L51.8814137,21.2889813 L51.8814137,17.2693555 L55.9010395,17.2693555 L55.9010395,21.2889813 Z" id="Shape"></path>
                            <path d="M47.5386279,25.7190852 C47.0501455,25.1976715 46.2371726,25.1550936 45.6969647,25.6226195 L32.3913514,37.5976715 C31.8454886,38.0893139 31.8014137,38.930395 32.2928898,39.4764241 C32.7845322,40.0222869 33.6256133,40.0663617 34.1716424,39.5748857 L47.4772557,27.5998337 C48.0136383,27.0973805 48.0410811,26.2554678 47.5386279,25.7190852 Z" id="Shape"></path>
                            <path d="M71.8677755,30.6029106 C71.132973,30.6029106 70.5372141,31.1986694 70.5372141,31.9334719 L70.5372141,33.2640333 C70.5372141,33.9988358 71.132973,34.5945946 71.8677755,34.5945946 C72.602578,34.5945946 73.1983368,33.9988358 73.1983368,33.2640333 L73.1983368,31.9334719 C73.1983368,31.1986694 72.602578,30.6029106 71.8677755,30.6029106 Z" id="Shape"></path>
                            <path d="M77.5133472,30.3740541 L76.5726403,29.4333472 C76.0440748,28.9227443 75.2018295,28.9373805 74.6912266,29.4659459 C74.193264,29.9815385 74.193264,30.7990021 74.6912266,31.3147609 L75.6319335,32.2554678 C76.160499,32.7660707 77.0027443,32.7514345 77.5133472,32.222869 C78.0114761,31.7071102 78.0114761,30.8896466 77.5133472,30.3740541 Z" id="Shape"></path>
                            <path d="M78.5205821,25.2806653 L77.1900208,25.2806653 C76.4552183,25.2806653 75.8594595,25.8764241 75.8594595,26.6112266 C75.8594595,27.3460291 76.4552183,27.9417879 77.1900208,27.9417879 L78.5205821,27.9417879 C79.2553846,27.9417879 79.8511435,27.3460291 79.8511435,26.6112266 C79.8511435,25.8764241 79.2553846,25.2806653 78.5205821,25.2806653 Z" id="Shape"></path>
                            <path d="M77.4807484,20.9669854 C76.9651559,20.4690229 76.1476923,20.4690229 75.6319335,20.9669854 L74.6912266,21.9076923 C74.1716424,22.4274428 74.1718087,23.2698545 74.6915593,23.7894387 C74.9410395,24.0387526 75.2793347,24.1789605 75.6319335,24.1789605 C75.9848649,24.1789605 76.3231601,24.0385863 76.5726403,23.789106 L77.5133472,22.8483992 C78.0239501,22.3198337 78.0093139,21.477422 77.4807484,20.9669854 Z" id="Shape"></path>
                            <path d="M71.8677755,18.6278586 C71.132973,18.6278586 70.5372141,19.2236175 70.5372141,19.95842 L70.5372141,21.2889813 C70.5372141,22.0237838 71.132973,22.6195426 71.8677755,22.6195426 C72.602578,22.6195426 73.1983368,22.0237838 73.1983368,21.2889813 L73.1983368,19.95842 C73.1983368,19.2236175 72.602578,18.6278586 71.8677755,18.6278586 Z" id="Shape"></path>
                            <path d="M69.0443243,21.9076923 L68.1036175,20.9669854 C67.575052,20.4565489 66.7328067,20.4710187 66.2222037,20.9995842 C65.7242412,21.5151767 65.7242412,22.3326403 66.2222037,22.8483992 L67.1629106,23.789106 C67.6914761,24.2997089 68.5337214,24.2850728 69.0443243,23.7565073 C69.5424532,23.2407484 69.5424532,22.4232848 69.0443243,21.9076923 Z" id="Shape"></path>
                            <path d="M15.9190021,5.75334719 C15.7623285,5.27201663 15.3460291,4.92141372 14.8452391,4.84856549 L10.9400416,4.2804158 L9.1983368,0.742453222 C8.81014553,0.0833264033 7.96108108,-0.136382536 7.30195426,0.251808732 C7.0993763,0.371060291 6.93056133,0.53987526 6.81130977,0.742453222 L5.06162162,4.2804158 L1.15642412,4.84856549 C0.429106029,4.95351351 -0.0753430353,5.62827443 0.0296049896,6.35559252 C0.0713513514,6.64515593 0.207401247,6.91276507 0.416632017,7.11717256 L3.24141372,9.87143451 L2.57613306,13.7606653 C2.44839917,14.4843243 2.93139293,15.174553 3.65505198,15.3022869 C3.94644491,15.3536798 4.24648649,15.3066112 4.50810811,15.1683992 L8.0008316,13.3269023 L11.4935551,15.1630769 C12.1440333,15.5050312 12.9485239,15.255052 13.2904782,14.6045738 C13.4266944,14.3456133 13.4735967,14.0490644 13.4241996,13.7606653 L12.7589189,9.87143451 L15.5850312,7.11717256 C15.9467775,6.76307692 16.0761746,6.23451143 15.9190021,5.75334719 Z M10.395842,8.45438669 C10.0824948,8.7595842 9.93929314,9.19933472 10.0126403,9.63060291 L10.3426195,11.553264 L8.61954262,10.6444906 C8.23218295,10.4410811 7.76948025,10.4410811 7.38212058,10.6444906 L5.65239085,11.5519335 L5.98237006,9.62927235 C6.05704782,9.19966736 5.91634096,8.76058212 5.60582121,8.45438669 L4.20740125,7.09322245 L6.13804574,6.81247401 C6.57147609,6.74960499 6.94619543,6.47733888 7.13995842,6.08465696 L8.0008316,4.33762994 L8.86303534,6.08465696 C9.05663202,6.47700624 9.43068607,6.74910603 9.86361746,6.81247401 L11.7929314,7.09322245 L10.395842,8.45438669 Z" id="Shape"></path>
                            <path d="M75.3565073,66.6943867 L75.351185,66.6943867 L74.8029938,65.8720998 C71.7292308,61.2755094 66.8958004,58.1500208 61.4428274,57.2327651 C60.715343,57.1289813 60.0414137,57.6345946 59.9376299,58.362079 C59.8373389,59.064948 60.3065281,59.7227443 61.0037422,59.856632 C64.9368815,60.5242412 68.5212474,62.5224116 71.1572557,65.5168399 C68.9410395,65.9155094 67.0027443,67.2465696 65.8350104,69.1718919 C64.4019958,71.7383784 65.3209148,74.9804574 67.8874012,76.4134719 C70.4538877,77.8464865 73.6959667,76.9275676 75.1289813,74.3610811 C75.676341,73.3044491 75.9718919,72.1353846 75.9925156,70.9455301 C77.4082328,73.0017464 77.5214969,75.6869854 76.2839085,77.8551351 C75.9090229,78.4871518 76.117422,79.3034511 76.7494387,79.6783368 C77.3814553,80.0532225 78.1977547,79.8448233 78.5726403,79.2128067 C78.5846154,79.1925156 78.5960915,79.1720582 78.6070686,79.1511019 C81.0433264,74.799501 79.608316,69.30079 75.3565073,66.6943867 Z M72.8084823,73.0624532 C72.0982952,74.3492723 70.479501,74.816632 69.1928482,74.1064449 C67.9061954,73.3962578 67.4386694,71.7774636 68.1488565,70.4908108 C68.1528482,70.483659 68.1568399,70.476341 68.1608316,70.4691892 C68.9460291,69.1835343 70.2704366,68.3216632 71.7639917,68.1247401 C71.995343,68.11842 72.2243659,68.1716424 72.4292723,68.2790852 C73.5522661,68.9057796 73.6121414,71.6227859 72.8084823,73.0624532 Z" id="Shape"></path>
                        </g>
                    </g>
                </g>
            </g>
        </g>
    </g>
</svg>