<?xml version="1.0" encoding="UTF-8"?>
<svg width="70px" height="64px" viewBox="0 0 70 64" version="1.1" xmlns="http://www.w3.org/2000/svg" xmlns:xlink="http://www.w3.org/1999/xlink">
    <!-- Generator: Sketch 49.3 (51167) - http://www.bohemiancoding.com/sketch -->
    <title>invisible-symbol</title>
    <desc>Created with Sketch.</desc>
    <defs></defs>
    <g id="Marvel" stroke="none" stroke-width="1" fill="none" fill-rule="evenodd">
        <g id="Profile_page_Woman_BlackListed" transform="translate(-806.000000, -327.000000)" fill="#C7CCD1" fill-rule="nonzero">
            <g id="invisible-symbol" transform="translate(806.000000, 327.000000)">
                <path d="M69.4515512,28.9767024 C66.5890341,24.0299707 62.6101073,19.6657951 57.9452878,16.3555902 C56.8906927,15.6075707 55.4289951,15.8554537 54.6806634,16.9100488 C53.9323317,17.9646439 54.1805268,19.4263415 55.235122,20.1746732 C58.9827122,22.8339512 62.2292293,26.2637268 64.6883902,30.1499317 C58.2534244,40.3299902 46.9575805,46.5988683 34.883122,46.5988683 C33.5900098,46.5988683 32.5416585,47.6472195 32.5416585,48.9403317 C32.5416585,50.2334439 33.5900098,51.2817951 34.883122,51.2817951 C49.0808195,51.2817951 62.3266341,43.633639 69.4515512,31.3222244 C69.8714537,30.5966829 69.8714537,29.7022439 69.4515512,28.9767024 Z" id="Shape"></path>
                <path d="M34.883122,44.0485463 C42.5472,44.0485463 48.782361,37.8133854 48.782361,30.1493073 C48.782361,29.1352976 48.6721561,28.1225366 48.4548683,27.139122 C48.176078,25.8762927 46.9266732,25.0780098 45.6635317,25.3577366 C44.4007024,25.6365268 43.6033561,26.8862439 43.8821463,28.1490732 C44.0260683,28.8012488 44.099122,29.4743415 44.099122,30.1493073 C44.099122,35.2312195 39.964722,39.3656195 34.8828098,39.3656195 C33.1897756,39.3656195 31.6035122,38.9048195 30.2385951,38.1049756 L64.1161366,4.22774634 C65.0305561,3.31332683 65.0305561,1.8307122 64.1161366,0.916604878 C63.2017171,0.00218536585 61.7191024,0.00218536585 60.8049951,0.916604878 L26.9277659,34.7938341 C26.127922,33.4289171 25.667122,31.8426537 25.667122,30.1496195 C25.667122,25.0677073 29.801522,20.9333073 34.8834341,20.9333073 C35.611161,20.9333073 36.3345171,21.0179122 37.0338341,21.1849366 C38.2907317,21.4840195 39.5548098,20.7091512 39.8551415,19.4513171 C40.1554732,18.1934829 39.3793561,16.9303415 38.121522,16.6300098 C37.0663024,16.3780683 35.9767415,16.2503805 34.8834341,16.2503805 C27.2193561,16.2503805 20.9841951,22.4855415 20.9841951,30.1496195 C20.9841951,33.1379512 21.9351415,35.9064976 23.5463805,38.1755317 L18.9371317,42.7847805 C13.2461268,39.8891707 8.48202927,35.5462244 5.07754146,30.1502439 C11.5125073,19.9689366 22.808039,13.7000585 34.8834341,13.7000585 C37.3853659,13.7000585 39.8826146,13.9635512 42.3061854,14.4833561 C43.5708878,14.7549659 44.8156098,13.9495024 45.0865951,12.6851122 C45.3578927,11.420722 44.5527415,10.1756878 43.2883512,9.90470244 C40.5425951,9.31559024 37.7147317,9.01713171 34.8834341,9.01713171 C20.6857366,9.01713171 7.43992195,16.6652878 0.315004878,28.9770146 C-0.104897561,29.7025561 -0.104897561,30.5969951 0.315004878,31.3225366 C3.95301463,37.609522 9.17166829,42.7326439 15.476761,46.2451512 L1.80230244,59.9192976 C0.887882927,60.8337171 0.887882927,62.3163317 1.80230244,63.230439 C2.2593561,63.6874927 2.85877073,63.9163317 3.45787317,63.9163317 C4.05697561,63.9163317 4.65639024,63.6878049 5.1134439,63.230439 L26.8572098,41.4866732 C29.1265561,43.0976 31.8951024,44.0485463 34.883122,44.0485463 Z" id="Shape"></path>
            </g>
        </g>
    </g>
</svg>